<svg xmlns="http://www.w3.org/2000/svg" width="205.9" height="287.5" viewBox="0 0 205.9 287.5"><path fill="#FFF" d="M205.9 281.4c0 3.4-1.2 6.1-2.9 6.1H3c-1.7 0-3-2.7-3-6.1V5.9C0 2.5 1.3 0 3 0h200c1.7 0 2.9 2.5 2.9 5.9v275.5z"/><path fill="#EFC223" d="M23 59.4h157.1v53.3H23z"/><g fill="none" stroke="#000" stroke-linecap="round" stroke-linejoin="round" stroke-miterlimit="10"><path stroke-width="1.11" d="M23.5 10v3.9M23.5 20.5v3.9M30.8 17.2h-3.9M20.2 17.2h-3.9"/><path stroke-width="1.323" d="M28.5 22.4l-2.8-2.8M21 14.9l-2.8-2.8M18.2 22.4l2.8-2.8M25.7 14.9l2.8-2.8"/></g><g fill="none" stroke="#050505" stroke-width="1.316" stroke-linecap="round" stroke-linejoin="round" stroke-miterlimit="10"><path d="M52.7 23.5s2.7-.5 2.7-3.4M58.1 23.5s-2.7-.5-2.7-3.4M58.1 23.5s-2.7.5-2.7 3.4M52.7 23.5s2.7.5 2.7 3.4"/></g><g fill="none" stroke="#050505" stroke-width="1.316" stroke-linecap="round" stroke-linejoin="round" stroke-miterlimit="10"><path d="M86.4 37.8s2.7-.5 2.7-3.4M91.9 37.8s-2.7-.5-2.7-3.4M91.9 37.8s-2.7.5-2.7 3.4M86.4 37.8s2.7.5 2.7 3.4"/></g><path d="M24.9 158.1c-.6-.3-1.1-.8-1.4-1.3-.3-.6-.5-1.2-.5-2v-3.2c0-.7.2-1.4.5-2 .3-.6.8-1 1.4-1.3.6-.3 1.3-.5 2.1-.5s1.5.2 2.1.5c.6.3 1.1.8 1.4 1.3.3.6.5 1.2.5 2v3.2c0 .7-.2 1.4-.5 2-.3.6-.8 1-1.4 1.3-.6.3-1.3.5-2.1.5s-1.5-.2-2.1-.5zm3.4-1.8c.3-.3.5-.8.5-1.4v-3.3c0-.6-.2-1-.5-1.4-.3-.4-.8-.5-1.3-.5-.6 0-1 .2-1.3.5-.3.4-.5.8-.5 1.4v3.3c0 .6.2 1 .5 1.4.3.4.8.5 1.3.5.6 0 1-.2 1.3-.5zM37.2 150.7h1.6c.2 0 .3.1.3.3v7.2c0 .2-.1.3-.3.3h-1.6c-.2 0-.3-.1-.3-.3v-.4-.1h-.1c-.4.5-1 .8-1.8.8s-1.4-.2-1.9-.7-.7-1.1-.7-1.9V151c0-.2.1-.3.3-.3h1.6c.2 0 .3.1.3.3v4.4c0 .4.1.7.3 1 .2.2.5.4.9.4.3 0 .6-.1.8-.3.2-.2.4-.5.4-.8V151c-.1-.2 0-.3.2-.3zM45.3 150.8c.1.1.2.2.1.3l-.3 1.6c0 .1 0 .1-.1.2s-.1 0-.2 0c-.2 0-.3-.1-.4-.1h-.3c-.4 0-.7.2-.9.4-.2.2-.4.5-.4.9v4c0 .2-.1.3-.3.3h-1.6c-.2 0-.3-.1-.3-.3V151c0-.2.1-.3.3-.3h1.6c.2 0 .3.1.3.3v.6h.1c.4-.6.9-.9 1.6-.9.3-.1.5 0 .8.1zM55.3 151.3c.5.5.7 1.2.7 2v4.8c0 .2-.1.3-.3.3h-1.6c-.2 0-.3-.1-.3-.3v-4.4c0-.4-.1-.7-.3-1-.2-.2-.5-.4-.9-.4s-.7.1-.9.4c-.2.2-.3.6-.3 1v4.4c0 .2-.1.3-.3.3h-1.6c-.2 0-.3-.1-.3-.3V151c0-.2.1-.3.3-.3h1.6c.2 0 .3.1.3.3v.5h.1c.4-.6 1-.8 1.8-.8.9-.1 1.5.2 2 .6zM62.8 156.1c.1-.1.1-.1.2-.1s.1 0 .2.1l.9.8c.1.1.1.1.1.2s0 .1-.1.2c-.3.4-.8.7-1.3 1-.5.2-1.1.4-1.7.4-.9 0-1.7-.2-2.3-.7-.6-.5-1-1.1-1.2-1.9-.1-.4-.2-.9-.2-1.4 0-.6.1-1.1.2-1.5.2-.7.6-1.3 1.2-1.8.6-.4 1.3-.7 2.2-.7 1 0 1.8.3 2.3.9s.9 1.4 1.1 2.4c0 .3.1.7.1 1.1 0 .2-.1.3-.3.3h-4.6c-.1 0-.1 0-.1.1 0 .2.1.4.1.5.1.3.3.5.6.7.3.2.7.2 1.1.2.6-.2 1.1-.4 1.5-.8zm-2.7-3.4c-.2.2-.4.4-.4.7 0 .2-.1.3-.1.4 0 .1 0 .1.1.1h2.5c.1 0 .1 0 .1-.1s0-.2-.1-.3c-.1-.3-.2-.5-.5-.7s-.5-.3-.8-.3c-.3-.1-.6 0-.8.2zM67.5 158.2l-2.1-7.2v-.1c0-.1.1-.2.2-.2h1.6c.2 0 .3.1.3.2l1 4.4s0 .1.1.1l.1-.1 1.1-4.4c0-.1.1-.2.3-.2h1.5c.2 0 .3.1.3.2l1.1 4.5s0 .1.1.1l.1-.1 1.1-4.5c0-.1.1-.2.3-.2h1.6c.1 0 .2 0 .2.1v.2l-2.1 7.2c-.1.1-.1.2-.3.2h-1.7c-.1 0-.2-.1-.3-.2l-1.1-3.9s0-.1-.1-.1 0 0-.1.1l-1 3.9c0 .1-.1.2-.3.2h-1.7c-.1 0-.2 0-.2-.2zM85.3 150.9c.5.2.9.5 1.2.9.3.4.4.8.4 1.3v5c0 .2-.1.3-.3.3H85c-.2 0-.3-.1-.3-.3v-.4-.1h-.1c-.5.5-1.1.8-2.1.8-.8 0-1.4-.2-1.9-.6-.5-.4-.7-.9-.7-1.7 0-.8.3-1.4.8-1.8.5-.4 1.3-.6 2.3-.6h1.5c.1 0 .1 0 .1-.1v-.3c0-.3-.1-.6-.3-.8-.2-.2-.5-.3-.9-.3-.3 0-.5.1-.7.1-.2.1-.3.2-.4.4-.1.1-.2.2-.3.2l-1.7-.2c-.1 0-.1 0-.2-.1l-.1-.1c.1-.4.2-.8.5-1.1.3-.3.7-.6 1.2-.8.5-.2 1-.3 1.6-.3.9.3 1.5.4 2 .6zm-.9 5.7c.3-.2.4-.5.4-.9v-.5c0-.1 0-.1-.1-.1h-1.1c-.5 0-.8.1-1.1.3s-.4.4-.4.7c0 .3.1.5.3.6.2.2.5.2.8.2.5.1.9 0 1.2-.3zM93 151v1.3c0 .2-.1.3-.3.3h-1.4c-.1 0-.1 0-.1.1v5.6c0 .2-.1.3-.3.3h-1.6c-.2 0-.3-.1-.3-.3v-5.6c0-.1 0-.1-.1-.1h-.8c-.2 0-.3-.1-.3-.3V151c0-.2.1-.3.3-.3h.8c.1 0 .1 0 .1-.1v-.3c0-.6.1-1.1.3-1.4.2-.3.5-.6.9-.7.4-.1 1-.2 1.8-.2h.5c.2 0 .3.1.3.3v1.1c0 .2-.1.3-.3.3h-.4c-.3 0-.6.1-.7.2-.1.1-.2.4-.2.7v.1c0 .1 0 .1.1.1h1.4c.2-.1.3 0 .3.2zM98.8 151v1.3c0 .2-.1.3-.3.3h-1.4c-.1 0-.1 0-.1.1v5.6c0 .2-.1.3-.3.3h-1.6c-.2 0-.3-.1-.3-.3v-5.6c0-.1 0-.1-.1-.1h-.8c-.2 0-.3-.1-.3-.3V151c0-.2.1-.3.3-.3h.8c.1 0 .1 0 .1-.1v-.3c0-.6.1-1.1.3-1.4s.5-.6.9-.7 1-.2 1.8-.2h.5c.2 0 .3.1.3.3v1.1c0 .2-.1.3-.3.3H98c-.3 0-.6.1-.7.2-.1.1-.2.4-.2.7v.1c0 .1 0 .1.1.1h1.4c.1-.1.2 0 .2.2zM101.2 157.9c-.6-.4-1-1-1.2-1.8-.1-.5-.2-1-.2-1.5 0-.6.1-1.1.2-1.6.2-.7.6-1.3 1.2-1.7.6-.4 1.3-.6 2.2-.6.8 0 1.5.2 2.1.6.6.4 1 1 1.2 1.7.1.5.2 1 .2 1.6 0 .5-.1 1-.2 1.5-.2.8-.6 1.4-1.2 1.8-.6.4-1.3.7-2.1.7-.8-.1-1.6-.3-2.2-.7zm3-1.5c.2-.2.4-.5.5-.8.1-.3.1-.6.1-1s0-.8-.1-1.1c-.1-.3-.3-.6-.5-.8-.2-.2-.5-.3-.9-.3-.3 0-.6.1-.8.3-.2.2-.4.5-.5.8-.1.3-.1.6-.1 1.1 0 .4 0 .8.1 1 .1.4.3.6.5.8.2.2.5.3.9.3.3 0 .6-.1.8-.3zM113 150.8c.1.1.2.2.1.3l-.3 1.6c0 .1 0 .1-.1.2s-.1 0-.2 0c-.2 0-.3-.1-.4-.1h-.3c-.4 0-.7.2-.9.4-.2.2-.4.5-.4.9v4c0 .2-.1.3-.3.3h-1.6c-.2 0-.3-.1-.3-.3V151c0-.2.1-.3.3-.3h1.6c.2 0 .3.1.3.3v.6h.1c.4-.6.9-.9 1.6-.9.3-.1.6 0 .8.1zM119 147.9h1.6c.2 0 .3.1.3.3v10c0 .2-.1.3-.3.3H119c-.2 0-.3-.1-.3-.3v-.4-.1h-.1c-.4.5-1 .8-1.7.8s-1.3-.2-1.8-.6c-.5-.4-.9-.9-1.1-1.6-.2-.5-.3-1.1-.3-1.8s.1-1.4.3-1.9c.2-.6.6-1.1 1.1-1.5s1.1-.6 1.8-.6 1.3.2 1.7.7h.1V148s.1-.1.3-.1zm-.3 6.7c0-.7-.1-1.2-.3-1.5-.2-.4-.6-.6-1-.6-.5 0-.8.2-1 .6-.2.4-.4.9-.4 1.6 0 .6.1 1.1.3 1.5.2.4.6.6 1.1.6.4 0 .8-.2 1-.6.2-.5.3-1 .3-1.6zM127.3 150.9c.5.2.9.5 1.2.9.3.4.4.8.4 1.3v5c0 .2-.1.3-.3.3H127c-.2 0-.3-.1-.3-.3v-.4-.1h-.1c-.5.5-1.1.8-2.1.8-.8 0-1.4-.2-1.9-.6-.5-.4-.7-.9-.7-1.7 0-.8.3-1.4.8-1.8.5-.4 1.3-.6 2.3-.6h1.5c.1 0 .1 0 .1-.1v-.3c0-.3-.1-.6-.3-.8-.2-.2-.5-.3-.9-.3-.3 0-.5.1-.7.1-.2.1-.3.2-.4.4-.1.1-.2.2-.3.2l-1.7-.2c-.1 0-.1 0-.2-.1l-.1-.1c0-.4.2-.8.5-1.1.3-.3.7-.6 1.2-.8s1-.3 1.6-.3c.9.3 1.5.4 2 .6zm-1 5.7c.3-.2.4-.5.4-.9v-.5c0-.1 0-.1-.1-.1h-1.1c-.4 0-.8.1-1.1.3s-.4.4-.4.7c0 .3.1.5.3.6s.5.2.8.2c.6.1.9 0 1.2-.3zM137.5 154.5c0 .7-.1 1.3-.3 1.8-.2.7-.6 1.2-1.1 1.6-.5.4-1.1.6-1.8.6s-1.3-.3-1.7-.8h-.1v.5c0 .2-.1.3-.3.3h-1.6c-.2 0-.3-.1-.3-.3v-10c0-.2.1-.3.3-.3h1.6c.2 0 .3.1.3.3v3.2h.1c.4-.5 1-.7 1.7-.7s1.3.2 1.8.6c.5.4.9.9 1.1 1.5.2.4.3 1 .3 1.7zm-2.3.1c0-.6-.1-1.2-.4-1.6-.2-.4-.6-.6-1-.6s-.8.2-1 .6c-.2.4-.3.9-.3 1.5s.1 1.1.3 1.5c.2.4.6.6 1 .6.5 0 .9-.2 1.1-.6.2-.3.3-.8.3-1.4zM138.7 158.2v-10c0-.2.1-.3.3-.3h1.6c.2 0 .3.1.3.3v10c0 .2-.1.3-.3.3H139c-.2-.1-.3-.2-.3-.3zM147.7 156.1c.1-.1.1-.1.2-.1s.1 0 .2.1l.9.8c.1.1.1.1.1.2s0 .1-.1.2c-.3.4-.8.7-1.3 1-.5.2-1.1.4-1.7.4-.9 0-1.7-.2-2.3-.7s-1-1.1-1.2-1.9c-.1-.4-.2-.9-.2-1.4 0-.6.1-1.1.2-1.5.2-.7.6-1.3 1.2-1.8.6-.4 1.3-.7 2.2-.7 1 0 1.8.3 2.3.9.6.6.9 1.4 1.1 2.4 0 .3.1.7.1 1.1 0 .2-.1.3-.3.3h-4.6c-.1 0-.1 0-.1.1 0 .2.1.4.1.5.1.3.3.5.6.7.3.2.7.2 1.1.2.6-.2 1.1-.4 1.5-.8zm-2.7-3.4c-.2.2-.4.4-.4.7-.1.2-.1.3-.1.4 0 .1 0 .1.1.1h2.5s.1 0 .1-.1 0-.2-.1-.3c-.1-.3-.2-.5-.5-.7s-.5-.3-.8-.3c-.4-.1-.6 0-.8.2zM29.1 170.2c.5.5.7 1.2.7 2v4.8c0 .2-.1.3-.3.3H28c-.2 0-.3-.1-.3-.3v-4.4c0-.4-.1-.7-.3-1-.2-.2-.5-.4-.9-.4s-.7.1-.9.4c-.2.2-.3.6-.3 1v4.4c0 .2-.1.3-.3.3h-1.6c-.2 0-.3-.1-.3-.3v-10c0-.2.1-.3.3-.3H25c.2 0 .3.1.3.3V170.3h.1c.4-.6 1-.8 1.8-.8s1.4.2 1.9.7zM32.6 176.8c-.6-.4-1-1-1.2-1.8-.1-.5-.2-1-.2-1.5 0-.6.1-1.1.2-1.6.2-.7.6-1.3 1.2-1.7.6-.4 1.3-.6 2.2-.6.8 0 1.5.2 2.1.6.6.4 1 1 1.2 1.7.2.5.2 1 .2 1.6 0 .5-.1 1-.2 1.5-.2.8-.6 1.4-1.2 1.8-.6.4-1.3.7-2.1.7-.9-.1-1.6-.3-2.2-.7zm3-1.5c.2-.2.4-.5.5-.8.1-.3.1-.6.1-1s0-.8-.1-1.1c-.1-.3-.3-.6-.5-.8-.2-.2-.5-.3-.9-.3-.3 0-.6.1-.8.3-.2.2-.4.5-.5.8-.1.3-.1.6-.1 1.1 0 .4 0 .8.1 1 .1.4.3.6.5.8.2.2.5.3.9.3.3 0 .6-.1.8-.3zM50.1 170.2c.4.5.7 1.1.7 2v4.9c0 .2-.1.3-.3.3h-1.6c-.2 0-.3-.1-.3-.3v-4.4c0-.4-.1-.7-.3-1-.2-.2-.5-.4-.8-.4-.3 0-.6.1-.9.4-.2.2-.3.6-.3 1v4.4c0 .2-.1.3-.3.3h-1.6c-.2 0-.3-.1-.3-.3v-4.4c0-.4-.1-.7-.3-1-.2-.2-.5-.4-.9-.4-.3 0-.6.1-.8.3-.2.2-.3.5-.4.8v4.7c0 .2-.1.3-.3.3h-1.6c-.2 0-.3-.1-.3-.3v-7.2c0-.2.1-.3.3-.3h1.6c.2 0 .3.1.3.3v.6h.1c.4-.6 1-.9 1.9-.9.5 0 .9.1 1.3.3.4.2.7.5.9.9 0 0 0 .1.1.1l.1-.1c.2-.4.5-.7.9-.9s.8-.3 1.3-.3c.7-.1 1.3.1 1.8.6zM57.4 175c.1-.1.1-.1.2-.1s.1 0 .2.1l.9.8c.1.1.1.1.1.2s0 .1-.1.2c-.3.4-.8.7-1.3 1-.5.2-1.1.4-1.7.4-.9 0-1.7-.2-2.3-.7s-1-1.1-1.2-1.9c-.1-.4-.2-.9-.2-1.4 0-.6.1-1.1.2-1.5.2-.7.6-1.3 1.2-1.8.6-.4 1.3-.7 2.2-.7 1 0 1.8.3 2.3.9s.9 1.4 1.1 2.4c0 .3.1.7.1 1.1 0 .2-.1.3-.3.3h-4.6c-.1 0-.1 0-.1.1 0 .2.1.4.1.5.1.3.3.5.6.7.3.2.7.2 1.1.2.7-.2 1.2-.4 1.5-.8zm-2.7-3.5c-.2.2-.4.4-.4.7-.1.2-.1.3-.1.4 0 .1 0 .1.1.1h2.5s.1 0 .1-.1 0-.2-.1-.3c-.1-.3-.2-.5-.5-.7-.2-.2-.5-.3-.8-.3-.3 0-.6.1-.8.2zM61.7 177.1c-.5-.2-.9-.5-1.2-.8s-.4-.7-.4-1.2v-.1c0-.2.1-.3.3-.3h1.5c.2 0 .3 0 .3.1v.1c0 .2.1.4.4.6.2.2.5.2.9.2.3 0 .6-.1.8-.2.2-.1.3-.3.3-.5s-.1-.3-.3-.4c-.2-.1-.5-.2-.9-.3-.5-.1-.9-.2-1.1-.3-.6-.2-1.2-.5-1.5-.8-.4-.3-.6-.8-.6-1.4 0-.7.3-1.3.9-1.8s1.3-.7 2.3-.7c.6 0 1.2.1 1.7.3.5.2.9.5 1.1.9.3.4.4.8.4 1.3 0 .1 0 .1-.1.1 0 0-.1.1-.2.1h-1.5c-.2 0-.3 0-.3-.1v-.1c0-.2-.1-.4-.3-.6-.2-.1-.5-.2-.9-.2-.3 0-.6.1-.8.2-.2.1-.3.3-.3.5s.1.4.3.4c.2.1.5.2 1 .3.3.1.6.1.8.2.7.2 1.3.5 1.7.8s.6.8.6 1.4c0 .7-.3 1.3-.9 1.7-.6.4-1.4.6-2.4.6-.5.3-1.1.2-1.6 0zM75.8 169.8c.5.2.9.5 1.2.9.3.4.4.8.4 1.3v5c0 .2-.1.3-.3.3h-1.6c-.2 0-.3-.1-.3-.3v-.4-.1h-.1c-.5.5-1.1.8-2.1.8-.8 0-1.4-.2-1.9-.6-.5-.4-.7-.9-.7-1.7 0-.8.3-1.4.8-1.8.5-.4 1.3-.6 2.3-.6H75c.1 0 .1 0 .1-.1v-.3c0-.3-.1-.6-.3-.8-.2-.2-.5-.3-.9-.3-.3 0-.5.1-.7.1-.2.1-.3.2-.4.4-.1.1-.2.2-.3.2l-1.7-.2c-.1 0-.1 0-.2-.1l-.1-.1c.1-.4.2-.8.5-1.1.3-.3.7-.6 1.2-.8.5-.2 1-.3 1.6-.3.9.3 1.5.4 2 .6zm-1 5.7c.3-.2.4-.5.4-.9v-.5c0-.1 0-.1-.1-.1H74c-.5 0-.8.1-1.1.3s-.4.4-.4.7c0 .3.1.5.3.6.2.2.5.2.8.2.6 0 .9-.1 1.2-.3zM83.5 169.7c.1.1.2.2.1.3l-.3 1.6c0 .1 0 .1-.1.2s-.1 0-.2 0c-.2 0-.3-.1-.4-.1h-.3c-.4 0-.7.2-.9.4-.2.2-.4.5-.4.9v4c0 .2-.1.3-.3.3h-1.6c-.2 0-.3-.1-.3-.3v-7.2c0-.2.1-.3.3-.3h1.6c.2 0 .3.1.3.3v.6h.1c.4-.6.9-.9 1.6-.9.3 0 .6.1.8.2zM89.8 175c.1-.1.1-.1.2-.1s.1 0 .2.1l.9.8c.1.1.1.1.1.2s0 .1-.1.2c-.3.4-.8.7-1.3 1-.5.2-1.1.4-1.7.4-.9 0-1.7-.2-2.3-.7s-1-1.1-1.2-1.9c-.1-.4-.2-.9-.2-1.4 0-.6.1-1.1.2-1.5.2-.7.6-1.3 1.2-1.8.6-.4 1.3-.7 2.2-.7 1 0 1.8.3 2.3.9s.9 1.4 1.1 2.4c0 .3.1.7.1 1.1 0 .2-.1.3-.3.3h-4.6c-.1 0-.1 0-.1.1 0 .2.1.4.1.5.1.3.3.5.6.7.3.2.7.2 1.1.2.7-.2 1.2-.4 1.5-.8zm-2.7-3.5c-.2.2-.4.4-.4.7-.1.2-.1.3-.1.4 0 .1 0 .1.1.1h2.5s.1 0 .1-.1 0-.2-.1-.3c-.1-.3-.2-.5-.5-.7-.2-.2-.5-.3-.8-.3-.3 0-.6.1-.8.2zM101.7 170.2c.5.5.7 1.2.7 2v4.8c0 .2-.1.3-.3.3h-1.6c-.2 0-.3-.1-.3-.3v-4.4c0-.4-.1-.7-.3-1-.2-.2-.5-.4-.9-.4s-.7.1-.9.4c-.2.2-.3.6-.3 1v4.4c0 .2-.1.3-.3.3H96c-.2 0-.3-.1-.3-.3v-7.2c0-.2.1-.3.3-.3h1.6c.2 0 .3.1.3.3v.5h.1c.4-.6 1-.8 1.8-.8s1.4.2 1.9.7zM105.2 176.8c-.6-.4-1-1-1.2-1.8-.1-.5-.2-1-.2-1.5 0-.6.1-1.1.2-1.6.2-.7.6-1.3 1.2-1.7.6-.4 1.3-.6 2.2-.6.8 0 1.5.2 2.1.6.6.4 1 1 1.2 1.7.2.5.2 1 .2 1.6 0 .5-.1 1-.2 1.5-.2.8-.6 1.4-1.2 1.8-.6.4-1.3.7-2.1.7-.8-.1-1.6-.3-2.2-.7zm3-1.5c.2-.2.4-.5.5-.8.1-.3.1-.6.1-1s0-.8-.1-1.1c-.1-.3-.3-.6-.5-.8-.2-.2-.5-.3-.9-.3-.3 0-.6.1-.8.3-.2.2-.4.5-.5.8-.1.3-.1.6-.1 1.1 0 .4 0 .8.1 1 .1.4.3.6.5.8.2.2.5.3.9.3.3 0 .6-.1.8-.3zM114 177.1l-2.1-7.2v-.1c0-.1.1-.2.2-.2h1.6c.2 0 .3.1.3.2l1 4.4s0 .1.1.1l.1-.1 1.1-4.4c0-.1.1-.2.3-.2h1.5c.2 0 .3.1.3.2l1.1 4.5s0 .1.1.1l.1-.1 1.1-4.5c0-.1.1-.2.3-.2h1.6c.1 0 .2 0 .2.1v.2l-2.1 7.2c-.1.1-.1.2-.3.2h-1.7c-.1 0-.2-.1-.3-.2l-1.1-3.9s0-.1-.1-.1 0 0-.1.1l-1 3.9c0 .1-.1.2-.3.2h-1.7l-.2-.2zM27.7 188.7v1.3c0 .2-.1.3-.3.3H26c-.1 0-.1 0-.1.1v5.6c0 .2-.1.3-.3.3H24c-.2 0-.3-.1-.3-.3v-5.6c0-.1 0-.1-.1-.1H23c-.2 0-.3-.1-.3-.3v-1.3c0-.2.1-.3.3-.3h.8c.1 0 .1 0 .1-.1v-.3c0-.6.1-1.1.3-1.4.2-.3.5-.6.9-.7.4-.1 1-.2 1.8-.2h.5c.2 0 .3.1.3.3v1.1c0 .2-.1.3-.3.3H27c-.3 0-.6.1-.7.2s-.2.4-.2.7v.1c0 .1 0 .1.1.1h1.4s.1 0 .1.2zM30.2 195.6c-.6-.4-1-1-1.2-1.8-.1-.5-.2-1-.2-1.5 0-.6.1-1.1.2-1.6.2-.7.6-1.3 1.2-1.7.6-.4 1.3-.6 2.2-.6.8 0 1.5.2 2.1.6.6.4 1 1 1.2 1.7.1.5.2 1 .2 1.6 0 .5-.1 1-.2 1.5-.2.8-.6 1.4-1.2 1.8-.6.4-1.3.7-2.1.7-.9 0-1.6-.2-2.2-.7zm3-1.4c.2-.2.4-.5.5-.8.1-.3.1-.6.1-1s0-.8-.1-1.1c-.1-.3-.3-.6-.5-.8-.2-.2-.5-.3-.9-.3-.3 0-.6.1-.8.3-.2.2-.4.5-.5.8-.1.3-.1.6-.1 1.1 0 .4 0 .8.1 1 .1.4.3.6.5.8.2.2.5.3.9.3.3 0 .6-.1.8-.3zM41.9 188.5c.1.1.2.2.1.3l-.3 1.6c0 .1 0 .1-.1.2s-.1 0-.2 0c-.2 0-.3-.1-.4-.1h-.3c-.4 0-.7.2-.9.4-.2.2-.4.5-.4.9v4c0 .2-.1.3-.3.3h-1.6c-.2 0-.3-.1-.3-.3v-7.2c0-.2.1-.3.3-.3h1.6c.2 0 .3.1.3.3v.6h.1c.4-.6.9-.9 1.6-.9.3.1.6.1.8.2zM47.3 196c-.5-.2-.9-.5-1.2-.8s-.4-.7-.4-1.2c0-.2.1-.3.3-.3h1.5c.2 0 .3 0 .3.1v.1c0 .2.1.4.4.6.2.2.5.2.9.2.3 0 .6-.1.8-.2.2-.1.3-.3.3-.5s-.1-.3-.3-.4c-.2-.1-.5-.2-.9-.3-.5-.1-.9-.2-1.1-.3-.6-.2-1.2-.5-1.5-.8-.4-.3-.6-.8-.6-1.4 0-.7.3-1.3.9-1.8.6-.4 1.3-.7 2.3-.7.6 0 1.2.1 1.7.3.5.2.9.5 1.1.9s.4.8.4 1.3c0 .1 0 .1-.1.1 0 0-.1.1-.2.1h-1.5c-.2 0-.3 0-.3-.1v-.1c0-.2-.1-.4-.3-.6s-.4-.2-.8-.2c-.3 0-.6.1-.8.2-.2.1-.3.3-.3.5s.1.4.3.4c.2.1.5.2 1 .3.3.1.6.1.8.2.7.2 1.3.5 1.7.8.4.3.6.8.6 1.4 0 .7-.3 1.3-.9 1.7s-1.4.6-2.4.6c-.6.2-1.2.1-1.7-.1zM58.4 188.7c.5.2.9.5 1.2.9.3.4.4.8.4 1.3v5c0 .2-.1.3-.3.3h-1.6c-.2 0-.3-.1-.3-.3v-.4-.1h-.1c-.5.5-1.1.8-2.1.8-.8 0-1.4-.2-1.9-.6-.5-.4-.7-.9-.7-1.7 0-.8.3-1.4.8-1.8.5-.4 1.3-.6 2.3-.6h1.5c.1 0 .1 0 .1-.1v-.3c0-.3-.1-.6-.3-.8-.2-.2-.5-.3-.9-.3-.3 0-.5.1-.7.1-.2.1-.3.2-.4.4-.1.1-.2.2-.3.2l-1.7-.2c-.1 0-.1 0-.2-.1l-.1-.1c.1-.4.2-.8.5-1.1.3-.3.7-.6 1.2-.8.5-.2 1-.3 1.6-.3.9.3 1.5.4 2 .6zm-1 5.7c.3-.2.4-.5.4-.9v-.5c0-.1 0-.1-.1-.1h-1.1c-.5 0-.8.1-1.1.3s-.4.4-.4.7c0 .3.1.5.3.6.2.2.5.2.8.2.6 0 .9-.1 1.2-.3zM61.5 195.9v-10c0-.2.1-.3.3-.3h1.6c.2 0 .3.1.3.3v10c0 .2-.1.3-.3.3h-1.6c-.2 0-.3-.1-.3-.3zM70.4 193.8c.1-.1.1-.1.2-.1s.1 0 .2.1l.9.8c.1.1.1.1.1.2s0 .1-.1.2c-.3.4-.8.7-1.3 1-.5.2-1.1.4-1.7.4-.9 0-1.7-.2-2.3-.7s-1-1.1-1.2-1.9c-.1-.4-.2-.9-.2-1.4 0-.6.1-1.1.2-1.5.2-.7.6-1.3 1.2-1.8.6-.4 1.3-.7 2.2-.7 1 0 1.8.3 2.3.9.6.6.9 1.4 1.1 2.4 0 .3.1.7.1 1.1 0 .2-.1.3-.3.3h-4.6c-.1 0-.1 0-.1.1 0 .2.1.4.1.5.1.3.3.5.6.7.3.2.7.2 1.1.2.7-.1 1.2-.3 1.5-.8zm-2.7-3.4c-.2.2-.4.4-.4.7-.1.2-.1.3-.1.4 0 .1 0 .1.1.1h2.5s.1 0 .1-.1 0-.2-.1-.3c-.1-.3-.2-.5-.5-.7s-.5-.3-.8-.3c-.3 0-.5 0-.8.2zM74.2 195.8c-.3-.3-.4-.6-.4-.9 0-.3.1-.7.4-.9s.6-.4 1-.4.7.1 1 .4c.3.3.4.6.4.9 0 .4-.1.7-.4.9-.3.3-.6.4-1 .4s-.7-.2-1-.4zm.2-3.5l-.2-6.4c0-.2.1-.3.2-.3H76c.2 0 .2.1.2.3l-.2 6.4c0 .2-.1.3-.3.3h-1.2s-.1-.1-.1-.3zM24.5 227.1l-2-7.4v-.1c0-.1.1-.2.2-.2H24c.1 0 .2.1.2.2l1 4.4 1-4.4c0-.1.1-.2.2-.2h1.3c.1 0 .2.1.2.2L29 224l1-4.4c0-.1.1-.2.2-.2h1.2c.1 0 .1 0 .1.1v.1l-1.8 7.4c0 .1-.1.2-.2.2h-1.2c-.1 0-.2-.1-.2-.2l-1.1-4.7-1 4.7c0 .1-.1.2-.2.2h-1.1c-.1.1-.1 0-.2-.1zM32.7 220.8c-.2-.2-.3-.4-.3-.7s.1-.5.3-.7c.2-.2.4-.3.7-.3.3 0 .5.1.7.3s.3.4.3.7-.1.5-.3.7-.4.3-.7.3c-.3-.1-.5-.2-.7-.3zm-.1 6.3v-5.3c0-.1.1-.2.2-.2H34c.1 0 .2.1.2.2v5.3c0 .1-.1.2-.2.2h-1.2c-.1 0-.2-.1-.2-.2zM38.5 222.8h-1s-.1 0-.1.1v2.3c0 .2 0 .4.1.5s.3.2.5.2h.3c.1 0 .2.1.2.2v1c0 .1-.1.2-.2.2h-.6c-.6 0-1.1-.1-1.4-.3-.3-.2-.5-.6-.5-1.2v-2.9s0-.1-.1-.1h-.6c-.1 0-.2-.1-.2-.2v-.9c0-.1.1-.2.2-.2h.6s.1 0 .1-.1v-1.3c0-.1.1-.2.2-.2h1.1c.1 0 .2.1.2.2v1.3s0 .1.1.1h1c.1 0 .2.1.2.2v.9c.1.1 0 .2-.1.2zM44 222c.4.4.5.9.5 1.5v3.6c0 .1-.1.2-.2.2h-1.2c-.1 0-.2-.1-.2-.2v-3.3c0-.3-.1-.5-.2-.7s-.4-.3-.7-.3-.5.1-.7.3-.3.4-.3.7v3.3c0 .1-.1.2-.2.2h-1.2c-.1 0-.2-.1-.2-.2v-7.4c0-.1.1-.2.2-.2H41c.1 0 .2.1.2.2v2.5c.3-.4.8-.6 1.3-.6.7-.1 1.2 0 1.5.4zM53.2 224.4c0 .5-.1 1-.2 1.3-.1.5-.4.9-.8 1.2s-.8.4-1.3.4-1-.2-1.3-.6v.4c0 .1-.1.2-.2.2h-1.2c-.1 0-.2-.1-.2-.2v-7.4c0-.1.1-.2.2-.2h1.2c.1 0 .2.1.2.2v2.4c.3-.4.7-.5 1.3-.5.5 0 .9.1 1.3.4.4.3.6.7.8 1.1.1.3.2.7.2 1.3zm-1.7 0c0-.5-.1-.9-.3-1.2-.2-.3-.4-.4-.8-.4-.3 0-.6.1-.7.4-.2.3-.2.7-.2 1.1 0 .5.1.8.2 1.1.2.3.4.5.8.5s.6-.2.8-.5c.2-.2.2-.5.2-1zM57.6 221.6h1.2c.1 0 .2.1.2.2v5.3c0 .1-.1.2-.2.2h-1.2c-.1 0-.2-.1-.2-.2v-.3-.1c-.3.4-.7.6-1.4.6-.6 0-1-.2-1.4-.5-.4-.3-.5-.8-.5-1.4v-3.7c0-.1.1-.2.2-.2h1.2c.1 0 .2.1.2.2v3.3c0 .3.1.5.2.7.2.2.4.3.7.3.3 0 .5-.1.6-.2.2-.2.3-.4.3-.6v-3.4c-.1-.2 0-.2.1-.2zM60.3 220.8c-.2-.2-.3-.4-.3-.7s.1-.5.3-.7c.2-.2.4-.3.7-.3.3 0 .5.1.7.3s.3.4.3.7-.1.5-.3.7-.4.2-.7.2c-.3 0-.5-.1-.7-.2zm-.1 6.3v-5.3c0-.1.1-.2.2-.2h1.2c.1 0 .2.1.2.2v5.3c0 .1-.1.2-.2.2h-1.2c-.1 0-.2-.1-.2-.2zM63.1 227.1v-7.4c0-.1.1-.2.2-.2h1.2c.1 0 .2.1.2.2v7.4c0 .1-.1.2-.2.2h-1.2c-.2 0-.2-.1-.2-.2zM69.4 219.5h1.2c.1 0 .2.1.2.2v7.4c0 .1-.1.2-.2.2h-1.2c-.1 0-.2-.1-.2-.2v-.3-.1c-.3.4-.7.6-1.3.6-.5 0-.9-.1-1.3-.4s-.7-.7-.8-1.2c-.1-.4-.2-.8-.2-1.3s.1-1 .2-1.4c.2-.5.4-.9.8-1.1.4-.3.8-.4 1.3-.4s1 .2 1.3.5v-2.4s.1-.1.2-.1zm-.2 4.9c0-.5-.1-.9-.2-1.1-.2-.3-.4-.4-.7-.4-.3 0-.6.1-.8.4-.2.3-.3.7-.3 1.2 0 .4.1.8.2 1.1.2.3.4.5.8.5.3 0 .6-.2.8-.5.2-.4.2-.7.2-1.2zM72.2 220.8c-.2-.2-.3-.4-.3-.7s.1-.5.3-.7c.2-.2.4-.3.7-.3.3 0 .5.1.7.3s.3.4.3.7-.1.5-.3.7-.4.3-.7.3c-.3-.1-.6-.2-.7-.3zm-.1 6.3v-5.3c0-.1.1-.2.2-.2h1.2c.1 0 .2.1.2.2v5.3c0 .1-.1.2-.2.2h-1.2c-.2 0-.2-.1-.2-.2zM79.3 222c.4.4.5.9.5 1.5v3.6c0 .1-.1.2-.2.2h-1.2c-.1 0-.2-.1-.2-.2v-3.3c0-.3-.1-.5-.2-.7-.2-.2-.4-.3-.7-.3s-.5.1-.7.3c-.2.2-.3.4-.3.7v3.3c0 .1-.1.2-.2.2h-1.2c-.1 0-.2-.1-.2-.2v-5.3c0-.1.1-.2.2-.2h1.2c.1 0 .2.1.2.2v.4c0 .1 0 0 0 0 .3-.4.8-.6 1.3-.6s1.3 0 1.7.4zM84.6 221.6h1.2c.1 0 .2.1.2.2v5c0 1-.3 1.7-.8 2.1s-1.3.6-2.1.6c-.2 0-.5 0-.8-.1-.1 0-.2-.1-.2-.2v-1c0-.1 0-.1.1-.1h.2c.3 0 .5.1.7.1.5 0 .8-.1 1.1-.3.3-.2.4-.5.4-1h-.1c-.3.3-.7.4-1.2.4s-.9-.1-1.3-.3c-.4-.2-.7-.6-.9-1.1-.1-.3-.2-.8-.2-1.3 0-.6.1-1 .2-1.4.2-.5.4-.8.8-1.1.4-.3.8-.4 1.3-.4.6 0 1 .2 1.3.5h.1V221.9c-.2-.3-.1-.3 0-.3zm-.2 2.8v-.5c0-.1 0-.2-.1-.4s-.2-.4-.3-.5c-.2-.1-.3-.2-.6-.2-.2 0-.4.1-.6.2-.2.1-.3.3-.3.5-.1.2-.2.5-.2.9s0 .7.1.9c.1.2.2.4.3.5s.4.2.6.2c.2 0 .4-.1.6-.2s.3-.3.3-.5c.2-.2.2-.5.2-.9zM90.6 227.1l-1.6-5.3v-.1c0-.1.1-.1.2-.1h1.2c.1 0 .2.1.2.2l.8 3.3.8-3.3c0-.1.1-.2.2-.2h1.1c.1 0 .2.1.2.2l.8 3.3.8-3.3c0-.1.1-.2.2-.2h1.2c.1 0 .1 0 .1.1v.1l-1.6 5.3c0 .1-.1.2-.2.2h-1.2c-.1 0-.2-.1-.2-.2l-.8-2.9-.7 2.9c0 .1-.1.2-.2.2h-1.2s-.1-.1-.1-.2zM99 226.9c-.4-.3-.7-.8-.9-1.3-.1-.3-.2-.7-.2-1.1 0-.5.1-.8.2-1.2.2-.5.5-1 .9-1.3.4-.3 1-.5 1.6-.5.6 0 1.1.2 1.6.5.4.3.7.7.9 1.3.1.3.2.7.2 1.2 0 .4 0 .8-.1 1.1-.2.6-.5 1-.9 1.4-.4.3-1 .5-1.6.5-.8-.1-1.3-.3-1.7-.6zm2.2-1.1c.2-.1.3-.4.4-.6.1-.2.1-.5.1-.8 0-.3 0-.6-.1-.8-.1-.3-.2-.4-.4-.6-.2-.1-.4-.2-.6-.2-.2 0-.5.1-.6.2-.2.1-.3.3-.4.6-.1.2-.1.5-.1.8 0 .3 0 .6.1.8.1.3.2.5.4.6s.4.2.6.2c.2 0 .4-.1.6-.2zM107.6 221.6c.1 0 .1.1.1.2l-.2 1.2c0 .1 0 .1-.1.1h-.8c-.3 0-.5.1-.7.3-.2.2-.3.4-.3.7v3c0 .1-.1.2-.2.2h-1.2c-.1 0-.2-.1-.2-.2v-5.3c0-.1.1-.2.2-.2h1.2c.1 0 .2.1.2.2v.4h.1c.3-.4.7-.6 1.2-.6.4-.1.6-.1.7 0zM108.5 227.1v-7.4c0-.1.1-.2.2-.2h1.2c.1 0 .2.1.2.2v3.7l1.5-1.7c.1-.1.2-.1.2-.1H113.2v.2l-1.4 1.7v.1l1.6 3.5v.1c0 .1-.1.1-.2.1h-1.3c-.1 0-.2 0-.2-.1l-1.1-2.5h-.1l-.7.9V227.3c0 .1-.1.2-.2.2h-1.2c.1-.2.1-.3.1-.4zM121 222c.4.4.5.9.5 1.5v3.6c0 .1-.1.2-.2.2h-1.2c-.1 0-.2-.1-.2-.2v-3.3c0-.3-.1-.5-.2-.7-.2-.2-.4-.3-.7-.3s-.5.1-.7.3c-.2.2-.3.4-.3.7v3.3c0 .1-.1.2-.2.2h-1.2c-.1 0-.2-.1-.2-.2v-5.3c0-.1.1-.2.2-.2h1.2c.1 0 .2.1.2.2v.4c0 .1 0 0 0 0 .3-.4.8-.6 1.3-.6s1.4 0 1.7.4zM123.6 226.9c-.4-.3-.7-.8-.9-1.3-.1-.3-.2-.7-.2-1.1 0-.5.1-.8.2-1.2.2-.5.5-1 .9-1.3.4-.3 1-.5 1.6-.5.6 0 1.1.2 1.6.5.4.3.7.7.9 1.3.1.3.2.7.2 1.2 0 .4 0 .8-.1 1.1-.2.6-.5 1-.9 1.4-.4.3-1 .5-1.6.5-.7-.1-1.3-.3-1.7-.6zm2.2-1.1c.2-.1.3-.4.4-.6.1-.2.1-.5.1-.8 0-.3 0-.6-.1-.8-.1-.3-.2-.4-.4-.6-.2-.1-.4-.2-.6-.2-.2 0-.5.1-.6.2-.2.1-.3.3-.4.6-.1.2-.1.5-.1.8 0 .3 0 .6.1.8.1.3.2.5.4.6s.4.2.6.2c.2 0 .5-.1.6-.2zM130.1 227.1l-1.6-5.3v-.1c0-.1.1-.1.2-.1h1.2c.1 0 .2.1.2.2l.8 3.3.8-3.3c0-.1.1-.2.2-.2h1.1c.1 0 .2.1.2.2l.8 3.3.8-3.3c0-.1.1-.2.2-.2h1.2c.1 0 .1 0 .1.1v.1l-1.6 5.3c0 .1-.1.2-.2.2h-1.2c-.1 0-.2-.1-.2-.2l-.8-2.9-.7 2.9c0 .1-.1.2-.2.2h-1.2s0-.1-.1-.2zM143.4 219.5h1.2c.1 0 .2.1.2.2v7.4c0 .1-.1.2-.2.2h-1.2c-.1 0-.2-.1-.2-.2v-.3-.1c-.3.4-.7.6-1.3.6-.5 0-.9-.1-1.3-.4s-.7-.7-.8-1.2c-.1-.4-.2-.8-.2-1.3s.1-1 .2-1.4c.2-.5.4-.9.8-1.1.4-.3.8-.4 1.3-.4s1 .2 1.3.5 0 0 0-.1v-2.3s.1-.1.2-.1zm-.2 4.9c0-.5-.1-.9-.2-1.1-.2-.3-.4-.4-.7-.4-.3 0-.6.1-.8.4-.2.3-.3.7-.3 1.2 0 .4.1.8.2 1.1.2.3.4.5.8.5.3 0 .6-.2.8-.5.1-.4.2-.7.2-1.2zM149.4 221.6c.1 0 .1.1.1.2l-.2 1.2c0 .1 0 .1-.1.1h-.8c-.3 0-.5.1-.7.3s-.3.4-.3.7v3c0 .1-.1.2-.2.2H146c-.1 0-.2-.1-.2-.2v-5.3c0-.1.1-.2.2-.2h1.2c.1 0 .2.1.2.2v.4h.1c.3-.4.7-.6 1.2-.6.3-.1.5-.1.7 0zM153.8 221.7c.4.2.7.4.9.7s.3.6.3 1v3.7c0 .1-.1.2-.2.2h-1.2c-.1 0-.2-.1-.2-.2v-.3-.1h-.1c-.3.4-.8.6-1.5.6-.6 0-1-.1-1.4-.4s-.5-.7-.5-1.2c0-.6.2-1 .6-1.3.4-.3 1-.5 1.7-.5h1.1s.1 0 .1-.1v-.2c0-.2-.1-.4-.2-.6-.2-.1-.4-.2-.7-.2-.2 0-.4 0-.5.1l-.3.3c0 .1-.1.2-.2.1l-1.2-.2c-.1 0-.1 0-.1-.1v-.1c0-.3.2-.6.4-.8.2-.2.5-.4.9-.6.4-.1.8-.2 1.2-.2.3.2.7.3 1.1.4zm-.7 4.2c.2-.2.3-.4.3-.7v-.4s0-.1-.1-.1h-.8c-.3 0-.6.1-.8.2-.2.1-.3.3-.3.5s.1.4.2.5c.1.1.3.2.6.2.4.1.7 0 .9-.2zM157.3 227.1l-1.6-5.3v-.1c0-.1.1-.1.2-.1h1.2c.1 0 .2.1.2.2l.8 3.3.8-3.3c0-.1.1-.2.2-.2h1.1c.1 0 .2.1.2.2l.8 3.3.8-3.3c0-.1.1-.2.2-.2h1.2c.1 0 .1 0 .1.1v.1l-1.6 5.3c0 .1-.1.2-.2.2h-1.2c-.1 0-.2-.1-.2-.2l-.8-2.9-.7 2.9c0 .1-.1.2-.2.2h-1.2s0-.1-.1-.2zM164.9 220.8c-.2-.2-.3-.4-.3-.7s.1-.5.3-.7c.2-.2.4-.3.7-.3.3 0 .5.1.7.3s.3.4.3.7-.1.5-.3.7-.4.3-.7.3c-.2-.1-.5-.2-.7-.3zm0 6.3v-5.3c0-.1.1-.2.2-.2h1.2c.1 0 .2.1.2.2v5.3c0 .1-.1.2-.2.2H165c-.1 0-.1-.1-.1-.2zM172.1 222c.4.4.5.9.5 1.5v3.6c0 .1-.1.2-.2.2h-1.2c-.1 0-.2-.1-.2-.2v-3.3c0-.3-.1-.5-.2-.7s-.4-.3-.7-.3-.5.1-.7.3-.3.4-.3.7v3.3c0 .1-.1.2-.2.2h-1.2c-.1 0-.2-.1-.2-.2v-5.3c0-.1.1-.2.2-.2h1.2c.1 0 .2.1.2.2v.4c.3-.4.8-.6 1.3-.6.8-.1 1.3 0 1.7.4zM177.4 221.6h1.2c.1 0 .2.1.2.2v5c0 1-.3 1.7-.8 2.1s-1.3.6-2.1.6c-.2 0-.5 0-.8-.1-.1 0-.2-.1-.2-.2v-1c0-.1 0-.1.1-.1h.1c.3 0 .5.1.7.1.5 0 .8-.1 1.1-.3.3-.2.4-.5.4-1s0 0-.1 0c-.3.3-.7.4-1.2.4s-.9-.1-1.3-.3c-.4-.2-.7-.6-.9-1.1-.1-.3-.2-.8-.2-1.3 0-.6.1-1 .2-1.4.2-.5.4-.8.8-1.1.4-.3.8-.4 1.3-.4.6 0 1 .2 1.3.5h.1c.1 0 0 0 0-.1v-.2c-.1-.3 0-.3.1-.3zm-.2 2.8v-.5c0-.1 0-.2-.1-.4s-.2-.4-.3-.5c-.2-.1-.3-.2-.6-.2-.2 0-.4.1-.6.2-.2.1-.3.3-.3.5-.1.2-.2.5-.2.9s0 .7.1.9c.1.2.2.4.3.5.2.1.4.2.6.2.2 0 .4-.1.6-.2.2-.1.3-.3.3-.5.2-.2.2-.5.2-.9zM26 238.4h-1s-.1 0-.1.1v2.3c0 .2 0 .4.2.5.1.1.3.2.5.2h.3c.1 0 .2.1.2.2v1c0 .1-.1.2-.2.2h-.6c-.6 0-1.1-.1-1.4-.3-.3-.2-.5-.6-.5-1.2v-2.9s0-.1-.1-.1h-.6c-.1 0-.2-.1-.2-.2v-.9c0-.1.1-.2.2-.2h.6s.1 0 .1-.1v-1.3c0-.1.1-.2.2-.2h1.1c.1 0 .2.1.2.2v1.3s0 .1.1.1h1c.1 0 .2.1.2.2v.9c0 .1 0 .2-.2.2zM28.1 242.4c-.4-.3-.7-.8-.9-1.3-.1-.3-.2-.7-.2-1.1 0-.5.1-.8.2-1.2.2-.5.5-1 .9-1.3.4-.3 1-.5 1.6-.5.6 0 1.1.2 1.6.5.4.3.7.7.9 1.3.1.3.2.7.2 1.2 0 .4 0 .8-.1 1.1-.2.6-.5 1-.9 1.4-.4.3-1 .5-1.6.5-.7-.1-1.3-.3-1.7-.6zm2.2-1.1c.2-.1.3-.4.4-.6.1-.2.1-.5.1-.8 0-.3 0-.6-.1-.8-.1-.3-.2-.4-.4-.6-.2-.1-.4-.2-.6-.2-.2 0-.5.1-.6.2-.2.1-.3.3-.4.6-.1.2-.1.5-.1.8 0 .3 0 .6.1.8.1.3.2.5.4.6s.4.2.6.2c.2.1.4 0 .6-.2zM39.1 237.3c.4.2.7.4.9.7s.3.6.3 1v3.7c0 .1-.1.2-.2.2H39c-.1 0-.2-.1-.2-.2v-.3-.1h-.1c-.3.4-.8.6-1.5.6-.6 0-1-.1-1.4-.4-.3-.3-.5-.7-.5-1.2 0-.6.2-1 .6-1.3.4-.3 1-.5 1.7-.5h1.1s.1 0 .1-.1v-.2c0-.2-.1-.4-.2-.6-.2-.1-.4-.2-.7-.2-.2 0-.4 0-.5.1l-.3.3c0 .1-.1.2-.2.1l-1.2-.2c-.1 0-.1 0-.1-.1v-.1c0-.3.2-.6.4-.8.2-.2.5-.4.9-.6.4-.1.8-.2 1.2-.2.2.1.7.2 1 .4zm-.7 4.2c.2-.2.3-.4.3-.7v-.4s0-.1-.1-.1h-.8c-.3 0-.6.1-.8.2-.2.1-.3.3-.3.5s.1.4.2.5.3.2.6.2c.4 0 .7-.1.9-.2zM45.3 242.9s-.2-.1-.6-.4c-.4-.3-.7-.7-.9-1.2-.1-.4-.2-.8-.2-1.3s.1-.9.2-1.3c.2-.5.5-.9.9-1.2.4-.3 1-.4 1.5-.4s1.1.1 1.6.4c.4.3.7.7.9 1.1 0 .1.1.2.1.3 0 .1-.1.2-.2.2l-1.2.2h-.1c-.1 0-.1 0-.2-.1v-.2c-.1-.2-.2-.4-.3-.5-.2-.1-.4-.2-.6-.2-.2 0-.4.1-.6.2-.2.1-.3.3-.3.5-.1.2-.1.5-.1.9s0 .7.1.9c.1.2.2.4.3.5.2.1.4.2.6.2.2 0 .4-.1.6-.2.2-.1.3-.3.4-.5v-.1s0-.1.1-.1c0 0 .1-.1.1 0l1.2.2c.1 0 .1 0 .1.1v.1c0 .1 0 .2-.1.3-.2.5-.5.9-.9 1.2s-1 .4-1.5.4h-.9zM49.6 242.6v-7.4c0-.1.1-.2.2-.2H51c.1 0 .2.1.2.2v7.4c0 .1-.1.2-.2.2h-1.2c-.1 0-.2-.1-.2-.2zM53.3 242.4c-.4-.3-.7-.8-.9-1.3-.1-.3-.2-.7-.2-1.1 0-.5.1-.8.2-1.2.2-.5.5-1 .9-1.3s1-.5 1.6-.5c.6 0 1.1.2 1.6.5s.7.7.9 1.3c.1.3.2.7.2 1.2 0 .4 0 .8-.1 1.1-.2.6-.5 1-.9 1.4-.4.3-1 .5-1.6.5-.7-.1-1.3-.3-1.7-.6zm2.2-1.1c.2-.1.3-.4.4-.6.1-.2.1-.5.1-.8 0-.3 0-.6-.1-.8-.1-.3-.2-.4-.4-.6-.2-.1-.4-.2-.6-.2-.2 0-.5.1-.6.2-.2.1-.3.3-.4.6-.1.2-.1.5-.1.8 0 .3 0 .6.1.8.1.3.2.5.4.6s.4.2.6.2c.2.1.4 0 .6-.2zM59.5 242.7c-.4-.1-.7-.3-.9-.6-.2-.3-.3-.5-.3-.9v-.1c0-.1.1-.2.2-.2h1.1c.1 0 .2 0 .2.1v.1c0 .2.1.3.3.4s.4.2.7.2c.3 0 .5 0 .6-.1s.2-.2.2-.4c0-.1-.1-.2-.2-.3-.1-.1-.4-.1-.7-.2-.4-.1-.6-.2-.8-.3-.5-.2-.9-.4-1.1-.6-.3-.2-.4-.6-.4-1 0-.5.2-1 .6-1.3.4-.3 1-.5 1.7-.5.5 0 .9.1 1.2.2s.6.4.8.6c.2.3.3.6.3.9v.1H61.8c-.1 0-.2 0-.2-.1v-.1c0-.2-.1-.3-.2-.4s-.4-.2-.7-.2c-.2 0-.4 0-.6.1s-.2.2-.2.4c0 .1.1.3.2.3.2.1.4.2.7.2.2 0 .4.1.6.2.5.2 1 .4 1.3.6.3.2.5.6.5 1.1 0 .5-.2 1-.7 1.3-.4.3-1 .5-1.8.5-.4.2-.8.1-1.2 0zM68 241.1c0-.1.1-.1.1-.1s.1 0 .1.1l.6.6.1.1v.1c-.2.3-.6.5-.9.7s-.8.3-1.2.3c-.7 0-1.2-.2-1.7-.5-.4-.3-.7-.8-.9-1.4-.1-.3-.1-.7-.1-1 0-.4 0-.8.1-1.1.1-.5.4-1 .9-1.3.4-.3 1-.5 1.6-.5.7 0 1.3.2 1.7.6s.7 1 .8 1.8c0 .2.1.5.1.8 0 .1-.1.2-.2.2h-3.4s-.1 0-.1.1c0 .2 0 .3.1.3.1.2.2.4.4.5.2.1.5.2.8.2.5 0 .9-.2 1.1-.5zm-2-2.6c-.2.1-.3.3-.3.5 0 .1-.1.2-.1.3s0 .1.1.1h2v-.3c-.1-.2-.2-.4-.3-.5-.2-.1-.4-.2-.6-.2-.4 0-.6 0-.8.1zM73.7 242.7l-1.6-5.3v-.1c0-.1.1-.1.2-.1h1.2c.1 0 .2.1.2.2l.8 3.3.8-3.3c0-.1.1-.2.2-.2h1.1c.1 0 .2.1.2.2l.8 3.3.8-3.3c0-.1.1-.2.2-.2h1.2c.1 0 .1 0 .1.1v.1l-1.6 5.3c0 .1-.1.2-.2.2h-1.2c-.1 0-.2-.1-.2-.2l-.8-2.9h-.1l-.7 2.9c0 .1-.1.2-.2.2h-1.2c.1-.1 0-.1 0-.2zM85 241.1c0-.1.1-.1.1-.1s.1 0 .1.1l.6.6.1.1v.1c-.2.3-.6.5-.9.7-.4.2-.8.3-1.2.3-.7 0-1.2-.2-1.7-.5-.4-.3-.7-.8-.9-1.4-.1-.3-.1-.7-.1-1 0-.4 0-.8.1-1.1.1-.5.4-1 .9-1.3.4-.3 1-.5 1.6-.5.7 0 1.3.2 1.7.6s.7 1 .8 1.8c0 .2.1.5.1.8 0 .1-.1.2-.2.2h-3.4s-.1 0-.1.1c0 .2 0 .3.1.3.1.2.2.4.4.5.2.1.5.2.8.2.5 0 .8-.2 1.1-.5zm-2-2.6c-.2.1-.3.3-.3.5 0 .1-.1.2-.1.3 0 0 0 .1.1.1h2v-.3c-.1-.2-.2-.4-.3-.5s-.4-.2-.6-.2c-.4 0-.6 0-.8.1zM88.8 235.1v.2l-.9 2.1c0 .1-.1.1-.2.1h-.9c-.1 0-.1 0-.1-.1v-.1l.6-2.1c0-.1.1-.2.2-.2h1.2l.1.1zM92.9 237.2c.1 0 .1.1.1.2l-.2 1.2c0 .1 0 .1-.1.1h-.8c-.3 0-.5.1-.7.3-.2.2-.3.4-.3.7v3c0 .1-.1.2-.2.2h-1.2c-.1 0-.2-.1-.2-.2v-5.3c0-.1.1-.2.2-.2h1.2c.1 0 .2.1.2.2v.4h.1c.3-.4.7-.6 1.2-.6.3-.2.5-.1.7 0zM97.6 241.1c0-.1.1-.1.1-.1s.1 0 .1.1l.6.6.1.1v.1c-.2.3-.6.5-.9.7-.4.2-.8.3-1.2.3-.7 0-1.2-.2-1.7-.5-.4-.3-.8-.8-.9-1.4-.1-.3-.1-.7-.1-1 0-.4 0-.8.1-1.1.1-.5.4-1 .9-1.3.4-.3 1-.5 1.6-.5.7 0 1.3.2 1.7.6s.7 1 .8 1.8c0 .2.1.5.1.8 0 .1-.1.2-.2.2h-3.4s-.1 0-.1.1c0 .2 0 .3.1.3.1.2.2.4.4.5.2.1.5.2.8.2.5 0 .8-.2 1.1-.5zm-2-2.6c-.2.1-.3.3-.3.5 0 .1-.1.2-.1.3s0 .1.1.1h2v-.3c-.1-.2-.2-.4-.3-.5-.2-.1-.4-.2-.6-.2-.5 0-.7 0-.8.1zM105.9 241.1c0-.1.1-.1.1-.1s.1 0 .1.1l.6.6.1.1v.1c-.2.3-.6.5-.9.7-.4.2-.8.3-1.2.3-.7 0-1.2-.2-1.7-.5-.4-.3-.8-.8-.9-1.4-.1-.3-.1-.7-.1-1 0-.4 0-.8.1-1.1.1-.5.4-1 .9-1.3.4-.3 1-.5 1.6-.5.7 0 1.3.2 1.7.6s.7 1 .8 1.8c0 .2.1.5.1.8 0 .1-.1.2-.2.2h-3.4s-.1 0-.1.1c0 .2 0 .3.1.3.1.2.2.4.4.5.2.1.5.2.8.2.5 0 .8-.2 1.1-.5zm-2-2.6c-.2.1-.3.3-.3.5 0 .1-.1.2-.1.3s0 .1.1.1h2v-.3c-.1-.2-.2-.4-.3-.5-.2-.1-.4-.2-.6-.2-.5 0-.7 0-.8.1zM107.8 242.8s0-.1 0 0v-.2l1.7-2.6v-.1l-1.7-2.6v-.1-.1H109.2c.1 0 .2 0 .2.1l1 1.5h.1l1-1.5c.1-.1.1-.1.2-.1h1.5v.2l-1.7 2.6v.1l1.7 2.6v.2H111.8c-.1 0-.2 0-.2-.1l-1-1.5-1 1.5c-.1.1-.1.1-.2.1H107.8zM115.7 242.9s-.2-.1-.6-.4c-.4-.3-.7-.7-.9-1.2-.1-.4-.2-.8-.2-1.3s.1-.9.2-1.3c.2-.5.5-.9.9-1.2.4-.3 1-.4 1.5-.4.6 0 1.1.1 1.6.4.4.3.7.7.9 1.1 0 .1.1.2.1.3 0 .1-.1.2-.2.2l-1.2.2h-.1c-.1 0-.1 0-.2-.1v-.2c-.1-.2-.2-.4-.3-.5-.2-.1-.4-.2-.6-.2-.2 0-.4.1-.6.2-.2.1-.3.3-.3.5-.1.2-.1.5-.1.9s0 .7.1.9c.1.2.2.4.3.5.2.1.4.2.6.2.2 0 .4-.1.6-.2.2-.1.3-.3.4-.5v-.1s0-.1.1-.1.1-.1.1 0l1.2.2c.1 0 .1 0 .1.1v.1c0 .1 0 .2-.1.3-.2.5-.5.9-.9 1.2-.4.3-1 .4-1.5.4h-.9zM120.2 236.3c-.2-.2-.3-.4-.3-.7s.1-.5.3-.7c.2-.2.4-.3.7-.3.3 0 .5.1.7.3s.3.4.3.7-.1.5-.3.7-.4.3-.7.3c-.3 0-.5-.1-.7-.3zm-.1 6.3v-5.3c0-.1.1-.2.2-.2h1.2c.1 0 .2.1.2.2v5.3c0 .1-.1.2-.2.2h-1.2c-.1 0-.2-.1-.2-.2zM126 238.4h-1s-.1 0-.1.1v2.3c0 .2 0 .4.1.5.1.1.3.2.5.2h.3c.1 0 .2.1.2.2v1c0 .1-.1.2-.2.2h-.6c-.6 0-1.1-.1-1.4-.3-.3-.2-.5-.6-.5-1.2v-2.9s0-.1-.1-.1h-.6c-.1 0-.2-.1-.2-.2v-.9c0-.1.1-.2.2-.2h.6s.1 0 .1-.1v-1.3c0-.1.1-.2.2-.2h1.1c.1 0 .2.1.2.2v1.3s0 .1.1.1h1c.1 0 .2.1.2.2v.9c.1.1 0 .2-.1.2zM131 241.1c0-.1.1-.1.1-.1s.1 0 .1.1l.6.6.1.1v.1c-.2.3-.6.5-.9.7-.4.2-.8.3-1.2.3-.7 0-1.2-.2-1.7-.5-.4-.3-.8-.8-.9-1.4-.1-.3-.1-.7-.1-1 0-.4 0-.8.1-1.1.1-.5.4-1 .9-1.3.4-.3 1-.5 1.6-.5.7 0 1.3.2 1.7.6s.7 1 .8 1.8c0 .2.1.5.1.8 0 .1-.1.2-.2.2h-3.4s-.1 0-.1.1c0 .2 0 .3.1.3.1.2.2.4.4.5.2.1.5.2.8.2.5 0 .8-.2 1.1-.5zm-2-2.6c-.2.1-.3.3-.3.5 0 .1-.1.2-.1.3s0 .1.1.1h2v-.3c-.1-.2-.2-.4-.3-.5-.2-.1-.4-.2-.6-.2-.4 0-.6 0-.8.1zM136.8 235h1.2c.1 0 .2.1.2.2v7.4c0 .1-.1.2-.2.2h-1.2c-.1 0-.2-.1-.2-.2v-.3-.1c-.3.4-.7.6-1.3.6-.5 0-.9-.1-1.3-.4s-.7-.7-.8-1.2c-.1-.4-.2-.8-.2-1.3s.1-1 .2-1.4c.2-.5.4-.9.8-1.1.4-.3.8-.4 1.3-.4s1 .2 1.3.5v-2.4s.1-.1.2-.1zm-.2 5c0-.5-.1-.9-.2-1.1-.2-.3-.4-.4-.7-.4-.3 0-.6.1-.8.4-.2.3-.3.7-.3 1.2 0 .4.1.8.2 1.1.2.3.4.5.8.5.3 0 .6-.2.8-.5.2-.4.2-.8.2-1.2zM144.7 238.4h-1s-.1 0-.1.1v2.3c0 .2 0 .4.2.5.1.1.3.2.5.2h.3c.1 0 .2.1.2.2v1c0 .1-.1.2-.2.2h-.6c-.6 0-1.1-.1-1.4-.3-.3-.2-.5-.6-.5-1.2v-2.9s0-.1-.1-.1h-.6c-.1 0-.2-.1-.2-.2v-.9c0-.1.1-.2.2-.2h.6s.1 0 .1-.1v-1.3c0-.1.1-.2.2-.2h1.1c.1 0 .2.1.2.2v1.3s0 .1.1.1h1c.1 0 .2.1.2.2v.9c0 .1-.1.2-.2.2zM146.7 242.4c-.4-.3-.7-.8-.9-1.3-.1-.3-.2-.7-.2-1.1 0-.5.1-.8.2-1.2.2-.5.5-1 .9-1.3.4-.3 1-.5 1.6-.5.6 0 1.1.2 1.6.5.4.3.7.7.9 1.3.1.3.2.7.2 1.2 0 .4 0 .8-.1 1.1-.2.6-.5 1-.9 1.4-.4.3-1 .5-1.6.5-.7-.1-1.2-.3-1.7-.6zm2.3-1.1c.2-.1.3-.4.4-.6.1-.2.1-.5.1-.8 0-.3 0-.6-.1-.8-.1-.3-.2-.4-.4-.6-.2-.1-.4-.2-.6-.2-.2 0-.5.1-.6.2-.2.1-.3.3-.4.6-.1.2-.1.5-.1.8 0 .3 0 .6.1.8.1.3.2.5.4.6s.4.2.6.2c.2.1.4 0 .6-.2zM152.2 242.6c-.2-.2-.3-.4-.3-.7 0-.3.1-.5.3-.7.2-.2.4-.3.7-.3.3 0 .5.1.7.3.2.2.3.4.3.7 0 .3-.1.5-.3.7-.2.2-.4.3-.7.3-.3 0-.5-.1-.7-.3zM155.1 242.6c-.2-.2-.3-.4-.3-.7 0-.3.1-.5.3-.7.2-.2.4-.3.7-.3.3 0 .5.1.7.3.2.2.3.4.3.7 0 .3-.1.5-.3.7-.2.2-.4.3-.7.3s-.5-.1-.7-.3zM158.1 242.6c-.2-.2-.3-.4-.3-.7 0-.3.1-.5.3-.7.2-.2.4-.3.7-.3.3 0 .5.1.7.3.2.2.3.4.3.7 0 .3-.1.5-.3.7-.2.2-.4.3-.7.3s-.5-.1-.7-.3z"/><g fill-rule="evenodd" clip-rule="evenodd"><path d="M158.3 261.6H150.7c-1 0-1.2.3-1.2 1.3v10.3c0 .9.3 1.2 1.2 1.2h4.1c.4 0 .9.1 1 .6.2.4 0 .8-.5 1-.2.1-.5.1-.7.1h-4.5c-1.5 0-2.3-.8-2.3-2.3V262c0-1.1.6-1.7 1.7-1.8h17c1.1 0 1.8.5 2.1 1.4.1.3.1.6.1.8V274c0 1.4-.8 2.2-2.2 2.2h-6.7c-.2 0-.5.1-.7.3-1.2 1.2-2.4 2.4-3.6 3.5-.2.2-.6.4-.9.5-.6.1-1-.4-.8-1 .1-.3.3-.5.5-.7l3.9-3.9c.2-.2.5-.3.8-.3h7.1c.9 0 1.2-.3 1.2-1.2v-10c0-1.3-.2-1.5-1.5-1.5-2.7-.3-5.1-.3-7.5-.3z"/><path d="M159.4 268c0 .6-.5 1.2-1.2 1.2s-1.2-.5-1.2-1.1c0-.7.5-1.2 1.2-1.2.7-.1 1.2.5 1.2 1.1zM155 268.1c0 .7-.5 1.2-1.2 1.1-.6 0-1.2-.5-1.2-1.2 0-.6.6-1.2 1.2-1.2.7.1 1.2.6 1.2 1.3zM162.6 269.2c-.7 0-1.2-.5-1.2-1.2 0-.6.6-1.2 1.2-1.2.7 0 1.2.6 1.2 1.2 0 .7-.5 1.2-1.2 1.2z"/></g><path stroke="#000" stroke-width=".555" stroke-miterlimit="10" d="M191.3 276.2h0l-5.6-.3c-3.2 0-3.5-.2-4.1-.8-.1-.1-.3-.4-.6-.6-.1-.1-.3-.1-.4-.1-.3.4-.8.7-1.4.7h-3.4c-.9 0-2.2-.8-2.2-1.7v-8.5c0-.9 1.3-1.4 2.2-1.4h3.4c.6 0 1.1.3 1.3.7.5-.3 1.3-.7 2.1-1.5 1.1-1.1 1.8-2.4 2-4 .1-.8.7-2.2 2.3-2.2.3 0 .7.1 1.1.2.6.2.9.9 1.1 1.5.3.9.3 2.1.2 3.1-.1.9-.4 1.5-.8 2.6h4.1c1 0 1.9.8 1.9 1.9 0 .5-.2.9-.4 1.2.3.4.4.8.4 1.3 0 .7-.3 1.3-.8 1.7.2.3.4.7.4 1.1 0 .8-.5 1.5-1.2 1.7.1.2.1.8.1 1 .2 1.2-.7 2.4-1.7 2.4zm-11-3.3c.1 0 .2 0 .2.1.1 0 .1.1.2.1.2.1.5.2.8.4.5.3.7.8.9 1 .2.3.3.6 3.3.6h0l5.6-.2c.4 0 .8-.6.8-1.1 0-.2-.1-.6-.1-.7-.2-.1-.3-.3-.3-.5 0-.3.2-.6.4-.6l.3-.1h.1s0 0 0 0h.1s0 0 0 0c.4-.1.6-.4.6-.7 0-.4-.3-.7-.8-.7-.3 0-.5-.1-.5-.4 0-.3.2-.4.5-.4h.4c.4 0 .8-.6.8-1.1 0-.4-.2-.8-.4-.9-.2-.1-.3-.3-.3-.5s.1-.4.3-.5c.2-.1.4-.2.4-.7 0-.5-.3-.8-.8-.8h-5.2c-.2 0-.4-.3-.5-.4-.1-.2-.1-.5.1-.6 1.1-1.4 1.3-3.4 1.1-4.7-.1-.9-.4-1.4-.5-1.5-.3-.1-.5-.1-.8-.1-1.1 0-1.2 1.1-1.2 1.2 0 0 0 0 0 0-.3 1.8-1.1 3.3-2.4 4.6-1.3 1.2-2.6 1.8-3.1 2-.2.1-.5 0-.7-.1-.1-.1-.4-.3-.4-.4v-.1c0-.3.3-.3 0-.3h-3.4c-.4 0-1.1.1-1.1.3v8.5c0 .2.7.6 1.1.6h3.4c.2 0 .5-.2.6-.4 0-.2.1-.4.3-.5.1-.3.1-.4.2-.4z"/><g><path d="M22.9 272.2v-.9c0-.1 0-.2.1-.2l1-1c.3-.4.6-.6.7-.7.3-.4.6-.7.8-.8.7-.7 1-1.3 1-1.7 0-.3-.1-.5-.3-.6-.2-.2-.4-.2-.7-.2-.3 0-.5.1-.7.2-.2.2-.3.4-.3.7v.2c0 .1-.1.2-.2.2H23c-.1 0-.2-.1-.2-.2v-.5c0-.4.1-.8.4-1.1.2-.3.5-.5.9-.7.4-.2.8-.2 1.3-.2s1 .1 1.4.3c.4.2.7.5.9.8s.3.7.3 1.1c0 .3-.1.6-.2 1-.2.3-.4.7-.7 1.1-.3.4-.8.9-1.5 1.7 0 0-.2.2-.5.6h3c.1 0 .2.1.2.2v1c0 .1-.1.2-.2.2h-4.9c-.3-.3-.3-.4-.3-.5zM30.3 264.6h1.3c.1 0 .2.1.2.2v7.4c0 .1-.1.2-.2.2h-1.2c-.1 0-.2-.1-.2-.2v-6.1-.1h-.1l-1 .2c-.1 0-.2-.1-.2-.2v-.8c0-.1 0-.2.1-.2l1-.4h.3zM33.1 272.2c-.2-.2-.3-.4-.3-.7 0-.3.1-.5.3-.7.2-.2.4-.3.7-.3.3 0 .5.1.7.3.2.2.3.4.3.7 0 .3-.1.5-.3.7-.2.2-.4.3-.7.3s-.5-.2-.7-.3zM37 264.6h1.3c.1 0 .2.1.2.2v7.4c0 .1-.1.2-.2.2h-1.2c-.1 0-.2-.1-.2-.2v-6.1-.1h-.1l-1 .2c-.1 0-.2-.1-.2-.2v-.8c0-.1 0-.2.1-.2l1-.4h.3zM40.3 271.8c-.5-.5-.7-1.1-.7-1.9V267c0-.8.2-1.4.7-1.8s1.1-.7 1.9-.7c.8 0 1.5.2 1.9.7s.7 1.1.7 1.8v2.9c0 .8-.2 1.4-.7 1.9s-1.1.7-1.9.7c-.8 0-1.4-.2-1.9-.7zm2.7-.9c.2-.2.3-.5.3-.8V267c0-.3-.1-.6-.3-.8-.2-.2-.5-.3-.8-.3-.3 0-.6.1-.8.3-.2.2-.3.5-.3.8v3.1c0 .3.1.6.3.8.2.2.5.3.8.3.4 0 .6-.1.8-.3zM46.1 272.2c-.2-.2-.3-.4-.3-.7 0-.3.1-.5.3-.7.2-.2.4-.3.7-.3.3 0 .5.1.7.3.2.2.3.4.3.7 0 .3-.1.5-.3.7-.2.2-.4.3-.7.3-.2-.1-.5-.2-.7-.3zM50.1 264.6h1.3c.1 0 .2.1.2.2v7.4c0 .1-.1.2-.2.2h-1.2c-.1 0-.2-.1-.2-.2v-6.1-.1c0-.1 0 0-.1 0l-1 .2c-.1 0-.2-.1-.2-.2v-.8c0-.1 0-.2.1-.2l1-.4h.3zM53.4 272.3v-.2l2.4-6.1v-.1h-2.1s-.1 0-.1.1v.4c0 .1-.1.2-.2.2h-.9c-.1 0-.2-.1-.2-.2v-1.7c0-.1.1-.2.2-.2h4.7c.1 0 .2.1.2.2v1.2l-2.4 6.2c0 .1-.1.1-.2.1h-1.3c0 .2 0 .2-.1.1z"/></g><g fill="none" stroke="#000" stroke-linecap="round" stroke-linejoin="round" stroke-miterlimit="10"><path stroke-width="1.11" d="M131.2 11.1V15M131.2 21.6v3.9M138.4 18.3h-3.8M127.9 18.3H124"/><path stroke-width="1.323" d="M136.4 23.4l-2.8-2.8M128.9 15.9l-2.8-2.8M126.1 23.4l2.8-2.8M133.6 15.9l2.8-2.8"/></g><g fill="none" stroke="#050505" stroke-width="1.316" stroke-linecap="round" stroke-linejoin="round" stroke-miterlimit="10"><path d="M165 36.1s2.7-.5 2.7-3.4M170.5 36.1s-2.7-.5-2.7-3.4M170.5 36.1s-2.7.5-2.7 3.4M165 36.1s2.7.5 2.7 3.4"/></g><g stroke="#000" stroke-width="1.323" stroke-linecap="round" stroke-linejoin="round" stroke-miterlimit="10"><path fill="none" d="M22.8 116.4h157.4M62.1 120.2V52.5"/><g fill="#FFF"><path d="M28.3 82.7h4.4v7.9h-4.4zM40.3 82.7h4.4v7.9h-4.4zM52.2 82.7h4.4v7.9h-4.4z"/></g><g fill="#FFF"><path d="M28.3 67.4h4.4v7.9h-4.4zM40.3 67.4h4.4v7.9h-4.4zM52.2 67.4h4.4v7.9h-4.4z"/></g><g fill="#FFF"><path d="M28.3 98.1h4.4v7.9h-4.4zM40.3 98.1h4.4v7.9h-4.4zM52.2 98.1h4.4v7.9h-4.4z"/></g><path fill="none" d="M22.8 59.2h39.3M22.8 112.8h39.3"/><g fill="#FFF"><path d="M67.6 82.7H72v7.9h-4.4zM79.5 82.7h4.4v7.9h-4.4zM91.5 82.7h4.4v7.9h-4.4z"/></g><g fill="#FFF"><path d="M67.6 67.4H72v7.9h-4.4zM79.5 67.4h4.4v7.9h-4.4zM91.5 67.4h4.4v7.9h-4.4z"/></g><g fill="#FFF"><path d="M67.6 98.1H72v7.9h-4.4zM79.5 98.1h4.4v7.9h-4.4zM91.5 98.1h4.4v7.9h-4.4z"/></g><path fill="none" d="M62.1 59.2h39.3M62.1 112.8h39.3"/><g><path fill="none" d="M140.9 52.5v67.7M101.6 120.2V52.5"/><g fill="#FFF"><path d="M107.2 82.7h4.4v7.9h-4.4zM119.1 82.7h4.4v7.9h-4.4zM131 82.7h4.4v7.9H131z"/></g><g fill="#FFF"><path d="M107.2 67.4h4.4v7.9h-4.4zM119.1 67.4h4.4v7.9h-4.4zM131 67.4h4.4v7.9H131z"/></g><g fill="#FFF"><path d="M107.2 98.1h4.4v7.9h-4.4zM119.1 98.1h4.4v7.9h-4.4zM131 98.1h4.4v7.9H131z"/></g><path fill="none" d="M101.6 59.2h39.3M101.6 112.8h39.3M22.8 52.5h157.4v67.7H22.8z"/><g fill="#FFF"><path d="M146.4 82.7h4.4v7.9h-4.4zM158.3 82.7h4.4v7.9h-4.4zM170.3 82.7h4.4v7.9h-4.4z"/></g><g fill="#FFF"><path d="M146.4 67.4h4.4v7.9h-4.4zM158.3 67.4h4.4v7.9h-4.4zM170.3 67.4h4.4v7.9h-4.4z"/></g><g fill="#FFF"><path d="M146.4 98.1h4.4v7.9h-4.4zM158.3 98.1h4.4v7.9h-4.4zM170.3 98.1h4.4v7.9h-4.4z"/></g><path fill="none" d="M140.9 59.2h39.3M140.9 112.8h39.3"/></g></g></svg>