<svg xmlns="http://www.w3.org/2000/svg" width="205.9" height="287.5" viewBox="0 0 205.9 287.5"><path fill="#FFF" d="M205.9 281.4c0 3.4-1.2 6.1-2.9 6.1H3c-1.7 0-3-2.7-3-6.1V5.9C0 2.5 1.3 0 3 0h200c1.7 0 2.9 2.5 2.9 5.9v275.5z"/><path fill="#EFC223" d="M141.9 94.3h4v10.4h-4zM136 83.8h3.4v3.4H136zM131.3 94.3h4v10.4h-4zM127.8 83.8h3.4v3.4h-3.4zM120.7 94.3h4v10.4h-4zM119.6 83.8h3.4v3.4h-3.4zM112.7 72.4l.2 3.9.3 5 .5 8.4 1.1 19.1H82.7l1.1-19.1.5-8.4.3-5 1.8-30h24.8l1.5 26.1zm-6.8 5.2V53.1h-2.5v24.5h2.5zm-5.9 0V53.1h-2.5v24.5h2.5zm-5.9 0V53.1h-2.5v24.5h2.5z"/><path fill="#FFF" d="M103.4 53.1h2.5v24.5h-2.5z"/><path fill="#EFC223" d="M105.6 30.5v13.3H91.9V30.5h13.7zm-2.6 6.7c0-2.3-1.9-4.2-4.2-4.2s-4.2 1.9-4.2 4.2c0 2.3 1.9 4.2 4.2 4.2s4.2-1.9 4.2-4.2zM104.4 19v7.5H93.1V19z"/><path fill="#FFF" d="M98.7 33c2.3 0 4.2 1.9 4.2 4.2 0 2.3-1.9 4.2-4.2 4.2s-4.2-1.9-4.2-4.2c0-2.3 1.9-4.2 4.2-4.2zm2.1 4.2l-2-2.1v2.1h2z"/><path fill="#FFF" d="M98.7 35.1l2.1 2.1h-2.1zM97.5 53.1h2.5v24.5h-2.5zM91.6 53.1h2.5v24.5h-2.5z"/><path fill="#EFC223" d="M74.1 83.8h3.4v3.4h-3.4zM73 94.3h4v10.4h-4zM65.8 83.8h3.4v3.4h-3.4zM62.4 94.3h4v10.4h-4zM57.6 83.8H61v3.4h-3.4zM51.9 94.3h4v10.4h-4z"/><g fill="none" stroke="#000" stroke-miterlimit="10"><path stroke-width="1.323" stroke-linecap="round" stroke-linejoin="round" d="M113.7 89.8h37.9v19.1M45.9 108.9V89.8h37.9M112.9 76.3H146v13.4M51.5 89.7V76.3h33.1"/><path stroke-width="1.323" stroke-linecap="round" stroke-linejoin="round" d="M82.7 108.9l1.1-19.1.5-8.4.3-5.1 1.7-30M111.2 46.3l1.5 26.1.2 3.9.3 5.1.5 8.4 1.1 19.1M85.6 43.7V31.6H88v-5.1h5.1M111.9 43.7V31.6h-2.4v-5.1h-5.1"/><path stroke-width="1.323" stroke-linecap="round" stroke-linejoin="round" d="M111.9 43.7h1.1v2.6H84.5v-2.6h21.1zM91.9 43.7V30.5h13.7v13.2M104.4 26.5V19H93.1v7.5H99z"/><path stroke-width="1.323" d="M103 37.2c0 2.3-1.9 4.2-4.2 4.2s-4.2-1.9-4.2-4.2c0-2.3 1.9-4.2 4.2-4.2s4.2 1.9 4.2 4.2z"/><path stroke-width="1.323" d="M98.7 35.1v2.1h2.1"/><path stroke-width="1.323" stroke-linecap="round" stroke-linejoin="round" d="M156.4 114.9v4.7H41.1v-10.7H156.4z"/><path stroke-width="1.323" d="M91.6 53.1h2.5v24.5h-2.5zM97.5 53.1h2.5v24.5h-2.5zM103.4 53.1h2.5v24.5h-2.5z"/><path stroke-width="1.323" stroke-linecap="round" stroke-linejoin="round" d="M51.5 81.4h32.8M113.1 81.4H145.9"/><path stroke-width="1.323" d="M51.9 94.3h4v10.4h-4zM62.4 94.3h4v10.4h-4zM73 94.3h4v10.4h-4zM120.7 94.3h4v10.4h-4zM131.3 94.3h4v10.4h-4zM141.9 94.3h4v10.4h-4zM57.6 83.8H61v3.4h-3.4zM65.8 83.8h3.4v3.4h-3.4zM74.1 83.8h3.4v3.4h-3.4zM119.6 83.8h3.4v3.4h-3.4zM127.8 83.8h3.4v3.4h-3.4zM136 83.8h3.4v3.4H136z"/><path stroke-width="1.323" stroke-linecap="round" stroke-linejoin="round" d="M84.7 72.4H73.4M70.7 72.4h-7.4M60.6 72.4h-4.5M53.5 72.4h-2.8M112.7 72.4H124M126.7 72.4h7.3M136.8 72.4h4.5M143.9 72.4h2.8"/><path stroke-width="1.11" stroke-linecap="round" stroke-linejoin="round" d="M41.6 114.9H156.5"/></g><g fill="none" stroke="#000" stroke-linecap="round" stroke-linejoin="round" stroke-miterlimit="10"><path stroke-width="1.11" d="M22.8 21.6v3.9M22.8 32.2v3.9M30 28.9h-3.9M19.4 28.9h-3.9"/><path stroke-width="1.323" d="M27.7 34l-2.8-2.8M20.3 26.6l-2.9-2.8M17.4 34l2.9-2.8M24.9 26.6l2.8-2.8"/></g><g fill="none" stroke="#050505" stroke-width="1.316" stroke-linecap="round" stroke-linejoin="round" stroke-miterlimit="10"><path d="M49.1 22.9s2.7-.5 2.7-3.4M54.6 22.9s-2.7-.5-2.7-3.4M54.6 22.9s-2.7.5-2.7 3.4M49.1 22.9s2.7.5 2.7 3.4"/></g><g fill="none" stroke="#000" stroke-linecap="round" stroke-linejoin="round" stroke-miterlimit="10"><path stroke-width="1.11" d="M166.5 74.9v3.9M166.5 85.5v3.9M173.8 82.2h-3.9M163.2 82.2h-3.9"/><path stroke-width="1.323" d="M171.7 87.3l-2.8-2.8M164.2 79.8l-2.8-2.8M161.4 87.3l2.8-2.8M168.9 79.8l2.8-2.8"/></g><g fill="none" stroke="#050505" stroke-width="1.316" stroke-linecap="round" stroke-linejoin="round" stroke-miterlimit="10"><path d="M172.3 60.4s2.7-.5 2.7-3.4M177.8 60.4s-2.7-.5-2.7-3.4M177.8 60.4s-2.7.5-2.7 3.4M172.3 60.4s2.7.5 2.7 3.4"/></g><g fill="none" stroke="#050505" stroke-width="1.316" stroke-linecap="round" stroke-linejoin="round" stroke-miterlimit="10"><path d="M124.2 14.4s2.7-.5 2.7-3.4M129.7 14.4s-2.7-.5-2.7-3.4M129.7 14.4s-2.7.5-2.7 3.4M124.2 14.4s2.7.5 2.7 3.4"/></g><g fill="none" stroke="#050505" stroke-width="1.316" stroke-linecap="round" stroke-linejoin="round" stroke-miterlimit="10"><path d="M18.8 83.8s2.7-.5 2.7-3.4M24.3 83.8s-2.7-.5-2.7-3.4M24.3 83.8s-2.7.5-2.7 3.4M18.8 83.8s2.7.5 2.7 3.4"/></g><path fill="none" stroke="#000" stroke-width="1.323" stroke-linecap="round" stroke-linejoin="round" stroke-miterlimit="10" d="M165.6 40.8h14.9c0-4-2.5-3.8-2.5-3.8 0-6.7-7-4.1-7-4.1-6.8-12.1-19.1-3.9-19.1 2.5-4.8-5-9.7-.5-9.5 2.5-2.6-3.6-7.7-.1-6.3 3-4.8-1.3-4 3.4-4 3.4H147M31 54.8c0-6.6 12.7-15.1 19.8-2.6 0 0 7.2-2.7 7.2 4.2 0 0 2.6-.2 2.6 3.9h-39s1.9-8.6 9.4-5.5z"/><g><path d="M21.7 157.7l-2.6-10v-.1c0-.1.1-.2.2-.2H21c.2 0 .2.1.3.2l1.4 6s0 .1.1.1c0 0 .1 0 .1-.1l1.3-6c0-.1.1-.2.3-.2h1.7c.2 0 .3.1.3.2l1.5 6s0 .1.1.1 0 0 .1-.1l1.3-6c0-.1.1-.2.3-.2h1.6c.1 0 .2 0 .2.1v.2l-2.4 10c0 .1-.1.2-.3.2h-1.6c-.2 0-.3-.1-.3-.2l-1.5-6.4s0-.1-.1-.1c0 0-.1 0-.1.1l-1.4 6.4c0 .1-.1.2-.3.2H22c-.1 0-.2-.1-.3-.2zM38.5 150.8c.5.5.7 1.2.7 2v4.8c0 .2-.1.3-.3.3h-1.6c-.2 0-.3-.1-.3-.3v-4.4c0-.4-.1-.7-.3-1-.2-.2-.5-.4-.9-.4s-.7.1-.9.4c-.2.2-.3.6-.3 1v4.4c0 .2-.1.3-.3.3h-1.6c-.2 0-.3-.1-.3-.3v-10c0-.2.1-.3.3-.3h1.6c.2 0 .3.1.3.3V150.9h.1c.4-.6 1-.8 1.8-.8s1.5.2 2 .7zM40.6 160.6v-1.2c0-.2 0-.3.1-.3h.1c.6 0 1.1-.1 1.3-.2.3-.2.5-.5.6-1v-.1l-2.4-7.4v-.1c0-.1 0-.1.1-.1 0 0 .1-.1.2-.1h1.7c.1 0 .2.1.3.2l1.2 4.5s0 .1.1.1 0 0 .1-.1l1.2-4.5c0-.1.1-.2.3-.2H47c.1 0 .2 0 .2.1v.2l-2.6 7.7c-.2.7-.5 1.3-.8 1.6s-.6.6-1.1.8c-.5.2-1.1.3-2 .3h-.1v-.2zM55.5 151.9h-1.3c-.1 0-.1 0-.1.1v3.1c0 .3.1.6.2.7s.4.2.7.2h.4c.2 0 .3.1.3.3v1.3c0 .2-.1.2-.3.3h-.8c-.8 0-1.4-.1-1.9-.4s-.6-.8-.6-1.6V152c0-.1 0-.1-.1-.1h-.8c-.2 0-.3-.1-.3-.3v-1.2c0-.2.1-.3.3-.3h.8c.1 0 .1 0 .1-.1v-1.7c0-.2.1-.3.3-.3h1.5c.2 0 .3.1.3.3v1.7c0 .1 0 .1.1.1h1.3c.2 0 .3.1.3.3v1.2c-.2.2-.3.3-.4.3zM62.9 150.8c.5.5.7 1.2.7 2v4.8c0 .2-.1.3-.3.3h-1.6c-.2 0-.3-.1-.3-.3v-4.4c0-.4-.1-.7-.3-1-.2-.2-.5-.4-.9-.4s-.7.1-.9.4c-.2.2-.3.6-.3 1v4.4c0 .2-.1.3-.3.3h-1.6c-.2 0-.3-.1-.3-.3v-10c0-.2.1-.3.3-.3h1.6c.2 0 .3.1.3.3V150.9h.1c.4-.6 1-.8 1.8-.8.9 0 1.5.2 2 .7zM70.4 155.5c.1-.1.1-.1.2-.1s.1 0 .2.1l.9.8c.1.1.1.1.1.2s0 .1-.1.2c-.3.4-.8.7-1.3 1-.5.2-1.1.4-1.7.4-.9 0-1.7-.2-2.3-.7-.6-.5-1-1.1-1.2-1.9-.1-.4-.2-.9-.2-1.4 0-.6.1-1.1.2-1.5.2-.7.6-1.3 1.2-1.8.6-.4 1.3-.7 2.2-.7 1 0 1.8.3 2.3.9s.9 1.4 1.1 2.4c0 .3.1.7.1 1.1 0 .2-.1.3-.3.3h-4.6c-.1 0-.1 0-.1.1 0 .2.1.4.1.5.1.3.3.5.6.7.3.2.7.2 1.1.2.7-.1 1.2-.3 1.5-.8zm-2.7-3.4c-.2.2-.4.4-.4.7 0 .2-.1.3-.1.4 0 .1 0 .1.1.1h2.5c.1 0 .1 0 .1-.1s0-.2-.1-.3c-.1-.3-.2-.5-.5-.7s-.5-.3-.8-.3c-.3 0-.6 0-.8.2zM81.3 150.2h1.6c.2 0 .3.1.3.3v6.8c0 1.3-.4 2.2-1.1 2.8-.7.6-1.7.8-2.9.8-.3 0-.7 0-1.1-.1-.1 0-.2-.1-.2-.3l.1-1.4c0-.1 0-.1.1-.2s.1-.1.2 0c.4 0 .7.1.9.1.6 0 1.1-.1 1.5-.4s.5-.7.5-1.3v-.1h-.1c-.4.4-.9.6-1.6.6-.7 0-1.2-.2-1.8-.5-.5-.3-.9-.8-1.2-1.5-.2-.5-.2-1.1-.2-1.8 0-.8.1-1.4.3-1.9.2-.6.6-1.1 1.1-1.5s1.1-.6 1.7-.6c.8 0 1.3.2 1.8.7h.1v-.4c-.2 0-.1-.1 0-.1zm-.2 3.8v-.7c0-.2-.1-.3-.1-.5-.1-.3-.2-.5-.5-.7-.2-.2-.5-.2-.8-.2-.3 0-.6.1-.8.2-.2.2-.4.4-.5.7-.1.3-.2.7-.2 1.2 0 .6.1 1 .2 1.2.1.3.2.5.5.7.2.2.5.2.8.2.3 0 .6-.1.8-.2.2-.2.4-.4.4-.6.1-.4.2-.8.2-1.3zM86 157.3c-.6-.4-1-1-1.2-1.8-.1-.5-.2-1-.2-1.5 0-.6.1-1.1.2-1.6.2-.7.6-1.3 1.2-1.7.6-.4 1.3-.6 2.2-.6.8 0 1.5.2 2.1.6.6.4 1 1 1.2 1.7.1.5.2 1 .2 1.6 0 .5-.1 1-.2 1.5-.2.8-.6 1.4-1.2 1.8-.6.4-1.3.7-2.1.7-.9 0-1.6-.2-2.2-.7zm3-1.4c.2-.2.4-.5.5-.8.1-.3.1-.6.1-1s0-.8-.1-1.1c-.1-.3-.3-.6-.5-.8-.2-.2-.5-.3-.9-.3-.3 0-.6.1-.8.3-.2.2-.4.5-.5.8-.1.3-.1.6-.1 1.1 0 .4 0 .8.1 1 .1.4.3.6.5.8.2.2.5.3.9.3.2 0 .5-.1.8-.3zM95 157.7l-2.3-7.2v-.1c0-.1 0-.1.1-.1 0 0 .1-.1.2-.1h1.8c.1 0 .2.1.3.2l1.2 4.5s0 .1.1.1c0 0 .1 0 .1-.1l1.2-4.5c0-.1.1-.2.3-.2h1.8c.1 0 .2 0 .2.1v.2l-2.3 7.2c-.1.1-.2.2-.3.2h-1.8c-.5 0-.6-.1-.6-.2zM106.1 155.5c.1-.1.1-.1.2-.1s.1 0 .2.1l.9.8c.1.1.1.1.1.2s0 .1-.1.2c-.3.4-.8.7-1.3 1-.5.2-1.1.4-1.7.4-.9 0-1.7-.2-2.3-.7s-1-1.1-1.2-1.9c-.1-.4-.2-.9-.2-1.4 0-.6.1-1.1.2-1.5.2-.7.6-1.3 1.2-1.8.6-.4 1.3-.7 2.2-.7 1 0 1.8.3 2.3.9s.9 1.4 1.1 2.4c0 .3.1.7.1 1.1 0 .2-.1.3-.3.3h-4.6c-.1 0-.1 0-.1.1 0 .2.1.4.1.5.1.3.3.5.6.7.3.2.7.2 1.1.2.6-.1 1.1-.3 1.5-.8zm-2.7-3.4c-.2.2-.4.4-.4.7-.1.2-.1.3-.1.4 0 .1 0 .1.1.1h2.5s.1 0 .1-.1 0-.2-.1-.3c-.1-.3-.2-.5-.5-.7-.2-.2-.5-.3-.8-.3-.3 0-.6 0-.8.2zM113.7 150.2c.1.1.2.2.1.3l-.3 1.6c0 .1 0 .1-.1.2s-.1 0-.2 0c-.2 0-.3-.1-.4-.1h-.3c-.4 0-.7.2-.9.4-.2.2-.4.5-.4.9v4c0 .2-.1.3-.3.3h-1.6c-.2 0-.3-.1-.3-.3v-7.2c0-.2.1-.3.3-.3h1.6c.2 0 .3.1.3.3v.6h.1c.4-.6.9-.9 1.6-.9.3.1.6.1.8.2zM120.7 150.8c.5.5.7 1.2.7 2v4.8c0 .2-.1.3-.3.3h-1.6c-.2 0-.3-.1-.3-.3v-4.4c0-.4-.1-.7-.3-1-.2-.2-.5-.4-.9-.4s-.7.1-.9.4c-.2.2-.3.6-.3 1v4.4c0 .2-.1.3-.3.3H115c-.2 0-.3-.1-.3-.3v-7.2c0-.2.1-.3.3-.3h1.6c.2 0 .3.1.3.3v.5h.1c.4-.6 1-.8 1.8-.8s1.5.2 1.9.7zM133.4 150.8c.4.5.7 1.1.7 2v4.9c0 .2-.1.3-.3.3h-1.6c-.2 0-.3-.1-.3-.3v-4.4c0-.4-.1-.7-.3-1-.2-.2-.5-.4-.8-.4-.3 0-.6.1-.9.4-.2.2-.3.6-.3 1v4.4c0 .2-.1.3-.3.3h-1.6c-.2 0-.3-.1-.3-.3v-4.4c0-.4-.1-.7-.3-1-.2-.2-.5-.4-.9-.4-.3 0-.6.1-.8.3-.2.2-.3.5-.4.8v4.7c0 .2-.1.3-.3.3h-1.6c-.2 0-.3-.1-.3-.3v-7.2c0-.2.1-.3.3-.3h1.6c.2 0 .3.1.3.3v.6h.1c.4-.6 1-.9 1.9-.9.5 0 .9.1 1.3.3.4.2.7.5.9.9 0 0 0 .1.1.1l.1-.1c.2-.4.5-.7.9-.9.4-.2.8-.3 1.3-.3.7-.1 1.3.1 1.8.6zM140.7 155.5c.1-.1.1-.1.2-.1s.1 0 .2.1l.9.8c.1.1.1.1.1.2s0 .1-.1.2c-.3.4-.8.7-1.3 1-.5.2-1.1.4-1.7.4-.9 0-1.7-.2-2.3-.7s-1-1.1-1.2-1.9c-.1-.4-.2-.9-.2-1.4 0-.6.1-1.1.2-1.5.2-.7.6-1.3 1.2-1.8.6-.4 1.3-.7 2.2-.7 1 0 1.8.3 2.3.9.6.6.9 1.4 1.1 2.4 0 .3.1.7.1 1.1 0 .2-.1.3-.3.3h-4.6c-.1 0-.1 0-.1.1 0 .2.1.4.1.5.1.3.3.5.6.7.3.2.7.2 1.1.2.7-.1 1.2-.3 1.5-.8zm-2.7-3.4c-.2.2-.4.4-.4.7-.1.2-.1.3-.1.4 0 .1 0 .1.1.1h2.5s.1 0 .1-.1 0-.2-.1-.3c-.1-.3-.2-.5-.5-.7s-.5-.3-.8-.3c-.3 0-.6 0-.8.2zM149.7 150.8c.5.5.7 1.2.7 2v4.8c0 .2-.1.3-.3.3h-1.6c-.2 0-.3-.1-.3-.3v-4.4c0-.4-.1-.7-.3-1-.2-.2-.5-.4-.9-.4s-.7.1-.9.4c-.2.2-.3.6-.3 1v4.4c0 .2-.1.3-.3.3H144c-.2 0-.3-.1-.3-.3v-7.2c0-.2.1-.3.3-.3h1.6c.2 0 .3.1.3.3v.5h.1c.4-.6 1-.8 1.8-.8.7 0 1.4.2 1.9.7zM156.1 151.9h-1.3c-.1 0-.1 0-.1.1v3.1c0 .3.1.6.2.7s.4.2.7.2h.4c.2 0 .3.1.3.3v1.3c0 .2-.1.2-.3.3h-.8c-.8 0-1.4-.1-1.9-.4-.4-.3-.6-.8-.6-1.6V152c0-.1 0-.1-.1-.1h-.8c-.2 0-.3-.1-.3-.3v-1.2c0-.2.1-.3.3-.3h.8c.1 0 .1 0 .1-.1v-1.7c0-.2.1-.3.3-.3h1.5c.2 0 .3.1.3.3v1.7c0 .1 0 .1.1.1h1.3c.2 0 .3.1.3.3v1.2c-.2.2-.3.3-.4.3zM159.8 147.5v.2l-1.2 2.9c-.1.1-.2.2-.3.2h-1.2c-.1 0-.2 0-.2-.1s-.1-.1 0-.2l.8-2.9c0-.1.1-.2.3-.2h1.6s.1 0 .2.1zM162 157.7c-.5-.2-.9-.5-1.2-.8s-.4-.7-.4-1.2v-.1c0-.2.1-.3.3-.3h1.5c.2 0 .3 0 .3.1v.1c0 .2.1.4.4.6.2.2.5.2.9.2.3 0 .6-.1.8-.2.2-.1.3-.3.3-.5s-.1-.3-.3-.4c-.2-.1-.5-.2-.9-.3-.5-.1-.9-.2-1.1-.3-.6-.2-1.2-.5-1.5-.8-.4-.3-.6-.8-.6-1.4 0-.7.3-1.3.9-1.8.6-.4 1.3-.7 2.3-.7.6 0 1.2.1 1.7.3.5.2.9.5 1.1.9s.4.8.4 1.3c0 .1 0 .1-.1.1 0 0-.1.1-.2.1h-1.5c-.2 0-.3 0-.3-.1v-.1c0-.2-.1-.4-.3-.6s-.5-.2-.9-.2c-.3 0-.6.1-.8.2-.2.1-.3.3-.3.5s.1.4.3.4c.2.1.5.2 1 .3.3.1.6.1.8.2.7.2 1.3.5 1.7.8.4.3.6.8.6 1.4 0 .7-.3 1.3-.9 1.7s-1.4.6-2.4.6c-.5.3-1.1.2-1.6 0zM19.6 176.5v-10c0-.2.1-.3.3-.3h1.6c.2 0 .3.1.3.3v10c0 .2-.1.3-.3.3h-1.6c-.2-.1-.3-.1-.3-.3zM28.1 169.3c.5.2.9.5 1.2.9s.4.8.4 1.3v5c0 .2-.1.3-.3.3h-1.6c-.2 0-.3-.1-.3-.3v-.4-.1h-.1c-.5.5-1.1.8-2.1.8-.8 0-1.4-.2-1.9-.6-.5-.4-.7-.9-.7-1.7 0-.8.3-1.4.8-1.8.5-.4 1.3-.6 2.3-.6h1.5c.1 0 .1 0 .1-.1v-.3c0-.3-.1-.6-.3-.8-.2-.2-.5-.3-.9-.3-.3 0-.5.1-.7.1-.2.1-.3.2-.4.4-.1.1-.2.2-.3.2l-1.7-.2c-.1 0-.1 0-.2-.1l-.1-.1c0-.4.2-.8.5-1.1.3-.3.7-.6 1.2-.8s1-.3 1.6-.3c1 .2 1.5.3 2 .6zm-.9 5.7c.3-.2.5-.5.5-.9v-.5c0-.1 0-.1-.1-.1h-1.1c-.4 0-.8.1-1.1.3s-.4.4-.4.7c0 .3.1.5.3.6.2.2.5.2.8.2.4 0 .8-.1 1.1-.3zM35.4 170.7h-1.3c-.1 0-.1 0-.1.1v3.1c0 .3.1.6.2.7s.4.2.7.2h.4c.2 0 .3.1.3.3v1.3c0 .2-.1.2-.3.3h-.8c-.8 0-1.4-.1-1.9-.4s-.6-.8-.6-1.6v-3.9c0-.1 0-.1-.1-.1h-.8c-.2 0-.3-.1-.3-.3v-1.2c0-.2.1-.3.3-.3h.8c.1 0 .1 0 .1-.1v-1.7c0-.2.1-.3.3-.3h1.5c.2 0 .3.1.3.3v1.7c0 .1 0 .1.1.1h1.3c.2 0 .3.1.3.3v1.2c-.1.3-.2.3-.4.3zM42.2 174.4c.1-.1.1-.1.2-.1s.1 0 .2.1l.9.8c.1.1.1.1.1.2s0 .1-.1.2c-.3.4-.8.7-1.3 1-.5.2-1.1.4-1.7.4-.9 0-1.7-.2-2.3-.7-.6-.5-1-1.1-1.2-1.9-.1-.4-.2-.9-.2-1.4 0-.6.1-1.1.2-1.5.2-.7.6-1.3 1.2-1.8.6-.4 1.3-.7 2.2-.7 1 0 1.8.3 2.3.9s.9 1.4 1.1 2.4c0 .3.1.7.1 1.1 0 .2-.1.3-.3.3H39c-.1 0-.1 0-.1.1 0 .2.1.4.1.5.1.3.3.5.6.7.3.2.7.2 1.1.2.6-.1 1.1-.4 1.5-.8zm-2.7-3.4c-.2.2-.4.4-.4.7 0 .2-.1.3-.1.4 0 .1 0 .1.1.1h2.5c.1 0 .1 0 .1-.1s0-.2-.1-.3c-.1-.3-.2-.5-.5-.7s-.5-.3-.8-.3c-.4-.1-.6 0-.8.2zM46.4 176.6c-.5-.2-.9-.5-1.2-.8-.3-.3-.4-.7-.4-1.2v-.1c0-.2.1-.3.3-.3h1.5c.2 0 .3 0 .3.1v.1c0 .2.1.4.4.6.2.2.5.2.9.2.3 0 .6-.1.8-.2.2-.1.3-.3.3-.5s-.1-.3-.3-.4c-.2-.1-.5-.2-.9-.3-.5-.1-.9-.2-1.1-.3-.7-.2-1.2-.5-1.5-.8s-.5-.7-.5-1.3c0-.7.3-1.3.9-1.8.6-.4 1.3-.7 2.3-.7.6 0 1.2.1 1.7.3.5.2.9.5 1.1.9.3.4.4.8.4 1.3 0 .1 0 .1-.1.1 0 0-.1.1-.2.1h-1.5c-.2 0-.3 0-.3-.1v-.1c0-.2-.1-.4-.3-.6-.2-.1-.5-.2-.9-.2-.3 0-.6.1-.8.2-.2.1-.3.3-.3.5s.1.4.3.4c.2.1.5.2 1 .3.3.1.6.1.8.2.7.2 1.3.5 1.7.8s.6.8.6 1.4c0 .7-.3 1.3-.9 1.7s-1.4.6-2.4.6c-.6.2-1.2.1-1.7-.1zM56.8 170.7h-1.3c-.1 0-.1 0-.1.1v3.1c0 .3.1.6.2.7s.4.2.7.2h.4c.2 0 .3.1.3.3v1.3c0 .2-.1.2-.3.3h-.8c-.8 0-1.4-.1-1.9-.4s-.6-.8-.6-1.6v-3.9c0-.1 0-.1-.1-.1h-.8c-.2 0-.3-.1-.3-.3v-1.2c0-.2.1-.3.3-.3h.8c.1 0 .1 0 .1-.1v-1.7c0-.2.1-.3.3-.3h1.5c.2 0 .3.1.3.3v1.7c0 .1 0 .1.1.1h1.3c.2 0 .3.1.3.3v1.2c-.1.3-.2.3-.4.3zM67.3 169.7c.5.5.7 1.2.7 2v4.8c0 .2-.1.3-.3.3h-1.6c-.2 0-.3-.1-.3-.3v-4.4c0-.4-.1-.7-.3-1-.2-.2-.5-.4-.9-.4s-.7.1-.9.4c-.2.2-.3.6-.3 1v4.4c0 .2-.1.3-.3.3h-1.6c-.2 0-.3-.1-.3-.3v-10c0-.2.1-.3.3-.3h1.6c.2 0 .3.1.3.3V169.8h.1c.4-.6 1-.8 1.8-.8.9-.1 1.5.2 2 .7zM70.8 176.2c-.6-.4-1-1-1.2-1.8-.1-.5-.2-1-.2-1.5 0-.6.1-1.1.2-1.6.2-.7.6-1.3 1.2-1.7.6-.4 1.3-.6 2.2-.6.8 0 1.5.2 2.1.6.6.4 1 1 1.2 1.7.1.5.2 1 .2 1.6 0 .5-.1 1-.2 1.5-.2.8-.6 1.4-1.2 1.8-.6.4-1.3.7-2.1.7-.9 0-1.6-.3-2.2-.7zm3-1.4c.2-.2.4-.5.5-.8.1-.3.1-.6.1-1s0-.8-.1-1.1c-.1-.3-.3-.6-.5-.8-.2-.2-.5-.3-.9-.3-.3 0-.6.1-.8.3-.2.2-.4.5-.5.8-.1.3-.1.6-.1 1.1 0 .4 0 .8.1 1 .1.4.3.6.5.8.2.2.5.3.9.3.3 0 .6-.1.8-.3zM82.7 169h1.6c.2 0 .3.1.3.3v7.2c0 .2-.1.3-.3.3h-1.6c-.2 0-.3-.1-.3-.3v-.4-.1h-.1c-.4.5-1 .8-1.8.8s-1.4-.2-1.9-.7c-.5-.5-.7-1.1-.7-1.9v-4.9c0-.2.1-.3.3-.3h1.6c.2 0 .3.1.3.3v4.4c0 .4.1.7.3 1 .2.2.5.4.9.4.3 0 .6-.1.8-.3.2-.2.4-.5.4-.8v-4.6c-.1-.3 0-.4.2-.4zM87.4 176.6c-.5-.2-.9-.5-1.2-.8-.3-.3-.4-.7-.4-1.2v-.1c0-.2.1-.3.3-.3h1.5c.2 0 .3 0 .3.1v.1c0 .2.1.4.4.6.2.2.5.2.9.2.3 0 .6-.1.8-.2s.3-.3.3-.5-.1-.3-.3-.4c-.2-.1-.5-.2-.9-.3-.5-.1-.9-.2-1.1-.3-.7-.2-1.2-.5-1.5-.8-.4-.3-.6-.8-.6-1.4 0-.7.3-1.3.9-1.8.6-.4 1.3-.7 2.3-.7.6 0 1.2.1 1.7.3.5.2.9.5 1.1.9s.4.8.4 1.3c0 .1 0 .1-.1.1 0 0-.1.1-.2.1h-1.5c-.2 0-.3 0-.3-.1v-.1c0-.2-.1-.4-.3-.6s-.5-.2-.9-.2c-.3 0-.6.1-.8.2-.2.1-.3.3-.3.5s.1.4.3.4c.2.1.5.2 1 .3.3.1.6.1.8.2.7.2 1.3.5 1.7.8.4.3.6.8.6 1.4 0 .7-.3 1.3-.9 1.7-.6.4-1.4.6-2.4.6-.5.3-1.1.2-1.6 0zM93.9 168c-.2-.2-.4-.5-.4-.9s.1-.7.4-.9c.2-.2.5-.4.9-.4s.7.1.9.3.4.5.4.9-.1.7-.4.9c-.2.2-.5.3-.9.3-.4.1-.7 0-.9-.2zm-.2 8.5v-7.2c0-.2.1-.3.3-.3h1.6c.2 0 .3.1.3.3v7.2c0 .2-.1.3-.3.3H94c-.2-.1-.3-.1-.3-.3zM103.5 169.7c.5.5.7 1.2.7 2v4.8c0 .2-.1.3-.3.3h-1.6c-.2 0-.3-.1-.3-.3v-4.4c0-.4-.1-.7-.3-1-.2-.2-.5-.4-.9-.4s-.7.1-.9.4c-.2.2-.3.6-.3 1v4.4c0 .2-.1.3-.3.3h-1.6c-.2 0-.3-.1-.3-.3v-7.2c0-.2.1-.3.3-.3h1.6c.2 0 .3.1.3.3v.5h.1c.4-.6 1-.8 1.8-.8.8-.1 1.5.2 2 .7zM110.7 169h1.6c.2 0 .3.1.3.3v6.8c0 1.3-.4 2.2-1.1 2.8-.8.6-1.7.8-2.9.8-.3 0-.7 0-1.1-.1-.1 0-.2-.1-.2-.3l.1-1.4c0-.1 0-.1.1-.2s.1-.1.2 0c.4 0 .7.1.9.1.6 0 1.1-.1 1.5-.4.3-.3.5-.7.5-1.3v-.1c0-.1 0 0-.1 0-.4.4-.9.6-1.6.6-.6 0-1.2-.2-1.8-.5-.5-.3-.9-.8-1.2-1.5-.2-.5-.2-1.1-.2-1.8 0-.8.1-1.4.3-1.9.2-.6.6-1.1 1.1-1.5.5-.4 1.1-.6 1.7-.6.7 0 1.3.2 1.8.7h.1v-.4c-.3 0-.2-.1 0-.1zm-.3 3.8v-.7c0-.2-.1-.3-.1-.5-.1-.3-.2-.5-.4-.7-.2-.2-.5-.2-.8-.2-.3 0-.6.1-.8.2-.2.2-.4.4-.5.7-.1.3-.2.7-.2 1.2 0 .6.1 1 .2 1.2.1.3.2.5.5.7s.5.2.8.2c.3 0 .6-.1.8-.2s.4-.4.4-.6c.1-.3.1-.7.1-1.3zM124.2 172.9c0 .7-.1 1.4-.3 1.9-.2.6-.6 1.1-1.1 1.5s-1.1.6-1.8.6-1.3-.2-1.7-.7h-.1v3.2c0 .2-.1.3-.3.3h-1.6c-.2 0-.3-.1-.3-.3v-10c0-.2.1-.3.3-.3h1.6c.2 0 .3.1.3.3v.5h.1c.4-.5 1-.8 1.7-.8s1.3.2 1.8.6c.5.4.9.9 1.1 1.6.2.3.3.9.3 1.6zm-2.2 0c0-.6-.1-1.1-.3-1.5-.2-.4-.6-.6-1.1-.6-.4 0-.8.2-1 .6-.2.4-.3.9-.3 1.5s.1 1.2.3 1.5c.2.4.6.6 1 .6.5 0 .8-.2 1-.6.2-.3.4-.9.4-1.5zM125.4 176.5v-10c0-.2.1-.3.3-.3h1.6c.2 0 .3.1.3.3v10c0 .2-.1.3-.3.3h-1.6c-.2-.1-.3-.1-.3-.3zM134 169.3c.5.2.9.5 1.2.9s.4.8.4 1.3v5c0 .2-.1.3-.3.3h-1.6c-.2 0-.3-.1-.3-.3v-.4-.1h-.1c-.5.5-1.1.8-2.1.8-.8 0-1.4-.2-1.9-.6-.5-.4-.7-.9-.7-1.7 0-.8.3-1.4.8-1.8.5-.4 1.3-.6 2.3-.6h1.5c.1 0 .1 0 .1-.1v-.3c0-.3-.1-.6-.3-.8-.2-.2-.5-.3-.9-.3-.3 0-.5.1-.7.1-.2.1-.3.2-.4.4-.1.1-.2.2-.3.2l-1.7-.2c-.1 0-.1 0-.2-.1l-.1-.1c.1-.4.2-.8.5-1.1.3-.3.7-.6 1.2-.8.5-.2 1-.3 1.6-.3.9.2 1.5.3 2 .6zm-1 5.7c.3-.2.5-.5.5-.9v-.5c0-.1 0-.1-.1-.1h-1.1c-.5 0-.8.1-1.1.3s-.4.4-.4.7c0 .3.1.5.3.6s.5.2.8.2c.5 0 .8-.1 1.1-.3zM143 169.7c.5.5.7 1.2.7 2v4.8c0 .2-.1.3-.3.3h-1.6c-.2 0-.3-.1-.3-.3v-4.4c0-.4-.1-.7-.3-1-.2-.2-.5-.4-.9-.4s-.7.1-.9.4c-.2.2-.3.6-.3 1v4.4c0 .2-.1.3-.3.3h-1.6c-.2 0-.3-.1-.3-.3v-7.2c0-.2.1-.3.3-.3h1.6c.2 0 .3.1.3.3v.5h.1c.4-.6 1-.8 1.8-.8.9-.1 1.5.2 2 .7zM146.6 176.6c-.5-.2-.9-.5-1.2-.8-.3-.3-.4-.7-.4-1.2v-.1c0-.2.1-.3.3-.3h1.5c.2 0 .3 0 .3.1v.1c0 .2.1.4.4.6.2.2.5.2.9.2.3 0 .6-.1.8-.2s.3-.3.3-.5-.1-.3-.3-.4c-.2-.1-.5-.2-.9-.3-.5-.1-.9-.2-1.1-.3-.7-.2-1.2-.5-1.5-.8-.4-.3-.6-.8-.6-1.4 0-.7.3-1.3.9-1.8.6-.4 1.3-.7 2.3-.7.6 0 1.2.1 1.7.3.5.2.9.5 1.1.9s.4.8.4 1.3c0 .1 0 .1-.1.1 0 0-.1.1-.2.1h-1.5c-.2 0-.3 0-.3-.1v-.1c0-.2-.1-.4-.3-.6s-.5-.2-.9-.2c-.3 0-.6.1-.8.2-.2.1-.3.3-.3.5s.1.4.3.4c.2.1.5.2 1 .3.3.1.6.1.8.2.7.2 1.3.5 1.7.8.4.3.6.8.6 1.4 0 .7-.3 1.3-.9 1.7-.6.4-1.4.6-2.4.6-.5.3-1.1.2-1.6 0zM24.5 185.1h1.6c.2 0 .3.1.3.3v10c0 .2-.1.3-.3.3h-1.6c-.2 0-.3-.1-.3-.3v-.4-.1h-.1c-.4.5-1 .8-1.7.8s-1.3-.2-1.8-.6c-.5-.4-.9-.9-1.1-1.6-.2-.5-.3-1.1-.3-1.8s.1-1.4.3-1.9c.2-.6.6-1.1 1.1-1.5.5-.4 1.1-.6 1.8-.6s1.3.2 1.7.7h.1c.1 0 0 0 0-.1v-3.1s.1-.1.3-.1zm-.3 6.7c0-.7-.1-1.2-.3-1.5-.2-.4-.6-.6-1-.6-.5 0-.8.2-1 .6-.2.4-.4.9-.4 1.6 0 .6.1 1.1.3 1.5.2.4.6.6 1.1.6.4 0 .8-.2 1-.6.2-.5.3-1 .3-1.6zM29.2 195.1c-.6-.4-1-1-1.2-1.8-.1-.5-.2-1-.2-1.5 0-.6.1-1.1.2-1.6.2-.7.6-1.3 1.2-1.7.6-.4 1.3-.6 2.2-.6.8 0 1.5.2 2.1.6.6.4 1 1 1.2 1.7.1.5.2 1 .2 1.6 0 .5-.1 1-.2 1.5-.2.8-.6 1.4-1.2 1.8-.6.4-1.3.7-2.1.7-.9-.1-1.6-.3-2.2-.7zm3-1.5c.2-.2.4-.5.5-.8.1-.3.1-.6.1-1s0-.8-.1-1.1c-.1-.3-.3-.6-.5-.8-.2-.2-.5-.3-.9-.3-.3 0-.6.1-.8.3-.2.2-.4.5-.5.8-.1.3-.1.6-.1 1.1 0 .4 0 .8.1 1 .1.4.3.6.5.8.2.2.5.3.9.3.3 0 .5-.1.8-.3zM42.2 188.5c.5.5.7 1.2.7 2v4.8c0 .2-.1.3-.3.3H41c-.2 0-.3-.1-.3-.3V191c0-.4-.1-.7-.3-1-.2-.2-.5-.4-.9-.4s-.7.1-.9.4c-.2.2-.3.6-.3 1v4.4c0 .2-.1.3-.3.3h-1.6c-.2 0-.3-.1-.3-.3v-7.2c0-.2.1-.3.3-.3H38c.2 0 .3.1.3.3v.5h.1c.4-.6 1-.8 1.8-.8s1.5.1 2 .6zM46.6 185.2v.2l-1.2 2.9c-.1.1-.2.2-.3.2H44c-.1 0-.2 0-.2-.1s-.1-.1 0-.2l.8-2.9c0-.1.1-.2.3-.2h1.6l.1.1zM51.7 189.6h-1.3c-.1 0-.1 0-.1.1v3.1c0 .3.1.6.2.7s.4.2.7.2h.4c.2 0 .3.1.3.3v1.3c0 .2-.1.2-.3.3h-.8c-.8 0-1.4-.1-1.9-.4s-.6-.8-.6-1.6v-3.9c0-.1 0-.1-.1-.1h-.8c-.2 0-.3-.1-.3-.3v-1.2c0-.2.1-.3.3-.3h.8c.1 0 .1 0 .1-.1V186c0-.2.1-.3.3-.3H50c.2 0 .3.1.3.3v1.7c0 .1 0 .1.1.1h1.3c.2 0 .3.1.3.3v1.2c0 .2-.1.3-.3.3zM61.1 188.1c.5.2.9.5 1.2.9.3.4.4.8.4 1.3v5c0 .2-.1.3-.3.3h-1.6c-.2 0-.3-.1-.3-.3v-.3-.1h-.1c-.5.5-1.1.8-2.1.8-.8 0-1.4-.2-1.9-.6-.5-.4-.7-.9-.7-1.7 0-.8.3-1.4.8-1.8.5-.4 1.3-.6 2.3-.6h1.5c.1 0 .1 0 .1-.1v-.3c0-.3-.1-.6-.3-.8-.2-.2-.5-.3-.9-.3-.3 0-.5.1-.7.1-.2.1-.3.2-.4.4-.1.1-.2.2-.3.2l-1.7-.2c-.1 0-.1 0-.2-.1l.1.1c.1-.4.2-.8.5-1.1.3-.3.7-.6 1.2-.8.5-.2 1-.3 1.6-.3.7 0 1.2.1 1.8.3zm-1 5.7c.3-.2.4-.5.4-.9v-.5c0-.1 0-.1-.1-.1h-1.1c-.5 0-.8.1-1.1.3s-.2.4-.2.7c0 .3.1.5.3.6.2.2.5.2.8.2.4.1.7 0 1-.3zM69 185.1h1.6c.2 0 .3.1.3.3v10c0 .2-.1.3-.3.3H69c-.2 0-.3-.1-.3-.3v-.4-.1h-.1c-.4.5-1 .8-1.7.8s-1.3-.2-1.8-.6c-.5-.4-.9-.9-1.1-1.6-.2-.5-.3-1.1-.3-1.8s.1-1.4.3-1.9c.2-.6.6-1.1 1.1-1.5.5-.4 1.1-.6 1.8-.6s1.3.2 1.7.7h.1c.1 0 0 0 0-.1v-3.1c.1 0 .2-.1.3-.1zm-.2 6.7c0-.7-.1-1.2-.3-1.5-.2-.4-.6-.6-1-.6-.5 0-.8.2-1 .6-.2.4-.4.9-.4 1.6 0 .6.1 1.1.3 1.5.2.4.6.6 1.1.6.4 0 .8-.2 1-.6.2-.5.3-1 .3-1.6zM77.4 185.1H79c.2 0 .3.1.3.3v10c0 .2-.1.3-.3.3h-1.6c-.2 0-.3-.1-.3-.3v-.4-.1H77c-.4.5-1 .8-1.7.8s-1.3-.2-1.8-.6c-.5-.4-.9-.9-1.1-1.6-.2-.5-.3-1.1-.3-1.8s.1-1.4.3-1.9c.2-.6.6-1.1 1.1-1.5s1.1-.6 1.8-.6 1.3.2 1.7.7h.1v-3.2s.1-.1.3-.1zm-.3 6.7c0-.7-.1-1.2-.3-1.5-.2-.4-.6-.6-1-.6-.5 0-.8.2-1 .6-.2.4-.4.9-.4 1.6 0 .6.1 1.1.3 1.5.2.4.6.6 1.1.6.4 0 .8-.2 1-.6.2-.5.3-1 .3-1.6zM88.6 187.9h1.6c.2 0 .3.1.3.3v7.2c0 .2-.1.3-.3.3h-1.6c-.2 0-.3-.1-.3-.3v-.4-.1h-.1c-.4.5-1 .8-1.8.8s-1.4-.2-1.9-.7c-.5-.5-.7-1.1-.7-1.9v-4.9c0-.2.1-.3.3-.3h1.6c.2 0 .3.1.3.3v4.4c0 .4.1.7.3 1 .2.2.5.4.9.4.3 0 .6-.1.8-.3.2-.2.4-.5.4-.8v-4.6c-.1-.3 0-.4.2-.4zM99.2 191.8c0 .7-.1 1.4-.3 1.9-.2.6-.6 1.1-1.1 1.5s-1.1.6-1.8.6-1.3-.2-1.7-.7h-.1v3.2c0 .2-.1.3-.3.3h-1.6c-.2 0-.3-.1-.3-.3v-10c0-.2.1-.3.3-.3h1.6c.2 0 .3.1.3.3v.5h.1c.4-.5 1-.8 1.7-.8s1.3.2 1.8.6.9.9 1.1 1.6c.2.3.3.9.3 1.6zm-2.3 0c0-.6-.1-1.1-.3-1.5-.2-.4-.6-.6-1.1-.6-.4 0-.8.2-1 .6-.2.4-.3.9-.3 1.5s.1 1.2.3 1.5c.2.4.6.6 1 .6.5 0 .8-.2 1-.6.3-.4.4-.9.4-1.5zM100.6 195.3c-.3-.3-.4-.6-.4-.9 0-.3.1-.7.4-.9s.6-.4.9-.4c.4 0 .7.1 1 .4.3.3.4.6.4.9 0 .4-.1.7-.4.9s-.6.4-1 .4-.6-.1-.9-.4zM21 226.5l-2-7.4v-.1c0-.1.1-.2.2-.2h1.3c.1 0 .2.1.2.2l1 4.4 1-4.4c0-.1.1-.2.2-.2h1.3c.1 0 .2.1.2.2l1.1 4.4 1-4.4c0-.1.1-.2.2-.2H28c.1 0 .1 0 .1.1v.1l-1.8 7.4c0 .1-.1.2-.2.2H25c-.1 0-.2-.1-.2-.2l-1.1-4.7-1 4.7c0 .1-.1.2-.2.2h-1.1c-.3.1-.4.1-.4-.1zM32.8 225c0-.1.1-.1.1-.1s.1 0 .1.1l.6.6.1.1v.1c-.2.3-.6.5-.9.7-.4.2-.8.3-1.3.3-.7 0-1.2-.2-1.7-.5-.4-.3-.7-.8-.9-1.4-.1-.3-.1-.7-.1-1 0-.4 0-.8.1-1.1.1-.5.4-1 .9-1.3.4-.3 1-.5 1.6-.5.7 0 1.3.2 1.7.6s.7 1 .8 1.8c0 .2.1.5.1.8 0 .1-.1.2-.2.2h-3.4s-.1 0-.1.1c0 .2 0 .3.1.3.1.2.2.4.4.5.2.1.5.2.8.2.6 0 1-.2 1.2-.5zm-2-2.6c-.2.1-.3.3-.3.5 0 .1-.1.2-.1.3 0 0 0 .1.1.1h2v-.3c-.1-.2-.2-.4-.3-.5-.2-.1-.4-.2-.6-.2-.4 0-.6 0-.8.1zM40.7 221.1c.1 0 .1.1.1.2l-.2 1.2c0 .1 0 .1-.1.1h-.8c-.3 0-.5.1-.7.3-.2.2-.3.4-.3.7v3c0 .1-.1.2-.2.2h-1.2c-.1 0-.2-.1-.2-.2v-5.3c0-.1.1-.2.2-.2h1.2c.1 0 .2.1.2.2v.4h.1c.3-.4.7-.6 1.2-.6.3-.2.5-.1.7 0zM45.4 225c0-.1.1-.1.1-.1s.1 0 .1.1l.6.6.1.1v.1c-.2.3-.6.5-.9.7-.4.2-.8.3-1.2.3-.7 0-1.2-.2-1.7-.5-.4-.3-.7-.8-.9-1.4-.1-.3-.1-.7-.1-1 0-.4 0-.8.1-1.1.1-.5.4-1 .9-1.3.4-.3 1-.5 1.6-.5.7 0 1.3.2 1.7.6s.7 1 .8 1.8c0 .2.1.5.1.8 0 .1-.1.2-.2.2H43s-.1 0-.1.1c0 .2 0 .3.1.3.1.2.2.4.4.5.2.1.5.2.8.2.6 0 .9-.2 1.2-.5zm-2-2.6c-.2.1-.3.3-.3.5 0 .1-.1.2-.1.3 0 0 0 .1.1.1h2v-.3c-.1-.2-.2-.4-.3-.5s-.4-.2-.6-.2c-.5 0-.7 0-.8.1zM51.2 221.2c.4.2.7.4.9.7s.3.6.3 1v3.7c0 .1-.1.2-.2.2H51c-.1 0-.2-.1-.2-.2v-.3-.1h-.1c-.3.4-.8.6-1.5.6-.6 0-1-.1-1.4-.4s-.5-.7-.5-1.2c0-.6.2-1 .6-1.3.4-.3 1-.5 1.7-.5h1.1s.1 0 .1-.1v-.3c0-.2-.1-.4-.2-.6-.2-.1-.4-.2-.7-.2-.2 0-.4 0-.5.1l-.3.3c0 .1-.1.2-.2.1l-1.2-.2c-.1 0-.1 0-.1-.1v-.1c0-.3.2-.6.4-.8.2-.2.5-.4.9-.6.4-.1.8-.2 1.2-.2.3.2.7.3 1.1.5zm-.7 4.2c.2-.2.3-.4.3-.7v-.4s0-.1-.1-.1h-.8c-.3 0-.6.1-.8.2-.2.1-.3.3-.3.5s.1.4.2.5.3.2.6.2c.4 0 .6-.1.9-.2zM57.1 218.9h1.2c.1 0 .2.1.2.2v7.4c0 .1-.1.2-.2.2h-1.2c-.1 0-.2-.1-.2-.2v-.3-.1h-.1c-.3.4-.7.6-1.3.6-.5 0-.9-.1-1.3-.4s-.7-.7-.8-1.2c-.1-.4-.2-.8-.2-1.3s.1-1 .2-1.4c.2-.5.4-.9.8-1.1.4-.3.8-.4 1.3-.4s1 .2 1.3.5h.1V219s.1-.1.2-.1zm-.2 5c0-.5-.1-.9-.2-1.1-.2-.3-.4-.4-.7-.4-.3 0-.6.1-.8.4-.2.3-.3.7-.3 1.2 0 .4.1.8.2 1.1.2.3.4.5.8.5.3 0 .6-.2.8-.5.1-.4.2-.8.2-1.2zM63.1 226.6l-1.6-5.3v-.1c0-.1.1-.1.2-.1h1.2c.1 0 .2.1.2.2l.8 3.3.8-3.3c0-.1.1-.2.2-.2H66c.1 0 .2.1.2.2l.8 3.3.8-3.3c0-.1.1-.2.2-.2h1.2c.1 0 .1 0 .1.1v.1l-1.6 5.3c0 .1-.1.2-.2.2h-1.2c-.1 0-.2-.1-.2-.2l-.8-2.9-.7 2.9c0 .1-.1.2-.2.2h-1.2c0-.1 0-.1-.1-.2zM70.7 220.2c-.2-.2-.3-.4-.3-.7s.1-.5.3-.7c.2-.2.4-.3.7-.3.3 0 .5.1.7.3s.3.4.3.7-.1.5-.3.7-.4.3-.7.3c-.3 0-.5-.1-.7-.3zm-.1 6.3v-5.3c0-.1.1-.2.2-.2H72c.1 0 .2.1.2.2v5.3c0 .1-.1.2-.2.2h-1.2c-.1 0-.2-.1-.2-.2zM76.5 222.3h-1s-.1 0-.1.1v2.3c0 .2.1.4.2.5s.3.2.5.2h.3c.1 0 .2.1.2.2v1c0 .1-.1.2-.2.2h-.6c-.6 0-1.1-.1-1.4-.3-.3-.2-.5-.6-.5-1.2v-2.9s0-.1-.1-.1h-.6c-.1 0-.2-.1-.2-.2v-.9c0-.1.1-.2.2-.2h.6s.1 0 .1-.1v-1.3c0-.1.1-.2.2-.2h1.1c.1 0 .2.1.2.2v1.3s0 .1.1.1h1c.1 0 .2.1.2.2v.9c0 .1-.1.2-.2.2zM82.1 221.5c.4.4.5.9.5 1.5v3.6c0 .1-.1.2-.2.2h-1.2c-.1 0-.2-.1-.2-.2v-3.3c0-.3-.1-.5-.2-.7-.2-.2-.4-.3-.7-.3s-.5.1-.7.3c-.2.2-.3.4-.3.7v3.3c0 .1-.1.2-.2.2h-1.2c-.1 0-.2-.1-.2-.2v-7.4c0-.1.1-.2.2-.2H79c.1 0 .2.1.2.2v2.5c0 .1 0 0 0 0 .3-.4.8-.6 1.3-.6s1.2 0 1.6.4zM86.1 220.2c-.2-.2-.3-.4-.3-.7s.1-.5.3-.7c.2-.2.4-.3.7-.3.3 0 .5.1.7.3s.3.4.3.7-.1.5-.3.7-.4.3-.7.3c-.3 0-.5-.1-.7-.3zm-.1 6.3v-5.3c0-.1.1-.2.2-.2h1.2c.1 0 .2.1.2.2v5.3c0 .1-.1.2-.2.2h-1.2c-.1 0-.2-.1-.2-.2zM93.2 221.5c.4.4.5.9.5 1.5v3.6c0 .1-.1.2-.2.2h-1.2c-.1 0-.2-.1-.2-.2v-3.3c0-.3-.1-.5-.2-.7-.2-.2-.4-.3-.7-.3s-.5.1-.7.3c-.2.2-.3.4-.3.7v3.3c0 .1-.1.2-.2.2h-1c-.1 0-.2-.1-.2-.2v-5.3c0-.1.1-.2.2-.2h1.2c.1 0 .2.1.2.2v.4c0 .1 0 0 0 0 .3-.4.8-.6 1.3-.6s1.2 0 1.5.4zM98 222.3h-1s-.1 0-.1.1v2.3c0 .2 0 .4.1.5s.3.2.5.2h.3c.1 0 .2.1.2.2v1c0 .1-.1.2-.2.2h-.6c-.6 0-1.1-.1-1.4-.3-.3-.2-.5-.6-.5-1.2v-2.9s0-.1-.1-.1h-.6c-.1 0-.2-.1-.2-.2v-.9c0-.1.1-.2.2-.2h.6s.1 0 .1-.1v-1.3c0-.1.1-.2.2-.2h1.1c.1 0 .2.1.2.2v1.3s0 .1.1.1h1c.1 0 .2.1.2.2v.9c.1.1 0 .2-.1.2zM103 225c0-.1.1-.1.1-.1s.1 0 .1.1l.6.6.1.1v.1c-.2.3-.6.5-.9.7s-.8.3-1.2.3c-.7 0-1.2-.2-1.7-.5-.4-.3-.8-.8-.9-1.4-.1-.3-.1-.7-.1-1 0-.4 0-.8.1-1.1.1-.5.4-1 .9-1.3.4-.3 1-.5 1.6-.5.7 0 1.3.2 1.7.6s.7 1 .8 1.8c0 .2.1.5.1.8 0 .1-.1.2-.2.2h-3.4s-.1 0-.1.1c0 .2 0 .3.1.3.1.2.2.4.4.5s.5.2.8.2c.5 0 .8-.2 1.1-.5zm-2-2.6c-.2.1-.3.3-.3.5 0 .1-.1.2-.1.3 0 0 0 .1.1.1h2v-.3c-.1-.2-.2-.4-.3-.5-.2-.1-.4-.2-.6-.2-.5 0-.7 0-.8.1zM108.6 221.1c.1 0 .1.1.1.2l-.2 1.2c0 .1 0 .1-.1.1h-.8c-.3 0-.5.1-.7.3-.2.2-.3.4-.3.7v3c0 .1-.1.2-.2.2h-1.2c-.1 0-.2-.1-.2-.2v-5.3c0-.1.1-.2.2-.2h1.2c.1 0 .2.1.2.2v.4h.1c.3-.4.7-.6 1.2-.6.4-.2.6-.1.7 0zM113.3 225c0-.1.1-.1.1-.1s.1 0 .1.1l.6.6.1.1v.1c-.2.3-.6.5-.9.7-.4.2-.8.3-1.2.3-.7 0-1.2-.2-1.7-.5-.4-.3-.8-.8-.9-1.4-.1-.3-.1-.7-.1-1 0-.4 0-.8.1-1.1.1-.5.4-1 .9-1.3.4-.3 1-.5 1.6-.5.7 0 1.3.2 1.7.6s.7 1 .8 1.8c0 .2.1.5.1.8 0 .1-.1.2-.2.2H111s-.1 0-.1.1c0 .2 0 .3.1.3.1.2.2.4.4.5.2.1.5.2.8.2.5 0 .9-.2 1.1-.5zm-2-2.6c-.2.1-.3.3-.3.5 0 .1-.1.2-.1.3s0 .1.1.1h2v-.3c-.1-.2-.2-.4-.3-.5-.2-.1-.4-.2-.6-.2-.4 0-.6 0-.8.1zM116.5 226.6c-.4-.1-.7-.3-.9-.6-.2-.3-.3-.5-.3-.9v-.1c0-.1.1-.2.2-.2h1.1c.1 0 .2 0 .2.1v.1c0 .2.1.3.3.4s.4.2.7.2c.3 0 .5 0 .6-.1s.2-.2.2-.4c0-.1-.1-.2-.2-.3-.1-.1-.4-.1-.7-.2-.4-.1-.6-.2-.8-.3-.5-.2-.9-.4-1.1-.6-.3-.2-.4-.6-.4-1 0-.5.2-1 .6-1.3.4-.3 1-.5 1.7-.5.5 0 .9.1 1.2.2s.6.4.8.6c.2.3.3.6.3.9v.1H118.8c-.1 0-.2 0-.2-.1v-.1c0-.2-.1-.3-.2-.4s-.4-.2-.7-.2c-.2 0-.4 0-.6.1s-.2.2-.2.4c0 .1.1.3.2.3.2.1.4.2.7.2.2 0 .4.1.6.2.5.2 1 .4 1.3.6.3.2.5.6.5 1.1 0 .5-.2 1-.7 1.3-.4.3-1 .5-1.8.5-.4.2-.8.1-1.2 0zM124.2 222.3h-1s-.1 0-.1.1v2.3c0 .2.1.4.2.5s.3.2.5.2h.3c.1 0 .2.1.2.2v1c0 .1-.1.2-.2.2h-.6c-.6 0-1.1-.1-1.4-.3-.3-.2-.5-.6-.5-1.2v-2.9s0-.1-.1-.1h-.5c-.1 0-.2-.1-.2-.2v-.9c0-.1.1-.2.2-.2h.6s.1 0 .1-.1v-1.3c0-.1.1-.2.2-.2h1.1c.1 0 .2.1.2.2v1.3s0 .1.1.1h1c.1 0 .2.1.2.2v.9c-.1.1-.2.2-.3.2zM130.6 222.3h-1s-.1 0-.1.1v2.3c0 .2 0 .4.2.5.1.1.3.2.5.2h.3c.1 0 .2.1.2.2v1c0 .1-.1.2-.2.2h-.6c-.6 0-1.1-.1-1.4-.3-.3-.2-.5-.6-.5-1.2v-2.9s0-.1-.1-.1h-.6c-.1 0-.2-.1-.2-.2v-.9c0-.1.1-.2.2-.2h.6s.1 0 .1-.1v-1.3c0-.1.1-.2.2-.2h1.1c.1 0 .2.1.2.2v1.3s0 .1.1.1h1c.1 0 .2.1.2.2v.9c0 .1 0 .2-.2.2zM136.2 221.5c.4.4.5.9.5 1.5v3.6c0 .1-.1.2-.2.2h-1.2c-.1 0-.2-.1-.2-.2v-3.3c0-.3-.1-.5-.2-.7-.2-.2-.4-.3-.7-.3-.3 0-.5.1-.7.3s-.3.4-.3.7v3.3c0 .1-.1.2-.2.2h-1.2c-.1 0-.2-.1-.2-.2v-7.4c0-.1.1-.2.2-.2h1.2c.1 0 .2.1.2.2v2.5c.3-.4.8-.6 1.3-.6.8-.2 1.3 0 1.7.4zM141.7 225c0-.1.1-.1.1-.1s.1 0 .1.1l.6.6.1.1v.1c-.2.3-.6.5-.9.7s-.8.3-1.2.3c-.7 0-1.2-.2-1.7-.5-.4-.3-.7-.8-.9-1.4-.1-.3-.1-.7-.1-1 0-.4 0-.8.1-1.1.1-.5.4-1 .9-1.3.4-.3 1-.5 1.6-.5.7 0 1.3.2 1.7.6s.7 1 .8 1.8c0 .2.1.5.1.8 0 .1-.1.2-.2.2h-3.4s-.1 0-.1.1c0 .2 0 .3.1.3.1.2.2.4.4.5.2.1.5.2.8.2.5 0 .8-.2 1.1-.5zm-2-2.6c-.2.1-.3.3-.3.5 0 .1-.1.2-.1.3s0 .1.1.1h2v-.3c-.1-.2-.2-.4-.3-.5-.2-.1-.4-.2-.6-.2-.4 0-.6 0-.8.1zM22.8 236.6c.1 0 .1.1.1.2l-.2 1.2c0 .1 0 .1-.1.1h-.8c-.3 0-.5.1-.7.3s-.3.4-.3.7v3c0 .1-.1.2-.2.2h-1.2c-.1 0-.2-.1-.2-.2v-5.3c0-.1.1-.2.2-.2h1.2c.1 0 .2.1.2.2v.4h.1c.3-.4.7-.6 1.2-.6.4-.1.6-.1.7 0zM27.5 240.5c0-.1.1-.1.1-.1s.1 0 .1.1l.6.6.1.1v.1c-.2.3-.6.5-.9.7s-.8.3-1.2.3c-.7 0-1.2-.2-1.7-.5-.4-.3-.8-.8-.9-1.4-.1-.3-.1-.7-.1-1 0-.4 0-.8.1-1.1.1-.5.4-1 .9-1.3.4-.3 1-.5 1.6-.5.7 0 1.3.2 1.7.6s.7 1 .8 1.8c0 .2.1.5.1.8 0 .1-.1.2-.2.2h-3.4s-.1 0-.1.1c0 .2 0 .3.1.3.1.2.2.4.4.5s.5.2.8.2c.5 0 .9-.2 1.1-.5zm-2-2.5c-.2.1-.3.3-.3.5 0 .1-.1.2-.1.3 0 0 0 .1.1.1h2v-.3c-.1-.2-.2-.4-.3-.5-.2-.1-.4-.2-.6-.2-.4-.1-.6 0-.8.1zM35 239.4c0 .5-.1 1-.2 1.4-.2.5-.4.9-.8 1.1s-.8.4-1.3.4-1-.2-1.3-.5h-.1v2.4c0 .1-.1.2-.2.2H30c-.1 0-.2-.1-.2-.2v-7.4c0-.1.1-.2.2-.2h1.2c.1 0 .2.1.2.2v.4h.1c.3-.4.7-.6 1.3-.6.5 0 .9.1 1.3.4s.7.7.8 1.2c0 .2.1.7.1 1.2zm-1.6 0c0-.4-.1-.8-.2-1.1-.2-.3-.4-.5-.8-.5-.3 0-.6.2-.8.5-.1.3-.2.6-.2 1.1 0 .5.1.9.2 1.1.2.3.4.4.7.4.3 0 .6-.1.8-.4.2-.2.3-.6.3-1.1zM36.8 241.9c-.4-.3-.7-.8-.9-1.3-.1-.3-.2-.7-.2-1.1 0-.5.1-.8.2-1.2.2-.5.5-1 .9-1.3.4-.3 1-.5 1.6-.5.6 0 1.1.2 1.6.5s.7.7.9 1.3c.1.3.2.7.2 1.2 0 .4 0 .8-.1 1.1-.2.6-.5 1-.9 1.4-.4.3-1 .5-1.6.5-.7-.2-1.2-.3-1.7-.6zm2.3-1.1c.2-.1.3-.4.4-.6.1-.2.1-.5.1-.8 0-.3 0-.6-.1-.8-.1-.3-.2-.4-.4-.6-.2-.1-.4-.2-.6-.2-.2 0-.5.1-.6.2-.2.1-.3.3-.4.6-.1.2-.1.5-.1.8 0 .3 0 .6.1.8.1.3.2.5.4.6s.4.2.6.2c.2 0 .4-.1.6-.2zM45.5 236.6c.1 0 .1.1.1.2l-.2 1.2c0 .1 0 .1-.1.1h-.8c-.3 0-.5.1-.7.3s-.3.4-.3.7v3c0 .1-.1.2-.2.2h-1.2c-.1 0-.2-.1-.2-.2v-5.3c0-.1.1-.2.2-.2h1.2c.1 0 .2.1.2.2v.4h.1c.3-.4.7-.6 1.2-.6.4-.1.6-.1.7 0zM49.4 237.8h-1s-.1 0-.1.1v2.3c0 .2 0 .4.1.5s.3.2.5.2h.3c.1 0 .2.1.2.2v1c0 .1-.1.2-.2.2h-.6c-.6 0-1.1-.1-1.4-.3-.3-.2-.5-.6-.5-1.2v-2.9s0-.1-.1-.1H46c-.1 0-.2-.1-.2-.2v-.9c0-.1.1-.2.2-.2h.6s.1 0 .1-.1v-1.3c0-.1.1-.2.2-.2H48c.1 0 .2.1.2.2v1.3s0 .1.1.1h1c.1 0 .2.1.2.2v.9c.1.1.1.2-.1.2zM51.5 242.1c-.4-.1-.7-.3-.9-.6-.2-.3-.3-.5-.3-.9v-.1c0-.1.1-.2.2-.2h1.1c.1 0 .2 0 .2.1v.1c0 .2.1.3.3.4s.4.2.7.2c.3 0 .5 0 .6-.1.2-.1.2-.2.2-.4 0-.1-.1-.2-.2-.3-.1-.1-.4-.1-.7-.2-.4-.1-.6-.2-.8-.3-.5-.2-.9-.4-1.1-.6-.3-.2-.4-.6-.4-1 0-.5.2-1 .6-1.3.4-.3 1-.5 1.7-.5.5 0 .9.1 1.2.2s.6.4.8.6c.2.3.3.6.3.9v.1H53.8c-.1 0-.2 0-.2-.1v-.1c0-.2-.1-.3-.2-.4-.2-.1-.4-.2-.7-.2-.2 0-.4 0-.6.1-.2.1-.2.2-.2.4 0 .1.1.3.2.3.2.1.4.2.8.2.2 0 .4.1.6.2.5.2 1 .4 1.3.6.3.2.5.6.5 1.1 0 .5-.2 1-.7 1.3-.4.3-1 .5-1.8.5-.4.2-.9.2-1.3 0zM58.6 235.7c-.2-.2-.3-.4-.3-.7s.1-.5.3-.7c.2-.2.4-.3.7-.3.3 0 .5.1.7.3s.3.4.3.7-.1.5-.3.7-.4.3-.7.3c-.3 0-.6-.1-.7-.3zm-.1 6.4v-5.3c0-.1.1-.2.2-.2h1.2c.1 0 .2.1.2.2v5.3c0 .1-.1.2-.2.2h-1.2c-.2 0-.2-.1-.2-.2zM65.7 237c.4.4.5.9.5 1.5v3.6c0 .1-.1.2-.2.2h-1.2c-.1 0-.2-.1-.2-.2v-3.3c0-.3-.1-.5-.2-.7s-.4-.3-.7-.3c-.3 0-.5.1-.7.3s-.3.4-.3.7v3.3c0 .1-.1.2-.2.2h-1.2c-.1 0-.2-.1-.2-.2v-5.3c0-.1.1-.2.2-.2h1.2c.1 0 .2.1.2.2v.4c.3-.4.8-.6 1.3-.6.8-.1 1.3 0 1.7.4zM72.6 237.8h-1s-.1 0-.1.1v2.3c0 .2 0 .4.1.5s.3.2.5.2h.3c.1 0 .2.1.2.2v1c0 .1-.1.2-.2.2h-.6c-.6 0-1.1-.1-1.4-.3-.3-.2-.5-.6-.5-1.2v-2.9s0-.1-.1-.1h-.6c-.1 0-.2-.1-.2-.2v-.9c0-.1.1-.2.2-.2h.8s.1 0 .1-.1v-1.3c0-.1.1-.2.2-.2h1.1c.1 0 .2.1.2.2v1.3s0 .1.1.1h1c.1 0 .2.1.2.2v.9c-.1.1-.1.2-.3.2zM74.7 241.9c-.4-.3-.7-.8-.9-1.3-.1-.3-.2-.7-.2-1.1 0-.5.1-.8.2-1.2.2-.5.5-1 .9-1.3.4-.3 1-.5 1.6-.5.6 0 1.1.2 1.6.5.4.3.7.7.9 1.3.1.3.2.7.2 1.2 0 .4 0 .8-.1 1.1-.2.6-.5 1-.9 1.4-.4.3-1 .5-1.6.5-.7-.2-1.3-.3-1.7-.6zm2.2-1.1c.2-.1.3-.4.4-.6.1-.2.1-.5.1-.8 0-.3 0-.6-.1-.8-.1-.3-.2-.4-.4-.6-.2-.1-.4-.2-.6-.2-.2 0-.5.1-.6.2-.2.1-.3.3-.4.6-.1.2-.1.5-.1.8 0 .3 0 .6.1.8.1.3.2.5.4.6s.4.2.6.2c.2 0 .4-.1.6-.2zM83.6 234.5h1.2c.1 0 .2.1.2.2v7.4c0 .1-.1.2-.2.2h-1.2c-.1 0-.2-.1-.2-.2v-.3-.1c-.3.4-.7.6-1.3.6-.5 0-.9-.1-1.3-.4s-.7-.7-.8-1.2c-.1-.4-.2-.8-.2-1.3s.1-1 .2-1.4c.2-.5.4-.9.8-1.1.4-.3.8-.4 1.3-.4s1 .2 1.3.5 0 0 0-.1v-2.3c0-.1.1-.1.2-.1zm-.2 4.9c0-.5-.1-.9-.2-1.1-.2-.3-.4-.4-.7-.4-.3 0-.6.1-.8.4-.2.3-.3.7-.3 1.2 0 .4.1.8.2 1.1.2.3.4.5.8.5.3 0 .6-.2.8-.5.1-.4.2-.7.2-1.2zM89.7 236.7c.4.2.7.4.9.7s.3.6.3 1v3.7c0 .1-.1.2-.2.2h-1.2c-.1 0-.2-.1-.2-.2v-.3-.1h-.1c-.3.4-.8.6-1.5.6-.6 0-1-.1-1.4-.4-.3-.3-.5-.7-.5-1.2 0-.6.2-1 .6-1.3.4-.3 1-.5 1.7-.5h1.1s.1 0 .1-.1v-.2c0-.2-.1-.4-.2-.6-.2-.1-.4-.2-.7-.2-.2 0-.4 0-.5.1l-.3.3c0 .1-.1.2-.2.1l-1.2-.2c-.1 0-.1 0-.1-.1v-.1c0-.3.2-.6.4-.8.2-.2.5-.4.9-.6.4-.1.8-.2 1.2-.2.3.2.7.2 1.1.4zm-.7 4.2c.2-.2.3-.4.3-.7v-.4s0-.1-.1-.1h-.8c-.3 0-.6.1-.8.2-.2.1-.3.3-.3.5s.1.4.2.5.3.2.6.2c.4.1.7 0 .9-.2zM91.9 244.3v-.9c0-.1 0-.2.1-.2.5 0 .8-.1 1-.2s.3-.3.4-.7v-.1l-1.8-5.5v-.1-.1H93c.1 0 .2.1.2.2l.9 3.3.9-3.3c0-.1.1-.2.2-.2h1.3c.1 0 .1 0 .1.1v.1l-1.9 5.7c-.2.5-.4.9-.6 1.2-.2.3-.5.5-.8.6-.3.1-.8.2-1.5.2h.2c-.1.1-.1 0-.1-.1zM99.2 234.5v.2l-.9 2.1c0 .1-.1.1-.2.1h-.9c-.1 0-.1 0-.1-.1v-.1l.6-2.1c0-.1.1-.2.2-.2h1.2c0 .1.1.1.1.1zM100.9 242.1c-.4-.1-.7-.3-.9-.6-.2-.3-.3-.5-.3-.9v-.1c0-.1.1-.2.2-.2h1.1c.1 0 .2 0 .2.1v.1c0 .2.1.3.3.4s.4.2.7.2c.3 0 .5 0 .6-.1.2-.1.2-.2.2-.4 0-.1-.1-.2-.2-.3-.1-.1-.4-.1-.7-.2-.4-.1-.6-.2-.8-.3-.5-.2-.9-.4-1.1-.6-.3-.2-.4-.6-.4-1 0-.5.2-1 .6-1.3.4-.3 1-.5 1.7-.5.5 0 .9.1 1.2.2.4.2.6.4.8.6.2.3.3.6.3.9v.1H103.2c-.1 0-.2 0-.2-.1v-.1c0-.2-.1-.3-.2-.4-.2-.1-.4-.2-.7-.2-.2 0-.4 0-.6.1-.2.1-.2.2-.2.4 0 .1.1.3.2.3.2.1.4.2.8.2.2 0 .4.1.6.2.5.2 1 .4 1.3.6.3.2.5.6.5 1.1 0 .5-.2 1-.7 1.3-.4.3-1 .5-1.8.5-.5.2-1 .2-1.3 0zM113 239.4c0 .5-.1 1-.2 1.4-.2.5-.4.9-.8 1.1-.4.3-.8.4-1.3.4s-1-.2-1.3-.5v2.4c0 .1-.1.2-.2.2H108c-.1 0-.2-.1-.2-.2v-7.4c0-.1.1-.2.2-.2h1.2c.1 0 .2.1.2.2v.4c.3-.4.7-.6 1.3-.6.5 0 .9.1 1.3.4s.7.7.8 1.2c.1.2.2.7.2 1.2zm-1.7 0c0-.4-.1-.8-.2-1.1-.2-.3-.4-.5-.8-.5-.3 0-.6.2-.8.5-.1.3-.2.6-.2 1.1 0 .5.1.9.2 1.1.2.3.4.4.7.4.3 0 .6-.1.8-.4.2-.2.3-.6.3-1.1zM117.3 236.6c.1 0 .1.1.1.2l-.2 1.2c0 .1 0 .1-.1.1h-.8c-.3 0-.5.1-.7.3-.2.2-.3.4-.3.7v3c0 .1-.1.2-.2.2h-1.2c-.1 0-.2-.1-.2-.2v-5.3c0-.1.1-.2.2-.2h1.2c.1 0 .2.1.2.2v.4h.1c.3-.4.7-.6 1.2-.6.4-.1.6-.1.7 0zM122 240.5c0-.1.1-.1.1-.1s.1 0 .1.1l.6.6.1.1v.1c-.2.3-.6.5-.9.7-.4.2-.8.3-1.2.3-.7 0-1.2-.2-1.7-.5-.4-.3-.8-.8-.9-1.4-.1-.3-.1-.7-.1-1 0-.4 0-.8.1-1.1.1-.5.4-1 .9-1.3.4-.3 1-.5 1.6-.5.7 0 1.3.2 1.7.6s.7 1 .8 1.8c0 .2.1.5.1.8 0 .1-.1.2-.2.2h-3.4s-.1 0-.1.1c0 .2 0 .3.1.3.1.2.2.4.4.5.2.1.5.2.8.2.5 0 .9-.2 1.1-.5zm-2-2.5c-.2.1-.3.3-.3.5 0 .1-.1.2-.1.3s0 .1.1.1h2v-.3c-.1-.2-.2-.4-.3-.5-.2-.1-.4-.2-.6-.2-.4-.1-.6 0-.8.1zM125.2 242.1c-.4-.1-.7-.3-.9-.6-.2-.3-.3-.5-.3-.9v-.1c0-.1.1-.2.2-.2h1.1c.1 0 .2 0 .2.1v.1c0 .2.1.3.3.4s.4.2.7.2c.3 0 .5 0 .6-.1s.2-.2.2-.4c0-.1-.1-.2-.2-.3-.1-.1-.4-.1-.7-.2-.4-.1-.6-.2-.8-.3-.5-.2-.9-.4-1.1-.6-.3-.2-.4-.6-.4-1 0-.5.2-1 .6-1.3.4-.3 1-.5 1.7-.5.5 0 .9.1 1.2.2s.6.4.8.6c.2.3.3.6.3.9v.1H127.5c-.1 0-.2 0-.2-.1v-.1c0-.2-.1-.3-.2-.4s-.4-.2-.7-.2c-.2 0-.4 0-.6.1s-.2.2-.2.4c0 .1.1.3.2.3.2.1.4.2.7.2.2 0 .4.1.6.2.5.2 1 .4 1.3.6.3.2.5.6.5 1.1 0 .5-.2 1-.7 1.3-.4.3-1 .5-1.8.5-.4.2-.8.2-1.2 0zM130.8 242.1c-.4-.1-.7-.3-.9-.6-.2-.3-.3-.5-.3-.9v-.1c0-.1.1-.2.2-.2h1.1c.1 0 .2 0 .2.1v.1c0 .2.1.3.3.4s.4.2.7.2c.3 0 .5 0 .6-.1.2-.1.2-.2.2-.4 0-.1-.1-.2-.2-.3-.1-.1-.4-.1-.7-.2-.4-.1-.6-.2-.8-.3-.5-.2-.9-.4-1.1-.6-.3-.2-.4-.6-.4-1 0-.5.2-1 .6-1.3.4-.3 1-.5 1.7-.5.5 0 .9.1 1.2.2.4.2.6.4.8.6.2.3.3.6.3.9v.1H133.1c-.1 0-.2 0-.2-.1v-.1c0-.2-.1-.3-.2-.4-.2-.1-.4-.2-.7-.2-.2 0-.4 0-.6.1-.2.1-.2.2-.2.4 0 .1.1.3.2.3.2.1.4.2.8.2.2 0 .4.1.6.2.5.2 1 .4 1.3.6.3.2.5.6.5 1.1 0 .5-.2 1-.7 1.3-.4.3-1 .5-1.8.5-.5.2-1 .2-1.3 0zM141.2 236.7c.4.2.7.4.9.7s.3.6.3 1v3.7c0 .1-.1.2-.2.2H141c-.1 0-.2-.1-.2-.2v-.3-.1h-.1c-.3.4-.8.6-1.5.6-.6 0-1-.1-1.4-.4s-.5-.7-.5-1.2c0-.6.2-1 .6-1.3.4-.3 1-.5 1.7-.5h1.1s.1 0 .1-.1v-.2c0-.2-.1-.4-.2-.6-.2-.1-.4-.2-.7-.2-.2 0-.4 0-.5.1l-.3.3c0 .1-.1.2-.2.1l-1.2-.2c-.1 0-.1 0-.1-.1v-.1c0-.3.2-.6.4-.8.2-.2.5-.4.9-.6.4-.1.8-.2 1.2-.2.3.2.7.2 1.1.4zm-.7 4.2c.2-.2.3-.4.3-.7v-.4s0-.1-.1-.1h-.7c-.3 0-.6.1-.8.2-.2.1-.3.3-.3.5s.1.4.2.5.3.2.6.2c.3.1.6 0 .8-.2zM148.7 239.4c0 .5-.1 1-.2 1.3-.1.5-.4.9-.8 1.2s-.8.4-1.3.4-1-.2-1.3-.6v.4c0 .1-.1.2-.2.2h-1.2c-.1 0-.2-.1-.2-.2v-7.4c0-.1.1-.2.2-.2h1.2c.1 0 .2.1.2.2v2.4c.3-.4.7-.5 1.3-.5.5 0 .9.1 1.3.4.4.3.6.7.8 1.1.2.3.2.7.2 1.3zm-1.6 0c0-.5-.1-.9-.3-1.2-.2-.3-.4-.4-.8-.4-.3 0-.6.1-.7.4-.2.3-.2.7-.2 1.1 0 .5.1.8.2 1.1.2.3.4.5.8.5s.6-.2.8-.5c.1-.2.2-.6.2-1zM150.6 241.9c-.4-.3-.7-.8-.9-1.3-.1-.3-.2-.7-.2-1.1 0-.5.1-.8.2-1.2.2-.5.5-1 .9-1.3s1-.5 1.6-.5c.6 0 1.1.2 1.6.5s.7.7.9 1.3c.1.3.2.7.2 1.2 0 .4 0 .8-.1 1.1-.2.6-.5 1-.9 1.4-.4.3-1 .5-1.6.5-.8-.2-1.3-.3-1.7-.6zm2.2-1.1c.2-.1.3-.4.4-.6.1-.2.1-.5.1-.8 0-.3 0-.6-.1-.8-.1-.3-.2-.4-.4-.6-.2-.1-.4-.2-.6-.2-.2 0-.5.1-.6.2-.2.1-.3.3-.4.6-.1.2-.1.5-.1.8 0 .3 0 .6.1.8.1.3.2.5.4.6s.4.2.6.2c.2 0 .4-.1.6-.2zM159.3 236.5h1.2c.1 0 .2.1.2.2v5.3c0 .1-.1.2-.2.2h-1.2c-.1 0-.2-.1-.2-.2v-.3-.1c-.3.4-.7.6-1.4.6-.6 0-1-.2-1.4-.5-.4-.3-.5-.8-.5-1.4v-3.7c0-.1.1-.2.2-.2h1.2c.1 0 .2.1.2.2v3.3c0 .3.1.5.2.7.2.2.4.3.7.3.3 0 .5-.1.6-.2.2-.2.3-.4.3-.6v-3.4c0-.1 0-.2.1-.2zM165 237.8h-1s-.1 0-.1.1v2.3c0 .2 0 .4.2.5.1.1.3.2.5.2h.3c.1 0 .2.1.2.2v1c0 .1-.1.2-.2.2h-.6c-.6 0-1.1-.1-1.4-.3-.3-.2-.5-.6-.5-1.2v-2.9s0-.1-.1-.1h-.6c-.1 0-.2-.1-.2-.2v-.9c0-.1.1-.2.2-.2h.6s.1 0 .1-.1v-1.3c0-.1.1-.2.2-.2h1.1c.1 0 .2.1.2.2v1.3s0 .1.1.1h1c.1 0 .2.1.2.2v.9c0 .1-.1.2-.2.2zM166.3 242c-.2-.2-.3-.4-.3-.7 0-.3.1-.5.3-.7.2-.2.4-.3.7-.3.3 0 .5.1.7.3.2.2.3.4.3.7 0 .3-.1.5-.3.7-.2.2-.4.3-.7.3s-.5-.1-.7-.3zM169.2 242c-.2-.2-.3-.4-.3-.7 0-.3.1-.5.3-.7.2-.2.4-.3.7-.3.3 0 .5.1.7.3.2.2.3.4.3.7 0 .3-.1.5-.3.7-.2.2-.4.3-.7.3s-.5-.1-.7-.3zM172.2 242c-.2-.2-.3-.4-.3-.7 0-.3.1-.5.3-.7.2-.2.4-.3.7-.3.3 0 .5.1.7.3.2.2.3.4.3.7 0 .3-.1.5-.3.7-.2.2-.4.3-.7.3-.3 0-.5-.1-.7-.3z"/></g><g fill-rule="evenodd" clip-rule="evenodd"><path d="M154.7 261.1H147.1c-1 0-1.2.3-1.2 1.3v10.3c0 .9.3 1.2 1.2 1.2h4.1c.4 0 .9.1 1 .6.2.4 0 .8-.5 1-.2.1-.5.1-.7.1h-4.5c-1.5 0-2.3-.8-2.3-2.3v-11.8c0-1.1.6-1.7 1.7-1.8h17c1.1 0 1.8.5 2.1 1.4.1.3.1.6.1.8v11.6c0 1.4-.8 2.2-2.2 2.2h-6.7c-.2 0-.5.1-.7.3-1.2 1.2-2.4 2.4-3.6 3.5-.2.2-.6.4-.9.5-.6.1-1-.4-.8-1 .1-.3.3-.5.5-.7l3.9-3.9c.2-.2.5-.3.8-.3h7.1c.9 0 1.2-.3 1.2-1.2v-10c0-1.3-.2-1.5-1.5-1.5-2.6-.3-5.1-.3-7.5-.3z"/><path d="M155.9 267.5c0 .6-.5 1.2-1.2 1.2s-1.2-.5-1.2-1.1c0-.7.5-1.2 1.2-1.2.6-.1 1.2.4 1.2 1.1zM151.4 267.5c0 .7-.5 1.2-1.2 1.1-.6 0-1.2-.5-1.2-1.2 0-.6.6-1.2 1.2-1.2.7.1 1.3.6 1.2 1.3zM159.1 268.7c-.7 0-1.2-.5-1.2-1.2 0-.6.6-1.2 1.2-1.2.7 0 1.2.6 1.2 1.2 0 .7-.6 1.2-1.2 1.2z"/></g><path stroke="#000" stroke-width=".555" stroke-miterlimit="10" d="M187.8 275.6s0 0 0 0l-5.6-.3c-3.2 0-3.5-.2-4.1-.8-.1-.1-.3-.4-.6-.6-.1-.1-.3-.1-.4-.1-.3.4-.8.7-1.4.7h-3.4c-.9 0-2.2-.8-2.2-1.7v-8.5c0-.9 1.3-1.4 2.2-1.4h3.4c.6 0 1.1.3 1.3.7.5-.3 1.3-.7 2.1-1.5 1.1-1.1 1.8-2.4 2-4 .1-.8.7-2.2 2.3-2.2.3 0 .7.1 1.1.2.6.2.9.9 1.1 1.5.3.9.3 2.1.2 3.1-.1.9-.4 1.5-.8 2.6h4.1c1 0 1.9.8 1.9 1.9 0 .5-.2.9-.4 1.2.3.4.4.8.4 1.3 0 .7-.3 1.3-.8 1.7.2.3.4.7.4 1.1 0 .8-.5 1.5-1.2 1.7.1.2.1.8.1 1 .1 1.2-.7 2.4-1.7 2.4zm-11-3.2c.1 0 .2 0 .2.1.1 0 .1.1.2.1.2.1.5.2.8.4.5.3.7.8.9 1 .2.3.3.6 3.3.6 0 0 0 0 0 0l5.6-.2c.4 0 .8-.6.8-1.1 0-.2-.1-.6-.1-.7-.2-.1-.3-.3-.3-.5 0-.3.2-.6.4-.6l.3-.1h.1s0 0 0 0h.1s0 0 0 0c.4-.1.6-.4.6-.7 0-.4-.3-.7-.8-.7-.3 0-.5-.1-.5-.4 0-.3.2-.4.5-.4h.4c.4 0 .8-.6.8-1.1 0-.4-.2-.8-.4-.9-.2-.1-.3-.3-.3-.5s.1-.4.3-.5c.2-.1.4-.2.4-.7 0-.5-.3-.8-.8-.8h-5.2c-.2 0-.4-.3-.5-.4-.1-.2-.1-.5.1-.6 1.1-1.4 1.3-3.4 1.1-4.7-.1-.9-.4-1.4-.5-1.5-.3-.1-.5-.1-.8-.1-1.1 0-1.2 1.1-1.2 1.2 0 0 0 0 0 0-.3 1.8-1.1 3.3-2.4 4.6-1.3 1.2-2.6 1.8-3.1 2-.2.1-.5 0-.7-.1-.1-.1-.4-.3-.4-.4v-.1c0-.3.3-.3 0-.3h-3.4c-.4 0-1.1.1-1.1.3v8.5c0 .2.7.6 1.1.6h3.4c.2 0 .5-.2.6-.4 0-.2.1-.4.3-.5 0-.4.1-.4.2-.4z"/><g><path d="M20.5 264.1h1.3c.1 0 .2.1.2.2v7.4c0 .1-.1.2-.2.2h-1.2c-.1 0-.2-.1-.2-.2v-6.1-.1c0-.1 0 0-.1 0l-1 .2c-.1 0-.2-.1-.2-.2v-.8c0-.1 0-.2.1-.2l1-.4h.3zM23.8 271.3c-.5-.5-.7-1.1-.7-1.9v-2.9c0-.8.2-1.4.7-1.8.5-.5 1.1-.7 1.9-.7.8 0 1.5.2 1.9.7.5.5.7 1.1.7 1.8v2.9c0 .8-.2 1.4-.7 1.9-.5.5-1.1.7-1.9.7-.8 0-1.4-.3-1.9-.7zm2.7-1c.2-.2.3-.5.3-.8v-3.1c0-.3-.1-.6-.3-.8-.2-.2-.5-.3-.8-.3-.3 0-.6.1-.8.3-.2.2-.3.5-.3.8v3.1c0 .3.1.6.3.8s.5.3.8.3c.4 0 .6-.1.8-.3zM29.6 271.6c-.2-.2-.3-.4-.3-.7 0-.3.1-.5.3-.7.2-.2.4-.3.7-.3.3 0 .5.1.7.3.2.2.3.4.3.7 0 .3-.1.5-.3.7-.2.2-.4.3-.7.3-.2 0-.5-.1-.7-.3zM33.6 264.1h1.3c.1 0 .2.1.2.2v7.4c0 .1-.1.2-.2.2h-1.2c-.1 0-.2-.1-.2-.2v-6.1-.1h-.1l-1 .2c-.1 0-.2-.1-.2-.2v-.8c0-.1 0-.2.1-.2l1-.4h.3zM37.3 264.1h1.3c.1 0 .2.1.2.2v7.4c0 .1-.1.2-.2.2h-1.2c-.1 0-.2-.1-.2-.2v-6.1-.1h-.1l-1 .2c-.1 0-.2-.1-.2-.2v-.8c0-.1 0-.2.1-.2l1-.4h.3zM40.1 271.6c-.2-.2-.3-.4-.3-.7 0-.3.1-.5.3-.7.2-.2.4-.3.7-.3.3 0 .5.1.7.3.2.2.3.4.3.7 0 .3-.1.5-.3.7-.2.2-.4.3-.7.3s-.5-.1-.7-.3zM44.1 264.1h1.3c.1 0 .2.1.2.2v7.4c0 .1-.1.2-.2.2h-1.2c-.1 0-.2-.1-.2-.2v-6.1-.1h-.1l-1 .2c-.1 0-.2-.1-.2-.2v-.8c0-.1 0-.2.1-.2l1-.4h.3zM47.4 271.8v-.2l2.4-6.1v-.1h-2.1s-.1 0-.1.1v.4c0 .1-.1.2-.2.2h-.9c-.1 0-.2-.1-.2-.2v-1.7c0-.1.1-.2.2-.2h4.7c.1 0 .2.1.2.2v1.2l-2.4 6.2c0 .1-.1.1-.2.1h-1.3c0 .1-.1.1-.1.1z"/></g></svg>