<svg xmlns="http://www.w3.org/2000/svg" width="205.9" height="287.5" viewBox="0 0 205.9 287.5"><path fill="#FFF" d="M205.9 281.4c0 3.4-1.2 6.1-2.9 6.1H3c-1.7 0-3-2.7-3-6.1V5.9C0 2.5 1.3 0 3 0h200c1.7 0 2.9 2.5 2.9 5.9v275.5z"/><g fill="none" stroke="#050505" stroke-width="1.316" stroke-linecap="round" stroke-linejoin="round" stroke-miterlimit="10"><path d="M50.8 25.7s2.7-.5 2.7-3.4M56.3 25.7s-2.7-.5-2.7-3.4M56.3 25.7s-2.7.5-2.7 3.4M50.8 25.7s2.7.5 2.7 3.4"/></g><g fill="none" stroke="#050505" stroke-width="1.316" stroke-linecap="round" stroke-linejoin="round" stroke-miterlimit="10"><path d="M143.2 111.7s2.7-.5 2.7-3.4M148.7 111.7s-2.7-.5-2.7-3.4M148.7 111.7s-2.7.5-2.7 3.4M143.2 111.7s2.7.5 2.7 3.4"/></g><g fill="none" stroke="#050505" stroke-width="1.316" stroke-linecap="round" stroke-linejoin="round" stroke-miterlimit="10"><path d="M111.8 27.4s2.7-.5 2.7-3.4M117.3 27.4s-2.7-.5-2.7-3.4M117.3 27.4s-2.7.5-2.7 3.4M111.8 27.4s2.7.5 2.7 3.4"/></g><g fill="none" stroke="#050505" stroke-width="1.316" stroke-linecap="round" stroke-linejoin="round" stroke-miterlimit="10"><path d="M20.5 86.6s2.7-.5 2.7-3.4M26 86.6s-2.7-.5-2.7-3.4M26 86.6s-2.7.5-2.7 3.4M20.5 86.6s2.7.5 2.7 3.4"/></g><path fill="none" stroke="#000" stroke-width="1.323" stroke-linecap="round" stroke-linejoin="round" stroke-miterlimit="10" d="M167.3 43.6h14.9c0-4-2.5-3.8-2.5-3.8 0-6.7-7-4.1-7-4.1-6.8-12.1-19.1-3.9-19.1 2.5-4.8-5-9.7-.5-9.5 2.5-2.6-3.6-7.7-.1-6.3 3-4.8-1.3-4 3.4-4 3.4h14.9M23.6 45.1c0-6.6 12.7-15.1 19.8-2.6 0 0 7.2-2.7 7.2 4.2 0 0 2.6-.2 2.6 3.9h-39s1.9-8.6 9.4-5.5z"/><path d="M23 160.3c-.6-.3-1-.7-1.4-1.3-.3-.5-.5-1.2-.5-1.9v-3.5c0-.7.2-1.4.5-1.9s.8-1 1.4-1.3 1.3-.4 2.1-.4 1.4.1 2 .4c.6.3 1 .7 1.4 1.2.3.5.5 1.1.5 1.8 0 .1-.1.1-.2.2l-1.6.1h-.1c-.1 0-.2 0-.2-.1v-.1c0-.5-.2-1-.5-1.3s-.8-.5-1.3-.5-1 .2-1.3.5-.5.7-.5 1.3v3.6c0 .5.2.9.5 1.3s.8.5 1.3.5 1-.2 1.3-.5.5-.7.5-1.3c0 0 0-.1.1-.1h.2l1.6.1c.2 0 .3 0 .3.1v.1c0 .7-.2 1.3-.5 1.8s-.8.9-1.4 1.2c-.6.3-1.3.4-2 .4-.9.1-1.6-.1-2.2-.4zM35.2 153.2c.5.2.9.5 1.2.9.3.4.4.8.4 1.3v5c0 .2-.1.3-.3.3H35c-.2 0-.3-.1-.3-.3v-.4-.1h-.1c-.5.5-1.1.8-2.1.8-.8 0-1.4-.2-1.9-.6-.5-.4-.7-.9-.7-1.7 0-.8.3-1.4.8-1.8.5-.4 1.3-.6 2.3-.6h1.5c.1 0 .1 0 .1-.1v-.3c0-.3-.1-.6-.3-.8-.2-.2-.5-.3-.9-.3-.3 0-.5.1-.7.1-.2.1-.3.2-.4.4-.1.1-.2.2-.3.2l-1.7-.2c-.1 0-.1 0-.2-.1l-.1-.1c.1-.4.2-.8.5-1.1.3-.3.7-.6 1.2-.8.5-.2 1-.3 1.6-.3.8.2 1.4.3 1.9.6zm-1 5.7c.3-.2.4-.5.4-.9v-.5c0-.1 0-.1-.1-.1h-1.1c-.5 0-.8.1-1.1.3s-.4.4-.4.7c0 .3.1.5.3.6.2.2.5.2.8.2.6 0 .9-.1 1.2-.3zM44.2 153.6c.5.5.7 1.2.7 2v4.8c0 .2-.1.3-.3.3H43c-.2 0-.3-.1-.3-.3V156c0-.4-.1-.7-.3-1-.2-.2-.5-.4-.9-.4s-.7.1-.9.4c-.2.2-.3.6-.3 1v4.4c0 .2-.1.3-.3.3h-1.6c-.2 0-.3-.1-.3-.3v-7.2c0-.2.1-.3.3-.3H40c.2 0 .3.1.3.3v.5h.1c.4-.6 1-.8 1.8-.8.9-.1 1.5.2 2 .7zM55.4 153.6c.5.5.7 1.2.7 2v4.8c0 .2-.1.3-.3.3h-1.6c-.2 0-.3-.1-.3-.3V156c0-.4-.1-.7-.3-1-.2-.2-.5-.4-.9-.4s-.7.1-.9.4c-.2.2-.3.6-.3 1v4.4c0 .2-.1.3-.3.3h-1.6c-.2 0-.3-.1-.3-.3v-10c0-.2.1-.3.3-.3h1.6c.2 0 .3.1.3.3V153.7h.1c.4-.6 1-.8 1.8-.8.9-.1 1.5.2 2 .7zM58.9 160.1c-.6-.4-1-1-1.2-1.8-.1-.5-.2-1-.2-1.5 0-.6.1-1.1.2-1.6.2-.7.6-1.3 1.2-1.7.6-.4 1.3-.6 2.2-.6.8 0 1.5.2 2.1.6.6.4 1 1 1.2 1.7.2.5.2 1 .2 1.6 0 .5-.1 1-.2 1.5-.2.8-.6 1.4-1.2 1.8-.6.4-1.3.7-2.1.7-.9 0-1.6-.2-2.2-.7zm3-1.4c.2-.2.4-.5.5-.8.1-.3.1-.6.1-1s0-.8-.1-1.1c-.1-.3-.3-.6-.5-.8-.2-.2-.5-.3-.9-.3-.3 0-.6.1-.8.3-.2.2-.4.5-.5.8-.1.3-.1.6-.1 1.1 0 .4 0 .8.1 1 .1.4.3.6.5.8.2.2.5.3.9.3.3 0 .6-.1.8-.3zM70.8 152.9h1.6c.2 0 .3.1.3.3v7.2c0 .2-.1.3-.3.3h-1.6c-.2 0-.3-.1-.3-.3v-.4-.1h-.1c-.4.5-1 .8-1.8.8s-1.4-.2-1.9-.7-.7-1-.7-1.9v-4.9c0-.2.1-.3.3-.3h1.6c.2 0 .3.1.3.3v4.4c0 .4.1.7.3 1 .2.2.5.4.9.4.3 0 .6-.1.8-.3.2-.2.4-.5.4-.8v-4.6c-.1-.3 0-.4.2-.4zM75.5 160.5c-.5-.2-.9-.5-1.2-.8s-.3-.7-.3-1.2v-.1c0-.2.1-.3.3-.3h1.5c.2 0 .3 0 .3.1v.1c0 .2.1.4.4.6.2.2.5.2.9.2.3 0 .6-.1.8-.2.2-.1.3-.3.3-.5s-.1-.3-.3-.4c-.2-.1-.5-.2-.9-.3-.5-.1-.9-.2-1.1-.3-.6-.2-1.2-.5-1.5-.8-.4-.3-.6-.8-.6-1.4 0-.7.3-1.3.9-1.8.6-.4 1.3-.7 2.3-.7.6 0 1.2.1 1.7.3.5.2.9.5 1.1.9s.4.8.4 1.3c0 .1 0 .1-.1.1 0 0-.1.1-.2.1h-1.5c-.2 0-.3 0-.3-.1v-.1c0-.2-.1-.4-.3-.6s-.5-.2-.9-.2c-.3 0-.6.1-.8.2-.2.1-.3.3-.3.5s.1.4.3.4c.2.1.5.2 1 .3.3.1.6.1.8.2.7.2 1.3.5 1.7.8.4.3.6.8.6 1.4 0 .7-.3 1.3-.9 1.7s-1.4.6-2.4.6c-.6.3-1.2.2-1.7 0zM87 158.3c.1-.1.1-.1.2-.1s.1 0 .2.1l.9.8c.1.1.1.1.1.2s0 .1-.1.2c-.3.4-.8.7-1.3 1-.5.2-1.1.4-1.7.4-.9 0-1.7-.2-2.3-.7-.6-.5-1-1.1-1.2-1.9-.1-.4-.2-.9-.2-1.4 0-.6.1-1.1.2-1.5.2-.7.6-1.3 1.2-1.8.6-.4 1.3-.7 2.2-.7 1 0 1.8.3 2.3.9.6.6.9 1.4 1.1 2.4 0 .3.1.7.1 1.1 0 .2-.1.3-.3.3h-4.6c-.1 0-.1 0-.1.1 0 .2.1.4.1.5.1.3.3.5.6.7.3.2.7.2 1.1.2.6-.1 1.1-.4 1.5-.8zm-2.7-3.4c-.2.2-.4.4-.4.7 0 .2-.1.3-.1.4 0 .1 0 .1.1.1h2.5c.1 0 .1 0 .1-.1s0-.2-.1-.3c-.1-.3-.2-.5-.5-.7-.2-.2-.5-.3-.8-.3-.4-.1-.6 0-.8.2zM91.2 160.5c-.5-.2-.9-.5-1.2-.8-.3-.3-.4-.7-.4-1.2v-.1c0-.2.1-.3.3-.3h1.5c.2 0 .3 0 .3.1v.1c0 .2.1.4.4.6.2.2.5.2.9.2.3 0 .6-.1.8-.2s.3-.3.3-.5-.1-.3-.3-.4c-.2-.1-.5-.2-.9-.3-.5-.1-.9-.2-1.1-.3-.7-.2-1.2-.5-1.5-.8-.4-.3-.6-.8-.6-1.4 0-.7.3-1.3.9-1.8.6-.4 1.3-.7 2.3-.7.6 0 1.2.1 1.7.3.5.2.9.5 1.1.9s.4.8.4 1.3c0 .1 0 .1-.1.1 0 0-.1.1-.2.1h-1.5c-.2 0-.3 0-.3-.1v-.1c0-.2-.1-.4-.3-.6s-.5-.2-.9-.2c-.3 0-.6.1-.8.2-.2.1-.3.3-.3.5s.1.4.3.4c.2.1.5.2 1 .3.3.1.6.1.8.2.7.2 1.3.5 1.7.8.4.3.6.8.6 1.4 0 .7-.3 1.3-.9 1.7-.6.4-1.4.6-2.4.6-.5.3-1.1.2-1.6 0zM107.6 156.8c0 .7-.1 1.3-.3 1.8-.2.7-.6 1.2-1.1 1.6-.5.4-1.1.6-1.8.6s-1.3-.3-1.7-.8h-.1v.5c0 .2-.1.3-.3.3h-1.6c-.2 0-.3-.1-.3-.3v-10c0-.2.1-.3.3-.3h1.6c.2 0 .3.1.3.3v3.2h.1c.4-.5 1-.7 1.7-.7s1.3.2 1.8.6.9.9 1.1 1.5c.2.3.3.9.3 1.7zm-2.3 0c0-.6-.1-1.2-.4-1.6-.2-.4-.6-.6-1-.6s-.8.2-1 .6c-.2.4-.3.9-.3 1.5s.1 1.1.3 1.5c.2.4.6.6 1 .6.5 0 .9-.2 1.1-.6.2-.3.3-.8.3-1.4zM114 158.3c.1-.1.1-.1.2-.1s.1 0 .2.1l.9.8c.1.1.1.1.1.2s0 .1-.1.2c-.3.4-.8.7-1.3 1-.5.2-1.1.4-1.7.4-.9 0-1.7-.2-2.3-.7s-1-1.1-1.2-1.9c-.1-.4-.2-.9-.2-1.4 0-.6.1-1.1.2-1.5.2-.7.6-1.3 1.2-1.8.6-.4 1.3-.7 2.2-.7 1 0 1.8.3 2.3.9.6.6.9 1.4 1.1 2.4 0 .3.1.7.1 1.1 0 .2-.1.3-.3.3h-4.6c-.1 0-.1 0-.1.1 0 .2.1.4.1.5.1.3.3.5.6.7.3.2.7.2 1.1.2.7-.1 1.2-.4 1.5-.8zm-2.7-3.4c-.2.2-.4.4-.4.7-.1.2-.1.3-.1.4 0 .1 0 .1.1.1h2.5s.1 0 .1-.1 0-.2-.1-.3c-.1-.3-.2-.5-.5-.7s-.5-.3-.8-.3c-.3-.1-.5 0-.8.2zM127.1 156.8c0 .7-.1 1.3-.3 1.8-.2.7-.6 1.2-1.1 1.6-.5.4-1.1.6-1.8.6s-1.3-.3-1.7-.8h-.1v.5c0 .2-.1.3-.3.3h-1.6c-.2 0-.3-.1-.3-.3v-10c0-.2.1-.3.3-.3h1.6c.2 0 .3.1.3.3v3.2h.1c.4-.5 1-.7 1.7-.7s1.3.2 1.8.6.9.9 1.1 1.5c.2.3.3.9.3 1.7zm-2.2 0c0-.6-.1-1.2-.4-1.6-.2-.4-.6-.6-1-.6s-.8.2-1 .6c-.2.4-.3.9-.3 1.5s.1 1.1.3 1.5c.2.4.6.6 1 .6.5 0 .9-.2 1.1-.6.2-.3.3-.8.3-1.4zM129.6 160.1c-.6-.4-1-1-1.2-1.8-.1-.5-.2-1-.2-1.5 0-.6.1-1.1.2-1.6.2-.7.6-1.3 1.2-1.7.6-.4 1.3-.6 2.2-.6.8 0 1.5.2 2.1.6.6.4 1 1 1.2 1.7.1.5.2 1 .2 1.6 0 .5-.1 1-.2 1.5-.2.8-.6 1.4-1.2 1.8-.6.4-1.3.7-2.1.7-.9 0-1.6-.2-2.2-.7zm3-1.4c.2-.2.4-.5.5-.8.1-.3.1-.6.1-1s0-.8-.1-1.1c-.1-.3-.3-.6-.5-.8-.2-.2-.5-.3-.9-.3-.3 0-.6.1-.8.3-.2.2-.4.5-.5.8-.1.3-.1.6-.1 1.1 0 .4 0 .8.1 1 .1.4.3.6.5.8.2.2.5.3.9.3.3 0 .6-.1.8-.3zM140.9 154.6h-1.3c-.1 0-.1 0-.1.1v3.1c0 .3.1.6.2.7s.4.2.7.2h.4c.2 0 .3.1.3.3v1.3c0 .2-.1.2-.3.3h-.8c-.8 0-1.4-.1-1.9-.4s-.6-.8-.6-1.6v-3.9c0-.1 0-.1-.1-.1h-.8c-.2 0-.3-.1-.3-.3v-1.2c0-.2.1-.3.3-.3h.8c.1 0 .1 0 .1-.1V151c0-.2.1-.3.3-.3h1.5c.2 0 .3.1.3.3v1.7c0 .1 0 .1.1.1h1.3c.2 0 .3.1.3.3v1.2c-.2.3-.3.3-.4.3zM148.3 153.6c.5.5.7 1.2.7 2v4.8c0 .2-.1.3-.3.3h-1.6c-.2 0-.3-.1-.3-.3V156c0-.4-.1-.7-.3-1-.2-.2-.5-.4-.9-.4s-.7.1-.9.4c-.2.2-.3.6-.3 1v4.4c0 .2-.1.3-.3.3h-1.6c-.2 0-.3-.1-.3-.3v-10c0-.2.1-.3.3-.3h1.6c.2 0 .3.1.3.3V153.7h.1c.4-.6 1-.8 1.8-.8s1.6.2 2 .7zM22.6 179.3c-.5-.2-.9-.5-1.2-.8-.3-.3-.4-.7-.4-1.2v-.1c0-.2.1-.3.3-.3h1.5c.2 0 .3 0 .3.1v.1c0 .2.1.4.4.6.2.2.5.2.9.2.3 0 .6-.1.8-.2s.3-.3.3-.5-.1-.3-.3-.4c-.2-.1-.5-.2-.9-.3-.5-.1-.9-.2-1.1-.3-.7-.2-1.2-.5-1.5-.8-.4-.3-.6-.8-.6-1.4 0-.7.3-1.3.9-1.8.6-.4 1.3-.7 2.3-.7.6 0 1.2.1 1.7.3.5.2.9.5 1.1.9s.4.8.4 1.3c0 .1 0 .1-.1.1 0 0-.1.1-.2.1h-1.5c-.2 0-.3 0-.3-.1v-.1c0-.2-.1-.4-.3-.6s-.5-.2-.9-.2c-.3 0-.6.1-.8.2-.2.1-.3.3-.3.5s.1.4.3.4c.2.1.5.2 1 .3.3.1.6.1.8.2.7.2 1.3.5 1.7.8.4.3.6.8.6 1.4 0 .7-.3 1.3-.9 1.7-.6.4-1.4.6-2.4.6-.5.3-1.1.2-1.6 0zM33.5 171.8h1.6c.2 0 .3.1.3.3v7.2c0 .2-.1.3-.3.3h-1.6c-.2 0-.3-.1-.3-.3v-.4-.1h-.1c-.4.5-1 .8-1.8.8s-1.4-.2-1.9-.7c-.5-.5-.7-1.1-.7-1.9v-4.9c0-.2.1-.3.3-.3h1.6c.2 0 .3.1.3.3v4.4c0 .4.1.7.3 1 .2.2.5.4.9.4.3 0 .6-.1.8-.3.2-.2.4-.5.4-.8v-4.6c0-.3.1-.4.2-.4zM38.3 179.3c-.5-.2-.9-.5-1.2-.8-.3-.3-.4-.7-.4-1.2v-.1c0-.2.1-.3.3-.3h1.5c.2 0 .3 0 .3.1v.1c0 .2.1.4.4.6.2.2.5.2.9.2.3 0 .6-.1.8-.2.2-.1.3-.3.3-.5s-.1-.3-.3-.4c-.2-.1-.5-.2-.9-.3-.5-.1-.9-.2-1.1-.3-.7-.2-1.2-.5-1.5-.8s-.6-.8-.6-1.4c0-.7.3-1.3.9-1.8.6-.4 1.3-.7 2.3-.7.6 0 1.2.1 1.7.3.5.2.9.5 1.1.9.3.4.4.8.4 1.3 0 .1 0 .1-.1.1 0 0-.1.1-.2.1h-1.5c-.2 0-.3 0-.3-.1v-.1c0-.2-.1-.4-.3-.6-.2-.1-.5-.2-.9-.2-.3 0-.6.1-.8.2-.2.1-.3.3-.3.5s.1.4.3.4c.2.1.5.2 1 .3.3.1.6.1.8.2.7.2 1.3.5 1.7.8s.6.8.6 1.4c0 .7-.3 1.3-.9 1.7s-1.4.6-2.4.6c-.5.3-1.1.2-1.6 0zM48.7 173.5h-1.3c-.1 0-.1 0-.1.1v3.1c0 .3.1.6.2.7s.4.2.7.2h.4c.2 0 .3.1.3.3v1.3c0 .2-.1.2-.3.3h-.8c-.8 0-1.4-.1-1.9-.4s-.6-.8-.6-1.6v-3.9c0-.1 0-.1-.1-.1h-.8c-.2 0-.3-.1-.3-.3V172c0-.2.1-.3.3-.3h.8c.1 0 .1 0 .1-.1V170c0-.2.1-.3.3-.3H47c.2 0 .3.1.3.3v1.7c0 .1 0 .1.1.1h1.3c.2 0 .3.1.3.3v1.2c-.1.1-.2.2-.3.2zM55 172c.5.2.9.5 1.2.9.3.4.4.8.4 1.3v5c0 .2-.1.3-.3.3h-1.6c-.2 0-.3-.1-.3-.3v-.4-.1h-.1c-.5.5-1.1.8-2.1.8-.8 0-1.4-.2-1.9-.6-.5-.4-.7-.9-.7-1.7 0-.8.3-1.4.8-1.8.5-.4 1.3-.6 2.3-.6h1.5c.1 0 .1 0 .1-.1v-.3c0-.3-.1-.6-.3-.8-.2-.2-.5-.3-.9-.3-.3 0-.5.1-.7.1-.2.1-.3.2-.4.4-.1.1-.2.2-.3.2l-1.7-.2c-.1 0-.1 0-.2-.1l-.1-.1c0-.4.2-.8.5-1.1.3-.3.7-.6 1.2-.8s1-.3 1.6-.3c.9.3 1.5.4 2 .6zm-.9 5.7c.3-.2.4-.5.4-.9v-.5c0-.1 0-.1-.1-.1h-1.1c-.4 0-.8.1-1.1.3s-.4.4-.4.7c0 .3.1.5.3.6s.5.2.8.2c.5.1.9 0 1.2-.3zM58.3 170.7c-.2-.2-.4-.5-.4-.9s.1-.7.4-.9c.2-.2.5-.4.9-.4s.7.1.9.3.4.5.4.9-.1.7-.4.9c-.2.2-.5.3-.9.3-.3.2-.6.1-.9-.2zm-.1 8.6v-7.2c0-.2.1-.3.3-.3h1.6c.2 0 .3.1.3.3v7.2c0 .2-.1.3-.3.3h-1.6c-.2-.1-.3-.2-.3-.3zM68 172.4c.5.5.7 1.2.7 2v4.8c0 .2-.1.3-.3.3h-1.6c-.2 0-.3-.1-.3-.3v-4.4c0-.4-.1-.7-.3-1-.2-.2-.5-.4-.9-.4s-.7.1-.9.4c-.2.2-.3.6-.3 1v4.4c0 .2-.1.3-.3.3h-1.6c-.2 0-.3-.1-.3-.3V172c0-.2.1-.3.3-.3h1.6c.2 0 .3.1.3.3v.5h.1c.4-.6 1-.8 1.8-.8s1.5.2 2 .7zM75 172c.5.2.9.5 1.2.9s.4.8.4 1.3v5c0 .2-.1.3-.3.3h-1.6c-.2 0-.3-.1-.3-.3v-.4-.1h-.1c-.5.5-1.1.8-2.1.8-.8 0-1.4-.2-1.9-.6-.5-.4-.7-.9-.7-1.7 0-.8.3-1.4.8-1.8.5-.4 1.3-.6 2.3-.6h1.5c.1 0 .1 0 .1-.1v-.3c0-.3-.1-.6-.3-.8-.2-.2-.5-.3-.9-.3-.3 0-.5.1-.7.1-.2.1-.3.2-.4.4-.1.1-.2.2-.3.2l-1.7-.2c-.1 0-.1 0-.2-.1l-.1-.1c.1-.4.2-.8.5-1.1.3-.3.7-.6 1.2-.8.5-.2 1-.3 1.6-.3.9.3 1.5.4 2 .6zm-.9 5.7c.3-.2.5-.5.5-.9v-.5c0-.1 0-.1-.1-.1h-1.1c-.5 0-.8.1-1.1.3s-.4.4-.4.7c0 .3.1.5.3.6s.5.2.8.2c.4.1.8 0 1.1-.3zM85.2 175.6c0 .7-.1 1.3-.3 1.8-.2.7-.6 1.2-1.1 1.6-.5.4-1.1.6-1.8.6s-1.3-.3-1.7-.8h-.1v.5c0 .2-.1.3-.3.3h-1.6c-.2 0-.3-.1-.3-.3v-10c0-.2.1-.3.3-.3H80c.2 0 .3.1.3.3v3.2h.1c.4-.5 1-.7 1.7-.7s1.3.2 1.8.6c.5.4.9.9 1.1 1.5.1.4.2 1 .2 1.7zm-2.2.1c0-.6-.1-1.2-.4-1.6-.2-.4-.6-.6-1-.6s-.8.2-1 .6c-.2.4-.3.9-.3 1.5s.1 1.1.3 1.5c.2.4.6.6 1 .6.5 0 .9-.2 1.1-.6.2-.3.3-.8.3-1.4zM86.5 179.3v-10c0-.2.1-.3.3-.3h1.6c.2 0 .3.1.3.3v10c0 .2-.1.3-.3.3h-1.6c-.2-.1-.3-.2-.3-.3zM95.4 177.2c.1-.1.1-.1.2-.1s.1 0 .2.1l.9.8c.1.1.1.1.1.2s0 .1-.1.2c-.3.4-.8.7-1.3 1-.5.2-1.1.4-1.7.4-.9 0-1.7-.2-2.3-.7-.6-.5-1-1.1-1.2-1.9-.1-.4-.2-.9-.2-1.4 0-.6.1-1.1.2-1.5.2-.7.6-1.3 1.2-1.8.6-.4 1.3-.7 2.2-.7 1 0 1.8.3 2.3.9.6.6.9 1.4 1.1 2.4 0 .3.1.7.1 1.1 0 .2-.1.3-.3.3h-4.6c-.1 0-.1 0-.1.1 0 .2.1.4.1.5.1.3.3.5.6.7.3.2.7.2 1.1.2.7-.2 1.2-.4 1.5-.8zm-2.7-3.5c-.2.2-.4.4-.4.7 0 .2-.1.3-.1.4 0 .1 0 .1.1.1h2.5c.1 0 .1 0 .1-.1s0-.2-.1-.3c-.1-.3-.2-.5-.5-.7-.2-.2-.5-.3-.8-.3-.3 0-.6.1-.8.2zM106.2 172c.5.2.9.5 1.2.9s.4.8.4 1.3v5c0 .2-.1.3-.3.3H106c-.2 0-.3-.1-.3-.3v-.4-.1h-.1c-.5.5-1.1.8-2.1.8-.8 0-1.4-.2-1.9-.6-.5-.4-.7-.9-.7-1.7 0-.8.3-1.4.8-1.8.5-.4 1.3-.6 2.3-.6h1.5c.1 0 .1 0 .1-.1v-.3c0-.3-.1-.6-.3-.8-.2-.2-.5-.3-.9-.3-.3 0-.5.1-.7.1-.2.1-.3.2-.4.4-.1.1-.2.2-.3.2l-1.7-.2c-.1 0-.1 0-.2-.1l-.1-.1c.1-.4.2-.8.5-1.1.3-.3.7-.6 1.2-.8.5-.2 1-.3 1.6-.3.8.3 1.4.4 1.9.6zm-.9 5.7c.3-.2.5-.5.5-.9v-.5c0-.1 0-.1-.1-.1h-1.1c-.5 0-.8.1-1.1.3s-.4.4-.4.7c0 .3.1.5.3.6s.5.2.8.2c.4.1.8 0 1.1-.3zM115.3 172.4c.5.5.7 1.2.7 2v4.8c0 .2-.1.3-.3.3h-1.6c-.2 0-.3-.1-.3-.3v-4.4c0-.4-.1-.7-.3-1-.2-.2-.5-.4-.9-.4s-.7.1-.9.4c-.2.2-.3.6-.3 1v4.4c0 .2-.1.3-.3.3h-1.6c-.2 0-.3-.1-.3-.3V172c0-.2.1-.3.3-.3h1.6c.2 0 .3.1.3.3v.5h.1c.4-.6 1-.8 1.8-.8s1.5.2 2 .7zM122.4 169h1.6c.2 0 .3.1.3.3v10c0 .2-.1.3-.3.3h-1.6c-.2 0-.3-.1-.3-.3v-.4-.1h-.1c-.4.5-1 .8-1.7.8s-1.3-.2-1.8-.6c-.5-.4-.9-.9-1.1-1.6-.2-.5-.3-1.1-.3-1.8s.1-1.4.3-1.9c.2-.6.6-1.1 1.1-1.5s1.1-.6 1.8-.6 1.3.2 1.7.7h.1v-3.2c.1 0 .1-.1.3-.1zm-.3 6.7c0-.7-.1-1.2-.3-1.5-.2-.4-.6-.6-1-.6-.5 0-.8.2-1 .6-.2.4-.4.9-.4 1.6 0 .6.1 1.1.3 1.5.2.4.6.6 1.1.6.4 0 .8-.2 1-.6.2-.5.3-1 .3-1.6zM26.1 190.9c.5.2.9.5 1.2.9s.4.8.4 1.3v5c0 .2-.1.3-.3.3h-1.6c-.2 0-.3-.1-.3-.3v-.4-.1h-.1c-.5.5-1.1.8-2.1.8-.8 0-1.4-.2-1.9-.6-.5-.4-.7-.9-.7-1.7 0-.8.3-1.4.8-1.8.5-.4 1.3-.6 2.3-.6h1.5c.1 0 .1 0 .1-.1v-.3c0-.3-.1-.6-.3-.8-.2-.2-.5-.3-.9-.3-.3 0-.5.1-.7.1-.2.1-.3.2-.4.4-.1.1-.2.2-.3.2l-1.7-.2c-.1 0-.1 0-.2-.1l-.1-.1c0-.4.2-.8.5-1.1.3-.3.7-.6 1.2-.8s1-.3 1.6-.3c.9.3 1.5.4 2 .6zm-1 5.7c.3-.2.5-.5.5-.9v-.5c0-.1 0-.1-.1-.1h-1.1c-.4 0-.8.1-1.1.3s-.4.4-.4.7c0 .3.1.5.3.6.2.2.5.2.8.2.5 0 .8-.1 1.1-.3zM33.7 190.9v1.3c0 .2-.1.3-.3.3H32c-.1 0-.1 0-.1.1v5.6c0 .2-.1.3-.3.3H30c-.2 0-.3-.1-.3-.3v-5.6c0-.1 0-.1-.1-.1H29c-.2 0-.3-.1-.3-.3v-1.3c0-.2.1-.3.3-.3h.8c.1 0 .1 0 .1-.1v-.3c0-.6.1-1.1.3-1.4.2-.3.5-.6.9-.7.4-.1 1-.2 1.8-.2h.5c.2 0 .3.1.3.3v1.1c0 .2-.1.3-.3.3H33c-.3 0-.6.1-.7.2s-.2.4-.2.7v.1c0 .1 0 .1.1.1h1.4c.1 0 .1.1.1.2zM39.5 190.9v1.3c0 .2-.1.3-.3.3h-1.4c-.1 0-.1 0-.1.1v5.6c0 .2-.1.3-.3.3H36c-.2 0-.3-.1-.3-.3v-5.6c0-.1 0-.1-.1-.1h-.8c-.2 0-.3-.1-.3-.3v-1.3c0-.2.1-.3.3-.3h.8c.1 0 .1 0 .1-.1v-.3c0-.6.1-1.1.3-1.4s.5-.6.9-.7c.4-.1 1-.2 1.8-.2h.5c.2 0 .3.1.3.3v1.1c0 .2-.1.3-.3.3h-.4c-.3 0-.6.1-.7.2s-.2.4-.2.7v.1c0 .1 0 .1.1.1h1.4c.1 0 .1.1.1.2zM42 197.9c-.6-.4-1-1-1.2-1.8-.1-.5-.2-1-.2-1.5 0-.6.1-1.1.2-1.6.2-.7.6-1.3 1.2-1.7.6-.4 1.3-.6 2.2-.6.8 0 1.5.2 2.1.6.6.4 1 1 1.2 1.7.2.5.2 1 .2 1.6 0 .5-.1 1-.2 1.5-.2.8-.6 1.4-1.2 1.8-.6.4-1.3.7-2.1.7-.9-.1-1.6-.3-2.2-.7zm3-1.5c.2-.2.4-.5.5-.8.1-.3.1-.6.1-1s0-.8-.1-1.1c-.1-.3-.3-.6-.5-.8-.2-.2-.5-.3-.9-.3-.3 0-.6.1-.8.3-.2.2-.4.5-.5.8-.1.3-.1.6-.1 1.1 0 .4 0 .8.1 1 .1.4.3.6.5.8.2.2.5.3.9.3.3 0 .6-.1.8-.3zM53.7 190.8c.1.1.2.2.1.3l-.3 1.6c0 .1 0 .1-.1.2s-.1 0-.2 0c-.2 0-.3-.1-.4-.1h-.3c-.4 0-.7.2-.9.4-.2.2-.4.5-.4.9v4c0 .2-.1.3-.3.3h-1.6c-.2 0-.3-.1-.3-.3v-7.2c0-.2.1-.3.3-.3H51c.2 0 .3.1.3.3v.6h.1c.4-.6.9-.9 1.6-.9.3 0 .5 0 .7.2zM59.8 187.9h1.6c.2 0 .3.1.3.3v10c0 .2-.1.3-.3.3h-1.6c-.2 0-.3-.1-.3-.3v-.4-.1h-.1c-.4.5-1 .8-1.7.8s-1.3-.2-1.8-.6c-.5-.4-.9-.9-1.1-1.6-.2-.5-.3-1.1-.3-1.8s.1-1.4.3-1.9c.2-.6.6-1.1 1.1-1.5s1.1-.6 1.8-.6 1.3.2 1.7.7h.1V188s.1-.1.3-.1zm-.3 6.6c0-.7-.1-1.2-.3-1.5-.2-.4-.6-.6-1-.6-.5 0-.8.2-1 .6-.2.4-.4.9-.4 1.6 0 .6.1 1.1.3 1.5.2.4.6.6 1.1.6.4 0 .8-.2 1-.6.2-.4.3-.9.3-1.6zM68 190.9c.5.2.9.5 1.2.9s.4.8.4 1.3v5c0 .2-.1.3-.3.3h-1.6c-.2 0-.3-.1-.3-.3v-.4-.1h-.1c-.5.5-1.1.8-2.1.8-.8 0-1.4-.2-1.9-.6-.5-.4-.7-.9-.7-1.7 0-.8.3-1.4.8-1.8.5-.4 1.3-.6 2.3-.6h1.5c.1 0 .1 0 .1-.1v-.3c0-.3-.1-.6-.3-.8-.2-.2-.5-.3-.9-.3-.3 0-.5.1-.7.1-.2.1-.3.2-.4.4-.1.1-.2.2-.3.2l-1.7-.2c-.1 0-.1 0-.2-.1l-.1-.1c.1-.4.2-.8.5-1.1.3-.3.7-.6 1.2-.8.5-.2 1-.3 1.6-.3.9.3 1.5.4 2 .6zm-.9 5.7c.3-.2.5-.5.5-.9v-.5c0-.1 0-.1-.1-.1h-1.1c-.5 0-.8.1-1.1.3s-.4.4-.4.7c0 .3.1.5.3.6s.5.2.8.2c.4 0 .8-.1 1.1-.3zM78.2 194.5c0 .7-.1 1.3-.3 1.8-.2.7-.6 1.2-1.1 1.6-.5.4-1.1.6-1.8.6s-1.3-.3-1.7-.8h-.1v.5c0 .2-.1.3-.3.3h-1.6c-.2 0-.3-.1-.3-.3v-10c0-.2.1-.3.3-.3H73c.2 0 .3.1.3.3v3.2h.1c.4-.5 1-.7 1.7-.7s1.3.2 1.8.6c.5.4.9.9 1.1 1.5.1.4.2 1 .2 1.7zm-2.2.1c0-.6-.1-1.2-.4-1.6-.2-.4-.6-.6-1-.6s-.8.2-1 .6c-.2.4-.3.9-.3 1.5s.1 1.1.3 1.5c.2.4.6.6 1 .6.5 0 .9-.2 1.1-.6.2-.4.3-.8.3-1.4zM79.5 198.1v-10c0-.2.1-.3.3-.3h1.6c.2 0 .3.1.3.3v10c0 .2-.1.3-.3.3h-1.6c-.2 0-.3-.1-.3-.3zM88.4 196c.1-.1.1-.1.2-.1s.1 0 .2.1l.9.8c.1.1.1.1.1.2s0 .1-.1.2c-.3.4-.8.7-1.3 1-.5.2-1.1.4-1.7.4-.9 0-1.7-.2-2.3-.7-.6-.5-1-1.1-1.2-1.9-.1-.4-.2-.9-.2-1.4 0-.6.1-1.1.2-1.5.2-.7.6-1.3 1.2-1.8.6-.4 1.3-.7 2.2-.7 1 0 1.8.3 2.3.9.6.6.9 1.4 1.1 2.4 0 .3.1.7.1 1.1 0 .2-.1.3-.3.3h-4.6c-.1 0-.1 0-.1.1 0 .2.1.4.1.5.1.3.3.5.6.7.3.2.7.2 1.1.2.7-.1 1.2-.3 1.5-.8zm-2.7-3.4c-.2.2-.4.4-.4.7 0 .2-.1.3-.1.4 0 .1 0 .1.1.1h2.5c.1 0 .1 0 .1-.1s0-.2-.1-.3c-.1-.3-.2-.5-.5-.7-.2-.2-.5-.3-.8-.3-.3 0-.6.1-.8.2zM93.2 194.8v-.4c0-.5.1-.9.4-1.2.3-.3.6-.6 1.1-1 .4-.3.7-.5.9-.7.2-.2.3-.5.3-.8 0-.3-.1-.6-.4-.8s-.6-.3-.9-.3c-.4 0-.8.1-1 .3-.3.2-.4.5-.4.8v.2c0 .2-.1.2-.3.2l-1.6-.1c-.1 0-.1 0-.2-.1l-.1-.1v-.2c0-.6.1-1.1.4-1.6s.7-.8 1.3-1.1c.5-.3 1.2-.4 1.9-.4s1.3.1 1.8.4c.5.2.9.6 1.2 1 .3.4.4.9.4 1.5 0 .4-.1.8-.2 1.1-.2.3-.3.6-.6.8-.2.2-.5.4-.8.7-.4.2-.6.5-.8.6-.2.2-.3.4-.3.7v.3c0 .2-.1.3-.3.3h-1.6c-.1.2-.2.1-.2-.1zm.2 3.3c-.2-.2-.4-.5-.4-.8 0-.3.1-.6.4-.8.3-.2.6-.4.9-.4.3 0 .6.1.9.4.3.2.4.5.4.8 0 .3-.1.6-.4.8s-.6.4-.9.4-.6-.2-.9-.4zM22.4 229.3c-.4-.2-.8-.6-1-1-.2-.4-.4-.9-.4-1.5v-2.4c0-.5.1-1 .4-1.5s.6-.7 1-1c.4-.2.9-.3 1.5-.3s1.1.1 1.5.3c.4.2.8.6 1 1s.4.9.4 1.5v2.4c0 .6-.1 1-.4 1.5s-.6.8-1 1c-.4.2-1 .3-1.5.3-.6 0-1.1-.1-1.5-.3zm2.5-1.4c.3-.3.4-.6.4-1v-2.4c0-.4-.1-.8-.4-1-.2-.3-.6-.4-1-.4s-.7.1-1 .4c-.2.3-.4.6-.4 1v2.4c0 .4.1.8.4 1 .2.3.6.4 1 .4s.8-.2 1-.4zM31.5 223.8h1.2c.1 0 .2.1.2.2v5.3c0 .1-.1.2-.2.2h-1.2c-.1 0-.2-.1-.2-.2v-.3-.1h-.1c-.3.4-.7.6-1.4.6-.6 0-1-.2-1.4-.5-.4-.3-.5-.8-.5-1.4V224c0-.1.1-.2.2-.2h1.2c.1 0 .2.1.2.2v3.3c0 .3.1.5.2.7.2.2.4.3.7.3.3 0 .5-.1.6-.2.2-.2.3-.4.3-.6V224c0-.2 0-.2.2-.2zM37.4 223.8c.1 0 .1.1.1.2l-.2 1.2c0 .1 0 .1-.1.1h-.8c-.3 0-.5.1-.7.3-.2.2-.3.4-.3.7v3c0 .1-.1.2-.2.2H34c-.1 0-.2-.1-.2-.2V224c0-.1.1-.2.2-.2h1.2c.1 0 .2.1.2.2v.4c0 .1 0 0 .1 0 .3-.4.7-.6 1.2-.6.4-.1.6-.1.7 0zM44.9 224.2c.4.4.5.9.5 1.5v3.6c0 .1-.1.2-.2.2H44c-.1 0-.2-.1-.2-.2V226c0-.3-.1-.5-.2-.7-.2-.2-.4-.3-.7-.3-.3 0-.5.1-.7.3s-.2.4-.2.7v3.3c0 .1-.1.2-.2.2h-1.2c-.1 0-.2-.1-.2-.2V224c0-.1.1-.2.2-.2h1.2c.1 0 .2.1.2.2v.4c.3-.4.8-.6 1.3-.6.7-.1 1.2.1 1.6.4zM50.4 227.7c0-.1.1-.1.1-.1s.1 0 .1.1l.6.6.1.1v.1c-.2.3-.6.5-.9.7s-.8.3-1.2.3c-.7 0-1.2-.2-1.7-.5-.4-.3-.7-.8-.9-1.4-.1-.3-.1-.7-.1-1 0-.4 0-.8.1-1.1.1-.5.4-1 .9-1.3.4-.3 1-.5 1.6-.5.7 0 1.3.2 1.7.6s.7 1 .8 1.8c0 .2.1.5.1.8 0 .1-.1.2-.2.2h-3.4s-.1 0-.1.1c0 .2 0 .3.1.3.1.2.2.4.4.5.2.1.5.2.8.2.5 0 .9-.1 1.1-.5zm-2-2.5c-.2.1-.3.3-.3.5 0 .1-.1.2-.1.3s0 .1.1.1h2v-.3c-.1-.2-.2-.4-.3-.5-.2-.1-.4-.2-.6-.2-.4-.1-.6 0-.8.1zM53.9 229.3l-1.6-5.3v-.1c0-.1.1-.1.2-.1h1.2c.1 0 .2.1.2.2l.8 3.3.8-3.3c0-.1.1-.2.2-.2h1.1c.1 0 .2.1.2.2l.8 3.3.8-3.3c0-.1.1-.2.2-.2H60c.1 0 .1 0 .1.1v.1l-1.6 5.3c0 .1-.1.2-.2.2h-1.2c-.1 0-.2-.1-.2-.2l-.8-2.9-.7 2.9c0 .1-.1.2-.2.2H54s-.1-.1-.1-.2zM67 223.8c.1 0 .1.1.1.2l-.2 1.2c0 .1 0 .1-.1.1H66c-.3 0-.5.1-.7.3-.2.2-.3.4-.3.7v3c0 .1-.1.2-.2.2h-1.2c-.1 0-.2-.1-.2-.2V224c0-.1.1-.2.2-.2h1.2c.1 0 .2.1.2.2v.4h.1c.3-.4.7-.6 1.2-.6.3-.1.5-.1.7 0zM71.7 227.7c0-.1.1-.1.1-.1s.1 0 .1.1l.6.6.1.1v.1c-.2.3-.6.5-.9.7-.4.2-.8.3-1.2.3-.7 0-1.2-.2-1.7-.5-.4-.3-.7-.8-.9-1.4-.1-.3-.1-.7-.1-1 0-.4 0-.8.1-1.1.1-.5.4-1 .9-1.3.4-.3 1-.5 1.6-.5.7 0 1.3.2 1.7.6s.7 1 .8 1.8c0 .2.1.5.1.8 0 .1-.1.2-.2.2h-3.4s-.1 0-.1.1c0 .2 0 .3.1.3.1.2.2.4.4.5.2.1.5.2.8.2.4 0 .8-.1 1.1-.5zm-2.1-2.5c-.2.1-.3.3-.3.5 0 .1-.1.2-.1.3 0 0 0 .1.1.1h2v-.3c-.1-.2-.2-.4-.3-.5s-.4-.2-.6-.2c-.4-.1-.6 0-.8.1zM79.1 226.7c0 .5-.1 1-.2 1.4-.2.5-.4.9-.8 1.1-.4.3-.8.4-1.3.4s-1-.2-1.3-.5v2.4c0 .1-.1.2-.2.2h-1.2c-.1 0-.2-.1-.2-.2V224c0-.1.1-.2.2-.2h1.2c.1 0 .2.1.2.2v.4c.3-.4.7-.6 1.3-.6.5 0 .9.1 1.3.4s.7.7.8 1.2c.2.3.2.7.2 1.3zm-1.6-.1c0-.4-.1-.8-.2-1.1-.2-.3-.4-.5-.8-.5-.3 0-.6.2-.8.5-.1.3-.2.6-.2 1.1 0 .5.1.9.2 1.1.2.3.4.4.7.4.3 0 .6-.1.8-.4.2-.2.3-.6.3-1.1zM81 229.1c-.4-.3-.7-.8-.9-1.3-.1-.3-.2-.7-.2-1.1 0-.5.1-.8.2-1.2.2-.5.5-1 .9-1.3s1-.5 1.6-.5c.6 0 1.1.2 1.6.5s.7.7.9 1.3c.1.3.2.7.2 1.2 0 .4 0 .8-.1 1.1-.2.6-.5 1-.9 1.4-.4.3-1 .5-1.6.5-.7-.1-1.3-.3-1.7-.6zm2.2-1.1c.2-.1.3-.4.4-.6.1-.2.1-.5.1-.8 0-.3 0-.6-.1-.8-.1-.3-.2-.4-.4-.6-.2-.1-.4-.2-.6-.2-.2 0-.5.1-.6.2-.2.1-.3.3-.4.6-.1.2-.1.5-.1.8 0 .3 0 .6.1.8.1.3.2.5.4.6s.4.2.6.2c.2 0 .4 0 .6-.2zM89.7 223.8c.1 0 .1.1.1.2l-.2 1.2c0 .1 0 .1-.1.1h-.8c-.3 0-.5.1-.7.3-.2.2-.3.4-.3.7v3c0 .1-.1.2-.2.2h-1.2c-.1 0-.2-.1-.2-.2V224c0-.1.1-.2.2-.2h1.2c.1 0 .2.1.2.2v.4h.1c.3-.4.7-.6 1.2-.6.3-.1.5-.1.7 0zM93.6 225h-1s-.1 0-.1.1v2.3c0 .2 0 .4.2.5.1.1.3.2.5.2h.3c.1 0 .2.1.2.2v1c0 .1-.1.2-.2.2h-.6c-.6 0-1.1-.1-1.4-.3-.3-.2-.5-.6-.5-1.2v-2.9s0-.1-.1-.1h-.6c-.1 0-.2-.1-.2-.2v-.8c0-.1.1-.2.2-.2h.6s.1 0 .1-.1v-1.3c0-.1.1-.2.2-.2h1.1c.1 0 .2.1.2.2v1.3s0 .1.1.1h1c.1 0 .2.1.2.2v.9c0 .1-.1.1-.2.1zM100.8 227.7c0-.1.1-.1.1-.1s.1 0 .1.1l.6.6.1.1v.1c-.2.3-.6.5-.9.7-.4.2-.8.3-1.2.3-.7 0-1.2-.2-1.7-.5-.4-.3-.8-.8-.9-1.4-.1-.3-.1-.7-.1-1 0-.4 0-.8.1-1.1.1-.5.4-1 .9-1.3.4-.3 1-.5 1.6-.5.7 0 1.3.2 1.7.6s.7 1 .8 1.8c0 .2.1.5.1.8 0 .1-.1.2-.2.2h-3.4s-.1 0-.1.1c0 .2 0 .3.1.3.1.2.2.4.4.5.2.1.5.2.8.2.5 0 .8-.1 1.1-.5zm-2-2.5c-.2.1-.3.3-.3.5 0 .1-.1.2-.1.3s0 .1.1.1h2v-.3c-.1-.2-.2-.4-.3-.5-.2-.1-.4-.2-.6-.2-.4-.1-.6 0-.8.1zM102.7 229.5c0-.1 0-.1 0 0v-.2l1.7-2.6v-.1l-1.7-2.6v-.1-.1H104.1c.1 0 .2 0 .2.1l1 1.5h.1l1-1.5c.1-.1.1-.1.2-.1h1.5v.2l-1.7 2.6v.1l1.7 2.6v.2H106.7c-.1 0-.2 0-.2-.1l-1-1.5-1 1.5c-.1.1-.1.1-.2.1H102.7zM112.6 223.9c.4.2.7.4.9.7s.3.6.3 1v3.7c0 .1-.1.2-.2.2h-1.2c-.1 0-.2-.1-.2-.2v-.3-.1h-.1c-.3.4-.8.6-1.5.6-.6 0-1-.1-1.4-.4s-.5-.7-.5-1.2c0-.6.2-1 .6-1.3.4-.3 1-.5 1.7-.5h1.1s.1 0 .1-.1v-.2c0-.2-.1-.4-.2-.6-.2-.1-.4-.2-.7-.2-.2 0-.4 0-.5.1l-.3.3c0 .1-.1.2-.2.1l-1.2-.2c-.1 0-.1 0-.1-.1v-.1c0-.3.2-.6.4-.8.2-.2.5-.4.9-.6.4-.1.8-.2 1.2-.2.2.2.7.3 1.1.4zm-.7 4.3c.2-.2.3-.4.3-.7v-.4s0-.1-.1-.1h-.8c-.3 0-.6.1-.8.2-.2.1-.3.3-.3.5s.1.4.2.5.3.2.6.2c.4 0 .6-.1.9-.2zM122.5 224.2c.3.3.5.8.5 1.5v3.6c0 .1-.1.2-.2.2h-1.2c-.1 0-.2-.1-.2-.2V226c0-.3-.1-.5-.2-.7-.2-.2-.4-.3-.6-.3-.3 0-.5.1-.6.3-.2.2-.2.4-.2.7v3.3c0 .1-.1.2-.2.2h-1.2c-.1 0-.2-.1-.2-.2V226c0-.3-.1-.5-.2-.7-.2-.2-.4-.3-.6-.3-.2 0-.4.1-.6.2-.2.1-.3.3-.3.6v3.5c0 .1-.1.2-.2.2H115c-.1 0-.2-.1-.2-.2V224c0-.1.1-.2.2-.2h1.2c.1 0 .2.1.2.2v.5c0 .1 0 0 0 0 .3-.4.8-.7 1.4-.7.4 0 .7.1 1 .2.3.2.5.4.6.7.2-.3.4-.5.7-.7.3-.1.6-.2.9-.2.7-.1 1.2.1 1.5.4zM124.3 223c-.2-.2-.3-.4-.3-.7s.1-.5.3-.7c.2-.2.4-.3.7-.3.3 0 .5.1.7.3s.3.4.3.7-.1.5-.3.7-.4.3-.7.3c-.3-.1-.5-.2-.7-.3zm-.1 6.3V224c0-.1.1-.2.2-.2h1.2c.1 0 .2.1.2.2v5.3c0 .1-.1.2-.2.2h-1.2c-.1 0-.2-.1-.2-.2zM131.4 224.2c.4.4.5.9.5 1.5v3.6c0 .1-.1.2-.2.2h-1.2c-.1 0-.2-.1-.2-.2V226c0-.3-.1-.5-.2-.7-.2-.2-.4-.3-.7-.3-.3 0-.5.1-.7.3s-.3.4-.3.7v3.3c0 .1-.1.2-.2.2H127c-.1 0-.2-.1-.2-.2V224c0-.1.1-.2.2-.2h1.2c.1 0 .2.1.2.2v.4c.3-.4.8-.6 1.3-.6.9-.1 1.3.1 1.7.4zM136.9 227.7c0-.1.1-.1.1-.1s.1 0 .1.1l.6.6.1.1v.1c-.2.3-.6.5-.9.7s-.8.3-1.2.3c-.7 0-1.2-.2-1.7-.5-.4-.3-.7-.8-.9-1.4-.1-.3-.1-.7-.1-1 0-.4 0-.8.1-1.1.1-.5.4-1 .9-1.3.4-.3 1-.5 1.6-.5.7 0 1.3.2 1.7.6s.7 1 .8 1.8c0 .2.1.5.1.8 0 .1-.1.2-.2.2h-3.4s-.1 0-.1.1c0 .2 0 .3.1.3.1.2.2.4.4.5.2.1.5.2.8.2.5 0 .9-.1 1.1-.5zm-2-2.5c-.2.1-.3.3-.3.5 0 .1-.1.2-.1.3s0 .1.1.1h2v-.3c-.1-.2-.2-.4-.3-.5-.2-.1-.4-.2-.6-.2-.4-.1-.6 0-.8.1zM140.1 229.4c-.4-.1-.7-.3-.9-.6-.2-.3-.3-.5-.3-.9v-.1c0-.1.1-.2.2-.2h1.1c.1 0 .2 0 .2.1v.1c0 .2.1.3.3.4s.4.2.7.2c.3 0 .5 0 .6-.1.2-.1.2-.2.2-.4 0-.1-.1-.2-.2-.3-.1-.1-.4-.1-.7-.2-.4-.1-.6-.2-.8-.3-.5-.2-.9-.4-1.1-.6-.3-.2-.4-.6-.4-1 0-.5.2-1 .6-1.3.4-.3 1-.5 1.7-.5.5 0 .9.1 1.2.2s.6.4.8.6c.2.3.3.6.3.9v.1H142.4c-.1 0-.2 0-.2-.1v-.1c0-.2-.1-.3-.2-.4-.2-.1-.4-.2-.7-.2-.2 0-.4 0-.6.1-.2.1-.2.2-.2.4 0 .1.1.3.2.3.2.1.4.2.8.2.2 0 .4.1.6.2.5.2 1 .4 1.3.6.3.2.5.6.5 1.1 0 .5-.2 1-.7 1.3-.4.3-1 .5-1.8.5-.5.2-.9.1-1.3 0zM150 225h-1s-.1 0-.1.1v2.3c0 .2 0 .4.1.5s.3.2.5.2h.3c.1 0 .2.1.2.2v1c0 .1-.1.2-.2.2h-.6c-.6 0-1.1-.1-1.4-.3-.3-.2-.5-.6-.5-1.2v-2.9s0-.1-.1-.1h-.6c-.1 0-.2-.1-.2-.2v-.8c0-.1.1-.2.2-.2h.6s.1 0 .1-.1v-1.3c0-.1.1-.2.2-.2h1.1c.1 0 .2.1.2.2v1.3s0 .1.1.1h1c.1 0 .2.1.2.2v.9c.1.1.1.1-.1.1zM155.6 224.2c.4.4.5.9.5 1.5v3.6c0 .1-.1.2-.2.2h-1.2c-.1 0-.2-.1-.2-.2V226c0-.3-.1-.5-.2-.7s-.4-.3-.7-.3-.5.1-.7.3-.3.4-.3.7v3.3c0 .1-.1.2-.2.2h-1.2c-.1 0-.2-.1-.2-.2v-7.4c0-.1.1-.2.2-.2h1.2c.1 0 .2.1.2.2v2.5c.3-.4.8-.6 1.3-.6.8-.1 1.3.1 1.7.4zM161.1 227.7c0-.1.1-.1.1-.1s.1 0 .1.1l.6.6.1.1v.1c-.2.3-.6.5-.9.7-.4.2-.8.3-1.2.3-.7 0-1.2-.2-1.7-.5-.4-.3-.8-.8-.9-1.4-.1-.3-.1-.7-.1-1 0-.4 0-.8.1-1.1.1-.5.4-1 .9-1.3.4-.3 1-.5 1.6-.5.7 0 1.3.2 1.7.6s.7 1 .8 1.8c0 .2.1.5.1.8 0 .1-.1.2-.2.2h-3.4s-.1 0-.1.1c0 .2 0 .3.1.3.1.2.2.4.4.5.2.1.5.2.8.2.5 0 .9-.1 1.1-.5zm-2-2.5c-.2.1-.3.3-.3.5 0 .1-.1.2-.1.3s0 .1.1.1h2v-.3c-.1-.2-.2-.4-.3-.5-.2-.1-.4-.2-.6-.2-.4-.1-.6 0-.8.1zM22.7 245.1s-.2-.1-.6-.4c-.4-.3-.7-.7-.9-1.2-.1-.4-.2-.8-.2-1.3s.1-.9.2-1.3c.2-.5.5-.9.9-1.2.4-.3 1-.4 1.5-.4.6 0 1.1.1 1.6.4.4.3.7.7.9 1.1 0 .1.1.2.1.3 0 .1-.1.2-.2.2l-1.2.2h-.1c-.1 0-.1 0-.2-.1v-.2c-.1-.2-.2-.4-.3-.5-.2-.1-.4-.2-.6-.2-.2 0-.4.1-.6.2-.2.1-.3.3-.3.5-.1.2-.1.5-.1.9s0 .7.1.9c.1.2.2.4.3.5.2.1.4.2.6.2.2 0 .4-.1.6-.2.2-.1.3-.3.4-.5v-.1s0-.1.1-.1.1-.1.1 0l1.2.2c.1 0 .1 0 .1.1v.1c0 .1 0 .2-.1.3-.2.5-.5.9-.9 1.2-.4.3-1 .4-1.5.4h-.9zM31.4 239.8c.4.4.5.9.5 1.5v3.6c0 .1-.1.2-.2.2h-1.2c-.1 0-.2-.1-.2-.2v-3.3c0-.3-.1-.5-.2-.7-.2-.2-.4-.3-.7-.3-.3 0-.5.1-.7.3-.2.2-.3.4-.3.7v3.3c0 .1-.1.2-.2.2H27c-.1 0-.2-.1-.2-.2v-7.4c0-.1.1-.2.2-.2h1.2c.1 0 .2.1.2.2v2.5c.3-.4.8-.6 1.3-.6s1.4 0 1.7.4zM36.7 239.5c.4.2.7.4.9.7s.3.6.3 1v3.7c0 .1-.1.2-.2.2h-1.2c-.1 0-.2-.1-.2-.2v-.3-.1h-.1c-.3.4-.8.6-1.5.6-.6 0-1-.1-1.4-.4-.3-.3-.5-.7-.5-1.2 0-.6.2-1 .6-1.3.4-.3 1-.5 1.7-.5h1.1s.1 0 .1-.1v-.2c0-.2-.1-.4-.2-.6-.2-.1-.4-.2-.7-.2-.2 0-.4 0-.5.1l-.3.3c0 .1-.1.2-.2.1l-1.2-.2c-.1 0-.1 0-.1-.1v-.1c0-.3.2-.6.4-.8.2-.2.5-.4.9-.6.4-.1.8-.2 1.2-.2.3.1.7.2 1.1.4zm-.7 4.2c.2-.2.3-.4.3-.7v-.4s0-.1-.1-.1h-.8c-.3 0-.6.1-.8.2-.2.1-.3.3-.3.5s.1.4.2.5.3.2.6.2c.4.1.6 0 .9-.2zM39 244.8v-7.4c0-.1.1-.2.2-.2h1.2c.1 0 .2.1.2.2v7.4c0 .1-.1.2-.2.2h-1.2c-.2 0-.2 0-.2-.2zM41.7 244.8v-7.4c0-.1.1-.2.2-.2h1.2c.1 0 .2.1.2.2v7.4c0 .1-.1.2-.2.2h-1.2c-.1 0-.2 0-.2-.2zM48.4 243.3c0-.1.1-.1.1-.1s.1 0 .1.1l.6.6.1.1v.1c-.2.3-.6.5-.9.7-.4.2-.8.3-1.2.3-.7 0-1.2-.2-1.7-.5-.4-.3-.8-.8-.9-1.4-.1-.3-.1-.7-.1-1 0-.4 0-.8.1-1.1.1-.5.4-1 .9-1.3.4-.3 1-.5 1.6-.5.7 0 1.3.2 1.7.6s.7 1 .8 1.8c0 .2.1.5.1.8 0 .1-.1.2-.2.2H46s-.1 0-.1.1c0 .2 0 .3.1.3.1.2.2.4.4.5.2.1.5.2.8.2.5 0 .9-.2 1.2-.5zm-2.1-2.6c-.2.1-.3.3-.3.5 0 .1-.1.2-.1.3s0 .1.1.1h2v-.3c-.1-.2-.2-.4-.3-.5-.2-.1-.4-.2-.6-.2-.4 0-.6 0-.8.1zM55 239.8c.4.4.5.9.5 1.5v3.6c0 .1-.1.2-.2.2h-1.2c-.1 0-.2-.1-.2-.2v-3.3c0-.3-.1-.5-.2-.7-.2-.2-.4-.3-.7-.3-.3 0-.5.1-.7.3s-.3.4-.3.7v3.3c0 .1-.1.2-.2.2h-1.2c-.1 0-.2-.1-.2-.2v-5.3c0-.1.1-.2.2-.2h1.2c.1 0 .2.1.2.2v.4c.3-.4.8-.6 1.3-.6.8-.2 1.3 0 1.7.4zM60.3 239.3h1.2c.1 0 .2.1.2.2v5c0 1-.3 1.7-.8 2.1-.6.4-1.3.6-2.1.6-.2 0-.5 0-.8-.1-.1 0-.2-.1-.2-.2v-1c0-.1 0-.1.1-.1h.2c.3 0 .5.1.7.1.5 0 .8-.1 1.1-.3.3-.2.4-.5.4-1h-.1c-.3.3-.7.4-1.2.4s-.9-.1-1.3-.3c-.4-.2-.7-.6-.9-1.1-.1-.3-.2-.8-.2-1.3 0-.6.1-1 .2-1.4.2-.5.4-.8.8-1.1.4-.3.8-.4 1.3-.4.6 0 1 .2 1.3.5h.1V239.6c-.2-.2-.1-.3 0-.3zm-.2 2.8v-.5c0-.1 0-.2-.1-.4s-.2-.4-.3-.5c-.2-.1-.3-.2-.6-.2-.2 0-.4.1-.6.2-.2.1-.3.3-.3.5-.1.2-.2.5-.2.9s0 .7.1.9c.1.2.2.4.3.5.2.1.4.2.6.2.2 0 .4-.1.6-.2.2-.1.3-.3.3-.5.2-.2.2-.5.2-.9zM66.7 243.3c0-.1.1-.1.1-.1s.1 0 .1.1l.6.6.1.1v.1c-.2.3-.6.5-.9.7-.4.2-.8.3-1.2.3-.7 0-1.2-.2-1.7-.5-.4-.3-.8-.8-.9-1.4-.1-.3-.1-.7-.1-1 0-.4 0-.8.1-1.1.1-.5.4-1 .9-1.3.4-.3 1-.5 1.6-.5.7 0 1.3.2 1.7.6s.7 1 .8 1.8c0 .2.1.5.1.8 0 .1-.1.2-.2.2h-3.4s-.1 0-.1.1c0 .2 0 .3.1.3.1.2.2.4.4.5.2.1.5.2.8.2.4 0 .8-.2 1.1-.5zm-2-2.6c-.2.1-.3.3-.3.5 0 .1-.1.2-.1.3s0 .1.1.1h2v-.3c-.1-.2-.2-.4-.3-.5-.2-.1-.4-.2-.6-.2-.5 0-.7 0-.8.1zM69.8 244.9c-.4-.1-.7-.3-.9-.6-.2-.3-.3-.5-.3-.9v-.1c0-.1.1-.2.2-.2H70c.1 0 .2 0 .2.1v.1c0 .2.1.3.3.4s.4.2.7.2c.3 0 .5 0 .6-.1s.2-.2.2-.4c0-.1-.1-.2-.2-.3-.1-.1-.4-.1-.7-.2-.4-.1-.6-.2-.8-.3-.5-.2-.9-.4-1.1-.6-.3-.2-.4-.6-.4-1 0-.5.2-1 .6-1.3.4-.3 1-.5 1.7-.5.5 0 .9.1 1.2.2s.6.4.8.6c.2.3.3.6.3.9v.1H72.2c-.1 0-.2 0-.2-.1v.1c0-.2-.1-.3-.2-.4s-.4-.2-.7-.2c-.2 0-.4 0-.6.1s-.2.2-.2.4c0 .1.1.3.2.3.2.1.4.2.7.2.2 0 .4.1.6.2.5.2 1 .4 1.3.6.3.2.5.6.5 1.1 0 .5-.2 1-.7 1.3-.4.3-1 .5-1.8.5-.5 0-.9-.1-1.3-.2zM76.8 238.5c-.2-.2-.3-.4-.3-.7s.1-.5.3-.7c.2-.2.4-.3.7-.3.3 0 .5.1.7.3s.3.4.3.7-.1.5-.3.7-.4.3-.7.3c-.2 0-.5-.1-.7-.3zm0 6.3v-5.3c0-.1.1-.2.2-.2h1.2c.1 0 .2.1.2.2v5.3c0 .1-.1.2-.2.2H77c-.2 0-.2 0-.2-.2zM84 239.8c.4.4.5.9.5 1.5v3.6c0 .1-.1.2-.2.2h-1.2c-.1 0-.2-.1-.2-.2v-3.3c0-.3-.1-.5-.2-.7-.2-.2-.4-.3-.7-.3-.3 0-.5.1-.7.3s-.3.4-.3.7v3.3c0 .1-.1.2-.2.2h-1.2c-.1 0-.2-.1-.2-.2v-5.3c0-.1.1-.2.2-.2h1.2c.1 0 .2.1.2.2v.4c.3-.4.8-.6 1.3-.6.8-.2 1.3 0 1.7.4zM89.5 245.1s-.2-.1-.6-.4c-.4-.3-.7-.7-.9-1.2-.1-.4-.2-.8-.2-1.3s.1-.9.2-1.3c.2-.5.5-.9.9-1.2.4-.3 1-.4 1.5-.4s1.1.1 1.6.4c.4.3.7.7.9 1.1 0 .1.1.2.1.3 0 .1-.1.2-.2.2l-1.2.2h-.1c-.1 0-.1 0-.2-.1v-.2c-.1-.2-.2-.4-.3-.5-.2-.1-.4-.2-.6-.2-.2 0-.4.1-.6.2-.2.1-.3.3-.3.5-.1.2-.1.5-.1.9s0 .7.1.9c.1.2.2.4.3.5.2.1.4.2.6.2.2 0 .4-.1.6-.2.2-.1.3-.3.4-.5v-.1s0-.1.1-.1c0 0 .1-.1.1 0l1.2.2c.1 0 .1 0 .1.1v.1c0 .1 0 .2-.1.3-.2.5-.5.9-.9 1.2s-1 .4-1.5.4h-.9zM97.2 239.4c.1 0 .1.1.1.2l-.2 1.2c0 .1 0 .1-.1.1h-.8c-.3 0-.5.1-.7.3s-.3.4-.3.7v3c0 .1-.1.2-.2.2h-1c-.1 0-.2-.1-.2-.2v-5.3c0-.1.1-.2.2-.2h1.2c.1 0 .2.1.2.2v.4h.1c.3-.4.7-.6 1.2-.6.2-.2.4-.1.5 0zM101.9 243.3c0-.1.1-.1.1-.1s.1 0 .1.1l.6.6.1.1v.1c-.2.3-.6.5-.9.7s-.8.3-1.2.3c-.7 0-1.2-.2-1.7-.5-.4-.3-.8-.8-.9-1.4-.1-.3-.1-.7-.1-1 0-.4 0-.8.1-1.1.1-.5.4-1 .9-1.3.4-.3 1-.5 1.6-.5.7 0 1.3.2 1.7.6s.7 1 .8 1.8c0 .2.1.5.1.8 0 .1-.1.2-.2.2h-3.4s-.1 0-.1.1c0 .2 0 .3.1.3.1.2.2.4.4.5s.5.2.8.2c.5 0 .9-.2 1.1-.5zm-2-2.6c-.2.1-.3.3-.3.5 0 .1-.1.2-.1.3 0 0 0 .1.1.1h2v-.3c-.1-.2-.2-.4-.3-.5-.2-.1-.4-.2-.6-.2-.4 0-.6 0-.8.1zM107.7 239.5c.4.2.7.4.9.7s.3.6.3 1v3.7c0 .1-.1.2-.2.2h-1.2c-.1 0-.2-.1-.2-.2v-.3-.1h-.1c-.3.4-.8.6-1.5.6-.6 0-1-.1-1.4-.4-.3-.3-.5-.7-.5-1.2 0-.6.2-1 .6-1.3.4-.3 1-.5 1.7-.5h1.1s.1 0 .1-.1v-.2c0-.2-.1-.4-.2-.6-.2-.1-.4-.2-.7-.2-.2 0-.4 0-.5.1l-.3.3c0 .1-.1.2-.2.1l-1.2-.2c-.1 0-.1 0-.1-.1v-.1c0-.3.2-.6.4-.8.2-.2.5-.4.9-.6.4-.1.8-.2 1.2-.2.3.1.7.2 1.1.4zm-.7 4.2c.2-.2.3-.4.3-.7v-.4s0-.1-.1-.1h-.8c-.3 0-.6.1-.8.2-.2.1-.3.3-.3.5s.1.4.2.5c.1.1.3.2.6.2.4.1.7 0 .9-.2zM113.1 240.6h-1s-.1 0-.1.1v2.3c0 .2 0 .4.2.5.1.1.3.2.5.2h.3c.1 0 .2.1.2.2v1c0 .1-.1.2-.2.2h-.6c-.6 0-1.1-.1-1.4-.3-.3-.2-.5-.6-.5-1.2v-2.9s0-.1-.1-.1h-.6c-.1 0-.2-.1-.2-.2v-.9c0-.1.1-.2.2-.2h.6s.1 0 .1-.1V238c0-.1.1-.2.2-.2h1.1c.1 0 .2.1.2.2v1.3s0 .1.1.1h1c.1 0 .2.1.2.2v.9s-.1.1-.2.1zM114.4 238.5c-.2-.2-.3-.4-.3-.7s.1-.5.3-.7c.2-.2.4-.3.7-.3.3 0 .5.1.7.3s.3.4.3.7-.1.5-.3.7-.4.3-.7.3c-.3 0-.5-.1-.7-.3zm-.1 6.3v-5.3c0-.1.1-.2.2-.2h1.2c.1 0 .2.1.2.2v5.3c0 .1-.1.2-.2.2h-1.2c-.1 0-.2 0-.2-.2zM121.5 239.8c.4.4.5.9.5 1.5v3.6c0 .1-.1.2-.2.2h-1.2c-.1 0-.2-.1-.2-.2v-3.3c0-.3-.1-.5-.2-.7-.2-.2-.4-.3-.7-.3-.3 0-.5.1-.7.3s-.3.4-.3.7v3.3c0 .1-.1.2-.2.2h-1.2c-.1 0-.2-.1-.2-.2v-5.3c0-.1.1-.2.2-.2h1.2c.1 0 .2.1.2.2v.4c.3-.4.8-.6 1.3-.6.9-.2 1.3 0 1.7.4zM126.9 239.3h1.2c.1 0 .2.1.2.2v5c0 1-.3 1.7-.8 2.1-.6.4-1.3.6-2.1.6-.2 0-.5 0-.8-.1-.1 0-.2-.1-.2-.2v-1c0-.1 0-.1.1-.1h.2c.3 0 .5.1.7.1.5 0 .8-.1 1.1-.3.3-.2.4-.5.4-1h-.1c-.3.3-.7.4-1.2.4s-.9-.1-1.3-.3c-.4-.2-.7-.6-.9-1.1-.1-.3-.2-.8-.2-1.3 0-.6.1-1 .2-1.4.2-.5.4-.8.8-1.1.4-.3.8-.4 1.3-.4.6 0 1 .2 1.3.5h.1V239.6c-.2-.2-.2-.3 0-.3zm-.2 2.8v-.5c0-.1 0-.2-.1-.4s-.2-.4-.3-.5c-.2-.1-.3-.2-.6-.2-.2 0-.4.1-.6.2-.2.1-.3.3-.3.5-.1.2-.2.5-.2.9s0 .7.1.9c.1.2.2.4.3.5.2.1.4.2.6.2.2 0 .4-.1.6-.2.2-.1.3-.3.3-.5.1-.2.2-.5.2-.9zM136 239.8c.4.4.5.9.5 1.5v3.6c0 .1-.1.2-.2.2h-1.2c-.1 0-.2-.1-.2-.2v-3.3c0-.3-.1-.5-.2-.7s-.4-.3-.7-.3-.5.1-.7.3-.3.4-.3.7v3.3c0 .1-.1.2-.2.2h-1.2c-.1 0-.2-.1-.2-.2v-7.4c0-.1.1-.2.2-.2h1.2c.1 0 .2.1.2.2v2.5c.3-.4.8-.6 1.3-.6.8-.2 1.3 0 1.7.4zM138.6 244.6c-.4-.3-.7-.8-.9-1.3-.1-.3-.2-.7-.2-1.1 0-.5.1-.8.2-1.2.2-.5.5-1 .9-1.3s1-.5 1.6-.5c.6 0 1.1.2 1.6.5s.7.7.9 1.3c.1.3.2.7.2 1.2 0 .4 0 .8-.1 1.1-.2.6-.5 1-.9 1.4-.4.3-1 .5-1.6.5-.8-.1-1.3-.2-1.7-.6zm2.2-1c.2-.1.3-.4.4-.6.1-.2.1-.5.1-.8 0-.3 0-.6-.1-.8-.1-.3-.2-.4-.4-.6-.2-.1-.4-.2-.6-.2-.2 0-.5.1-.6.2-.2.1-.3.3-.4.6-.1.2-.1.5-.1.8 0 .3 0 .6.1.8.1.3.2.5.4.6s.4.2.6.2c.2 0 .4-.1.6-.2zM151.5 239.8c.3.3.5.8.5 1.5v3.6c0 .1-.1.2-.2.2h-1.2c-.1 0-.2-.1-.2-.2v-3.3c0-.3-.1-.5-.2-.7-.2-.2-.4-.3-.6-.3-.3 0-.5.1-.6.3-.2.2-.2.4-.2.7v3.3c0 .1-.1.2-.2.2h-1.2c-.1 0-.2-.1-.2-.2v-3.3c0-.3-.1-.5-.2-.7-.2-.2-.4-.3-.6-.3-.2 0-.4.1-.6.2-.2.1-.3.3-.3.6v3.5c0 .1-.1.2-.2.2H144c-.1 0-.2-.1-.2-.2v-5.3c0-.1.1-.2.2-.2h1.2c.1 0 .2.1.2.2v.5c0 .1 0 0 0 0 .3-.4.8-.7 1.4-.7.4 0 .7.1 1 .2.3.2.5.4.6.7h.1c.2-.3.4-.5.7-.7s.6-.2.9-.2c.6-.2 1.1 0 1.4.4zM157 243.3c0-.1.1-.1.1-.1s.1 0 .1.1l.6.6.1.1v.1c-.2.3-.6.5-.9.7s-.8.3-1.2.3c-.7 0-1.2-.2-1.7-.5-.4-.3-.8-.8-.9-1.4-.1-.3-.1-.7-.1-1 0-.4 0-.8.1-1.1.1-.5.4-1 .9-1.3.4-.3 1-.5 1.6-.5.7 0 1.3.2 1.7.6s.7 1 .8 1.8c0 .2.1.5.1.8 0 .1-.1.2-.2.2h-3.4s-.1 0-.1.1c0 .2 0 .3.1.3.1.2.2.4.4.5s.5.2.8.2c.4 0 .8-.2 1.1-.5zm-2-2.6c-.2.1-.3.3-.3.5 0 .1-.1.2-.1.3 0 0 0 .1.1.1h2v-.3c-.1-.2-.2-.4-.3-.5-.2-.1-.4-.2-.6-.2-.5 0-.7 0-.8.1zM160.1 244.9c-.4-.1-.7-.3-.9-.6-.2-.3-.3-.5-.3-.9v-.1c0-.1.1-.2.2-.2h1.1c.1 0 .2 0 .2.1v.1c0 .2.1.3.3.4s.4.2.7.2c.3 0 .5 0 .6-.1.2-.1.2-.2.2-.4 0-.1-.1-.2-.2-.3-.1-.1-.4-.1-.7-.2-.4-.1-.6-.2-.8-.3-.5-.2-.9-.4-1.1-.6-.3-.2-.4-.6-.4-1 0-.5.2-1 .6-1.3.4-.3 1-.5 1.7-.5.5 0 .9.1 1.2.2.4.2.6.4.8.6.2.3.3.6.3.9 0 0 0 .1-.1.1H162.3c-.1 0-.2 0-.2-.1v.1c0-.2-.1-.3-.2-.4-.2-.1-.4-.2-.7-.2-.2 0-.4 0-.6.1-.2.1-.2.2-.2.4 0 .1.1.3.2.3.2.1.4.2.7.2.2 0 .4.1.6.2.5.2 1 .4 1.3.6.3.2.5.6.5 1.1 0 .5-.2 1-.7 1.3s-1 .5-1.8.5c-.2 0-.7-.1-1.1-.2zM164.9 244.8c-.2-.2-.3-.4-.3-.7 0-.3.1-.5.3-.7.2-.2.4-.3.7-.3.3 0 .5.1.7.3.2.2.3.4.3.7 0 .3-.1.5-.3.7-.2.2-.4.3-.7.3s-.5-.1-.7-.3zM167.9 244.8c-.2-.2-.3-.4-.3-.7 0-.3.1-.5.3-.7.2-.2.4-.3.7-.3.3 0 .5.1.7.3.2.2.3.4.3.7 0 .3-.1.5-.3.7-.2.2-.4.3-.7.3s-.5-.1-.7-.3zM170.9 244.8c-.2-.2-.3-.4-.3-.7 0-.3.1-.5.3-.7.2-.2.4-.3.7-.3.3 0 .5.1.7.3.2.2.3.4.3.7 0 .3-.1.5-.3.7-.2.2-.4.3-.7.3-.3 0-.6-.1-.7-.3z"/><g fill-rule="evenodd" clip-rule="evenodd"><path d="M156.4 263.9H148.8c-1 0-1.2.3-1.2 1.3v10.3c0 .9.3 1.2 1.2 1.2h4.1c.4 0 .9.1 1 .6.2.4 0 .8-.5 1-.2.1-.5.1-.7.1h-4.5c-1.5 0-2.3-.8-2.3-2.3v-11.8c0-1.1.6-1.7 1.7-1.8h17c1.1 0 1.8.5 2.1 1.4.1.3.1.6.1.8v11.6c0 1.4-.8 2.2-2.2 2.2h-6.7c-.2 0-.5.1-.7.3-1.2 1.2-2.4 2.4-3.6 3.5-.2.2-.6.4-.9.5-.6.1-1-.4-.8-1 .1-.3.3-.5.5-.7l3.9-3.9c.2-.2.5-.3.8-.3h7.1c.9 0 1.2-.3 1.2-1.2v-10c0-1.3-.2-1.5-1.5-1.5-2.7-.4-5.1-.3-7.5-.3z"/><path d="M157.5 270.3c0 .6-.5 1.2-1.2 1.2s-1.2-.5-1.2-1.1c0-.7.5-1.2 1.2-1.2.7-.2 1.2.4 1.2 1.1zM153.1 270.3c0 .7-.5 1.2-1.2 1.1-.6 0-1.2-.5-1.2-1.2 0-.6.6-1.2 1.2-1.2.7.1 1.2.6 1.2 1.3zM160.7 271.4c-.7 0-1.2-.5-1.2-1.2 0-.6.6-1.2 1.2-1.2.7 0 1.2.6 1.2 1.2.1.7-.5 1.2-1.2 1.2z"/></g><path stroke="#000" stroke-width=".555" stroke-miterlimit="10" d="M189.5 278.4h0l-5.6-.3c-3.2 0-3.5-.2-4.1-.8-.1-.1-.3-.4-.6-.6-.1-.1-.3-.1-.4-.1-.3.4-.8.7-1.4.7H174c-.9 0-2.2-.8-2.2-1.7V267c0-.9 1.3-1.4 2.2-1.4h3.4c.6 0 1.1.3 1.3.7.5-.3 1.3-.7 2.1-1.5 1.1-1.1 1.8-2.4 2-4 .1-.8.7-2.2 2.3-2.2.3 0 .7.1 1.1.2.6.2.9.9 1.1 1.5.3.9.3 2.1.2 3.1-.1.9-.4 1.5-.8 2.6h4.1c1 0 1.9.8 1.9 1.9 0 .5-.2.9-.4 1.2.3.4.4.8.4 1.3 0 .7-.3 1.3-.8 1.7.2.3.4.7.4 1.1 0 .8-.5 1.5-1.2 1.7.1.2.1.8.1 1 .1 1.3-.7 2.5-1.7 2.5zm-11.1-3.3c.1 0 .2 0 .2.1.1 0 .1.1.2.1.2.1.5.2.8.4.5.3.7.8.9 1 .2.3.3.6 3.3.6h0l5.6-.2c.4 0 .8-.6.8-1.1 0-.2-.1-.6-.1-.7-.2-.1-.3-.3-.3-.5 0-.3.2-.6.4-.6l.3-.1h.1s0 0 0 0h.1s0 0 0 0c.4-.1.6-.4.6-.7 0-.4-.3-.7-.8-.7-.3 0-.5-.1-.5-.4 0-.3.2-.4.5-.4h.4c.4 0 .8-.6.8-1.1 0-.4-.2-.8-.4-.9-.2-.1-.3-.3-.3-.5s.1-.4.3-.5c.2-.1.4-.2.4-.7 0-.5-.3-.8-.8-.8h-5.2c-.2 0-.4-.3-.5-.4-.1-.2-.1-.5.1-.6 1.1-1.4 1.3-3.4 1.1-4.7-.1-.9-.4-1.4-.5-1.5-.3-.1-.5-.1-.8-.1-1.1 0-1.2 1.1-1.2 1.2 0 0 0 0 0 0-.3 1.8-1.1 3.3-2.4 4.6-1.3 1.2-2.6 1.8-3.1 2-.2.1-.5 0-.7-.1-.1-.1-.4-.3-.4-.4v-.4c0-.3.3-.3 0-.3H174c-.4 0-1.1.1-1.1.3v8.5c0 .2.7.6 1.1.6h3.4c.2 0 .5-.2.6-.4 0-.2.1-.4.3-.5l.1-.1z"/><g><path d="M22.7 266.8H24c.1 0 .2.1.2.2v7.4c0 .1-.1.2-.2.2h-1.2c-.1 0-.2-.1-.2-.2v-6.1-.1c0-.1 0 0-.1 0l-1 .2c-.1 0-.2-.1-.2-.2v-.8c0-.1 0-.2.1-.2l1-.4c.2.1.2 0 .3 0zM26 274.1c-.5-.5-.7-1.1-.7-1.9v-2.9c0-.8.2-1.4.7-1.8.5-.5 1.1-.7 1.9-.7.8 0 1.5.2 1.9.7.5.5.7 1.1.7 1.8v2.9c0 .8-.2 1.4-.7 1.9-.5.5-1.1.7-1.9.7-.8-.1-1.4-.3-1.9-.7zm2.7-1c.2-.2.3-.5.3-.8v-3.1c0-.3-.1-.6-.3-.8-.2-.2-.5-.3-.8-.3-.3 0-.6.1-.8.3-.2.2-.3.5-.3.8v3.1c0 .3.1.6.3.8s.5.3.8.3c.4 0 .6-.1.8-.3zM31.9 274.4c-.2-.2-.3-.4-.3-.7 0-.3.1-.5.3-.7.2-.2.4-.3.7-.3.3 0 .5.1.7.3.2.2.3.4.3.7 0 .3-.1.5-.3.7-.2.2-.4.3-.7.3-.3 0-.5-.1-.7-.3zM35.3 274.1c-.5-.5-.7-1.1-.7-1.9v-2.9c0-.8.2-1.4.7-1.8s1.1-.7 1.9-.7 1.5.2 1.9.7.7 1.1.7 1.8v2.9c0 .8-.2 1.4-.7 1.9s-1.1.7-1.9.7-1.4-.3-1.9-.7zm2.7-1c.2-.2.3-.5.3-.8v-3.1c0-.3-.1-.6-.3-.8-.2-.2-.5-.3-.8-.3-.3 0-.6.1-.8.3-.2.2-.3.5-.3.8v3.1c0 .3.1.6.3.8.2.2.5.3.8.3.4 0 .6-.1.8-.3zM45.8 269.3v3.3c0 .4-.1.8-.3 1.1s-.5.5-.9.7-.8.2-1.3.2-.9-.1-1.3-.2c-.4-.2-.7-.4-.9-.7s-.3-.6-.3-1v-.3c0-.1.1-.2.2-.2h1.2c.1 0 .2 0 .2.1v.1c0 .2.1.4.2.6.2.2.4.2.6.2.3 0 .5-.1.7-.2s.3-.4.3-.6v-1-.1c0-.1 0 0-.1 0-.3.3-.7.4-1.2.4-.4 0-.8-.1-1.2-.3-.4-.2-.6-.5-.8-.9-.2-.3-.3-.8-.3-1.3 0-.4.1-.8.2-1.2.2-.4.5-.8.9-1 .4-.3.9-.4 1.4-.4.6 0 1.1.1 1.5.4.4.3.7.6.9 1.1.3.5.3.8.3 1.2zm-1.5 0c0-.3 0-.5-.1-.7-.2-.3-.4-.5-.8-.5s-.7.2-.8.5c-.1.2-.2.4-.2.7 0 .3.1.5.2.7.2.3.5.4.8.4.4 0 .7-.2.8-.5 0-.1.1-.3.1-.6zM47.1 274.4c-.2-.2-.3-.4-.3-.7 0-.3.1-.5.3-.7.2-.2.4-.3.7-.3.3 0 .5.1.7.3.2.2.3.4.3.7 0 .3-.1.5-.3.7-.2.2-.4.3-.7.3-.3 0-.6-.1-.7-.3zM51 266.8h1.3c.1 0 .2.1.2.2v7.4c0 .1-.1.2-.2.2H51c-.1 0-.2-.1-.2-.2v-6.1-.1h-.1l-1 .2c-.1 0-.2-.1-.2-.2v-.8c0-.1 0-.2.1-.2l1-.4c.2.1.3 0 .4 0zM54.3 274.5v-.2l2.4-6.1v-.1h-2.1s-.1 0-.1.1v.4c0 .1-.1.2-.2.2h-.9c-.1 0-.2-.1-.2-.2v-1.7c0-.1.1-.2.2-.2h4.7c.1 0 .2.1.2.2v1.2l-2.4 6.2c0 .1-.1.1-.2.1h-1.3c0 .2 0 .2-.1.1z"/></g><g stroke="#000" stroke-width="1.323" stroke-miterlimit="10"><path fill="none" stroke-linecap="round" stroke-linejoin="round" d="M76.9 80.2h-7.5M67.8 80.2h-8M58.3 80.2h-4.2M82 89.8l-4.2 1.8M81.9 70.6l-11.2-4.8M69.4 65.2l-6.8-2.9M61.3 61.8l-3.7-1.6M72.2 73.5L65 71.9M63.6 71.6l-3.9-.8"/><g fill="none" stroke-linecap="round" stroke-linejoin="round"><path d="M144.6 80.2h7.5M153.7 80.2h8M163.2 80.2h4.3M139.6 70.6l11.2-4.8M152.2 65.2l6.8-2.9M149.3 73.5l7.3-1.6M158 71.6l3.8-.8M139.6 89.7l11.2 4.9M152.2 95.1l6.8 3M160.3 98.6l3.6 1.6M149.3 86.9l7.3 1.5M158 88.7l3.8.9M144.6 80.2h7.5M153.7 80.2h8M163.2 80.2h4.3M139.6 70.6l11.2-4.8M152.2 65.2l6.8-2.9M160.3 61.8l3.6-1.6M149.3 73.5l7.3-1.6M158 71.6l3.8-.8M152.2 95.1l6.8 3M160.3 98.6l3.6 1.6M149.3 86.9l7.3 1.5M158 88.7l3.8.9"/></g><circle fill="#EFC223" cx="110.8" cy="79.5" r="22.3"/><path fill="none" stroke-linecap="round" stroke-linejoin="round" d="M61.3 114.3h53.1s1.4-7.8-6.7-5.7c2.4-5.3-6.2-11.2-10.5-5.1.4-5.1-7.8-12.6-15.9-4.2 0-10.8-20.6-24.5-32-4.2 0 0-11.7-4.3-11.7 6.9 0 0-4.3-.4-4.3 6.4h46.3"/></g></svg>