<svg xmlns="http://www.w3.org/2000/svg" width="280.4" height="181.1" viewBox="0 0 280.4 181.1"><path fill="#FFF" d="M0 0h280.4v181.1H0z"/><path d="M249.9 52.2l-1-.3c.5-1.7.8-3.6.8-5.4 0-10.3-8.4-18.8-18.8-18.8-10.3 0-18.8 8.4-18.8 18.8 0 1.8.3 3.6.8 5.3l-1 .3c-.5-1.8-.8-3.7-.8-5.6 0-10.9 8.9-19.9 19.9-19.9 10.9 0 19.9 8.9 19.9 19.9-.2 1.9-.5 3.8-1 5.7zM251.5 62h-43.7l-.1-.1s-1.2-.8-1.3-2c-.1-.8.4-1.6 1.2-2.3l.7.8c-.6.5-.9 1-.8 1.4 0 .5.4.9.7 1.1h43.4V62z"/><path fill="#EFC022" d="M211.6 64h39.8"/><path d="M211.6 63.4h39.9v1.1h-39.9z"/><path d="M211.6 63.4h39.9v1.1h-39.9zM214.4 65.9h34.3V67h-34.3zM218.3 68.5h26.3v1.1h-26.3zM220.2 61.2s-.3-1.3-1.1-1.7c-.4-.2-.9-.2-1.5 0l-.7.3V59c0-1.1-1.2-2.3-2.5-2.6-1.4-.4-2.7.3-3.7 2l-.2.4-.5-.2s-1-.4-1.8-.1l-.7.3V58c0-3.6 1.7-5.3 3-6 1.8-.9 3.9-.8 5.4-.2.5-1.1 1.2-1.9 2.1-2.4 2-1 4.2-.2 4.3-.1l-.4 1s-1.9-.7-3.5.1c-.8.4-1.4 1.2-1.8 2.3l-.2.7-.6-.4c-.9-.6-3.1-1-4.8 0-1.5.8-2.3 2.3-2.4 4.4.6 0 1.1.1 1.4.2 1.6-2.5 3.8-2.3 4.6-2.1 1.5.4 2.8 1.6 3.2 3 .7-.1 1.3-.1 1.8.2 1.3.7 1.7 2.3 1.7 2.4l-1.1.1z"/><path d="M253.3 62h-44v-1.1H253c.2-.2.6-.6.7-1.1 0-.4-.3-.9-.8-1.4l.7-.8c.9.7 1.3 1.5 1.2 2.3-.1 1.2-1.2 2-1.3 2l-.2.1z"/><path d="M240.8 61.2l-1.1-.2c0-.1.4-1.7 1.7-2.4.5-.3 1.1-.3 1.8-.2.4-1.3 1.7-2.6 3.2-3 .9-.2 3-.5 4.6 2.1.4-.1.9-.2 1.4-.2-.1-2.1-1-3.6-2.4-4.4-1.8-.9-3.9-.6-4.8 0l-.6.4-.2-.7c-.3-1.1-.9-1.9-1.8-2.3-1.5-.8-3.4-.1-3.5-.1l-.4-1c.1 0 2.3-.9 4.3.1 1 .5 1.7 1.3 2.1 2.4 1.4-.6 3.6-.7 5.4.2 1.4.7 3 2.4 3 6v.8l-.7-.3c-.8-.3-1.8.1-1.8.1l-.4.2-.2-.4c-.9-1.6-2.2-2.3-3.7-2-1.3.3-2.5 1.6-2.5 2.6v.8l-.7-.3c-.6-.3-1.1-.3-1.5 0-.9.5-1.2 1.8-1.2 1.8z"/><path fill="#FFF" d="M241.5 45v16.4h-21.3V38.7l10.7-7.1 10.6 7.2z"/><path d="M242 61.9h-22.3V38.5l11.2-7.4 11.1 7.5v23.3zm-21.4-.9H241V39l-10.1-6.8-10.3 6.8v22z"/><path d="M228.5 57.4h-4.4v-6h4.4v6zm-3.4-1.1h2.3v-3.8h-2.3v3.8z"/><path d="M224.6 54.8h3.4v1.1h-3.4z"/><g><path d="M228.5 47.8h-4.4v-6h4.4v6zm-3.4-1.1h2.3v-3.8h-2.3v3.8z"/><path d="M224.6 45.2h3.4v1.1h-3.4z"/></g><g><path d="M237.5 47.8H233v-6h4.5v6zm-3.4-1.1h2.3v-3.8h-2.3v3.8z"/><path d="M233.6 45.2h3.4v1.1h-3.4z"/></g><g><path d="M238.5 60.2h-6.4v-8.8h6.4v8.8zm-5.4-1.1h4.3v-6.6h-4.3v6.6z"/><path d="M238.5 62h-6.4v-2.9h6.4V62zm-5.4-1.1h4.3v-.7h-4.3v.7z"/></g><g><path d="M28.2 91.2c-.6-.2-1-.6-1.3-1-.3-.4-.4-1-.4-1.5v-.2c0-.2.1-.2.2-.2h1.5c.2 0 .2.1.2.2v.2c0 .4.2.7.5.9.3.3.8.4 1.3.4s.9-.1 1.1-.3.4-.5.4-.8c0-.2-.1-.4-.2-.6s-.4-.3-.6-.4c-.3-.1-.7-.3-1.2-.5-.6-.2-1.2-.4-1.6-.7-.4-.2-.8-.5-1.1-.9-.3-.4-.4-.9-.4-1.4 0-.6.1-1.1.4-1.5s.7-.7 1.2-1c.5-.2 1.1-.3 1.8-.3s1.3.1 1.9.4c.6.3 1 .6 1.3 1.1.3.5.5 1 .5 1.6v.1c0 .2-.1.2-.2.2H32c-.2 0-.2 0-.2-.1v-.1c0-.4-.2-.7-.5-1-.3-.3-.8-.4-1.3-.4-.4 0-.8.1-1 .3-.2.2-.4.4-.4.8 0 .2.1.4.2.6.1.2.4.3.6.4.3.1.7.3 1.3.5.7.2 1.2.5 1.6.6.4.2.7.5 1 .8.3.4.5.9.5 1.4 0 .6-.1 1.1-.4 1.5-.3.4-.7.8-1.2 1-.5.2-1.2.4-1.9.4-.9-.1-1.6-.2-2.1-.5zM38.8 85.8h-1.3c-.1 0-.1 0-.1.1v2.9c0 .3.1.5.2.7.1.1.3.2.6.2h.4c.2 0 .2.1.2.2v1.2c0 .1-.1.2-.2.3h-.8c-.8 0-1.4-.1-1.7-.4-.4-.3-.6-.7-.6-1.5v-3.7c0-.1 0-.1-.1-.1h-.7c-.2 0-.2-.1-.2-.2v-1.1c0-.2.1-.2.2-.2h.7c.1 0 .1 0 .1-.1v-1.6c0-.2.1-.2.2-.2h1.4c.2 0 .2.1.2.2v1.6c0 .1 0 .1.1.1h1.3c.2 0 .2.1.2.2v1.1c.2.3.1.3-.1.3zM45.2 89.3c.1-.1.1-.1.2-.1s.1 0 .2.1l.8.8c.1.1.1.1.1.2s0 .1-.1.2c-.3.4-.7.7-1.2.9-.5.2-1 .3-1.6.3-.9 0-1.6-.2-2.1-.7s-.9-1-1.1-1.8c-.1-.4-.2-.8-.2-1.3s.1-1 .2-1.4c.2-.7.6-1.2 1.1-1.7.6-.4 1.2-.6 2-.6.9 0 1.6.3 2.2.8s.9 1.3 1 2.3c0 .3.1.6.1 1 0 .2-.1.2-.2.2h-4.3c-.1 0-.1 0-.1.1 0 .2.1.3.1.4.1.3.3.5.6.7s.6.2 1 .2c.5 0 .9-.2 1.3-.6zm-2.6-3.2c-.2.1-.3.3-.4.6 0 .2-.1.3-.1.4 0 .1 0 .1.1.1h2.4s.1 0 .1-.1 0-.2-.1-.3c-.1-.3-.2-.5-.4-.6-.2-.2-.5-.2-.8-.2-.3-.2-.6-.1-.8.1zM49.7 91.3l-2.2-6.7v-.1c0-.1 0-.1.1-.1h1.9c.1 0 .2.1.3.2l1.1 4.2s0 .1.1.1 0 0 .1-.1l1.1-4.2c0-.1.1-.2.3-.2h1.7c.1 0 .1 0 .2.1v.2L52 91.3c0 .1-.1.2-.3.2H50c-.1 0-.2-.1-.3-.2zM60.1 89.3c.1-.1.1-.1.2-.1s.1 0 .2.1l.8.8c.1.1.1.1.1.2s0 .1-.1.2c-.3.4-.7.7-1.2.9-.5.2-1 .3-1.6.3-.9 0-1.6-.2-2.1-.7s-.9-1-1.1-1.8c-.1-.4-.2-.8-.2-1.3s.1-1 .2-1.4c.2-.7.6-1.2 1.1-1.7.6-.4 1.2-.6 2-.6.9 0 1.6.3 2.2.8s.9 1.3 1 2.3c0 .3.1.6.1 1 0 .2-.1.2-.2.2h-4.3c-.1 0-.1 0-.1.1 0 .2.1.3.1.4.1.3.3.5.6.7s.6.2 1 .2c.5 0 1-.2 1.3-.6zm-2.5-3.2c-.2.1-.3.3-.4.6 0 .2-.1.3-.1.4 0 .1 0 .1.1.1h2.4s.1 0 .1-.1 0-.2-.1-.3c-.1-.3-.2-.5-.4-.6-.2-.2-.5-.2-.8-.2-.4-.2-.6-.1-.8.1zM71.3 81.7h1.5c.2 0 .2.1.2.2v9.3c0 .2-.1.2-.2.2h-1.5c-.2 0-.2-.1-.2-.2v-3.8c0-.1 0-.1-.1-.1h-3.1c-.1 0-.1 0-.1.1v3.8c0 .2-.1.2-.2.2h-1.5c-.2 0-.2-.1-.2-.2v-9.3c0-.2.1-.2.2-.2h1.5c.2 0 .2.1.2.2v3.7c0 .1 0 .1.1.1H71c.1 0 .1 0 .1-.1v-3.7c-.1-.2 0-.2.2-.2zM75.7 91c-.6-.4-.9-1-1.1-1.7-.1-.4-.2-.9-.2-1.4 0-.6.1-1.1.2-1.5.2-.7.6-1.2 1.2-1.6.6-.4 1.2-.6 2-.6s1.4.2 2 .6c.5.4.9.9 1.1 1.6.1.4.2.9.2 1.5 0 .5-.1 1-.2 1.4-.2.7-.6 1.3-1.2 1.7-.6.4-1.2.6-2 .6s-1.5-.2-2-.6zm2.8-1.4c.2-.2.4-.4.5-.8.1-.3.1-.6.1-1s0-.7-.1-1c-.1-.3-.2-.6-.5-.7-.2-.2-.5-.3-.8-.3-.3 0-.6.1-.8.3-.2.2-.4.4-.5.7-.1.3-.1.6-.1 1s0 .7.1 1c.1.3.2.6.5.8s.5.3.8.3c.3 0 .6-.1.8-.3zM87.2 89.3c.1-.1.1-.1.2-.1s.1 0 .2.1l.8.8c.1.1.1.1.1.2s0 .1-.1.2c-.3.4-.7.7-1.2.9-.5.2-1 .3-1.6.3-.9 0-1.6-.2-2.1-.7s-.9-1-1.1-1.8c-.1-.4-.2-.8-.2-1.3s.1-1 .2-1.4c.2-.7.6-1.2 1.1-1.7.6-.4 1.2-.6 2-.6.9 0 1.6.3 2.2.8s.9 1.3 1 2.3c0 .3.1.6.1 1 0 .2-.1.2-.2.2h-4.3c-.1 0-.1 0-.1.1 0 .2.1.3.1.4.1.3.3.5.6.7s.6.2 1 .2c.5 0 1-.2 1.3-.6zm-2.5-3.2c-.2.1-.3.3-.4.6 0 .2-.1.3-.1.4 0 .1 0 .1.1.1h2.4s.1 0 .1-.1 0-.2-.1-.3c-.1-.3-.2-.5-.4-.6-.2-.2-.5-.2-.8-.2-.4-.2-.6-.1-.8.1zM89.8 94v-1.2c0-.2 0-.2.1-.2h.1c.6 0 1-.1 1.2-.2.2-.1.4-.4.5-.9v-.1l-2.3-6.9v-.1c0-.1 0-.1.1-.1h1.8c.1 0 .2.1.3.2l1.1 4.2s0 .1.1.1 0 0 .1-.1l1.1-4.2c0-.1.1-.2.3-.2h1.6c.1 0 .1 0 .2.1v.2l-2.4 7.2c-.2.7-.5 1.2-.7 1.5-.2.3-.6.6-1 .8-.4.2-1.1.2-1.9.2H90c-.1 0-.2-.1-.2-.3zM27.9 107.6c-.4-.2-.7-.5-.9-.8-.2-.4-.3-.8-.3-1.2v-2.9c0-.5.1-.9.3-1.2.2-.4.5-.6.9-.8.4-.2.8-.3 1.3-.3s.9.1 1.3.3c.4.2.7.5.9.8.2.3.3.7.3 1.2 0 .1 0 .1-.1.1h-.5-.1v-.1c0-.5-.2-.9-.5-1.2s-.7-.4-1.3-.4-.9.2-1.3.5c-.3.3-.5.7-.5 1.2v2.9c0 .5.2.9.5 1.2.3.3.7.5 1.3.5s.9-.1 1.3-.4.5-.7.5-1.2c0-.1 0-.1.1-.1h.5c.1 0 .1 0 .1.1v.1c0 .5-.1.9-.3 1.2-.2.3-.5.6-.9.8-.4.2-.8.3-1.3.3s-1-.4-1.3-.6zM33.3 107.7v-7.1c0-.1 0-.1.1-.1h.5c.1 0 .1 0 .1.1v6.5s0 .1.1.1h3.7c.1 0 .1 0 .1.1v.4c0 .1 0 .1-.1.1h-4.3c-.2 0-.2 0-.2-.1zM43.8 100.6v.4c0 .1 0 .1-.1.1h-2s-.1 0-.1.1v6.5c0 .1 0 .1-.1.1H41c-.1 0-.1 0-.1-.1v-6.5s0-.1-.1-.1h-1.9c-.1 0-.1 0-.1-.1v-.4c0-.1 0-.1.1-.1h4.8c.1 0 .1 0 .1.1zM47.3 107.7v-7.1c0-.1 0-.1.1-.1h2.4c.7 0 1.2.2 1.7.5s.6.9.6 1.5v3.3c0 .6-.2 1.1-.6 1.5s-1 .5-1.7.5h-2.4s-.1 0-.1-.1zm.8-.5H50c.5 0 .8-.1 1.1-.4.3-.3.4-.6.4-1.1v-3.1c0-.5-.1-.8-.4-1.1-.3-.3-.6-.4-1.1-.4h-1.8s-.1 0-.1.1v6c0-.1 0 0 0 0zM53.7 101.4c-.1-.1-.2-.2-.2-.4s.1-.3.2-.4c.1-.1.2-.1.4-.1s.3 0 .4.1c.1.1.2.2.2.4s-.1.3-.2.4-.2.2-.4.2-.3-.1-.4-.2zm.1 6.3v-5c0-.1 0-.1.1-.1h.5c.1 0 .1 0 .1.1v5c0 .1 0 .1-.1.1h-.5c-.1 0-.1 0-.1-.1zM59 102.6c.1 0 .1.1.1.2l-.1.5c0 .1-.1.1-.2.1s-.3-.1-.5-.1c-.4 0-.7.1-.9.4s-.4.6-.4 1v3.1c0 .1 0 .1-.1.1h-.5c-.1 0-.1 0-.1-.1v-5c0-.1 0-.1.1-.1h.5c.1 0 .1 0 .1.1v.6c.1-.3.3-.4.6-.6.2-.1.5-.2.8-.2.3-.2.4-.1.6 0zM63 107c.2-.1.4-.3.5-.6 0 0 0-.1.1-.1h.1l.3.2c.1 0 .1.1.1.2-.2.4-.4.6-.8.8-.3.2-.7.3-1.2.3s-.9-.1-1.2-.3c-.3-.2-.6-.6-.7-1-.1-.3-.2-.8-.2-1.5v-.7c0-.2 0-.3.1-.5.1-.5.4-.8.7-1.1s.8-.4 1.3-.4c.6 0 1.1.2 1.4.5s.6.8.7 1.3c0 .2.1.6.1 1.1 0 .1 0 .1-.1.1h-3.4s-.1 0-.1.1c0 .4 0 .6.1.8.1.3.2.6.5.8.2.2.6.3.9.3.3 0 .6-.1.8-.3zm-1.8-3.7c-.2.2-.4.4-.4.7 0 .1-.1.4-.1.7 0 0 0 .1.1.1h2.7s.1 0 .1-.1c0-.3 0-.5-.1-.7-.1-.3-.2-.6-.5-.8-.2-.2-.5-.3-.9-.3-.4.2-.7.3-.9.4zM66.4 107.5c-.4-.3-.6-.6-.7-1.1-.1-.3-.1-.7-.1-1.3 0-.5 0-.9.1-1.3s.4-.8.7-1c.4-.3.8-.4 1.3-.4s1 .1 1.3.4c.4.3.6.6.7 1 0 .1 0 .2.1.3 0 .1 0 .1-.1.1l-.5.1c-.1 0-.1 0-.1-.1v-.1c-.1-.3-.2-.5-.5-.7-.2-.2-.5-.3-.9-.3s-.6.1-.9.3c-.2.2-.4.4-.5.7-.1.3-.1.6-.1 1.1 0 .5 0 .8.1 1.1.1.3.2.6.5.8.2.2.5.3.9.3.3 0 .6-.1.9-.3s.4-.4.5-.7v-.1c0-.1.1-.1.2-.1l.5.1c.1 0 .1.1.1.2v.2c-.1.4-.3.7-.7 1-.4.3-.8.4-1.3.4-.7-.2-1.1-.3-1.5-.6zM73.4 103.1h-1.1s-.1 0-.1.1v3.1c0 .3.1.6.2.7.2.1.4.2.7.2h.2c.1 0 .1 0 .1.1v.4c0 .1 0 .1-.1.1H73c-.5 0-.9-.1-1.1-.3-.3-.2-.4-.5-.4-1.1v-3.3s0-.1-.1-.1h-.6c-.1 0-.1 0-.1-.1v-.3c0-.1 0-.1.1-.1h.6s.1 0 .1-.1v-1.2c0-.1 0-.1.1-.1h.5c.1 0 .1 0 .1.1v1.2s0 .1.1.1h1.1c.1 0 .1 0 .1.1v.3c.1.2 0 .2-.1.2zM75.7 107.5c-.4-.3-.6-.6-.8-1.1-.1-.3-.1-.8-.1-1.3s0-1 .1-1.3c.1-.4.4-.8.8-1.1.4-.3.8-.4 1.3-.4s.9.1 1.3.4c.4.3.6.6.7 1.1.1.3.1.8.1 1.3s0 1-.1 1.3c-.1.5-.4.8-.8 1.1-.4.3-.8.4-1.3.4-.4 0-.8-.1-1.2-.4zm2.2-.5c.2-.2.4-.4.5-.8.1-.2.1-.6.1-1.1 0-.5 0-.9-.1-1.1-.1-.3-.2-.6-.5-.8s-.5-.3-.9-.3c-.3 0-.6.1-.9.3-.2.2-.4.4-.5.8-.1.2-.1.6-.1 1.1s0 .9.1 1.1c.1.3.2.6.5.8.2.2.5.3.9.3s.7-.1.9-.3zM83.5 102.6c.1 0 .1.1.1.2l-.1.5c0 .1-.1.1-.2.1s-.3-.1-.5-.1c-.4 0-.7.1-.9.4s-.4.6-.4 1v3.1c0 .1 0 .1-.1.1h-.5c-.1 0-.1 0-.1-.1v-5c0-.1 0-.1.1-.1h.5c.1 0 .1 0 .1.1v.6c.1-.3.3-.4.6-.6.2-.1.5-.2.8-.2.2-.2.4-.1.6 0zM84.5 108.6v-.1l.5-2.2c0-.1.1-.1.1-.1h.4c.1 0 .1 0 .1.1l-.6 2.2c0 .1-.1.1-.2.1h-.3zM89.6 107.7v-7.1c0-.1 0-.1.1-.1h.5c.1 0 .1 0 .1.1v6.5s0 .1.1.1h3.7c.1 0 .1 0 .1.1v.4c0 .1 0 .1-.1.1h-4.3c-.2 0-.2 0-.2-.1zM98.3 107c.2-.1.4-.3.5-.6 0 0 0-.1.1-.1h.1l.3.2c.1 0 .1.1.1.2-.2.4-.4.6-.8.8-.3.2-.7.3-1.2.3s-.9-.1-1.2-.3c-.3-.2-.6-.6-.7-1-.1-.3-.2-.8-.2-1.5v-.7c0-.2 0-.3.1-.5.1-.5.4-.8.7-1.1s.8-.4 1.3-.4c.6 0 1.1.2 1.4.5s.6.8.7 1.3c0 .2.1.6.1 1.1 0 .1 0 .1-.1.1h-3.4s-.1 0-.1.1c0 .4 0 .6.1.8.1.3.2.6.5.8.2.2.6.3.9.3.3 0 .6-.1.8-.3zm-1.8-3.7c-.2.2-.4.4-.4.7 0 .1-.1.4-.1.7 0 0 0 .1.1.1h2.7s.1 0 .1-.1c0-.3 0-.5-.1-.7-.1-.3-.2-.6-.5-.8-.2-.2-.5-.3-.9-.3-.4.2-.6.3-.9.4zM103.9 107c.2-.1.4-.3.5-.6 0 0 0-.1.1-.1h.1l.3.2c.1 0 .1.1.1.2-.2.4-.4.6-.8.8-.3.2-.7.3-1.2.3s-.9-.1-1.2-.3c-.3-.2-.6-.6-.7-1-.1-.3-.2-.8-.2-1.5v-.7c0-.2 0-.3.1-.5.1-.5.4-.8.7-1.1s.8-.4 1.3-.4c.6 0 1.1.2 1.4.5s.6.8.7 1.3c0 .2.1.6.1 1.1 0 .1 0 .1-.1.1h-3.4s-.1 0-.1.1c0 .4 0 .6.1.8.1.3.2.6.5.8.2.2.6.3.9.3.3 0 .6-.1.8-.3zm-1.8-3.7c-.2.2-.4.4-.4.7 0 .1-.1.4-.1.7 0 0 0 .1.1.1h2.7s.1 0 .1-.1c0-.3 0-.5-.1-.7-.1-.3-.2-.6-.5-.8-.2-.2-.5-.3-.9-.3-.3.2-.6.3-.9.4zM110.1 100.5h.5c.1 0 .1 0 .1.1v7.1c0 .1 0 .1-.1.1h-.5c-.1 0-.1 0-.1-.1v-.4c-.2.2-.3.4-.6.5s-.5.2-.8.2c-.5 0-.9-.1-1.2-.4-.3-.3-.6-.6-.7-1-.1-.3-.1-.8-.1-1.3 0-.6 0-1 .1-1.3.1-.4.4-.8.7-1.1.3-.3.8-.4 1.3-.4.3 0 .5.1.8.2.2.1.4.3.6.5v-2.4c-.2-.3-.1-.3 0-.3zm-.2 5.4v-.8-.8c0-.2-.1-.4-.1-.5-.1-.2-.2-.4-.4-.6-.2-.1-.4-.2-.7-.2-.3 0-.5.1-.7.2-.2.1-.4.3-.4.6-.1.2-.1.3-.2.5 0 .2-.1.5-.1.8v.8c0 .2.1.4.1.5.1.3.2.5.4.6.2.1.5.2.8.2.3 0 .5-.1.7-.2.2-.1.3-.3.4-.6.1-.1.1-.3.2-.5zM113.1 107.7c-.3-.1-.5-.3-.7-.5-.2-.2-.2-.4-.2-.7v-.1c0-.1 0-.1.1-.1h.6v.2c0 .2.1.4.4.6s.5.3.9.3.7-.1.9-.2c.2-.2.3-.4.3-.6 0-.2-.1-.3-.2-.4s-.2-.2-.4-.3c-.2-.1-.4-.1-.7-.2-.4-.1-.7-.2-1-.3-.3-.1-.5-.3-.6-.5-.2-.2-.3-.5-.3-.8 0-.4.2-.8.5-1.1.4-.3.8-.4 1.4-.4.4 0 .7.1 1 .2.3.1.5.3.7.5s.2.5.2.7c0 .1 0 .1-.1.1h-.4c-.1 0-.1 0-.1-.1v-.1c0-.2-.1-.4-.3-.6-.2-.2-.5-.2-.9-.2s-.6.1-.9.2c-.2.1-.3.3-.3.6 0 .2.1.4.3.5.2.1.5.3 1 .4.4.1.7.2 1 .3.3.1.5.3.7.5.2.2.3.5.3.8 0 .5-.2.8-.5 1.1s-.8.4-1.4.4c-.7 0-1-.1-1.3-.2zM120.6 107.6c-.4-.2-.7-.5-.9-.8-.2-.4-.3-.8-.3-1.2v-2.9c0-.5.1-.9.3-1.2.2-.4.5-.6.9-.8.4-.2.8-.3 1.3-.3s.9.1 1.3.3c.4.2.7.5.9.8.2.3.3.7.3 1.2 0 .1 0 .1-.1.1h-.5-.1v-.1c0-.5-.2-.9-.5-1.2s-.7-.4-1.3-.4-.9.2-1.3.5c-.3.3-.5.7-.5 1.2v2.9c0 .5.2.9.5 1.2.3.3.7.5 1.3.5s.9-.1 1.3-.4.5-.7.5-1.2c0-.1 0-.1.1-.1h.5c.1 0 .1 0 .1.1v.1c0 .5-.1.9-.3 1.2-.2.3-.5.6-.9.8-.4.2-.8.3-1.3.3s-.9-.4-1.3-.6zM126.6 107.5c-.4-.3-.6-.6-.8-1.1-.1-.3-.1-.8-.1-1.3s0-1 .1-1.3c.1-.4.4-.8.8-1.1.4-.3.8-.4 1.3-.4s.9.1 1.3.4c.4.3.6.6.7 1.1.1.3.1.8.1 1.3s0 1-.1 1.3c-.1.5-.4.8-.8 1.1-.4.3-.8.4-1.3.4-.4 0-.8-.1-1.2-.4zm2.2-.5c.2-.2.4-.4.5-.8.1-.2.1-.6.1-1.1 0-.5 0-.9-.1-1.1-.1-.3-.2-.6-.5-.8s-.5-.3-.9-.3c-.3 0-.6.1-.9.3-.2.2-.4.4-.5.8-.1.2-.1.6-.1 1.1s0 .9.1 1.1c.1.3.2.6.5.8.2.2.5.3.9.3s.7-.1.9-.3zM138.3 102.9c.3.3.5.7.5 1.3v3.5c0 .1 0 .1-.1.1h-.5c-.1 0-.1 0-.1-.1v-3.3c0-.4-.1-.7-.3-.9-.2-.2-.5-.3-.9-.3s-.7.1-.9.3c-.2.2-.3.5-.3.9v3.4c0 .1 0 .1-.1.1h-.5c-.1 0-.1 0-.1-.1v-3.3c0-.4-.1-.7-.3-.9-.2-.2-.5-.3-.9-.3s-.7.1-.9.3c-.2.2-.3.5-.3.9v3.4c0 .1 0 .1-.1.1h-.5c-.1 0-.1 0-.1-.1v-5c0-.1 0-.1.1-.1h.5c.1 0 .1 0 .1.1v.4c.2-.2.4-.4.6-.5.2-.1.5-.1.8-.1.4 0 .7.1.9.2.3.1.5.4.6.6h.1c.2-.3.4-.5.7-.6.3-.1.6-.2 1-.2.3-.3.7-.1 1 .2zM147 102.9c.3.3.5.7.5 1.3v3.5c0 .1 0 .1-.1.1h-.5c-.1 0-.1 0-.1-.1v-3.3c0-.4-.1-.7-.3-.9-.2-.2-.5-.3-.9-.3s-.7.1-.9.3c-.2.2-.3.5-.3.9v3.4c0 .1 0 .1-.1.1h-.5c-.1 0-.1 0-.1-.1v-3.3c0-.4-.1-.7-.3-.9-.2-.2-.5-.3-.9-.3s-.7.1-.9.3c-.2.2-.3.5-.3.9v3.4c0 .1 0 .1-.1.1h-.5c-.1 0-.1 0-.1-.1v-5c0-.1 0-.1.1-.1h.5c.1 0 .1 0 .1.1v.4c.2-.2.4-.4.6-.5.2-.1.5-.1.8-.1.4 0 .7.1.9.2.3.1.5.4.6.6h.1c.2-.3.4-.5.7-.6.3-.1.6-.2 1-.2.2-.3.7-.1 1 .2zM152.4 102.5h.5c.1 0 .1 0 .1.1v5c0 .1 0 .1-.1.1h-.5c-.1 0-.1 0-.1-.1v-.4c-.3.4-.8.6-1.4.6-.3 0-.6-.1-.9-.2s-.5-.3-.7-.6c-.2-.3-.2-.6-.2-.9v-3.5c0-.1 0-.1.1-.1h.5c.1 0 .1 0 .1.1v3.3c0 .4.1.7.3 1 .2.2.5.4.9.4s.7-.1 1-.4c.2-.2.4-.6.4-.9v-3.3c-.1-.2-.1-.2 0-.2zM158.2 102.9c.3.3.5.8.5 1.3v3.4c0 .1 0 .1-.1.1h-.5c-.1 0-.1 0-.1-.1v-3.3c0-.4-.1-.7-.3-1s-.5-.4-.9-.4-.7.1-.9.3c-.2.2-.4.5-.4.8v3.5c0 .1 0 .1-.1.1h-.5c-.1 0-.1 0-.1-.1v-5c0-.1 0-.1.1-.1h.5c.1 0 .1 0 .1.1v.4c.3-.4.8-.6 1.4-.6.5.1 1 .3 1.3.6zM160.4 101.4c-.1-.1-.2-.2-.2-.4s.1-.3.2-.4c.1-.1.2-.1.4-.1s.3 0 .4.1c.1.1.2.2.2.4s-.1.3-.2.4-.2.2-.4.2-.3-.1-.4-.2zm0 6.3v-5c0-.1 0-.1.1-.1h.5c.1 0 .1 0 .1.1v5c0 .1 0 .1-.1.1h-.5s-.1 0-.1-.1zM165.2 103.1H164s-.1 0-.1.1v3.1c0 .3.1.6.2.7.2.1.4.2.7.2h.2c.1 0 .1 0 .1.1v.4c0 .1 0 .1-.1.1h-.4c-.5 0-.9-.1-1.1-.3-.3-.2-.4-.5-.4-1.1v-3.3s0-.1-.1-.1h-.6c-.1 0-.1 0-.1-.1v-.3c0-.1 0-.1.1-.1h.6s.1 0 .1-.1v-1.2c0-.1 0-.1.1-.1h.5c.1 0 .1 0 .1.1v1.2s0 .1.1.1h1.1c.1 0 .1 0 .1.1v.3c.2.2.2.2.1.2zM166.4 109.8v-.4c0-.1 0-.1.1-.1h.1c.3 0 .5 0 .6-.1.2-.1.3-.2.4-.4.1-.2.2-.5.4-.9v-.1l-1.8-5.1v-.1-.1h.6c.1 0 .1 0 .2.1l1.4 4.1 1.3-4.1c0-.1.1-.1.1-.1h.6v.1l-1.9 5.6c-.2.5-.3.8-.5 1-.1.2-.3.4-.6.5-.2.1-.5.1-.9.1h-.1c0 .1 0 .1 0 0zM178.2 100.5h.5c.1 0 .1 0 .1.1v7.1c0 .1 0 .1-.1.1h-.5c-.1 0-.1 0-.1-.1v-3.2s0-.1-.1-.1h-3.3s-.1 0-.1.1v3.2c0 .1 0 .1-.1.1h-.5c-.1 0-.1 0-.1-.1v-7.1c0-.1 0-.1.1-.1h.5c.1 0 .1 0 .1.1v3.1s0 .1.1.1h3.3s.1 0 .1-.1v-3.1c-.1-.1 0-.1.1-.1zM181.3 107.5c-.4-.3-.6-.6-.8-1.1-.1-.3-.1-.8-.1-1.3s0-1 .1-1.3c.1-.4.4-.8.8-1.1.4-.3.8-.4 1.3-.4s.9.1 1.3.4c.4.3.6.6.7 1.1.1.3.1.8.1 1.3s0 1-.1 1.3c-.1.5-.4.8-.8 1.1-.4.3-.8.4-1.3.4-.4 0-.8-.1-1.2-.4zm2.2-.5c.2-.2.4-.4.5-.8.1-.2.1-.6.1-1.1 0-.5 0-.9-.1-1.1-.1-.3-.2-.6-.5-.8s-.5-.3-.9-.3c-.3 0-.6.1-.9.3-.2.2-.4.4-.5.8-.1.2-.1.6-.1 1.1s0 .9.1 1.1c.1.3.2.6.5.8.2.2.5.3.9.3.3 0 .6-.1.9-.3zM192.9 102.9c.3.3.5.7.5 1.3v3.5c0 .1 0 .1-.1.1h-.5c-.1 0-.1 0-.1-.1v-3.3c0-.4-.1-.7-.3-.9-.2-.2-.5-.3-.9-.3s-.7.1-.9.3c-.2.2-.3.5-.3.9v3.4c0 .1 0 .1-.1.1h-.5c-.1 0-.1 0-.1-.1v-3.3c0-.4-.1-.7-.3-.9-.2-.2-.5-.3-.9-.3s-.7.1-.9.3c-.2.2-.3.5-.3.9v3.4c0 .1 0 .1-.1.1h-.5c-.1 0-.1 0-.1-.1v-5c0-.1 0-.1.1-.1h.5c.1 0 .1 0 .1.1v.4c.2-.2.4-.4.6-.5.2-.1.5-.1.8-.1.4 0 .7.1.9.2.3.1.5.4.6.6h.1c.2-.3.4-.5.7-.6.3-.1.6-.2 1-.2.3-.3.7-.1 1 .2zM197.9 107c.2-.1.4-.3.5-.6 0 0 0-.1.1-.1h.1l.3.2c.1 0 .1.1.1.2-.2.4-.4.6-.8.8-.3.2-.7.3-1.2.3s-.9-.1-1.2-.3c-.3-.2-.6-.6-.7-1-.1-.3-.2-.8-.2-1.5v-.7c0-.2 0-.3.1-.5.1-.5.4-.8.7-1.1s.8-.4 1.3-.4c.6 0 1.1.2 1.4.5s.6.8.7 1.3c0 .2.1.6.1 1.1 0 .1 0 .1-.1.1h-3.4s-.1 0-.1.1c0 .4 0 .6.1.8.1.3.2.6.5.8.2.2.6.3.9.3.3 0 .6-.1.8-.3zm-1.8-3.7c-.2.2-.4.4-.4.7 0 .1-.1.4-.1.7 0 0 0 .1.1.1h2.7s.1 0 .1-.1c0-.3 0-.5-.1-.7-.1-.3-.2-.6-.5-.8-.2-.2-.5-.3-.9-.3-.4.2-.7.3-.9.4zM201.3 107.7c-.3-.1-.5-.3-.7-.5-.2-.2-.2-.4-.2-.7v-.1c0-.1 0-.1.1-.1h.6v.2c0 .2.1.4.4.6s.5.3.9.3.7-.1.9-.2c.2-.2.3-.4.3-.6 0-.2-.1-.3-.2-.4s-.2-.2-.4-.3c-.2-.1-.4-.1-.7-.2-.4-.1-.7-.2-1-.3-.3-.1-.5-.3-.6-.5-.2-.2-.3-.5-.3-.8 0-.4.2-.8.5-1.1.4-.3.8-.4 1.4-.4.4 0 .7.1 1 .2.3.1.5.3.7.5s.2.5.2.7c0 .1 0 .1-.1.1h-.4c-.1 0-.1 0-.1-.1v-.1c0-.2-.1-.4-.3-.6-.2-.2-.5-.2-.9-.2s-.6.1-.9.2c-.2.1-.3.3-.3.6 0 .2.1.4.3.5.2.1.5.3 1 .4.4.1.7.2 1 .3.3.1.5.3.7.5.2.2.3.5.3.8 0 .5-.2.8-.5 1.1s-.8.4-1.4.4c-.6 0-1-.1-1.3-.2zM26.4 126.3v-6.2c0-.1.1-.2.2-.2h1c.1 0 .2.1.2.2v6.2c0 .1-.1.2-.2.2h-1c-.1 0-.2 0-.2-.2zM32 125l.1-.1h.1l.5.5.1.1v.1c-.2.3-.5.5-.8.6-.3.1-.7.2-1.1.2-.6 0-1-.1-1.4-.4s-.6-.7-.8-1.2c-.1-.3-.1-.6-.1-.9 0-.4 0-.7.1-.9.1-.5.4-.8.8-1.1s.8-.4 1.3-.4c.6 0 1.1.2 1.5.5s.6.9.7 1.5c0 .2 0 .4.1.7 0 .1-.1.2-.2.2H30s-.1 0-.1.1 0 .2.1.3c.1.2.2.3.4.4.2.1.4.2.7.2.4.1.7-.1.9-.4zm-1.7-2.1c-.1.1-.2.2-.3.4 0 .1 0 .2-.1.2v.1h1.6v-.2c-.1-.2-.2-.3-.3-.4-.1-.1-.3-.2-.5-.2-.1 0-.3 0-.4.1zM37.1 125l.1-.1h.1l.5.5.1.1v.1c-.2.3-.5.5-.8.6-.3.1-.7.2-1.1.2-.6 0-1-.1-1.4-.4s-.6-.7-.8-1.2c-.1-.3-.1-.6-.1-.9 0-.4 0-.7.1-.9.1-.5.4-.8.8-1.1s.8-.4 1.3-.4c.6 0 1.1.2 1.5.5s.6.9.7 1.5c0 .2 0 .4.1.7 0 .1-.1.2-.2.2h-2.9s-.1 0-.1.1 0 .2.1.3c.1.2.2.3.4.4.2.1.4.2.7.2.4.1.7-.1.9-.4zm-1.7-2.1c-.1.1-.2.2-.3.4 0 .1 0 .2-.1.2v.1h1.6v-.2c-.1-.2-.2-.3-.3-.4-.1-.1-.3-.2-.5-.2-.1 0-.2 0-.4.1zM42 120h1c.1 0 .2.1.2.2v6.2c0 .1-.1.2-.2.2h-1c-.1 0-.2-.1-.2-.2v-.3c-.3.3-.6.5-1.1.5-.4 0-.8-.1-1.1-.4s-.6-.6-.7-1c-.1-.3-.2-.7-.2-1.1 0-.5.1-.8.2-1.2.1-.4.4-.7.7-1 .3-.2.7-.4 1.1-.4.5 0 .8.2 1.1.5v-1.9c.1-.1.1-.1.2-.1zm-.2 4.1c0-.4-.1-.7-.2-1-.2-.2-.4-.4-.6-.4-.3 0-.5.1-.7.4-.1.2-.2.6-.2 1s.1.7.2.9c.1.3.4.4.7.4.3 0 .5-.1.6-.4.2-.2.2-.5.2-.9zM45 126.4c-.3-.1-.6-.3-.7-.5s-.3-.5-.3-.7c0-.1.1-.2.2-.2h.9c.1 0 .2 0 .2.1v.1c0 .1.1.3.2.4s.3.1.6.1c.2 0 .4 0 .5-.1s.2-.2.2-.3c0-.1-.1-.2-.2-.3s-.3-.1-.6-.2-.5-.2-.7-.2c-.4-.1-.7-.3-1-.5-.2-.2-.4-.5-.4-.9 0-.5.2-.8.5-1.1.4-.3.8-.4 1.4-.4.4 0 .7.1 1.1.2.3.1.5.3.7.5s.2.5.2.8v.1h-1c-.1 0-.2 0-.2-.1v-.1c0-.1-.1-.3-.2-.3-.1-.1-.3-.1-.6-.1-.2 0-.4 0-.5.1-.1.1-.2.2-.2.3 0 .1.1.2.2.3.1.1.3.1.6.2.2 0 .4.1.5.1.4.1.8.3 1.1.5.3.2.4.5.4.9 0 .5-.2.8-.6 1.1-.4.3-.9.4-1.5.4-.1 0-.5-.1-.8-.2zM50.2 126.6s-.2-.1-.5-.4-.6-.6-.8-1c-.1-.3-.2-.7-.2-1.1 0-.4.1-.8.2-1.1.1-.4.4-.8.8-1 .4-.2.8-.4 1.3-.4s.9.1 1.3.4c.4.2.6.6.8.9 0 .1.1.2.1.3 0 .1 0 .1-.1.1l-1 .1c-.1 0-.1 0-.1-.1v-.1c0-.2-.1-.3-.3-.4-.1-.1-.3-.2-.5-.2s-.4 0-.5.1-.2.2-.3.4c-.1.2-.1.4-.1.8 0 .3 0 .6.1.8.1.2.2.3.3.4.1.1.3.2.5.2s.4-.1.5-.2c.1-.1.2-.2.3-.4 0 0 0-.1.1-.1h.1l1 .1s.1 0 .1.1V125.1c-.1.4-.4.7-.8 1s-.8.4-1.3.4c-.7.1-1 .1-1 .1zM54.7 126.2c-.4-.3-.6-.6-.8-1.1-.1-.3-.1-.6-.1-1s0-.7.1-1c.1-.5.4-.8.8-1.1.4-.3.8-.4 1.4-.4.5 0 .9.1 1.3.4.4.3.6.6.8 1.1.1.3.1.6.1 1 0 .3 0 .6-.1.9-.1.5-.4.9-.8 1.1-.4.3-.8.4-1.3.4-.6.1-1.1-.1-1.4-.3zm1.8-.9c.1-.1.2-.3.3-.5 0-.2.1-.4.1-.7 0-.3 0-.5-.1-.7-.1-.2-.2-.4-.3-.5-.1-.1-.3-.2-.5-.2s-.4.1-.5.2c-.1.1-.2.3-.3.5 0 .2-.1.4-.1.7 0 .3 0 .5.1.7.1.2.2.4.3.5.1.1.3.2.5.2s.4-.1.5-.2zM65.6 122.1c.3.3.4.7.4 1.2v3c0 .1-.1.2-.2.2h-1c-.1 0-.2-.1-.2-.2v-2.8c0-.3-.1-.5-.2-.6s-.3-.2-.5-.2-.4.1-.5.2-.2.3-.2.6v2.8c0 .1-.1.2-.2.2h-1c-.1 0-.2-.1-.2-.2v-2.8c0-.2-.1-.5-.2-.6-.1-.2-.3-.2-.5-.2s-.4.1-.5.2c-.1.1-.2.3-.2.5v2.9c0 .1-.1.2-.2.2h-1c-.1 0-.2-.1-.2-.2v-4.5c0-.1.1-.2.2-.2h1c.1 0 .2.1.2.2v.3c.3-.4.6-.6 1.2-.6.3 0 .6.1.8.2s.4.3.5.6c.1-.2.3-.4.6-.6.2-.1.5-.2.8-.2.6.1 1 .3 1.3.6zM73.4 122.1c.3.3.4.7.4 1.2v3c0 .1-.1.2-.2.2h-1c-.1 0-.2-.1-.2-.2v-2.8c0-.3-.1-.5-.2-.6s-.3-.2-.5-.2-.4.1-.5.2-.2.3-.2.6v2.8c0 .1-.1.2-.2.2h-1c-.1 0-.2-.1-.2-.2v-2.8c0-.2-.1-.5-.2-.6-.1-.2-.3-.2-.5-.2s-.4.1-.5.2c-.1.1-.2.3-.2.5v2.9c0 .1-.1.2-.2.2h-1c-.1 0-.2-.1-.2-.2v-4.5c0-.1.1-.2.2-.2h1c.1 0 .2.1.2.2v.3c.3-.4.6-.6 1.2-.6.3 0 .6.1.8.2s.4.3.5.6c.1-.2.3-.4.6-.6.2-.1.5-.2.8-.2.6.1 1 .3 1.3.6zM77.7 121.7h1c.1 0 .2.1.2.2v4.5c0 .1-.1.2-.2.2h-1c-.1 0-.2-.1-.2-.2v-.3c-.2.3-.6.5-1.2.5-.5 0-.9-.1-1.2-.4-.3-.3-.5-.7-.5-1.2v-3.1c0-.1.1-.2.2-.2h1c.1 0 .2.1.2.2v2.7c0 .2.1.5.2.6.1.2.3.2.6.2.2 0 .4-.1.5-.2.1-.1.2-.3.3-.5v-2.9c-.1 0 0-.1.1-.1zM83.5 122.1c.3.3.5.7.5 1.2v3c0 .1-.1.2-.2.2h-1c-.1 0-.2-.1-.2-.2v-2.7c0-.2-.1-.5-.2-.6-.1-.2-.3-.2-.6-.2s-.4.1-.6.2c-.1.2-.2.4-.2.6v2.7c0 .1-.1.2-.2.2h-1c-.1 0-.2-.1-.2-.2v-4.5c0-.1.1-.2.2-.2h1c.1 0 .2.1.2.2v.3c.3-.3.6-.5 1.1-.5.7 0 1.1.2 1.4.5zM85.1 121c-.1-.1-.2-.3-.2-.6 0-.2.1-.4.2-.6.1-.1.3-.2.6-.2.2 0 .4.1.6.2s.2.3.2.6c0 .2-.1.4-.2.6-.1.1-.3.2-.6.2s-.5 0-.6-.2zm-.1 5.3v-4.5c0-.1.1-.2.2-.2h1c.1 0 .2.1.2.2v4.5c0 .1-.1.2-.2.2h-1c-.2 0-.2 0-.2-.2zM89.9 122.8h-.8s-.1 0-.1.1v1.9c0 .2 0 .4.1.5.1.1.2.1.4.1h.3c.1 0 .2.1.2.2v.8c0 .1-.1.2-.2.2h-.5c-.5 0-.9-.1-1.2-.3-.3-.2-.4-.5-.4-1v-2.4s0-.1-.1-.1h-.5c-.1 0-.2-.1-.2-.2v-.7c0-.1.1-.2.2-.2h.5s.1 0 .1-.1v-1.1c0-.1.1-.2.2-.2h1c.1 0 .2.1.2.2v1.1s0 .1.1.1h.8c.1 0 .2.1.2.2v.7c-.1.1-.2.2-.3.2zM90.8 128.2v-.8c0-.1 0-.2.1-.2h.1c.4 0 .7 0 .8-.1s.3-.3.4-.6v-.1l-1.5-4.6v-.1-.1H91.9c.1 0 .1 0 .2.1l.8 2.8.7-2.8c0-.1.1-.1.2-.1h1.1c.1 0 .1 0 .1.1v.1l-1.6 4.8c-.2.5-.3.8-.5 1s-.4.4-.7.5c-.3.1-.7.2-1.2.2h-.1c-.1.1-.1 0-.1-.1zM99.3 122.1c.3.3.5.7.5 1.2v3c0 .1-.1.2-.2.2h-1c-.1 0-.2-.1-.2-.2v-2.7c0-.2-.1-.5-.2-.6-.1-.2-.3-.2-.6-.2s-.4.1-.6.2c-.1.2-.2.4-.2.6v2.7c0 .1-.1.2-.2.2h-1c-.1 0-.2-.1-.2-.2v-6.2c0-.1.1-.2.2-.2h1c.1 0 .2.1.2.2v2c.3-.3.6-.5 1.1-.5.7 0 1.1.2 1.4.5zM101.5 126.2c-.4-.3-.6-.6-.8-1.1-.1-.3-.1-.6-.1-1s0-.7.1-1c.1-.5.4-.8.8-1.1.4-.3.8-.4 1.4-.4.5 0 .9.1 1.3.4.4.3.6.6.8 1.1.1.3.1.6.1 1 0 .3 0 .6-.1.9-.1.5-.4.9-.8 1.1-.4.3-.8.4-1.3.4-.6.1-1-.1-1.4-.3zm1.9-.9c.1-.1.2-.3.3-.5 0-.2.1-.4.1-.7 0-.3 0-.5-.1-.7-.1-.2-.2-.4-.3-.5-.1-.1-.3-.2-.5-.2s-.4.1-.5.2c-.1.1-.2.3-.3.5 0 .2-.1.4-.1.7 0 .3 0 .5.1.7.1.2.2.4.3.5.1.1.3.2.5.2.1 0 .3-.1.5-.2zM112.4 122.1c.3.3.4.7.4 1.2v3c0 .1-.1.2-.2.2h-1c-.1 0-.2-.1-.2-.2v-2.8c0-.3-.1-.5-.2-.6s-.3-.2-.5-.2-.4.1-.5.2-.2.3-.2.6v2.8c0 .1-.1.2-.2.2h-1c-.1 0-.2-.1-.2-.2v-2.8c0-.2-.1-.5-.2-.6-.1-.2-.3-.2-.5-.2s-.4.1-.5.2c-.1.1-.2.3-.2.5v2.9c0 .1-.1.2-.2.2h-1c-.1 0-.2-.1-.2-.2v-4.5c0-.1.1-.2.2-.2h1c.1 0 .2.1.2.2v.3c.3-.4.6-.6 1.2-.6.3 0 .6.1.8.2s.4.3.5.6c.1-.2.3-.4.6-.6.2-.1.5-.2.8-.2.6.1 1 .3 1.3.6zM117 125l.1-.1h.1l.5.5.1.1v.1c-.2.3-.5.5-.8.6-.3.1-.7.2-1.1.2-.6 0-1-.1-1.4-.4s-.6-.7-.8-1.2c-.1-.3-.1-.6-.1-.9 0-.4 0-.7.1-.9.1-.5.4-.8.8-1.1s.8-.4 1.3-.4c.6 0 1.1.2 1.5.5s.6.9.7 1.5c0 .2 0 .4.1.7 0 .1-.1.2-.2.2H115s-.1 0-.1.1 0 .2.1.3c.1.2.2.3.4.4.2.1.4.2.7.2.4.1.7-.1.9-.4zm-1.7-2.1c-.1.1-.2.2-.3.4 0 .1 0 .2-.1.2v.1h1.6v-.2c-.1-.2-.2-.3-.3-.4-.1-.1-.3-.2-.5-.2-.1 0-.3 0-.4.1zM119.7 126.4c-.3-.1-.6-.3-.7-.5s-.3-.5-.3-.7c0-.1.1-.2.2-.2h.9c.1 0 .2 0 .2.1v.1c0 .1.1.3.2.4s.3.1.6.1c.2 0 .4 0 .5-.1s.2-.2.2-.3c0-.1-.1-.2-.2-.3s-.3-.1-.6-.2-.5-.2-.7-.2c-.4-.1-.7-.3-1-.5-.2-.2-.4-.5-.4-.9 0-.5.2-.8.5-1.1.4-.3.8-.4 1.4-.4.4 0 .7.1 1.1.2.3.1.5.3.7.5s.2.5.2.8v.1h-1c-.1 0-.2 0-.2-.1v-.1c0-.1-.1-.3-.2-.3-.1-.1-.3-.1-.6-.1-.2 0-.4 0-.5.1-.1.1-.2.2-.2.3 0 .1.1.2.2.3.1.1.3.1.6.2.2 0 .4.1.5.1.4.1.8.3 1.1.5.3.2.4.5.4.9 0 .5-.2.8-.6 1.1-.4.3-.9.4-1.5.4-.2 0-.5-.1-.8-.2zM123.7 126.3c-.2-.2-.2-.4-.2-.6 0-.2.1-.4.3-.6.2-.2.4-.2.6-.2.2 0 .4.1.6.2.2.2.3.3.3.6 0 .2-.1.4-.3.6-.2.2-.4.2-.6.2s-.6 0-.7-.2zM126.8 126.2c-.4-.3-.6-.6-.8-1.1-.1-.3-.1-.6-.1-1s0-.7.1-1c.1-.5.4-.8.8-1.1.4-.3.8-.4 1.4-.4.5 0 .9.1 1.3.4.4.3.6.6.8 1.1.1.3.1.6.1 1 0 .3 0 .6-.1.9-.1.5-.4.9-.8 1.1-.4.3-.8.4-1.3.4-.6.1-1-.1-1.4-.3zm1.9-.9c.1-.1.2-.3.3-.5 0-.2.1-.4.1-.7 0-.3 0-.5-.1-.7-.1-.2-.2-.4-.3-.5-.1-.1-.3-.2-.5-.2s-.4.1-.5.2c-.1.1-.2.3-.3.5 0 .2-.1.4-.1.7 0 .3 0 .5.1.7.1.2.2.4.3.5.1.1.3.2.5.2s.3-.1.5-.2zM134.1 121.8c.1 0 .1.1.1.2l-.2 1c0 .1 0 .1-.1.1h-.4-.2c-.2 0-.4.1-.6.2-.2.1-.2.3-.2.6v2.5c0 .1-.1.2-.2.2h-1c-.1 0-.2-.1-.2-.2v-4.5c0-.1.1-.2.2-.2h1c.1 0 .2.1.2.2v.3c.2-.4.6-.5 1-.5.3-.1.5 0 .6.1zM137.9 121.7h1c.1 0 .2.1.2.2v4.2c0 .8-.2 1.4-.7 1.7-.5.3-1.1.5-1.8.5h-.7c-.1 0-.1-.1-.1-.2v-.9s0-.1.1-.1h.7c.4 0 .7-.1.9-.3.2-.2.3-.5.3-.8-.2.2-.6.4-1 .4s-.8-.1-1.1-.3-.6-.5-.7-.9c-.1-.3-.1-.7-.1-1.1 0-.5.1-.9.2-1.2.1-.4.4-.7.7-.9s.7-.3 1.1-.3c.5 0 .8.1 1.1.4v-.2c-.3-.1-.2-.2-.1-.2zm-.2 2.4v-.4c0-.1 0-.2-.1-.3-.1-.2-.1-.3-.3-.4-.1-.1-.3-.2-.5-.2s-.3.1-.5.2c-.1.1-.2.2-.3.4-.1.2-.1.4-.1.8 0 .3 0 .6.1.7.1.2.2.3.3.4.1.1.3.2.5.2s.4-.1.5-.2c.1-.1.2-.2.3-.4.1-.3.1-.5.1-.8zM140.2 126.3c-.2-.2-.2-.4-.2-.6 0-.2.1-.4.3-.6.2-.2.4-.2.6-.2.2 0 .4.1.6.2.2.2.3.3.3.6 0 .2-.1.4-.3.6-.2.2-.4.2-.6.2s-.6 0-.7-.2zM145.5 121.7h1c.1 0 .2.1.2.2v4.5c0 .1-.1.2-.2.2h-1c-.1 0-.2-.1-.2-.2v-.3c-.2.3-.6.5-1.2.5-.5 0-.9-.1-1.2-.4-.3-.3-.5-.7-.5-1.2v-3.1c0-.1.1-.2.2-.2h1c.1 0 .2.1.2.2v2.7c0 .2.1.5.2.6.1.2.3.2.6.2.2 0 .4-.1.5-.2.1-.1.2-.3.3-.5v-2.9c-.1 0 0-.1.1-.1zM147.6 126.3v-6.2c0-.1.1-.2.2-.2h1c.1 0 .2.1.2.2v3.1l1.2-1.4c.1-.1.1-.1.2-.1H151.6v.2l-1.1 1.4v.1l1.4 2.9v.1c0 .1 0 .1-.1.1h-1.1c-.1 0-.1 0-.2-.1l-.9-2.1h-.1l-.6.7V126.4c0 .1-.1.2-.2.2h-1c0-.1-.1-.1-.1-.3zM27.2 140.4c-.3-.1-.6-.3-.7-.5s-.3-.5-.3-.7c0-.1.1-.2.2-.2h.9c.1 0 .2 0 .2.1v.1c0 .1.1.3.2.4s.3.1.6.1c.2 0 .4 0 .5-.1s.2-.2.2-.3c0-.1-.1-.2-.2-.3s-.3-.1-.6-.2-.5-.2-.7-.2c-.4-.1-.7-.3-1-.5-.2-.2-.4-.5-.4-.9 0-.5.2-.8.5-1.1.4-.3.8-.4 1.4-.4.4 0 .7.1 1.1.2.3.1.5.3.7.5s.2.5.2.8v.1h-1c-.1 0-.2 0-.2-.1v-.1c0-.1-.1-.3-.2-.3-.1-.1-.3-.1-.6-.1-.2 0-.4 0-.5.1-.1.1-.2.2-.2.3 0 .1.1.2.2.3.1.1.3.1.6.2.2 0 .4.1.5.1.4.1.8.3 1.1.5.3.2.4.5.4.9 0 .5-.2.8-.6 1.1-.4.3-.9.4-1.5.4-.1 0-.5-.1-.8-.2zM33.7 136.8h-.8s-.1 0-.1.1v1.9c0 .2 0 .4.1.5.1.1.2.1.4.1h.3c.1 0 .2.1.2.2v.8c0 .1-.1.2-.2.2h-.5c-.5 0-.9-.1-1.2-.3-.3-.2-.4-.5-.4-1v-2.4s0-.1-.1-.1H31c-.1 0-.2-.1-.2-.2v-.7c0-.1.1-.2.2-.2h.5s.1 0 .1-.1v-1.1c0-.1.1-.2.2-.2h1c.1 0 .2.1.2.2v1.1s0 .1.1.1h.8c.1 0 .2.1.2.2v.7c-.2.1-.3.2-.4.2zM37.9 139.1l.1-.1h.1l.5.5.1.1v.1c-.2.3-.5.5-.8.6-.3.1-.7.2-1.1.2-.6 0-1-.1-1.4-.4s-.6-.7-.8-1.2c-.1-.3-.1-.6-.1-.9 0-.4 0-.7.1-.9.1-.5.4-.8.8-1.1s.8-.4 1.3-.4c.6 0 1.1.2 1.5.5s.6.9.7 1.5c0 .2 0 .4.1.7 0 .1-.1.2-.2.2h-2.9s-.1 0-.1.1 0 .2.1.3c.1.2.2.3.4.4.2.1.4.2.7.2.4 0 .7-.2.9-.4zm-1.7-2.2c-.1.1-.2.2-.3.4 0 .1 0 .2-.1.2v.1h1.6v-.2c-.1-.2-.2-.3-.3-.4-.1-.1-.3-.2-.5-.2-.1 0-.2 0-.4.1zM41 140.4l-1.4-4.5v-.1-.1H40.8c.1 0 .1 0 .2.1l.7 2.8.7-2.8c0-.1.1-.1.2-.1h1.1c.1 0 .1 0 .1.1v.1l-1.4 4.5c0 .1-.1.1-.2.1h-1.1s-.1 0-.1-.1zM47.9 139.1l.1-.1h.1l.5.5.1.1v.1c-.2.3-.5.5-.8.6-.3.1-.7.2-1.1.2-.6 0-1-.1-1.4-.4s-.6-.7-.8-1.2c-.1-.3-.1-.6-.1-.9 0-.4 0-.7.1-.9.1-.5.4-.8.8-1.1s.8-.4 1.3-.4c.6 0 1.1.2 1.5.5s.6.9.7 1.5c0 .2 0 .4.1.7 0 .1-.1.2-.2.2h-2.9s-.1 0-.1.1 0 .2.1.3c.1.2.2.3.4.4.2.1.4.2.7.2.4 0 .7-.2.9-.4zm-1.7-2.2c-.1.1-.2.2-.3.4 0 .1 0 .2-.1.2v.1h1.6v-.2c-.1-.2-.2-.3-.3-.4-.1-.1-.3-.2-.5-.2-.1 0-.3 0-.4.1zM55.1 134.7c.5.2.8.6 1.1 1 .2.4.4.9.4 1.5v.5c-.1.6-.3 1.1-.6 1.4-.3.3-.7.5-1.2.5-.2 0-.4 0-.6-.1-.2-.1-.3-.2-.4-.3h-.1c-.1.1-.3.2-.5.3-.2.1-.4.1-.5.1-.3 0-.6-.1-.8-.3-.2-.2-.3-.4-.4-.7v-.3-.5c0-.3.1-.5.2-.8.1-.3.3-.5.5-.7.2-.2.5-.2.8-.2.3 0 .5.1.7.3v-.1s0-.1.1-.1H54.6v.1l-.2 1.7v.2c0 .2 0 .3.1.4s.2.2.3.2c.4 0 .6-.4.7-1.1v-.5c0-.7-.2-1.2-.6-1.6-.4-.4-.9-.5-1.6-.5-.5 0-1 .1-1.4.3-.4.2-.8.5-1 1-.3.4-.4.9-.5 1.5v.4c0 .7.2 1.2.6 1.6.4.4.9.6 1.6.6.3 0 .6 0 .8-.1.3-.1.5-.1.6-.2h.1s.1 0 .1.1l.3.3v.1s0 .1-.1.1c-.2.2-.6.3-.9.4-.4.1-.7.2-1.1.2-.5 0-1-.1-1.5-.4s-.8-.6-1.1-1c-.3-.5-.4-1-.4-1.6v-.5c.1-.7.3-1.3.7-1.8.4-.5.8-1 1.4-1.2.6-.3 1.2-.4 1.8-.4.8-.1 1.4 0 1.8.2zm-2 4.1c.1-.1.2-.2.2-.3.1-.1.1-.3.1-.6v-.4-.2c0-.1-.1-.2-.1-.3s-.2-.1-.3-.1c-.1 0-.2 0-.3.1-.1.1-.2.2-.2.3-.1.1-.1.3-.2.6v.5c0 .1.1.2.2.3s.2.1.3.1c.1.1.3.1.3 0zM57.4 140.4v-6.2c0-.1.1-.2.2-.2h1c.1 0 .2.1.2.2v6.2c0 .1-.1.2-.2.2h-1c-.1-.1-.2-.1-.2-.2zM63 139.1l.1-.1h.1l.5.5.1.1v.1c-.2.3-.5.5-.8.6-.3.1-.7.2-1.1.2-.6 0-1-.1-1.4-.4s-.6-.7-.8-1.2c-.1-.3-.1-.6-.1-.9 0-.4 0-.7.1-.9.1-.5.4-.8.8-1.1s.8-.4 1.3-.4c.6 0 1.1.2 1.5.5s.6.9.7 1.5c0 .2 0 .4.1.7 0 .1-.1.2-.2.2H61s-.1 0-.1.1 0 .2.1.3c.1.2.2.3.4.4.2.1.4.2.7.2.4 0 .7-.2.9-.4zm-1.7-2.2c-.1.1-.2.2-.3.4 0 .1 0 .2-.1.2v.1h1.6v-.2c-.1-.2-.2-.3-.3-.4-.1-.1-.3-.2-.5-.2-.1 0-.3 0-.4.1zM68.1 139.1l.1-.1h.1l.5.5.1.1v.1c-.2.3-.5.5-.8.6-.3.1-.7.2-1.1.2-.6 0-1-.1-1.4-.4s-.6-.7-.8-1.2c-.1-.3-.1-.6-.1-.9 0-.4 0-.7.1-.9.1-.5.4-.8.8-1.1s.8-.4 1.3-.4c.6 0 1.1.2 1.5.5s.6.9.7 1.5c0 .2 0 .4.1.7 0 .1-.1.2-.2.2h-2.9s-.1 0-.1.1 0 .2.1.3c.1.2.2.3.4.4.2.1.4.2.7.2.4 0 .7-.2.9-.4zm-1.7-2.2c-.1.1-.2.2-.3.4 0 .1 0 .2-.1.2v.1h1.6v-.2c-.1-.2-.2-.3-.3-.4-.1-.1-.3-.2-.5-.2-.1 0-.3 0-.4.1zM73 134h1c.1 0 .2.1.2.2v6.2c0 .1-.1.2-.2.2h-1c-.1 0-.2-.1-.2-.2v-.3c-.3.3-.6.5-1.1.5-.4 0-.8-.1-1.1-.4s-.6-.6-.7-1c-.1-.3-.2-.7-.2-1.1 0-.5.1-.8.2-1.2.1-.4.4-.7.7-1 .3-.2.7-.4 1.1-.4.5 0 .8.2 1.1.5v-1.9c0-.1.1-.1.2-.1zm-.2 4.1c0-.4-.1-.7-.2-1-.2-.2-.4-.4-.6-.4-.3 0-.5.1-.7.4-.1.2-.2.6-.2 1s.1.7.2.9c.1.3.4.4.7.4.3 0 .5-.1.6-.4.2-.2.2-.5.2-.9zM76 140.4c-.3-.1-.6-.3-.7-.5s-.3-.5-.3-.7c0-.1.1-.2.2-.2h.9c.1 0 .2 0 .2.1v.1c0 .1.1.3.2.4s.3.1.6.1c.2 0 .4 0 .5-.1s.2-.2.2-.3c0-.1-.1-.2-.2-.3s-.3-.1-.6-.2-.5-.2-.7-.2c-.4-.1-.7-.3-1-.5-.2-.2-.4-.5-.4-.9 0-.5.2-.8.5-1.1.4-.3.8-.4 1.4-.4.4 0 .7.1 1.1.2.3.1.5.3.7.5s.2.5.2.8v.1h-1c-.1 0-.2 0-.2-.1v-.1c0-.1-.1-.3-.2-.3-.1-.1-.3-.1-.6-.1-.2 0-.4 0-.5.1-.1.1-.2.2-.2.3 0 .1.1.2.2.3.1.1.3.1.6.2.2 0 .4.1.5.1.4.1.8.3 1.1.5.3.2.4.5.4.9 0 .5-.2.8-.6 1.1-.4.3-.9.4-1.5.4-.1 0-.5-.1-.8-.2zM81.2 140.6s-.2-.1-.5-.4-.6-.6-.8-1c-.1-.3-.2-.7-.2-1.1 0-.4.1-.8.2-1.1.1-.4.4-.8.8-1 .4-.2.8-.4 1.3-.4s.9.1 1.3.4c.4.2.6.6.8.9 0 .1.1.2.1.3 0 .1 0 .1-.1.1l-1 .1c-.1 0-.1 0-.1-.1v-.1c0-.2-.1-.3-.3-.4-.1-.1-.3-.2-.5-.2s-.4 0-.5.1-.2.2-.3.4c-.1.2-.1.4-.1.8 0 .3 0 .6.1.8.1.2.2.3.3.4.1.1.3.2.5.2s.4-.1.5-.2c.1-.1.2-.2.3-.4 0 0 0-.1.1-.1h.1l1 .1s.1 0 .1.1V139.1c-.1.4-.4.7-.8 1s-.8.4-1.3.4c-.7.1-1 .1-1 .1zM85.6 140.2c-.4-.3-.6-.6-.8-1.1-.1-.3-.1-.6-.1-1s0-.7.1-1c.1-.5.4-.8.8-1.1.4-.3.8-.4 1.4-.4.5 0 .9.1 1.3.4.4.3.6.6.8 1.1.1.3.1.6.1 1 0 .3 0 .6-.1.9-.1.5-.4.9-.8 1.1-.4.3-.8.4-1.3.4-.5.1-1 0-1.4-.3zm1.9-.9c.1-.1.2-.3.3-.5 0-.2.1-.4.1-.7 0-.3 0-.5-.1-.7-.1-.2-.2-.4-.3-.5-.1-.1-.3-.2-.5-.2s-.4.1-.5.2c-.1.1-.2.3-.3.5 0 .2-.1.4-.1.7 0 .3 0 .5.1.7.1.2.2.4.3.5.1.1.3.2.5.2s.4-.1.5-.2zM96.5 136.1c.3.3.4.7.4 1.2v3c0 .1-.1.2-.2.2h-1c-.1 0-.2-.1-.2-.2v-2.8c0-.3-.1-.5-.2-.6s-.3-.2-.5-.2-.4.1-.5.2-.2.3-.2.6v2.8c0 .1-.1.2-.2.2h-1c-.1 0-.2-.1-.2-.2v-2.8c0-.2-.1-.5-.2-.6-.1-.2-.3-.2-.5-.2s-.4.1-.5.2c-.1.1-.2.3-.2.5v2.9c0 .1-.1.2-.2.2h-1c-.1 0-.2-.1-.2-.2v-4.5c0-.1.1-.2.2-.2h1c.1 0 .2.1.2.2v.3c.3-.4.6-.6 1.2-.6.3 0 .6.1.8.2s.4.3.5.6c.1-.2.3-.4.6-.6.2-.1.5-.2.8-.2.7.1 1.1.3 1.3.6zM104.3 136.1c.3.3.4.7.4 1.2v3c0 .1-.1.2-.2.2h-1c-.1 0-.2-.1-.2-.2v-2.8c0-.3-.1-.5-.2-.6s-.3-.2-.5-.2-.4.1-.5.2-.2.3-.2.6v2.8c0 .1-.1.2-.2.2h-1c-.1 0-.2-.1-.2-.2v-2.8c0-.2-.1-.5-.2-.6-.1-.2-.3-.2-.5-.2s-.4.1-.5.2c-.1.1-.2.3-.2.5v2.9c0 .1-.1.2-.2.2h-1c-.1 0-.2-.1-.2-.2v-4.5c0-.1.1-.2.2-.2h1c.1 0 .2.1.2.2v.3c.3-.4.6-.6 1.2-.6.3 0 .6.1.8.2s.4.3.5.6c.1-.2.3-.4.6-.6.2-.1.5-.2.8-.2.7.1 1.1.3 1.3.6zM108.6 135.7h1c.1 0 .2.1.2.2v4.5c0 .1-.1.2-.2.2h-1c-.1 0-.2-.1-.2-.2v-.3c-.2.3-.6.5-1.2.5-.5 0-.9-.1-1.2-.4-.3-.3-.5-.7-.5-1.2v-3.1c0-.1.1-.2.2-.2h1c.1 0 .2.1.2.2v2.7c0 .2.1.5.2.6.1.2.3.2.6.2.2 0 .4-.1.5-.2.1-.1.2-.3.3-.5v-2.9s0-.1.1-.1zM114.5 136.1c.3.3.5.7.5 1.2v3c0 .1-.1.2-.2.2h-1c-.1 0-.2-.1-.2-.2v-2.7c0-.2-.1-.5-.2-.6-.1-.2-.3-.2-.6-.2s-.4.1-.6.2c-.1.2-.2.4-.2.6v2.7c0 .1-.1.2-.2.2h-1c-.1 0-.2-.1-.2-.2v-4.5c0-.1.1-.2.2-.2h1c.1 0 .2.1.2.2v.3c.3-.3.6-.5 1.1-.5.7 0 1.1.2 1.4.5zM116 135c-.1-.1-.2-.3-.2-.6 0-.2.1-.4.2-.6.1-.1.3-.2.6-.2.2 0 .4.1.6.2s.2.3.2.6c0 .2-.1.4-.2.6-.1.1-.3.2-.6.2-.2.1-.4 0-.6-.2zm0 5.4v-4.5c0-.1.1-.2.2-.2h1c.1 0 .2.1.2.2v4.5c0 .1-.1.2-.2.2h-1c-.2-.1-.2-.1-.2-.2zM120.9 136.8h-.8s-.1 0-.1.1v1.9c0 .2 0 .4.1.5.1.1.2.1.4.1h.3c.1 0 .2.1.2.2v.8c0 .1-.1.2-.2.2h-.5c-.5 0-.9-.1-1.2-.3-.3-.2-.4-.5-.4-1v-2.4s0-.1-.1-.1h-.5c-.1 0-.2-.1-.2-.2v-.7c0-.1.1-.2.2-.2h.5s.1 0 .1-.1v-1.1c0-.1.1-.2.2-.2h1c.1 0 .2.1.2.2v1.1s0 .1.1.1h.8c.1 0 .2.1.2.2v.7c-.1.1-.2.2-.3.2zM121.8 142.2v-.8c0-.1 0-.2.1-.2h.1c.4 0 .7 0 .8-.1s.3-.3.4-.6v-.1l-1.5-4.6v-.1-.1H122.9c.1 0 .1 0 .2.1l.8 2.8.7-2.8c0-.1.1-.1.2-.1h1.1c.1 0 .1 0 .1.1v.1l-1.6 4.8c-.2.5-.3.8-.5 1s-.4.4-.7.5c-.3.1-.7.2-1.2.2h-.1c-.1.1-.1 0-.1-.1zM130.3 136.1c.3.3.5.7.5 1.2v3c0 .1-.1.2-.2.2h-1c-.1 0-.2-.1-.2-.2v-2.7c0-.2-.1-.5-.2-.6-.1-.2-.3-.2-.6-.2s-.4.1-.6.2c-.1.2-.2.4-.2.6v2.7c0 .1-.1.2-.2.2h-1c-.1 0-.2-.1-.2-.2v-6.2c0-.1.1-.2.2-.2h1c.1 0 .2.1.2.2v2c.3-.3.6-.5 1.1-.5.7 0 1.1.2 1.4.5zM132.5 140.2c-.4-.3-.6-.6-.8-1.1-.1-.3-.1-.6-.1-1s0-.7.1-1c.1-.5.4-.8.8-1.1.4-.3.8-.4 1.4-.4.5 0 .9.1 1.3.4.4.3.6.6.8 1.1.1.3.1.6.1 1 0 .3 0 .6-.1.9-.1.5-.4.9-.8 1.1-.4.3-.8.4-1.3.4-.6.1-1 0-1.4-.3zm1.8-.9c.1-.1.2-.3.3-.5 0-.2.1-.4.1-.7 0-.3 0-.5-.1-.7-.1-.2-.2-.4-.3-.5-.1-.1-.3-.2-.5-.2s-.4.1-.5.2c-.1.1-.2.3-.3.5 0 .2-.1.4-.1.7 0 .3 0 .5.1.7.1.2.2.4.3.5.1.1.3.2.5.2s.4-.1.5-.2zM143.4 136.1c.3.3.4.7.4 1.2v3c0 .1-.1.2-.2.2h-1c-.1 0-.2-.1-.2-.2v-2.8c0-.3-.1-.5-.2-.6s-.3-.2-.5-.2-.4.1-.5.2-.2.3-.2.6v2.8c0 .1-.1.2-.2.2h-1c-.1 0-.2-.1-.2-.2v-2.8c0-.2-.1-.5-.2-.6-.1-.2-.3-.2-.5-.2s-.4.1-.5.2c-.1.1-.2.3-.2.5v2.9c0 .1-.1.2-.2.2h-1c-.1 0-.2-.1-.2-.2v-4.5c0-.1.1-.2.2-.2h1c.1 0 .2.1.2.2v.3c.3-.4.6-.6 1.2-.6.3 0 .6.1.8.2s.4.3.5.6c.1-.2.3-.4.6-.6.2-.1.5-.2.8-.2.6.1 1 .3 1.3.6zM148 139.1l.1-.1h.1l.5.5.1.1v.1c-.2.3-.5.5-.8.6-.3.1-.7.2-1.1.2-.6 0-1-.1-1.4-.4s-.6-.7-.8-1.2c-.1-.3-.1-.6-.1-.9 0-.4 0-.7.1-.9.1-.5.4-.8.8-1.1s.8-.4 1.3-.4c.6 0 1.1.2 1.5.5s.6.9.7 1.5c0 .2 0 .4.1.7 0 .1-.1.2-.2.2H146s-.1 0-.1.1 0 .2.1.3c.1.2.2.3.4.4.2.1.4.2.7.2.3 0 .7-.2.9-.4zm-1.7-2.2c-.1.1-.2.2-.3.4 0 .1 0 .2-.1.2v.1h1.6v-.2c-.1-.2-.2-.3-.3-.4-.1-.1-.3-.2-.5-.2-.1 0-.3 0-.4.1zM150.6 140.4c-.3-.1-.6-.3-.7-.5s-.3-.5-.3-.7c0-.1.1-.2.2-.2h.9c.1 0 .2 0 .2.1v.1c0 .1.1.3.2.4s.3.1.6.1c.2 0 .4 0 .5-.1s.2-.2.2-.3c0-.1-.1-.2-.2-.3s-.3-.1-.6-.2-.5-.2-.7-.2c-.4-.1-.7-.3-1-.5-.2-.2-.4-.5-.4-.9 0-.5.2-.8.5-1.1.4-.3.8-.4 1.4-.4.4 0 .7.1 1.1.2.3.1.5.3.7.5s.2.5.2.8v.1h-1c-.1 0-.2 0-.2-.1v-.1c0-.1-.1-.3-.2-.3-.1-.1-.3-.1-.6-.1-.2 0-.4 0-.5.1-.1.1-.2.2-.2.3 0 .1.1.2.2.3.1.1.3.1.6.2.2 0 .4.1.5.1.4.1.8.3 1.1.5.3.2.4.5.4.9 0 .5-.2.8-.6 1.1-.4.3-.9.4-1.5.4-.1 0-.4-.1-.8-.2zM154.7 140.3c-.2-.2-.2-.4-.2-.6 0-.2.1-.4.3-.6.2-.2.4-.2.6-.2.2 0 .4.1.6.2.2.2.3.3.3.6 0 .2-.1.4-.3.6-.2.2-.4.2-.6.2s-.6 0-.7-.2zM157.8 140.2c-.4-.3-.6-.6-.8-1.1-.1-.3-.1-.6-.1-1s0-.7.1-1c.1-.5.4-.8.8-1.1.4-.3.8-.4 1.4-.4.5 0 .9.1 1.3.4.4.3.6.6.8 1.1.1.3.1.6.1 1 0 .3 0 .6-.1.9-.1.5-.4.9-.8 1.1-.4.3-.8.4-1.3.4-.6.1-1 0-1.4-.3zm1.9-.9c.1-.1.2-.3.3-.5 0-.2.1-.4.1-.7 0-.3 0-.5-.1-.7-.1-.2-.2-.4-.3-.5-.1-.1-.3-.2-.5-.2s-.4.1-.5.2c-.1.1-.2.3-.3.5 0 .2-.1.4-.1.7 0 .3 0 .5.1.7.1.2.2.4.3.5.1.1.3.2.5.2.1 0 .3-.1.5-.2zM165.1 135.8c.1 0 .1.1.1.2l-.2 1c0 .1 0 .1-.1.1h-.4-.2c-.2 0-.4.1-.6.2-.2.1-.2.3-.2.6v2.5c0 .1-.1.2-.2.2h-1c-.1 0-.2-.1-.2-.2v-4.5c0-.1.1-.2.2-.2h1c.1 0 .2.1.2.2v.3c.2-.4.6-.5 1-.5.3 0 .5 0 .6.1zM168.9 135.7h1c.1 0 .2.1.2.2v4.2c0 .8-.2 1.4-.7 1.7-.5.3-1.1.5-1.8.5h-.7c-.1 0-.1-.1-.1-.2v-.9s0-.1.1-.1h.7c.4 0 .7-.1.9-.3.2-.2.3-.5.3-.8-.2.2-.6.4-1 .4s-.8-.1-1.1-.3-.6-.5-.7-.9c-.1-.3-.1-.7-.1-1.1 0-.5.1-.9.2-1.2.1-.4.4-.7.7-.9s.7-.3 1.1-.3c.5 0 .8.1 1.1.4v-.2c-.3-.1-.2-.2-.1-.2zm-.2 2.4v-.4c0-.1 0-.2-.1-.3-.1-.2-.1-.3-.3-.4-.1-.1-.3-.2-.5-.2s-.3.1-.5.2c-.1.1-.2.2-.3.4-.1.2-.1.4-.1.8 0 .3 0 .6.1.7.1.2.2.3.3.4.1.1.3.2.5.2s.4-.1.5-.2c.1-.1.2-.2.3-.4.1-.2.1-.5.1-.8zM171.1 140.3c-.2-.2-.2-.4-.2-.6 0-.2.1-.4.3-.6.2-.2.4-.2.6-.2.2 0 .4.1.6.2.2.2.3.3.3.6 0 .2-.1.4-.3.6-.2.2-.4.2-.6.2s-.5 0-.7-.2zM176.5 135.7h1c.1 0 .2.1.2.2v4.5c0 .1-.1.2-.2.2h-1c-.1 0-.2-.1-.2-.2v-.3c-.2.3-.6.5-1.2.5-.5 0-.9-.1-1.2-.4-.3-.3-.5-.7-.5-1.2v-3.1c0-.1.1-.2.2-.2h1c.1 0 .2.1.2.2v2.7c0 .2.1.5.2.6.1.2.3.2.6.2.2 0 .4-.1.5-.2.1-.1.2-.3.3-.5v-2.9c-.1 0 0-.1.1-.1zM178.6 140.4v-6.2c0-.1.1-.2.2-.2h1c.1 0 .2.1.2.2v3.1l1.2-1.4c.1-.1.1-.1.2-.1H182.6v.2l-1.1 1.4v.1l1.4 2.9v.1c0 .1 0 .1-.1.1h-1.1c-.1 0-.1 0-.2-.1l-.9-2.1h-.1l-.6.7V140.5c0 .1-.1.2-.2.2h-1c-.1-.2-.1-.2-.1-.3zM27 154.1c-.4-.4-.6-.9-.6-1.6V150c0-.6.2-1.2.6-1.5.4-.4.9-.6 1.6-.6.7 0 1.2.2 1.6.6.4.4.6.9.6 1.5v2.5c0 .7-.2 1.2-.6 1.6-.4.4-.9.6-1.6.6-.7-.1-1.2-.2-1.6-.6zm2.2-.8c.2-.2.2-.4.2-.7V150c0-.3-.1-.5-.2-.7-.2-.2-.4-.3-.7-.3-.3 0-.5.1-.7.3-.2.2-.2.4-.2.7v2.6c0 .3.1.5.2.7.2.2.4.3.7.3.4-.1.6-.2.7-.3zM32.3 154.5v-.1l2-5.2v-.1h-1.7s-.1 0-.1.1v.4c0 .1-.1.2-.2.2h-.8c-.1 0-.2-.1-.2-.2v-1.4c0-.1.1-.2.2-.2h4c.1 0 .2.1.2.2v1.1l-2 5.2c0 .1-.1.1-.2.1h-1.1c0-.1 0-.1-.1-.1zM37 154.5v-.1l2-5.2v-.1h-1.7s-.1 0-.1.1v.4c0 .1-.1.2-.2.2h-.8c-.1 0-.2-.1-.2-.2v-1.4c0-.1.1-.2.2-.2h4c.1 0 .2.1.2.2v1.1l-2 5.2c0 .1-.1.1-.2.1h-1.1l-.1-.1zM45.2 152.6c0 .4-.1.7-.2 1-.2.3-.4.6-.8.8-.3.2-.7.3-1.2.3-.4 0-.8-.1-1.2-.3s-.6-.4-.8-.8c-.1-.3-.2-.6-.2-.9 0-.3.1-.7.2-1 .1-.2.3-.4.5-.5v-.1c-.2-.1-.3-.3-.4-.5-.1-.2-.2-.5-.2-.9s.1-.7.3-1c.2-.3.4-.5.8-.6.3-.1.7-.2 1.1-.2.5 0 .8.1 1.2.3.3.2.6.4.8.7.1.3.2.6.2.9 0 .3-.1.6-.2.8-.1.2-.3.3-.4.5v.1c.2.1.4.3.5.6-.1.1 0 .5 0 .8zm-3-2.7c0 .2 0 .4.1.5l.3.3c.1.1.3.1.4.1.3 0 .6-.1.7-.4.1-.1.1-.3.1-.5s0-.3-.1-.4c-.1-.3-.4-.4-.8-.4-.2 0-.3 0-.4.1l-.3.3v.4zm1.7 2.6c0-.2 0-.3-.1-.5-.1-.1-.2-.3-.3-.3-.1-.1-.3-.1-.5-.1-.3 0-.6.2-.7.5-.1.1-.1.3-.1.5s0 .5.1.6c.1.2.4.4.7.4.3 0 .5-.1.7-.3.1-.3.2-.5.2-.8zM50.3 152.6c0 .4-.1.7-.2 1-.2.3-.4.6-.8.8-.3.2-.7.3-1.2.3-.4 0-.8-.1-1.2-.3s-.6-.4-.8-.8c-.1-.3-.2-.6-.2-.9 0-.3.1-.7.2-1 .1-.2.3-.4.5-.5v-.1c-.2-.1-.3-.3-.4-.5-.1-.2-.2-.5-.2-.9s.1-.7.3-1c.2-.3.4-.5.8-.6.3-.1.7-.2 1.1-.2.5 0 .8.1 1.2.3.3.2.6.4.8.7.1.3.2.6.2.9 0 .3-.1.6-.2.8-.1.2-.3.3-.4.5v.1c.2.1.4.3.5.6-.1.1 0 .5 0 .8zm-3-2.7c0 .2 0 .4.1.5l.3.3c.1.1.3.1.4.1.3 0 .6-.1.7-.4.1-.1.1-.3.1-.5s0-.3-.1-.4c-.1-.3-.4-.4-.8-.4-.2 0-.3 0-.4.1l-.3.3v.4zm1.6 2.6c0-.2 0-.3-.1-.5-.1-.1-.2-.3-.3-.3-.1-.1-.3-.1-.5-.1-.3 0-.6.2-.7.5-.1.1-.1.3-.1.5s0 .5.1.6c.1.2.4.4.7.4.3 0 .5-.1.7-.3.2-.3.2-.5.2-.8zM57.1 150.1v2.8c0 .3-.1.6-.3.9s-.4.5-.7.6c-.3.1-.7.2-1.1.2-.4 0-.8-.1-1.1-.2-.3-.1-.6-.3-.7-.6-.2-.3-.3-.5-.3-.9v-.2c0-.1.1-.2.2-.2h1c.1 0 .2 0 .2.1v.1c0 .2.1.4.2.5.1.1.3.2.5.2s.4-.1.6-.2c.1-.1.2-.3.2-.5v-.9c-.3.2-.6.3-1 .3s-.7-.1-1-.3c-.3-.2-.5-.4-.7-.7-.1-.3-.2-.6-.2-1.1 0-.4.1-.7.2-1 .2-.4.4-.7.8-.9s.7-.3 1.2-.3.9.1 1.2.3c.3.2.6.5.8.9-.1.5 0 .8 0 1.1zm-1.4 0c0-.2 0-.4-.1-.6-.1-.3-.4-.4-.7-.4-.3 0-.6.1-.7.4-.1.2-.1.4-.1.6 0 .2 0 .5.1.6.2.2.4.4.7.4.3 0 .6-.1.7-.4.1-.2.1-.4.1-.6zM62 150.1v2.8c0 .3-.1.6-.3.9s-.4.5-.7.6c-.3.1-.7.2-1.1.2-.4 0-.8-.1-1.1-.2-.3-.1-.6-.3-.7-.6-.2-.3-.3-.5-.3-.9v-.2c0-.1.1-.2.2-.2h1c.1 0 .2 0 .2.1v.1c0 .2.1.4.2.5.1.1.3.2.5.2s.4-.1.6-.2c.1-.1.2-.3.2-.5v-.9c-.3.2-.6.3-1 .3s-.7-.1-1-.3c-.3-.2-.5-.4-.7-.7-.1-.3-.2-.6-.2-1.1 0-.4.1-.7.2-1 .2-.4.4-.7.8-.9s.7-.3 1.2-.3.9.1 1.2.3c.3.2.6.5.8.9v1.1zm-1.3 0c0-.2 0-.4-.1-.6-.1-.3-.4-.4-.7-.4-.3 0-.6.1-.7.4-.1.2-.1.4-.1.6 0 .2 0 .5.1.6.2.2.4.4.7.4.3 0 .6-.1.7-.4.1-.2.1-.4.1-.6zM67.6 151.9v.9c0 .1-.1.2-.2.2h-.3s-.1 0-.1.1v1.5c0 .1-.1.2-.2.2h-1c-.1 0-.2-.1-.2-.2v-1.5s0-.1-.1-.1h-2.8c-.1 0-.2-.1-.2-.2v-.8-.2l1.7-3.7c0-.1.1-.1.2-.1h1.1c.1 0 .1 0 .1.1v.1l-1.5 3.4v.1h1.4s.1 0 .1-.1v-1.1c0-.1.1-.2.2-.2h1c.1 0 .2.1.2.2v1.1s0 .1.1.1h.3c.2 0 .2 0 .2.2zM72.8 152.5c0 .3 0 .6-.1.9-.1.4-.4.7-.8.9s-.8.4-1.3.4-.9-.1-1.2-.3-.6-.5-.8-.9c-.1-.1-.1-.3-.1-.5 0-.1 0-.1.1-.1h1c.1 0 .1 0 .2.1v.1c.1.2.1.3.3.4.1.1.3.1.5.1s.3 0 .4-.1l.3-.3c0-.1.1-.2.1-.2 0-.1.1-.3.1-.4 0-.2 0-.3-.1-.5 0-.2-.1-.3-.3-.4s-.3-.1-.5-.1-.3 0-.4.1c-.1.1-.2.1-.3.3 0 .1-.1.1-.2.1h-1.1c-.1 0-.2-.1-.2-.2v-3.6c0-.1.1-.2.2-.2h3.8c.1 0 .2.1.2.2v.8c0 .1-.1.2-.2.2h-2.6v1.4c.3-.2.6-.3 1-.3s.8.1 1.1.3c.3.2.6.5.7.9.2.3.2.6.2.9zM78.3 151.9v.9c0 .1-.1.2-.2.2h-.3s-.1 0-.1.1v1.5c0 .1-.1.2-.2.2h-1c-.1 0-.2-.1-.2-.2v-1.5s0-.1-.1-.1h-2.8c-.1 0-.2-.1-.2-.2v-.8-.2l1.7-3.7c0-.1.1-.1.2-.1h1.1c.1 0 .1 0 .1.1v.1l-1.5 3.4v.1h1.4s.1 0 .1-.1v-1.1c0-.1.1-.2.2-.2h1c.1 0 .2.1.2.2v1.1s0 .1.1.1h.3c.2 0 .2 0 .2.2zM83.5 152.5c0 .4-.1.7-.2 1-.2.4-.4.7-.8.9s-.7.3-1.2.3-.9-.1-1.2-.3c-.3-.2-.6-.5-.8-.9-.1-.3-.2-.6-.2-.9v-2.8c0-.3.1-.6.3-.9.2-.3.4-.5.7-.6.3-.1.7-.2 1.1-.2.4 0 .8.1 1.1.2s.6.3.7.6c.2.3.3.5.3.9v.2c0 .1-.1.2-.2.2h-1-.1v-.2c0-.2-.1-.4-.2-.5-.1-.1-.3-.2-.5-.2s-.4.1-.6.2c-.1.1-.2.3-.2.5v.9c.3-.2.6-.3 1-.3s.7.1 1 .3c.3.2.5.4.7.7.2.1.3.4.3.9zm-1.3 0c0-.2 0-.5-.1-.6-.2-.2-.4-.4-.7-.4-.3 0-.6.1-.7.4-.1.2-.1.4-.1.6 0 .2 0 .4.1.6.1.3.4.4.7.4.3 0 .6-.1.7-.4 0-.2.1-.4.1-.6z"/></g></svg>