<svg xmlns="http://www.w3.org/2000/svg" width="179.5" height="208.1" viewBox="0 0 179.5 208.1"><g stroke="#000" stroke-width="3.422" stroke-miterlimit="10"><path fill="#F0C125" d="M177.8 118.4c0 48.6-39.4 88-88 88s-88-39.4-88-88 39.4-88 88-88c48.6-.1 88 39.4 88 88"/><circle fill="none" cx="89.7" cy="118.4" r="88"/><path fill="#F0C125" d="M14.5 164.2h150.4"/><path fill="none" d="M14.5 164.2h150.4"/><path fill="#F0C125" d="M22.1 174.2h135.3"/><path fill="none" d="M22.1 174.2h135.3M31.6 184.2h116.3M45 194.2h89.4"/><path fill="none" stroke-linejoin="round" d="M174.4 139.4s-2.8-12.5-13.5-8c0-9.5-18.2-21.7-28.4-3.7 0 0-4.7-2.1-8.8-.5M54.9 117.9s-18.2-6.8-23.6 10.9c-7.7-5.3-21.5-2.8-27.9 7.8"/><path fill="#FFF" stroke-linejoin="round" d="M50.5 152.2H129v22.1H50.5z"/><path fill="#FFF" stroke-linejoin="round" d="M128.9 58.3v105.9H50.5V30.4L90 1.7l39 29z"/><g fill="#F0C125" stroke-linejoin="round"><path d="M69 40.3h13.3v19.3H69zM69 53.7h13.4"/><g><path d="M98 40.3h13.3v19.3H98zM98 53.7h13.3"/></g></g><g fill="#F0C125" stroke-linejoin="round"><path d="M69 115.6h13.3v19.3H69zM69 129.1h13.4"/></g><g fill="#F0C125" stroke-linejoin="round"><path d="M69 77.9h13.3v19.3H69zM69 91.4h13.4"/><g><path d="M98 77.9h13.3v19.3H98zM98 91.4h13.3"/></g></g><path fill="#F0C125" stroke-linejoin="round" d="M94.3 126.6h21.2v30.5H94.3zM94.3 157.1h21.2v7.2H94.3z"/></g></svg>