<svg xmlns="http://www.w3.org/2000/svg" width="179.5" height="212.3" viewBox="0 0 179.5 212.3"><g stroke-width="3.422" stroke-miterlimit="10"><circle fill="#F0C125" stroke="#000" cx="89.7" cy="122.5" r="88"/><path fill="none" stroke="#231F20" stroke-linejoin="round" d="M177.7 140.2c-12.7-11.9-24.3-8.8-32.9 2.4 0 0-10.4-34.6-37.8-10.7l.8 10.9c-.1-24.9-47.4-56.6-73.9-9.6 0 0-22.7-15.3-29.4 11.3"/><path fill="#F0C125" stroke="#000" d="M14.5 168.3h150.4M22.4 178.3h135.3M31.3 188.3h116.3M45 198.3h89.4"/><path fill="#FFF" stroke="#000" d="M142 177.7l-7-9.4-10.1 2.1-3 7.3h-12.5c-.2-1-.2-2.1-.2-3.1l1.3-17.7c-1.5-3.2-3.6-8-3.6-8L61.1 56.5c-1.3-2.2-3.5-4.4-7.8-5.3-8.3 0-13.3-3.3-16.2-7.8L34 20v-.2l11.5 15.4 11.1-2.3 4.1-9.9L49.3 7s12.9 0 21.8 11.6c2.2 2.9 2.9 6.3 2.8 9.7l-2.2 19.9h0c.5 1.3 1 2.7 1.6 3.8l48.2 97.3c1.3 1.9 3.2 3.8 6.3 4.5 7.6 0 12 3 14.7 7l2.3 16.8H142z"/><g fill="#FFF" stroke="#000" stroke-linejoin="round"><path d="M113.05 36.149l8.82 4.035-21.008 45.924-8.82-4.035z" stroke-width="3.42210266"/><path d="M44.8 177.7l44.3-97 14.8 6.8-41.3 90.2z"/><path d="M88.142 1.695l11.64 5.324-8.694 19.007-11.64-5.325z" stroke-width="3.42210266"/><path d="M91 26.1s3.5-3.6 10.3-.5c7.6 3.5 6.4 8.1 6.4 8.1l.2.1.1 13.6 8.8 4 10.4-9.1s1.4-3.1 4.4-6.2c8.7-3.8 29.3 17.5 29.3 17.5s.1-3.2-7.3-12.7c-5.5-7-12.3-14.8-12.3-14.8l-24.8-11.4s-2.7 3.7-10.3.3c-6.8-3.2-6.5-8-6.5-8l-5 11h0L91 26.1z"/></g></g></svg>