<svg xmlns="http://www.w3.org/2000/svg" width="422" height="651.3" viewBox="0 0 422 651.3"><path fill="#EDC023" d="M354 131.3v-3.7c0-27.6 2.8-55.2 2.6-82.8 0-2.2.3-4.9-1.2-6.5-11.6-12.1-22.7-24-34.6-35.8-1.5-1.4-3.6-2.5-5.7-2.5-70.2 0-140.3 0-210.5.1-2 0-4.5 1.1-5.9 2.5-11.9 12-23.6 24.2-35.3 36.4-1.3 1.4-3.8 3.8-3.8 5.7-.1 27.6-1.6 55.2-1.6 82.8v3.8H0v520h422v-520h-68zm-36 0H101v-91h217v91z"/><g fill="#FFF"><path d="M63 529.2v1.7c0 .5-.3.8-.8.8H50.9c-.6 0-.9-.3-.9-.8v-17.7c0-.5.3-.8.9-.8h2c.5 0 .8.3.8.8v15.1h8.4c.6 0 .9.3.9.9zM76.4 524.8v.4c0 .5-.3.8-.8.8h-8.3c.3 2 1.5 3 3.7 3 1.4 0 2.7-.4 3.5-.8.5-.2.8-.1 1 .4l.4 1.3c.1.4.1.8-.3 1-1 .5-2.7 1.1-4.9 1.1-4.6 0-6.9-2.7-6.9-7 0-3.9 2.5-6.7 6.4-6.7 4.1.1 6.2 2.9 6.2 6.5zm-9.1-.9h5.4c-.1-1.9-1.1-2.7-2.5-2.7s-2.6.8-2.9 2.7zM91 524.8v.4c0 .5-.3.8-.8.8h-8.3c.3 2 1.5 3 3.7 3 1.5 0 2.7-.4 3.5-.8.5-.2.8-.1 1 .4l.4 1.3c.1.4.1.8-.3 1-1 .5-2.7 1.1-4.9 1.1-4.6 0-7-2.7-7-7 0-3.9 2.5-6.7 6.4-6.7 4.2.1 6.3 2.9 6.3 6.5zm-9-.9h5.4c-.1-1.9-1.1-2.7-2.5-2.7-1.5 0-2.6.8-2.9 2.7zM108 529.9v1.2c0 .5-.2.9-.8.9-.3 0-.7.1-1.1.1-1.2 0-2.4-.4-3-1.9-1 1.2-2.4 2-4.4 2-3.1 0-5.6-2.3-5.6-6.7s2.6-7 6.4-7c1.4 0 2.5.3 3.2.6v-5.7c0-.5.3-.8.8-.8h1.9c.6 0 .8.3.8.8v15.7c.2 0 .5.1.7.1.8-.1 1.1.1 1.1.7zm-5.3-4.2v-3.5c-.6-.4-1.5-.8-2.8-.8-1.9 0-3.2 1.3-3.2 4 0 2.6 1.2 3.7 2.8 3.7 1.7-.1 3.2-1.4 3.2-3.4zM110 531.1c-.4-.2-.6-.6-.5-1.1l.2-1.2c.1-.6.5-.8 1-.5 1 .5 2.6 1 4.3 1 1.9 0 2.5-.4 2.5-1.3 0-2.4-8.2-.3-8.2-5.5 0-2.5 1.7-4.1 5.6-4.1 3.3 0 5.4 1 5.9 3 .1.4-.2.7-.7.8l-1.8.2c-.6.1-.9-.2-1.1-.6-.4-.6-1.1-.9-2.1-.9-1.4 0-2.2.5-2.2 1.4 0 2.8 8.3.3 8.3 5.7 0 2.4-1.7 4-6 4-2.3.1-3.9-.3-5.2-.9zM130.9 522.2c0-6.7 3.6-10.1 8.9-10.1 4.9 0 7.5 2.2 7.8 5.6.1.5-.2.8-.8.9l-2.1.3c-.5.1-.8-.2-.9-.7-.4-1.9-1.7-2.8-4-2.8-2.9 0-5 2-5 6.6 0 4.3 2.4 6.6 6.4 6.6 2.1 0 3.4-.5 4.5-1.1.5-.2 1-.1 1.2.6l.4 1.6c.1.5 0 .8-.4 1.1-1.3.7-3.4 1.3-6.3 1.3-6.1 0-9.7-3.6-9.7-9.9zM148.5 525.3c0-4.4 2.8-6.9 6.9-6.9 4.1 0 6.9 2.5 6.9 6.9 0 4.3-2.8 6.8-6.9 6.8-4.1 0-6.9-2.5-6.9-6.8zm10.1 0c0-2.4-1.1-3.9-3.2-3.9s-3.2 1.5-3.2 3.9 1.1 3.8 3.2 3.8c2.1-.1 3.2-1.5 3.2-3.8zM187.5 529.9v1.2c0 .6-.2.9-.8.9-.3.1-.8.1-1.3.1-2.1 0-3.1-.5-3.1-2.8v-4.8c0-1.9-.6-2.8-2.3-2.8-1.4 0-2.6 1.1-2.6 2.8v6.6c0 .5-.3.8-.9.8h-1.9c-.5 0-.8-.3-.8-.8v-6.5c0-2-.7-2.9-2.3-2.9-1.5 0-2.6 1.2-2.6 2.8v6.6c0 .5-.3.8-.8.8h-2c-.6 0-.8-.3-.8-.8v-9.2c-.2-.1-.5-.1-.8-.1-.4 0-.7-.3-.7-.8v-1.2c0-.5.2-.8.7-.9.3-.1.7-.2 1.1-.2 1.5 0 2.5.6 3 2 .9-1.2 2.2-2 4-2 2.1 0 3.5.9 4.2 2.5.9-1.5 2.4-2.5 4.3-2.5 3.2 0 4.8 2.1 4.8 5.6v4.9c.2.1.4.1.7.1.6-.2.9 0 .9.6zM211.9 529.9v1.2c0 .6-.2.9-.8.9-.3.1-.8.1-1.3.1-2.1 0-3.1-.5-3.1-2.8v-4.8c0-1.9-.6-2.8-2.3-2.8-1.5 0-2.6 1.1-2.6 2.8v6.6c0 .5-.3.8-.8.8h-2c-.5 0-.8-.3-.8-.8v-6.5c0-2-.6-2.9-2.3-2.9-1.5 0-2.6 1.2-2.6 2.8v6.6c0 .5-.3.8-.8.8h-2c-.5 0-.8-.3-.8-.8v-9.2c-.2-.1-.5-.1-.8-.1-.4 0-.7-.3-.7-.8v-1.2c0-.5.2-.8.7-.9.3-.1.7-.2 1.1-.2 1.5 0 2.5.6 3 2 .9-1.2 2.2-2 4-2 2.1 0 3.5.9 4.2 2.5.9-1.5 2.4-2.5 4.3-2.5 3.2 0 4.8 2.1 4.8 5.6v4.9c.2.1.4.1.7.1.6-.2.9 0 .9.6zM228.3 529.8v1.2c0 .5-.3.9-.8.9-.3 0-.6.1-1.1.1-1.4 0-2.6-.5-3.1-2-1.1 1.4-2.6 2.1-4.7 2.1-2.9 0-4.6-1.2-4.6-5.4v-5c-.2-.1-.5-.1-.8-.1-.4 0-.7-.3-.7-.8v-1.2c0-.5.3-.8.7-.9.4-.1.8-.1 1.3-.1 1.8 0 3 .5 3 2.8v4.7c0 2.1.7 2.9 2.2 2.9 1.9 0 3.1-1.4 3.1-3.6v-5.8c0-.5.3-.8.8-.8h2c.5 0 .8.3.8.8v9.4c.2 0 .4.1.7.1.9 0 1.3.2 1.2.7zM244.9 529.8v1.2c0 .5-.3.8-.8.9-.4 0-.8.1-1.4.1-2 0-3.1-.6-3.1-2.8v-4.7c0-2.1-.8-3-2.5-3s-2.9 1.3-2.9 3v6.4c0 .5-.3.8-.8.8h-2c-.5 0-.8-.3-.8-.8v-9.2c-.2-.1-.5-.1-.8-.1-.4 0-.7-.3-.6-.8v-1.2c0-.5.2-.8.7-.9.3-.1.7-.2 1.1-.2 1.5 0 2.6.6 3 2 1-1.2 2.4-2 4.4-2 3.4 0 4.9 2.1 4.9 5.6v4.9c.2 0 .4.1.7.1.6-.1.9.2.9.7zM246.9 514.5c0-1.3 1-2.2 2.3-2.2 1.4 0 2.3.9 2.3 2.2 0 1.4-.9 2.3-2.3 2.3-1.3-.1-2.3-1-2.3-2.3zm.5 15.1v-10.1c0-.5.3-.8.8-.8h1.9c.6 0 .8.3.8.8v9.4c.2 0 .4.1.7.1.6.1 1 .3.9.9v1.2c0 .5-.3.8-.8.9-.4.1-1 .1-1.7.1-1.8-.1-2.6-.7-2.6-2.5zM262.8 519.5v1.3c0 .5-.3.8-.8.8h-2.8v5.8c0 1.1.4 1.4 1.3 1.4.4 0 .8 0 1.1-.1.5-.1.8.1.8.7l.1 1.4c0 .5-.2.8-.7.9-.6.1-1.5.2-2.5.2-2.7 0-3.8-.9-3.8-4.1v-6.3h-1.6c-.6 0-.8-.3-.8-.8v-1.3c0-.5.3-.8.8-.8h1.6v-3c0-.5.3-.8.8-.8h2c.5 0 .8.3.8.8v3h2.8c.6.1.9.3.9.9z"/><path d="M277.2 519.7l-6 13.9c-1.1 2.7-2.9 3.4-5.2 3.4-.5 0-1 0-1.3-.1-.5-.1-.7-.4-.8-.9l-.1-1.4c-.1-.6.3-.9.8-.8.3.1.7.1 1 .1 1.4 0 2.2-.5 2.7-1.6l.3-.7-4.4-9.9c-.2-.1-.5-.1-.7-.1-.5 0-.7-.3-.7-.9v-1.2c0-.5.2-.8.7-.9.4-.1.8-.1 1.2-.1 1.3 0 2.2.5 2.6 1.7l2.9 7.2 3.3-8.2c.2-.5.5-.7 1-.6l2 .2c.7-.1 1 .3.7.9zM306.1 529.5v1.5c0 .5-.3.8-.8.9-.5 0-1.1.1-1.6.1-2 0-3.2-.5-3.2-3.1V524h-9.1v6.9c0 .5-.3.8-.8.8h-2c-.6 0-.9-.3-.9-.8v-17.7c0-.5.3-.8.9-.8h2c.5 0 .8.3.8.8v7.4h9.1v-7.4c0-.5.3-.8.8-.8h2c.6 0 .8.3.8.8v15.3c.2.1.6.1.9.2.9.1 1.1.3 1.1.8zM308 525.3c0-4.4 2.8-6.9 6.9-6.9 4.1 0 6.9 2.5 6.9 6.9 0 4.3-2.8 6.8-6.9 6.8-4.1 0-6.9-2.5-6.9-6.8zm10.1 0c0-2.4-1.1-3.9-3.2-3.9s-3.2 1.5-3.2 3.9 1.1 3.8 3.2 3.8c2.1-.1 3.2-1.5 3.2-3.8zM347 529.9v1.2c0 .6-.2.9-.8.9-.3.1-.8.1-1.3.1-2.1 0-3.1-.5-3.1-2.8v-4.8c0-1.9-.6-2.8-2.3-2.8-1.4 0-2.6 1.1-2.6 2.8v6.6c0 .5-.3.8-.8.8h-1.9c-.5 0-.8-.3-.8-.8v-6.5c0-2-.7-2.9-2.3-2.9-1.5 0-2.6 1.2-2.6 2.8v6.6c0 .5-.3.8-.8.8h-2c-.6 0-.8-.3-.8-.8v-9.2c-.2-.1-.5-.1-.8-.1-.4 0-.7-.3-.6-.8v-1.2c0-.5.2-.8.7-.9.3-.1.7-.2 1.1-.2 1.5 0 2.5.6 3 2 .9-1.2 2.2-2 3.9-2 2.1 0 3.5.9 4.2 2.5.9-1.5 2.4-2.5 4.3-2.5 3.2 0 4.8 2.1 4.8 5.6v4.9c.2.1.4.1.7.1.5-.2.8 0 .8.6zM360.9 524.8v.4c0 .5-.3.8-.8.8h-8.3c.3 2 1.5 3 3.7 3 1.4 0 2.7-.4 3.5-.8.5-.2.8-.1 1 .4l.4 1.3c.1.4.1.8-.3 1-1 .5-2.7 1.1-4.9 1.1-4.6 0-7-2.7-7-7 0-3.9 2.5-6.7 6.4-6.7 4.2.1 6.3 2.9 6.3 6.5zm-9.1-.9h5.4c-.1-1.9-1.1-2.7-2.5-2.7-1.5 0-2.6.8-2.9 2.7zM363.2 531.1c-.4-.2-.6-.6-.5-1.1l.2-1.2c.1-.6.5-.8 1-.5 1 .5 2.6 1 4.3 1 1.8 0 2.5-.4 2.5-1.3 0-2.4-8.2-.3-8.2-5.5 0-2.5 1.7-4.1 5.6-4.1 3.3 0 5.4 1 5.9 3 .1.4-.2.7-.7.8l-1.8.2c-.6.1-.9-.2-1.1-.6-.4-.6-1.1-.9-2.1-.9-1.5 0-2.2.5-2.2 1.4 0 2.8 8.3.3 8.3 5.7 0 2.4-1.7 4-6 4-2.2.1-3.9-.3-5.2-.9z"/></g><g fill="#FFF"><path d="M89.2 302.5l-.9 6h4v10.6h-5.7l-1.9 11.6H72.8l1.9-11.6h-6.2l-1.9 11.6h-12l1.9-11.6h-4v-10.6h5.7l.9-6h-4v-10.6h5.7l1.6-10.5h11.9l-1.6 10.5h6.2l1.6-10.5h11.9l-1.6 10.5h4v10.6h-5.6zm-18.2 0l-.9 6h6.2l.9-6H71zM125.8 313.3h-7.3v17.4h-12v-48.8h19.3c10.8 0 16.7 7.7 16.7 15.7 0 8.1-5.9 15.7-16.7 15.7zm-.6-20.6h-6.8v9.9h6.8c3.3 0 5.2-2.4 5.2-4.9.1-2.6-1.9-5-5.2-5zM152.9 330.8V282h33.2v10.7h-21.2v8.2H183v10.7h-18.1v8.6h21.2v10.7h-33.2zM228.7 325.7c-3.6 3.6-7.7 5.5-13.7 5.5-6 0-10.1-1.9-13.7-5.5-5.1-5.1-4.9-12-4.9-19.3 0-7.3-.2-14.2 4.9-19.3 3.6-3.6 7.7-5.5 13.7-5.5 6 0 10.1 1.9 13.7 5.5 5.1 5.1 4.9 12 4.9 19.3 0 7.3.3 14.2-4.9 19.3zm-8.8-31.4c-.9-1.2-2.6-2.1-4.8-2.1-2.2 0-3.9 1-4.8 2.1-1.1 1.4-1.8 3.1-1.8 12s.7 10.5 1.8 11.9c.9 1.2 2.6 2.2 4.8 2.2 2.2 0 3.9-1 4.8-2.2 1.1-1.4 1.8-3 1.8-11.9-.1-8.9-.7-10.5-1.8-12zM264.7 313.3h-7.3v17.4h-12v-48.8h19.3c10.8 0 16.7 7.7 16.7 15.7 0 8.1-5.8 15.7-16.7 15.7zm-.5-20.6h-6.8v9.9h6.8c3.3 0 5.2-2.4 5.2-4.9 0-2.6-1.9-5-5.2-5zM291.8 330.8V282h12v38.1h20.5v10.7h-32.5zM334.8 330.8V282H368v10.7h-21.2v8.2h18.1v10.7h-18.1v8.6H368v10.7h-33.2zM63.7 382h-7.3v17.4h-12v-48.8h19.3c10.8 0 16.7 7.7 16.7 15.7 0 8-5.8 15.7-16.7 15.7zm-.5-20.7h-6.8v9.9h6.8c3.3 0 5.2-2.4 5.2-4.9 0-2.6-1.9-5-5.2-5zM121.5 394.3c-3.6 3.6-7.7 5.5-13.7 5.5-6 0-10.1-1.9-13.7-5.5-5.1-5.1-4.9-12-4.9-19.3 0-7.3-.2-14.2 4.9-19.3 3.6-3.6 7.7-5.5 13.7-5.5 6 0 10.1 1.9 13.7 5.5 5.1 5.1 4.9 12 4.9 19.3 0 7.3.3 14.2-4.9 19.3zm-8.8-31.3c-.9-1.2-2.6-2.1-4.8-2.1s-3.9 1-4.8 2.1c-1.1 1.4-1.8 3.1-1.8 12s.7 10.5 1.8 11.9c.9 1.2 2.6 2.2 4.8 2.2s3.9-1 4.8-2.2c1.1-1.4 1.8-3 1.8-11.9-.1-9-.7-10.6-1.8-12zM181.3 399.4h-9.8l-7.9-24.1-7.9 24.1H146l-13.4-48.8h12.6l6.4 25.8 7.9-25.8h8.5l7.9 25.8 6.4-25.8h12.6l-13.6 48.8zM203.1 399.4v-48.8h33.2v10.7h-21.2v8.2h18.1v10.7h-18.1v8.6h21.2v10.7h-33.2zM272.9 399.4l-8.6-18.2h-4v18.2h-12v-48.8h19.3c10.8 0 16.7 7.7 16.7 15.7 0 6.7-4.1 10.8-8 12.8l10.6 20.4h-14zm-5.9-38.1h-6.8v9.9h6.8c3.3 0 5.2-2.4 5.2-4.9 0-2.6-1.9-5-5.2-5zM296.4 399.4v-48.8h33.2v10.7h-21.2v8.2h18.1v10.7h-18.1v8.6h21.2v10.7h-33.2zM372.8 394.6c-3.4 3.4-8.1 4.8-13.2 4.8h-18.1v-48.8h18.1c5.1 0 9.8 1.4 13.2 4.8 5.7 5.7 5.1 11.9 5.1 19.6 0 7.6.6 13.9-5.1 19.6zm-8.2-30.6c-1.1-1.6-2.7-2.7-5.8-2.7h-5.3v27.4h5.3c3 0 4.7-1.1 5.8-2.7 1-1.4 1.3-2.7 1.3-11s-.3-9.6-1.3-11zM119 468v-19.3h-12.8V468h-12v-48.8h12V438H119v-18.8h12V468h-12zM175 462.9c-3.6 3.6-7.7 5.5-13.7 5.5-6 0-10.1-1.9-13.7-5.5-5.1-5.1-4.9-12-4.9-19.3 0-7.3-.2-14.2 4.9-19.3 3.6-3.6 7.7-5.5 13.7-5.5 6 0 10.1 1.9 13.7 5.5 5.1 5.1 4.9 12 4.9 19.3 0 7.3.2 14.2-4.9 19.3zm-8.9-31.3c-.9-1.2-2.6-2.1-4.8-2.1-2.2 0-3.9 1-4.8 2.1-1.1 1.4-1.8 3.1-1.8 12s.7 10.5 1.8 11.9c.9 1.2 2.6 2.2 4.8 2.2 2.2 0 3.9-1 4.8-2.2 1.1-1.4 1.8-3 1.8-11.9 0-9-.7-10.6-1.8-12zM225.2 468v-23.4l-6.9 12.1h-7.7l-6.9-12.1V468h-12v-48.8h11.8l11 21.5 11-21.5h11.8V468h-12.1zM250.5 468v-48.8h33.2v10.7h-21.2v8.2h18.1v10.7h-18.1v8.6h21.2V468h-33.2zM309.6 468.4c-7.5 0-13.6-1.4-18.5-6.4l7.7-7.7c2.5 2.5 7 3.4 10.9 3.4 4.7 0 7-1.6 7-4.4 0-1.2-.3-2.1-1-2.9-.6-.6-1.6-1.1-3.2-1.3l-5.9-.8c-4.3-.6-7.6-2.1-9.8-4.3-2.3-2.3-3.4-5.6-3.4-9.8 0-8.9 6.7-15.4 17.8-15.4 7 0 12.3 1.6 16.5 5.8l-7.5 7.5c-3.1-3.1-7.1-2.9-9.3-2.9-4.2 0-5.9 2.4-5.9 4.5 0 .6.2 1.5 1 2.3.6.6 1.6 1.2 3.4 1.4l5.9.8c4.4.6 7.5 2 9.6 4 2.6 2.5 3.6 6.2 3.6 10.7 0 10.1-8.6 15.5-18.9 15.5z"/></g></svg>