<svg xmlns="http://www.w3.org/2000/svg" xmlns:xlink="http://www.w3.org/1999/xlink" width="386.9" height="449" viewBox="0 0 386.9 449"><defs><path id="a" d="M0 0h386.9v449H0z"/></defs><clipPath id="b"><use xlink:href="#a" overflow="visible"/></clipPath><path clip-path="url(#b)" fill="#F27968" d="M44.3 12.2c0-1.7 7.2-10.9 8.9-10.9L64 9.5c2 0 2.8 1 2.8 2.6l8.4 104.1c0 1.7-9.2 8.9-11.2 8.9H47c-1.6 0-2.6-1-2.6-2.6v-44H23.2l8.2 37.6c0 1.7-9.1 8.9-10.8 8.9h-17c-2 0-2.8-1-2.8-2.6V12.2c0-1.7 5.9-9.3 8.3-10.6l11.5 7.9c1.7 0 2.6 1 2.6 2.6v44.6h21.1V12.2z"/><path clip-path="url(#b)" fill="#FFF" d="M22.3 77.8H45v44.6c0 1.3.7 1.9 1.9 1.9h17c1.6 0 10.2-6.7 10.5-8.2L66 12.1c0-1.4-.6-2-2.1-2h-.2L53 2c-1.6.8-7.9 8.7-8 10.2v45.3H22.5V12.2c0-1.3-.7-1.9-1.9-1.9h-.2L9 2.4C6.5 4.1 1.5 11 1.5 12.1v110.3c0 1.4.6 1.9 2.1 1.9h17c1.5-.1 9.6-6.7 10.1-8.2l-8.4-38.3zm41.7 48H47c-2 0-3.4-1.3-3.4-3.4V79.3H24.1l8 36.9c0 2.1-9.6 9.6-11.5 9.6h-17c-2.3 0-3.5-1.2-3.5-3.4V12.2c0-2 6.1-9.9 8.7-11.2l.4-.2 11.7 8c1.9.1 3.1 1.4 3.1 3.3V56h19.7V12.2c0-2 7.4-11.6 9.6-11.6h.2l10.8 8.3c2.1.1 3.3 1.3 3.3 3.4l8.4 104c-.1 2.2-9.9 9.5-12 9.5"/><path clip-path="url(#b)" fill="#F27968" d="M157.8 22c0 1.7-9.3 9.5-11.3 9.5h-40.8v25.4h31c1.7 0 2.6 1 2.6 2.8l8.8 9.4c0 1.8-9.7 9.7-11.4 9.7h-31v24.4h40.8c2 0 2.6.8 2.6 2.6l8.2 10.3c0 1.7-8.9 8.9-10.8 8.9H85.8c-1.5 0-2.5-1-2.5-2.6V12.2c0-1.7 7-10.6 8.5-10.6l54.7 7.9c2 0 2.6 1 2.6 2.6l8.7 9.9z"/><path clip-path="url(#b)" fill="#FFF" d="M91.8 2.3c-1.3.4-7.7 8.4-7.8 9.8v110.3c0 1.2.6 1.9 1.8 1.9h60.8c1.6 0 9.2-6.2 10.1-8l-8.1-10.2v-.1c0-1.5-.4-1.9-1.9-1.9H105V78.2h31.8c1.6-.1 9.7-7 10.6-8.8l-8.7-9.3v-.3c0-1.4-.6-2.1-1.9-2.1H105V30.8h41.5c1.5 0 9.6-6.7 10.5-8.6l-8.6-9.7v-.3c0-1.4-.5-1.9-1.9-1.9h-.1l-54.6-8zm54.7 123.5H85.8c-1.9 0-3.2-1.3-3.2-3.4V12.2c0-1.9 7.2-11.3 9.2-11.3h.1l54.7 7.9c2.1 0 3.2 1.1 3.3 3.1l8.6 9.8v.3c0 2.3-10 10.2-12 10.2h-40.1v24h30.3c2 0 3.2 1.2 3.3 3.2l8.8 9.4v.3c0 1.4-2.9 4.1-5.3 6.1-.9.7-5.3 4.3-6.8 4.3h-30.3v23h40.1c2.2 0 3.3 1 3.3 3.1l8.2 10.3v.2c.1 2.4-9.4 9.7-11.5 9.7"/><path clip-path="url(#b)" fill="#F27968" d="M188.1 103.3h32.7c1.8 0 2.6 1 2.6 2.6l8.3 10.1c0 1.8-9.1 9-10.9 9h-52.5c-1.7 0-2.6-.8-2.6-2.6V12.2c0-1.7 6.7-10.6 8.3-10.6l11.5 7.9c1.8 0 2.6 1 2.6 2.6v91.2z"/><path clip-path="url(#b)" fill="#FFF" d="M173.9 2.4c-1.5.7-7.4 8.4-7.5 9.8v110.3c0 1.3.6 1.9 1.9 1.9h52.5c1.6 0 9.4-6.4 10.1-8.2l-8.2-10v-.2c0-1.3-.6-1.9-1.9-1.9h-33.4V12.2c0-1.3-.6-1.9-1.9-1.9h-.2l-11.4-7.9zm46.9 123.4h-52.5c-2.1 0-3.4-1.2-3.4-3.4V12.2c0-2 6.9-11.3 9-11.3h.2l11.5 7.9c2 .1 3.1 1.3 3.1 3.4v90.4h32c2 0 3.2 1.1 3.3 3.1l8.3 10.1v.3c.1 2.2-9.4 9.7-11.5 9.7"/><path clip-path="url(#b)" fill="#F27968" d="M262.4 103.3h32.7c1.8 0 2.6 1 2.6 2.6l8.4 10.5c0 1.8-9.2 8.6-11 8.6h-52.5c-1.6 0-2.6-.8-2.6-2.6V12.2c0-1.7 7.3-11.1 9-11.1l10.8 8.5c1.8 0 2.6 1 2.6 2.6v91.1z"/><path clip-path="url(#b)" fill="#FFF" d="M248.8 1.8c-1.7.8-8 8.8-8.1 10.3v110.3c0 1.3.6 1.9 1.9 1.9h52.5c1.6 0 9.5-6 10.3-7.7l-8.3-10.5v-.1c0-1.3-.6-1.9-1.9-1.9h-33.4V12.2c0-1.3-.6-1.9-1.9-1.9h-.2l-10.9-8.5zm46.3 124h-52.5c-2.1 0-3.4-1.2-3.4-3.4V12.2c0-2 7.5-11.8 9.7-11.8h.2L260 8.9c2 .1 3.1 1.3 3.1 3.3v90.4h32c2 0 3.3 1.1 3.3 3.1l8.4 10.5v.2c.1 2.5-9.8 9.4-11.7 9.4"/><path clip-path="url(#b)" fill="#F27968" d="M348 103.8c4.3 0 6.6-2.1 6.6-6.6V37.4c0-4.3-2.3-6.6-6.6-6.6h-10.6c-4.3 0-6.6 2.3-6.6 6.6v59.8c0 4.5 2.3 6.6 6.6 6.6H348zm-38.7-70.5c0-15.5 12.6-32.2 28.1-32.2l14.2 8.5c15.5 0 23.8 8.3 23.8 23.8l7.9 65.8c0 15.5-16.2 26-31.7 26h-18.5c-15.5 0-23.8-8.3-23.8-23.8V33.3z"/><path clip-path="url(#b)" fill="#FFF" d="M337.4 31.5c-3.9 0-5.9 2-5.9 5.9v59.8c0 4 1.9 5.9 5.9 5.9H348c4 0 5.9-1.9 5.9-5.9V37.4c0-3.9-2-5.9-5.9-5.9h-10.6zm10.6 73h-10.6c-4.8 0-7.3-2.5-7.3-7.3V37.4c0-4.7 2.6-7.3 7.3-7.3H348c4.7 0 7.3 2.6 7.3 7.3v59.8c0 4.8-2.5 7.3-7.3 7.3M337.3 1.8c-15.3.1-27.2 17-27.2 31.5v68c0 15.1 8 23.1 23.1 23.1h18.5c15 0 31-10.2 31-25.3l-7.9-65.7c0-15.2-8-23.2-23.1-23.2h-.2l-14.2-8.4zm14.3 124h-18.5c-16 0-24.5-8.5-24.5-24.5v-68c0-15.2 12.6-32.9 28.8-32.9h.2l14.2 8.5c15.9.1 24.3 8.5 24.3 24.5L384 99c0 16.1-16.7 26.8-32.4 26.8"/><path clip-path="url(#b)" fill="#3C78AC" d="M52.2 4.2c0-1.7 1-2.6 2.6-2.6h17c2 0 2.8 1 2.8 2.6v110.3c0 1.7-.8 2.6-2.8 2.6h-17c-1.7 0-2.6-1-2.6-2.6V70.6H31.1v43.9c0 1.7-1 2.6-2.6 2.6h-17c-2 0-2.8-1-2.8-2.6V4.2c0-1.7.8-2.6 2.8-2.6h17c1.7 0 2.6 1 2.6 2.6v44.6h21.1V4.2z"/><path clip-path="url(#b)" fill="#FFF" d="M29.5 69h24.3v45.5c0 .8.3 1 1 1h17c1.2 0 1.2-.3 1.2-1V4.2c0-.7-.1-1-1.2-1h-17c-.8 0-1 .3-1 1v46.2H29.5V4.2c0-.8-.3-1-1-1h-17c-1.2 0-1.2.3-1.2 1v110.3c0 .7.1 1 1.2 1h17c.8 0 1-.3 1-1V69zm42.4 49.8h-17c-2.5 0-4.2-1.7-4.2-4.2V72.2h-18v42.3c0 2.5-1.7 4.2-4.2 4.2h-17c-2.8 0-4.4-1.6-4.4-4.2V4.2C7 1.6 8.7 0 11.4 0h17c2.5 0 4.2 1.7 4.2 4.2v43h17.9v-43c0-2.5 1.7-4.2 4.2-4.2h17c2.8 0 4.4 1.6 4.4 4.2v110.3c.2 2.7-1.5 4.3-4.2 4.3"/><path clip-path="url(#b)" fill="#3C78AC" d="M157.1 20.8c0 1.7-.7 2.8-2.6 2.8h-40.8V49h31c1.6 0 2.6 1 2.6 2.8v16.3c0 1.8-1 2.8-2.6 2.8h-31v24.4h40.8c2 0 2.6.8 2.6 2.6v16.5c0 1.7-.7 2.6-2.6 2.6H93.7c-1.5 0-2.5-1-2.5-2.6V4.2c0-1.7 1-2.6 2.5-2.6h60.8c2 0 2.6 1 2.6 2.6v16.6z"/><path clip-path="url(#b)" fill="#FFF" d="M93.7 3.2c-.5 0-.9.1-.9 1v110.3c0 1 .6 1 .9 1h60.8c.9 0 1-.1 1-1V98c0-.7-.1-.9-.1-.9s-.2-.1-.9-.1h-42.4V69.4h32.6c.6 0 1-.1 1-1.2V51.8c0-1.1-.4-1.2-1-1.2h-32.6V22h42.4c.7 0 1 0 1-1.2V4.2c0-.9-.1-1-1-1H93.7zm60.7 115.6H93.7c-2.4 0-4.1-1.7-4.1-4.2V4.2c0-2.5 1.7-4.2 4.1-4.2h60.8c2.7 0 4.2 1.5 4.2 4.2v16.5c0 2.8-1.6 4.4-4.2 4.4h-39.2v22.2h29.4c2.6 0 4.2 1.7 4.2 4.4V68c0 2.7-1.7 4.4-4.2 4.4h-29.4v21.2h39.2c1.9 0 4.2.7 4.2 4.2v16.5c0 3-1.6 4.5-4.3 4.5"/><path clip-path="url(#b)" fill="#3C78AC" d="M196.1 95.4h32.7c1.8 0 2.6 1 2.6 2.6v16.5c0 1.8-.8 2.6-2.6 2.6h-52.5c-1.6 0-2.6-.8-2.6-2.6V4.2c0-1.7 1-2.6 2.6-2.6h17.2c1.8 0 2.6 1 2.6 2.6v91.2z"/><path clip-path="url(#b)" fill="#FFF" d="M176.2 3.2c-.8 0-1 .3-1 1v110.3c0 .8.2 1 1 1h52.5c.9 0 1-.1 1-1V98c0-.8-.2-1-1-1h-34.3V4.2c0-.8-.2-1-1-1h-17.2zm52.5 115.6h-52.5c-2.6 0-4.2-1.6-4.2-4.2V4.2c0-2.5 1.7-4.2 4.2-4.2h17.2c2.6 0 4.2 1.6 4.2 4.2v89.5h31.1c2.6 0 4.2 1.6 4.2 4.2v16.5c.1 2.9-1.5 4.4-4.2 4.4"/><path clip-path="url(#b)" fill="#3C78AC" d="M270.4 95.4h32.7c1.8 0 2.6 1 2.6 2.6v16.5c0 1.8-.8 2.6-2.6 2.6h-52.5c-1.7 0-2.6-.8-2.6-2.6V4.2c0-1.7 1-2.6 2.6-2.6h17.2c1.8 0 2.6 1 2.6 2.6v91.2z"/><path clip-path="url(#b)" fill="#FFF" d="M250.5 3.2c-.8 0-1 .3-1 1v110.3c0 .8.2 1 1 1H303c.9 0 1-.1 1-1V98c0-.8-.2-1-1-1h-34.3V4.2c0-.8-.2-1-1-1h-17.2zm52.6 115.6h-52.5c-2.6 0-4.2-1.6-4.2-4.2V4.2c0-2.5 1.7-4.2 4.2-4.2h17.2c2.6 0 4.2 1.6 4.2 4.2v89.5h31.1c2.6 0 4.2 1.6 4.2 4.2v16.5c0 2.9-1.5 4.4-4.2 4.4"/><path clip-path="url(#b)" fill="#3C78AC" d="M355.9 95.9c4.3 0 6.6-2.1 6.6-6.6V29.5c0-4.3-2.3-6.6-6.6-6.6h-10.6c-4.3 0-6.6 2.3-6.6 6.6v59.8c0 4.5 2.3 6.6 6.6 6.6h10.6zm-38.6-70.5c0-15.5 8.3-23.8 23.8-23.8h18.5c15.5 0 23.8 8.3 23.8 23.8v68c0 15.5-8.3 23.8-23.8 23.8H341c-15.5 0-23.8-8.3-23.8-23.8v-68z"/><path clip-path="url(#b)" fill="#FFF" d="M345.3 24.5c-3.4 0-5 1.6-5 5v59.8c0 3.5 1.5 5 5 5h10.6c3.5 0 5-1.5 5-5V29.5c0-3.4-1.6-5-5-5h-10.6zm10.6 73h-10.6c-5.3 0-8.2-2.9-8.2-8.2V29.5c0-5.2 3-8.2 8.2-8.2h10.6c5.2 0 8.2 3 8.2 8.2v59.8c0 5.3-2.9 8.2-8.2 8.2M341 3.2c-14.7 0-22.2 7.5-22.2 22.2v68c0 14.7 7.5 22.2 22.2 22.2h18.5c14.7 0 22.2-7.5 22.2-22.2v-68c0-14.7-7.5-22.2-22.2-22.2H341zm18.5 115.6H341c-16.4 0-25.4-9-25.4-25.4v-68C315.7 9 324.7 0 341 0h18.5c16.4 0 25.4 9 25.4 25.4v68c0 16.4-9 25.4-25.4 25.4"/><path fill="#FFF" d="M18 2.8h3.1v114.3H18zM62.3 1.6h3.2v115.6h-3.2zM100.8 10.3h3.2v96.8h-3.2z"/><path fill="#FFF" d="M19.6 57.8h44.3V61H19.6zM101 104.3h56.4v3.2H101zM101 9.9h56.1v3.2H101zM101.1 58.3h46.2v2.9h-46.2zM183.8 1.6h3.2v105.1h-3.2z"/><path fill="#FFF" d="M184 103.9h47.4v3.1H184zM258.2 1.6h3.2v105.1h-3.2z"/><path fill="#FFF" d="M258.5 103.9h47v3.1h-47z"/><g><defs><path id="c" d="M0 0h386.9v449H0z"/></defs><clipPath id="d"><use xlink:href="#c" overflow="visible"/></clipPath><path clip-path="url(#d)" fill="#FFF" d="M341 3.2c-14.7 0-22.2 7.5-22.2 22.2v68c0 14.7 7.5 22.2 22.2 22.2h18.5c14.7 0 22.2-7.5 22.2-22.2v-68c0-14.7-7.5-22.2-22.2-22.2H341zm18.5 115.6H341c-16.4 0-25.4-9-25.4-25.4v-68C315.7 9 324.7 0 341 0h18.5c16.4 0 25.4 9 25.4 25.4v68c0 16.4-9 25.4-25.4 25.4"/><path clip-path="url(#d)" fill="#FFF" d="M341 12.1c-9.7 0-13.3 3.6-13.3 13.3v68c0 9.7 3.6 13.3 13.3 13.3h18.5c9.7 0 13.3-3.6 13.3-13.3v-68c0-9.7-3.6-13.3-13.3-13.3H341zm18.5 97.8H341c-11.4 0-16.5-5.1-16.5-16.5v-68c0-11.4 5.1-16.5 16.5-16.5h18.5c11.4 0 16.5 5.1 16.5 16.5v68c.1 11.4-5 16.5-16.5 16.5"/><path clip-path="url(#d)" fill="#F27968" d="M44.3 175.3c0-1.7 6.5-10.6 8.2-10.6l11.5 7.9c2 0 2.8 1 2.8 2.6l8.6 104.1c0 1.6-9.4 8.9-11.4 8.9H47c-1.6 0-2.6-1-2.6-2.6v-43.9H23.2l8.5 37.3c0 1.7-9.5 9.2-11.1 9.2h-17c-2 0-2.8-1-2.8-2.6V175.3c0-1.7 5.9-10.6 7.9-10.6l11.9 7.9c1.7 0 2.6 1 2.6 2.6v44.6h21.1v-44.5z"/><path clip-path="url(#d)" fill="#FFF" d="M22.5 241.2h22.3v44.4c0 1.4.8 2.1 2.1 2.1h17c1.7 0 10.8-6.9 10.9-8.4l-8.6-104.1c0-1.5-.7-2.2-2.3-2.2h-.2l-11.4-7.9c-1.5.5-7.6 8.5-7.6 10v45.1h-22v-45.1c0-1.4-.8-2.1-2.1-2.1h-.2l-11.9-7.9c-1.4.4-7.3 8-7.3 10v110.3c0 1.5.7 2.1 2.3 2.1h17c1.5 0 10.4-7.3 10.6-8.7l-8.6-37.6zM64 288.7H47c-1.9 0-3.1-1.2-3.1-3.1v-43.4h-20l8.4 36.8c0 2.1-9.8 9.7-11.6 9.7h-17c-2.1 0-3.3-1.1-3.3-3.1V175.3c0-1.9 6.1-11.1 8.4-11.1H9l11.9 7.9c1.8.1 3 1.3 3 3.1v44.1H44v-44.1c0-1.9 6.8-11.1 8.7-11.1h.2l11.5 7.9c2 .1 3.1 1.2 3.1 3.1l8.6 104.1c-.3 2.3-10.1 9.5-12.1 9.5"/><path clip-path="url(#d)" fill="#F27968" d="M157.6 185.7c0 1.7-9.1 8.9-11.1 8.9h-40.8V220h31c1.7 0 2.6 1 2.6 2.8l8.7 10.1c0 1.8-9.7 9-11.3 9h-31v24.4h40.8c2 0 2.6.8 2.6 2.6l8.5 10.3c0 1.7-9.1 8.9-11.1 8.9H85.8c-1.5 0-2.5-1-2.5-2.6V175.3c0-1.7 6.4-10.6 7.9-10.6l55.3 7.9c2 0 2.6 1 2.6 2.6l8.5 10.5z"/><path clip-path="url(#d)" fill="#FFF" d="M91.1 165.2c-1.2.2-7.3 8.6-7.3 10.1v110.3c0 1.3.7 2.1 2 2.1h60.8c1.9 0 10-6.7 10.6-8.2l-8.4-10.3v-.2c0-1.6-.5-2.1-2.1-2.1h-41.3v-25.4h31.5c1.6 0 10.2-6.8 10.8-8.4l-8.6-10.1v-.2c0-1.5-.7-2.3-2.1-2.3h-31.5v-26.4h41.3c1.9 0 10-6.8 10.6-8.3l-8.4-10.3v-.2c0-1.5-.6-2.1-2.1-2.1l-55.8-8zm55.4 123.5H85.8c-1.8 0-3-1.3-3-3.1V175.3c0-1.9 6.5-11.1 8.4-11.1l55.4 7.9c1.9 0 3 1 3.1 3l8.5 10.4v.2c0 2.1-9.6 9.4-11.6 9.4h-40.3v24.4h30.5c1.9 0 3.1 1.2 3.1 3.1l8.7 10.1v.2c0 1.3-3.3 4.1-5.2 5.6-.5.4-5.1 3.9-6.6 3.9h-30.5v23.4h40.3c2.1 0 3.1.9 3.1 3l8.5 10.3v.2c-.1 2.3-9.6 9.4-11.7 9.4"/><path clip-path="url(#d)" fill="#F27968" d="M188.1 266.4h32.7c1.8 0 2.6 1 2.6 2.6l8.5 10.7c0 1.8-9.4 8.5-11.2 8.5h-52.5c-1.7 0-2.6-.8-2.6-2.6V175.3c0-1.7 6.3-10.1 7.9-10.1l11.9 7.5c1.8 0 2.6 1 2.6 2.6v91.1z"/><path clip-path="url(#d)" fill="#FFF" d="M173.5 165.7c-1.5.4-7.3 8.1-7.3 9.6v110.3c0 1.5.7 2.1 2.1 2.1h52.5c1.7 0 10.1-6.2 10.7-7.8l-8.5-10.6v-.2c0-1.5-.7-2.1-2.1-2.1h-33.2v-91.7c0-1.5-.7-2.1-2.1-2.1h-.1l-12-7.5zm47.3 123h-52.5c-2 0-3.1-1.1-3.1-3.1V175.3c0-1.9 6.5-10.6 8.4-10.6h.1l11.9 7.5c1.9.1 3 1.2 3 3.1v90.6h32.2c2 0 3.1 1.1 3.1 3l8.5 10.7v.2c.1 2-9.5 8.9-11.6 8.9"/><path clip-path="url(#d)" fill="#F27968" d="M262.4 266.4h32.7c1.8 0 2.6 1 2.6 2.6l8.8 10.2c0 1.8-9.6 9-11.4 9h-52.5c-1.6 0-2.6-.8-2.6-2.6V175.3c0-1.7 7.3-10.6 8.9-10.6l10.9 7.9c1.8 0 2.6 1 2.6 2.6v91.2z"/><path clip-path="url(#d)" fill="#FFF" d="M248.8 165.2c-1.6.5-8.3 8.5-8.3 10v110.3c0 1.5.7 2.1 2.1 2.1h52.5c1.7 0 10.3-6.7 10.9-8.3l-8.7-10.1v-.2c0-1.5-.7-2.1-2.1-2.1H262v-91.7c0-1.5-.7-2.1-2.1-2.1h-.2l-10.9-7.9zm46.3 123.5h-52.5c-2 0-3.1-1.1-3.1-3.1V175.3c0-1.8 7.4-11.1 9.4-11.1h.2l10.9 7.9c1.9.1 3 1.2 3 3.1v90.6h32.2c1.9 0 3.1 1.1 3.1 3l8.8 10.2v.2c-.1 2.2-10 9.5-12 9.5"/><path clip-path="url(#d)" fill="#F27968" d="M348 266.9c4.3 0 6.6-2.1 6.6-6.6v-59.8c0-4.3-2.3-6.6-6.6-6.6h-10.6c-4.3 0-6.6 2.3-6.6 6.6v59.8c0 4.5 2.3 6.6 6.6 6.6H348zm-38.7-70.5c0-15.5 12.4-31.5 27.9-31.5l14.4 7.7c15.5 0 23.8 8.3 23.8 23.8l7.9 66c0 15.5-16.2 25.8-31.7 25.8h-18.5c-15.5 0-23.8-8.3-23.8-23.8v-68z"/><path clip-path="url(#d)" fill="#FFF" d="M337.4 194.4c-4 0-6.1 2.1-6.1 6.1v59.8c0 4.1 2 6.1 6.1 6.1H348c4.1 0 6.1-2 6.1-6.1v-59.8c0-4-2.1-6.1-6.1-6.1h-10.6zm10.6 73h-10.6c-4.6 0-7.1-2.5-7.1-7.1v-59.8c0-4.6 2.5-7.1 7.1-7.1H348c4.6 0 7.1 2.5 7.1 7.1v59.8c0 4.7-2.5 7.1-7.1 7.1m-10.9-102c-15.6.1-27.2 16.4-27.2 31v68c0 15.2 8 23.3 23.3 23.3h18.5c19.3 0 31.2-13.1 31.2-25.3l-7.9-66c0-15.3-8.1-23.3-23.3-23.3h-.1l-14.5-7.7zm14.5 123.3h-18.5c-15.9 0-24.3-8.4-24.3-24.3v-68c0-15.1 12.1-32 28.4-32h.1l14.4 7.7c15.8 0 24.2 8.4 24.2 24.3l7.9 66c0 7.4-3.6 14.2-10.2 19.2-6.1 4.5-14.1 7.1-22 7.1"/><path clip-path="url(#d)" fill="#3C78AC" d="M52.2 167.4c0-1.7 1-2.6 2.6-2.6h17c2 0 2.8 1 2.8 2.6v110.3c0 1.7-.8 2.6-2.8 2.6h-17c-1.7 0-2.6-1-2.6-2.6v-43.9H31.1v43.9c0 1.7-1 2.6-2.6 2.6h-17c-2 0-2.8-1-2.8-2.6V167.4c0-1.7.8-2.6 2.8-2.6h17c1.7 0 2.6 1 2.6 2.6V212h21.1v-44.6z"/><path clip-path="url(#d)" fill="#FFF" d="M29.5 232.1h24.3v45.5c0 .8.3 1 1 1h17c1.2 0 1.2-.3 1.2-1V167.4c0-.7-.1-1-1.2-1h-17c-.8 0-1 .3-1 1v46.2H29.5v-46.2c0-.8-.3-1-1-1h-17c-1.2 0-1.2.3-1.2 1v110.3c0 .7.1 1 1.2 1h17c.8 0 1-.3 1-1v-45.6zm42.4 49.8h-17c-2.5 0-4.2-1.7-4.2-4.2v-42.3h-18v42.3c0 2.5-1.7 4.2-4.2 4.2h-17c-2.8 0-4.4-1.6-4.4-4.2V167.4c0-2.7 1.6-4.2 4.4-4.2h17c2.5 0 4.2 1.7 4.2 4.2v43h17.9v-43c0-2.5 1.7-4.2 4.2-4.2h17c2.8 0 4.4 1.6 4.4 4.2v110.3c.1 2.6-1.6 4.2-4.3 4.2"/><path clip-path="url(#d)" fill="#3C78AC" d="M157.1 183.9c0 1.7-.7 2.8-2.6 2.8h-40.8v25.4h31c1.6 0 2.6 1 2.6 2.8v16.3c0 1.8-1 2.8-2.6 2.8h-31v24.4h40.8c2 0 2.6.8 2.6 2.6v16.5c0 1.7-.7 2.6-2.6 2.6H93.7c-1.5 0-2.5-1-2.5-2.6V167.4c0-1.7 1-2.6 2.5-2.6h60.8c2 0 2.6 1 2.6 2.6v16.5z"/><path clip-path="url(#d)" fill="#FFF" d="M93.7 166.3c-.5 0-.9.1-.9 1v110.3c0 1 .6 1 .9 1h60.8c.9 0 1-.1 1-1v-16.5c0-.7-.1-.9-.1-.9s-.2-.1-.9-.1h-42.4v-27.6h32.6c.6 0 1-.1 1-1.2V215c0-1.1-.4-1.2-1-1.2h-32.6v-28.6h42.4c.7 0 1 0 1-1.2v-16.5c0-.9-.1-1-1-1H93.7zm60.7 115.6H93.7c-2.4 0-4.1-1.7-4.1-4.2V167.4c0-2.5 1.7-4.2 4.1-4.2h60.8c2.7 0 4.2 1.5 4.2 4.2v16.5c0 2.8-1.6 4.4-4.2 4.4h-39.2v22.2h29.4c2.6 0 4.2 1.7 4.2 4.4v16.3c0 2.7-1.7 4.4-4.2 4.4h-29.4v21.2h39.2c1.9 0 4.2.7 4.2 4.2v16.5c0 2.9-1.6 4.4-4.3 4.4"/><path clip-path="url(#d)" fill="#3C78AC" d="M196.1 258.5h32.7c1.8 0 2.6 1 2.6 2.6v16.5c0 1.8-.8 2.6-2.6 2.6h-52.5c-1.6 0-2.6-.8-2.6-2.6V167.4c0-1.6 1-2.6 2.6-2.6h17.2c1.8 0 2.6 1 2.6 2.6v91.1z"/><path clip-path="url(#d)" fill="#FFF" d="M176.2 166.3c-.8 0-1 .3-1 1v110.3c0 .8.2 1 1 1h52.5c.9 0 1-.1 1-1v-16.5c0-.8-.2-1-1-1h-34.3v-92.8c0-.8-.2-1-1-1h-17.2zm52.5 115.6h-52.5c-2.6 0-4.2-1.6-4.2-4.2V167.4c0-2.5 1.7-4.2 4.2-4.2h17.2c2.6 0 4.2 1.6 4.2 4.2v89.5h31.1c2.6 0 4.2 1.6 4.2 4.2v16.5c.1 2.8-1.5 4.3-4.2 4.3"/><path clip-path="url(#d)" fill="#3C78AC" d="M270.4 258.5h32.7c1.8 0 2.6 1 2.6 2.6v16.5c0 1.8-.8 2.6-2.6 2.6h-52.5c-1.7 0-2.6-.8-2.6-2.6V167.4c0-1.6 1-2.6 2.6-2.6h17.2c1.8 0 2.6 1 2.6 2.6v91.1z"/><path clip-path="url(#d)" fill="#FFF" d="M250.5 166.3c-.8 0-1 .3-1 1v110.3c0 .8.2 1 1 1H303c.9 0 1-.1 1-1v-16.5c0-.8-.2-1-1-1h-34.3v-92.8c0-.8-.2-1-1-1h-17.2zm52.6 115.6h-52.5c-2.6 0-4.2-1.6-4.2-4.2V167.4c0-2.5 1.7-4.2 4.2-4.2h17.2c2.6 0 4.2 1.6 4.2 4.2v89.5h31.1c2.6 0 4.2 1.6 4.2 4.2v16.5c0 2.8-1.5 4.3-4.2 4.3"/><path clip-path="url(#d)" fill="#3C78AC" d="M355.9 259c4.3 0 6.6-2.1 6.6-6.6v-59.8c0-4.3-2.3-6.6-6.6-6.6h-10.6c-4.3 0-6.6 2.3-6.6 6.6v59.8c0 4.5 2.3 6.6 6.6 6.6h10.6zm-38.6-70.5c0-15.5 8.3-23.8 23.8-23.8h18.5c15.5 0 23.8 8.3 23.8 23.8v68c0 15.5-8.3 23.8-23.8 23.8H341c-15.5 0-23.8-8.3-23.8-23.8v-68z"/><path clip-path="url(#d)" fill="#FFF" d="M345.3 187.6c-3.4 0-5 1.6-5 5v59.8c0 3.5 1.5 5 5 5h10.6c3.5 0 5-1.5 5-5v-59.8c0-3.4-1.6-5-5-5h-10.6zm10.6 73h-10.6c-5.3 0-8.2-2.9-8.2-8.2v-59.8c0-5.2 3-8.2 8.2-8.2h10.6c5.2 0 8.2 3 8.2 8.2v59.8c0 5.3-2.9 8.2-8.2 8.2M341 166.3c-14.7 0-22.2 7.5-22.2 22.2v68c0 14.7 7.5 22.2 22.2 22.2h18.5c14.7 0 22.2-7.5 22.2-22.2v-68c0-14.7-7.5-22.2-22.2-22.2H341zm18.5 115.6H341c-16.4 0-25.4-9-25.4-25.4v-68c0-16.4 9-25.4 25.4-25.4h18.5c16.4 0 25.4 9 25.4 25.4v68c0 16.4-9 25.4-25.4 25.4"/><path clip-path="url(#d)" fill="#3C78AC" d="M52.2 332.5c0-1.6 1-2.6 2.6-2.6h17c2 0 2.8 1 2.8 2.6v110.3c0 1.7-.8 2.6-2.8 2.6h-17c-1.7 0-2.6-1-2.6-2.6v-43.9H31.1v43.9c0 1.7-1 2.6-2.6 2.6h-17c-2 0-2.8-1-2.8-2.6V332.5c0-1.6.8-2.6 2.8-2.6h17c1.7 0 2.6 1 2.6 2.6V377h21.1v-44.5z"/><path clip-path="url(#d)" fill="#F27968" d="M29.9 397.6h23.5v45.1c0 1 .5 1.4 1.4 1.4h17c1.4 0 1.6-.5 1.6-1.4V332.5c0-1-.2-1.4-1.6-1.4h-17c-1 0-1.4.5-1.4 1.4v45.8H29.9v-45.8c0-1-.5-1.4-1.4-1.4h-17c-1.4 0-1.6.5-1.6 1.4v110.3c0 1 .2 1.4 1.6 1.4h17c1 0 1.4-.5 1.4-1.4v-45.2zm42 49h-17c-2.3 0-3.8-1.5-3.8-3.8V400H32.3v42.7c0 2.3-1.5 3.8-3.8 3.8h-17c-2.5 0-4-1.4-4-3.8V332.5c0-2.4 1.5-3.8 4-3.8h17c2.3 0 3.8 1.5 3.8 3.8v43.4H51v-43.4c0-2.3 1.5-3.8 3.8-3.8h17c2.5 0 4 1.4 4 3.8v110.3c.1 2.4-1.4 3.8-3.9 3.8"/><path clip-path="url(#d)" fill="#FFF" d="M54.6 443H72.2V332.5v-.2H54.6v47.2H28.7v-47-.2H11.1V443H28.7v-46.5h25.9V443m17.3 4.8h-17c-3 0-5-2.1-5-5v-41.5H33.5v41.5c0 3-2.1 5-5 5h-17c-3.2 0-5.2-1.9-5.2-5V332.5c0-3.1 2-5 5.2-5h17c3 0 5 2.1 5 5v42.2h16.4v-42.2c0-3 2.1-5 5-5h17c3.2 0 5.2 1.9 5.2 5v110.3c0 3.1-2 5-5.2 5"/><path clip-path="url(#d)" fill="#F27968" d="M27.5 395.3h28.3v46.6h15.3V333.4H55.8v47.2H27.5v-47.2H12.2v108.4h15.3v-46.5zm44.4 48.9H54.4l-.8-.2-.2-.8v-45.6H29.9v45.6l-.2.8-.8.2H11.4c-.2 0-.4 0-.6-.1l-.9-.1-.1-.9V332.5v-.4l.1-.9.9-.2h18.1l.8.2.2.8v46.3h23.5v-45.8-.5l.2-.8.8-.2h18.1l.9.2.1.9V443.2l-.1.9-.9.2c-.2-.1-.4-.1-.6-.1M32.3 400H51v42.7c0 2.3 1.5 3.8 3.8 3.8h17c2.5 0 4-1.4 4-3.8V332.5c0-2.4-1.5-3.8-4-3.8h-17c-2.3 0-3.8 1.5-3.8 3.8v43.4H32.3v-43.4c0-2.3-1.5-3.8-3.8-3.8h-17c-2.5 0-4 1.4-4 3.8v110.3c0 2.4 1.5 3.8 4 3.8h17c2.3 0 3.8-1.5 3.8-3.8V400zm39.6 49h-17c-3.6 0-6.2-2.6-6.2-6.2v-40.3h-14v40.3c0 3.6-2.6 6.2-6.2 6.2h-17c-3.9 0-6.4-2.4-6.4-6.2V332.5c0-3.8 2.5-6.2 6.4-6.2h17c3.6 0 6.2 2.6 6.2 6.2v41h14v-41c0-3.6 2.6-6.2 6.2-6.2h17c3.9 0 6.4 2.4 6.4 6.2v110.3c0 3.8-2.5 6.2-6.4 6.2"/><path clip-path="url(#d)" fill="#3C78AC" d="M157.1 349c0 1.7-.7 2.8-2.6 2.8h-40.8v25.4h31c1.6 0 2.6 1 2.6 2.8v16.3c0 1.8-1 2.8-2.6 2.8h-31v24.4h40.8c2 0 2.6.8 2.6 2.6v16.5c0 1.7-.7 2.6-2.6 2.6H93.7c-1.5 0-2.5-1-2.5-2.6V332.5c0-1.6 1-2.6 2.5-2.6h60.8c2 0 2.6 1 2.6 2.6V349z"/><path clip-path="url(#d)" fill="#FFF" d="M93.7 330.3c-1.2 0-2 .8-2 2.1v110.3c0 1.3.7 2.1 2 2.1h60.8c1.5 0 2.1-.6 2.1-2.1v-16.5c0-1.6-.5-2.1-2.1-2.1h-41.3v-25.4h31.5c1.4 0 2.1-.8 2.1-2.3V380c0-1.5-.7-2.3-2.1-2.3h-31.5v-26.4h41.3c1.5 0 2.1-.7 2.1-2.3v-16.5c0-1.5-.6-2.1-2.1-2.1H93.7zm60.7 115.6H93.7c-1.8 0-3-1.2-3-3.1V332.5c0-1.9 1.2-3.1 3-3.1h60.8c2.1 0 3.1 1.1 3.1 3.1V349c0 2.7-1.7 3.3-3.1 3.3h-40.3v24.4h30.5c2 0 3.1 1.2 3.1 3.3v16.3c0 2.1-1.2 3.3-3.1 3.3h-30.5V423h40.3c2.2 0 3.1 1 3.1 3.1v16.5c0 2.3-1.1 3.3-3.2 3.3"/><path clip-path="url(#d)" fill="#FFF" d="M93.6 443h61v-16.7-.2H111.2v-29.2h33.6V380v-.4h-33.6v-30.2H154.6v-16.9-.2H93.7h-.1V443m60.8 4.8H93.7c-2.8 0-4.9-2.1-4.9-5V332.5c0-2.9 2.1-5 4.9-5h60.8c3.2 0 5 1.9 5 5V349c0 3.2-1.9 5.2-5 5.2H116v20.6h28.7c3 0 5 2.1 5 5.2v16.3c0 3.1-2 5.2-5 5.2H116v19.7h38.4c3.2 0 5 1.8 5 5v16.5c.1 3.2-1.8 5.1-5 5.1"/><path clip-path="url(#d)" fill="#FFF" d="M94.1 332.7v109.8h60.1v-16h-43.4v-30.2h33.7v-16.2h-33.7v-31.2h43.4v-16.2H94.1zm60.3 110.8H93.1l-.1-.4V332.5v-.3l.1-.4H155.1v17.7l-.1.4H111.6v29.2H144.8l.3.1.1.3c0 .1.1.3.1.5v16.3c0 .3 0 .4-.1.5l-.1.3-.3.1H111.6v28.2H155v17.9h-.4c0 .2 0 .2-.2.2M93.7 327.9c-2.5 0-4.4 1.9-4.4 4.5v110.3c0 2.6 1.8 4.5 4.4 4.5h60.8c2.9 0 4.5-1.7 4.5-4.5v-16.5c0-2.9-1.6-4.5-4.5-4.5h-38.9V401h29.2c2.8 0 4.5-1.8 4.5-4.7V380c0-2.9-1.8-4.7-4.5-4.7h-29.2v-21.6h38.9c2.8 0 4.5-1.8 4.5-4.7v-16.5c0-2.9-1.7-4.5-4.5-4.5H93.7zm60.7 120.4H93.7c-3.1 0-5.4-2.3-5.4-5.5V332.5c0-3.2 2.3-5.5 5.4-5.5h60.8c3.4 0 5.5 2.1 5.5 5.5V349c0 3.5-2.2 5.7-5.5 5.7h-37.9v19.6h28.2c3.3 0 5.5 2.3 5.5 5.7v16.3c0 3.4-2.2 5.7-5.5 5.7h-28.2v18.6h37.9c3.5 0 5.5 2.1 5.5 5.5v16.5c0 3.6-2.1 5.7-5.6 5.7"/><path clip-path="url(#d)" fill="#F27968" d="M94.8 333.4v108.4h58.7v-14.6h-43.4v-31.6h33.7v-14.8h-33.7v-32.6h43.4v-14.8H94.8zm59.6 110.8H93.5l-.9-.1-.2-.9c0-.2-.1-.3-.1-.5V332.5v-.5l.2-.9.9-.1h61.3l1 .1.1 1V349.6l-.1.9-.9.1h-42.4v27.8H145l.7.1.2.7c.1.2.1.4.1.7v16.3c0 .3 0 .5-.1.7l-.2.7-.7.1h-32.6v26.8h42.3l1.1.1.1 1.1v17.1l-.1 1-1 .1c-.1.3-.2.3-.4.3M93.7 328.6c-2.2 0-3.7 1.6-3.7 3.8v110.3c0 2.3 1.5 3.8 3.7 3.8h60.8c2.5 0 3.8-1.4 3.8-3.8v-16.5c0-2.5-1.3-3.8-3.8-3.8h-39.6v-22h29.8c2.3 0 3.8-1.6 3.8-4V380c0-2.4-1.5-4-3.8-4h-29.8v-23h39.6c2.4 0 3.8-1.5 3.8-4v-16.5c0-2.5-1.4-3.8-3.8-3.8H93.7zM154.4 449H93.7c-3.5 0-6.1-2.7-6.1-6.2V332.5c0-3.6 2.6-6.2 6.1-6.2h60.8c3.8 0 6.2 2.4 6.2 6.2V349c0 3.9-2.4 6.4-6.2 6.4h-37.2v18.2h27.5c3.7 0 6.2 2.6 6.2 6.4v16.3c0 3.8-2.6 6.4-6.2 6.4h-27.5V420h37.2c3.8 0 6.2 2.4 6.2 6.2v16.5c0 3.9-2.5 6.3-6.3 6.3"/><path clip-path="url(#d)" fill="#3C78AC" d="M196.1 423.6h32.7c1.8 0 2.6 1 2.6 2.6v16.5c0 1.8-.8 2.6-2.6 2.6h-52.5c-1.6 0-2.6-.8-2.6-2.6V332.5c0-1.6 1-2.6 2.6-2.6h17.2c1.8 0 2.6 1 2.6 2.6v91.1z"/><path clip-path="url(#d)" fill="#FFF" d="M176.2 330.3c-1.4 0-2.1.8-2.1 2.1v110.3c0 1.5.7 2.1 2.1 2.1h52.5c1.5 0 2.1-.6 2.1-2.1v-16.5c0-1.5-.7-2.1-2.1-2.1h-33.2v-91.7c0-1.5-.7-2.1-2.1-2.1h-17.2zm52.5 115.6h-52.5c-2 0-3.1-1.1-3.1-3.1V332.5c0-1.9 1.2-3.1 3.1-3.1h17.2c2 0 3.1 1.1 3.1 3.1v90.7h32.2c2 0 3.1 1.1 3.1 3.1v16.5c.1 2.1-1 3.1-3.1 3.1"/><path clip-path="url(#d)" fill="#FFF" d="M176 443H228.9v-16.7-.2H193.6v-93.5-.2H176V443m52.7 4.8h-52.5c-3.1 0-5-2-5-5V332.5c0-3 2.1-5 5-5h17.2c3.1 0 5 2 5 5v88.8h30.3c3.1 0 5 2 5 5v16.5c.1 3.1-1.8 5-5 5"/><path clip-path="url(#d)" fill="#FFF" d="M176.5 442.5h52v-16h-35.3v-93.8h-16.7v109.8zm52.2 1h-52.8l-.4-.1v-.4-110.5-.3l.1-.3.3-.1h18.2l.1.4v93.3h34.9l.4.1v17.9h-.8m-52.5-115.6c-2.7 0-4.5 1.9-4.5 4.5v110.3c0 2.8 1.7 4.5 4.5 4.5h52.5c2.9 0 4.5-1.7 4.5-4.5v-16.5c0-2.8-1.7-4.5-4.5-4.5h-30.8v-89.3c0-2.8-1.7-4.5-4.5-4.5h-17.2zm52.5 120.4h-52.5c-3.3 0-5.5-2.2-5.5-5.5V332.5c0-3.3 2.3-5.5 5.5-5.5h17.2c3.3 0 5.5 2.2 5.5 5.5v88.3h29.8c3.3 0 5.5 2.2 5.5 5.5v16.5c.1 3.4-2 5.5-5.5 5.5"/><path clip-path="url(#d)" fill="#F27968" d="M177.2 441.8h50.6v-14.6h-35.3v-93.8h-15.3v108.4zm51.5 2.4h-52.9l-.9-.1-.1-.9V332.5v-.5l.2-.8.8-.2H193.9l.9.1.1.9v92.7h34.3l.9.1.1.9v17.2l-.1 1-1 .1c-.1.2-.2.2-.4.2m-52.5-115.6c-2.3 0-3.8 1.5-3.8 3.8v110.3c0 2.4 1.4 3.8 3.8 3.8h52.5c2.5 0 3.8-1.4 3.8-3.8v-16.5c0-2.4-1.4-3.8-3.8-3.8h-31.5v-90c0-2.4-1.4-3.8-3.8-3.8h-17.2zM228.7 449h-52.5c-3.7 0-6.2-2.5-6.2-6.2V332.5c0-3.6 2.6-6.2 6.2-6.2h17.2c3.7 0 6.2 2.5 6.2 6.2V420h29.1c3.7 0 6.2 2.5 6.2 6.2v16.5c.1 3.9-2.4 6.3-6.2 6.3"/><path clip-path="url(#d)" fill="#3C78AC" d="M270.4 423.6h32.7c1.8 0 2.6 1 2.6 2.6v16.5c0 1.8-.8 2.6-2.6 2.6h-52.5c-1.7 0-2.6-.8-2.6-2.6V332.5c0-1.6 1-2.6 2.6-2.6h17.2c1.8 0 2.6 1 2.6 2.6v91.1z"/><path clip-path="url(#d)" fill="#FFF" d="M250.3 443H303.2v-16.7-.2H268v-93.5-.2H250.4v110.5c-.1 0-.1 0-.1.1m52.8 4.8h-52.5c-3.1 0-5-2-5-5V332.5c0-3 2.1-5 5-5h17.2c3.1 0 5 2 5 5v88.8h30.3c3.1 0 5 2 5 5v16.5c0 3.1-1.9 5-5 5"/><path clip-path="url(#d)" fill="#FFF" d="M250.8 442.5h52v-16h-35.3v-93.8h-16.7v109.8zm52.3 1h-52.8l-.4-.1v-.4-110.5-.3l.1-.3.3-.1h18.2l.1.4v93.3h34.9l.4.1v17.9h-.8m-52.6-115.6c-2.7 0-4.5 1.9-4.5 4.5v110.3c0 2.8 1.7 4.5 4.5 4.5H303c2.9 0 4.5-1.7 4.5-4.5v-16.5c0-2.8-1.7-4.5-4.5-4.5h-30.8v-89.3c0-2.8-1.7-4.5-4.5-4.5h-17.2zm52.6 120.4h-52.5c-3.3 0-5.5-2.2-5.5-5.5V332.5c0-3.3 2.3-5.5 5.5-5.5h17.2c3.3 0 5.5 2.2 5.5 5.5v88.3h29.8c3.3 0 5.5 2.2 5.5 5.5v16.5c0 3.4-2.1 5.5-5.5 5.5"/><path clip-path="url(#d)" fill="#F27968" d="M251.5 441.8h50.6v-14.6h-35.3v-93.8h-15.3v108.4zm51.6 2.4h-52.9l-.9-.1-.1-.9V332.5v-.5l.2-.8.8-.2H268.3l.9.1.1.9v92.7h34.3l.9.1.1.9v17.2l-.1 1-1 .1c-.2.2-.3.2-.4.2m-52.6-115.6c-2.3 0-3.8 1.5-3.8 3.8v110.3c0 2.4 1.4 3.8 3.8 3.8H303c2.5 0 3.8-1.4 3.8-3.8v-16.5c0-2.4-1.4-3.8-3.8-3.8h-31.5v-90c0-2.4-1.4-3.8-3.8-3.8h-17.2zM303.1 449h-52.5c-3.7 0-6.2-2.5-6.2-6.2V332.5c0-3.6 2.6-6.2 6.2-6.2h17.2c3.7 0 6.2 2.5 6.2 6.2V420h29.1c3.7 0 6.2 2.5 6.2 6.2v16.5c0 3.9-2.5 6.3-6.2 6.3"/><path clip-path="url(#d)" fill="#3C78AC" d="M355.9 424.1c4.3 0 6.6-2.1 6.6-6.6v-59.8c0-4.3-2.3-6.6-6.6-6.6h-10.6c-4.3 0-6.6 2.3-6.6 6.6v59.8c0 4.5 2.3 6.6 6.6 6.6h10.6zm-38.6-70.5c0-15.5 8.3-23.8 23.8-23.8h18.5c15.5 0 23.8 8.3 23.8 23.8v68c0 15.5-8.3 23.8-23.8 23.8H341c-15.5 0-23.8-8.3-23.8-23.8v-68z"/><path clip-path="url(#d)" fill="#FFF" d="M345.3 351.6c-4 0-6.1 2.1-6.1 6.1v59.8c0 4.1 2 6.1 6.1 6.1h10.6c4.1 0 6.1-2 6.1-6.1v-59.8c0-4-2.1-6.1-6.1-6.1h-10.6zm10.6 73h-10.6c-4.6 0-7.1-2.5-7.1-7.1v-59.8c0-4.6 2.5-7.1 7.1-7.1h10.6c4.6 0 7.1 2.5 7.1 7.1v59.8c0 4.7-2.4 7.1-7.1 7.1M341 330.3c-15.2 0-23.3 8.1-23.3 23.3v68c0 15.2 8 23.3 23.3 23.3h18.5c15.2 0 23.3-8 23.3-23.3v-68c0-15.2-8-23.3-23.3-23.3H341zm18.5 115.6H341c-15.9 0-24.3-8.4-24.3-24.3v-68c0-15.9 8.4-24.3 24.3-24.3h18.5c15.9 0 24.3 8.4 24.3 24.3v68c0 15.9-8.4 24.3-24.3 24.3"/><path clip-path="url(#d)" fill="#FFF" d="M345.3 353.5c-3 0-4.2 1.3-4.2 4.2v59.8c0 3.1 1.1 4.2 4.2 4.2h10.6c3.1 0 4.2-1.1 4.2-4.2v-59.8c0-3-1.3-4.2-4.2-4.2h-10.6zm10.6 73h-10.6c-5.7 0-9-3.3-9-9v-59.8c0-5.6 3.4-9 9-9h10.6c5.6 0 9 3.4 9 9v59.8c0 5.7-3.3 9-9 9M341 332.2c-14.2 0-21.4 7.2-21.4 21.4v68c0 14.2 7.2 21.4 21.4 21.4h18.5c14.2 0 21.4-7.2 21.4-21.4v-68c0-14.2-7.2-21.4-21.4-21.4H341zm18.5 115.6H341c-16.9 0-26.2-9.3-26.2-26.2v-68c0-16.9 9.3-26.2 26.2-26.2h18.5c16.9 0 26.2 9.3 26.2 26.2v68c0 16.9-9.3 26.2-26.2 26.2"/><path clip-path="url(#d)" fill="#FFF" d="M345.3 354c-2.7 0-3.7 1-3.7 3.7v59.8c0 2.8.9 3.7 3.7 3.7h10.6c2.8 0 3.7-.9 3.7-3.7v-59.8c0-2.7-1-3.7-3.7-3.7h-10.6zm10.6 68.2h-10.6c-3.3 0-4.7-1.4-4.7-4.7v-59.8c0-3.2 1.5-4.7 4.7-4.7h10.6c3.2 0 4.7 1.5 4.7 4.7v59.8c0 3.4-1.3 4.7-4.7 4.7m-10.6-73c-5.3 0-8.5 3.2-8.5 8.5v59.8c0 5.5 3 8.5 8.5 8.5h10.6c5.5 0 8.5-3 8.5-8.5v-59.8c0-5.3-3.2-8.5-8.5-8.5h-10.6zm10.6 77.8h-10.6c-6 0-9.5-3.5-9.5-9.5v-59.8c0-6 3.6-9.5 9.5-9.5h10.6c5.9 0 9.5 3.6 9.5 9.5v59.8c0 6-3.5 9.5-9.5 9.5M341 332.7c-13.9 0-20.9 7-20.9 20.9v68c0 13.9 7 20.9 20.9 20.9h18.5c13.9 0 20.9-7 20.9-20.9v-68c0-13.9-7-20.9-20.9-20.9H341zm18.5 110.8H341c-14.5 0-21.9-7.4-21.9-21.9v-68c0-14.5 7.4-21.9 21.9-21.9h18.5c14.5 0 21.9 7.4 21.9 21.9v68c0 14.6-7.3 21.9-21.9 21.9M341 327.9c-16.6 0-25.7 9.1-25.7 25.7v68c0 16.6 9.1 25.7 25.7 25.7h18.5c16.6 0 25.7-9.1 25.7-25.7v-68c0-16.6-9.1-25.7-25.7-25.7H341zm18.5 120.4H341c-17.2 0-26.7-9.5-26.7-26.7v-68c0-17.2 9.5-26.7 26.7-26.7h18.5c17.2 0 26.7 9.5 26.7 26.7v68c0 17.2-9.5 26.7-26.7 26.7"/><path clip-path="url(#d)" fill="#F27968" d="M345.3 354.7c-2.3 0-3 .7-3 3v59.8c0 2.4.6 3 3 3h10.6c2.4 0 3-.6 3-3v-59.8c0-2.3-.7-3-3-3h-10.6zm10.6 68.2h-10.6c-3.7 0-5.4-1.7-5.4-5.4v-59.8c0-3.6 1.8-5.4 5.4-5.4h10.6c3.6 0 5.4 1.8 5.4 5.4v59.8c0 3.7-1.7 5.4-5.4 5.4m-10.6-73c-5 0-7.8 2.8-7.8 7.8v59.8c0 5 2.8 7.8 7.8 7.8h10.6c5 0 7.8-2.8 7.8-7.8v-59.8c0-5-2.8-7.8-7.8-7.8h-10.6zm10.6 77.8h-10.6c-6.4 0-10.2-3.8-10.2-10.2v-59.8c0-6.3 3.9-10.2 10.2-10.2h10.6c6.3 0 10.2 3.9 10.2 10.2v59.8c0 6.4-3.8 10.2-10.2 10.2M341 333.4c-13.6 0-20.2 6.6-20.2 20.2v68c0 13.6 6.6 20.2 20.2 20.2h18.5c13.6 0 20.2-6.6 20.2-20.2v-68c0-13.6-6.6-20.2-20.2-20.2H341zm18.5 110.8H341c-14.8 0-22.6-7.8-22.6-22.6v-68c0-14.8 7.8-22.6 22.6-22.6h18.5c14.8 0 22.6 7.8 22.6 22.6v68c0 14.8-7.8 22.6-22.6 22.6M341 328.6c-8.1 0-14.3 2.2-18.6 6.4-4.3 4.3-6.4 10.5-6.4 18.6v68c0 8.1 2.2 14.3 6.4 18.6 4.3 4.3 10.5 6.4 18.6 6.4h18.5c8.1 0 14.3-2.2 18.6-6.4 4.3-4.3 6.4-10.5 6.4-18.6v-68c0-8.1-2.2-14.3-6.4-18.6-4.3-4.3-10.5-6.4-18.6-6.4H341zM359.5 449H341c-8.7 0-15.5-2.4-20.3-7.1-4.7-4.7-7.1-11.5-7.1-20.3v-68c0-8.7 2.4-15.5 7.1-20.3 4.7-4.7 11.5-7.1 20.3-7.1h18.5c8.7 0 15.5 2.4 20.3 7.1 4.7 4.7 7.1 11.5 7.1 20.3v68c0 8.7-2.4 15.5-7.1 20.3-4.7 4.7-11.5 7.1-20.3 7.1"/></g></svg>