<svg xmlns="http://www.w3.org/2000/svg" xmlns:xlink="http://www.w3.org/1999/xlink" width="797.7" height="531.8" viewBox="0 0 797.7 531.8"><defs><path id="a" d="M0 0h797.7v440H0z"/></defs><clipPath id="b"><use xlink:href="#a" overflow="visible"/></clipPath><g clip-path="url(#b)"><linearGradient id="c" gradientUnits="userSpaceOnUse" x1="412.59" y1="23.403" x2="412.59" y2="498.238"><stop offset=".015" stop-color="#81b0f9" stop-opacity="0"/><stop offset=".531" stop-color="#b6d4fe" stop-opacity=".6"/><stop offset="1" stop-color="#b6d4fe"/></linearGradient><path fill="url(#c)" d="M32.3 498.2S7.5 448 85.7 438.1s73.1-10 65.6-65.8S154.8 236.1 243 260c88.3 23.9 108.7 36.5 113.5 9.6 7.4-41.2 25.8-63.1 54.6-64.8 61-3.5 83.2-10 63-45.9-20.2-35.9-57.2-113.1 94.1-135 56.5.2 228.6-.6 228.6-.6L794.1 490l-761.8 8.2z"/><path fill="#2E8A9E" d="M329 428.7c5-15.1 5.8-46.2-6.6-56.3s-28.3-14.5-43.9-17.9c-15.6-3.4-31.6-6-45.8-13.3-28.3-14.6-46.8-46.6-77.8-53.9-14.2-3.3-30.5-1.3-41.9-10.4-5.8-4.6-9.3-11.4-13.8-17.3-9.8-12.8-24.8-21.4-40.8-23.4-16-2-32.7 2.7-45.3 12.6 0 1.7-2.9 3.5-2.9 5.2v177.5h316.6l2.2-2.8z"/><linearGradient id="d" gradientUnits="userSpaceOnUse" x1="10.03" y1="333.74" x2="332.377" y2="333.74"><stop offset=".134" stop-color="#77bfbb"/><stop offset=".249" stop-color="#60abae"/><stop offset=".439" stop-color="#408e9b"/><stop offset=".599" stop-color="#2c7c8f"/><stop offset=".708" stop-color="#25768b"/></linearGradient><path opacity=".6" fill="url(#d)" d="M329 428.7c5-15.1 5.8-46.2-6.6-56.3s-28.3-14.5-43.9-17.9c-15.6-3.4-31.6-6-45.8-13.3-28.3-14.6-46.8-46.6-77.8-53.9-14.2-3.3-30.5-1.3-41.9-10.4-5.8-4.6-9.3-11.4-13.8-17.3-9.8-12.8-24.8-21.4-40.8-23.4-16-2-32.7 2.7-45.3 12.6 0 1.7-2.9 3.5-2.9 5.2v177.5h316.6l2.2-2.8z"/><path fill="#25768B" d="M321 373.7c-12.4-10.1-26.6-4.5-42.2-7.9-15.6-3.4-31.6-6-45.8-13.3-28.3-14.6-46.8-46.6-77.8-53.9-14.2-3.3-30.5-1.3-41.9-10.4-5.8-4.6-9.3-22-13.8-27.9 4.5 5.9 8 12.7 13.8 17.3 11.4 9.1 27.7 7 41.9 10.4 31 7.3 49.5 39.3 77.8 53.9 14.2 7.3 30.2 10 45.8 13.3 15.6 3.4 31.5 7.8 43.9 17.9l-1.7.6z"/><path fill="#62A39E" d="M466.8 418.6c-5-15.1-5.8-46.2 6.6-56.3s28.3-14.5 43.9-17.9 31.6-6 45.8-13.3c28.3-14.6 46.8-46.6 77.8-53.9 14.2-3.3 30.5-1.3 41.9-10.4 5.8-4.6 9.3-11.4 13.8-17.3 9.8-12.8 24.8-21.4 40.8-23.4s32.7 2.7 45.3 12.6c0 1.7 2.9 3.5 2.9 5.2v177.5H469l-2.2-2.8z"/><path fill="#77BFBB" d="M476.4 420.5c-5-15.1-5.8-46.2 6.6-56.3 12.4-10.1 28.3-14.5 43.9-17.9 15.6-3.4 31.6-6 45.8-13.3 28.3-14.6 46.8-46.6 77.8-53.9 14.2-3.3 30.5-1.3 41.9-10.4 5.8-4.6 9.3-11.4 13.8-17.3C716 238.6 731 230 747 228s32.7 2.7 45.3 12.6c0 1.7 2.9 3.5 2.9 5.2v177.5H478.6l-2.2-2.8z"/><linearGradient id="e" gradientUnits="userSpaceOnUse" x1="611.308" y1="289.55" x2="715.439" y2="469.91"><stop offset=".236" stop-color="#77bfbb"/><stop offset=".268" stop-color="#74bab6"/><stop offset=".396" stop-color="#6aada8"/><stop offset=".555" stop-color="#64a5a0"/><stop offset=".84" stop-color="#62a39e"/></linearGradient><path opacity=".89" fill="url(#e)" d="M476.9 420.5c-5-15.1-5.8-46.2 6.6-56.3 12.4-10.1 28.3-14.5 43.9-17.9 15.6-3.4 31.6-6 45.8-13.3 28.3-14.6 46.8-46.6 77.8-53.9 14.2-3.3 30.5-1.3 41.9-10.4 5.8-4.6 9.3-11.4 13.8-17.3 9.8-12.8 24.8-21.4 40.8-23.4s32.7 2.7 45.3 12.6c0 1.7 2.9 3.5 2.9 5.2v177.5H479.1l-2.2-2.8z"/><g fill="#191A38"><path d="M85.9 135.1h-5.4v17.3h-5.4v-17.3h-5.4v-4.8H86v4.8zM87.2 151.6c-1.1-.6-2-1.5-2.7-2.6s-1-2.3-1-3.6.3-2.5 1-3.6c.6-1.1 1.5-2 2.7-2.6 1.1-.6 2.4-.9 3.8-.9s2.7.3 3.8.9c1.1.6 2 1.5 2.7 2.6.6 1.1 1 2.3 1 3.6s-.3 2.5-1 3.6-1.5 1.9-2.7 2.6-2.4.9-3.8.9c-1.4.1-2.7-.2-3.8-.9zm5.1-3.8c.4-.2.7-.5.9-.9.2-.4.3-.9.3-1.4s-.1-1-.3-1.4c-.2-.4-.5-.7-.9-1s-.8-.3-1.3-.3-.9.1-1.3.3c-.4.2-.7.5-.9.9-.2.4-.3.9-.3 1.4s.1 1 .3 1.4c.2.4.5.7.9.9.4.2.8.3 1.3.3s.9 0 1.3-.2zM115.6 138.5v12.9c0 1.8-.3 3.3-1 4.5-.7 1.2-1.6 2.1-2.8 2.7-1.2.6-2.7.9-4.3.9-1.3 0-2.5-.2-3.8-.5-1.3-.4-2.4-1-3.4-2l2.5-3.4c1.5 1.1 2.9 1.6 4.3 1.6 1 0 1.8-.3 2.4-.9.6-.6.8-1.6.8-2.8v-.7c-.9 1.2-2.3 1.8-3.9 1.8-1.2 0-2.3-.3-3.3-.9s-1.8-1.5-2.4-2.6c-.6-1.1-.9-2.4-.9-3.8s.3-2.7.9-3.8c.6-1.1 1.4-1.9 2.3-2.6s2.1-.9 3.3-.9c1.7 0 3 .6 4 1.9v-1.5h5.3zm-6.4 9.3c.4-.3.7-.6 1-1 .2-.4.4-.9.4-1.4 0-.5-.1-1-.4-1.4s-.6-.8-1-1-.9-.4-1.4-.4c-.5 0-1 .1-1.4.4-.4.2-.7.6-1 1s-.4.9-.4 1.4c0 .5.1 1 .4 1.4.2.4.6.8 1 1 .4.3.9.4 1.4.4.5 0 1-.1 1.4-.4zM132.2 146.3h-9.1c.1.8.4 1.4.7 1.8s.9.6 1.6.6c.5 0 1-.1 1.5-.4.4-.2.8-.6 1-1.1l4.1 1.7c-.5 1.2-1.3 2.1-2.5 2.8-1.1.7-2.5 1-4.1 1-1.6 0-2.9-.3-4.1-.9-1.2-.6-2.1-1.5-2.7-2.6-.6-1.1-.9-2.3-.9-3.6 0-1.3.3-2.6.9-3.7.6-1.1 1.5-2 2.6-2.6 1.1-.6 2.4-1 3.9-1 1.3 0 2.6.3 3.6.8 1.1.6 1.9 1.4 2.5 2.4.6 1.1.9 2.3.9 3.8v1zm-8.4-4.2c-.3.3-.6.9-.7 1.6h4c-.1-.7-.3-1.3-.5-1.6s-.7-.5-1.4-.5c-.6 0-1.1.2-1.4.5zM143.3 142.4h-2.4v9.9h-5.3v-9.9h-2.4v-3.9h2.4v-5h5.3v5h2.4v3.9zM157.3 139c.8.5 1.4 1.1 1.8 1.9.4.8.6 1.7.6 2.8v8.7h-5.3v-8c0-.5-.2-.8-.5-1.1-.3-.3-.7-.4-1.2-.4-.6 0-1.1.2-1.5.5-.4.3-.6.8-.6 1.3v7.7h-5.3v-22h5.3v9.9c.5-.6 1-1.1 1.7-1.5.7-.3 1.4-.5 2.3-.5 1.1 0 2 .2 2.7.7zM176.3 146.3h-9.1c.1.8.4 1.4.7 1.8s.9.6 1.6.6c.5 0 1-.1 1.5-.4.4-.2.8-.6 1-1.1l4.1 1.7c-.5 1.2-1.3 2.1-2.5 2.8-1.1.7-2.5 1-4.1 1-1.6 0-2.9-.3-4.1-.9-1.2-.6-2.1-1.5-2.7-2.6-.6-1.1-.9-2.3-.9-3.6 0-1.3.3-2.6.9-3.7.6-1.1 1.5-2 2.6-2.6 1.1-.6 2.4-1 3.9-1 1.3 0 2.6.3 3.6.8 1.1.6 1.9 1.4 2.5 2.4.6 1.1.9 2.3.9 3.8v1zm-8.4-4.2c-.3.3-.6.9-.7 1.6h4c-.1-.7-.3-1.3-.5-1.6s-.7-.5-1.4-.5c-.6 0-1.1.2-1.4.5zM189.3 138.4c.4.1.7.4 1.1.6l-1.8 4.5c-.5-.3-1.1-.5-1.7-.5-.5 0-1 .1-1.4.4-.4.3-.8.7-1.1 1.2s-.4 1.2-.4 1.9v5.7h-5.3v-13.8h5.3v2.3c.4-.8.9-1.4 1.6-1.9.7-.4 1.4-.7 2.3-.7.6.1 1 .2 1.4.3zM221.2 138.5l-4.5 13.8h-5.1l-2.3-8-2.3 8h-5l-4.4-13.8h5.5l1.9 7.8 2.3-7.8h4.2l2.3 7.7 1.9-7.7h5.5zM236.5 146.3h-9.1c.1.8.4 1.4.7 1.8s.9.6 1.6.6c.5 0 1-.1 1.5-.4.4-.2.8-.6 1-1.1l4.1 1.7c-.5 1.2-1.3 2.1-2.5 2.8-1.1.7-2.5 1-4.1 1-1.6 0-2.9-.3-4.1-.9-1.2-.6-2.1-1.5-2.7-2.6-.6-1.1-.9-2.3-.9-3.6 0-1.3.3-2.6.9-3.7.6-1.1 1.5-2 2.6-2.6 1.1-.6 2.4-1 3.9-1 1.3 0 2.6.3 3.6.8 1.1.6 1.9 1.4 2.5 2.4.6 1.1.9 2.3.9 3.8v1zm-8.5-4.2c-.3.3-.6.9-.7 1.6h4c-.1-.7-.3-1.3-.5-1.6s-.7-.5-1.4-.5c-.5 0-1 .2-1.4.5zM248.4 151.6c-1.1-.6-2-1.5-2.7-2.6s-1-2.3-1-3.6.3-2.5 1-3.6c.6-1.1 1.5-2 2.7-2.6 1.1-.6 2.4-.9 3.8-.9 1 0 2 .2 2.9.6s1.7.9 2.3 1.6c.7.7 1.2 1.5 1.5 2.4l-4.3 1.7c-.2-.5-.5-.9-.9-1.2-.4-.3-.9-.5-1.5-.5-.5 0-.9.1-1.3.3-.4.2-.7.5-.9.9-.2.4-.3.8-.3 1.3s.1.9.3 1.3c.2.4.5.7.9.9.4.2.8.3 1.3.3.6 0 1-.1 1.5-.4.4-.3.7-.7.9-1.2l4.3 1.7c-.3.9-.8 1.7-1.5 2.4s-1.4 1.2-2.3 1.6c-.9.4-1.8.6-2.9.6-1.4 0-2.6-.3-3.8-1zM273.2 144.1v8.2h-4.5l-.3-1.6c-.5.6-1.1 1.1-1.7 1.4s-1.4.5-2.3.5c-1.4 0-2.5-.4-3.3-1.1-.8-.7-1.2-1.7-1.2-3 0-1 .3-1.8.8-2.5s1.3-1.2 2.5-1.6c1.1-.4 2.6-.7 4.4-.8h.5c-.1-1.1-.8-1.7-2.1-1.7-1.1 0-2.3.4-3.5 1.2l-1.9-3c1.5-1.2 3.5-1.8 5.9-1.8 4.5-.1 6.7 1.9 6.7 5.8zm-5.1 4.4v-1.8l-.6.1c-.7.1-1.2.1-1.6.2-.4.1-.6.2-.8.4s-.2.4-.2.7c0 .4.1.7.4.9.3.2.6.3 1 .3.7-.1 1.3-.3 1.8-.8zM288.3 139c.8.5 1.3 1.1 1.8 1.9s.6 1.7.6 2.7v8.7h-5.3v-7.9c0-.6-.2-1-.5-1.3-.3-.3-.8-.5-1.4-.5-.6 0-1.1.2-1.4.6-.4.4-.5.9-.5 1.5v7.6h-5.3v-13.8h5.3v1.7c.5-.7 1.1-1.2 1.9-1.5.7-.3 1.5-.5 2.3-.5.9.1 1.7.3 2.5.8zM313.2 139.1c1 .6 1.8 1.5 2.3 2.6s.9 2.3.9 3.8c0 1.4-.3 2.7-.9 3.8-.6 1.1-1.4 2-2.3 2.6s-2.1.9-3.2.9c-1.8 0-3.2-.7-4.2-2l-.2 1.7h-4.7v-22h5.3v9.5c.9-1.1 2.2-1.6 3.8-1.6 1.1-.3 2.2 0 3.2.7zm-3.4 8.7c.4-.3.7-.6 1-1 .2-.4.4-.9.4-1.4 0-.5-.1-1-.4-1.4s-.6-.8-1-1c-.4-.2-.9-.4-1.4-.4-.5 0-1 .1-1.4.4s-.7.6-1 1-.4.9-.4 1.4c0 .5.1 1 .4 1.4.2.4.6.8 1 1 .4.3.9.4 1.4.4.5 0 1-.1 1.4-.4zM321.7 151.9c-1-.5-1.8-1.1-2.4-2-.5-.9-.8-1.9-.8-3v-8.4h5.3v8c0 .6.2 1.1.5 1.4.3.3.7.4 1.2.4s.9-.1 1.3-.4c.3-.3.5-.8.5-1.4v-8h5.3v8.4c0 1.2-.3 2.2-.8 3-.5.9-1.3 1.5-2.4 2-1.1.5-2.3.7-3.9.7-1.5 0-2.8-.2-3.8-.7zM336.9 135.9c-.4-.3-.8-.6-1-1-.3-.4-.4-.9-.4-1.4 0-.5.1-1 .4-1.4s.6-.8 1-1c.4-.2.9-.4 1.4-.4.5 0 1 .1 1.4.4.4.2.8.6 1 1 .3.4.4.9.4 1.4 0 .5-.1 1-.4 1.4-.3.4-.6.8-1 1-.4.3-.9.4-1.4.4-.5 0-1-.1-1.4-.4zm-1.3 2.6h5.3v13.8h-5.3v-13.8zM344.4 130.3h5.3v22h-5.3v-22zM367.7 130.3v22H363l-.2-1.7c-1 1.3-2.4 2-4.2 2-1.2 0-2.2-.3-3.2-.9s-1.8-1.5-2.3-2.6c-.6-1.1-.9-2.4-.9-3.8s.3-2.7.9-3.8 1.4-1.9 2.3-2.6c1-.6 2.1-.9 3.2-.9 1.6 0 2.9.5 3.8 1.6v-9.5h5.3zm-6.2 17.5c.4-.3.7-.6 1-1 .2-.4.4-.9.4-1.4 0-.5-.1-1-.4-1.4s-.6-.8-1-1-.9-.4-1.4-.4c-.5 0-1 .1-1.4.4-.4.2-.7.6-1 1s-.4.9-.4 1.4c0 .5.1 1 .4 1.4.2.4.6.8 1 1 .4.3.9.4 1.4.4.5 0 1-.1 1.4-.4zM82.8 177.7c.8.5 1.4 1.1 1.8 1.9.4.8.6 1.7.6 2.8v8.7h-5.3v-8c0-.5-.2-.8-.5-1.1-.3-.3-.7-.4-1.2-.4-.6 0-1.1.2-1.5.5-.4.3-.6.8-.6 1.3v7.7h-5.3v-22h5.3v9.9c.5-.6 1-1.1 1.7-1.5.7-.3 1.4-.5 2.3-.5 1 0 1.9.2 2.7.7zM90.8 190.4c-1.1-.6-2-1.5-2.7-2.6s-1-2.3-1-3.6.3-2.5 1-3.6c.6-1.1 1.5-2 2.7-2.6 1.1-.6 2.4-.9 3.8-.9s2.7.3 3.8.9c1.1.6 2 1.5 2.7 2.6.6 1.1 1 2.3 1 3.6s-.3 2.5-1 3.6-1.5 1.9-2.7 2.6-2.4.9-3.8.9-2.6-.3-3.8-.9zm5.1-3.9c.4-.2.7-.5.9-.9.2-.4.3-.9.3-1.4s-.1-1-.3-1.4c-.2-.4-.5-.7-.9-1s-.8-.3-1.3-.3-.9.1-1.3.3c-.4.2-.7.5-.9.9-.2.4-.3.9-.3 1.4s.1 1 .3 1.4c.2.4.5.7.9.9.4.2.8.3 1.3.3s.9 0 1.3-.2zM124.4 177.7c.8.5 1.4 1.1 1.8 1.9.4.8.6 1.7.6 2.8v8.7h-5.3v-8c0-.5-.1-.9-.4-1.2-.3-.3-.6-.4-1.1-.4-.6 0-1 .2-1.3.6s-.4.9-.4 1.4v7.7H113v-8c0-.5-.1-.9-.4-1.2-.3-.3-.7-.4-1.2-.4-.6 0-1 .2-1.3.6s-.4.9-.4 1.4v7.7h-5.3v-13.8h5.3v1.6c.4-.6 1-1 1.6-1.3s1.3-.5 2-.5c.9 0 1.7.2 2.4.6.7.4 1.3 1 1.7 1.7.5-.7 1.1-1.3 1.8-1.7s1.5-.6 2.5-.6c1-.3 1.9-.1 2.7.4zM143.4 185h-9.1c.1.8.4 1.4.7 1.8s.9.6 1.6.6c.5 0 1-.1 1.5-.4.4-.2.8-.6 1-1.1l4.1 1.7c-.5 1.2-1.3 2.1-2.5 2.8-1.1.7-2.5 1-4.1 1-1.6 0-2.9-.3-4.1-.9-1.2-.6-2.1-1.5-2.7-2.6-.6-1.1-.9-2.3-.9-3.6 0-1.3.3-2.6.9-3.7.6-1.1 1.5-2 2.6-2.6 1.1-.6 2.4-1 3.9-1 1.3 0 2.6.3 3.6.8 1.1.6 1.9 1.4 2.5 2.4.6 1.1.9 2.3.9 3.8v1zm-8.5-4.2c-.3.3-.6.9-.7 1.6h4c-.1-.7-.3-1.3-.5-1.6s-.7-.5-1.4-.5c-.5 0-1 .2-1.4.5zM147.6 190.8c-1.2-.3-2.2-.8-3-1.2l1.9-3.3c.6.4 1.4.7 2.3 1 .9.3 1.7.4 2.3.4.4 0 .8-.1 1.1-.2.3-.1.4-.3.4-.6s-.1-.4-.4-.5c-.3-.1-.7-.2-1.4-.4-.2 0-.4-.1-.7-.2-.3-.1-.6-.2-.9-.2-1.2-.3-2.2-.8-2.9-1.5-.7-.6-1.1-1.5-1.1-2.7 0-1 .3-1.8.9-2.5.6-.7 1.3-1.2 2.3-1.5s2-.5 3.1-.5 2.1.1 3.1.4 1.9.6 2.6 1.1l-2 2.9c-.6-.3-1.3-.6-2.1-.8s-1.5-.4-2.1-.4c-.3 0-.6.1-.8.2-.2.1-.3.2-.3.4s.1.4.3.5c.2.1.5.3.8.3.3.1.8.2 1.3.3.3.1.5.1.6.1 1.1.3 1.9.6 2.6.9s1.2.8 1.5 1.4.5 1.3.5 2.1c0 1-.3 1.9-.8 2.6-.5.7-1.2 1.3-2.2 1.6-.9.4-2 .5-3.3.5-1.2.4-2.4.2-3.6-.2zM181.5 169.1v22h-4.7l-.2-1.7c-1 1.3-2.4 2-4.2 2-1.2 0-2.2-.3-3.2-.9s-1.8-1.5-2.3-2.6c-.6-1.1-.9-2.4-.9-3.8s.3-2.7.9-3.8 1.4-1.9 2.3-2.6c1-.6 2.1-.9 3.2-.9 1.6 0 2.9.5 3.8 1.6v-9.5h5.3zm-6.2 17.5c.4-.3.7-.6 1-1 .2-.4.4-.9.4-1.4 0-.5-.1-1-.4-1.4s-.6-.8-1-1-.9-.4-1.4-.4c-.5 0-1 .1-1.4.4-.4.2-.7.6-1 1s-.4.9-.4 1.4c0 .5.1 1 .4 1.4.2.4.6.8 1 1 .4.3.9.4 1.4.4.5 0 1-.2 1.4-.4zM186.2 174.7c-.4-.3-.8-.6-1-1-.3-.4-.4-.9-.4-1.4 0-.5.1-1 .4-1.4s.6-.8 1-1c.4-.2.9-.4 1.4-.4.5 0 1 .1 1.4.4.4.2.8.6 1 1 .3.4.4.9.4 1.4 0 .5-.1 1-.4 1.4-.3.4-.6.8-1 1-.4.3-.9.4-1.4.4-.5-.1-.9-.2-1.4-.4zm-1.2 2.6h5.3v13.8H185v-13.8zM213.3 181.1H210.1v9.9h-5.3v-9.9h-4.7v9.9h-5.3v-9.9h-2.5v-3.9h2.5v-2.9c0-1.1.2-2.1.7-3 .5-.9 1.1-1.5 2-2 .9-.5 1.9-.7 3-.7.6 0 1.2 0 1.6.1.5.1.8.2 1 .3v4.6c-.2-.2-.5-.3-.7-.4-.3-.1-.6-.1-.9-.1-.4 0-.8.2-1 .5-.3.3-.4.7-.4 1.3v2.3h4.7v-2.9c0-1.1.2-2.1.7-3 .5-.9 1.1-1.5 2-2 .9-.5 1.9-.7 3-.7.6 0 1.2 0 1.6.1.5.1.8.2 1 .3v4.6c-.2-.2-.5-.3-.7-.4-.3-.1-.6-.1-.9-.1-.4 0-.8.2-1 .5-.3.3-.4.7-.4 1.3v2.3h3.1v3.9zM228.7 185h-9.1c.1.8.4 1.4.7 1.8s.9.6 1.6.6c.5 0 1-.1 1.5-.4.4-.2.8-.6 1-1.1l4.1 1.7c-.5 1.2-1.3 2.1-2.5 2.8-1.1.7-2.5 1-4.1 1-1.6 0-2.9-.3-4.1-.9-1.2-.6-2.1-1.5-2.7-2.6-.6-1.1-.9-2.3-.9-3.6 0-1.3.3-2.6.9-3.7.6-1.1 1.5-2 2.6-2.6 1.1-.6 2.4-1 3.9-1 1.3 0 2.6.3 3.6.8 1.1.6 1.9 1.4 2.5 2.4.6 1.1.9 2.3.9 3.8v1zm-8.4-4.2c-.3.3-.6.9-.7 1.6h4c-.1-.7-.3-1.3-.5-1.6s-.7-.5-1.4-.5c-.6 0-1.1.2-1.4.5zM241.7 177.2c.4.1.7.4 1.1.6l-1.8 4.5c-.5-.3-1.1-.5-1.7-.5-.5 0-1 .1-1.4.4-.4.3-.8.7-1.1 1.2s-.4 1.2-.4 1.9v5.7h-5.3v-13.8h5.3v2.3c.4-.8.9-1.4 1.6-1.9.7-.4 1.4-.7 2.3-.7.6.1 1.1.1 1.4.3zM257.4 185h-9.1c.1.8.4 1.4.7 1.8s.9.6 1.6.6c.5 0 1-.1 1.5-.4.4-.2.8-.6 1-1.1l4.1 1.7c-.5 1.2-1.3 2.1-2.5 2.8-1.1.7-2.5 1-4.1 1-1.6 0-2.9-.3-4.1-.9-1.2-.6-2.1-1.5-2.7-2.6-.6-1.1-.9-2.3-.9-3.6 0-1.3.3-2.6.9-3.7.6-1.1 1.5-2 2.6-2.6 1.1-.6 2.4-1 3.9-1 1.3 0 2.6.3 3.6.8 1.1.6 1.9 1.4 2.5 2.4.6 1.1.9 2.3.9 3.8v1zm-8.4-4.2c-.3.3-.6.9-.7 1.6h4c-.1-.7-.3-1.3-.5-1.6s-.7-.5-1.4-.5c-.6 0-1.1.2-1.4.5zM271.8 177.7c.8.5 1.3 1.1 1.8 1.9s.6 1.7.6 2.7v8.7H269v-7.9c0-.6-.2-1-.5-1.3-.3-.3-.8-.5-1.4-.5-.6 0-1.1.2-1.4.6-.4.4-.5.9-.5 1.5v7.6h-5.3v-13.8h5.3v1.7c.5-.7 1.1-1.2 1.9-1.5.7-.3 1.5-.5 2.3-.5.9.1 1.7.3 2.4.8zM286 181.1h-2.4v9.9h-5.3v-9.9H276v-3.9h2.4v-5h5.3v5h2.4v3.9zM288.1 169.1h5.3v22h-5.3v-22zM312.6 177.3l-8.3 20.7h-5.4l2.8-6.9h-1.2l-5.7-13.8h5.8l3.2 9.7 3.4-9.7h5.4zM315.5 191c-.4-.3-.8-.6-1-1-.3-.4-.4-.9-.4-1.4 0-.5.1-1 .4-1.4.3-.4.6-.8 1-1 .4-.3.9-.4 1.4-.4.5 0 1 .1 1.4.4.4.3.8.6 1 1 .3.4.4.9.4 1.4 0 .5-.1 1-.4 1.4-.3.4-.6.8-1 1-.4.3-.9.4-1.4.4-.5 0-1-.2-1.4-.4z"/></g><g fill="#191A38"><path d="M532.5 68.5c.4.4.6.9.6 1.6v3.1h-1.3l-.1-.6c-.2.2-.4.4-.7.5s-.5.2-.9.2c-.3 0-.6-.1-.9-.2s-.5-.3-.6-.5c-.1-.2-.2-.5-.2-.8 0-.5.2-.9.6-1.2.4-.3 1.1-.5 2.1-.6h.5c0-.3-.1-.5-.3-.6-.2-.1-.4-.2-.7-.2-.3 0-.5 0-.7.1-.2.1-.5.2-.7.4l-.6-.9c.3-.2.6-.4.9-.5.3-.1.8-.2 1.2-.2.8-.1 1.4.1 1.8.4zm-.9 3.2v-.8h-.4c-.4 0-.6.1-.8.1-.2.1-.3.1-.4.2-.1.1-.1.2-.1.3 0 .2.1.3.2.4.1.1.3.1.5.1.4.2.8.1 1-.3zM538.8 68.3c.4.2.7.5.9 1s.3.9.3 1.4c0 .5-.1 1-.3 1.4-.2.4-.5.7-.9 1-.4.2-.8.3-1.2.3-.4 0-.7-.1-1-.2-.3-.1-.5-.3-.7-.6l-.1.7h-1.4v-8.1h1.5v3.6c.4-.5.9-.7 1.6-.7.5-.1.9 0 1.3.2zm-.9 3.5c.2-.1.4-.3.5-.5.1-.2.2-.4.2-.7s-.1-.5-.2-.7c-.1-.2-.3-.4-.5-.5-.2-.1-.4-.2-.7-.2s-.5.1-.7.2-.4.3-.5.5c-.1.2-.2.4-.2.7s.1.5.2.7c.1.2.3.4.5.5s.4.2.7.2.5-.1.7-.2zM542 72.9c-.4-.2-.7-.6-1-1s-.4-.8-.4-1.3.1-.9.4-1.3.6-.7 1-1c.4-.2.9-.4 1.4-.4.5 0 1 .1 1.4.4.4.2.7.6 1 1 .2.4.4.8.4 1.3s-.1.9-.4 1.3c-.2.4-.6.7-1 1-.4.2-.9.4-1.4.4-.5 0-1-.1-1.4-.4zm2-1.1c.2-.1.3-.3.5-.5.1-.2.2-.4.2-.7 0-.3-.1-.5-.2-.7-.1-.2-.3-.4-.5-.5-.2-.1-.4-.2-.6-.2s-.4.1-.6.2c-.2.1-.3.3-.5.5-.1.2-.2.4-.2.7 0 .3.1.5.2.7.1.2.3.4.5.5s.4.2.6.2.4-.1.6-.2zM548.1 73c-.3-.2-.6-.4-.8-.7-.2-.3-.3-.7-.3-1.1V68h1.5v3c0 .3.1.5.2.6.1.2.3.2.6.2.2 0 .4-.1.6-.2.2-.2.2-.4.2-.6v-3h1.5v3.2c0 .4-.1.8-.3 1.1s-.5.5-.8.7c-.3.2-.8.3-1.3.3-.3 0-.7-.1-1.1-.3zM555.9 69.3h-1v3.9h-1.5v-3.9h-1v-1.2h1v-1.8h1.5v1.8h1v1.2z"/></g><path fill="#2E8A9E" d="M46.2 73.2c-.5-.3-.8-.6-1.1-1.1-.3-.4-.4-.9-.4-1.5 0-.5.1-1 .4-1.5.3-.4.6-.8 1.1-1.1.5-.3 1-.4 1.5-.4.4 0 .8.1 1.1.2.4.1.7.4.9.6s.5.6.6.9l-1.3.8c-.1-.3-.3-.5-.5-.6-.2-.2-.5-.2-.8-.2-.3 0-.5.1-.7.2-.2.1-.4.3-.5.5-.1.2-.2.5-.2.7 0 .3.1.5.2.7.1.2.3.4.5.5.2.1.5.2.7.2.3 0 .6-.1.8-.2.2-.2.4-.4.5-.6l1.4.6c-.1.4-.4.7-.6.9s-.6.5-.9.6c-.4.1-.7.2-1.1.2-.7 0-1.2-.1-1.6-.4zM52.5 73.2c-.5-.3-.8-.6-1.1-1.1-.3-.4-.4-.9-.4-1.5 0-.5.1-1 .4-1.5.3-.4.6-.8 1.1-1.1.5-.3 1-.4 1.5-.4.6 0 1.1.1 1.5.4.5.3.8.6 1.1 1.1.3.4.4.9.4 1.5 0 .5-.1 1-.4 1.5-.3.4-.6.8-1.1 1.1-.5.3-1 .4-1.5.4-.6 0-1.1-.1-1.5-.4zm2.2-1.3c.2-.1.4-.3.5-.5.1-.2.2-.5.2-.7 0-.3-.1-.5-.2-.7-.1-.2-.3-.4-.5-.5s-.4-.2-.7-.2-.5.1-.7.2c-.2.1-.4.3-.5.5-.1.2-.2.5-.2.8 0 .3.1.5.2.7.1.2.3.4.5.5.2.1.4.2.7.2s.5-.1.7-.3zM58.2 64.5h1.7v9h-1.7v-9zM61.5 64.5h1.7v9h-1.7v-9zM70.6 67.9v5.6h-1.5l-.1-.8c-.2.3-.5.5-.8.6-.3.2-.7.2-1.1.2-.5 0-.9-.1-1.3-.4-.4-.3-.7-.6-1-1.1-.2-.5-.4-1-.4-1.5 0-.6.1-1.1.4-1.5.2-.4.6-.8 1-1.1.4-.3.9-.4 1.3-.4.7 0 1.3.3 1.8.8v-.7h1.7zM68.3 72c.2-.1.4-.3.5-.5.1-.2.2-.5.2-.7 0-.3-.1-.5-.2-.7-.1-.2-.3-.4-.5-.5s-.5-.2-.7-.2-.5.1-.7.2-.4.3-.5.5c-.1.2-.2.5-.2.7 0 .3.1.5.2.7.1.2.3.4.5.5.2.1.5.2.7.2s.5-.1.7-.2zM77.1 68.1c.4.3.7.6 1 1.1.2.4.4 1 .4 1.5 0 .6-.1 1.1-.4 1.5-.2.5-.6.8-1 1.1-.4.3-.9.4-1.3.4s-.8-.1-1.1-.2c-.3-.2-.6-.4-.8-.6l-.1.8h-1.5v-9H74v4c.4-.5 1-.8 1.8-.8.4-.2.9 0 1.3.2zM76 72c.2-.1.4-.3.5-.5.1-.2.2-.5.2-.7 0-.3-.1-.5-.2-.7-.1-.2-.3-.4-.5-.5s-.5-.2-.7-.2-.5.1-.7.2-.4.3-.5.5c-.1.2-.2.5-.2.7 0 .3.1.5.2.7.1.2.3.4.5.5.2.1.5.2.7.2s.5-.1.7-.2zM80.6 73.2c-.5-.3-.8-.6-1.1-1.1-.3-.4-.4-.9-.4-1.5 0-.5.1-1 .4-1.5.3-.4.6-.8 1.1-1.1.5-.3 1-.4 1.5-.4.6 0 1.1.1 1.5.4.5.3.8.6 1.1 1.1.3.4.4.9.4 1.5 0 .5-.1 1-.4 1.5-.3.4-.6.8-1.1 1.1-.5.3-1 .4-1.5.4s-1-.1-1.5-.4zm2.3-1.3c.2-.1.4-.3.5-.5.1-.2.2-.5.2-.7 0-.3-.1-.5-.2-.7-.1-.2-.3-.4-.5-.5s-.4-.2-.7-.2-.5.1-.7.2c-.2.1-.4.3-.5.5-.1.2-.2.5-.2.8 0 .3.1.5.2.7.1.2.3.4.5.5.2.1.4.2.7.2s.4-.1.7-.3zM90.5 68.1l-.6 1.4c-.2-.1-.4-.2-.6-.2-.2 0-.5.1-.7.2-.2.1-.4.3-.5.6s-.1.5-.1.8v2.6h-1.7v-5.6H88v.9c.2-.3.4-.6.6-.7.3-.2.6-.3.9-.3.4 0 .7.1 1 .3zM96.8 67.9v5.6h-1.5l-.1-.8c-.2.3-.5.5-.8.6-.3.2-.7.2-1.1.2-.5 0-.9-.1-1.3-.4-.4-.3-.7-.6-1-1.1-.2-.5-.4-1-.4-1.5 0-.6.1-1.1.4-1.5.2-.4.6-.8 1-1.1.4-.3.9-.4 1.3-.4.7 0 1.3.3 1.8.8v-.7h1.7zM94.5 72c.2-.1.4-.3.5-.5.1-.2.2-.5.2-.7 0-.3-.1-.5-.2-.7-.1-.2-.3-.4-.5-.5s-.5-.2-.7-.2c-.3 0-.5.1-.7.2s-.4.3-.5.5c-.1.2-.2.5-.2.7 0 .3.1.5.2.7.1.2.3.4.5.5.2.1.5.2.7.2.3 0 .5-.1.7-.2zM101.6 69.2h-1.1v4.3h-1.7v-4.3h-1.1v-1.3h1.1v-2h1.7v2h1.1v1.3zM103 66.8c-.1-.1-.3-.2-.3-.3-.1-.1-.1-.3-.1-.5s0-.3.1-.5.2-.3.3-.3.3-.1.5-.1.3 0 .5.1.3.2.3.3.1.3.1.5 0 .3-.1.5c-.1.1-.2.3-.3.3s-.3.1-.5.1-.4 0-.5-.1zm-.4 1.1h1.7v5.6h-1.7v-5.6zM111.3 67.9l-2.4 5.6h-1.3l-2.4-5.6h1.8l1.3 3.6 1.3-3.6h1.7zM117.5 71h-4.2c.1.4.2.7.5 1 .2.2.5.3.9.3.3 0 .5-.1.8-.2.2-.1.4-.3.5-.6l1.3.6c-.2.5-.6.8-1 1.1-.5.3-1 .4-1.6.4-.6 0-1.1-.1-1.6-.4-.5-.3-.8-.6-1.1-1.1-.3-.4-.4-.9-.4-1.5 0-.5.1-1 .4-1.5.3-.4.6-.8 1.1-1.1.5-.3 1-.4 1.5-.4s1 .1 1.5.4c.4.2.8.6 1 1s.4.9.4 1.5v.5zm-3.7-1.7c-.2.2-.4.4-.5.7h2.4c-.2-.6-.6-.9-1.2-.9-.2-.1-.4 0-.7.2z"/><path fill="#191A38" d="M123 68c.3.2.6.4.7.8.2.3.3.7.3 1.1v3.6h-1.7v-3.4c0-.3-.1-.5-.3-.6-.2-.2-.4-.2-.6-.2-.2 0-.4 0-.5.1s-.3.2-.4.3c-.1.1-.1.3-.1.5v3.4h-1.7v-9h1.7v3.9c.2-.2.4-.4.7-.5.3-.1.5-.2.9-.2.3 0 .6.1 1 .2zM126.5 73.2c-.5-.3-.8-.6-1.1-1.1-.3-.4-.4-.9-.4-1.5 0-.5.1-1 .4-1.5.3-.4.6-.8 1.1-1.1.5-.3 1-.4 1.5-.4.6 0 1.1.1 1.5.4.5.3.8.6 1.1 1.1.3.4.4.9.4 1.5 0 .5-.1 1-.4 1.5-.3.4-.6.8-1.1 1.1-.5.3-1 .4-1.5.4-.6 0-1.1-.1-1.5-.4zm2.2-1.3c.2-.1.4-.3.5-.5.1-.2.2-.5.2-.7 0-.3-.1-.5-.2-.7-.1-.2-.3-.4-.5-.5s-.4-.2-.7-.2-.5.1-.7.2c-.2.1-.4.3-.5.5-.1.2-.2.5-.2.8 0 .3.1.5.2.7.1.2.3.4.5.5.2.1.4.2.7.2s.5-.1.7-.3zM133.2 73.3c-.4-.2-.7-.4-.9-.8-.2-.3-.3-.7-.3-1.2v-3.5h1.7v3.4c0 .3.1.5.2.7.2.2.4.3.6.3.3 0 .5-.1.7-.3.2-.2.2-.4.2-.7v-3.4h1.7v3.5c0 .5-.1.9-.3 1.2-.2.3-.5.6-.9.8-.4.2-.9.3-1.4.3s-.9-.1-1.3-.3zM139.2 73.4c-.4-.1-.8-.3-1.1-.5l.7-1.1c.2.2.5.3.8.4.3.1.6.2.9.2.2 0 .4 0 .6-.1.1-.1.2-.2.2-.4 0-.1 0-.2-.1-.3s-.2-.1-.3-.2c-.1 0-.3-.1-.5-.1-.1 0-.3-.1-.4-.1l-.9-.3c-.3-.1-.4-.3-.6-.5-.2-.2-.2-.5-.2-.8 0-.4.1-.7.3-1s.5-.5.9-.6c.4-.1.8-.2 1.2-.2.4 0 .8.1 1.1.2.4.1.7.2 1 .4l-.7 1c-.2-.1-.5-.2-.8-.3s-.6-.1-.8-.1c-.2 0-.4 0-.5.1s-.2.2-.2.3c0 .1 0 .2.1.3.1.1.2.1.3.2s.3.1.6.2l.3.1c.4.1.7.2 1 .3.3.1.5.3.6.5.1.2.2.5.2.8 0 .4-.1.8-.3 1s-.5.5-.8.6c-.4.1-.8.2-1.2.2-.5 0-1 0-1.4-.2zM144.5 66.8c-.1-.1-.3-.2-.3-.3-.1-.1-.1-.3-.1-.5s0-.3.1-.5.2-.3.3-.3.3-.1.5-.1.3 0 .5.1.3.2.3.3.1.3.1.5 0 .3-.1.5c-.1.1-.2.3-.3.3s-.3.1-.5.1-.3 0-.5-.1zm-.3 1.1h1.7v5.6h-1.7v-5.6zM151.8 68c.3.2.5.4.7.8.2.3.3.7.3 1.1v3.6h-1.7v-3.4c0-.3-.1-.5-.3-.7-.2-.2-.4-.2-.7-.2-.3 0-.5.1-.7.3-.2.2-.3.4-.3.7v3.3h-1.7v-5.6h1.7v.6c.2-.2.4-.4.7-.5.3-.1.6-.2.9-.2.5 0 .8.1 1.1.2zM160.1 67.9v5.4c0 .7-.1 1.2-.4 1.7s-.6.8-1.1 1.1c-.5.2-1 .4-1.6.4-.5 0-1-.1-1.5-.3-.5-.2-.9-.5-1.3-1l.9-1c.3.3.6.5.9.7.3.1.6.2.9.2s.6-.1.8-.2c.2-.1.4-.3.6-.6s.2-.6.2-.9v-.5c-.4.5-1 .8-1.8.8-.5 0-1-.1-1.4-.4-.4-.3-.8-.6-1-1.1-.2-.4-.4-1-.4-1.5 0-.6.1-1.1.4-1.5.2-.4.6-.8 1-1.1.4-.3.9-.4 1.4-.4.7 0 1.3.3 1.8.8v-.7h1.6zm-2.4 4.1c.2-.1.4-.3.5-.5.1-.2.2-.5.2-.7 0-.3-.1-.5-.2-.7-.1-.2-.3-.4-.5-.5s-.5-.2-.7-.2-.5.1-.7.2-.4.3-.5.5c-.1.2-.2.5-.2.7 0 .3.1.5.2.7.1.2.3.4.5.5.2.1.5.2.7.2s.5-.1.7-.2z"/><g fill="#F9B529"><path d="M586.5 73.1c-.4-.1-.7-.3-1-.5l.6-1c.2.2.5.3.8.4.3.1.6.2.8.2.2 0 .4 0 .5-.1.1-.1.2-.2.2-.3 0-.1 0-.2-.1-.2-.1-.1-.2-.1-.3-.1-.1 0-.3-.1-.5-.1-.1 0-.2-.1-.4-.1-.3-.1-.6-.2-.8-.3-.2-.1-.4-.3-.5-.5-.1-.2-.2-.4-.2-.8 0-.3.1-.6.3-.9s.5-.4.8-.5c.3-.1.7-.2 1.1-.2.4 0 .7 0 1 .1.3.1.6.2.9.4l-.6.9c-.2-.1-.4-.2-.7-.3-.3-.1-.5-.1-.7-.1-.2 0-.3 0-.4.1s-.2.2-.2.3c0 .1 0 .2.1.3.1.1.2.1.3.2.1 0 .3.1.5.1l.2.1.9.3c.2.1.4.3.5.5s.2.5.2.8c0 .4-.1.7-.3.9-.2.3-.4.4-.7.6-.3.1-.7.2-1.1.2-.4-.2-.8-.3-1.2-.4zM595.8 70.9H592c.1.4.2.7.4.9.2.2.5.3.8.3.3 0 .5-.1.7-.2.2-.1.4-.3.5-.5l1.2.5c-.2.4-.5.8-.9 1s-.9.4-1.5.4c-.5 0-1-.1-1.5-.3-.4-.2-.7-.5-1-1-.2-.4-.3-.8-.3-1.3s.1-.9.3-1.3.6-.7 1-1c.4-.2.9-.4 1.4-.4.5 0 .9.1 1.3.3s.7.5.9.9c.2.4.3.8.3 1.4v.3zm-3.3-1.5c-.2.1-.3.3-.4.6h2.2c-.2-.5-.5-.8-1-.8-.3 0-.6 0-.8.2zM600.7 68.3l-.5 1.3c-.2-.1-.4-.1-.5-.1-.2 0-.4.1-.6.2-.2.1-.3.3-.4.5-.1.2-.2.5-.2.8v2.3H597v-5.1h1.5v.8c.1-.3.3-.5.6-.7.2-.2.5-.2.8-.2.3-.1.5 0 .8.2zM606.5 68.1l-2.2 5.1h-1.2l-2.2-5.1h1.6l1.1 3.3 1.2-3.3h1.7zM607.7 67.1l-.3-.3c-.1-.1-.1-.3-.1-.4 0-.2 0-.3.1-.4l.3-.3c.1-.1.3-.1.4-.1.2 0 .3 0 .4.1l.3.3c.1.1.1.3.1.4 0 .2 0 .3-.1.4l-.3.3c-.1.1-.3.1-.4.1-.2 0-.3 0-.4-.1zm-.4 1h1.5v5.1h-1.5v-5.1zM611.2 72.9c-.4-.2-.7-.6-1-1s-.4-.8-.4-1.3.1-.9.4-1.3.6-.7 1-1c.4-.2.9-.4 1.4-.4.4 0 .7.1 1 .2.3.1.6.3.9.6.2.2.4.5.6.8l-1.3.5c-.1-.2-.3-.4-.5-.6-.2-.1-.4-.2-.7-.2-.2 0-.5.1-.7.2s-.3.3-.5.5c-.1.2-.2.4-.2.7 0 .2.1.5.2.6.1.2.3.3.5.5.2.1.4.2.7.2.3 0 .5-.1.7-.2.2-.1.4-.3.5-.6l1.3.5c-.1.3-.3.6-.6.8-.2.2-.5.4-.9.6-.3.1-.7.2-1 .2-.5.1-.9 0-1.4-.3zM620.9 70.9h-3.8c.1.4.2.7.4.9.2.2.5.3.8.3.3 0 .5-.1.7-.2.2-.1.4-.3.5-.5l1.2.5c-.2.4-.5.8-.9 1s-.9.4-1.5.4c-.5 0-1-.1-1.5-.3-.4-.2-.7-.5-1-1-.2-.4-.3-.8-.3-1.3s.1-.9.3-1.3.6-.7 1-1c.4-.2.9-.4 1.4-.4.5 0 .9.1 1.3.3s.7.5.9.9c.2.4.3.8.3 1.4v.3zm-3.3-1.5c-.2.1-.3.3-.4.6h2.2c-.2-.5-.5-.8-1-.8-.3 0-.6 0-.8.2zM622.5 73.1c-.4-.1-.7-.3-1-.5l.6-1c.2.2.5.3.8.4.3.1.6.2.8.2.2 0 .4 0 .5-.1.1-.1.2-.2.2-.3 0-.1 0-.2-.1-.2-.1-.1-.2-.1-.3-.1-.1 0-.3-.1-.5-.1-.1 0-.2-.1-.4-.1-.3-.1-.6-.2-.8-.3-.2-.1-.4-.3-.5-.5-.1-.2-.2-.4-.2-.8 0-.3.1-.6.3-.9s.5-.4.8-.5c.3-.1.7-.2 1.1-.2.4 0 .7 0 1 .1.3.1.6.2.9.4l-.6.9c-.2-.1-.4-.2-.7-.3-.3-.1-.5-.1-.7-.1-.2 0-.3 0-.4.1s-.2.2-.2.3c0 .1 0 .2.1.3.1.1.2.1.3.2.1 0 .3.1.5.1l.2.1.9.3c.2.1.4.3.5.5s.2.5.2.8c0 .4-.1.7-.3.9-.2.3-.4.4-.7.6-.3.1-.7.2-1.1.2-.4-.2-.8-.3-1.2-.4z"/></g><g fill="#191A38"><path d="M658.7 68.3c.4.2.7.5.9 1s.3.9.3 1.4c0 .5-.1 1-.3 1.4-.2.4-.5.7-.9 1-.4.2-.8.3-1.2.3-.4 0-.7-.1-1-.2-.3-.1-.5-.3-.7-.6l-.1.7h-1.4v-8.1h1.5v3.6c.4-.5.9-.7 1.6-.7.5-.1.9 0 1.3.2zm-1 3.5c.2-.1.4-.3.5-.5.1-.2.2-.4.2-.7s-.1-.5-.2-.7c-.1-.2-.3-.4-.5-.5-.2-.1-.4-.2-.7-.2s-.5.1-.7.2-.4.3-.5.5c-.1.2-.2.4-.2.7s.1.5.2.7c.1.2.3.4.5.5s.4.2.7.2.5-.1.7-.2zM661 65.1h1.5v8.1H661v-8.1zM664.9 72.9c-.4-.2-.7-.6-1-1s-.4-.8-.4-1.3.1-.9.4-1.3.6-.7 1-1c.4-.2.9-.4 1.4-.4.5 0 1 .1 1.4.4.4.2.7.6 1 1 .2.4.4.8.4 1.3s-.1.9-.4 1.3c-.2.4-.6.7-1 1-.4.2-.9.4-1.4.4-.5 0-1-.1-1.4-.4zm2-1.1c.2-.1.3-.3.5-.5.1-.2.2-.4.2-.7 0-.3-.1-.5-.2-.7-.1-.2-.3-.4-.5-.5-.2-.1-.4-.2-.6-.2s-.4.1-.6.2c-.2.1-.3.3-.5.5-.1.2-.2.4-.2.7 0 .3.1.5.2.7.1.2.3.4.5.5s.4.2.6.2.4-.1.6-.2zM675.3 68.1V73c0 .6-.1 1.1-.4 1.5-.2.4-.6.8-1 1-.4.2-.9.3-1.5.3-.5 0-.9-.1-1.4-.3s-.9-.5-1.2-.9l.8-.9c.2.3.5.5.8.6.3.1.6.2.8.2s.5-.1.7-.2c.2-.1.4-.3.5-.5s.2-.5.2-.8v-.4c-.4.5-.9.7-1.6.7-.5 0-.9-.1-1.3-.3-.4-.2-.7-.5-.9-1s-.3-.9-.3-1.4c0-.5.1-1 .3-1.4s.5-.7.9-1 .8-.3 1.3-.3c.7 0 1.2.2 1.6.7V68h1.7zm-2.2 3.7c.2-.1.4-.3.5-.5.1-.2.2-.4.2-.7s-.1-.5-.2-.7c-.1-.2-.3-.4-.5-.5-.2-.1-.4-.2-.7-.2s-.5.1-.7.2c-.2.1-.4.3-.5.5-.1.2-.2.4-.2.7s.1.5.2.7c.1.2.3.4.5.5s.4.2.7.2.5-.1.7-.2z"/></g><g fill="#191A38"><path d="M703.9 72.9c-.4-.2-.7-.6-1-1s-.4-.8-.4-1.3.1-.9.4-1.3.6-.7 1-1c.4-.2.9-.4 1.4-.4.4 0 .7.1 1 .2.3.1.6.3.9.6.2.2.4.5.6.8l-1.3.5c-.1-.2-.3-.4-.5-.6-.2-.1-.4-.2-.7-.2-.2 0-.5.1-.7.2s-.3.3-.5.5c-.1.2-.2.4-.2.7 0 .2.1.5.2.6.1.2.3.3.5.5.2.1.4.2.7.2.3 0 .5-.1.7-.2.2-.1.4-.3.5-.6l1.3.5c-.1.3-.3.6-.6.8-.2.2-.5.4-.9.6-.3.1-.7.2-1 .2-.5.1-1 0-1.4-.3zM709.6 72.9c-.4-.2-.7-.6-1-1s-.4-.8-.4-1.3.1-.9.4-1.3.6-.7 1-1c.4-.2.9-.4 1.4-.4.5 0 1 .1 1.4.4.4.2.7.6 1 1 .2.4.4.8.4 1.3s-.1.9-.4 1.3c-.2.4-.6.7-1 1-.4.2-.9.4-1.4.4-.5 0-1-.1-1.4-.4zm2-1.1c.2-.1.3-.3.5-.5.1-.2.2-.4.2-.7 0-.3-.1-.5-.2-.7-.1-.2-.3-.4-.5-.5-.2-.1-.4-.2-.6-.2s-.4.1-.6.2c-.2.1-.3.3-.5.5-.1.2-.2.4-.2.7 0 .3.1.5.2.7.1.2.3.4.5.5s.4.2.6.2.4-.1.6-.2zM718.6 68.2c.3.2.5.4.7.7.2.3.2.6.2 1v3.3H718v-3.1c0-.2-.1-.4-.2-.6-.2-.1-.4-.2-.6-.2-.3 0-.5.1-.6.2-.2.2-.2.4-.3.6v3h-1.5V68h1.5v.5c.2-.2.4-.4.6-.5.2-.1.5-.2.8-.2.3.2.7.3.9.4zM723.8 69.3h-1v3.9h-1.5v-3.9h-1v-1.2h1v-1.8h1.5v1.8h1v1.2zM728.2 68.5c.4.4.6.9.6 1.6v3.1h-1.3l-.1-.6c-.2.2-.4.4-.7.5s-.5.2-.9.2c-.3 0-.6-.1-.9-.2s-.5-.3-.6-.5c-.1-.2-.2-.5-.2-.8 0-.5.2-.9.6-1.2.4-.3 1.1-.5 2.1-.6h.5c0-.3-.1-.5-.3-.6-.2-.1-.4-.2-.7-.2-.3 0-.5 0-.7.1-.2.1-.5.2-.7.4l-.6-.9c.3-.2.6-.4.9-.5.3-.1.8-.2 1.2-.2.9-.1 1.4.1 1.8.4zm-.8 3.2v-.8h-.4c-.4 0-.6.1-.8.1-.2.1-.3.1-.4.2-.1.1-.1.2-.1.3 0 .2.1.3.2.4.1.1.3.1.5.1.4.2.7.1 1-.3zM731.1 72.9c-.4-.2-.7-.6-1-1s-.4-.8-.4-1.3.1-.9.4-1.3.6-.7 1-1c.4-.2.9-.4 1.4-.4.4 0 .7.1 1 .2.3.1.6.3.9.6.2.2.4.5.6.8l-1.3.5c-.1-.2-.3-.4-.5-.6-.2-.1-.4-.2-.7-.2-.2 0-.5.1-.7.2s-.3.3-.5.5c-.1.2-.2.4-.2.7 0 .2.1.5.2.6.1.2.3.3.5.5.2.1.4.2.7.2.3 0 .5-.1.7-.2.2-.1.4-.3.5-.6l1.3.5c-.1.3-.3.6-.6.8-.2.2-.5.4-.9.6-.3.1-.7.2-1 .2-.5.1-1 0-1.4-.3zM738.7 69.3h-1v3.9h-1.5v-3.9h-1v-1.2h1v-1.8h1.5v1.8h1v1.2z"/></g><path fill="#FFF" d="M624.8 204.9c-.3 2.1-1.2 4.1-2.5 5.8-.2.3-.5.6-.8.7-.2.1-.5.1-.8.2-2.3.2-4.6-.7-6.8-1-2.3-.4-4.9.4-6.9 1.6-1.3.8-2.6 1.7-3.4 3-.3.5-.5 1-.8 1.5-.7 1-2 1.5-3.3 1.7-2.6.4-5.2.1-7.6-1-.8-.4-1.6-.8-2.5-1.1-2.5-.6-5.2.9-7.8.3-2.1-.5-3.7-2.4-4.7-4.4-.6-1.1-1.1-2.4-1.1-3.7 0-.6.2-1.2 0-1.8-.1-.6-.7-1.2-1.2-1.1-.2 0-.4.2-.7.2-.6.1-1.1-.2-1.5-.7s-.5-1-.9-1.5c-.9-1.3-2.7-2-4.2-1.4-1.1.4-2.1 1.2-3.2.9-.7-.2-1.1-.9-1.7-1.2-1-.5-2.2.2-3.3-.1-1.1-.3-1.7-1.5-1.8-2.6 0-1.1.4-2.2.8-3.2 1.2-2.9 2.4-6.5 5.2-7.8 2.8-1.3 6.3-1 8.9.8.3.2.6.5 1 .6.5.1 1 0 1.4-.2 2-.9 3-3.3 4.6-4.8 1.7-1.6 4-2.2 6.3-2.8 1.1-.3 2.2-.6 3.2-.3 1.4.3 2.5 1.5 3.8 2.3 1.2.7 2.6 1 4 1.3.9.2 1.8.4 2.7.3 1.8-.2 3.2-1.4 4.6-2.5 2.8-2.2 6-4.1 9.6-4 3.1.1 6.1 1.8 8.1 4.2 2 2.4 3.2 5.4 3.8 8.5.1.4.2.8.4 1.1.3.4.9.6 1.4.7 1.2.3 2.4.6 3.2 1.5.7.7 1.1 1.7 1.3 2.6.4 2.1.2 4.4-1.1 6.1s-3.7 2-5.7 1.3z"/><path fill="#FFF" d="M565.2 213.5c-1.3 0-5.7 2.7-5.8-1.3 0 0-.4-4.2-1-4.2h-1.3l.9-3.6s-.5-6.4 1-6.8c0 0 6.5-4 11.4 1.2s5.3 7.2 6.1 6.6c.8-.6-2.8 5.1-2.8 5.1l1.3 9.9-7.7 4.8-1.6-2.8"/><path fill="#1568A5" d="M622.1 202.8c-.3 2.1-1.2 4.1-2.5 5.8-.2.3-.5.6-.8.7-.2.1-.5.1-.8.2-2.3.2-4.6-.7-6.8-1-2.3-.4-4.9.4-6.9 1.6-1.3.8-2.6 1.7-3.4 3-.3.5-.5 1-.8 1.5-.7 1-2 1.5-3.3 1.7-2.6.4-5.2.1-7.6-1-.8-.4-1.6-.8-2.5-1.1-2.5-.6-5.2.9-7.8.3-2.1-.5-3.7-2.4-4.7-4.4-.6-1.1-1.1-2.4-1.1-3.7 0-.6.2-1.2 0-1.8-.1-.6-.7-1.2-1.2-1.1-.2 0-.4.2-.7.2-.6.1-1.1-.2-1.5-.7s-.5-1-.9-1.5c-.9-1.3-2.7-2-4.2-1.4-1.1.4-2.1 1.2-3.2.9-.7-.2-1.1-.9-1.7-1.2-1-.5-2.2.2-3.3-.1-1.1-.3-1.7-1.5-1.8-2.6 0-1.1.4-2.2.8-3.2 1.2-2.9 2.4-6.5 5.2-7.8 2.8-1.3 6.3-1 8.9.8.3.2.6.5 1 .6.5.1 1 0 1.4-.2 2-.9 3-3.3 4.6-4.8 1.7-1.6 4-2.2 6.3-2.8 1.1-.3 2.2-.6 3.2-.3 1.4.3 2.5 1.5 3.8 2.3 1.2.7 2.6 1 4 1.3.9.2 1.8.4 2.7.3 1.8-.2 3.2-1.4 4.6-2.5 2.8-2.2 6.1-4.1 9.6-4 3.1.1 6.1 1.8 8.1 4.2 2 2.4 3.2 5.4 3.8 8.5.1.4.2.8.4 1.1.3.4.9.6 1.4.7 1.2.3 2.4.6 3.2 1.5.7.7 1.1 1.7 1.3 2.6.4 2.1.2 4.4-1.1 6.1s-3.6 2-5.7 1.3z"/><path fill="#EAA11F" d="M681.3 104.1l8.1 6.6v181.8h-12z"/><path fill="#F9B529" d="M517.9 330.1V136.6l163.4-32.5v223.4z"/><linearGradient id="f" gradientUnits="userSpaceOnUse" x1="697.874" y1="245.295" x2="536.649" y2="199.064"><stop offset=".734" stop-color="#f9b529"/><stop offset=".97" stop-color="#eaa11f"/></linearGradient><path fill="url(#f)" d="M517.9 330.1V136.6l163.4-32.5v223.4z"/><linearGradient id="g" gradientUnits="userSpaceOnUse" x1="365.413" y1="296.23" x2="656.577" y2="296.23"><stop offset=".001" stop-color="#d13d47"/><stop offset=".198" stop-color="#dd4048"/><stop offset=".557" stop-color="#ec444a"/><stop offset=".84" stop-color="#f2454b"/></linearGradient><path fill="url(#g)" d="M365.4 406.1V176.2l288.7 104.9 2.5 135.2"/><path fill="#191A38" d="M514.8 279.4s-5.1 1.7-5.9 2.1-3.3 1-2.4 1.2c.9.2 5.9-1 5.2-.6-.7.4-5.8 1.6-5.8 2 0 .8 6-.3 6-.3s-5.4 1.7-5.8 2c-.4.3-.1 1.4 5-.2s-4.5 1.5-4.5 1.5-.6 1.2 2.4.6 7.5-2.3 8.3-2.9c.8-.6 2.1-2.1 2.1-2.1l-4.6-3.3zM570.2 207.2c-1.3 0-5.9 2.8-6-1.4 0 0-.4-4.3-1-4.3h-1.3l1-3.8s-.5-6.7 1-7c0 0 6.8-4.2 11.8 1.2 5 5.4 5.6 7.5 6.4 6.9.8-.6-2.9 5.3-2.9 5.3l1.4 10.3-8 5-1.6-2.9"/><path fill="#FFF" d="M629.5 196.1c-.3 2.2-1.2 4.3-2.6 6-.2.3-.5.6-.8.7-.3.1-.5.2-.8.2-2.4.2-4.7-.7-7.1-1.1s-5.1.4-7.2 1.6c-1.3.8-2.7 1.7-3.5 3.1-.3.5-.5 1.1-.8 1.6-.8 1.1-2.1 1.6-3.4 1.8-2.7.4-5.5.1-7.9-1-.9-.4-1.7-.9-2.6-1.1-2.6-.6-5.5.9-8.1.3-2.2-.5-3.8-2.5-4.9-4.6-.6-1.2-1.1-2.5-1.1-3.8 0-.6.2-1.3 0-1.9s-.7-1.2-1.3-1.1c-.2 0-.5.2-.7.2-.6.1-1.2-.2-1.6-.7-.4-.5-.6-1.1-.9-1.6-.9-1.4-2.8-2-4.4-1.5-1.1.4-2.2 1.3-3.3.9-.7-.2-1.1-1-1.8-1.3-1-.5-2.3.2-3.4-.1-1.1-.3-1.8-1.5-1.8-2.7 0-1.2.4-2.3.9-3.4 1.2-3 2.5-6.8 5.4-8.1 2.9-1.4 6.6-1 9.2.9.3.2.6.5 1 .6.5.1 1 0 1.5-.2 2.1-1 3.1-3.4 4.8-5 1.8-1.7 4.2-2.3 6.5-2.9 1.1-.3 2.2-.6 3.4-.3 1.5.3 2.6 1.6 3.9 2.4 1.3.7 2.7 1 4.1 1.3.9.2 1.9.4 2.8.3 1.8-.2 3.4-1.5 4.8-2.6 2.9-2.3 6.3-4.3 10-4.2 3.3.1 6.3 1.9 8.4 4.3 2.1 2.5 3.3 5.6 4 8.8.1.4.2.8.4 1.2.3.4.9.6 1.5.8 1.2.3 2.5.6 3.4 1.5.7.7 1.1 1.7 1.3 2.7.5 2.2.2 4.6-1.2 6.4-1.1 1.6-4 2.4-6.1 1.6z"/><path fill="#E25A2B" d="M581.9 211.3s19.8 9.9 28.6 26.1 26.8 40.3 31.3 43c-1.2 6.1-3.4 9.4-3.4 9.4S605.9 263 600.6 251c-5.3-12-6.3-7.9-4.2 1.1 2 9.1 13.4 48.2 13.4 48.2l-59.6 10s10.1-63.8 6.7-60.6-7.4 16.1-16.5 23.5c-9.1 7.5-21.3 10.4-21.3 10.4l-7-4.8s35.4-26.6 38.4-48.6c2-14.7 18.4-14.7 18.4-14.7l13-4.2z"/><path fill="#FFF" d="M217.8 466.6l489.1-51.5-336.5-66.7-159.6 22.1v96.1z"/><linearGradient id="h" gradientUnits="userSpaceOnUse" x1="218.772" y1="374.213" x2="714.915" y2="374.213"><stop offset=".001" stop-color="#191a38"/><stop offset=".215" stop-color="#191a3e"/><stop offset=".498" stop-color="#191a4f"/><stop offset=".583" stop-color="#191a55"/></linearGradient><path fill="url(#h)" d="M225.9 472.4l489-51.5V276.1l-496.1 99.5v96.8z"/><path fill="#FFF" d="M500.8 299.9s5.4.6 6.2.8c.8.2 3.5.3 2.6.7-.9.4-6.1.4-5.4.7.8.3 6.1.3 6.2.6.2.9-6.1 1.2-6.1 1.2s5.7.5 6.2.6c.5.2.3 1.5-5.1 1.1-5.4-.5 4.7.5 4.7.5s.7 1.2-2.4 1.3c-3.1.1-7.9-.6-8.8-1.1-.9-.5-2.4-1.8-2.4-1.8l4.3-4.6zM386.2 296.1s-5.5.4-6.3.6c-.8.2-3.6.2-2.6.7.9.5 6.2.7 5.4 1-.8.3-6.2.1-6.2.5-.1 1 6.2 1.6 6.2 1.6s-5.7.3-6.2.5-.3 1.7 5.2 1.4c5.4-.3-4.8.4-4.8.4s-.7 1.3 2.4 1.5c3.1.2 8-.3 8.9-.9s2.3-1.9 2.3-1.9l-4.3-5.4zM454.4 223.5c1.3 0 6.5 1.4 6.6-2.8 0 0-.2-3.7.5-3.7s1.3-.2 1.3-.2l-.9-2.9s.5-6.7-1-7c0 0-6.8-4.2-11.8 1.2-5 5.4-5.6 7.5-6.4 6.9-.8-.6 2.9 5.3 2.9 5.3l-.1 10.4 6.8 4.9 2.5-2.9"/><path fill="#F9B529" d="M487.1 427.2s-5.9-52.5-6.5-57.3-11.2-55.5-11.2-55.5l-44.3-1.2s-11.2 59-17.1 69.7c-5.9 10.6-19.5 36.6-19.5 36.6l17.1 9.4s25.4-39 28.3-46.1c3-7.1 11.8-41.3 11.8-41.3l11.8 48.4 5.3 40.1 24.3-2.8z"/><path fill="#191A38" d="M455.3 232c5.8.5 25.9 41.5 27.5 48.3 1.6 6.8 19.9 18.9 19.9 18.9l-3.7 7.3s-16.8-8.4-24.1-16.3c-7.3-7.9-13.2-23.5-12.3-16.8 1.7 12.8 7.2 43 7.2 43l-46.8-.1 7.1-43.8.2-9.1s-5.2 9.4-11.5 16.8c-6.3 7.3-29.4 22.6-29.4 22.6l-5.8-7.1s13.9-9.7 27-29.1 17.3-24.3 17.3-24.3c2.1-3.5 8.5-13 14-13.3l.2-4.9 12.9 3.8.3 4.1z"/><path fill="#FFF" d="M452.5 209.4c.7-.1 1.4.1 2.1.1 1.9 0 3.6-1.1 5.1-2.2 1.2-.9 2.4-1.8 2.9-3.2s.2-3.2-1.1-3.8c-2-1-4.6 1.1-6.5 0-.7-.4-1.1-1.1-1.8-1.5-1-.7-2.5-.5-3.3.4-.8.8-1.3 2.3-2.4 2.4-1.3.1-3.4-1.8-4.6-2.3-.9-.4-2 .2-2.6 1-.6.8-.8 1.8-1.1 2.8-1 3.8-1.1 7.8.2 11.6.4 1.3 1.5 4.6 2.7 5.1 1.2.6 2.9.3 3.6-.8.9-1.3.1-5.3.3-6.9 0-.2.1-.4.2-.6.4-.4 1.1-.1 1.5.4.4.5.6.9 1.1 1.3 1.6-1.5 1-3.6 3.7-3.8z"/><path fill="#EAA11F" d="M462.9 429.4l-5.3-38.6-11.8-47.4s-1.7-8.3.6-6 5.9 19 6.6 21.4c.7 2.5 6.8 39.6 7.5 44.3.8 4.9 2.4 26.3 2.4 26.3z"/><path fill="#101323" d="M462.9 271.8s-3.8-3.7-3.1.3 6.5 44.3 6.5 44.3l3.4-.1c.1.1-7.5-42.3-6.8-44.5z"/><path fill="#191A38" d="M640 283.1s5.1 1.9 5.8 2.2 3.3 1.2 2.4 1.2c-.9.1-5.7-1.3-5-.9.7.4 5.7 1.9 5.7 2.1.1.7-5.7-.8-5.7-.8s5.3 1.9 5.7 2.1.2 1.2-4.8-.6c-5-1.8 4.4 1.7 4.4 1.7s.6 1.1-2.3.3-7.3-2.6-8.1-3.2c-.8-.6-2.1-2-2.1-2l4-2.1z"/><path fill="#F4662D" d="M581.9 211.3s19.8 9.9 28.6 26.1 26.8 40.3 31.3 43c-1.2 6.1-3.4 9.4-3.4 9.4S605.9 263 600.6 251c-5.3-12-6.3-7.9-4.2 1.1 2 9.1 11.8 43.2 11.8 43.2l-57 9.2s9.1-58.1 5.8-54.8-7.4 16.1-16.5 23.5c-9.1 7.5-21.3 10.4-21.3 10.4l-7-4.8s35.4-26.6 38.4-48.6c2-14.7 18.4-14.7 18.4-14.7l12.9-4.2z"/><path fill="#FFF" d="M616.2 316.4h5.4v14h-5.4zM626.9 316.4h5.4v14h-5.4zM380.1 208.2h5.4v5h-5.4zM390.8 208.2h5.4v5h-5.4zM380.1 219.6h5.4v5h-5.4zM390.8 219.6h5.4v5h-5.4zM380.1 230.9h5.4v5h-5.4zM390.8 230.9h5.4v5h-5.4z"/><path fill="#E25A2B" d="M596.2 243s-9-3.2-5.8 8.1 13.6 45.5 13.6 45.5l4.9-1c-.1 0-13.7-43.5-12.7-52.6z"/><path fill="#F9B529" d="M453.7 210.1c.7-.1 1.4.1 2.1.1 1.9 0 3.6-1.1 5.1-2.2 1.2-.9 2.4-1.8 2.9-3.2.5-1.3.2-3.2-1.1-3.8-2-1-4.6 1.1-6.5 0-.7-.4-1.1-1.1-1.8-1.5-1-.7-2.5-.5-3.3.4-.8.8-1.3 2.3-2.4 2.4-1.3.1-3.4-1.8-4.6-2.3-.9-.4-2 .2-2.6 1s-.8 1.8-1.1 2.8c-1 3.8-1.1 7.8.2 11.6.4 1.3 1.5 4.6 2.7 5.1 1.2.6 2.9.3 3.6-.8.9-1.3.1-5.3.3-6.9 0-.2.1-.4.2-.6.4-.4 1.1-.1 1.5.4.4.5.6.9 1.1 1.3 1.6-1.4 1.1-3.5 3.7-3.8z"/><path fill="#101323" d="M714.9 276.1l9.4 6.5v112h-9.6z"/><path fill="#FFF" d="M797.7 531.8H8.4L7 318.6c191.3-20.2 155.4 171.6 292.1 109.6 0 0 152.1-86.6 283.6-15.4 67.3 35.9 131.4-53.8 215-33.6"/></g></svg>