<svg xmlns="http://www.w3.org/2000/svg" width="919.9" height="596.8" viewBox="0 0 919.9 596.8"><g fill="#EC297B"><path opacity=".5" d="M545.2 66c10.8 27.5-2.8 58.6-30.3 69.4-27.5 10.8-58.6-2.8-69.4-30.3-10.8-27.5 2.8-58.6 30.3-69.4 27.5-10.8 58.6 2.8 69.4 30.3z"/><path opacity=".5" d="M492.1 66c10.8 27.5-2.8 58.6-30.3 69.4-27.5 10.8-58.6-2.8-69.4-30.3-10.8-27.5 2.8-58.6 30.3-69.4 27.5-10.8 58.6 2.8 69.4 30.3z"/><path opacity=".5" d="M488.4 162c-27.5 10.8-58.6-2.8-69.4-30.3-10.8-27.5 2.8-58.6 30.3-69.4 27.5-10.8 58.6 2.8 69.4 30.3 10.8 27.5-2.8 58.6-30.3 69.4z"/><path opacity=".5" d="M488.4 108.8c-27.5 10.8-58.6-2.8-69.4-30.3-10.8-27.5 2.8-58.6 30.3-69.4 27.5-10.8 58.6 2.8 69.4 30.3 10.8 27.6-2.8 58.6-30.3 69.4z"/><path opacity=".5" d="M536.7 125.8c-11.8 27.1-43.4 39.5-70.5 27.7s-39.5-43.4-27.7-70.5 43.4-39.5 70.5-27.7 39.5 43.4 27.7 70.5z"/><path opacity=".5" d="M499.1 88.2c-11.8 27.1-43.4 39.5-70.5 27.7s-39.5-43.4-27.7-70.5 43.4-39.5 70.5-27.7 39.5 43.4 27.7 70.5z"/><path opacity=".5" d="M428.6 153.4c-27.1-11.8-39.5-43.4-27.7-70.5s43.4-39.5 70.5-27.7 39.5 43.4 27.7 70.5c-11.8 27.2-43.4 39.6-70.5 27.7z"/><path opacity=".5" d="M466.2 115.9c-27.1-11.8-39.5-43.4-27.7-70.5S481.9 5.9 509 17.7s39.5 43.4 27.7 70.5-43.4 39.5-70.5 27.7z"/></g><g fill="#FFF100"><path opacity=".43" d="M499.9 31.7L531 85.6l-31.1 53.8h-62.2l-31.1-53.8 31.1-53.9z"/><path opacity=".43" d="M522.7 116.6l-53.9 31.1-53.9-31.1V54.5l53.9-31.1 53.9 31.1z"/></g><g opacity=".9" fill="#0AB9BD"><circle opacity=".7" cx="492.5" cy="85.6" r="23.7"/><circle opacity=".7" cx="445.1" cy="85.6" r="23.7"/><path opacity=".7" d="M468.8 85.6c13.1 0 23.7 10.6 23.7 23.7S481.9 133 468.8 133s-23.7-10.6-23.7-23.7 10.6-23.7 23.7-23.7z"/><circle opacity=".7" cx="468.8" cy="61.9" r="23.7"/><circle opacity=".7" cx="485.5" cy="102.3" r="23.7"/><circle opacity=".7" cx="452.1" cy="68.8" r="23.7"/><circle opacity=".7" cx="452.1" cy="102.3" r="23.7"/><path opacity=".7" d="M502.3 52.1c9.2 9.2 9.2 24.2 0 33.5-9.2 9.2-24.2 9.2-33.5 0-9.2-9.2-9.2-24.2 0-33.5s24.2-9.3 33.5 0z"/></g><path opacity=".5" fill="#F1F1F2" d="M464 109l4.6 24.3 4.9-24.3 12.7 19.1-4.3-22.6 20.5 13.9-13.7-20.6 22.5 4.5-19-12.9 24.3-4.7-24.3-4.8 19.2-12.8-22.6 4.3 13.9-20.5-20.6 13.8 4.5-22.6-13 19.1-4.6-24.4-4.9 24.3L451.3 43l4.4 22.6-20.5-13.9 13.7 20.6-22.6-4.5 19.1 12.9-24.3 4.7 24.3 4.8-19.2 12.8 22.6-4.3-13.9 20.5 20.6-13.8L451 128z"/><path fill="#0AB9BD" d="M459.7 94.7v4.7l.1 8.3 5.9-6.1 3.2-3.1 3.3 3.3 5.8 5.8V94.7l4.6-.1h8.3l-6-6-3.2-3.1 3.3-3.3 5.8-5.9-8.5.1h-4.4v-4.7l-.1-8.3-5.9 6.1-3.2 3.1-3.3-3.2-5.8-5.9v13h-12.9l6 6 3.2 3.1-3.3 3.3-5.8 5.9h8.5z"/><g opacity=".8" fill="#F1F1F2"><path opacity=".5" d="M477.6 76.7c1.4 3.5-.3 7.4-3.8 8.8-3.5 1.4-7.4-.3-8.8-3.8-1.4-3.5.3-7.4 3.8-8.8 3.5-1.3 7.4.4 8.8 3.8z"/><path opacity=".5" d="M481.4 86c1.3 3.5-.5 7.4-4 8.7-3.5 1.3-7.4-.5-8.7-4-1.3-3.5.5-7.4 4-8.7 3.5-1.3 7.4.5 8.7 4z"/><path opacity=".5" d="M472.7 89.4c1.4 3.5-.3 7.4-3.8 8.8-3.5 1.4-7.4-.4-8.8-3.8-1.4-3.5.3-7.4 3.8-8.8 3.5-1.4 7.5.4 8.8 3.8z"/><path opacity=".5" d="M468.8 80.8c1.4 3.5-.4 7.4-3.8 8.8-3.5 1.4-7.4-.4-8.8-3.8-1.4-3.5.3-7.4 3.8-8.8 3.5-1.3 7.4.4 8.8 3.8z"/><circle opacity=".5" cx="475.1" cy="82.8" r="6.8"/><circle opacity=".5" cx="471.3" cy="91.8" r="6.8"/><path opacity=".5" d="M468.8 91c-1.5 3.4-5.5 5-8.9 3.5-3.4-1.5-5-5.5-3.5-8.9 1.5-3.4 5.5-5 8.9-3.5 3.5 1.5 5 5.5 3.5 8.9z"/><path opacity=".5" d="M472.2 82.2c-1.5 3.4-5.5 5-8.9 3.5-3.4-1.5-5-5.5-3.5-8.9 1.5-3.4 5.5-5 8.9-3.5 3.4 1.5 4.9 5.5 3.5 8.9z"/></g><g fill="#EC297B"><path opacity=".5" d="M545.2 66c10.8 27.5-2.8 58.6-30.3 69.4-27.5 10.8-58.6-2.8-69.4-30.3-10.8-27.5 2.8-58.6 30.3-69.4 27.5-10.8 58.6 2.8 69.4 30.3z"/><path opacity=".5" d="M492.1 66c10.8 27.5-2.8 58.6-30.3 69.4-27.5 10.8-58.6-2.8-69.4-30.3-10.8-27.5 2.8-58.6 30.3-69.4 27.5-10.8 58.6 2.8 69.4 30.3z"/><path opacity=".5" d="M488.4 162c-27.5 10.8-58.6-2.8-69.4-30.3-10.8-27.5 2.8-58.6 30.3-69.4 27.5-10.8 58.6 2.8 69.4 30.3 10.8 27.5-2.8 58.6-30.3 69.4z"/><path opacity=".5" d="M488.4 108.8c-27.5 10.8-58.6-2.8-69.4-30.3-10.8-27.5 2.8-58.6 30.3-69.4 27.5-10.8 58.6 2.8 69.4 30.3 10.8 27.6-2.8 58.6-30.3 69.4z"/><path opacity=".5" d="M536.7 125.8c-11.8 27.1-43.4 39.5-70.5 27.7s-39.5-43.4-27.7-70.5 43.4-39.5 70.5-27.7 39.5 43.4 27.7 70.5z"/><path opacity=".5" d="M499.1 88.2c-11.8 27.1-43.4 39.5-70.5 27.7s-39.5-43.4-27.7-70.5 43.4-39.5 70.5-27.7 39.5 43.4 27.7 70.5z"/><path opacity=".5" d="M428.6 153.4c-27.1-11.8-39.5-43.4-27.7-70.5s43.4-39.5 70.5-27.7 39.5 43.4 27.7 70.5c-11.8 27.2-43.4 39.6-70.5 27.7z"/><path opacity=".5" d="M466.2 115.9c-27.1-11.8-39.5-43.4-27.7-70.5S481.9 5.9 509 17.7s39.5 43.4 27.7 70.5-43.4 39.5-70.5 27.7z"/></g><g fill="#FFF100"><path opacity=".43" d="M499.9 31.7L531 85.6l-31.1 53.8h-62.2l-31.1-53.8 31.1-53.9z"/><path opacity=".43" d="M522.7 116.6l-53.9 31.1-53.9-31.1V54.5l53.9-31.1 53.9 31.1z"/></g><g opacity=".9" fill="#0AB9BD"><circle opacity=".7" cx="492.5" cy="85.6" r="23.7"/><circle opacity=".7" cx="445.1" cy="85.6" r="23.7"/><path opacity=".7" d="M468.8 85.6c13.1 0 23.7 10.6 23.7 23.7S481.9 133 468.8 133s-23.7-10.6-23.7-23.7 10.6-23.7 23.7-23.7z"/><circle opacity=".7" cx="468.8" cy="61.9" r="23.7"/><circle opacity=".7" cx="485.5" cy="102.3" r="23.7"/><circle opacity=".7" cx="452.1" cy="68.8" r="23.7"/><circle opacity=".7" cx="452.1" cy="102.3" r="23.7"/><path opacity=".7" d="M502.3 52.1c9.2 9.2 9.2 24.2 0 33.5-9.2 9.2-24.2 9.2-33.5 0-9.2-9.2-9.2-24.2 0-33.5s24.2-9.3 33.5 0z"/></g><path opacity=".5" fill="#F1F1F2" d="M464 109l4.6 24.3 4.9-24.3 12.7 19.1-4.3-22.6 20.5 13.9-13.7-20.6 22.5 4.5-19-12.9 24.3-4.7-24.3-4.8 19.2-12.8-22.6 4.3 13.9-20.5-20.6 13.8 4.5-22.6-13 19.1-4.6-24.4-4.9 24.3L451.3 43l4.4 22.6-20.5-13.9 13.7 20.6-22.6-4.5 19.1 12.9-24.3 4.7 24.3 4.8-19.2 12.8 22.6-4.3-13.9 20.5 20.6-13.8L451 128z"/><path fill="#0AB9BD" d="M459.7 94.7v4.7l.1 8.3 5.9-6.1 3.2-3.1 3.3 3.3 5.8 5.8V94.7l4.6-.1h8.3l-6-6-3.2-3.1 3.3-3.3 5.8-5.9-8.5.1h-4.4v-4.7l-.1-8.3-5.9 6.1-3.2 3.1-3.3-3.2-5.8-5.9v13h-12.9l6 6 3.2 3.1-3.3 3.3-5.8 5.9h8.5z"/><g opacity=".8" fill="#F1F1F2"><path opacity=".5" d="M477.6 76.7c1.4 3.5-.3 7.4-3.8 8.8-3.5 1.4-7.4-.3-8.8-3.8-1.4-3.5.3-7.4 3.8-8.8 3.5-1.3 7.4.4 8.8 3.8z"/><path opacity=".5" d="M481.4 86c1.3 3.5-.5 7.4-4 8.7-3.5 1.3-7.4-.5-8.7-4-1.3-3.5.5-7.4 4-8.7 3.5-1.3 7.4.5 8.7 4z"/><path opacity=".5" d="M472.7 89.4c1.4 3.5-.3 7.4-3.8 8.8-3.5 1.4-7.4-.4-8.8-3.8-1.4-3.5.3-7.4 3.8-8.8 3.5-1.4 7.5.4 8.8 3.8z"/><path opacity=".5" d="M468.8 80.8c1.4 3.5-.4 7.4-3.8 8.8-3.5 1.4-7.4-.4-8.8-3.8-1.4-3.5.3-7.4 3.8-8.8 3.5-1.3 7.4.4 8.8 3.8z"/><circle opacity=".5" cx="475.1" cy="82.8" r="6.8"/><circle opacity=".5" cx="471.3" cy="91.8" r="6.8"/><path opacity=".5" d="M468.8 91c-1.5 3.4-5.5 5-8.9 3.5-3.4-1.5-5-5.5-3.5-8.9 1.5-3.4 5.5-5 8.9-3.5 3.5 1.5 5 5.5 3.5 8.9z"/><path opacity=".5" d="M472.2 82.2c-1.5 3.4-5.5 5-8.9 3.5-3.4-1.5-5-5.5-3.5-8.9 1.5-3.4 5.5-5 8.9-3.5 3.4 1.5 4.9 5.5 3.5 8.9z"/></g><g><path opacity=".43" fill="#FFF100" d="M517.5 242.3l22.7 69.3-48.8 54.3-71.3-15.1-22.7-69.3 48.7-54.3z"/><path opacity=".43" fill="#FFF100" d="M523.1 345.2l-69.3 22.7-54.3-48.7 15-71.4 69.3-22.6 54.3 48.7z"/><path opacity=".43" fill="#F2A31E" d="M540.9 344.5l-48-12-7.1 48.9-25.4-42.4-39.6 29.6 12-48-48.9-7 42.4-25.4-29.6-39.6 48 12 7.1-48.9 25.4 42.4 39.6-29.6-12.1 47.9 49 7.1-42.4 25.4z"/><path opacity=".7" fill="#EC297B" d="M553.5 314.4l-49 6.6 11.6 48.1-39.3-30-25.9 42.1-6.6-49-48 11.6 30-39.3-42.2-25.8 49-6.6-11.6-48.1 39.3 30 25.9-42.2 6.6 49 48-11.5-30 39.3z"/><g opacity=".43" fill="#E7E52C"><path opacity=".7" d="M473.708 233.07l16.243 3.427-26.068 123.584-16.244-3.426z"/><path opacity=".7" d="M532.269 301.452l-3.426 16.243-123.585-26.068 3.426-16.243z"/><path opacity=".7" d="M517.178 255.117l9.064 13.908-105.814 68.96-9.064-13.908z"/><path opacity=".7" d="M427.3 248.2l14-9.1 69 105.8-14 9.1z"/></g><g opacity=".8" fill="#F1F1F2"><path opacity=".5" d="M497.2 278c1.7 10-5.1 19.5-15.1 21.2-10 1.7-19.5-5.1-21.2-15.1-1.7-10 5.1-19.5 15.1-21.2 10-1.7 19.5 5 21.2 15.1z"/><path opacity=".5" d="M502.2 304.9c1.5 10.1-5.4 19.4-15.5 20.9s-19.4-5.4-20.9-15.5 5.4-19.4 15.5-20.9c10-1.5 19.4 5.4 20.9 15.5z"/><circle opacity=".5" cx="458.9" cy="312.1" r="18.4"/><path opacity=".5" d="M471.5 284c1.7 10-5.1 19.5-15.1 21.2-10 1.7-19.5-5.1-21.2-15.1-1.7-10 5.1-19.5 15.1-21.2 10-1.7 19.5 5 21.2 15.1z"/><path opacity=".5" d="M502.1 303.4c-5.9 8.3-17.4 10.2-25.7 4.3-8.3-5.9-10.2-17.4-4.3-25.7 5.9-8.3 17.4-10.2 25.7-4.3 8.2 5.9 10.2 17.4 4.3 25.7z"/><path opacity=".5" d="M486.7 325.5c-6.1 8.2-17.6 9.9-25.8 3.8-8.2-6.1-9.9-17.6-3.8-25.8 6.1-8.2 17.6-9.9 25.8-3.8 8.1 6.1 9.8 17.6 3.8 25.8z"/><path opacity=".5" d="M465.8 311.1c-5.9 8.3-17.4 10.2-25.7 4.3-8.3-5.9-10.2-17.4-4.3-25.7 5.9-8.3 17.4-10.2 25.7-4.3 8.3 6 10.2 17.5 4.3 25.7z"/><path opacity=".5" d="M479.6 289.4c-5.9 8.3-17.4 10.2-25.7 4.3-8.3-5.9-10.2-17.4-4.3-25.7 5.9-8.3 17.4-10.2 25.7-4.3 8.3 5.9 10.2 17.5 4.3 25.7z"/></g><path opacity=".43" fill="#FFF100" d="M517.5 242.3l22.7 69.3-48.8 54.3-71.3-15.1-22.7-69.3 48.7-54.3z"/><path opacity=".43" fill="#FFF100" d="M523.1 345.2l-69.3 22.7-54.3-48.7 15-71.4 69.3-22.6 54.3 48.7z"/><path opacity=".43" fill="#F2A31E" d="M540.9 344.5l-48-12-7.1 48.9-25.4-42.4-39.6 29.6 12-48-48.9-7 42.4-25.4-29.6-39.6 48 12 7.1-48.9 25.4 42.4 39.6-29.6-12.1 47.9 49 7.1-42.4 25.4z"/><path opacity=".7" fill="#EC297B" d="M553.5 314.4l-49 6.6 11.6 48.1-39.3-30-25.9 42.1-6.6-49-48 11.6 30-39.3-42.2-25.8 49-6.6-11.6-48.1 39.3 30 25.9-42.2 6.6 49 48-11.5-30 39.3z"/><g opacity=".43" fill="#E7E52C"><path opacity=".7" d="M473.708 233.07l16.243 3.427-26.068 123.584-16.244-3.426z"/><path opacity=".7" d="M532.269 301.452l-3.426 16.243-123.585-26.068 3.426-16.243z"/><path opacity=".7" d="M517.178 255.117l9.064 13.908-105.814 68.96-9.064-13.908z"/><path opacity=".7" d="M427.3 248.2l14-9.1 69 105.8-14 9.1z"/></g><g opacity=".8" fill="#F1F1F2"><path opacity=".5" d="M497.2 278c1.7 10-5.1 19.5-15.1 21.2-10 1.7-19.5-5.1-21.2-15.1-1.7-10 5.1-19.5 15.1-21.2 10-1.7 19.5 5 21.2 15.1z"/><path opacity=".5" d="M502.2 304.9c1.5 10.1-5.4 19.4-15.5 20.9s-19.4-5.4-20.9-15.5 5.4-19.4 15.5-20.9c10-1.5 19.4 5.4 20.9 15.5z"/><circle opacity=".5" cx="458.9" cy="312.1" r="18.4"/><path opacity=".5" d="M471.5 284c1.7 10-5.1 19.5-15.1 21.2-10 1.7-19.5-5.1-21.2-15.1-1.7-10 5.1-19.5 15.1-21.2 10-1.7 19.5 5 21.2 15.1z"/><path opacity=".5" d="M502.1 303.4c-5.9 8.3-17.4 10.2-25.7 4.3-8.3-5.9-10.2-17.4-4.3-25.7 5.9-8.3 17.4-10.2 25.7-4.3 8.2 5.9 10.2 17.4 4.3 25.7z"/><path opacity=".5" d="M486.7 325.5c-6.1 8.2-17.6 9.9-25.8 3.8-8.2-6.1-9.9-17.6-3.8-25.8 6.1-8.2 17.6-9.9 25.8-3.8 8.1 6.1 9.8 17.6 3.8 25.8z"/><path opacity=".5" d="M465.8 311.1c-5.9 8.3-17.4 10.2-25.7 4.3-8.3-5.9-10.2-17.4-4.3-25.7 5.9-8.3 17.4-10.2 25.7-4.3 8.3 6 10.2 17.5 4.3 25.7z"/><path opacity=".5" d="M479.6 289.4c-5.9 8.3-17.4 10.2-25.7 4.3-8.3-5.9-10.2-17.4-4.3-25.7 5.9-8.3 17.4-10.2 25.7-4.3 8.3 5.9 10.2 17.5 4.3 25.7z"/></g></g><g><path opacity=".7" fill="#0AB9BD" d="M458.3 429.8h21v159.3h-21z"/><path opacity=".7" fill="#0AB9BD" d="M389.2 499h159.3v21H389.2z"/><path opacity=".7" fill="#0AB9BD" d="M517.726 445.708l14.85 14.85-112.642 112.64-14.849-14.849z"/><path opacity=".7" fill="#0AB9BD" d="M532.569 558.418l-14.847 14.851-112.657-112.625 14.847-14.85z"/><path opacity=".5" fill="#EC297B" d="M490.198 432.004l19.343 8.178-62.032 146.731-19.343-8.177z"/><path opacity=".5" fill="#EC297B" d="M546.259 530.851l-8.178 19.343-146.731-62.031 8.177-19.343z"/><path opacity=".5" fill="#EC297B" d="M538.653 469.79l7.892 19.461-147.623 59.865-7.892-19.46z"/><path opacity=".5" fill="#EC297B" d="M508.479 579.387l-19.459 7.896-59.896-147.607 19.458-7.896z"/><g opacity=".43" fill="#FFF100"><path d="M461 573.2c2.7.2 5.2.5 7.9.5s5.2-.3 7.8-.5c2.1-10.3.8-20.6-3.6-30.9h-8.2c-4.6 10.3-5.8 20.6-3.9 30.9zM485.2 538.2l-7.4 3.2c-.3 11.2 2.5 21.2 8.2 29.9 5.2-1.3 10-3.3 14.4-6-1.9-10.2-7.2-19.4-15.2-27.1zM460 541.2l-7.6-3c-8.1 7.8-13.1 16.9-15.2 27.1 4.6 2.7 9.3 4.8 14.4 6 5.7-8.7 8.6-18.7 8.4-30.1zM508.4 559.9c1.9-1.6 3.8-3.3 5.9-5.2 1.7-1.9 3.5-3.8 5.1-5.9-5.9-8.7-13.9-15-24.2-19l-6 5.7c4.2 10.4 10.5 18.5 19.2 24.4zM501.8 505.3v8.2c10.3 4.4 20.6 5.5 30.7 3.6.3-2.5.5-5.2.5-7.8 0-2.7-.2-5.4-.5-7.9-10.3-1.8-20.4-.5-30.7 3.9zM519.4 469.7c-1.6-1.9-3.3-3.8-5.1-5.7-2.1-1.9-4-3.6-6-5.2-8.5 5.7-15 13.9-19.2 24.4l5.9 5.9c10.4-4.4 18.5-10.7 24.4-19.4zM530.9 526.5c-8.9-5.7-18.8-8.5-30.1-8.4l-3.2 7.6c7.9 8.1 16.8 13.1 27.2 15.2 2.6-4.4 4.5-9.2 6.1-14.4zM500.8 500.5c11.2.2 21.2-2.5 29.9-8.4-1.4-5.1-3.3-10-5.9-14.6-10.4 2.2-19.3 7.4-27.2 15.3l3.2 7.7zM477.7 477.3l7.4 3c8.1-7.6 13.3-16.6 15.2-26.9-4.4-2.7-9.2-4.6-14.4-5.9-5.6 8.7-8.5 18.5-8.2 29.8zM442.6 489l5.9-5.9c-4.1-10.3-10.6-18.7-19.1-24.4-2.1 1.7-4 3.3-5.7 5.2-1.9 1.9-3.6 3.8-5.2 5.7 5.6 8.8 13.8 15.1 24.1 19.4zM452.4 480.3l7.6-3c.3-11.2-2.5-21-8.4-29.7-5.1 1.3-9.8 3.2-14.4 5.9 2.2 10.2 7.3 19.2 15.2 26.8zM464.8 476.3h8.2c4.3-10.3 5.7-20.4 3.6-30.7-2.5-.2-5.1-.3-7.8-.3-2.8 0-5.2.2-7.9.3-1.8 10.3-.6 20.4 3.9 30.7zM448.5 535.5l-5.9-5.9c-10.4 4.1-18.5 10.4-24.2 19.2 1.4 2.1 3.2 4 5.2 5.9 1.7 1.9 3.6 3.6 5.7 5.2 8.6-5.9 15-14 19.2-24.4zM404.6 509.4c0 2.7.3 5.4.5 7.8 10.3 1.9 20.4.8 30.7-3.6v-8.2c-10.3-4.4-20.4-5.7-30.7-3.6-.2 2.4-.5 4.9-.5 7.6zM439.9 525.7l-3.2-7.6c-11.2-.2-21 2.7-29.8 8.5 1.3 5.1 3.2 9.8 5.9 14.2 10.3-2 19.4-7 27.1-15.1zM439.9 492.9c-7.6-8.1-16.8-13.1-27.1-15.2-2.5 4.4-4.6 9.3-5.9 14.4 8.7 5.9 18.5 8.5 29.8 8.4l3.2-7.6z"/></g><g><path opacity=".7" fill="#0AB9BD" d="M458.3 429.8h21v159.3h-21z"/><path opacity=".7" fill="#0AB9BD" d="M389.2 499h159.3v21H389.2z"/><path opacity=".7" fill="#0AB9BD" d="M517.726 445.708l14.85 14.85-112.642 112.64-14.849-14.849z"/><path opacity=".7" fill="#0AB9BD" d="M532.569 558.418l-14.847 14.851-112.657-112.625 14.847-14.85z"/><path opacity=".5" fill="#EC297B" d="M490.198 432.004l19.343 8.178-62.032 146.731-19.343-8.177z"/><path opacity=".5" fill="#EC297B" d="M546.259 530.851l-8.178 19.343-146.731-62.031 8.177-19.343z"/><path opacity=".5" fill="#EC297B" d="M538.653 469.79l7.892 19.461-147.623 59.865-7.892-19.46z"/><path opacity=".5" fill="#EC297B" d="M508.479 579.387l-19.459 7.896-59.896-147.607 19.458-7.896z"/><g opacity=".43" fill="#FFF100"><path d="M461 573.2c2.7.2 5.2.5 7.9.5s5.2-.3 7.8-.5c2.1-10.3.8-20.6-3.6-30.9h-8.2c-4.6 10.3-5.8 20.6-3.9 30.9zM485.2 538.2l-7.4 3.2c-.3 11.2 2.5 21.2 8.2 29.9 5.2-1.3 10-3.3 14.4-6-1.9-10.2-7.2-19.4-15.2-27.1zM460 541.2l-7.6-3c-8.1 7.8-13.1 16.9-15.2 27.1 4.6 2.7 9.3 4.8 14.4 6 5.7-8.7 8.6-18.7 8.4-30.1zM508.4 559.9c1.9-1.6 3.8-3.3 5.9-5.2 1.7-1.9 3.5-3.8 5.1-5.9-5.9-8.7-13.9-15-24.2-19l-6 5.7c4.2 10.4 10.5 18.5 19.2 24.4zM501.8 505.3v8.2c10.3 4.4 20.6 5.5 30.7 3.6.3-2.5.5-5.2.5-7.8 0-2.7-.2-5.4-.5-7.9-10.3-1.8-20.4-.5-30.7 3.9zM519.4 469.7c-1.6-1.9-3.3-3.8-5.1-5.7-2.1-1.9-4-3.6-6-5.2-8.5 5.7-15 13.9-19.2 24.4l5.9 5.9c10.4-4.4 18.5-10.7 24.4-19.4zM530.9 526.5c-8.9-5.7-18.8-8.5-30.1-8.4l-3.2 7.6c7.9 8.1 16.8 13.1 27.2 15.2 2.6-4.4 4.5-9.2 6.1-14.4zM500.8 500.5c11.2.2 21.2-2.5 29.9-8.4-1.4-5.1-3.3-10-5.9-14.6-10.4 2.2-19.3 7.4-27.2 15.3l3.2 7.7zM477.7 477.3l7.4 3c8.1-7.6 13.3-16.6 15.2-26.9-4.4-2.7-9.2-4.6-14.4-5.9-5.6 8.7-8.5 18.5-8.2 29.8zM442.6 489l5.9-5.9c-4.1-10.3-10.6-18.7-19.1-24.4-2.1 1.7-4 3.3-5.7 5.2-1.9 1.9-3.6 3.8-5.2 5.7 5.6 8.8 13.8 15.1 24.1 19.4zM452.4 480.3l7.6-3c.3-11.2-2.5-21-8.4-29.7-5.1 1.3-9.8 3.2-14.4 5.9 2.2 10.2 7.3 19.2 15.2 26.8zM464.8 476.3h8.2c4.3-10.3 5.7-20.4 3.6-30.7-2.5-.2-5.1-.3-7.8-.3-2.8 0-5.2.2-7.9.3-1.8 10.3-.6 20.4 3.9 30.7zM448.5 535.5l-5.9-5.9c-10.4 4.1-18.5 10.4-24.2 19.2 1.4 2.1 3.2 4 5.2 5.9 1.7 1.9 3.6 3.6 5.7 5.2 8.6-5.9 15-14 19.2-24.4zM404.6 509.4c0 2.7.3 5.4.5 7.8 10.3 1.9 20.4.8 30.7-3.6v-8.2c-10.3-4.4-20.4-5.7-30.7-3.6-.2 2.4-.5 4.9-.5 7.6zM439.9 525.7l-3.2-7.6c-11.2-.2-21 2.7-29.8 8.5 1.3 5.1 3.2 9.8 5.9 14.2 10.3-2 19.4-7 27.1-15.1zM439.9 492.9c-7.6-8.1-16.8-13.1-27.1-15.2-2.5 4.4-4.6 9.3-5.9 14.4 8.7 5.9 18.5 8.5 29.8 8.4l3.2-7.6z"/></g><g opacity=".43" fill="#FFF100"><path d="M461 573.2c2.7.2 5.2.5 7.9.5s5.2-.3 7.8-.5c2.1-10.3.8-20.6-3.6-30.9h-8.2c-4.6 10.3-5.8 20.6-3.9 30.9zM485.2 538.2l-7.4 3.2c-.3 11.2 2.5 21.2 8.2 29.9 5.2-1.3 10-3.3 14.4-6-1.9-10.2-7.2-19.4-15.2-27.1zM460 541.2l-7.6-3c-8.1 7.8-13.1 16.9-15.2 27.1 4.6 2.7 9.3 4.8 14.4 6 5.7-8.7 8.6-18.7 8.4-30.1zM508.4 559.9c1.9-1.6 3.8-3.3 5.9-5.2 1.7-1.9 3.5-3.8 5.1-5.9-5.9-8.7-13.9-15-24.2-19l-6 5.7c4.2 10.4 10.5 18.5 19.2 24.4zM501.8 505.3v8.2c10.3 4.4 20.6 5.5 30.7 3.6.3-2.5.5-5.2.5-7.8 0-2.7-.2-5.4-.5-7.9-10.3-1.8-20.4-.5-30.7 3.9zM519.4 469.7c-1.6-1.9-3.3-3.8-5.1-5.7-2.1-1.9-4-3.6-6-5.2-8.5 5.7-15 13.9-19.2 24.4l5.9 5.9c10.4-4.4 18.5-10.7 24.4-19.4zM530.9 526.5c-8.9-5.7-18.8-8.5-30.1-8.4l-3.2 7.6c7.9 8.1 16.8 13.1 27.2 15.2 2.6-4.4 4.5-9.2 6.1-14.4zM500.8 500.5c11.2.2 21.2-2.5 29.9-8.4-1.4-5.1-3.3-10-5.9-14.6-10.4 2.2-19.3 7.4-27.2 15.3l3.2 7.7zM477.7 477.3l7.4 3c8.1-7.6 13.3-16.6 15.2-26.9-4.4-2.7-9.2-4.6-14.4-5.9-5.6 8.7-8.5 18.5-8.2 29.8zM442.6 489l5.9-5.9c-4.1-10.3-10.6-18.7-19.1-24.4-2.1 1.7-4 3.3-5.7 5.2-1.9 1.9-3.6 3.8-5.2 5.7 5.6 8.8 13.8 15.1 24.1 19.4zM452.4 480.3l7.6-3c.3-11.2-2.5-21-8.4-29.7-5.1 1.3-9.8 3.2-14.4 5.9 2.2 10.2 7.3 19.2 15.2 26.8zM464.8 476.3h8.2c4.3-10.3 5.7-20.4 3.6-30.7-2.5-.2-5.1-.3-7.8-.3-2.8 0-5.2.2-7.9.3-1.8 10.3-.6 20.4 3.9 30.7zM448.5 535.5l-5.9-5.9c-10.4 4.1-18.5 10.4-24.2 19.2 1.4 2.1 3.2 4 5.2 5.9 1.7 1.9 3.6 3.6 5.7 5.2 8.6-5.9 15-14 19.2-24.4zM404.6 509.4c0 2.7.3 5.4.5 7.8 10.3 1.9 20.4.8 30.7-3.6v-8.2c-10.3-4.4-20.4-5.7-30.7-3.6-.2 2.4-.5 4.9-.5 7.6zM439.9 525.7l-3.2-7.6c-11.2-.2-21 2.7-29.8 8.5 1.3 5.1 3.2 9.8 5.9 14.2 10.3-2 19.4-7 27.1-15.1zM439.9 492.9c-7.6-8.1-16.8-13.1-27.1-15.2-2.5 4.4-4.6 9.3-5.9 14.4 8.7 5.9 18.5 8.5 29.8 8.4l3.2-7.6z"/></g></g></g><g><path opacity=".7" fill="#EC297B" d="M759.404 75.201L776.42 35.06l143.353 60.77-17.017 40.142z"/><path opacity=".7" fill="#EC297B" d="M849.928 5.377l40.143 17.017-60.77 143.353-40.142-17.017z"/><path opacity=".7" fill="#EC297B" d="M775.518 134.92l-16.355-40.416L903.497 36.1l16.355 40.417z"/><path opacity=".7" fill="#EC297B" d="M790.206 21.579l40.418-16.355 58.403 144.334-40.417 16.354z"/><path opacity=".43" fill="#FFF100" d="M809.377 156.715l-40.999-101.32 101.322-41 40.998 101.322z"/><path opacity=".43" fill="#FFF100" d="M767.879 114.563L810.528 13.93 911.16 56.579 868.511 157.21z"/><circle opacity=".5" fill="#00ADEE" cx="839.6" cy="85.6" r="46.3"/><path opacity=".4" fill="#00ADEE" d="M855.2 125.5c-22 8.6-46.9-2.2-55.6-24.2-8.6-22 2.2-46.9 24.2-55.6 22-8.6 46.9 2.2 55.6 24.2 8.7 22-2.2 46.9-24.2 55.6z"/><path opacity=".5" fill="#F1F1F2" d="M863.4 109.9c-9.4 3.7-20.1-.9-23.8-10.4-3.7-9.4.9-20.1 10.4-23.8 9.4-3.7 20.1.9 23.8 10.4 3.7 9.5-1 20.1-10.4 23.8z"/><circle opacity=".5" fill="#F1F1F2" cx="831.8" cy="103.1" r="18.4"/><circle opacity=".5" fill="#F1F1F2" cx="822.2" cy="79.6" r="18.4"/><circle opacity=".5" fill="#F1F1F2" cx="845.5" cy="69" r="18.4"/><path opacity=".5" fill="#F1F1F2" d="M839.6 119.9c-9.3-4.1-13.5-14.9-9.5-24.2 4.1-9.3 14.9-13.5 24.2-9.5 9.3 4.1 13.5 14.9 9.5 24.2-4.1 9.3-14.9 13.6-24.2 9.5z"/><path opacity=".5" fill="#F1F1F2" d="M814.9 109.5c-9.2-4.2-13.3-15.1-9-24.3 4.2-9.2 15.1-13.3 24.3-9 9.2 4.2 13.3 15.1 9 24.3-4.2 9.1-15.1 13.2-24.3 9z"/><circle opacity=".5" fill="#F1F1F2" cx="831.9" cy="69.4" r="18.4"/><circle opacity=".5" fill="#F1F1F2" cx="855.9" cy="78.3" r="18.4"/><circle opacity=".5" fill="#F1F1F2" cx="840.3" cy="86.7" r="13.8"/><circle opacity=".26" fill="#F9EC31" cx="847.2" cy="89.5" r="7"/><path opacity=".26" fill="#F9EC31" d="M840 100.1c-3.6 1.4-7.7-.5-9-4.1-1.3-3.6.5-7.7 4.1-9 3.6-1.3 7.7.5 9 4.1 1.4 3.6-.5 7.6-4.1 9z"/><path opacity=".26" fill="#F9EC31" d="M836.6 90.9c-3.6 1.4-7.7-.4-9.1-4-1.4-3.6.4-7.7 4-9.1 3.6-1.4 7.7.4 9.1 4 1.4 3.7-.4 7.7-4 9.1z"/><path opacity=".26" fill="#F9EC31" d="M845.5 86.9c-3.6 1.4-7.7-.4-9.1-4-1.4-3.6.4-7.7 4-9.1 3.6-1.4 7.7.4 9.1 4 1.4 3.6-.4 7.7-4 9.1z"/><circle opacity=".26" fill="#F9EC31" cx="843.5" cy="93.4" r="7"/><circle opacity=".26" fill="#F9EC31" cx="833.8" cy="89.4" r="7"/><circle opacity=".26" fill="#F9EC31" cx="837.7" cy="80.5" r="7"/><circle opacity=".26" fill="#F9EC31" cx="846.9" cy="83.9" r="7"/><g><path opacity=".7" fill="#EC297B" d="M759.404 75.201L776.42 35.06l143.353 60.77-17.017 40.142z"/><path opacity=".7" fill="#EC297B" d="M849.928 5.377l40.143 17.017-60.77 143.353-40.142-17.017z"/><path opacity=".7" fill="#EC297B" d="M775.518 134.92l-16.355-40.416L903.497 36.1l16.355 40.417z"/><path opacity=".7" fill="#EC297B" d="M790.206 21.579l40.418-16.355 58.403 144.334-40.417 16.354z"/><path opacity=".43" fill="#FFF100" d="M809.377 156.715l-40.999-101.32 101.322-41 40.998 101.322z"/><path opacity=".43" fill="#FFF100" d="M767.879 114.563L810.528 13.93 911.16 56.579 868.511 157.21z"/><circle opacity=".5" fill="#00ADEE" cx="839.6" cy="85.6" r="46.3"/><path opacity=".4" fill="#00ADEE" d="M855.2 125.5c-22 8.6-46.9-2.2-55.6-24.2-8.6-22 2.2-46.9 24.2-55.6 22-8.6 46.9 2.2 55.6 24.2 8.7 22-2.2 46.9-24.2 55.6z"/><path opacity=".5" fill="#F1F1F2" d="M863.4 109.9c-9.4 3.7-20.1-.9-23.8-10.4-3.7-9.4.9-20.1 10.4-23.8 9.4-3.7 20.1.9 23.8 10.4 3.7 9.5-1 20.1-10.4 23.8z"/><circle opacity=".5" fill="#F1F1F2" cx="831.8" cy="103.1" r="18.4"/><circle opacity=".5" fill="#F1F1F2" cx="822.2" cy="79.6" r="18.4"/><circle opacity=".5" fill="#F1F1F2" cx="845.5" cy="69" r="18.4"/><path opacity=".5" fill="#F1F1F2" d="M839.6 119.9c-9.3-4.1-13.5-14.9-9.5-24.2 4.1-9.3 14.9-13.5 24.2-9.5 9.3 4.1 13.5 14.9 9.5 24.2-4.1 9.3-14.9 13.6-24.2 9.5z"/><path opacity=".5" fill="#F1F1F2" d="M814.9 109.5c-9.2-4.2-13.3-15.1-9-24.3 4.2-9.2 15.1-13.3 24.3-9 9.2 4.2 13.3 15.1 9 24.3-4.2 9.1-15.1 13.2-24.3 9z"/><circle opacity=".5" fill="#F1F1F2" cx="831.9" cy="69.4" r="18.4"/><circle opacity=".5" fill="#F1F1F2" cx="855.9" cy="78.3" r="18.4"/><circle opacity=".5" fill="#F1F1F2" cx="840.3" cy="86.7" r="13.8"/><circle opacity=".26" fill="#F9EC31" cx="847.2" cy="89.5" r="7"/><path opacity=".26" fill="#F9EC31" d="M840 100.1c-3.6 1.4-7.7-.5-9-4.1-1.3-3.6.5-7.7 4.1-9 3.6-1.3 7.7.5 9 4.1 1.4 3.6-.5 7.6-4.1 9z"/><path opacity=".26" fill="#F9EC31" d="M836.6 90.9c-3.6 1.4-7.7-.4-9.1-4-1.4-3.6.4-7.7 4-9.1 3.6-1.4 7.7.4 9.1 4 1.4 3.7-.4 7.7-4 9.1z"/><path opacity=".26" fill="#F9EC31" d="M845.5 86.9c-3.6 1.4-7.7-.4-9.1-4-1.4-3.6.4-7.7 4-9.1 3.6-1.4 7.7.4 9.1 4 1.4 3.6-.4 7.7-4 9.1z"/><circle opacity=".26" fill="#F9EC31" cx="843.5" cy="93.4" r="7"/><circle opacity=".26" fill="#F9EC31" cx="833.8" cy="89.4" r="7"/><circle opacity=".26" fill="#F9EC31" cx="837.7" cy="80.5" r="7"/><circle opacity=".26" fill="#F9EC31" cx="846.9" cy="83.9" r="7"/></g></g><g><path opacity=".7" fill="#0AB9BD" d="M829.1 217.2H850v158.6h-20.9z"/><path opacity=".7" fill="#0AB9BD" d="M760.2 286.1h158.6V307H760.2z"/><path opacity=".7" fill="#0AB9BD" d="M888.29 233.093l14.78 14.78-112.163 112.146-14.778-14.78z"/><path opacity=".7" fill="#0AB9BD" d="M903.033 345.205l-14.778 14.778-112.146-112.146 14.778-14.778z"/><path opacity=".5" fill="#EC297B" d="M860.812 219.432l19.25 8.139-61.758 146.086-19.25-8.138z"/><path opacity=".5" fill="#EC297B" d="M916.67 317.803l-8.138 19.25-146.087-61.758 8.139-19.251z"/><path opacity=".5" fill="#EC297B" d="M909.11 256.977l7.856 19.365-146.959 59.618-7.856-19.366z"/><path opacity=".5" fill="#EC297B" d="M879.028 366.146l-19.368 7.856-59.618-146.974 19.368-7.856z"/><path opacity=".43" fill="#FFF100" d="M773.9 269.3l38.4-38.4h54.5l38.4 38.4v54.4l-38.4 38.5h-54.5l-38.4-38.5z"/><path opacity=".43" fill="#FFF100" d="M789.7 245.9l50.4-20.5 50.1 21.2 20.4 50.5-21.2 50.1-50.4 20.4-50.1-21.2-20.4-50.4z"/><path fill="#0AB9BD" d="M829 307.2v5.3l.1 9.5 6.8-6.9 3.6-3.6 3.8 3.7 6.7 6.7-.1-9.7v-5.1h5.3l9.5-.1-6.9-6.8-3.6-3.6 3.7-3.7 6.7-6.8-9.7.1h-5.1v-14.8l-6.9 6.9-3.5 3.6-3.8-3.7-6.7-6.7V286.3h-5.3l-9.5.1 6.9 6.8 3.6 3.6-3.7 3.8-6.7 6.7 9.7-.1z"/><g opacity=".8" fill="#F1F1F2"><path opacity=".5" d="M867.5 268.5c4.3 11.1-1.1 23.6-12.2 27.9-11.1 4.3-23.6-1.1-27.9-12.2-4.3-11.1 1.1-23.6 12.2-27.9 11.1-4.4 23.6 1.1 27.9 12.2z"/><path opacity=".5" d="M879.8 298c4.1 11.1-1.5 23.5-12.7 27.7-11.1 4.1-23.5-1.5-27.7-12.7-4.1-11.1 1.5-23.5 12.7-27.7 11.1-4.1 23.5 1.6 27.7 12.7z"/><path opacity=".5" d="M852 308.9c4.3 11.1-1.1 23.6-12.2 27.9-11.1 4.3-23.6-1.1-27.9-12.2-4.3-11.1 1.1-23.6 12.2-27.9 11.1-4.3 23.6 1.1 27.9 12.2z"/><path opacity=".5" d="M839.6 281.5c4.3 11.1-1.1 23.6-12.2 27.9-11.1 4.3-23.6-1.1-27.9-12.2-4.4-11.1 1.1-23.6 12.2-27.9 11-4.3 23.5 1.2 27.9 12.2z"/><path opacity=".5" d="M879.2 296.3c-4.8 10.9-17.4 15.9-28.4 11.1-10.9-4.7-15.9-17.4-11.1-28.3 4.8-10.9 17.4-15.9 28.3-11.1 11 4.7 16 17.4 11.2 28.3z"/><path opacity=".5" d="M867 325.3c-5 10.8-17.7 15.6-28.5 10.6s-15.6-17.7-10.6-28.5 17.7-15.6 28.5-10.6c10.8 4.9 15.5 17.7 10.6 28.5z"/><path opacity=".5" d="M839.7 314c-4.8 10.9-17.4 15.9-28.3 11.1-10.9-4.8-15.9-17.4-11.1-28.3 4.8-10.9 17.4-15.9 28.4-11.1 10.8 4.7 15.8 17.4 11 28.3z"/><path opacity=".5" d="M850.2 285.8c-4.8 10.9-17.4 15.9-28.3 11.1-10.9-4.8-15.9-17.4-11.1-28.3 4.8-10.9 17.4-15.9 28.3-11.1 10.9 4.7 15.9 17.4 11.1 28.3z"/></g></g><g><path opacity=".7" fill="#0AB9BD" d="M829.1 217.2H850v158.6h-20.9z"/><path opacity=".7" fill="#0AB9BD" d="M760.2 286.1h158.6V307H760.2z"/><path opacity=".7" fill="#0AB9BD" d="M888.29 233.093l14.78 14.78-112.163 112.146-14.778-14.78z"/><path opacity=".7" fill="#0AB9BD" d="M903.033 345.205l-14.778 14.778-112.146-112.146 14.778-14.778z"/><path opacity=".5" fill="#EC297B" d="M860.812 219.432l19.25 8.139-61.758 146.086-19.25-8.138z"/><path opacity=".5" fill="#EC297B" d="M916.67 317.803l-8.138 19.25-146.087-61.758 8.139-19.251z"/><path opacity=".5" fill="#EC297B" d="M909.11 256.977l7.856 19.365-146.959 59.618-7.856-19.366z"/><path opacity=".5" fill="#EC297B" d="M879.028 366.146l-19.368 7.856-59.618-146.974 19.368-7.856z"/><path opacity=".43" fill="#FFF100" d="M773.9 269.3l38.4-38.4h54.5l38.4 38.4v54.4l-38.4 38.5h-54.5l-38.4-38.5z"/><path opacity=".43" fill="#FFF100" d="M789.7 245.9l50.4-20.5 50.1 21.2 20.4 50.5-21.2 50.1-50.4 20.4-50.1-21.2-20.4-50.4z"/><path fill="#0AB9BD" d="M829 307.2v5.3l.1 9.5 6.8-6.9 3.6-3.6 3.8 3.7 6.7 6.7-.1-9.7v-5.1h5.3l9.5-.1-6.9-6.8-3.6-3.6 3.7-3.7 6.7-6.8-9.7.1h-5.1v-14.8l-6.9 6.9-3.5 3.6-3.8-3.7-6.7-6.7V286.3h-5.3l-9.5.1 6.9 6.8 3.6 3.6-3.7 3.8-6.7 6.7 9.7-.1z"/><g opacity=".8" fill="#F1F1F2"><path opacity=".5" d="M867.5 268.5c4.3 11.1-1.1 23.6-12.2 27.9-11.1 4.3-23.6-1.1-27.9-12.2-4.3-11.1 1.1-23.6 12.2-27.9 11.1-4.4 23.6 1.1 27.9 12.2z"/><path opacity=".5" d="M879.8 298c4.1 11.1-1.5 23.5-12.7 27.7-11.1 4.1-23.5-1.5-27.7-12.7-4.1-11.1 1.5-23.5 12.7-27.7 11.1-4.1 23.5 1.6 27.7 12.7z"/><path opacity=".5" d="M852 308.9c4.3 11.1-1.1 23.6-12.2 27.9-11.1 4.3-23.6-1.1-27.9-12.2-4.3-11.1 1.1-23.6 12.2-27.9 11.1-4.3 23.6 1.1 27.9 12.2z"/><path opacity=".5" d="M839.6 281.5c4.3 11.1-1.1 23.6-12.2 27.9-11.1 4.3-23.6-1.1-27.9-12.2-4.4-11.1 1.1-23.6 12.2-27.9 11-4.3 23.5 1.2 27.9 12.2z"/><path opacity=".5" d="M879.2 296.3c-4.8 10.9-17.4 15.9-28.4 11.1-10.9-4.7-15.9-17.4-11.1-28.3 4.8-10.9 17.4-15.9 28.3-11.1 11 4.7 16 17.4 11.2 28.3z"/><path opacity=".5" d="M867 325.3c-5 10.8-17.7 15.6-28.5 10.6s-15.6-17.7-10.6-28.5 17.7-15.6 28.5-10.6c10.8 4.9 15.5 17.7 10.6 28.5z"/><path opacity=".5" d="M839.7 314c-4.8 10.9-17.4 15.9-28.3 11.1-10.9-4.8-15.9-17.4-11.1-28.3 4.8-10.9 17.4-15.9 28.4-11.1 10.8 4.7 15.8 17.4 11 28.3z"/><path opacity=".5" d="M850.2 285.8c-4.8 10.9-17.4 15.9-28.3 11.1-10.9-4.8-15.9-17.4-11.1-28.3 4.8-10.9 17.4-15.9 28.3-11.1 10.9 4.7 15.9 17.4 11.1 28.3z"/></g></g><g><g fill="#FDD405"><path d="M895.8 530.9c-2.3-3.2-5.3-6.1-8.5-8.5-1.8-.9-3.5-1.8-5-2.6-10.8-4.7-22.8-7.6-35.9-7.9-1.5-.3-2.3-.3-3.8 0h-.3c-.3 0 0 .3 0 .3 0 1.2-.3 2.6 0 3.8.3 13.1 2.9 25.1 7.6 36.2.9 1.5 1.7 3.2 2.9 4.7 2 3.2 5 6.1 8.5 8.8 3.2 2 6.1 3.5 9.9 4.7 3.8 1.2 7.9 1.2 12.3.6 3.8-.9 7.3-2.3 10.2-4.4.9-.6 1.5-.9 2-1.2.3-.9.6-1.2.9-1.8 2.3-3.2 3.8-6.7 4.4-10.2.6-4.1.6-8.2-.6-12.6-.8-3.5-2.6-6.7-4.6-9.9zM833 511.9c-13.1.3-25.4 2.9-35.9 8.2-1.8.6-3.2 1.5-4.7 2.3-3.5 2.3-6.4 5.3-8.8 8.5-2.3 3.2-4.1 6.7-5 10.2-1.2 4.1-1.5 8.2-.6 12.3.9 3.5 2 7 4.4 10.2.6.6.6.9 1.5 1.8.3.3.9.6 1.5 1.2 3.2 2 6.4 3.5 10.2 4.4 4.1.6 8.2.6 12.3-.6 3.8-1.2 7-2.9 9.9-4.7 3.8-2.6 6.7-5.6 8.8-8.8 1.2-1.5 1.8-3.2 2.6-4.7 5.3-12.3 7.9-25.4 7.9-39.7v-.6H833zM826.5 461.9c-2.3-3.5-5-6.4-8.8-8.8-2.9-2-6.1-3.8-9.9-4.7-3.8-1.5-7.9-1.5-12.3-.6-3.8.6-7 2-10.2 4.4-.3.3-.9.6-1.5.9-.6.6-.9 1.2-1.5 2-2.3 2.9-3.8 6.4-4.4 10.2-.9 4.1-.6 8.2.6 12.3.9 3.8 2.6 6.7 5 10.2 2.3 3.2 5.3 6.1 8.8 8.5 1.5.9 2.9 1.8 4.4 2.3 12 5.6 25.1 8.2 40 8.2h.3v-.9c0-14.3-2.6-27.5-7.9-39.7-.8-1.4-1.4-2.8-2.6-4.3zM842.3 506.9h.3c14.6.3 27.8-2.6 39.7-8.2 1.5-.6 3.2-1.5 4.7-2.3 3.5-2.3 6.4-5.3 8.8-8.5 2-3.2 3.5-6.4 4.7-10.2 1.2-4.1 1.5-8.5.6-12.3-.6-3.8-2-7.3-4.4-10.2-.3-.9-.9-1.5-1.2-1.8-.6-.6-1.2-.9-1.8-1.2-2.9-2.3-6.4-3.8-10.2-4.4-4.1-.9-8.2-.6-12 .6-3.8.9-7 2.6-10.2 4.7-3.5 2.3-6.4 5.5-8.5 8.8-1.2 1.5-2 2.9-2.6 5-5 10.5-7.6 22.8-7.9 35.9-.3 1.2-.3 2 0 3.2v.9z"/></g><g fill="#EC297B"><path d="M864 564.3c.6-3.9.6-8.1 0-12-.6-1.9-1.2-3.7-1.7-5.4-4.3-10.9-10.7-21.5-19.8-31-.8-1.2-1.4-1.9-2.7-2.7l-.2-.2c-.2-.2-.2.2-.2.2-.8.8-2.1 1.7-2.7 2.7-9.1 9.5-15.7 19.8-20.2 31-.4 1.7-1 3.5-1.2 5.4-.8 3.7-.8 7.9-.2 12.2.8 3.7 1.9 6.8 3.7 10.3 1.9 3.5 4.8 6.4 8.3 9.1 3.3 2.1 6.8 3.5 10.3 4.1 1 .2 1.7.4 2.3.6.8-.4 1.2-.4 1.9-.6 3.9-.6 7.4-2.1 10.3-4.1 3.3-2.5 6.2-5.4 8.5-9.3 1.8-3.1 2.8-6.6 3.6-10.3zM833 506.5c-9.5-9.1-20-15.9-31.2-19.6-1.7-.8-3.3-1.2-5-1.7-4.1-.8-8.3-.8-12.2-.2-3.9.6-7.6 1.9-10.7 3.7-3.7 2.1-6.8 4.7-9.1 8.3-1.9 3.1-3.5 6.4-4.1 10.3 0 .8-.2 1-.2 2.3 0 .4.2 1 .2 1.9.8 3.7 2.1 7 4.1 10.3 2.5 3.3 5.4 6.2 9.1 8.3 3.5 1.9 7 2.9 10.3 3.7 4.5.8 8.7.8 12.4 0 1.9-.2 3.5-1 5.2-1.5 12.4-5 23.5-12.4 33.7-22.5l.4-.4-.4-.4c-.8-.9-1.6-1.7-2.5-2.5zM863.8 466.6c.8-4.1 1-8.1 0-12.4-.6-3.5-1.7-7-3.7-10.3-1.7-3.7-4.5-6.6-8.3-9.1-3.1-2.3-6.4-3.5-10.3-4.1-.4 0-1-.2-1.7-.4-.8 0-1.4.2-2.5.4-3.7.4-7.2 1.9-10.3 4.1-3.5 2.3-6.2 5.4-8.3 9.1-2.1 3.3-2.9 6.6-3.7 10.7-.6 3.9-.6 8.1.2 12.2.4 1.7.8 3.3 1.4 4.7 4.5 12.4 12 23.6 22.5 34.1l.2.2.6-.6c10.1-10.1 17.6-21.3 22.5-33.7.6-1.6 1.2-3 1.4-4.9zM843.2 509.6l.2.2c10.1 10.5 21.5 17.8 33.9 22.3 1.4.6 3.3 1.2 5 1.7 4.1.8 8.3.8 12.2.2 3.7-.8 7-2.1 10.5-3.9 3.7-2.1 7-5 9.1-8.3 2.3-3.1 3.7-6.6 4.1-10.3.4-.8.4-1.7.4-2.1 0-.8-.2-1.4-.4-2.1-.4-3.7-1.9-7.2-4.1-10.3-2.3-3.5-5.4-6.2-8.9-8.1-3.3-2.1-6.8-3.1-10.5-3.9-4.1-.8-8.5-.6-12.2.2-1.9.2-3.5.6-5.4 1.7-10.9 3.9-21.5 10.7-31 19.8-1 .6-1.7 1.2-2.3 2.3l-.6.6z"/></g><path fill="#F79634" d="M864.2 507.4l-1.2-6c9.8-6.9 20.7-8.9 32.3-6 2.9-2.1 5.5-4.7 8.1-7.5l-3.7-9.2c-3.8 0-7.7.3-11.2.8-6.3 10.3-15.3 16.4-26.9 18.4l-3.2-4.9c6.3-10.1 15.5-16.1 27.5-17.9 1.8-3.1 3.4-6.3 4.6-9.8l-7-7c-3.7 1.4-6.9 2.9-9.9 4.9-1.8 11.8-8 20.8-17.9 27.4l-5.1-3.5c2.1-11.6 8.4-20.8 18.5-26.9.6-3.7.8-7.3.6-11l-9.2-4c-2.6 2.8-5.2 5.5-7.2 8.4 2.8 11.6.8 22.3-6.1 32.1l-5.8-1.2c-2.6-11.6-.3-22.2 6.7-32-.9-3.5-2.1-6.9-3.7-10.4h-9.9c-1.5 3.5-2.6 6.9-3.7 10.4 7.2 9.8 9.3 20.4 6.9 32l-6 1.2c-6.7-9.8-8.7-20.5-5.8-32.1-2.3-2.9-4.7-5.7-7.5-8.3l-9.3 3.8c0 3.7.2 7.3.8 11 10.1 6.1 16.4 15.2 18.5 26.8l-5.2 3.5c-9.9-6.4-15.8-15.5-17.8-27.2-3.1-2-6.3-3.5-9.9-4.9l-6.9 7c1.4 3.5 2.9 6.7 4.6 9.8 11.9 1.8 21.1 7.8 27.5 17.9l-3.4 4.9c-11.6-2-20.5-8.1-26.9-18.4-3.5-.5-7.2-.8-11-.8l-3.8 9.5c2.6 2.6 5.4 5 8.3 7.2 11.6-2.9 22.3-.9 32.1 6l-1.4 6c-11.5 2.4-22 .2-31.7-6.7-3.5.9-7 2.1-10.6 3.5v10.1c3.4 1.5 6.9 2.6 10.3 3.5 9.8-7 20.5-9.3 32-6.9l1.4 6c-9.8 6.7-20.5 8.9-32 6.1-3.1 2.1-5.8 4.6-8.4 7.3l3.8 9.2c3.8 0 7.5 0 10.9-.6 6.3-10.4 15.2-16.5 27.1-18.7l3.4 5.1c-6.4 9.9-15.5 15.9-27.4 17.8-1.8 3.2-3.4 6.6-4.7 10.3l6.9 7c3.7-1.4 6.9-3.1 9.9-4.9 1.8-11.8 7.8-21 17.8-27.4l5.2 3.4c-2.1 11.6-8.4 20.7-18.5 26.8-.5 3.7-.8 7.3-.6 11.2l9.2 3.7c2.8-2.4 5.2-5.2 7.5-8.1-3.1-11.6-1.1-22.3 5.8-32.3l6 1.2c2.4 11.6.3 22.2-6.9 32.1 1.1 3.4 2.1 6.9 3.7 10.3h9.9c1.5-3.4 2.8-6.9 3.8-10.3-7.2-9.8-9.5-20.4-6.9-32.1l5.8-1.2c6.9 9.8 8.9 20.5 6.1 32.1 2 2.9 4.6 5.7 7.3 8.3l9-3.8c.2-3.8 0-7.5-.6-11-10.1-6.1-16.4-15.2-18.5-26.8l5.1-3.4c9.9 6.4 16.1 15.5 17.9 27.2 3.1 1.8 6.3 3.5 9.9 5.1l7-7.2c-1.5-3.7-3.1-7-4.9-10.1-11.9-1.7-21-7.7-27.2-17.8l3.2-5.1c11.8 2.1 20.8 8.3 27.1 18.7 3.4.6 7.2.6 11 .6l3.8-9.2c-2.8-2.8-5.5-5.2-8.4-7.3-11.6 2.8-22.3.6-32.1-6.1l1.2-5.8c11.6-2.6 22.3-.3 32 6.7 3.5-.9 6.9-2.1 10.4-3.7v-10c-3.5-1.5-6.9-2.8-10.4-3.5-9.6 6.9-20.3 9.2-32 6.7z"/><g opacity=".6" fill="#CE1E58"><path d="M832.4 566.9c2.4.1 4.7.4 7.2.4 2.4 0 4.7-.3 7-.4 1.9-9.3.7-18.6-3.3-28h-7.5c-3.9 9.4-5.1 18.7-3.4 28zM854.4 535.2l-6.7 2.9c-.3 10.2 2.3 19.2 7.5 27.1 4.7-1.1 9-3 13.1-5.5-1.9-9.1-6.6-17.5-13.9-24.5zM831.6 537.9l-6.9-2.7c-7.3 7-11.9 15.3-13.8 24.5 4.2 2.4 8.5 4.3 13.1 5.5 5.1-7.9 7.7-16.9 7.6-27.3zM875.4 554.9c1.7-1.4 3.4-3 5.3-4.7 1.6-1.7 3.2-3.4 4.6-5.3-5.3-7.9-12.6-13.6-21.9-17.2l-5.4 5.2c3.8 9.3 9.6 16.7 17.4 22zM869.4 505.4v7.5c9.3 4 18.6 5 27.8 3.3.3-2.3.4-4.7.4-7 0-2.4-.1-4.9-.4-7.2-9.3-1.8-18.5-.6-27.8 3.4zM885.3 473.1c-1.4-1.7-3-3.4-4.6-5.2-1.9-1.7-3.6-3.3-5.5-4.7-7.7 5.2-13.6 12.6-17.4 22.1l5.3 5.3c9.6-3.9 16.9-9.6 22.2-17.5zM895.8 524.6c-8-5.2-17.1-7.7-27.2-7.6l-2.9 6.9c7.2 7.3 15.2 11.9 24.7 13.8 2.3-4.1 4-8.4 5.4-13.1zM868.6 501.1c10.2.1 19.2-2.3 27.1-7.6-1.3-4.6-3-9-5.3-13.2-9.5 2-17.5 6.7-24.7 13.9l2.9 6.9zM847.6 480l6.7 2.7c7.3-6.9 12-15.1 13.8-24.4-4-2.4-8.3-4.2-13.1-5.3-5.1 7.9-7.7 16.8-7.4 27zM815.8 490.6l5.3-5.3c-3.7-9.3-9.6-16.9-17.4-22.1-1.9 1.6-3.6 3-5.2 4.7-1.7 1.7-3.3 3.4-4.7 5.2 5.2 7.9 12.7 13.6 22 17.5zM824.7 482.7l6.9-2.7c.3-10.2-2.3-19.1-7.6-27-4.6 1.1-8.9 2.9-13.1 5.3 2 9.4 6.6 17.5 13.8 24.4zM835.9 479.1h7.5c3.9-9.3 5.2-18.5 3.3-27.8-2.3-.1-4.6-.3-7-.3-2.6 0-4.7.1-7.2.3-1.8 9.3-.6 18.5 3.4 27.8zM821.1 532.8l-5.3-5.3c-9.5 3.7-16.8 9.5-21.9 17.4 1.3 1.9 2.9 3.6 4.7 5.3 1.6 1.7 3.3 3.3 5.2 4.7 7.7-5.3 13.6-12.7 17.3-22.1zM781.4 509.1c0 2.4.3 4.9.4 7 9.3 1.7 18.5.7 27.8-3.3v-7.5c-9.3-4-18.5-5.2-27.8-3.3-.1 2.4-.4 4.7-.4 7.1zM813.4 523.9l-2.9-6.9c-10.2-.1-19.1 2.4-27 7.7 1.1 4.6 2.9 8.9 5.3 12.9 9.3-1.8 17.5-6.4 24.6-13.7zM813.4 494.2c-6.9-7.3-15.2-11.9-24.5-13.8-2.3 4-4.2 8.5-5.3 13.1 7.9 5.3 16.8 7.7 27 7.6l2.8-6.9z"/></g><g opacity=".8" fill="#CE1E58"><path d="M826.5 540.8c6.4-4.9 9.5-11.1 9.4-18.6l-3.1-1.3c-5.3 5.4-7.6 12-6.3 19.9zM826.1 510.8v-3.4c-7-2.9-13.9-2.3-20.8 1.9 6.9 3.9 13.9 4.5 20.8 1.5zM843.1 522.4c-.1 7.4 3 13.6 9.5 18.4 1.2-8-1-14.5-6.4-19.7l-3.1 1.3zM827.7 502.4c-5.3-5.3-11.8-7.5-19.6-6.3 4.7 6.4 10.9 9.5 18.4 9.4l1.2-3.1zM841.3 522.7h-3.4c-3 7-2.4 13.8 1.8 20.7 4-6.9 4.5-13.7 1.6-20.7zM831.2 519.9l-2.3-2.4c-7 2.7-11.5 8.1-13.4 15.9 7.7-2 12.9-6.6 15.7-13.5zM828.7 500.8l2.4-2.3c-2.7-7-8-11.5-15.8-13.4 2 7.7 6.5 12.9 13.4 15.7zM850.3 517.5l-2.4 2.4c2.7 6.9 8.1 11.5 15.9 13.4-2-7.7-6.5-13.1-13.5-15.8zM837.9 495.6h3.4c2.9-6.9 2.3-13.8-1.8-20.6-4.1 6.8-4.6 13.7-1.6 20.6zM853 507.5v3.3c6.9 3 13.8 2.4 20.7-1.7-6.8-4.1-13.7-4.6-20.7-1.6zM852.7 477.6c-6.5 4.7-9.6 10.9-9.4 18.5l3 1.3c5.4-5.3 7.5-11.9 6.4-19.8zM871.1 522.2c-4.8-6.3-10.9-9.5-18.5-9.4l-1.4 3.1c5.3 5.4 12 7.5 19.9 6.3zM835.9 496c.1-7.5-3-13.7-9.4-18.4-1.2 7.9 1 14.5 6.3 19.7l3.1-1.3zM851.3 502.4l1.4 3.1c7.6.1 13.7-3 18.5-9.4-8-1.2-14.7 1-19.9 6.3zM827.7 515.8l-1.3-3.1c-7.5-.1-13.7 3.1-18.4 9.5 7.9 1.2 14.4-.9 19.7-6.4zM848 498.4l2.3 2.3c7-2.7 11.5-8.1 13.4-15.9-7.7 2.1-13 6.6-15.7 13.6z"/></g><path fill="#CE1E58" d="M845.7 518.5c.1.1.1.2.2.2 0-.1-.1-.2-.1-.3-.3-1.1-.1-1.9.5-2.5.5-.6 1.4-.7 2.5-.4.1 0 .2 0 .2.1-.1-.1-.1-.2-.1-.2-.7-.9-.8-1.8-.5-2.5.3-.8 1-1.2 2.1-1.4.1 0 .2 0 .3-.1-.1-.1-.2-.1-.3-.2-1-.6-1.4-1.3-1.4-2.1s.4-1.5 1.4-2l.2-.2h-.3c-1.1-.2-1.8-.6-2.1-1.4-.3-.7-.2-1.6.5-2.5.1-.1.1-.2.2-.2h-.3c-1.1.3-2 .2-2.5-.4-.6-.6-.7-1.4-.5-2.5 0-.1.1-.2.1-.3-.1 0-.1.1-.2.2-1 .6-1.8.8-2.5.5-.7-.3-1.2-1.1-1.4-2.1v-.3c-.1 0-.1.1-.2.2-.6 1-1.3 1.4-2.1 1.5-.8 0-1.5-.5-2-1.4-.1-.1-.2-.2-.2-.3v.3c-.2 1.1-.6 1.8-1.4 2.1-.7.3-1.6.1-2.5-.5l-.2-.2c.1.1.1.2.1.3.3 1.1.1 1.9-.5 2.5-.5.6-1.4.7-2.5.4h-.2s.1.1.1.2c.7.9.8 1.8.6 2.5-.4.8-1.1 1.2-2.2 1.4h-.2l.2.2c1 .5 1.5 1.2 1.5 2 0 .9-.5 1.6-1.5 2.2-.1.1-.2.1-.2.1.1.1.2.1.3.1 1.1.2 1.7.6 2.1 1.4.3.7.1 1.6-.6 2.5 0 .1-.1.2-.1.2h.3c1.1-.3 1.9-.2 2.4.4.6.6.7 1.4.5 2.5 0 .1 0 .2-.1.3.1 0 .1-.1.2-.2.9-.6 1.8-.8 2.5-.5.7.3 1.2 1.1 1.4 2.2v.2c.1-.1.1-.2.2-.2.5-1 1.2-1.5 2-1.5.9 0 1.5.5 2.1 1.5l.2.2v-.2c.2-1.1.6-1.9 1.4-2.2.8-.4 1.6-.2 2.6.4zm-7.2-7c-.7-.3-1.1-.7-1.4-1.3-.3-.7-.3-1.3 0-2 .3-.6.7-1.1 1.4-1.4.6-.2 1.3-.2 1.9 0 .7.3 1.2.8 1.4 1.4.3.7.3 1.3 0 2-.3.6-.7 1.1-1.4 1.3-.6.3-1.2.3-1.9 0z"/><path fill="#F79634" d="M864.2 507.4l-1.2-6c9.8-6.9 20.7-8.9 32.3-6 2.9-2.1 5.5-4.7 8.1-7.5l-3.7-9.2c-3.8 0-7.7.3-11.2.8-6.3 10.3-15.3 16.4-26.9 18.4l-3.2-4.9c6.3-10.1 15.5-16.1 27.5-17.9 1.8-3.1 3.4-6.3 4.6-9.8l-7-7c-3.7 1.4-6.9 2.9-9.9 4.9-1.8 11.8-8 20.8-17.9 27.4l-5.1-3.5c2.1-11.6 8.4-20.8 18.5-26.9.6-3.7.8-7.3.6-11l-9.2-4c-2.6 2.8-5.2 5.5-7.2 8.4 2.8 11.6.8 22.3-6.1 32.1l-5.8-1.2c-2.6-11.6-.3-22.2 6.7-32-.9-3.5-2.1-6.9-3.7-10.4h-9.9c-1.5 3.5-2.6 6.9-3.7 10.4 7.2 9.8 9.3 20.4 6.9 32l-6 1.2c-6.7-9.8-8.7-20.5-5.8-32.1-2.3-2.9-4.7-5.7-7.5-8.3l-9.3 3.8c0 3.7.2 7.3.8 11 10.1 6.1 16.4 15.2 18.5 26.8l-5.2 3.5c-9.9-6.4-15.8-15.5-17.8-27.2-3.1-2-6.3-3.5-9.9-4.9l-6.9 7c1.4 3.5 2.9 6.7 4.6 9.8 11.9 1.8 21.1 7.8 27.5 17.9l-3.4 4.9c-11.6-2-20.5-8.1-26.9-18.4-3.5-.5-7.2-.8-11-.8l-3.8 9.5c2.6 2.6 5.4 5 8.3 7.2 11.6-2.9 22.3-.9 32.1 6l-1.4 6c-11.5 2.4-22 .2-31.7-6.7-3.5.9-7 2.1-10.6 3.5v10.1c3.4 1.5 6.9 2.6 10.3 3.5 9.8-7 20.5-9.3 32-6.9l1.4 6c-9.8 6.7-20.5 8.9-32 6.1-3.1 2.1-5.8 4.6-8.4 7.3l3.8 9.2c3.8 0 7.5 0 10.9-.6 6.3-10.4 15.2-16.5 27.1-18.7l3.4 5.1c-6.4 9.9-15.5 15.9-27.4 17.8-1.8 3.2-3.4 6.6-4.7 10.3l6.9 7c3.7-1.4 6.9-3.1 9.9-4.9 1.8-11.8 7.8-21 17.8-27.4l5.2 3.4c-2.1 11.6-8.4 20.7-18.5 26.8-.5 3.7-.8 7.3-.6 11.2l9.2 3.7c2.8-2.4 5.2-5.2 7.5-8.1-3.1-11.6-1.1-22.3 5.8-32.3l6 1.2c2.4 11.6.3 22.2-6.9 32.1 1.1 3.4 2.1 6.9 3.7 10.3h9.9c1.5-3.4 2.8-6.9 3.8-10.3-7.2-9.8-9.5-20.4-6.9-32.1l5.8-1.2c6.9 9.8 8.9 20.5 6.1 32.1 2 2.9 4.6 5.7 7.3 8.3l9-3.8c.2-3.8 0-7.5-.6-11-10.1-6.1-16.4-15.2-18.5-26.8l5.1-3.4c9.9 6.4 16.1 15.5 17.9 27.2 3.1 1.8 6.3 3.5 9.9 5.1l7-7.2c-1.5-3.7-3.1-7-4.9-10.1-11.9-1.7-21-7.7-27.2-17.8l3.2-5.1c11.8 2.1 20.8 8.3 27.1 18.7 3.4.6 7.2.6 11 .6l3.8-9.2c-2.8-2.8-5.5-5.2-8.4-7.3-11.6 2.8-22.3.6-32.1-6.1l1.2-5.8c11.6-2.6 22.3-.3 32 6.7 3.5-.9 6.9-2.1 10.4-3.7v-10c-3.5-1.5-6.9-2.8-10.4-3.5-9.6 6.9-20.3 9.2-32 6.7z"/><g opacity=".6" fill="#CE1E58"><path d="M832.4 566.9c2.4.1 4.7.4 7.2.4 2.4 0 4.7-.3 7-.4 1.9-9.3.7-18.6-3.3-28h-7.5c-3.9 9.4-5.1 18.7-3.4 28zM854.4 535.2l-6.7 2.9c-.3 10.2 2.3 19.2 7.5 27.1 4.7-1.1 9-3 13.1-5.5-1.9-9.1-6.6-17.5-13.9-24.5zM831.6 537.9l-6.9-2.7c-7.3 7-11.9 15.3-13.8 24.5 4.2 2.4 8.5 4.3 13.1 5.5 5.1-7.9 7.7-16.9 7.6-27.3zM875.4 554.9c1.7-1.4 3.4-3 5.3-4.7 1.6-1.7 3.2-3.4 4.6-5.3-5.3-7.9-12.6-13.6-21.9-17.2l-5.4 5.2c3.8 9.3 9.6 16.7 17.4 22zM869.4 505.4v7.5c9.3 4 18.6 5 27.8 3.3.3-2.3.4-4.7.4-7 0-2.4-.1-4.9-.4-7.2-9.3-1.8-18.5-.6-27.8 3.4zM885.3 473.1c-1.4-1.7-3-3.4-4.6-5.2-1.9-1.7-3.6-3.3-5.5-4.7-7.7 5.2-13.6 12.6-17.4 22.1l5.3 5.3c9.6-3.9 16.9-9.6 22.2-17.5zM895.8 524.6c-8-5.2-17.1-7.7-27.2-7.6l-2.9 6.9c7.2 7.3 15.2 11.9 24.7 13.8 2.3-4.1 4-8.4 5.4-13.1zM868.6 501.1c10.2.1 19.2-2.3 27.1-7.6-1.3-4.6-3-9-5.3-13.2-9.5 2-17.5 6.7-24.7 13.9l2.9 6.9zM847.6 480l6.7 2.7c7.3-6.9 12-15.1 13.8-24.4-4-2.4-8.3-4.2-13.1-5.3-5.1 7.9-7.7 16.8-7.4 27zM815.8 490.6l5.3-5.3c-3.7-9.3-9.6-16.9-17.4-22.1-1.9 1.6-3.6 3-5.2 4.7-1.7 1.7-3.3 3.4-4.7 5.2 5.2 7.9 12.7 13.6 22 17.5zM824.7 482.7l6.9-2.7c.3-10.2-2.3-19.1-7.6-27-4.6 1.1-8.9 2.9-13.1 5.3 2 9.4 6.6 17.5 13.8 24.4zM835.9 479.1h7.5c3.9-9.3 5.2-18.5 3.3-27.8-2.3-.1-4.6-.3-7-.3-2.6 0-4.7.1-7.2.3-1.8 9.3-.6 18.5 3.4 27.8zM821.1 532.8l-5.3-5.3c-9.5 3.7-16.8 9.5-21.9 17.4 1.3 1.9 2.9 3.6 4.7 5.3 1.6 1.7 3.3 3.3 5.2 4.7 7.7-5.3 13.6-12.7 17.3-22.1zM781.4 509.1c0 2.4.3 4.9.4 7 9.3 1.7 18.5.7 27.8-3.3v-7.5c-9.3-4-18.5-5.2-27.8-3.3-.1 2.4-.4 4.7-.4 7.1zM813.4 523.9l-2.9-6.9c-10.2-.1-19.1 2.4-27 7.7 1.1 4.6 2.9 8.9 5.3 12.9 9.3-1.8 17.5-6.4 24.6-13.7zM813.4 494.2c-6.9-7.3-15.2-11.9-24.5-13.8-2.3 4-4.2 8.5-5.3 13.1 7.9 5.3 16.8 7.7 27 7.6l2.8-6.9z"/></g><g opacity=".5" fill="#FFF"><path d="M826.5 540.8c6.4-4.9 9.5-11.1 9.4-18.6l-3.1-1.3c-5.3 5.4-7.6 12-6.3 19.9zM826.1 510.8v-3.4c-7-2.9-13.9-2.3-20.8 1.9 6.9 3.9 13.9 4.5 20.8 1.5zM843.1 522.4c-.1 7.4 3 13.6 9.5 18.4 1.2-8-1-14.5-6.4-19.7l-3.1 1.3zM827.7 502.4c-5.3-5.3-11.8-7.5-19.6-6.3 4.7 6.4 10.9 9.5 18.4 9.4l1.2-3.1zM841.3 522.7h-3.4c-3 7-2.4 13.8 1.8 20.7 4-6.9 4.5-13.7 1.6-20.7zM831.2 519.9l-2.3-2.4c-7 2.7-11.5 8.1-13.4 15.9 7.7-2 12.9-6.6 15.7-13.5zM828.7 500.8l2.4-2.3c-2.7-7-8-11.5-15.8-13.4 2 7.7 6.5 12.9 13.4 15.7zM850.3 517.5l-2.4 2.4c2.7 6.9 8.1 11.5 15.9 13.4-2-7.7-6.5-13.1-13.5-15.8zM837.9 495.6h3.4c2.9-6.9 2.3-13.8-1.8-20.6-4.1 6.8-4.6 13.7-1.6 20.6zM853 507.5v3.3c6.9 3 13.8 2.4 20.7-1.7-6.8-4.1-13.7-4.6-20.7-1.6zM852.7 477.6c-6.5 4.7-9.6 10.9-9.4 18.5l3 1.3c5.4-5.3 7.5-11.9 6.4-19.8zM871.1 522.2c-4.8-6.3-10.9-9.5-18.5-9.4l-1.4 3.1c5.3 5.4 12 7.5 19.9 6.3zM835.9 496c.1-7.5-3-13.7-9.4-18.4-1.2 7.9 1 14.5 6.3 19.7l3.1-1.3zM851.3 502.4l1.4 3.1c7.6.1 13.7-3 18.5-9.4-8-1.2-14.7 1-19.9 6.3zM827.7 515.8l-1.3-3.1c-7.5-.1-13.7 3.1-18.4 9.5 7.9 1.2 14.4-.9 19.7-6.4zM848 498.4l2.3 2.3c7-2.7 11.5-8.1 13.4-15.9-7.7 2.1-13 6.6-15.7 13.6z"/></g><path fill="#CE1E58" d="M845.7 518.5c.1.1.1.2.2.2 0-.1-.1-.2-.1-.3-.3-1.1-.1-1.9.5-2.5.5-.6 1.4-.7 2.5-.4.1 0 .2 0 .2.1-.1-.1-.1-.2-.1-.2-.7-.9-.8-1.8-.5-2.5.3-.8 1-1.2 2.1-1.4.1 0 .2 0 .3-.1-.1-.1-.2-.1-.3-.2-1-.6-1.4-1.3-1.4-2.1s.4-1.5 1.4-2l.2-.2h-.3c-1.1-.2-1.8-.6-2.1-1.4-.3-.7-.2-1.6.5-2.5.1-.1.1-.2.2-.2h-.3c-1.1.3-2 .2-2.5-.4-.6-.6-.7-1.4-.5-2.5 0-.1.1-.2.1-.3-.1 0-.1.1-.2.2-1 .6-1.8.8-2.5.5-.7-.3-1.2-1.1-1.4-2.1v-.3c-.1 0-.1.1-.2.2-.6 1-1.3 1.4-2.1 1.5-.8 0-1.5-.5-2-1.4-.1-.1-.2-.2-.2-.3v.3c-.2 1.1-.6 1.8-1.4 2.1-.7.3-1.6.1-2.5-.5l-.2-.2c.1.1.1.2.1.3.3 1.1.1 1.9-.5 2.5-.5.6-1.4.7-2.5.4h-.2s.1.1.1.2c.7.9.8 1.8.6 2.5-.4.8-1.1 1.2-2.2 1.4h-.2l.2.2c1 .5 1.5 1.2 1.5 2 0 .9-.5 1.6-1.5 2.2-.1.1-.2.1-.2.1.1.1.2.1.3.1 1.1.2 1.7.6 2.1 1.4.3.7.1 1.6-.6 2.5 0 .1-.1.2-.1.2h.3c1.1-.3 1.9-.2 2.4.4.6.6.7 1.4.5 2.5 0 .1 0 .2-.1.3.1 0 .1-.1.2-.2.9-.6 1.8-.8 2.5-.5.7.3 1.2 1.1 1.4 2.2v.2c.1-.1.1-.2.2-.2.5-1 1.2-1.5 2-1.5.9 0 1.5.5 2.1 1.5l.2.2v-.2c.2-1.1.6-1.9 1.4-2.2.8-.4 1.6-.2 2.6.4zm-7.2-7c-.7-.3-1.1-.7-1.4-1.3-.3-.7-.3-1.3 0-2 .3-.6.7-1.1 1.4-1.4.6-.2 1.3-.2 1.9 0 .7.3 1.2.8 1.4 1.4.3.7.3 1.3 0 2-.3.6-.7 1.1-1.4 1.3-.6.3-1.2.3-1.9 0z"/></g><g><path opacity=".7" fill="#0AB9BD" d="M174.7 509.5l-47 16.7 21.4 45-45-21.4-16.7 47-16.8-47-45 21.4 21.4-45-47-16.7 47-16.7-21.4-45.1 45 21.4 16.8-47 16.7 47 45-21.4-21.4 45.1z"/><path opacity=".5" fill="#EC297B" d="M124.2 445.7l36.8 63.8-36.8 63.7H50.6l-36.8-63.7 36.8-63.8z"/><path opacity=".5" fill="#EC297B" d="M151.1 546.3l-63.7 36.8-63.8-36.8v-73.6l63.8-36.8 63.7 36.8z"/><path opacity=".43" fill="#FFF100" d="M168.5 541.8l-49.9-1.8 3.2 49.7-33.9-36.6L55 590.6l1.9-49.8L7.1 544l36.6-34-37.5-32.9 49.9 1.9-3.2-49.8 33.9 36.6 32.9-37.5-1.9 49.9 49.8-3.2-36.6 33.9z"/><path opacity=".2" fill="#FFF100" d="M168.5 541.8l-49.9-1.8 3.2 49.7-33.9-36.6L55 590.6l1.9-49.8L7.1 544l36.6-34-37.5-32.9 49.9 1.9-3.2-49.8 33.9 36.6 32.9-37.5-1.9 49.9 49.8-3.2-36.6 33.9z"/><path opacity=".2" fill="#FFF100" d="M168.5 541.8l-49.9-1.8 3.2 49.7-33.9-36.6L55 590.6l1.9-49.8L7.1 544l36.6-34-37.5-32.9 49.9 1.9-3.2-49.8 33.9 36.6 32.9-37.5-1.9 49.9 49.8-3.2-36.6 33.9z"/><path opacity=".7" fill="#0AB9BD" d="M127.8 493.6c8.8 22.3-2.2 47.5-24.6 56.3-22.3 8.8-47.5-2.2-56.3-24.6-8.8-22.3 2.2-47.5 24.6-56.3 22.3-8.7 47.5 2.3 56.3 24.6z"/><path opacity=".7" fill="#0AB9BD" d="M124.8 494.8c8.1 20.7-2.1 44-22.7 52.1-20.7 8.1-44-2.1-52.1-22.7-8.1-20.7 2.1-44 22.7-52.1 20.6-8.2 44 2 52.1 22.7z"/><g fill="#F1F1F2"><path opacity=".5" d="M109.7 487c3.5 8.9-.9 18.9-9.7 22.3-8.9 3.5-18.8-.9-22.3-9.7-3.5-8.9.9-18.8 9.7-22.3 8.9-3.5 18.9.9 22.3 9.7z"/><path opacity=".5" d="M119.5 510.7c3.3 8.9-1.2 18.8-10.1 22.1-8.9 3.3-18.8-1.2-22.1-10.1-3.3-8.9 1.2-18.8 10.1-22.1 8.9-3.4 18.8 1.1 22.1 10.1z"/><path opacity=".5" d="M97.3 519.4c3.5 8.9-.9 18.8-9.7 22.3-8.9 3.5-18.8-.9-22.3-9.7-3.5-8.9.9-18.8 9.7-22.3 8.9-3.6 18.9.8 22.3 9.7z"/><path opacity=".5" d="M87.4 497.5c3.5 8.9-.9 18.9-9.7 22.3-8.8 3.5-18.8-.9-22.3-9.7-3.5-8.9.9-18.8 9.7-22.3 8.8-3.5 18.8.8 22.3 9.7z"/><path opacity=".5" d="M119.1 509.3c-3.8 8.7-14 12.7-22.7 8.9-8.7-3.8-12.7-13.9-8.9-22.7 3.8-8.7 14-12.7 22.7-8.9 8.7 3.8 12.7 14 8.9 22.7z"/><path opacity=".5" d="M109.3 532.5c-4 8.6-14.2 12.4-22.8 8.5-8.6-4-12.4-14.2-8.5-22.8 4-8.6 14.2-12.4 22.8-8.5 8.7 3.9 12.5 14.1 8.5 22.8z"/><path opacity=".5" d="M87.5 523.4c-3.8 8.7-14 12.7-22.7 8.9-8.7-3.8-12.7-14-8.9-22.7 3.8-8.7 14-12.7 22.7-8.9 8.7 3.9 12.7 14 8.9 22.7z"/><path opacity=".5" d="M95.9 500.9c-3.8 8.7-14 12.7-22.7 8.9-8.7-3.8-12.7-14-8.9-22.7 3.8-8.7 14-12.7 22.7-8.9 8.7 3.8 12.7 14 8.9 22.7z"/></g><g fill="#F9EC31"><path opacity=".26" d="M96.5 500.1c1.4 3.7-.4 7.8-4 9.2-3.6 1.4-7.8-.4-9.2-4-1.4-3.7.4-7.8 4-9.2 3.7-1.4 7.8.4 9.2 4z"/><path opacity=".26" d="M100.7 510c1.4 3.7-.5 7.8-4.2 9.1-3.7 1.4-7.8-.5-9.1-4.2-1.4-3.7.5-7.8 4.2-9.1 3.6-1.4 7.7.5 9.1 4.2z"/><path opacity=".26" d="M91.4 513.4c1.4 3.7-.4 7.8-4 9.2-3.6 1.4-7.8-.4-9.2-4-1.4-3.6.4-7.8 4-9.2 3.7-1.4 7.8.4 9.2 4z"/><path opacity=".26" d="M87.3 504.4c1.4 3.7-.4 7.8-4 9.2-3.7 1.4-7.8-.4-9.2-4-1.4-3.6.4-7.8 4-9.2 3.6-1.4 7.8.4 9.2 4z"/><path opacity=".26" d="M100.4 509.3c-1.6 3.6-5.7 5.2-9.3 3.7-3.6-1.6-5.2-5.8-3.7-9.3 1.6-3.6 5.8-5.2 9.3-3.7 3.6 1.5 5.3 5.7 3.7 9.3z"/><path opacity=".26" d="M96.3 519.2c-1.6 3.6-5.8 5.1-9.4 3.5-3.6-1.6-5.1-5.8-3.5-9.4 1.6-3.6 5.8-5.1 9.4-3.5 3.6 1.6 5.2 5.8 3.5 9.4z"/><path opacity=".26" d="M87.3 515.1c-1.6 3.6-5.8 5.2-9.3 3.7-3.6-1.6-5.2-5.7-3.7-9.3 1.6-3.6 5.7-5.2 9.3-3.7 3.7 1.5 5.3 5.7 3.7 9.3z"/><path opacity=".26" d="M90.8 505.8c-1.6 3.6-5.8 5.2-9.3 3.7-3.6-1.6-5.2-5.8-3.7-9.3 1.6-3.6 5.8-5.2 9.3-3.7 3.6 1.5 5.3 5.7 3.7 9.3z"/></g><path opacity=".7" fill="#0AB9BD" d="M174.7 509.5l-47 16.7 21.4 45-45-21.4-16.7 47-16.8-47-45 21.4 21.4-45-47-16.7 47-16.7-21.4-45.1 45 21.4 16.8-47 16.7 47 45-21.4-21.4 45.1z"/><path opacity=".5" fill="#EC297B" d="M124.2 445.7l36.8 63.8-36.8 63.7H50.6l-36.8-63.7 36.8-63.8z"/><path opacity=".5" fill="#EC297B" d="M151.1 546.3l-63.7 36.8-63.8-36.8v-73.6l63.8-36.8 63.7 36.8z"/><path opacity=".43" fill="#FFF100" d="M168.5 541.8l-49.9-1.8 3.2 49.7-33.9-36.6L55 590.6l1.9-49.8L7.1 544l36.6-34-37.5-32.9 49.9 1.9-3.2-49.8 33.9 36.6 32.9-37.5-1.9 49.9 49.8-3.2-36.6 33.9z"/><path opacity=".2" fill="#FFF100" d="M168.5 541.8l-49.9-1.8 3.2 49.7-33.9-36.6L55 590.6l1.9-49.8L7.1 544l36.6-34-37.5-32.9 49.9 1.9-3.2-49.8 33.9 36.6 32.9-37.5-1.9 49.9 49.8-3.2-36.6 33.9z"/><path opacity=".2" fill="#FFF100" d="M168.5 541.8l-49.9-1.8 3.2 49.7-33.9-36.6L55 590.6l1.9-49.8L7.1 544l36.6-34-37.5-32.9 49.9 1.9-3.2-49.8 33.9 36.6 32.9-37.5-1.9 49.9 49.8-3.2-36.6 33.9z"/><path opacity=".7" fill="#0AB9BD" d="M127.8 493.6c8.8 22.3-2.2 47.5-24.6 56.3-22.3 8.8-47.5-2.2-56.3-24.6-8.8-22.3 2.2-47.5 24.6-56.3 22.3-8.7 47.5 2.3 56.3 24.6z"/><path opacity=".7" fill="#0AB9BD" d="M124.8 494.8c8.1 20.7-2.1 44-22.7 52.1-20.7 8.1-44-2.1-52.1-22.7-8.1-20.7 2.1-44 22.7-52.1 20.6-8.2 44 2 52.1 22.7z"/><g fill="#F1F1F2"><path opacity=".5" d="M109.7 487c3.5 8.9-.9 18.9-9.7 22.3-8.9 3.5-18.8-.9-22.3-9.7-3.5-8.9.9-18.8 9.7-22.3 8.9-3.5 18.9.9 22.3 9.7z"/><path opacity=".5" d="M119.5 510.7c3.3 8.9-1.2 18.8-10.1 22.1-8.9 3.3-18.8-1.2-22.1-10.1-3.3-8.9 1.2-18.8 10.1-22.1 8.9-3.4 18.8 1.1 22.1 10.1z"/><path opacity=".5" d="M97.3 519.4c3.5 8.9-.9 18.8-9.7 22.3-8.9 3.5-18.8-.9-22.3-9.7-3.5-8.9.9-18.8 9.7-22.3 8.9-3.6 18.9.8 22.3 9.7z"/><path opacity=".5" d="M87.4 497.5c3.5 8.9-.9 18.9-9.7 22.3-8.8 3.5-18.8-.9-22.3-9.7-3.5-8.9.9-18.8 9.7-22.3 8.8-3.5 18.8.8 22.3 9.7z"/><path opacity=".5" d="M119.1 509.3c-3.8 8.7-14 12.7-22.7 8.9-8.7-3.8-12.7-13.9-8.9-22.7 3.8-8.7 14-12.7 22.7-8.9 8.7 3.8 12.7 14 8.9 22.7z"/><path opacity=".5" d="M109.3 532.5c-4 8.6-14.2 12.4-22.8 8.5-8.6-4-12.4-14.2-8.5-22.8 4-8.6 14.2-12.4 22.8-8.5 8.7 3.9 12.5 14.1 8.5 22.8z"/><path opacity=".5" d="M87.5 523.4c-3.8 8.7-14 12.7-22.7 8.9-8.7-3.8-12.7-14-8.9-22.7 3.8-8.7 14-12.7 22.7-8.9 8.7 3.9 12.7 14 8.9 22.7z"/><path opacity=".5" d="M95.9 500.9c-3.8 8.7-14 12.7-22.7 8.9-8.7-3.8-12.7-14-8.9-22.7 3.8-8.7 14-12.7 22.7-8.9 8.7 3.8 12.7 14 8.9 22.7z"/></g><g fill="#F9EC31"><path opacity=".26" d="M96.5 500.1c1.4 3.7-.4 7.8-4 9.2-3.6 1.4-7.8-.4-9.2-4-1.4-3.7.4-7.8 4-9.2 3.7-1.4 7.8.4 9.2 4z"/><path opacity=".26" d="M100.7 510c1.4 3.7-.5 7.8-4.2 9.1-3.7 1.4-7.8-.5-9.1-4.2-1.4-3.7.5-7.8 4.2-9.1 3.6-1.4 7.7.5 9.1 4.2z"/><path opacity=".26" d="M91.4 513.4c1.4 3.7-.4 7.8-4 9.2-3.6 1.4-7.8-.4-9.2-4-1.4-3.6.4-7.8 4-9.2 3.7-1.4 7.8.4 9.2 4z"/><path opacity=".26" d="M87.3 504.4c1.4 3.7-.4 7.8-4 9.2-3.7 1.4-7.8-.4-9.2-4-1.4-3.6.4-7.8 4-9.2 3.6-1.4 7.8.4 9.2 4z"/><path opacity=".26" d="M100.4 509.3c-1.6 3.6-5.7 5.2-9.3 3.7-3.6-1.6-5.2-5.8-3.7-9.3 1.6-3.6 5.8-5.2 9.3-3.7 3.6 1.5 5.3 5.7 3.7 9.3z"/><path opacity=".26" d="M96.3 519.2c-1.6 3.6-5.8 5.1-9.4 3.5-3.6-1.6-5.1-5.8-3.5-9.4 1.6-3.6 5.8-5.1 9.4-3.5 3.6 1.6 5.2 5.8 3.5 9.4z"/><path opacity=".26" d="M87.3 515.1c-1.6 3.6-5.8 5.2-9.3 3.7-3.6-1.6-5.2-5.7-3.7-9.3 1.6-3.6 5.7-5.2 9.3-3.7 3.7 1.5 5.3 5.7 3.7 9.3z"/><path opacity=".26" d="M90.8 505.8c-1.6 3.6-5.8 5.2-9.3 3.7-3.6-1.6-5.2-5.8-3.7-9.3 1.6-3.6 5.8-5.2 9.3-3.7 3.6 1.5 5.3 5.7 3.7 9.3z"/></g></g><g><path opacity=".7" fill="#0AB9BD" d="M112.9 83.7l-1.3-6.2c10.1-7.1 21.3-9.2 33.4-6.2 3-2.2 5.7-4.9 8.4-7.7l-3.8-9.5c-4 0-7.9.3-11.5.8-6.5 10.6-15.8 16.9-27.8 19l-3.3-5.1c6.5-10.4 16-16.6 28.5-18.5 1.9-3.2 3.5-6.5 4.7-10.1l-7.3-7.3c-3.8 1.4-7.1 3-10.3 5.1-1.9 12.2-8.2 21.5-18.5 28.3l-5.2-3.6c2.2-12 8.7-21.5 19.1-27.8.6-3.8.8-7.6.6-11.4l-9.5-4.1c-2.7 2.8-5.4 5.7-7.4 8.7 2.8 12 .8 23.1-6.3 33.2l-6-1.3c-2.7-12-.3-22.9 7-33-1-3.6-2.2-7.1-3.8-10.7H82.2c-1.6 3.6-2.7 7.1-3.8 10.7 7.4 10.1 9.6 21 7.1 33l-6.2 1.3c-7-10.1-9-21.2-6-33.2-2.4-3-4.9-5.9-7.7-8.5l-9.6 4c0 3.8.2 7.6.8 11.4 10.4 6.3 16.9 15.7 19.1 27.7l-5.4 3.6c-10.3-6.6-16.3-16-18.3-28.1C49 36 45.7 34.4 41.9 33l-7.1 7.3c1.4 3.6 3 7 4.7 10.1 12.3 1.9 21.8 8.1 28.5 18.5L64.5 74c-12-2.1-21.2-8.4-27.8-19-3.6-.5-7.4-.8-11.4-.8l-4 9.8c2.7 2.7 5.5 5.2 8.5 7.4 12-3 23.1-.9 33.2 6.2l-1.4 6.2c-11.9 2.5-22.8.2-32.7-7-3.6.9-7.3 2.2-10.9 3.6v10.4c3.5 1.6 7.1 2.7 10.6 3.6 10.1-7.3 21.2-9.6 33-7.1l1.4 6.2c-10.1 7-21.2 9.2-33 6.3-3.2 2.2-6 4.7-8.7 7.6l4 9.5c4 0 7.7 0 11.2-.6 6.5-10.8 15.6-17.1 28-19.3l3.5 5.2c-6.6 10.3-16 16.4-28.3 18.3-1.9 3.3-3.5 6.8-4.9 10.6l7.1 7.3c3.8-1.4 7.1-3.2 10.3-5.1 1.9-12.2 8.1-21.7 18.3-28.3l5.4 3.5c-2.2 12-8.7 21.3-19.1 27.7-.5 3.8-.8 7.6-.6 11.5l9.5 3.8c2.8-2.5 5.4-5.4 7.7-8.4-3.2-12-1.1-23.1 6-33.4l6.2 1.3c2.5 12 .3 22.9-7.1 33.2 1.1 3.5 2.2 7.1 3.8 10.6h10.3c1.6-3.5 2.8-7.1 4-10.6-7.4-10.1-9.8-21-7.1-33.2l6-1.3c7.1 10.1 9.2 21.2 6.3 33.2 2.1 3 4.7 5.8 7.6 8.5l9.3-4c.2-4 0-7.7-.6-11.4-10.4-6.3-16.9-15.7-19.1-27.7l5.2-3.5c10.3 6.6 16.6 16 18.5 28.1 3.2 1.9 6.5 3.6 10.3 5.2l7.3-7.4c-1.6-3.8-3.2-7.3-5.1-10.4-12.3-1.7-21.7-7.9-28.1-18.3l3.3-5.2c12.2 2.2 21.5 8.5 28 19.3 3.5.6 7.4.6 11.4.6l4-9.5c-2.8-2.8-5.7-5.4-8.7-7.6-12 2.8-23.1.6-33.2-6.3l1.3-6c12-2.7 23.1-.3 33 7 3.6-1 7.1-2.2 10.8-3.8V80.4c-3.6-1.6-7.1-2.8-10.8-3.6-10.2 7.1-21.3 9.5-33.3 6.9z"/><g opacity=".7" fill="#FCB415"><path d="M80 145.2c2.5.1 4.9.4 7.4.4s4.9-.3 7.3-.4c1.9-9.6.7-19.3-3.4-28.9h-7.7c-4.2 9.6-5.4 19.3-3.6 28.9zM102.7 112.4l-7 3c-.3 10.5 2.4 19.8 7.7 28 4.9-1.2 9.3-3.1 13.5-5.6-1.8-9.5-6.7-18.1-14.2-25.4zM79.1 115.3l-7.1-2.8c-7.6 7.3-12.3 15.9-14.2 25.3 4.3 2.5 8.7 4.4 13.5 5.6 5.3-8.1 8-17.5 7.8-28.1zM124.5 132.7c1.8-1.5 3.6-3.1 5.5-4.9 1.6-1.8 3.3-3.6 4.7-5.5-5.5-8.1-13-14.1-22.7-17.8l-5.6 5.3c4 9.9 9.9 17.5 18.1 22.9zM118.2 81.6v7.7c9.6 4.2 19.3 5.2 28.7 3.4.3-2.4.4-4.9.4-7.3 0-2.5-.1-5-.4-7.4-9.5-1.7-19-.5-28.7 3.6zM134.7 48.3c-1.5-1.8-3.1-3.6-4.7-5.3-1.9-1.8-3.7-3.4-5.6-4.9-8 5.3-14.1 13-17.9 22.8l5.5 5.5c9.7-4 17.2-10 22.7-18.1zM145.5 101.5c-8.3-5.3-17.6-8-28.1-7.9l-3 7.1c7.4 7.6 15.7 12.3 25.5 14.2 2.3-4.1 4.1-8.5 5.6-13.4zM117.4 77.2c10.5.1 19.8-2.4 28-7.9-1.3-4.7-3.1-9.3-5.5-13.6-9.8 2.1-18.1 7-25.5 14.4l3 7.1zM95.7 55.4l7 2.8c7.6-7.1 12.4-15.6 14.2-25.2-4.1-2.5-8.6-4.3-13.5-5.5-5.3 8.2-8 17.4-7.7 27.9zM62.8 66.4l5.5-5.5c-3.9-9.6-9.9-17.5-17.9-22.8-1.9 1.6-3.7 3.1-5.3 4.9-1.8 1.8-3.4 3.6-4.9 5.3 5.3 8.1 13 14.1 22.6 18.1zM72 58.2l7.1-2.8c.3-10.5-2.4-19.7-7.9-27.9-4.7 1.2-9.2 3-13.5 5.5 2.2 9.7 6.9 18.1 14.3 25.2zM83.6 54.5h7.7c4-9.6 5.3-19.1 3.4-28.7-2.4-.1-4.7-.3-7.3-.3-2.7 0-4.9.1-7.4.3-1.8 9.6-.6 19.1 3.6 28.7zM68.3 109.9l-5.5-5.5c-9.8 3.8-17.3 9.8-22.7 17.9 1.3 1.9 3 3.7 4.9 5.5 1.6 1.8 3.4 3.4 5.3 4.9 8.1-5.4 14.2-13 18-22.8zM27.3 85.5c0 2.5.3 5 .4 7.3 9.6 1.8 19.1.7 28.7-3.4v-7.7c-9.6-4.1-19.1-5.3-28.7-3.4-.1 2.3-.4 4.7-.4 7.2zM60.3 100.7l-3-7.1c-10.5-.1-19.7 2.5-27.8 8 1.2 4.7 3 9.2 5.5 13.3 9.6-1.9 18.1-6.6 25.3-14.2zM60.3 70.1C53.2 62.5 44.6 57.8 35 55.9c-2.4 4.1-4.3 8.7-5.5 13.5 8.1 5.5 17.3 8 27.8 7.9l3-7.2z"/></g><g opacity=".26" fill="#F9EC31"><path d="M73.9 118.3c6.6-5 9.8-11.5 9.7-19.2l-3.2-1.3c-5.5 5.4-7.8 12.2-6.5 20.5zM73.5 87.2v-3.5c-7.2-3-14.4-2.4-21.5 1.9 7.1 4.1 14.4 4.7 21.5 1.6zM91.1 99.2c-.1 7.6 3.1 14.1 9.8 19 1.2-8.2-1-15-6.6-20.4l-3.2 1.4zM75.1 78.6C69.7 73 62.9 70.8 54.8 72c4.8 6.6 11.3 9.9 19 9.7l1.3-3.1zM89.2 99.5h-3.5c-3.1 7.2-2.5 14.3 1.8 21.4 4.2-7.2 4.7-14.2 1.7-21.4zM78.7 96.7l-2.4-2.5c-7.2 2.8-11.9 8.3-13.9 16.4 8.1-2.1 13.5-6.8 16.3-13.9zM76.2 76.9l2.5-2.4c-2.8-7.2-8.2-11.9-16.3-13.9 2.1 8 6.7 13.5 13.8 16.3zM98.5 94.1L96 96.7c2.8 7.1 8.3 11.9 16.4 13.9-2-8.1-6.7-13.6-13.9-16.5zM85.7 71.5h3.5c3-7.1 2.4-14.3-1.8-21.3-4.3 7.1-4.9 14.2-1.7 21.3zM101.3 83.8v3.4c7.1 3.1 14.3 2.5 21.4-1.7-7.1-4.3-14.2-4.8-21.4-1.7zM100.9 53c-6.7 4.8-9.9 11.2-9.7 19l3.1 1.3c5.6-5.4 7.8-12.2 6.6-20.3zM120 99c-4.9-6.5-11.3-9.8-19.1-9.7l-1.4 3.2c5.4 5.6 12.3 7.8 20.5 6.5zM83.6 71.9c.1-7.7-3.1-14.2-9.7-19-1.2 8.1 1 15 6.5 20.4l3.2-1.4zM99.5 78.6l1.4 3.2c7.8.1 14.2-3.1 19.1-9.7-8.2-1.3-15.1.9-20.5 6.5zM75.1 92.4l-1.3-3.2c-7.7-.1-14.2 3.2-19 9.8 8.1 1.3 14.9-.9 20.3-6.6zM96.1 74.5l2.4 2.4c7.2-2.8 11.9-8.3 13.9-16.4-8.1 2-13.5 6.7-16.3 14z"/></g><path opacity=".5" fill="#FFF" d="M93.7 95.2c.1.1.1.2.2.2 0-.1-.1-.2-.1-.3-.3-1.1-.1-2 .5-2.6.5-.6 1.4-.7 2.6-.4.1 0 .2 0 .2.1-.1-.1-.1-.2-.1-.3-.7-.9-.9-1.8-.5-2.6.3-.8 1-1.3 2.2-1.4.1 0 .2 0 .3-.1-.1-.1-.2-.1-.3-.2-1-.6-1.5-1.4-1.5-2.2 0-.8.4-1.5 1.5-2.1l.2-.2h-.3c-1.2-.2-1.9-.7-2.1-1.5-.3-.8-.2-1.6.5-2.6 0 .1 0 0 .1 0h-.3c-1.1.3-2 .2-2.6-.4-.6-.7-.8-1.5-.5-2.6 0-.1.1-.2.1-.3-.1 0-.1.1-.2.2-1 .7-1.9.9-2.6.5-.8-.3-1.2-1.1-1.4-2.2v-.3c-.1 0-.1.1-.2.2-.6 1-1.3 1.5-2.2 1.5-.8 0-1.5-.5-2.1-1.5 0 .1-.1 0-.1-.1v.3c-.2 1.1-.6 1.9-1.4 2.2-.8.3-1.6.1-2.6-.5l-.2-.2c.1.1.1.2.1.3.3 1.1.1 1.9-.5 2.6-.6.6-1.4.8-2.6.4h-.2s.1.1.1.2c.7.9.9 1.8.6 2.6-.4.8-1.1 1.3-2.2 1.5h-.2l.2.2c1 .6 1.6 1.3 1.6 2.1 0 .9-.5 1.6-1.5 2.2-.1.1-.2.1-.2.1.1.1.2.1.3.1 1.1.2 1.8.6 2.2 1.4.3.8.1 1.6-.6 2.6 0 .1-.1.2-.1.2h.3c1.1-.3 2-.2 2.5.4.6.6.8 1.5.5 2.6 0 .1 0 .2-.1.3.1 0 .1-.1.2-.2.9-.7 1.8-.8 2.6-.5.8.3 1.3 1.1 1.4 2.2v.2c0-.1.1-.2.2-.2.5-1 1.3-1.5 2.1-1.5.9 0 1.6.5 2.2 1.5l.2.2v-.2c.2-1.2.7-1.9 1.4-2.2.6-.5 1.4-.4 2.4.3zM86.3 88c-.7-.3-1.2-.7-1.4-1.4-.3-.7-.3-1.4 0-2.1.3-.7.7-1.1 1.4-1.5.7-.2 1.3-.2 2 0 .7.3 1.2.8 1.5 1.5.3.7.3 1.4 0 2.1-.3.7-.8 1.1-1.5 1.4-.6.2-1.3.2-2 0z"/><g opacity=".5" fill="#EC297B"><path d="M76 143.2c-1.9 4.3-4.7 7.4-7.6 9.7-3.7 2.7-6.8 3.5-9.7 2.1-2.9-1.2-4.9-4.1-5.5-8.4-.6-3.9-.2-7.8 1.6-12.3-3.3 3.1-7 5.1-10.9 6-.8.4-1.8.4-2.5.6.6 4.3.2 8.6-.8 12.5-.4 1.6-.8 3.3-1.4 4.7 4.7-2.3 9.4-2.5 14-.6 1.4.6 2.3 1.4 3.5 2.1 1.2 0 2.5.6 3.9 1 4.9 1.9 7.8 5.5 9.4 10.3.6-1.6 1.4-2.9 2.3-4.3 2.1-3.5 5.1-6.6 8.4-9.4-.6-.6-1-1.6-1.6-2.3-2-3.1-2.9-7-3.1-11.7zM26.1 119.9c-4.5-.8-7.2-2.3-8.4-5.3-1.2-2.9-.4-6.2 2.1-9.7 2.3-3.3 5.7-5.8 9.7-7.8-4.5-.2-8.6-1.4-11.9-3.3-1-.4-1.4-1-2.1-1.6-2.7 3.3-5.8 6.2-9.6 8.4-1.2.8-2.7 1.8-4.1 2.3 4.9 1.6 8.2 4.9 10.3 9.5.4 1.4.6 2.5.8 3.9.8 1 1.6 2.1 2.1 3.3 2.1 4.9 1.8 9.5-.6 14 1.6-.6 3.1-1 4.7-1.4 4.1-.8 8.2-1.2 12.7-.8.2-.8.2-1.6.4-2.3 1-3.9 2.9-7.4 6-10.9-4.1 1.7-8.2 2.2-12.1 1.7zM15.5 78.9c.8-.4 1.2-1 2.1-1.4 3.3-2.1 7.4-3.3 11.9-3.5-4.1-1.9-7.4-4.3-9.7-7.6-2.5-3.5-3.3-6.6-2.1-9.7 1.2-2.9 3.9-4.5 8.4-5.3 3.9-.8 8.2-.2 12.3 1.4-3.1-3.3-5.1-7-6-10.9-.2-.8-.2-1.6-.4-2.3-4.5.4-8.6 0-12.7-.8-1.6-.4-3.1-.8-4.7-1.6 2.3 4.7 2.7 9.6.6 14.2-.6 1.2-1.4 2.3-2.1 3.3-.2 1.4-.4 2.7-.8 3.9-2.1 4.9-5.5 8-10.3 9.5 1.4.6 2.9 1.6 4.1 2.3 3.6 2.3 6.7 5.2 9.4 8.5zM162.5 58.7c-.4-1.2-1-2.5-1-3.9-.8-1-1.4-2.1-2.1-3.3-1.8-4.7-1.8-9.6.8-14-1.6.6-3.1 1-4.9 1.4-3.9.8-8 1.2-12.5.8-.2 1-.2 1.6-.4 2.3-1 3.9-2.9 7.6-6.2 11.1 4.5-1.8 8.4-2.3 12.3-1.6 4.3.8 7.2 2.3 8.4 5.5 1.2 2.9.6 6-2.2 9.5-2.3 3.3-5.4 5.7-9.5 7.6 4.7.2 8.6 1.4 11.9 3.5.8.4 1.6 1 2.1 1.4 2.7-3.3 5.8-6.2 9.4-8.4 1.4-.8 2.7-1.8 4.3-2.3-5-1.6-8.5-4.8-10.4-9.6zM133.3 141.1c-.6-.2-1.6-.2-2.3-.6-3.9-1-7.4-2.9-10.9-5.8 1.6 4.3 2.1 8.2 1.6 12.1-.6 4.3-2.3 7.2-5.3 8.4-2.9 1.4-6.2.6-9.7-2.1-3.1-2.3-5.8-5.7-7.8-9.7-.2 4.7-1.2 8.6-3.3 11.9-.4.8-1 1.8-1.4 2.3 3.3 2.7 6 5.8 8.4 9.4.8 1.4 1.6 2.7 2.1 4.3 1.6-4.9 4.9-8.4 9.5-10.3 1.4-.4 2.5-1 3.9-1 1-.8 2.1-1.6 3.3-2.1 4.9-1.9 9.5-1.8 14.2.6-.8-1.4-1.2-3.1-1.4-4.7-.9-4.1-1.3-8.4-.9-12.7zM159.2 92.2c-.6.6-1.4 1.2-2.1 1.6-3.3 1.9-7.2 3.1-12.1 3.3 4.3 1.9 7.4 4.5 9.9 7.8 2.7 3.3 3.3 6.6 2 9.5-1.2 2.9-4.1 4.7-8.4 5.5-3.9.6-7.8 0-12.3-1.8 3.3 3.7 5.3 7.2 6.2 11.1.2.8.2 1.6.4 2.3 4.5-.4 8.6 0 12.5.8 1.8.4 3.3.8 4.9 1.4-2.5-4.5-2.5-9.2-.8-14 .8-1.2 1.4-2.3 2.1-3.3 0-1.4.6-2.5 1-3.9 2-4.7 5.5-8 10.3-9.5-1.6-.6-2.9-1.6-4.3-2.3-3.5-2.3-6.6-5-9.3-8.5zM41.3 30.2c.8 0 1.8 0 2.5.2 3.9 1 7.6 3.3 10.9 6.2-1.8-4.3-2.1-8.4-1.6-12.3.6-4.3 2.5-7.2 5.5-8.4 2.9-1.2 6-.4 9.7 2.1 2.9 2.3 5.7 5.5 7.6 9.7.2-4.7 1.2-8.8 3.1-12.1.6-.6 1-1.2 1.6-2-3.3-2.9-6.2-6-8.4-9.5-.8-1.4-1.6-2.7-2.3-4.3-1.6 5.1-4.5 8.4-9.4 10.5-1.4.4-2.7.8-3.9.8-1.2.8-2.1 1.6-3.5 2.1-4.7 2.1-9.4 1.8-14-.6.6 1.6 1 2.9 1.4 4.7 1 4.1 1.4 8.4.8 12.9zM98.8 27.9c1.9-4.3 4.5-7.4 7.8-9.7 3.3-2.5 6.6-3.3 9.5-2.1 2.9 1.2 4.9 4.1 5.5 8.4.6 3.9 0 8-1.6 12.3 3.5-3.1 7-5.3 10.9-6.2.8-.2 1.8-.2 2.3-.2-.4-4.5 0-8.8 1-12.7.2-1.8.6-3.1 1.4-4.7-4.7 2.3-9.4 2.7-14.2.6-1.2-.6-2.3-1.4-3.3-2.1-1.4 0-2.5-.4-3.9-.8-4.7-2.1-8-5.5-9.5-10.5-.6 1.6-1.4 2.9-2.1 4.3-2.3 3.5-5.1 6.6-8.4 9.5.4.8 1 1.4 1.4 2 2 3.1 3 7.4 3.2 11.9z"/></g><path opacity=".7" fill="#0AB9BD" d="M112.9 83.7l-1.3-6.2c10.1-7.1 21.3-9.2 33.4-6.2 3-2.2 5.7-4.9 8.4-7.7l-3.8-9.5c-4 0-7.9.3-11.5.8-6.5 10.6-15.8 16.9-27.8 19l-3.3-5.1c6.5-10.4 16-16.6 28.5-18.5 1.9-3.2 3.5-6.5 4.7-10.1l-7.3-7.3c-3.8 1.4-7.1 3-10.3 5.1-1.9 12.2-8.2 21.5-18.5 28.3l-5.2-3.6c2.2-12 8.7-21.5 19.1-27.8.6-3.8.8-7.6.6-11.4l-9.5-4.1c-2.7 2.8-5.4 5.7-7.4 8.7 2.8 12 .8 23.1-6.3 33.2l-6-1.3c-2.7-12-.3-22.9 7-33-1-3.6-2.2-7.1-3.8-10.7H82.2c-1.6 3.6-2.7 7.1-3.8 10.7 7.4 10.1 9.6 21 7.1 33l-6.2 1.3c-7-10.1-9-21.2-6-33.2-2.4-3-4.9-5.9-7.7-8.5l-9.6 4c0 3.8.2 7.6.8 11.4 10.4 6.3 16.9 15.7 19.1 27.7l-5.4 3.6c-10.3-6.6-16.3-16-18.3-28.1C49 36 45.7 34.4 41.9 33l-7.1 7.3c1.4 3.6 3 7 4.7 10.1 12.3 1.9 21.8 8.1 28.5 18.5L64.5 74c-12-2.1-21.2-8.4-27.8-19-3.6-.5-7.4-.8-11.4-.8l-4 9.8c2.7 2.7 5.5 5.2 8.5 7.4 12-3 23.1-.9 33.2 6.2l-1.4 6.2c-11.9 2.5-22.8.2-32.7-7-3.6.9-7.3 2.2-10.9 3.6v10.4c3.5 1.6 7.1 2.7 10.6 3.6 10.1-7.3 21.2-9.6 33-7.1l1.4 6.2c-10.1 7-21.2 9.2-33 6.3-3.2 2.2-6 4.7-8.7 7.6l4 9.5c4 0 7.7 0 11.2-.6 6.5-10.8 15.6-17.1 28-19.3l3.5 5.2c-6.6 10.3-16 16.4-28.3 18.3-1.9 3.3-3.5 6.8-4.9 10.6l7.1 7.3c3.8-1.4 7.1-3.2 10.3-5.1 1.9-12.2 8.1-21.7 18.3-28.3l5.4 3.5c-2.2 12-8.7 21.3-19.1 27.7-.5 3.8-.8 7.6-.6 11.5l9.5 3.8c2.8-2.5 5.4-5.4 7.7-8.4-3.2-12-1.1-23.1 6-33.4l6.2 1.3c2.5 12 .3 22.9-7.1 33.2 1.1 3.5 2.2 7.1 3.8 10.6h10.3c1.6-3.5 2.8-7.1 4-10.6-7.4-10.1-9.8-21-7.1-33.2l6-1.3c7.1 10.1 9.2 21.2 6.3 33.2 2.1 3 4.7 5.8 7.6 8.5l9.3-4c.2-4 0-7.7-.6-11.4-10.4-6.3-16.9-15.7-19.1-27.7l5.2-3.5c10.3 6.6 16.6 16 18.5 28.1 3.2 1.9 6.5 3.6 10.3 5.2l7.3-7.4c-1.6-3.8-3.2-7.3-5.1-10.4-12.3-1.7-21.7-7.9-28.1-18.3l3.3-5.2c12.2 2.2 21.5 8.5 28 19.3 3.5.6 7.4.6 11.4.6l4-9.5c-2.8-2.8-5.7-5.4-8.7-7.6-12 2.8-23.1.6-33.2-6.3l1.3-6c12-2.7 23.1-.3 33 7 3.6-1 7.1-2.2 10.8-3.8V80.4c-3.6-1.6-7.1-2.8-10.8-3.6-10.2 7.1-21.3 9.5-33.3 6.9z"/><g opacity=".7" fill="#EC297B"><path d="M76 143.2c-1.9 4.3-4.7 7.4-7.6 9.7-3.7 2.7-6.8 3.5-9.7 2.1-2.9-1.2-4.9-4.1-5.5-8.4-.6-3.9-.2-7.8 1.6-12.3-3.3 3.1-7 5.1-10.9 6-.8.4-1.8.4-2.5.6.6 4.3.2 8.6-.8 12.5-.4 1.6-.8 3.3-1.4 4.7 4.7-2.3 9.4-2.5 14-.6 1.4.6 2.3 1.4 3.5 2.1 1.2 0 2.5.6 3.9 1 4.9 1.9 7.8 5.5 9.4 10.3.6-1.6 1.4-2.9 2.3-4.3 2.1-3.5 5.1-6.6 8.4-9.4-.6-.6-1-1.6-1.6-2.3-2-3.1-2.9-7-3.1-11.7zM26.1 119.9c-4.5-.8-7.2-2.3-8.4-5.3-1.2-2.9-.4-6.2 2.1-9.7 2.3-3.3 5.7-5.8 9.7-7.8-4.5-.2-8.6-1.4-11.9-3.3-1-.4-1.4-1-2.1-1.6-2.7 3.3-5.8 6.2-9.6 8.4-1.2.8-2.7 1.8-4.1 2.3 4.9 1.6 8.2 4.9 10.3 9.5.4 1.4.6 2.5.8 3.9.8 1 1.6 2.1 2.1 3.3 2.1 4.9 1.8 9.5-.6 14 1.6-.6 3.1-1 4.7-1.4 4.1-.8 8.2-1.2 12.7-.8.2-.8.2-1.6.4-2.3 1-3.9 2.9-7.4 6-10.9-4.1 1.7-8.2 2.2-12.1 1.7zM15.5 78.9c.8-.4 1.2-1 2.1-1.4 3.3-2.1 7.4-3.3 11.9-3.5-4.1-1.9-7.4-4.3-9.7-7.6-2.5-3.5-3.3-6.6-2.1-9.7 1.2-2.9 3.9-4.5 8.4-5.3 3.9-.8 8.2-.2 12.3 1.4-3.1-3.3-5.1-7-6-10.9-.2-.8-.2-1.6-.4-2.3-4.5.4-8.6 0-12.7-.8-1.6-.4-3.1-.8-4.7-1.6 2.3 4.7 2.7 9.6.6 14.2-.6 1.2-1.4 2.3-2.1 3.3-.2 1.4-.4 2.7-.8 3.9-2.1 4.9-5.5 8-10.3 9.5 1.4.6 2.9 1.6 4.1 2.3 3.6 2.3 6.7 5.2 9.4 8.5zM162.5 58.7c-.4-1.2-1-2.5-1-3.9-.8-1-1.4-2.1-2.1-3.3-1.8-4.7-1.8-9.6.8-14-1.6.6-3.1 1-4.9 1.4-3.9.8-8 1.2-12.5.8-.2 1-.2 1.6-.4 2.3-1 3.9-2.9 7.6-6.2 11.1 4.5-1.8 8.4-2.3 12.3-1.6 4.3.8 7.2 2.3 8.4 5.5 1.2 2.9.6 6-2.2 9.5-2.3 3.3-5.4 5.7-9.5 7.6 4.7.2 8.6 1.4 11.9 3.5.8.4 1.6 1 2.1 1.4 2.7-3.3 5.8-6.2 9.4-8.4 1.4-.8 2.7-1.8 4.3-2.3-5-1.6-8.5-4.8-10.4-9.6zM133.3 141.1c-.6-.2-1.6-.2-2.3-.6-3.9-1-7.4-2.9-10.9-5.8 1.6 4.3 2.1 8.2 1.6 12.1-.6 4.3-2.3 7.2-5.3 8.4-2.9 1.4-6.2.6-9.7-2.1-3.1-2.3-5.8-5.7-7.8-9.7-.2 4.7-1.2 8.6-3.3 11.9-.4.8-1 1.8-1.4 2.3 3.3 2.7 6 5.8 8.4 9.4.8 1.4 1.6 2.7 2.1 4.3 1.6-4.9 4.9-8.4 9.5-10.3 1.4-.4 2.5-1 3.9-1 1-.8 2.1-1.6 3.3-2.1 4.9-1.9 9.5-1.8 14.2.6-.8-1.4-1.2-3.1-1.4-4.7-.9-4.1-1.3-8.4-.9-12.7zM159.2 92.2c-.6.6-1.4 1.2-2.1 1.6-3.3 1.9-7.2 3.1-12.1 3.3 4.3 1.9 7.4 4.5 9.9 7.8 2.7 3.3 3.3 6.6 2 9.5-1.2 2.9-4.1 4.7-8.4 5.5-3.9.6-7.8 0-12.3-1.8 3.3 3.7 5.3 7.2 6.2 11.1.2.8.2 1.6.4 2.3 4.5-.4 8.6 0 12.5.8 1.8.4 3.3.8 4.9 1.4-2.5-4.5-2.5-9.2-.8-14 .8-1.2 1.4-2.3 2.1-3.3 0-1.4.6-2.5 1-3.9 2-4.7 5.5-8 10.3-9.5-1.6-.6-2.9-1.6-4.3-2.3-3.5-2.3-6.6-5-9.3-8.5zM41.3 30.2c.8 0 1.8 0 2.5.2 3.9 1 7.6 3.3 10.9 6.2-1.8-4.3-2.1-8.4-1.6-12.3.6-4.3 2.5-7.2 5.5-8.4 2.9-1.2 6-.4 9.7 2.1 2.9 2.3 5.7 5.5 7.6 9.7.2-4.7 1.2-8.8 3.1-12.1.6-.6 1-1.2 1.6-2-3.3-2.9-6.2-6-8.4-9.5-.8-1.4-1.6-2.7-2.3-4.3-1.6 5.1-4.5 8.4-9.4 10.5-1.4.4-2.7.8-3.9.8-1.2.8-2.1 1.6-3.5 2.1-4.7 2.1-9.4 1.8-14-.6.6 1.6 1 2.9 1.4 4.7 1 4.1 1.4 8.4.8 12.9zM98.8 27.9c1.9-4.3 4.5-7.4 7.8-9.7 3.3-2.5 6.6-3.3 9.5-2.1 2.9 1.2 4.9 4.1 5.5 8.4.6 3.9 0 8-1.6 12.3 3.5-3.1 7-5.3 10.9-6.2.8-.2 1.8-.2 2.3-.2-.4-4.5 0-8.8 1-12.7.2-1.8.6-3.1 1.4-4.7-4.7 2.3-9.4 2.7-14.2.6-1.2-.6-2.3-1.4-3.3-2.1-1.4 0-2.5-.4-3.9-.8-4.7-2.1-8-5.5-9.5-10.5-.6 1.6-1.4 2.9-2.1 4.3-2.3 3.5-5.1 6.6-8.4 9.5.4.8 1 1.4 1.4 2 2 3.1 3 7.4 3.2 11.9z"/></g><g opacity=".6" fill="#FFF100"><path d="M80 145.2c2.5.1 4.9.4 7.4.4s4.9-.3 7.3-.4c1.9-9.6.7-19.3-3.4-28.9h-7.7c-4.2 9.6-5.4 19.3-3.6 28.9zM102.7 112.4l-7 3c-.3 10.5 2.4 19.8 7.7 28 4.9-1.2 9.3-3.1 13.5-5.6-1.8-9.5-6.7-18.1-14.2-25.4zM79.1 115.3l-7.1-2.8c-7.6 7.3-12.3 15.9-14.2 25.3 4.3 2.5 8.7 4.4 13.5 5.6 5.3-8.1 8-17.5 7.8-28.1zM124.5 132.7c1.8-1.5 3.6-3.1 5.5-4.9 1.6-1.8 3.3-3.6 4.7-5.5-5.5-8.1-13-14.1-22.7-17.8l-5.6 5.3c4 9.9 9.9 17.5 18.1 22.9zM118.2 81.6v7.7c9.6 4.2 19.3 5.2 28.7 3.4.3-2.4.4-4.9.4-7.3 0-2.5-.1-5-.4-7.4-9.5-1.7-19-.5-28.7 3.6zM134.7 48.3c-1.5-1.8-3.1-3.6-4.7-5.3-1.9-1.8-3.7-3.4-5.6-4.9-8 5.3-14.1 13-17.9 22.8l5.5 5.5c9.7-4 17.2-10 22.7-18.1zM145.5 101.5c-8.3-5.3-17.6-8-28.1-7.9l-3 7.1c7.4 7.6 15.7 12.3 25.5 14.2 2.3-4.1 4.1-8.5 5.6-13.4zM117.4 77.2c10.5.1 19.8-2.4 28-7.9-1.3-4.7-3.1-9.3-5.5-13.6-9.8 2.1-18.1 7-25.5 14.4l3 7.1zM95.7 55.4l7 2.8c7.6-7.1 12.4-15.6 14.2-25.2-4.1-2.5-8.6-4.3-13.5-5.5-5.3 8.2-8 17.4-7.7 27.9zM62.8 66.4l5.5-5.5c-3.9-9.6-9.9-17.5-17.9-22.8-1.9 1.6-3.7 3.1-5.3 4.9-1.8 1.8-3.4 3.6-4.9 5.3 5.3 8.1 13 14.1 22.6 18.1zM72 58.2l7.1-2.8c.3-10.5-2.4-19.7-7.9-27.9-4.7 1.2-9.2 3-13.5 5.5 2.2 9.7 6.9 18.1 14.3 25.2zM83.6 54.5h7.7c4-9.6 5.3-19.1 3.4-28.7-2.4-.1-4.7-.3-7.3-.3-2.7 0-4.9.1-7.4.3-1.8 9.6-.6 19.1 3.6 28.7zM68.3 109.9l-5.5-5.5c-9.8 3.8-17.3 9.8-22.7 17.9 1.3 1.9 3 3.7 4.9 5.5 1.6 1.8 3.4 3.4 5.3 4.9 8.1-5.4 14.2-13 18-22.8zM27.3 85.5c0 2.5.3 5 .4 7.3 9.6 1.8 19.1.7 28.7-3.4v-7.7c-9.6-4.1-19.1-5.3-28.7-3.4-.1 2.3-.4 4.7-.4 7.2zM60.3 100.7l-3-7.1c-10.5-.1-19.7 2.5-27.8 8 1.2 4.7 3 9.2 5.5 13.3 9.6-1.9 18.1-6.6 25.3-14.2zM60.3 70.1C53.2 62.5 44.6 57.8 35 55.9c-2.4 4.1-4.3 8.7-5.5 13.5 8.1 5.5 17.3 8 27.8 7.9l3-7.2z"/></g><circle opacity=".8" fill="#FFF100" cx="87.4" cy="85.5" r="23.9"/><g opacity=".7" fill="#0AB9BD"><path d="M73.9 118.3c6.6-5 9.8-11.5 9.7-19.2l-3.2-1.3c-5.5 5.4-7.8 12.2-6.5 20.5zM73.5 87.2v-3.5c-7.2-3-14.4-2.4-21.5 1.9 7.1 4.1 14.4 4.7 21.5 1.6zM91.1 99.2c-.1 7.6 3.1 14.1 9.8 19 1.2-8.2-1-15-6.6-20.4l-3.2 1.4zM75.1 78.6C69.7 73 62.9 70.8 54.8 72c4.8 6.6 11.3 9.9 19 9.7l1.3-3.1zM89.2 99.5h-3.5c-3.1 7.2-2.5 14.3 1.8 21.4 4.2-7.2 4.7-14.2 1.7-21.4zM78.7 96.7l-2.4-2.5c-7.2 2.8-11.9 8.3-13.9 16.4 8.1-2.1 13.5-6.8 16.3-13.9zM76.2 76.9l2.5-2.4c-2.8-7.2-8.2-11.9-16.3-13.9 2.1 8 6.7 13.5 13.8 16.3zM98.5 94.1L96 96.7c2.8 7.1 8.3 11.9 16.4 13.9-2-8.1-6.7-13.6-13.9-16.5zM85.7 71.5h3.5c3-7.1 2.4-14.3-1.8-21.3-4.3 7.1-4.9 14.2-1.7 21.3zM101.3 83.8v3.4c7.1 3.1 14.3 2.5 21.4-1.7-7.1-4.3-14.2-4.8-21.4-1.7zM100.9 53c-6.7 4.8-9.9 11.2-9.7 19l3.1 1.3c5.6-5.4 7.8-12.2 6.6-20.3zM120 99c-4.9-6.5-11.3-9.8-19.1-9.7l-1.4 3.2c5.4 5.6 12.3 7.8 20.5 6.5zM83.6 71.9c.1-7.7-3.1-14.2-9.7-19-1.2 8.1 1 15 6.5 20.4l3.2-1.4zM99.5 78.6l1.4 3.2c7.8.1 14.2-3.1 19.1-9.7-8.2-1.3-15.1.9-20.5 6.5zM75.1 92.4l-1.3-3.2c-7.7-.1-14.2 3.2-19 9.8 8.1 1.3 14.9-.9 20.3-6.6zM96.1 74.5l2.4 2.4c7.2-2.8 11.9-8.3 13.9-16.4-8.1 2-13.5 6.7-16.3 14z"/></g><path opacity=".5" fill="#FFF" d="M93.7 95.2c.1.1.1.2.2.2 0-.1-.1-.2-.1-.3-.3-1.1-.1-2 .5-2.6.5-.6 1.4-.7 2.6-.4.1 0 .2 0 .2.1-.1-.1-.1-.2-.1-.3-.7-.9-.9-1.8-.5-2.6.3-.8 1-1.3 2.2-1.4.1 0 .2 0 .3-.1-.1-.1-.2-.1-.3-.2-1-.6-1.5-1.4-1.5-2.2 0-.8.4-1.5 1.5-2.1l.2-.2h-.3c-1.2-.2-1.9-.7-2.1-1.5-.3-.8-.2-1.6.5-2.6 0 .1 0 0 .1 0h-.3c-1.1.3-2 .2-2.6-.4-.6-.7-.8-1.5-.5-2.6 0-.1.1-.2.1-.3-.1 0-.1.1-.2.2-1 .7-1.9.9-2.6.5-.8-.3-1.2-1.1-1.4-2.2v-.3c-.1 0-.1.1-.2.2-.6 1-1.3 1.5-2.2 1.5-.8 0-1.5-.5-2.1-1.5 0 .1-.1 0-.1-.1v.3c-.2 1.1-.6 1.9-1.4 2.2-.8.3-1.6.1-2.6-.5l-.2-.2c.1.1.1.2.1.3.3 1.1.1 1.9-.5 2.6-.6.6-1.4.8-2.6.4h-.2s.1.1.1.2c.7.9.9 1.8.6 2.6-.4.8-1.1 1.3-2.2 1.5h-.2l.2.2c1 .6 1.6 1.3 1.6 2.1 0 .9-.5 1.6-1.5 2.2-.1.1-.2.1-.2.1.1.1.2.1.3.1 1.1.2 1.8.6 2.2 1.4.3.8.1 1.6-.6 2.6 0 .1-.1.2-.1.2h.3c1.1-.3 2-.2 2.5.4.6.6.8 1.5.5 2.6 0 .1 0 .2-.1.3.1 0 .1-.1.2-.2.9-.7 1.8-.8 2.6-.5.8.3 1.3 1.1 1.4 2.2v.2c0-.1.1-.2.2-.2.5-1 1.3-1.5 2.1-1.5.9 0 1.6.5 2.2 1.5l.2.2v-.2c.2-1.2.7-1.9 1.4-2.2.6-.5 1.4-.4 2.4.3zM86.3 88c-.7-.3-1.2-.7-1.4-1.4-.3-.7-.3-1.4 0-2.1.3-.7.7-1.1 1.4-1.5.7-.2 1.3-.2 2 0 .7.3 1.2.8 1.5 1.5.3.7.3 1.4 0 2.1-.3.7-.8 1.1-1.5 1.4-.6.2-1.3.2-2 0z"/></g><g><path opacity=".7" fill="#0AB9BD" d="M77 218.3h20.6v156.5H77z"/><path opacity=".7" fill="#0AB9BD" d="M9.1 286.2h156.6v20.6H9.1z"/><path opacity=".7" fill="#0AB9BD" d="M135.36 233.89l14.567 14.567L39.195 359.189 24.63 344.622z"/><path opacity=".7" fill="#0AB9BD" d="M150.008 344.526l-14.566 14.567L24.78 248.43l14.566-14.566z"/><path opacity=".7" fill="#0AB9BD" d="M77 218.3h20.6v156.5H77z"/><path opacity=".7" fill="#0AB9BD" d="M9.1 286.2h156.6v20.6H9.1z"/><path opacity=".7" fill="#0AB9BD" d="M135.36 233.89l14.567 14.567L39.195 359.189 24.63 344.622z"/><path opacity=".7" fill="#0AB9BD" d="M150.008 344.526l-14.566 14.567L24.78 248.43l14.566-14.566z"/><g fill="#EC297B"><path opacity=".4" d="M108.272 220.436l18.973 8.024-60.957 144.136-18.972-8.023z"/><path opacity=".4" d="M163.443 317.466l-8.022 18.975L11.27 275.5l8.022-18.975z"/><path opacity=".4" d="M18.7 335.5l-7.8-19.1L156 257.6l7.8 19.1z"/><path opacity=".4" d="M48.4 227.9l19.1-7.8 58.8 145.1-19.1 7.7z"/></g><g fill="#EC297B"><path opacity=".4" d="M108.272 220.436l18.973 8.024-60.957 144.136-18.972-8.023z"/><path opacity=".4" d="M163.443 317.466l-8.022 18.975L11.27 275.5l8.022-18.975z"/><path opacity=".4" d="M18.7 335.5l-7.8-19.1L156 257.6l7.8 19.1z"/><path opacity=".4" d="M48.4 227.9l19.1-7.8 58.8 145.1-19.1 7.7z"/></g><g fill="#EC297B"><path opacity=".4" d="M108.272 220.436l18.973 8.024-60.957 144.136-18.972-8.023z"/><path opacity=".4" d="M163.443 317.466l-8.022 18.975L11.27 275.5l8.022-18.975z"/><path opacity=".4" d="M18.7 335.5l-7.8-19.1L156 257.6l7.8 19.1z"/><path opacity=".4" d="M48.4 227.9l19.1-7.8 58.8 145.1-19.1 7.7z"/></g></g></svg>