<svg xmlns="http://www.w3.org/2000/svg" width="593.5" height="593.5" viewBox="0 0 593.5 593.5"><g fill="#FFF"><path d="M506.6 86.9C450.5 30.9 376 0 296.7 0 217.5 0 143 30.9 86.9 86.9 30.9 143 0 217.5 0 296.7 0 376 30.9 450.5 86.9 506.6c56 56 130.6 86.9 209.8 86.9 79.3 0 153.8-30.9 209.8-86.9 56-56 86.9-130.6 86.9-209.8.1-79.3-30.8-153.8-86.8-209.9zM296.7 576.1c-74.6 0-144.8-29.1-197.6-81.8-52.8-52.8-81.8-122.9-81.8-197.6 0-74.6 29.1-144.8 81.8-197.6C151.9 46.3 222 17.3 296.7 17.3c74.6 0 144.8 29.1 197.6 81.8 52.8 52.8 81.8 122.9 81.8 197.6 0 74.6-29.1 144.8-81.8 197.6-52.8 52.8-122.9 81.8-197.6 81.8z"/><path d="M296.7 568.4c-72.6 0-140.8-28.3-192.1-79.6C53.3 437.5 25 369.3 25 296.7s28.3-140.8 79.6-192.1C156 53.4 224.2 25.1 296.7 25.1c72.6 0 140.8 28.3 192.1 79.6 51.3 51.3 79.6 119.5 79.6 192.1s-28.3 140.8-79.6 192.1c-51.3 51.2-119.5 79.5-192.1 79.5zm0-535.6c-70.5 0-136.8 27.5-186.7 77.3C60.1 160 32.7 226.2 32.7 296.8c0 70.5 27.5 136.8 77.3 186.7 49.9 49.9 116.1 77.3 186.6 77.3s136.8-27.5 186.7-77.3c49.9-49.9 77.3-116.1 77.3-186.7 0-70.5-27.5-136.8-77.3-186.7-49.8-49.9-116-77.3-186.6-77.3z"/><path d="M296.7 553c-68.4 0-132.8-26.7-181.2-75-48.4-48.4-75-112.7-75-181.2h7.7c0 66.4 25.9 128.8 72.8 175.7 46.9 46.9 109.4 72.8 175.7 72.8v7.7zm256.2-256.3h-7.7c0-66.4-25.9-128.8-72.8-175.8C425.5 74 363 48.1 296.7 48.1v-7.7c68.4 0 132.8 26.6 181.2 75 48.4 48.6 75 112.9 75 181.3z"/><path d="M296.7 537.5c-64.3 0-124.8-25-170.3-70.5C81 421.5 56 361.1 56 296.7c0-64.3 25-124.8 70.5-170.3C172 81 232.4 56 296.7 56 361 56 421.5 81 467 126.5c45.5 45.5 70.5 105.9 70.5 170.3 0 64.3-25 124.8-70.5 170.2-45.5 45.5-105.9 70.5-170.3 70.5zm0-473.9c-62.3 0-120.8 24.2-164.8 68.3-44 44-68.3 102.6-68.3 164.8 0 62.3 24.2 120.8 68.3 164.8 44 44 102.6 68.3 164.8 68.3 62.3 0 120.8-24.2 164.8-68.3 44-44 68.3-102.6 68.3-164.8 0-62.3-24.3-120.8-68.3-164.8-44-44-102.5-68.3-164.8-68.3z"/><path d="M296.7 522.1c-60.2 0-116.8-23.4-159.3-66-42.6-42.6-66-99.2-66-159.3 0-60.2 23.4-116.8 66-159.3 42.6-42.6 99.2-66 159.3-66 60.2 0 116.8 23.4 159.3 66 42.6 42.6 66 99.2 66 159.3 0 60.2-23.4 116.8-66 159.3-42.5 42.5-99.1 66-159.3 66zm0-443c-58.1 0-112.8 22.6-153.9 63.8C101.7 184 79 238.7 79 296.8c0 58.1 22.6 112.8 63.8 153.9 41.1 41.1 95.8 63.8 153.9 63.8 58.1 0 112.8-22.6 153.9-63.8 41.1-41.1 63.8-95.8 63.8-153.9 0-58.1-22.6-112.8-63.8-153.9-41.1-41.2-95.7-63.8-153.9-63.8z"/><path d="M296.7 506.7c-56.1 0-108.8-21.8-148.4-61.5-39.6-39.6-61.5-92.4-61.5-148.4 0-56.1 21.8-108.8 61.5-148.4 39.6-39.6 92.4-61.5 148.4-61.5v7.7c-54 0-104.8 21-143 59.2s-59.2 89-59.2 143 21 104.8 59.2 143 89 59.2 143 59.2 104.8-21 143-59.2 59.2-89 59.2-143h7.7c0 56.1-21.8 108.8-61.5 148.4-39.6 39.6-92.3 61.5-148.4 61.5z"/><path d="M296.7 491.2c-51.9 0-100.8-20.2-137.5-57-36.7-36.7-57-85.6-57-137.5 0-52 20.2-100.8 57-137.5 36.7-36.7 85.6-57 137.5-57 51.9 0 100.8 20.2 137.5 57 36.7 36.7 57 85.6 57 137.5 0 52-20.2 100.8-57 137.5-36.7 36.8-85.5 57-137.5 57zm0-381.3c-49.9 0-96.8 19.4-132.1 54.7-35.3 35.3-54.7 82.2-54.7 132.1 0 49.9 19.4 96.8 54.7 132.1 35.3 35.3 82.2 54.7 132.1 54.7 49.9 0 96.8-19.4 132.1-54.7 35.3-35.3 54.7-82.2 54.7-132.1 0-49.9-19.4-96.8-54.7-132.1-35.2-35.2-82.2-54.7-132.1-54.7z"/><path d="M296.7 475.8c-47.8 0-92.8-18.6-126.6-52.4s-52.4-78.8-52.4-126.6 18.6-92.8 52.4-126.6 78.8-52.4 126.6-52.4 92.8 18.6 126.6 52.4 52.4 78.8 52.4 126.6-18.6 92.8-52.4 126.6-78.7 52.4-126.6 52.4zm0-350.4c-45.8 0-88.8 17.8-121.2 50.2-32.4 32.4-50.2 75.4-50.2 121.2s17.8 88.8 50.2 121.2c32.4 32.4 75.4 50.2 121.2 50.2s88.8-17.8 121.2-50.2c32.4-32.4 50.2-75.4 50.2-121.2s-17.8-88.8-50.2-121.2c-32.3-32.4-75.4-50.2-121.2-50.2z"/><path d="M296.7 460.5v-7.7c86 0 156-70 156-156s-70-156-156-156-156 70-156 156H133c0-90.3 73.4-163.7 163.7-163.7 90.3 0 163.7 73.4 163.7 163.7.1 90.2-73.4 163.7-163.7 163.7z"/><path d="M296.7 445.1c-81.8 0-148.4-66.6-148.4-148.4 0-81.8 66.6-148.4 148.4-148.4 81.8 0 148.4 66.6 148.4 148.4 0 81.9-66.5 148.4-148.4 148.4zm0-289.1C219.2 156 156 219.2 156 296.7c0 77.6 63.1 140.7 140.7 140.7s140.7-63.1 140.7-140.7c.1-77.5-63.1-140.7-140.7-140.7z"/><path d="M296.7 429.8c-73.4 0-133-59.7-133-133 0-73.4 59.7-133 133-133 73.4 0 133 59.7 133 133 .1 73.3-59.6 133-133 133zm0-258.4c-69.1 0-125.4 56.2-125.4 125.4 0 69.1 56.2 125.4 125.4 125.4 69.1 0 125.4-56.2 125.4-125.4s-56.2-125.4-125.4-125.4z"/><path d="M296.7 414.4c-64.9 0-117.7-52.8-117.7-117.7S231.8 179 296.7 179s117.7 52.8 117.7 117.7h-7.7c0-60.7-49.4-110-110-110-60.7 0-110 49.4-110 110 0 60.7 49.4 110 110 110v7.7z"/><path d="M296.7 399.1c-56.4 0-102.4-45.9-102.4-102.4 0-56.4 45.9-102.4 102.4-102.4 56.4 0 102.4 45.9 102.4 102.4 0 56.5-45.9 102.4-102.4 102.4zm0-197.1c-52.2 0-94.7 42.5-94.7 94.7s42.5 94.7 94.7 94.7 94.7-42.5 94.7-94.7S349 202 296.7 202z"/><path d="M296.7 383.8c-48 0-87-39-87-87s39-87 87-87 87 39 87 87c.1 47.9-39 87-87 87zm0-166.4c-43.8 0-79.4 35.6-79.4 79.4 0 43.8 35.6 79.4 79.4 79.4 43.8 0 79.4-35.6 79.4-79.4 0-43.8-35.6-79.4-79.4-79.4z"/><path d="M296.7 368.4c-39.5 0-71.7-32.2-71.7-71.7h7.7c0 35.3 28.7 64 64 64s64-28.7 64-64-28.7-64-64-64V225c39.5 0 71.7 32.2 71.7 71.7 0 39.6-32.1 71.7-71.7 71.7z"/><path d="M296.7 353.1c-31.1 0-56.4-25.3-56.4-56.4 0-31.1 25.3-56.4 56.4-56.4 31.1 0 56.4 25.3 56.4 56.4 0 31.1-25.3 56.4-56.4 56.4zm0-105c-26.8 0-48.7 21.8-48.7 48.7 0 26.8 21.8 48.7 48.7 48.7 26.9 0 48.7-21.8 48.7-48.7 0-26.9-21.8-48.7-48.7-48.7z"/><path d="M296.7 337.8c-22.6 0-41-18.4-41-41s18.4-41 41-41 41 18.4 41 41c.1 22.6-18.3 41-41 41zm0-74.4c-18.4 0-33.4 15-33.4 33.4s15 33.4 33.4 33.4 33.4-15 33.4-33.4-15-33.4-33.4-33.4z"/><path d="M296.7 322.4c-14.2 0-25.7-11.5-25.7-25.7s11.5-25.7 25.7-25.7 25.7 11.5 25.7 25.7-11.5 25.7-25.7 25.7zm0-43.7c-9.9 0-18 8.1-18 18s8.1 18 18 18 18-8.1 18-18c.1-9.9-8-18-18-18z"/><path d="M296.7 307.1c-5.7 0-10.4-4.6-10.4-10.4 0-5.7 4.6-10.4 10.4-10.4 5.7 0 10.4 4.6 10.4 10.4 0 5.8-4.7 10.4-10.4 10.4zm0-13c-1.5 0-2.7 1.2-2.7 2.7s1.2 2.7 2.7 2.7c1.5 0 2.7-1.2 2.7-2.7s-1.2-2.7-2.7-2.7z"/></g></svg>