<svg xmlns="http://www.w3.org/2000/svg" width="280.4" height="181.1" viewBox="0 0 280.4 181.1"><path fill="#EEC123" d="M0 0h280.4v181.1H0z"/><path d="M71 154.7v.8c0 .3-.1.4-.4.4H65.4c-.3 0-.4-.1-.4-.4v-8.1c0-.3.1-.4.4-.4h.9c.3 0 .4.1.4.4v7h3.9c.2-.1.4 0 .4.3zM77.2 152.7v.2c0 .2-.1.4-.4.4H73c.1.9.7 1.4 1.7 1.4.7 0 1.2-.2 1.6-.4.2-.1.4-.1.5.2l.2.5c.1.2 0 .4-.2.5-.4.2-1.2.5-2.2.5-2.1 0-3.2-1.2-3.2-3.2 0-1.8 1.2-3.1 3-3.1s2.8 1.3 2.8 3zm-4.2-.4h2.5c-.1-.9-.5-1.3-1.2-1.3-.6 0-1.1.4-1.3 1.3zM84 152.7v.2c0 .2-.1.4-.4.4h-3.8c.1.9.7 1.4 1.7 1.4.7 0 1.2-.2 1.6-.4.2-.1.4-.1.5.2l.2.6c.1.2 0 .4-.2.5-.4.2-1.2.5-2.2.5-2.1 0-3.2-1.2-3.2-3.2 0-1.8 1.2-3.1 3-3.1 1.8-.1 2.8 1.2 2.8 2.9zm-4.2-.4h2.5c-.1-.9-.5-1.3-1.2-1.3-.6 0-1.2.4-1.3 1.3zM91.8 155v.5c0 .2-.1.4-.4.4h-.5c-.5 0-1.1-.2-1.4-.9-.5.5-1.1.9-2 .9-1.4 0-2.6-1-2.6-3.1 0-2 1.2-3.2 3-3.2.7 0 1.1.1 1.5.3v-2.6c0-.3.1-.4.4-.4h.9c.3 0 .4.1.4.4v7.2h.3c.3.1.5.3.4.5zm-2.4-1.9v-1.6c-.3-.2-.7-.4-1.3-.4-.9 0-1.5.6-1.5 1.8 0 1.2.6 1.7 1.3 1.7.8 0 1.5-.6 1.5-1.5zM92.9 155.6c-.2-.1-.3-.3-.2-.5l.1-.6c0-.3.2-.4.5-.2.5.2 1.2.5 2 .5.9 0 1.1-.2 1.1-.6 0-1.1-3.8-.2-3.8-2.5 0-1.1.8-1.9 2.6-1.9 1.5 0 2.5.5 2.7 1.4.1.2-.1.3-.3.4l-.8.1c-.3 0-.4-.1-.5-.3-.2-.3-.5-.4-1-.4-.7 0-1 .2-1 .6 0 1.3 3.8.1 3.8 2.6 0 1.1-.8 1.9-2.8 1.9-1.1-.1-1.8-.2-2.4-.5zM102.8 151.5c0-3.1 1.7-4.6 4.1-4.6 2.2 0 3.4 1 3.6 2.6 0 .3-.1.4-.4.4l-1 .1c-.3 0-.4-.1-.4-.3-.2-.9-.8-1.3-1.9-1.3-1.3 0-2.3.9-2.3 3 0 2 1.1 3 2.9 3 1 0 1.6-.3 2.1-.5.2-.1.5 0 .6.3l.2.7c0 .2 0 .4-.2.5-.6.3-1.5.6-2.9.6-2.8 0-4.4-1.6-4.4-4.5zM111.1 152.9c0-2 1.3-3.2 3.2-3.2 1.9 0 3.2 1.2 3.2 3.2s-1.3 3.1-3.2 3.1c-1.9 0-3.2-1.1-3.2-3.1zm4.7 0c0-1.1-.5-1.8-1.5-1.8s-1.5.7-1.5 1.8.5 1.7 1.5 1.7 1.5-.6 1.5-1.7zM129.3 155v.5c0 .3-.1.4-.4.4h-.6c-1 0-1.4-.2-1.4-1.3v-2.2c0-.9-.3-1.3-1-1.3s-1.2.5-1.2 1.3v3c0 .3-.1.4-.4.4h-.9c-.3 0-.4-.1-.4-.4v-3c0-.9-.3-1.3-1-1.3s-1.2.5-1.2 1.3v3c0 .3-.1.4-.4.4h-.9c-.3 0-.4-.1-.4-.4v-4.3c-.1 0-.2 0-.4-.1-.2 0-.3-.1-.3-.4v-.6c0-.2.1-.4.3-.4.2 0 .3-.1.5-.1.7 0 1.2.3 1.4.9.4-.6 1-.9 1.8-.9 1 0 1.6.4 1.9 1.1.4-.7 1.1-1.1 2-1.1 1.5 0 2.2 1 2.2 2.6v2.2c.1 0 .2 0 .3.1.3.3.5.4.5.6zM140.7 155v.5c0 .3-.1.4-.4.4h-.6c-1 0-1.4-.2-1.4-1.3v-2.2c0-.9-.3-1.3-1-1.3s-1.2.5-1.2 1.3v3c0 .3-.1.4-.4.4h-.9c-.3 0-.4-.1-.4-.4v-3c0-.9-.3-1.3-1-1.3s-1.2.5-1.2 1.3v3c0 .3-.1.4-.4.4h-.9c-.3 0-.4-.1-.4-.4v-4.3c-.1 0-.2 0-.4-.1-.2 0-.3-.1-.3-.4v-.6c0-.2.1-.4.3-.4.2 0 .3-.1.5-.1.7 0 1.2.3 1.4.9.4-.6 1-.9 1.8-.9 1 0 1.6.4 1.9 1.1.4-.7 1.1-1.1 2-1.1 1.5 0 2.2 1 2.2 2.6v2.2c.1 0 .2 0 .3.1.4.3.5.4.5.6zM148.5 155v.6c0 .2-.1.4-.4.4h-.5c-.7 0-1.2-.2-1.4-.9-.5.7-1.2 1-2.2 1-1.3 0-2.1-.5-2.1-2.5v-2.3c-.1 0-.2 0-.4-.1-.2 0-.3-.1-.3-.4v-.6c0-.2.1-.4.3-.4h.6c.8 0 1.4.2 1.4 1.3v2.2c0 1 .3 1.3 1 1.3.9 0 1.4-.6 1.4-1.6v-2.7c0-.3.1-.4.4-.4h.9c.3 0 .4.1.4.4v4.3h.3c.4 0 .6.2.6.4zM156.3 155v.6c0 .2-.1.4-.4.4h-.7c-.9 0-1.4-.3-1.4-1.3v-2.1c0-1-.4-1.4-1.2-1.4-.8 0-1.3.6-1.3 1.4v2.9c0 .3-.1.4-.4.4h-.9c-.3 0-.4-.1-.4-.4v-4.3c-.1 0-.2 0-.4-.1-.2 0-.3-.1-.3-.4v-.6c0-.2.1-.4.3-.4.1 0 .3-.1.5-.1.7 0 1.2.3 1.4.9.4-.6 1.1-.9 2-.9 1.6 0 2.3 1 2.3 2.6v2.3h.3c.4.1.6.2.6.5zM157.1 147.9c0-.6.5-1 1.1-1 .6 0 1.1.4 1.1 1s-.4 1-1.1 1c-.6.1-1.1-.3-1.1-1zm.3 7v-4.6c0-.3.1-.4.4-.4h.9c.3 0 .4.1.4.4v4.3h.3c.3 0 .4.2.4.4v.6c0 .2-.1.4-.4.4h-.8c-.9 0-1.2-.3-1.2-1.1zM164.5 150.2v.6c0 .3-.1.4-.4.4h-1.3v2.7c0 .5.2.7.6.7.2 0 .4 0 .5-.1.2 0 .4.1.4.3v.7c0 .2-.1.4-.3.4-.3.1-.7.1-1.2.1-1.2 0-1.8-.4-1.8-1.9v-2.9h-.8c-.3 0-.4-.1-.4-.4v-.6c0-.3.1-.4.4-.4h.8v-1.4c0-.3.1-.4.4-.4h.9c.3 0 .4.1.4.4v1.4h1.3c.4.1.5.2.5.4zM171.3 150.3l-2.8 6.4c-.5 1.2-1.3 1.6-2.4 1.6h-.6c-.2 0-.3-.2-.4-.4l-.1-.6c0-.3.1-.4.4-.4.1 0 .3.1.5.1.6 0 1-.2 1.2-.7l.1-.3-2-4.6h-.3c-.2 0-.3-.2-.3-.4v-.6c0-.2.1-.4.3-.4.2 0 .4-.1.5-.1.6 0 1 .3 1.2.8l1.4 3.3 1.5-3.8c.1-.2.2-.3.5-.3l.9.1c.4-.1.5.1.4.3zM184.8 154.9v.7c0 .2-.1.4-.4.4h-.7c-.9 0-1.5-.3-1.5-1.4v-2.2H178v3.2c0 .3-.1.4-.4.4h-.9c-.3 0-.4-.1-.4-.4v-8.1c0-.3.1-.4.4-.4h.9c.3 0 .4.1.4.4v3.4h4.2v-3.4c0-.3.1-.4.4-.4h.9c.3 0 .4.1.4.4v7c.1 0 .3.1.4.1.4-.1.5 0 .5.3zM185.8 152.9c0-2 1.3-3.2 3.2-3.2 1.9 0 3.2 1.2 3.2 3.2s-1.3 3.1-3.2 3.1c-1.9 0-3.2-1.1-3.2-3.1zm4.7 0c0-1.1-.5-1.8-1.5-1.8s-1.5.7-1.5 1.8.5 1.7 1.5 1.7 1.5-.6 1.5-1.7zM204 155v.5c0 .3-.1.4-.4.4h-.6c-1 0-1.4-.2-1.4-1.3v-2.2c0-.9-.3-1.3-1-1.3s-1.2.5-1.2 1.3v3c0 .3-.1.4-.4.4h-1c-.3 0-.4-.1-.4-.4v-3c0-.9-.3-1.3-1-1.3s-1.2.5-1.2 1.3v3c0 .3-.1.4-.4.4h-.9c-.3 0-.4-.1-.4-.4v-4.3c-.1 0-.2 0-.4-.1-.2 0-.3-.1-.3-.4v-.6c0-.2.1-.4.3-.4.2 0 .3-.1.5-.1.7 0 1.2.3 1.4.9.4-.6 1-.9 1.8-.9 1 0 1.6.4 1.9 1.1.4-.7 1.1-1.1 2-1.1 1.5 0 2.2 1 2.2 2.6v2.2c.1 0 .2 0 .3.1.4.3.6.4.6.6zM210.6 152.7v.2c0 .2-.1.4-.4.4h-3.8c.1.9.7 1.4 1.7 1.4.7 0 1.2-.2 1.6-.4.2-.1.4-.1.5.2l.2.6c.1.2 0 .4-.2.5-.4.2-1.2.5-2.2.5-2.1 0-3.2-1.2-3.2-3.2 0-1.8 1.2-3.1 3-3.1 1.8-.1 2.8 1.2 2.8 2.9zm-4.2-.4h2.5c-.1-.9-.5-1.3-1.2-1.3-.6 0-1.1.4-1.3 1.3zM211.8 155.6c-.2-.1-.3-.3-.2-.5l.1-.6c0-.3.2-.4.5-.2.5.2 1.2.5 2 .5.9 0 1.1-.2 1.1-.6 0-1.1-3.8-.2-3.8-2.5 0-1.1.8-1.9 2.6-1.9 1.5 0 2.5.5 2.7 1.4.1.2-.1.3-.3.4l-.8.1c-.3 0-.4-.1-.5-.3-.2-.3-.5-.4-1-.4-.7 0-1 .2-1 .6 0 1.3 3.8.1 3.8 2.6 0 1.1-.8 1.9-2.8 1.9-1.1-.1-1.8-.2-2.4-.5z"/><g><g fill="none" stroke="#000" stroke-width=".718" stroke-linecap="round" stroke-linejoin="round" stroke-miterlimit="10"><path d="M108.7 92.4h1.6V94h-1.6zM112.7 92.4h1.6V94h-1.6zM116.7 92.4h1.6V94h-1.6z"/></g><g fill="none" stroke="#000" stroke-width=".718" stroke-linecap="round" stroke-linejoin="round" stroke-miterlimit="10"><path d="M108.7 95.8h1.6v1.6h-1.6zM112.7 95.8h1.6v1.6h-1.6zM116.7 95.8h1.6v1.6h-1.6z"/></g><g fill="none" stroke="#000" stroke-width=".718" stroke-linecap="round" stroke-linejoin="round" stroke-miterlimit="10"><path d="M108.7 99.2h1.6v1.6h-1.6zM112.7 99.2h1.6v1.6h-1.6zM116.7 99.2h1.6v1.6h-1.6z"/></g><path fill="none" stroke="#000" stroke-width=".675" stroke-linecap="round" stroke-linejoin="round" stroke-miterlimit="10" d="M88.7 82.4S85.5 68 73.1 73.1c-.1-11-21.1-25-32.8-4.3 0 0-12-4.4-12 7 0 0-4.4-.4-4.4 6.5"/><g fill="#FFF"><path d="M155.2 84.6v2.9H99.7v-2.9h53.2z"/><path d="M134.7 75.4l.5 9.2h-15.5l.5-9.2.2-4 .1-2.4.8-14.4h11.9l.7 12.6.1 1.9.1 2.4.6 3.9zm-3.8-5.8V57.8h-1.2v11.8h1.2zm-2.8 0V57.8h-1.2v11.8h1.2zm-2.9 0V57.8H124v11.8h1.2zM134.3 53.3v1.2H120.6v-1.2h13.2z"/><path d="M129.7 57.8h1.2v11.8h-1.2zM130.2 41.4v3.5h-5.5v-3.5zM126.9 57.8h1.2v11.8h-1.2zM124 57.8h1.2v11.8H124z"/></g><g fill="none" stroke="#000" stroke-linecap="round" stroke-linejoin="round" stroke-miterlimit="10"><path stroke-width=".718" d="M134.7 75.4h18.2v9.2M102 84.6v-9.2h18.3M134.3 69h15.9v6.4"/><path stroke-width=".718" d="M104.7 75.4V69h16"/><path stroke-width=".718" d="M119.7 84.6l.6-9.2.2-4 .2-2.4.8-14.5M133.4 54.5l.8 12.6.1 1.9.1 2.4.3 4 .5 9.2M121.2 53.3v-5.9h1.1v-2.5h2.4M133.8 53.3v-5.9h-1.1v-2.5h-2.5"/><path stroke-width=".718" d="M133.8 53.3h.5v1.2H120.6v-1.2h10.2zM124.2 53.3v-6.4h6.6v6.4M130.2 44.9v-3.5h-5.5v3.5H127.6z"/><circle stroke-width=".718" cx="127.5" cy="50.1" r="2"/><path stroke-width=".718" d="M127.5 49.1v1h1M155.2 87.5v2.3H99.7V84.6h55.5zM124 57.8h1.2v11.8H124zM126.9 57.8h1.2v11.8h-1.2zM129.7 57.8h1.2v11.8h-1.2zM104.7 71.4h15.8M134.7 71.4h15.5M104.9 77.6h1.9v5h-1.9zM110 77.6h1.9v5H110zM115.1 77.6h1.9v5h-1.9zM138.1 77.6h1.9v5h-1.9zM143.2 77.6h1.9v5h-1.9zM148.2 77.6h1.9v5h-1.9zM107.7 72.6h1.6v1.6h-1.6zM111.6 72.6h1.6v1.6h-1.6zM115.6 72.6h1.6v1.6h-1.6zM137.5 72.6h1.6v1.6h-1.6zM141.5 72.6h1.6v1.6h-1.6zM145.4 72.6h1.6v1.6h-1.6zM120.7 67.1h-5.4M114 67.1h-3.6M109.1 67.1h-2.2M105.7 67.1h-1.4M134.2 67.1h5.4M140.9 67.1h3.6M145.8 67.1h2.1M149.2 67.1h1.4"/><path stroke-width=".722" d="M99.9 87.5h55.2"/></g><path fill="#F0C223" d="M76.1 82.1h30.7v2.5h-31v-2.5zM106.8 108.9v5.4H75.4v-5.4H105.5z"/><path fill="#F0C223" d="M106.1 76.7v5.4h-30v-5.3c0-.6 0-1.2.1-1.9H106c.1.6.1 1.2.1 1.8zm-12.8 1.7c0-1.2-1-2.2-2.2-2.2-1.2 0-2.2 1-2.2 2.2 0 1.2 1 2.2 2.2 2.2 1.2.1 2.2-.9 2.2-2.2zM105.5 84.6v24.3h-2.1l-.1-17.4v-6.9zM103.3 91.5V109h-1.9V89.4c0-.7.3-1.2 1-1.2.6 0 .9.6.9 1.2v2.1z"/><path fill="#FFF" d="M102.8 73.6s-1 1.9-2.2-.3c0 0-1.3-9.4-7.9-15.4.1 0 9.4 4.7 10.1 15.7z"/><path fill="#EEC123" d="M103.3 84.6v4.9c0-.7-.2-1.2-.9-1.2s-1 .6-1 1.2v-4.9h4-2.1z"/><path fill="#F0C223" d="M99.6 89.3v-4.7h1.9v24.3h-1.9zM99.6 89.3V109h-1.9V89.4c0-.7.3-1.2 1-1.2.6 0 .9.5.9 1.1z"/><path fill="#EEC123" d="M99.6 84.6v4.7c0-.6-.3-1.1-.9-1.1-.7 0-1 .6-1 1.2v-4.9h3.7-1.8z"/><path fill="#F0C223" d="M97.8 89.4v19.5h-1.9V84.6h1.9z"/><path fill="#FFF" d="M97.8 73.6s-1.3 2-2.6-.2c0 0 .2-9.9-3.2-15.5.1 0 5.1 2.9 5.8 15.7z"/><path fill="#F0C223" d="M95.9 89.4v19.5H94V89.4c0-.7.3-1.2 1-1.2s.9.5.9 1.2z"/><path fill="#EEC123" d="M95.9 84.6v4.9c0-.7-.2-1.2-.9-1.2s-1 .6-1 1.2v-4.9h3.7-1.8z"/><path fill="#FFF" d="M94.1 55.4v2.7c-1-.3-2-.4-3-.4H91c-1.1 0-2.2.2-3.3.5v-2.8H94.1z"/><path fill="#F0C223" d="M92.2 89.3v-4.7H94v24.3h-1.8zM91.7 51.1h1.6v4.3h-1.6z"/><path fill="#FFF" d="M93.3 49.3v1.8h-4.7v-1.8h3.5zM91.2 58c.5 1 2 4.9 1.6 16 0 0-.8.9-1.6 1-.9 0-1.6-1-1.6-1-.4-11.5 1.1-15.1 1.6-16z"/><circle fill="#FFF" cx="91.1" cy="78.4" r="2.2"/><path fill="#F0C223" d="M92.2 89.3v19.6h-1.9V89.4c0-.7.3-1.2 1-1.2.6 0 .9.5.9 1.1z"/><path fill="#FFF" d="M92.1 47.1v2.2h-2.3v-2.2h1.1z"/><path fill="#F0C223" d="M91.7 51.1v4.3H90.1v-4.3z"/><path fill="#FFF" d="M92.6 57.9c6.7 6.1 7.9 15.4 7.9 15.4 1.2 2.2 2.2.3 2.2.3-.6-11-9.9-15.7-10.1-15.7zm-.6 0c3.4 5.6 3.2 15.5 3.2 15.5 1.2 2.2 2.6.2 2.6.2-.7-12.8-5.7-15.7-5.8-15.7zm-.9-.2c1 0 2.1.1 3 .4 6.3 1.7 11.3 8.5 11.9 16.9H91.1h.1c.9 0 1.6-1 1.6-1 .3-11.1-1.1-14.9-1.6-16-.1-.2-.2-.3-.2-.3h.1z"/><path fill="#EEC123" d="M90.3 84.6H94h-1.9v4.8c0-.6-.3-1.1-.9-1.1-.7 0-1 .6-1 1.2v-4.9h.1z"/><path fill="#F0C223" d="M90.3 89.4v19.5h-1.8V84.6h1.8z"/><path fill="#FFF" d="M87.7 58.2c1.1-.3 2.2-.5 3.3-.5 0 0 .1.1.2.3-.5.8-2 4.5-1.7 16 0 0 .8.9 1.6 1H76.2c.6-8.3 5.4-15 11.5-16.8zm-6 15.1s1.3-9.4 8-15.4c-.1.1-9.5 4.8-10.2 15.7 0 0 1 1.9 2.2-.3zm8.5-15.4c-.1 0-5.1 3-5.8 15.7 0 0 1.3 2 2.6-.2 0 0-.2-9.9 3.2-15.5z"/><path fill="#F0C223" d="M88.6 51.1h1.6v4.3h-1.6z"/><path fill="#FFF" d="M89.7 57.9c-6.7 6.1-8 15.4-8 15.4-1.2 2.2-2.2.3-2.2.3.7-11 10.1-15.7 10.2-15.7z"/><path fill="#FFF" d="M84.5 73.6c.7-12.7 5.7-15.7 5.8-15.7-3.5 5.6-3.3 15.5-3.3 15.5-1.2 2.1-2.5.2-2.5.2z"/><path fill="#F0C223" d="M88.5 89.4v19.5h-1.9V89.4c0-.7.3-1.2 1-1.2.6 0 .9.5.9 1.2z"/><path fill="#EEC123" d="M87.6 88.2c-.7 0-1 .6-1 1.2v-4.9h3.7-1.9v4.9c.1-.7-.2-1.2-.8-1.2z"/><path fill="#F0C223" d="M84.7 89.3v-4.7h1.9v24.3h-1.9zM84.7 89.3v19.6h-1.9V89.4c0-.7.3-1.2 1-1.2s.9.5.9 1.1z"/><path fill="#EEC123" d="M84.7 84.6v4.8c0-.6-.3-1.1-.9-1.1-.7 0-1 .6-1 1.2v-4.9h3.7-1.8z"/><path fill="#F0C223" d="M82.9 89.4v19.5H81V84.6h1.9zM81 89.4v19.5h-1.9V89.4c0-.7.3-1.2 1-1.2s.9.5.9 1.2z"/><path fill="#EEC123" d="M81 84.6v4.9c0-.7-.2-1.2-.9-1.2s-1 .6-1 1.2v-4.9h3.7H81z"/><path fill="#F0C223" d="M79.1 89.4v19.5H77V84.6h2.1z"/><g fill="none" stroke="#000" stroke-linecap="round" stroke-linejoin="round" stroke-miterlimit="10"><path stroke-width=".722" d="M76.1 82.2h0v-5.4c0-.6 0-1.2.1-1.9.6-8.2 5.4-14.9 11.5-16.7 1.1-.3 2.2-.5 3.3-.5h.1c1 0 2.1.1 3 .4 6.3 1.7 11.3 8.5 11.9 16.9 0 .6.1 1.2.1 1.8v5.4"/><path stroke-width=".718" d="M89.7 57.9c-.1.1-9.5 4.8-10.2 15.7 0 0 1 1.9 2.2-.3 0 0 1.4-9.4 8-15.4zM89.7 57.9h0"/><path stroke-width=".718" d="M90.2 57.9c-.1 0-5.1 3-5.8 15.7 0 0 1.3 2 2.6-.2 0 0-.2-9.9 3.2-15.5zM90.2 57.9h0"/><path stroke-width=".722" d="M91 57.7s.1.1.2.3c.5 1 2 4.9 1.6 16 0 0-.8.9-1.6 1 0 0 0 0 0 0h.1s0 0 0 0c-.9 0-1.6-1-1.6-1-.4-11.4 1.2-15.1 1.7-16 .1-.1.1-.2.1-.2"/><path stroke-width=".718" d="M92.6 57.9c.1.1 9.5 4.8 10.2 15.7 0 0-1 1.9-2.2-.3-.1 0-1.3-9.4-8-15.4zM92.6 57.9h0"/><path stroke-width=".718" d="M92 57.9c.1 0 5.1 3 5.8 15.7 0 0-1.3 2-2.6-.2.1 0 .3-9.9-3.2-15.5zM92 57.9h0M90.1 55.4v-4.3M91.7 55.4v-4.3M89.8 49.3h-1.2v6.1M93.3 55.4v-6.1h-1.2M88.6 51.1h4.7M92.1 49.3v-2.2h-2.3v2.2zM90.9 47.1v-2.8"/><path stroke-width=".718" d="M94.1 58.2V55.4H87.7v2.8h0"/><circle stroke-width=".718" cx="91.1" cy="78.4" r="2.2"/><path stroke-width=".718" d="M106.1 82.1h.7v2.5h-31v-2.5h.3zM77 108.9V84.6h2.1v24.3M103.4 108.9l-.1-17.4v-6.9h2.2v24.3M81 108.9V84.6h1.9v24.3M84.7 108.9V84.6h1.9v24.3M88.5 108.9V84.6h1.8v24.3M92.2 108.9V84.6H94v24.3M95.9 108.9V84.6h1.9v24.3M99.6 108.9V84.6h1.9v24.3M79.1 89.4c0-.7.3-1.2 1-1.2.6 0 .9.6.9 1.2"/><path stroke-width=".718" d="M82.9 89.4c0-.7.3-1.2 1-1.2.6 0 .9.5.9 1.1v.1M86.6 89.4c0-.7.3-1.2 1-1.2.6 0 .9.6.9 1.2M90.3 89.4c0-.7.3-1.2 1-1.2.6 0 .9.5.9 1.1v.1M94 89.4c0-.7.3-1.2 1-1.2.6 0 .9.6.9 1.2M97.8 89.4c0-.7.3-1.2 1-1.2.6 0 .8.5.9 1.1v.2M101.5 89.4c0-.7.3-1.2 1-1.2.6 0 .9.6.9 1.2"/><path stroke-width=".722" d="M76.5 74.9l14.6.1h14.7M75.8 111.1h30.6M105.5 108.9h1.3v5.4H75.4v-5.4H103.4z"/></g><path fill="none" stroke="#000" stroke-width=".718" stroke-linecap="round" stroke-linejoin="round" stroke-miterlimit="10" d="M170.2 81.2h0s-1.4-8.2 7.1-6c-2.5-5.6 6.5-11.8 11.1-5.4-.4-5.4 8.3-13.3 16.8-4.4C205.2 54 227 39.6 239 61c0 0 12.3-4.6 12.3 7.3 0 0 4.5-.4 4.5 6.7h-26.4"/><g><path fill="none" stroke="#000" stroke-width=".718" stroke-linecap="round" stroke-linejoin="round" stroke-miterlimit="10" d="M195.7 99h12.8M195.8 100.2V76.6l6.3-7.5 6.2 7.6v23.5z"/><path fill="none" stroke="#000" stroke-width=".718" stroke-linecap="round" stroke-linejoin="round" stroke-miterlimit="10" d="M198.5 81.6h2.2v3.2h-2.2zM203.3 81.6h2.2v3.2h-2.2zM198.5 76.2h2.2v3.2h-2.2zM203.3 76.2h2.2v3.2h-2.2z"/><g><path fill="none" stroke="#000" stroke-width=".718" stroke-linecap="round" stroke-linejoin="round" stroke-miterlimit="10" d="M198.5 92.4h2.2v3.2h-2.2zM203.3 92.4h2.2v3.2h-2.2zM198.5 87h2.2v3.2h-2.2zM203.3 87h2.2v3.2h-2.2z"/></g></g><g><g fill="#FFF"><path d="M175.1 64v42.8h-1.2V64zM175 62.4c.1.5.1 1 .1 1.6H150.6c0-.5 0-1 .1-1.6H175zM174.4 59.5c.3.9.5 1.9.6 2.9h-3.3s-.2-1.2-.7-2.9h3.4zM174.4 59.5H171c-.3-.9-.7-1.9-1.2-2.9h3.2c.6.9 1.1 1.9 1.4 2.9zM173.9 106.8h-2.1V66.5c.2-.2.7-.6 1-.6h.1c.3 0 .8.4 1 .6V106.8z"/><path d="M173.9 64v2.5c-.2-.2-.7-.6-1-.6V64h1zM173.1 56.6h-3.3c-1.3-2.6-3.5-5.3-7-6.2 4.3.2 8.1 2.6 10.3 6.2zM172.9 65.9c-.4.1-.8.4-1 .6V64h1v1.9zM171.8 66.5V106.8h-1.3V64h1.3zM171.7 62.4h-5.9s0-1.2-.1-2.9h5.2c.6 1.7.8 2.9.8 2.9zM171 59.5h-5.2c-.1-.9-.2-1.9-.4-2.9h4.5c.4 1.1.8 2.1 1.1 2.9zM170.5 106.8h-2.1V66.5c.2-.2.7-.6 1-.6h.1c.3 0 .8.4 1 .6V106.8z"/><path d="M170.5 64v2.5c-.2-.2-.7-.6-1-.6V64h1zM169.4 65.9c-.4.1-.8.4-1 .6V64h1v1.9zM168.4 66.5V106.8H167V64h1.4z"/><path d="M167 106.8h-2V66.5c.2-.2.7-.6 1-.6h.1c.3 0 .8.4 1 .6V106.8z"/><path d="M167 64v2.5c-.2-.2-.7-.6-1-.6V64h1zM166 65.9c-.4.1-.8.4-1 .6V64h1v1.9zM165.8 59.5c.2 1.7.1 2.9.1 2.9h-6.4s0-1.2.1-2.9h6.2zM165.8 59.5h-6.2c.1-.9.2-1.9.4-2.9h5.3c.3 1.1.4 2.1.5 2.9zM162.6 50.7h.2c1.4 1.7 2.1 3.9 2.5 5.9H160c.5-2 1.2-4.2 2.6-5.9zM165 66.5V106.8h-1.4V64h1.4zM163.6 106.8h-2.1V66.5c.2-.2.7-.6 1-.6h.1c.3 0 .8.4 1 .6V106.8z"/><path d="M163.6 64v2.5c-.2-.2-.7-.6-1-.6V64h1zM162.6 50.5h.2c3.5.8 5.7 3.5 7 6.2h-4.5c-.4-2-1.2-4.2-2.5-5.9h-.2v-.3zM162.6 50.5c-3.5.8-5.7 3.5-7 6.2h-3.5c2.2-3.8 6.1-6.2 10.5-6.2z"/><path d="M155.6 56.6c1.3-2.6 3.5-5.3 7-6.2v.2c-1.4 1.7-2.1 3.9-2.5 5.9h-4.5zM162.6 65.9c-.4.1-.8.4-1 .6V64h1v1.9zM161.5 66.5V106.8h-1.3V64h1.3zM160.2 106.8h-2.1V66.5c.2-.2.7-.6 1-.6h.1c.3 0 .8.4 1 .6V106.8z"/><path d="M160.2 64v2.5c-.2-.2-.7-.6-1-.6V64h1zM155.6 56.6h4.5c-.2 1-.4 2-.4 2.9h-5.2c.2-.8.5-1.8 1.1-2.9zM154.4 59.5h5.2c-.2 1.7-.1 2.9-.1 2.9h-5.9s.2-1.2.8-2.9zM159.1 65.9c-.4.1-.8.4-1 .6V64h1v1.9zM158.1 66.5V106.8h-1.3V64h1.3z"/><path d="M156.8 106.8h-2.1V66.5c.2-.2.7-.6 1-.6h.1c.3 0 .8.4 1 .6V106.8z"/><path d="M156.8 64v2.5c-.2-.2-.7-.6-1-.6V64h1zM155.7 65.9c-.4.1-.8.4-1 .6V64h1v1.9zM152.1 56.6h3.5c-.5 1-.9 2-1.2 2.9h-3.6c.3-1 .7-2 1.3-2.9zM154.7 66.5V106.8h-1.4V64h1.4zM150.8 59.5h3.6c-.5 1.7-.7 2.9-.7 2.9h-3.5c0-1 .3-1.9.6-2.9z"/><path d="M153.3 106.8h-2.1V66.5c.2-.2.7-.6 1-.6h.1c.3 0 .8.4 1 .6V106.8z"/><path d="M153.3 64v2.5c-.2-.2-.7-.6-1-.6V64h1zM152.3 65.9c-.4.1-.8.4-1 .6V64h1v1.9zM151.2 66.5V106.8h-1.1V64h1.1z"/></g><g fill="none" stroke="#000" stroke-width=".718" stroke-linecap="round" stroke-linejoin="round" stroke-miterlimit="10"><path d="M175.1 64c0-.5 0-1-.1-1.6-.1-1-.3-2-.6-2.9-.3-1-.8-2-1.3-2.9-2.2-3.6-6-6-10.3-6.1h-.2c-4.4 0-8.3 2.4-10.5 6.2-.5.9-1 1.9-1.3 2.9-.3.9-.5 1.9-.6 2.9-.1.5-.1 1-.1 1.6"/><path d="M162.6 50.5c-3.5.8-5.7 3.5-7 6.2-.5 1-.9 2-1.2 2.9-.5 1.7-.7 2.9-.7 2.9M171.7 62.4s-.2-1.2-.7-2.9c-.3-.9-.7-1.9-1.2-2.9-1.3-2.6-3.5-5.3-7-6.2 0 0 0 0 0 0M159.5 62.4s0-1.2.1-2.9c.1-.9.2-1.9.4-2.9.4-2 1.2-4.2 2.5-5.9M165.9 62.4s0-1.2-.1-2.9c-.1-.9-.2-1.9-.4-2.9-.4-2-1.2-4.2-2.5-5.9M175.1 64v42.8H150.1V64h23.8zM152.1 56.6H173M174.4 59.5h-23.6M171.8 64v42.6M173.9 64v42.6M172.9 64v1.9M172.9 66.8v39.8"/><path d="M171.8 66.5s0 0 0 0c.2-.2.7-.6 1-.6h.1c.3 0 .8.4 1 .6M168.4 64v42.6M170.5 64v42.6M169.4 64v1.9M169.4 66.8v39.8M168.4 66.5s0 0 0 0c.2-.2.7-.6 1-.6h.1c.3 0 .8.4 1 .6M165 64v42.6M167 64v42.6M166 64v1.9M166 66.8v39.8M165 66.5s0 0 0 0c.2-.2.7-.6 1-.6h.1c.3 0 .8.4 1 .6M158.1 64v42.6M160.2 64v42.6M159.1 64v1.9M159.1 66.8v39.8M158.1 66.5s0 0 0 0c.2-.2.7-.6 1-.6h.1c.3 0 .8.4 1 .6M154.7 64v42.6M156.8 64v42.6M155.7 64v1.9M155.7 66.8v39.8M154.7 66.5s0 0 0 0c.2-.2.7-.6 1-.6h.1c.3 0 .8.4 1 .6M151.2 64v42.6M153.3 64v42.6M152.3 64v1.9M152.3 66.8v39.8M151.2 66.5s0 0 0 0c.2-.2.7-.6 1-.6h.1c.3 0 .8.4 1 .6M161.5 64v42.6M163.6 64v42.6M162.6 64v1.9M162.6 66.8v39.8M161.5 66.5s0 0 0 0c.2-.2.7-.6 1-.6h.1c.3 0 .8.4 1 .6M150.1 62.4H175M162.6 48.6v2.2"/></g></g><g><path fill="#F0C223" d="M169.4 72V78.2h-16v-.1zM169.4 82.3v24.8h-48V82.3h48zm-4.4 21.6V100h-2.4V103.9h2.4zm0-7.2V92.8h-2.4V96.7h2.4zm0-7.1V85.7h-2.4V89.6h2.4zm-6.2 14.3V100h-2.4V103.9h2.4zm0-7.2V92.8h-2.4V96.7h2.4zm0-7.1V85.7h-2.4V89.6h2.4zm-6.3 14.3V100h-2.4V103.9h2.4zm0-7.2V92.8h-2.4V96.7h2.4zm0-7.1V85.7h-2.4V89.6h2.4zm-6.2 14.3V100h-2.4V103.9h2.4zm0-7.2V92.8h-2.4V96.7h2.4zm0-7.1V85.7h-2.4V89.6h2.4zm-6.2 14.3V100h-2.4V103.9h2.4zm0-7.2V92.8h-2.4V96.7h2.4zm0-7.1V85.7h-2.4V89.6h2.4zm-6.2 14.3V100h-2.4V103.9h2.4zm0-7.2V92.8h-2.4V96.7h2.4zm0-7.1V85.7h-2.4V89.6h2.4zm-6.3 14.3V100h-2.4V103.9h2.4zm0-7.2V92.8h-2.4V96.7h2.4zm0-7.1V85.7h-2.4V89.6h2.4zM121.4 80.2h48v2.1h-48z"/><path fill="#FFF" d="M169.4 78.2v2h-48v-2h32z"/><path fill="#F0C223" d="M162.6 95.5h2.4v1.2h-2.4zM162.6 92.8h2.4v2.7h-2.4zM162.6 88.4h2.4v1.2h-2.4zM162.6 85.7h2.4v2.7h-2.4zM156.3 95.5h2.4v1.2h-2.4zM156.3 92.8h2.4v2.7h-2.4zM156.3 88.4h2.4v1.2h-2.4zM156.3 85.7h2.4v2.7h-2.4zM153.4 78.2h-16v-.1l16-6.1v6.1zM150.1 95.5h2.4v1.2h-2.4zM150.1 92.8h2.4v2.7h-2.4zM150.1 88.4h2.4v1.2h-2.4zM150.1 85.7h2.4v2.7h-2.4zM143.9 95.5h2.4v1.2h-2.4zM143.9 92.8h2.4v2.7h-2.4zM143.9 88.4h2.4v1.2h-2.4zM143.9 85.7h2.4v2.7h-2.4zM137.7 102.7h2.4v1.2h-2.4zM137.7 100h2.4v2.7h-2.4zM137.7 95.5h2.4v1.2h-2.4zM137.7 92.8h2.4v2.7h-2.4zM137.7 88.4h2.4v1.2h-2.4zM137.7 85.7h2.4v2.7h-2.4zM137.4 78.1v.1h-16l16-6.2zM131.4 95.5h2.4v1.2h-2.4zM131.4 92.8h2.4v2.7h-2.4zM131.4 88.4h2.4v1.2h-2.4zM131.4 85.7h2.4v2.7h-2.4zM125.2 102.7h2.4v1.2h-2.4zM125.2 100h2.4v2.7h-2.4zM125.2 95.5h2.4v1.2h-2.4zM125.2 92.8h2.4v2.7h-2.4zM125.2 88.4h2.4v1.2h-2.4zM125.2 85.7h2.4v2.7h-2.4z"/><g fill="none" stroke="#000" stroke-width=".718" stroke-linecap="round" stroke-linejoin="round" stroke-miterlimit="10"><path d="M127.6 88.4v1.2h-2.4V85.7h2.4zM125.2 88.4h2.4M133.9 88.4v1.2h-2.5V85.7h2.5zM131.4 88.4h2.5M140.1 88.4v1.2h-2.4V85.7h2.4zM137.7 88.4h2.4M146.3 88.4v1.2h-2.4V85.7h2.4zM143.9 88.4h2.4M152.5 88.4v1.2h-2.4V85.7h2.4zM150.1 88.4h2.4M158.8 88.4v1.2h-2.5V85.7h2.5zM156.3 88.4h2.5M165 88.4v1.2h-2.4V85.7h2.4zM162.6 88.4h2.4M127.6 95.5v1.2h-2.4V92.8h2.4zM125.2 95.5h2.4M133.9 95.5v1.2h-2.5V92.8h2.5zM131.4 95.5h2.5M140.1 95.5v1.2h-2.4V92.8h2.4zM137.7 95.5h2.4M146.3 95.5v1.2h-2.4V92.8h2.4zM143.9 95.5h2.4M152.5 95.5v1.2h-2.4V92.8h2.4zM150.1 95.5h2.4M158.8 95.5v1.2h-2.5V92.8h2.5zM156.3 95.5h2.5M165 95.5v1.2h-2.4V92.8h2.4zM162.6 95.5h2.4M127.6 102.7v1.2h-2.4V100h2.4zM125.2 102.7h2.4M133.9 102.7v1.2h-2.5V100h2.5zM131.4 102.7h2.5M140.1 102.7v1.2h-2.4V100h2.4zM137.7 102.7h2.4M146.3 102.7v1.2h-2.4V100h2.4zM143.9 102.7h2.4M152.5 102.7v1.2h-2.4V100h2.4zM150.1 102.7h2.4M158.8 102.7v1.2h-2.5V100h2.5zM156.3 102.7h2.5M165 102.7v1.2h-2.4V100h2.4zM162.6 102.7h2.4"/><path d="M137.4 78.1h0V72l-16 6.2v28.9h48V78.2h-48"/><path d="M153.4 78.1h0V72l-16 6.1h-.1"/><path d="M169.4 78.1V72l-16 6.1h-.1M121.4 80.2h48M121.4 82.3h48"/></g></g><path fill="#FFF" d="M179.7 46.7h-1.4c-.2 0-.1.2-.1.4v52c0 .2-.1.3.1.3h15.4c.2 0-.3-.1-.3-.3v-52c0-.2.5-.4.3-.4h-2.5"/><g fill="none" stroke="#000" stroke-width=".718" stroke-linecap="round" stroke-linejoin="round" stroke-miterlimit="10"><path d="M178.2 46.9h15.4v52h-15.4z"/><path d="M180.5 39.2h10.9v7.7h-10.9zM181.7 31.8h8.4v7.4h-8.4zM183 29.5h5.8v2.2H183zM184.8 33.9v3.3M187.1 33.9v3.3M182.7 41.4v4M184.9 41.4v4M187 41.4v4M189.1 41.4v4"/><g><path d="M180.7 49.5v47.4M182.8 49.5v47.4M184.9 49.5v47.4M187 49.5v47.4M189 49.5v47.4M191.1 49.5v47.4"/></g></g><g><path fill="#F0C223" d="M199.7 99.8v19.4h-14.2V99.8h14.2zm-2 16.9v-2.9h-1.6v2.9h1.6zm0-5.5v-2.9h-1.6v2.9h1.6zm0-5.6v-2.9h-1.6v2.9h1.6zm-4.3 11.1v-2.9h-1.6v2.9h1.6zm0-5.5v-2.9h-1.6v2.9h1.6zm0-5.6v-2.9h-1.6v2.9h1.6zm-4.4 11.1v-2.9h-1.6v2.9h1.6zm0-5.5v-2.9h-1.6v2.9h1.6zm0-5.6v-2.9h-1.6v2.9h1.6z"/><path fill="#FFF" d="M185.5 97.4h14.2v2.4h-14.2zM191.8 113.9h1.6v2.9h-1.6zM191.8 108.3h1.6v2.9h-1.6zM191.8 102.8h1.6v2.9h-1.6zM187.4 113.9h1.6v2.9h-1.6zM187.4 108.3h1.6v2.9h-1.6zM187.4 102.8h1.6v2.9h-1.6z"/><path fill="#F0C223" d="M185.5 99.8v19.4h-14.2V99.8h14.2zm-2 16.9v-2.9h-1.6v2.9h1.6zm0-5.5v-2.9h-1.6v2.9h1.6zm0-5.6v-2.9h-1.6v2.9h1.6zm-4.4 11.1v-2.9h-1.6v2.9h1.6zm0-5.5v-2.9h-1.6v2.9h1.6zm0-5.6v-2.9h-1.6v2.9h1.6zm-4.3 11.1v-2.9h-1.6v2.9h1.6zm0-5.5v-2.9h-1.6v2.9h1.6zm0-5.6v-2.9h-1.6v2.9h1.6z"/><path fill="#FFF" d="M171.2 97.4h14.2v2.4h-14.2zM181.9 113.9h1.6v2.9h-1.6zM181.9 108.3h1.6v2.9h-1.6zM181.9 102.8h1.6v2.9h-1.6zM177.5 113.9h1.6v2.9h-1.6zM177.5 108.3h1.6v2.9h-1.6zM177.5 102.8h1.6v2.9h-1.6zM173.2 113.9h1.6v2.9h-1.6zM173.2 108.3h1.6v2.9h-1.6zM173.2 102.8h1.6v2.9h-1.6z"/><path fill="#F0C223" d="M171.2 99.8v19.4H156.9V99.8h14.3zm-2.1 16.9v-2.9h-1.6v2.9h1.6zm0-5.5v-2.9h-1.6v2.9h1.6zm0-5.6v-2.9h-1.6v2.9h1.6zm-4.3 11.1v-2.9h-1.6v2.9h1.6zm0-5.5v-2.9h-1.6v2.9h1.6zm0-5.6v-2.9h-1.6v2.9h1.6zm-4.3 11.1v-2.9h-1.6v2.9h1.6zm0-5.5v-2.9h-1.6v2.9h1.6zm0-5.6v-2.9h-1.6v2.9h1.6z"/><path fill="#FFF" d="M171.2 97.4v2.4H156.9v-2.4zM167.6 113.9h1.6v2.9h-1.6zM167.6 108.3h1.6v2.9h-1.6zM167.6 102.8h1.6v2.9h-1.6zM163.2 113.9h1.6v2.9h-1.6zM163.2 108.3h1.6v2.9h-1.6zM163.2 102.8h1.6v2.9h-1.6zM158.9 113.9h1.6v2.9h-1.6zM158.9 108.3h1.6v2.9h-1.6zM158.9 102.8h1.6v2.9h-1.6z"/><path fill="#F0C223" d="M156.9 99.8v19.4h-14.2V99.8h14.2zm-2 16.9v-2.9h-1.6v2.9h1.6zm0-5.5v-2.9h-1.6v2.9h1.6zm0-5.6v-2.9h-1.6v2.9h1.6zm-4.3 11.1v-2.9H149v2.9h1.6zm0-5.5v-2.9H149v2.9h1.6zm0-5.6v-2.9H149v2.9h1.6zm-4.3 11.1v-2.9h-1.6v2.9h1.6zm0-5.5v-2.9h-1.6v2.9h1.6zm0-5.6v-2.9h-1.6v2.9h1.6z"/><path fill="#FFF" d="M142.7 97.4h14.2v2.4h-14.2zM153.3 113.9h1.6v2.9h-1.6zM153.3 108.3h1.6v2.9h-1.6zM153.3 102.8h1.6v2.9h-1.6zM149 113.9h1.6v2.9H149zM149 108.3h1.6v2.9H149zM149 102.8h1.6v2.9H149zM144.7 113.9h1.6v2.9h-1.6zM144.7 108.3h1.6v2.9h-1.6zM144.7 102.8h1.6v2.9h-1.6z"/><g fill="none" stroke="#000" stroke-width=".718" stroke-linecap="round" stroke-linejoin="round" stroke-miterlimit="10"><path d="M142.7 120.5h57M156.9 121.9V97.4M144.7 108.3h1.6v2.9h-1.6zM149 108.3h1.6v2.9H149zM153.3 108.3h1.6v2.9h-1.6zM144.7 102.8h1.6v2.9h-1.6zM149 102.8h1.6v2.9H149zM153.3 102.8h1.6v2.9h-1.6zM144.7 113.9h1.6v2.9h-1.6zM149 113.9h1.6v2.9H149zM153.3 113.9h1.6v2.9h-1.6zM142.7 99.8h14.2M142.7 119.2h14.2M158.9 108.3h1.6v2.9h-1.6zM163.2 108.3h1.6v2.9h-1.6zM167.6 108.3h1.6v2.9h-1.6zM158.9 102.8h1.6v2.9h-1.6zM163.2 102.8h1.6v2.9h-1.6zM167.6 102.8h1.6v2.9h-1.6zM158.9 113.9h1.6v2.9h-1.6zM163.2 113.9h1.6v2.9h-1.6zM167.6 113.9h1.6v2.9h-1.6zM156.9 99.8h14.2M156.9 119.2h14.2M185.5 97.4V121.9M171.2 121.9V97.4M173.2 108.3h1.6v2.9h-1.6zM177.5 108.3h1.6v2.9h-1.6zM181.9 108.3h1.6v2.9h-1.6zM173.2 102.8h1.6v2.9h-1.6zM177.5 102.8h1.6v2.9h-1.6zM181.9 102.8h1.6v2.9h-1.6zM173.2 113.9h1.6v2.9h-1.6zM177.5 113.9h1.6v2.9h-1.6zM181.9 113.9h1.6v2.9h-1.6zM171.2 99.8h14.3M171.2 119.2h14.3"/><path d="M185.5 97.4h14.2V121.9h-57V97.4h28.5z"/><path d="M187.4 108.3h1.6v2.9h-1.6zM191.8 108.3h1.6v2.9h-1.6zM196.1 108.3h1.6v2.9h-1.6zM187.4 102.8h1.6v2.9h-1.6zM191.8 102.8h1.6v2.9h-1.6zM196.1 102.8h1.6v2.9h-1.6zM187.4 113.9h1.6v2.9h-1.6zM191.8 113.9h1.6v2.9h-1.6zM196.1 113.9h1.6v2.9h-1.6zM185.5 99.8h14.2M185.5 119.2h14.2"/></g></g><g><g fill="#FFF"><path d="M212.4 39.6c0 1.6 1.5 1.9 1.5 1.9s-1.5.3-1.5 1.9c0-1.5-1.4-1.8-1.5-1.9 0-.1 1.4-.4 1.5-1.9zM200.8 24.2c0 1.6 1.5 1.9 1.5 1.9s-1.5.3-1.5 1.9c0-1.6-1.5-1.9-1.5-1.9s1.4-.3 1.5-1.9zM164 36.9c0 1.6 1.5 1.9 1.5 1.9s-1.5.2-1.5 1.8c0-1.5-1.4-1.8-1.5-1.9 0 0 1.4-.3 1.5-1.8zM135.6 22.4c0 1.6 1.5 1.9 1.5 1.9s-1.5.3-1.5 1.9c0-1.5-1.4-1.8-1.5-1.9.1-.1 1.5-.4 1.5-1.9zM107.3 35c0 1.6 1.5 1.9 1.5 1.9s-1.5.3-1.5 1.9c0-1.6-1.5-1.9-1.5-1.9s1.4-.3 1.5-1.9zM81.9 16.9c0 1.6 1.5 1.9 1.5 1.9s-1.4.2-1.5 1.8c0-1.6-1.5-1.9-1.5-1.9s1.5-.2 1.5-1.8zM76.9 51.7c0 1.6 1.5 1.9 1.5 1.9s-1.5.3-1.5 1.9c0-1.6-1.5-1.9-1.5-1.9s1.4-.3 1.5-1.9zM64.1 38.4c0 1.6 1.5 1.9 1.5 1.9s-1.5.3-1.5 1.9c0-1.6-1.5-1.9-1.5-1.9s1.5-.3 1.5-1.9z"/></g><g fill="none" stroke="#040505" stroke-miterlimit="10"><path stroke-width=".605" d="M210.9 41.4s0 0 0 0c.1 0 1.5-.3 1.5-1.9M213.9 41.4s-1.5-.3-1.5-1.9c0 0 0 0 0 0M213.9 41.4s-1.5.3-1.5 1.9M210.9 41.4s0 0 0 0c.1 0 1.5.3 1.5 1.9"/><path stroke-width=".718" stroke-linecap="round" stroke-linejoin="round" d="M199.3 26.1s1.5-.3 1.5-1.9M202.3 26.1s-1.5-.3-1.5-1.9M202.3 26.1s-1.5.3-1.5 1.9M199.3 26.1s1.5.3 1.5 1.9M162.5 38.7s0 0 0 0c.1 0 1.5-.3 1.5-1.9M165.5 38.7s-1.5-.3-1.5-1.9M165.5 38.7s-1.5.3-1.5 1.9M162.5 38.7s0 0 0 0c.1 0 1.5.3 1.5 1.9M105.8 36.9s1.5-.3 1.5-1.9M108.8 36.9s-1.5-.3-1.5-1.9M108.8 36.9s-1.5.3-1.5 1.9M105.8 36.9s1.5.3 1.5 1.9M80.4 18.8s1.5-.3 1.5-1.9M83.4 18.8s-1.5-.3-1.5-1.9v0M83.4 18.8s-1.5.3-1.5 1.9M80.4 18.8s1.5.3 1.5 1.9M75.4 53.6s1.5-.3 1.5-1.9M78.4 53.6s-1.5-.3-1.5-1.9M78.4 53.6s-1.5.3-1.5 1.9M75.4 53.6s1.5.3 1.5 1.9M62.6 40.3s1.5-.3 1.5-1.9M65.6 40.3s-1.5-.3-1.5-1.9M65.6 40.3s-1.5.3-1.5 1.9M62.6 40.3s1.5.3 1.5 1.9M134.1 24.2s0 0 0 0c.1 0 1.5-.3 1.5-1.9M137.1 24.2s-1.5-.3-1.5-1.9v0M137.1 24.2s-1.5.3-1.5 1.9M134.1 24.2s0 0 0 0c.1 0 1.5.3 1.5 1.9"/></g></g><g><path fill="#FFF" stroke="#000" stroke-width=".718" stroke-linecap="round" stroke-linejoin="round" stroke-miterlimit="10" d="M219.6 58.5c2.3 0 1.9 14 1.9 14h-3.7s-.3-14 1.9-14M206 82.4c-1.2-2 11-8.8 11-8.8l1.9 3.2s-11.8 7.4-13 5.5M233.3 82.4c1.2-2-11-8.8-11-8.8l-1.9 3.2s11.8 7.4 13 5.5"/><circle fill="#FFF" stroke="#000" stroke-width=".718" stroke-linecap="round" stroke-linejoin="round" stroke-miterlimit="10" cx="219.6" cy="74.3" r="2.7"/><path fill="#FFF" stroke="#000" stroke-width=".718" stroke-linecap="round" stroke-linejoin="round" stroke-miterlimit="10" d="M220.9 77.1l1.3 19.6h-2.6 0-2.7l1.4-19.6"/></g><g><path fill="#FFF" stroke="#000" stroke-width=".718" stroke-linecap="round" stroke-linejoin="round" stroke-miterlimit="10" d="M234 72.9c2.3 0 1.9 14 1.9 14h-3.7s-.3-14 1.9-14M220.5 96.8c-1.2-2 11-8.8 11-8.8l1.9 3.2s-11.8 7.4-13 5.5M247.8 96.8c1.2-2-11-8.8-11-8.8l-1.9 3.2s11.8 7.4 13 5.5"/><circle fill="#FFF" stroke="#000" stroke-width=".718" stroke-linecap="round" stroke-linejoin="round" stroke-miterlimit="10" cx="234.1" cy="88.8" r="2.7"/><path fill="#FFF" stroke="#000" stroke-width=".718" stroke-linecap="round" stroke-linejoin="round" stroke-miterlimit="10" d="M235.4 91.5l1.3 19.7H231.4l1.4-19.7"/></g><g><path fill="#FFF" stroke="#000" stroke-width=".718" stroke-linecap="round" stroke-linejoin="round" stroke-miterlimit="10" d="M65.5 57.9c2.3 0 1.9 14 1.9 14h-3.7s-.3-14 1.9-14M51.9 81.8c-1.2-2 11-8.8 11-8.8l1.9 3.2s-11.8 7.4-13 5.5M79.3 81.8c1.2-2-11-8.8-11-8.8l-1.9 3.2s11.8 7.4 13 5.5"/><circle fill="#FFF" stroke="#000" stroke-width=".718" stroke-linecap="round" stroke-linejoin="round" stroke-miterlimit="10" cx="65.6" cy="73.7" r="2.7"/><path fill="#FFF" stroke="#000" stroke-width=".718" stroke-linecap="round" stroke-linejoin="round" stroke-miterlimit="10" d="M66.8 76.5l1.4 19.6H62.9l1.4-19.6"/></g><g><g fill="#FFF"><path d="M134.7 114.9v1.1h2.6v-3.7h-2.6v2.6zm6 11.3h-15.2V106l7.7-9.2 7.6 9.3v20.1zm-6.7 0h4.1V118.9H134V126.2zm.7-17.8v1.1h2.6v-3.7h-2.6v2.6zm-3 14.2v-3.7h-2.6v3.7h2.6zm0-6.6v-3.7h-2.6v3.7h2.6zm0-6.4v-3.7h-2.6v3.7h2.6z"/><path d="M134 118.9h4.1v5.9H134zM134.7 114.9h2.6v1.1h-2.6zM134.7 112.3h2.6v2.6h-2.6zM134.7 108.4h2.6v1.1h-2.6zM134.7 105.8h2.6v2.6h-2.6zM131.7 118.9v2.6h-2.6v-2.6zM131.7 114.9v1.1h-2.6v-1.1h2.6zM131.7 112.3v2.6h-2.6v-2.6zM131.7 108.4v1.2h-2.6v-1.2h2.6zM131.7 105.8v2.6h-2.6v-2.6zM118.8 118.9h4.1v5.9h-4.1zM119.5 114.9h2.6v1.1h-2.6zM119.5 112.3h2.6v2.6h-2.6zM119.5 108.4h2.6v1.1h-2.6zM119.5 105.8h2.6v2.6h-2.6zM113.9 121.5h2.6v1.1h-2.6zM113.9 118.9h2.6v2.6h-2.6zM113.9 114.9h2.6v1.1h-2.6zM113.9 112.3h2.6v2.6h-2.6zM113.9 108.4h2.6v1.1h-2.6zM113.9 105.8h2.6v2.6h-2.6z"/><path d="M110.3 106l7.7-9.2 7.6 9.3v20.2h-15.2V107l-.1-1zm8.5 20.2h4.1V118.9h-4.1V126.2zm3.3-10.2v-3.7h-2.6v3.7h2.6zm0-6.4v-3.7h-2.6v3.7h2.6zm-5.7 13v-3.7h-2.6v3.7h2.6zm0-6.6v-3.7h-2.6v3.7h2.6zm0-6.4v-3.7h-2.6v3.7h2.6zM110.2 126.2H95V106l7.7-9.2 7.5 9.2v20.2zm-6.7 0h4.1V118.9h-4.1V126.2zm3.3-10.2v-3.7h-2.6v3.7h2.6zm0-6.4v-3.7h-2.6v3.7h2.6zm-5.6 13v-3.7h-2.6v3.7h2.6zm0-6.6v-3.7h-2.6v3.7h2.6zm0-6.4v-3.7h-2.6v3.7h2.6z"/><path d="M103.5 118.9h4.1v5.9h-4.1zM104.2 114.9h2.6v1.1h-2.6zM104.2 112.3h2.6v2.6h-2.6zM104.2 108.4h2.6v1.1h-2.6zM104.2 105.8h2.6v2.6h-2.6zM98.6 118.9h2.6v2.6h-2.6zM98.6 114.9h2.6v1.1h-2.6zM98.6 112.3h2.6v2.6h-2.6zM98.6 108.4h2.6v1.1h-2.6zM98.6 105.8h2.6v2.6h-2.6z"/></g><g fill="none" stroke="#000" stroke-width=".718" stroke-linecap="round" stroke-linejoin="round" stroke-miterlimit="10"><path d="M125.5 106h0l7.7-9.2 7.5 9.2v20.2h-15.2V107z"/><path d="M131.7 108.4v1.2h-2.6v-3.8h2.6zM129.1 108.4h2.6M137.3 108.4v1.2h-2.6v-3.8h2.6zM134.7 108.4h2.6M131.7 114.9v1.1h-2.6v-3.7h2.6zM129.1 114.9h2.6M131.7 121.5v1.1h-2.6v-3.7h2.6zM129.1 121.5h2.6M137.3 114.9v1.1h-2.6v-3.7h2.6zM134.7 114.9h2.6M138.1 124.8v-5.9H134v5.9M134 124.8h4.1v1.4H134zM125.5 126.2h-15.2M110.3 106l7.6-9.2 7.6 9.2"/><path d="M116.4 108.4v1.2h-2.5v-3.8h2.5zM113.9 108.4h2.5M122.1 108.4v1.2h-2.6v-3.8h2.6zM119.5 108.4h2.6M116.4 114.9v1.1h-2.5v-3.7h2.5zM113.9 114.9h2.5M116.4 121.5v1.1h-2.5v-3.7h2.5zM113.9 121.5h2.5M122.1 114.9v1.1h-2.6v-3.7h2.6zM119.5 114.9h2.6M122.9 124.8v-5.9h-4.1v5.9M118.8 124.8h4.1v1.4h-4.1zM110.2 106h.1l-.1 1v19.2H95V106l7.7-9.2z"/><path d="M101.2 108.4v1.2h-2.6v-3.8h2.6zM98.6 108.4h2.6M106.8 108.4v1.2h-2.6v-3.8h2.6zM104.2 108.4h2.6M101.2 114.9v1.1h-2.6v-3.7h2.6zM98.6 114.9h2.6M101.2 121.5v1.1h-2.6v-3.7h2.6zM98.6 121.5h2.6M106.8 114.9v1.1h-2.6v-3.7h2.6zM104.2 114.9h2.6M107.6 124.8v-5.9h-4.1v5.9M103.5 124.8h4.1v1.4h-4.1z"/></g></g><g><path fill="#F0C223" d="M65.3 124.7h12.4v1.2H65.3zM77.7 102.3v22.4H65.3V102.3l6.3-7.5 6.1 7.5zm-2.6 19v-3.2h-2.2v3.2h2.2zm0-5.4v-3.2h-2.2v3.2h2.2zm0-5.4v-3.2h-2.2v3.2h2.2zm0-5.4v-3.2h-2.2v3.2h2.2zm-4.9 16.2v-3.2H68v3.2h2.2zm0-5.4v-3.2H68v3.2h2.2zm0-5.4v-3.2H68v3.2h2.2zm0-5.4v-3.2H68v3.2h2.2z"/><path fill="#F0C223" d="M72.8 118.1H75v3.2h-2.2zM72.8 112.7H75v3.2h-2.2z"/><path fill="#FFF" d="M72.8 107.3H75v3.2h-2.2zM72.8 101.9H75v3.2h-2.2z"/><path fill="#F0C223" d="M68 118.1h2.2v3.2H68zM68 112.7h2.2v3.2H68zM68 107.3h2.2v3.2H68zM68 101.9h2.2v3.2H68z"/><g fill="none" stroke="#000" stroke-width=".718" stroke-linecap="round" stroke-linejoin="round" stroke-miterlimit="10"><path d="M77.7 124.7h.2M65.1 124.7h.2M77.7 124.7v1.2H65.3v-23.6l6.3-7.5 6.1 7.5z"/><path d="M68 107.3h2.2v3.2H68zM72.8 107.3H75v3.2h-2.2zM68 101.9h2.2v3.2H68zM72.8 101.9H75v3.2h-2.2zM68 118.1h2.2v3.2H68zM72.8 118.1H75v3.2h-2.2zM68 112.7h2.2v3.2H68zM72.8 112.7H75v3.2h-2.2z"/></g></g><g><path fill="#F0C223" d="M92.8 102.3v22.4H80.4V102.3l6.3-7.5 6.1 7.5zm-2.6 19v-3.2H88v3.2h2.2zm0-5.4v-3.2H88v3.2h2.2zm0-5.4v-3.2H88v3.2h2.2zm0-5.4v-3.2H88v3.2h2.2zm-4.9 16.2v-3.2h-2.2v3.2h2.2zm0-5.4v-3.2h-2.2v3.2h2.2zm0-5.4v-3.2h-2.2v3.2h2.2zm0-5.4v-3.2h-2.2v3.2h2.2z"/><path fill="#FFF" d="M87.9 118.1h2.2v3.2h-2.2zM87.9 112.7h2.2v3.2h-2.2zM87.9 107.3h2.2v3.2h-2.2zM87.9 101.9h2.2v3.2h-2.2zM83.1 118.1h2.2v3.2h-2.2zM83.1 112.7h2.2v3.2h-2.2zM83.1 107.3h2.2v3.2h-2.2zM83.1 101.9h2.2v3.2h-2.2z"/><g fill="none" stroke="#000" stroke-width=".718" stroke-linecap="round" stroke-linejoin="round" stroke-miterlimit="10"><path d="M80.2 124.7H93M92.8 124.7v1.2H80.4v-23.6l6.3-7.5 6.1 7.5z"/><path d="M83.1 107.3h2.2v3.2h-2.2zM87.9 107.3h2.2v3.2h-2.2zM83.1 101.9h2.2v3.2h-2.2zM87.9 101.9h2.2v3.2h-2.2zM83.1 118.1h2.2v3.2h-2.2zM87.9 118.1h2.2v3.2h-2.2zM83.1 112.7h2.2v3.2h-2.2zM87.9 112.7h2.2v3.2h-2.2z"/></g></g><path fill="#F0C223" d="M124.2 145.9c.1-1.2.1-2.4 0-3.6-.8-13.1-11.6-23.2-24.2-22.5-4.6.3-8.7 1.9-12.1 4.5-2.7-6.1-7.8-10.8-13.9-12.8v-.3c-.9-16.1-14.8-28.4-30.9-27.5-16.1 1-28.4 14.8-27.5 31 .9 15.9 14.3 28 30.1 27.5.4 1.2.9 2.4 1.5 3.5"/><path fill="none" stroke="#000" stroke-width=".718" stroke-linecap="round" stroke-linejoin="round" stroke-miterlimit="10" d="M124.3 142.3c-.8-13.1-11.6-23.2-24.2-22.5-4.6.3-8.7 1.9-12.1 4.5-2.7-6.1-7.8-10.8-13.9-12.8v-.3c-.9-16.1-14.8-28.4-30.9-27.5-4.5.3-8.8 1.6-12.5 3.6"/><path fill="#F0C223" d="M237.5 126c3.4-6 3.7-12.9 1.4-19-1.9-5.1-5.6-9.6-10.8-12.6-11.4-6.5-25.8-2.9-32 8.1-2.3 4-3.1 8.4-2.8 12.7-6.6-1-13.3.7-18.3 4.7-.1-.1-.2-.1-.3-.2-14-8-31.9-3.1-39.9 11"/><path fill="none" stroke="#000" stroke-width=".718" stroke-linecap="round" stroke-linejoin="round" stroke-miterlimit="10" d="M134.7 130.6c8-14 25.8-19 39.9-11 .1.1.2.1.3.2 5-4 11.7-5.8 18.3-4.7-.3-4.3.5-8.7 2.8-12.7 6.2-11 20.6-14.6 32-8.1 0 0 8.4 4.6 10.8 12.6"/><path fill="#F0C223" stroke="#000" stroke-width=".718" stroke-linecap="round" stroke-linejoin="round" stroke-miterlimit="10" d="M95.1 143.9s3.1-13.9 15.1-8.9c0-10.6 20.3-24.2 31.7-4.1 0 0 11.5-4.3 11.5 6.8 0 0 3.1-.3 4 3.8"/><path fill="#F0C223" d="M214.5 145.2c3.8-6.7 1.2-15.5-5.8-19.5s-15.9-1.8-19.7 5c-1.4 2.4-1.9 5.1-1.7 7.8-4.1-.6-8.2.4-11.3 2.9-.1 0-.1-.1-.2-.1"/><path fill="none" stroke="#000" stroke-width=".718" stroke-linecap="round" stroke-linejoin="round" stroke-miterlimit="10" d="M208.6 125.8c-7-4-15.9-1.8-19.7 5-1.4 2.4-1.9 5.1-1.7 7.8-4.1-.6-8.2.4-11.3 2.9-.1 0-.1-.1-.2-.1-5.9-3.4-12.9-3-18.4.3"/><g fill="none" stroke="#000" stroke-width=".718" stroke-linecap="round" stroke-linejoin="round" stroke-miterlimit="10"><path d="M44.4 40.1h5.5M51.2 40.1h3.5M56 40.1h2.2M59.4 40.1h1.4"/></g><g fill="none" stroke="#000" stroke-width=".718" stroke-linecap="round" stroke-linejoin="round" stroke-miterlimit="10"><path d="M155.7 24.2h-5.5M148.9 24.2h-3.5M144.1 24.2h-2.2M140.6 24.2h-1.3"/></g><g fill="none" stroke="#000" stroke-width=".718" stroke-linecap="round" stroke-linejoin="round" stroke-miterlimit="10"><path d="M232.6 41.4h-5.4M225.9 41.4h-3.6M221 41.4h-2.2M217.6 41.4h-1.4"/></g><g fill="none" stroke="#000" stroke-width=".722" stroke-linecap="round" stroke-linejoin="round" stroke-miterlimit="10"><path d="M103.3 18.2v2.1M103.3 23.9v2.2M107.3 22.1h-2.1M101.5 22.1h-2.1M106.2 24.9l-1.6-1.5M102.1 20.8l-1.6-1.5M100.5 24.9l1.6-1.5M104.6 20.8l1.6-1.5"/></g><g fill="none" stroke="#000" stroke-width=".722" stroke-linecap="round" stroke-linejoin="round" stroke-miterlimit="10"><path d="M28.9 52.2v2.1M28.9 57.9v2.2M32.8 56.1h-2.1M27.1 56.1h-2.2M31.7 58.9l-1.6-1.5M27.6 54.8l-1.5-1.5M26.1 58.9l1.5-1.5M30.1 54.8l1.6-1.5"/></g><g fill="none" stroke="#000" stroke-width=".722" stroke-linecap="round" stroke-linejoin="round" stroke-miterlimit="10"><path d="M249.7 40.6v2.2M249.7 46.4v2.1M253.6 44.6h-2.1M247.9 44.6h-2.2M252.5 47.4l-1.6-1.5M248.4 43.3l-1.5-1.5M246.9 47.4l1.5-1.5M250.9 43.3l1.6-1.5"/></g></g></svg>