<svg xmlns="http://www.w3.org/2000/svg" width="1173.3" height="169.4" viewBox="0 0 1173.3 169.4"><g fill="none" stroke="#231F20" stroke-width="1.481" stroke-miterlimit="10"><path d="M98.6 98.8h14.8v69.9H98.6zM101.6 84.4h8.8v14.2h-8.8zM103 83.8V70.5h1.4v-4.2h1.5v-3.9M109 83.8V70.5h-1.4v-4.2H106v-3.9M103 75h6M99.4 98.7v-5.1M112.6 98.7v-5.1M98.6 140.4h14.8M98.6 145h14.8"/><path d="M104.4 98.7v-9.6h3.1v9.6M106 84.4v-6.2M.7 98.8h14.8v69.9H.7zM3.8 84.4h8.8v14.2H3.8zM5.1 83.8V70.5h1.5v-4.2h1.5v-3.9M11.2 83.8V70.5H9.8v-4.2H8.2v-3.9M5.1 75h6.1M1.6 98.7v-5.1M14.7 98.7v-5.1M.7 140.4h14.9M.7 145h14.9"/><path d="M6.6 98.7v-9.6h3.1v9.6M8.2 84.4v-6.2M15.6 168.7h83M15.6 104.4h82.9v7.4H15.6z"/><path d="M31 111.8h5.6v56.9H31zM46.5 111.8h5.6v56.9h-5.6zM62.1 111.8h5.6v56.9h-5.6zM77.7 111.8h5.6v56.9h-5.6zM30.6 104.4h53L57.1 92.3zM15.6 129.1H31M83.4 129.1h15.4M15.6 157.3H31M83.4 157.3h15.4"/><g><path d="M84.5 93.1h6.9v11.2h-6.9zM85.6 92.6V82.1h1.1v-3.4h1.2v-3.1M90.4 92.6V82.1h-1.1v-3.4H88v-3.1M85.6 85.6h4.8M88 93.1v-5M22.8 93.1h6.9v11.2h-6.9zM23.9 92.6V82.1H25v-3.4h1.2v-3.1M28.6 92.6V82.1h-1.1v-3.4h-1.2v-3.1M23.9 85.6h4.7M26.2 93.1v-5"/></g></g><g fill="none" stroke="#231F20" stroke-width="1.481" stroke-miterlimit="10"><path d="M344.3 125.7h77.3M421.9 130.8c0-24.4-17.4-44.2-38.9-44.2s-38.9 19.8-38.9 44.2h77.8zM382.9 86.6c-23 5.7-27.8 39.2-27.8 39.2M411.4 125.7s-4.9-33.5-27.8-39.2M373.3 125.7s-1-24.5 9.6-38.5M393.2 125.7s1-24.5-9.6-38.5M344 130.8h77.8v28.3H344z"/><path d="M344 159.1h77.8v4.8H344zM344 163.9h77.8v4.8H344zM350.3 106.8h65.1M419.7 116.3h-73.5M411.6 130.8v28.3M418.1 130.8v28.3M414.9 130.8v6.3M414.9 140.2v18.9M411.6 139.2c.6-.7 2.1-1.9 3-1.9h.4c.9 0 2.4 1.2 3 1.9"/><g><path d="M401 130.8v28.3M407.5 130.8v28.3M404.2 130.8v6.3M404.2 140.2v18.9M401 139.2c.6-.7 2.1-1.9 3-1.9h.4c.9 0 2.4 1.2 3 1.9"/></g><g><path d="M390.3 130.8v28.3M396.8 130.8v28.3M393.6 130.8v6.3M393.6 140.2v18.9M390.3 139.2c.6-.7 2.1-1.9 3-1.9h.4c.9 0 2.4 1.2 3 1.9"/></g><g><path d="M369 130.8v28.3M375.5 130.8v28.3M372.3 130.8v6.3M372.3 140.2v18.9M369 139.2c.6-.7 2-1.9 3-1.9h.4c.9 0 2.4 1.2 3 1.9"/></g><g><path d="M358.4 130.8v28.3M364.9 130.8v28.3M361.6 130.8v6.3M361.6 140.2v18.9M358.3 139.2c.6-.7 2.1-1.9 3-1.9h.4c.9 0 2.4 1.2 3 1.9"/></g><g><path d="M347.7 130.8v28.3M354.2 130.8v28.3M351 130.8v6.3M351 140.2v18.9M347.7 139.2c.6-.7 2-1.9 3-1.9h.4c.9 0 2.4 1.2 3 1.9"/></g><g><path d="M379.7 130.8v28.3M386.2 130.8v28.3M382.9 130.8v6.3M382.9 140.2v18.9M379.7 139.2c.6-.7 2.1-1.9 3-1.9h.4c.9 0 2.4 1.2 3 1.9"/></g><path d="M382.8 79.3v7.2"/></g><path fill="none" stroke="#231F20" stroke-width="1.481" stroke-miterlimit="10" d="M507.9 133.5h35.7v18.2H443.1v-18.2h35.8M448.4 133.4v-12.7h31M506.5 120.7h31.7v12.7"/><path fill="none" stroke="#231F20" stroke-width="1.481" stroke-miterlimit="10" d="M505.1 92.2l3.5 59.5H478l3.5-59.5z"/><g fill="none" stroke="#231F20" stroke-width="1.481" stroke-miterlimit="10"><path d="M480.8 89.8V78.2h2.3v-4.9h10.4"/><path d="M505.8 89.8V78.2h-2.2v-4.9h-10.5"/></g><path fill="none" stroke="#231F20" stroke-width="1.481" stroke-miterlimit="10" d="M479.8 89.8h27.1v2.5h-27.1zM486.8 77.2h13v12.6h-13zM487.9 66.3h10.8v7.1h-10.8z"/><g fill="none" stroke="#231F20" stroke-width="1.481" stroke-miterlimit="10"><path d="M497.3 83.6c0 2.2-1.8 4-4 4s-4-1.8-4-4 1.8-4 4-4 4 1.8 4 4z"/><path d="M493.3 81.5v2.1h2"/></g><path fill="none" stroke="#231F20" stroke-width="1.481" stroke-miterlimit="10" d="M438.6 151.7h109.5v4.1H438.6zM438.6 156h109.5v4.1H438.6zM438.6 160.3h109.5v4.1H438.6zM438.6 164.6h109.5v4.1H438.6z"/><g fill="none" stroke="#231F20" stroke-width="1.481" stroke-miterlimit="10"><path d="M486.5 98.6h2.4v23.3h-2.4zM492.1 98.6h2.4v23.3h-2.4zM497.7 98.6h2.4v23.3h-2.4z"/></g><path fill="none" stroke="#231F20" stroke-width="1.481" stroke-miterlimit="10" d="M448.4 125.5h31.2M506.9 125.5h31.2"/><g fill="none" stroke="#231F20" stroke-width="1.481" stroke-miterlimit="10"><path d="M448.8 137.8h3.8v9.9h-3.8zM458.8 137.8h3.8v9.9h-3.8zM468.9 137.8h3.8v9.9h-3.8z"/></g><g fill="none" stroke="#231F20" stroke-width="1.481" stroke-miterlimit="10"><path d="M514.2 137.8h3.8v9.9h-3.8zM524.3 137.8h3.8v9.9h-3.8zM534.3 137.8h3.8v9.9h-3.8z"/></g><g fill="none" stroke="#231F20" stroke-width="1.481" stroke-miterlimit="10"><path d="M454.2 127.9h3.2v3.2h-3.2zM462 127.9h3.2v3.2H462zM469.9 127.9h3.2v3.2h-3.2z"/></g><g fill="none" stroke="#231F20" stroke-width="1.481" stroke-miterlimit="10"><path d="M513.1 127.9h3.2v3.2h-3.2zM520.9 127.9h3.2v3.2h-3.2zM528.8 127.9h3.2v3.2h-3.2z"/></g><g fill="none" stroke="#231F20" stroke-width="1.481" stroke-miterlimit="10"><path d="M480 117h-10.8M466.6 117h-6.9M457.1 117h-4.3M450.3 117h-2.7"/></g><g fill="none" stroke="#231F20" stroke-width="1.481" stroke-miterlimit="10"><path d="M506.6 117h10.7M519.9 117h7M529.5 117h4.2M536.2 117h2.7"/></g><g fill="none" stroke="#231F20" stroke-width="1.481" stroke-miterlimit="10"><path d="M833.8 86.5h30.8v82.2h-30.8zM838.3 71.1h21.8v15.4h-21.8z"/><path d="M840.8 56.2h16.7v14.9h-16.7zM843.4 51.7h11.5v4.5h-11.5zM846.9 60.4v6.7M851.5 60.4v6.7M842.8 75.5v7.9M847.1 75.5v7.9M851.3 75.5v7.9M855.5 75.5v7.9"/><g><path d="M838.7 91.6v73.1M843 91.6v73.1M847.2 91.6v73.1M851.4 91.6v73.1M855.4 91.6v73.1M859.6 91.6v73.1"/></g></g><g fill="none" stroke="#231F20" stroke-width="1.481" stroke-miterlimit="10"><path d="M644.8 117.1H736v48.3h-91.2z"/><path d="M651.6 165.2v-21.7c0-5.8 3.6-10.4 8-10.4s8 4.7 8 10.4v21.7M672.2 165.2v-21.7c0-5.8 3.6-10.4 8-10.4s8 4.7 8 10.4v21.7M692.9 165.2v-21.7c0-5.8 3.6-10.4 8-10.4s8 4.7 8 10.4v21.7M713.6 165.2v-21.7c0-5.8 3.5-10.4 7.9-10.4s8 4.7 8 10.4v21.7M644.8 127.1H736M644.8 124.5H736M563.9 139.7h80.9v25.6h-80.9zM563.9 142.3h80.9M569 142.7v22.6M575.5 142.7v22.6M572.3 142.7v5M572.3 150.2v15.1"/><path d="M569 149.4c.6-.6 2.1-1.5 3-1.5h.4c.9 0 2.4.9 3 1.5M579.7 142.7v22.6M586.2 142.7v22.6M583 142.7v5M583 150.2v15.1M579.7 149.4c.6-.6 2.1-1.5 3-1.5h.4c.9 0 2.4.9 3 1.5"/><g><path d="M590.4 142.7v22.6M596.9 142.7v22.6M593.7 142.7v5M593.7 150.2v15.1M590.4 149.4c.6-.6 2.1-1.5 3-1.5h.4c.9 0 2.4.9 3 1.5"/></g><g><path d="M601.2 142.7v22.6M607.6 142.7v22.6M604.4 142.7v5M604.4 150.2v15.1M601.1 149.4c.6-.6 2.1-1.5 3-1.5h.4c.9 0 2.4.9 3 1.5"/></g><g><path d="M611.8 142.7v22.6M618.3 142.7v22.6M615.1 142.7v5M615.1 150.2v15.1M611.8 149.4c.6-.6 2.1-1.5 3-1.5h.4c.9 0 2.4.9 3 1.5"/></g><g><path d="M622.6 142.7v22.6M629 142.7v22.6M625.8 142.7v5M625.8 150.2v15.1M622.6 149.4c.6-.6 2-1.5 3-1.5h.4c.9 0 2.4.9 3 1.5"/></g><g><path d="M633.3 142.7v22.6M639.7 142.7v22.6M636.5 142.7v5M636.5 150.2v15.1M633.2 149.4c.6-.6 2.1-1.5 3-1.5h.4c.9 0 2.4.9 3 1.5"/></g><g><path d="M736 139.7h80.9v25.6H736zM816.9 142.3H736M811.8 142.7v22.6M805.3 142.7v22.6M808.5 142.7v5M808.5 150.2v15.1"/><path d="M811.8 149.4c-.6-.6-2-1.5-3-1.5h-.4c-.9 0-2.4.9-3 1.5M801.1 142.7v22.6M794.6 142.7v22.6M797.8 142.7v5M797.8 150.2v15.1M801.1 149.4c-.6-.6-2.1-1.5-3-1.5h-.4c-.9 0-2.4.9-3 1.5"/><g><path d="M790.4 142.7v22.6M783.9 142.7v22.6M787.1 142.7v5M787.1 150.2v15.1M790.4 149.4c-.6-.6-2.1-1.5-3-1.5h-.4c-.9 0-2.4.9-3 1.5"/></g><g><path d="M779.6 142.7v22.6M773.2 142.7v22.6M776.4 142.7v5M776.4 150.2v15.1M779.7 149.4c-.6-.6-2-1.5-3-1.5h-.4c-.9 0-2.4.9-3 1.5"/></g><g><path d="M768.9 142.7v22.6M762.5 142.7v22.6M765.7 142.7v5M765.7 150.2v15.1M769 149.4c-.6-.6-2.1-1.5-3-1.5h-.4c-.9 0-2.4.9-3 1.5"/></g><g><path d="M758.2 142.7v22.6M751.8 142.7v22.6M755 142.7v5M755 150.2v15.1M758.3 149.4c-.6-.6-2.1-1.5-3-1.5h-.4c-.9 0-2.4.9-3 1.5"/></g><g><path d="M747.5 142.7v22.6M741.1 142.7v22.6M744.3 142.7v5M744.3 150.2v15.1M747.5 149.4c-.6-.6-2.1-1.5-3-1.5h-.4c-.9 0-2.4.9-3 1.5"/></g></g><path d="M563.9 165.3h253v3.4h-253z"/></g><g fill="none" stroke="#231F20" stroke-width="1.481" stroke-miterlimit="10"><path d="M141.5 102.9s2-27.6 23-27.6M187.3 102.9s-2-27.6-22.9-27.6M155 77.5s-7.3 7.6-7.3 25.4M159.7 75.8s-6.3 7.9-6.3 27.1M161.5 75.4s-2.5 8.3-2.5 27.5M173.5 77.4s8.3 7.7 8.3 25.5M169.8 75.8s6.3 7.9 6.3 27.1M168 75.4s2.5 8.3 2.5 27.5M164.7 75.2v27.7M151.3 80h26.3M147.3 84.8h34.1M144.7 89.6h39.5M142.9 94.4h43M141.8 99.2H187"/><path d="M169.7 76.7v-4.6h-10.6v4.6M163.1 72.1V65M165.7 72.1V65M168.3 72.1v-10h-7.8v10M160.5 65h7.8M162.6 58.3h3.7V62h-3.7zM164.4 58.3v-4.5M137 127.5h3.6v31.1H137zM144.3 127.5h3.7v31.1h-3.7zM151.6 127.5h3.6v31.1h-3.6zM158.9 127.5h3.6v31.1h-3.6zM166.3 127.5h3.6v31.1h-3.6zM173.6 127.5h3.6v31.1h-3.6zM180.9 127.5h3.7v31.1h-3.7zM188.2 127.5h3.7v31.1h-3.7zM135.2 123.3h7.3v4.1h-7.3zM142.5 123.3h7.3v4.1h-7.3zM149.8 123.3h7.3v4.1h-7.3z"/><path d="M157.1 123.3h7.3v4.1h-7.3zM164.4 123.3h7.3v4.1h-7.3z"/><path d="M171.7 123.3h7.3v4.1h-7.3zM179 123.3h7.3v4.1H179zM186.3 123.3h7.3v4.1h-7.3zM135.2 158.6h7.3v2.4h-7.3zM142.5 158.6h7.3v2.4h-7.3zM149.8 158.6h7.3v2.4h-7.3z"/><path d="M157.1 158.6h7.3v2.4h-7.3zM164.4 158.6h7.3v2.4h-7.3z"/><path d="M171.7 158.6h7.3v2.4h-7.3zM179 158.6h7.3v2.4H179zM186.3 158.6h7.3v2.4h-7.3zM140 102.9h48.8v2.4H140zM140 120.9h48.8v2.4H140z"/><path d="M137.4 105.2h54v2.4h-54z"/><path d="M140 107.6h48.8v13.3H140z"/><path d="M168.7 114.2c0 2.4-1.9 4.3-4.3 4.3s-4.3-1.9-4.3-4.3 1.9-4.3 4.3-4.3 4.3 2 4.3 4.3zM133.4 160.9h62v4.8h-62z"/><path d="M129.6 165.7h69.6v3h-69.6zM140.7 136.7c0-1.3.6-2.3 2-2.3 1.2 0 1.7 1.1 1.7 2.3M148 136.7c0-1.3.6-2.3 1.9-2.3 1.3 0 1.7 1.1 1.7 2.3M155.3 136.7c0-1.3.6-2.3 1.9-2.3 1.3 0 1.7 1.1 1.7 2.3M162.6 136.7c0-1.3.6-2.3 1.9-2.3 1.3 0 1.7 1.1 1.7 2.3M169.9 136.7c0-1.3.6-2.3 1.9-2.3 1.3 0 1.7 1.1 1.7 2.3M177.2 136.7c0-1.3.6-2.3 1.9-2.3 1.3 0 1.7 1.1 1.7 2.3M184.5 136.7c0-1.3.6-2.3 1.9-2.3 1.2 0 1.7 1.1 1.7 2.3"/></g><path fill="none" stroke="#231F20" stroke-width="1.481" stroke-miterlimit="10" d="M703.9 79.3h-38s-1-5.6 4.8-4.1c-1.7-3.8 4.4-8 7.5-3.6-.3-3.6 5.6-9 11.4-3 0-7.7 14.7-17.5 22.9-3 0 0 8.4-3.1 8.4 4.9 0 0 3-.3 3 4.6h-33.1M726.6 46.7c0-4.5 8.7-10.3 13.5-1.8 0 0 4.9-1.8 4.9 2.9 0 0 1.8-.2 1.8 2.7h-26.6s1.2-5.9 6.4-3.8zM729.9 75.1h19.2M755.7 75.1h9.5M313.9 74.1H352s1-5.6-4.8-4.1c1.7-3.8-4.4-8-7.5-3.6.3-3.6-5.6-9-11.4-3 0-7.7-14.7-17.5-22.9-3 0 0-8.4-3.1-8.4 4.9 0 0-3.1-.3-3.1 4.5H327M381.9 36.8c0-4.5 8.7-10.3 13.5-1.8 0 0 4.9-1.8 4.9 2.9 0 0 1.8-.2 1.8 2.7h-26.6s1.3-5.9 6.4-3.8zM287.9 69.8h-19.2M262.1 69.8h-9.5M409.7 40.6h19.1M435.4 40.6h9.6"/><g fill="none" stroke="#231F20" stroke-width="1.481" stroke-miterlimit="10"><path d="M214.4 165.4h58v3.3h-58zM218.8 104.4H268v60.7h-49.2zM218.8 101.6H268v2.7h-49.2z"/><path d="M223.7 110.6h3.8v3.9h-3.8zM232.6 110.6h3.8v3.9h-3.8zM241.5 110.6h3.8v3.9h-3.8zM250.4 110.6h3.8v3.9h-3.8zM259.3 110.6h3.8v3.9h-3.8zM223.7 118.5h3.8v3.9h-3.8zM232.6 118.5h3.8v3.9h-3.8zM241.5 118.5h3.8v3.9h-3.8zM250.4 118.5h3.8v3.9h-3.8zM259.3 118.5h3.8v3.9h-3.8zM223.7 126.3h3.8v3.9h-3.8zM232.6 126.3h3.8v3.9h-3.8zM241.5 126.3h3.8v3.9h-3.8zM250.4 126.3h3.8v3.9h-3.8zM259.3 126.3h3.8v3.9h-3.8z"/><g><path d="M223.7 134.1h3.8v3.9h-3.8zM232.6 134.1h3.8v3.9h-3.8zM241.5 134.1h3.8v3.9h-3.8zM250.4 134.1h3.8v3.9h-3.8zM259.3 134.1h3.8v3.9h-3.8z"/></g><path d="M218.8 144.1H268M218.8 146.7H268M223.7 150.6h6.6v10.6h-6.6zM240.1 150.6h6.6v10.6h-6.6zM256.5 150.6h6.6v10.6h-6.6zM223.7 158h6.6M240.1 158h6.6M256.6 158h6.6"/></g><g fill="none" stroke="#231F20" stroke-width="1.481" stroke-miterlimit="10"><path d="M287.2 128.3h40.4v40.4h-40.4zM287.2 117.4h40.4v10.8h-40.4z"/><path d="M287.2 117.4h40.4v2.2h-40.4zM291.9 133.6h4.2v6.8h-4.2zM291.9 138.4h4.3M300.9 133.6h4.3v6.8h-4.3zM300.9 138.4h4.2M309.9 133.6h4.2v6.8h-4.2zM309.9 138.4h4.2M318.8 133.6h4.2v6.8h-4.2zM318.8 138.4h4.3M291.9 144.1h4.2v6.8h-4.2zM291.9 148.8h4.3M300.9 144.1h4.3v6.8h-4.3zM300.9 148.8h4.2"/><g><path d="M309.9 144.1h4.2v6.8h-4.2zM309.9 148.8h4.2"/></g><g><path d="M318.8 144.1h4.2v6.8h-4.2zM318.8 148.8h4.3"/></g><g><path d="M291.9 154.5h4.2v6.8h-4.2zM291.9 159.3h4.3"/></g><g><path d="M300.9 154.5h4.3v6.8h-4.3zM300.9 159.3h4.2"/></g><g><path d="M309.9 154.5h4.2v6.8h-4.2zM309.9 159.3h4.2"/></g><g><path d="M318.8 154.5h4.2v6.8h-4.2zM318.8 159.3h4.3"/></g></g><g fill="none" stroke="#231F20" stroke-width="1.481" stroke-miterlimit="10"><path d="M1017.7 82.3h34v86.4h-34z"/><path d="M1022.5 91h3.8v5.9h-3.8zM1022.5 102.7h3.8v5.9h-3.8zM1022.5 114.4h3.8v5.9h-3.8zM1022.5 126.1h3.8v5.9h-3.8zM1022.5 137.8h3.8v5.9h-3.8zM1022.5 149.5h3.8v5.9h-3.8z"/><g><path d="M1032.8 91h3.8v5.9h-3.8zM1032.8 102.7h3.8v5.9h-3.8zM1032.8 114.4h3.8v5.9h-3.8zM1032.8 126.1h3.8v5.9h-3.8zM1032.8 137.8h3.8v5.9h-3.8zM1032.8 149.5h3.8v5.9h-3.8z"/></g><g><path d="M1043.1 91h3.8v5.9h-3.8zM1043.1 102.7h3.8v5.9h-3.8zM1043.1 114.4h3.8v5.9h-3.8zM1043.1 126.1h3.8v5.9h-3.8zM1043.1 137.8h3.8v5.9h-3.8zM1043.1 149.5h3.8v5.9h-3.8z"/></g><path d="M1017.7 86.1h34M1017.7 162.4h34M1017.7 165.5h34"/></g><g fill="none" stroke="#231F20" stroke-width="1.481" stroke-miterlimit="10"><path d="M1066.9 117.3h101.6v51.4h-101.6zM1066.9 104.3h101.6v13h-101.6z"/><path d="M1075.3 123.7h5.1v8.1h-5.1zM1075.3 129.4h5.1M1088.4 123.7h5.1v8.1h-5.1zM1088.4 129.4h5.2M1101.6 123.7h5.1v8.1h-5.1zM1101.6 129.4h5.1M1114.7 123.7h5.1v8.1h-5.1zM1114.7 129.4h5.1"/><g><path d="M1127.8 123.7h5.1v8.1h-5.1zM1127.8 129.4h5.1"/></g><g><path d="M1141 123.7h5.1v8.1h-5.1zM1141 129.4h5.1"/></g><g><path d="M1154.1 123.7h5.1v8.1h-5.1zM1154.1 129.4h5.1"/></g><g><path d="M1075.3 139.4h5.1v8.1h-5.1zM1075.3 145.1h5.1M1088.4 139.4h5.1v8.1h-5.1zM1088.4 145.1h5.2M1101.6 139.4h5.1v8.1h-5.1zM1101.6 145.1h5.1M1114.7 139.4h5.1v8.1h-5.1zM1114.7 145.1h5.1"/><g><path d="M1127.8 139.4h5.1v8.1h-5.1zM1127.8 145.1h5.1"/></g><g><path d="M1141 139.4h5.1v8.1h-5.1zM1141 145.1h5.1"/></g><g><path d="M1154.1 139.4h5.1v8.1h-5.1zM1154.1 145.1h5.1"/></g></g><g><path d="M1075.3 153.8h5.1v8.1h-5.1zM1075.3 159.5h5.1M1088.4 153.8h5.1v8.1h-5.1zM1088.4 159.5h5.2M1101.6 153.8h5.1v8.1h-5.1zM1101.6 159.5h5.1M1114.7 153.8h5.1v8.1h-5.1zM1114.7 159.5h5.1"/><g><path d="M1127.8 153.8h5.1v8.1h-5.1zM1127.8 159.5h5.1"/></g><g><path d="M1141 153.8h5.1v8.1h-5.1zM1141 159.5h5.1"/></g><g><path d="M1154.1 153.8h5.1v8.1h-5.1zM1154.1 159.5h5.1"/></g></g><path d="M1066.9 104h34V91z"/><path d="M1100.7 104h34.1V91z"/><path d="M1134.5 104h34V91zM1066.9 107.6h101.6M1066.9 110.7h101.6"/></g><path fill="none" stroke="#231F20" stroke-width="1.481" stroke-miterlimit="10" d="M592.1 63.4c0 9.4-7.6 17.1-17.1 17.1-9.4 0-17-7.6-17-17.1 0-9.4 7.6-17 17-17 9.5 0 17.1 7.6 17.1 17zM980.1 36.1c0-4.5-8.7-10.3-13.5-1.8 0 0-4.9-1.8-4.9 2.9 0 0-1.8-.2-1.8 2.7h26.6s-1.2-5.9-6.4-3.8zM952.3 40h-19.1M926.6 40H917M37.5 21.9h38s1-5.6-4.8-4.1c1.7-3.8-4.4-8-7.5-3.7.3-3.6-5.6-9-11.4-3 0-7.7-14.8-17.5-22.9-3 0 0-8.4-3.1-8.4 4.9 0 0-3.1-.3-3.1 4.6h33.1M1134.5 51.2h38.1s1-5.6-4.8-4.1c1.7-3.8-4.4-8-7.5-3.7.3-3.6-5.6-9-11.4-3 0-7.7-14.8-17.5-22.9-3 0 0-8.4-3.1-8.4 4.9 0 0-3-.3-3 4.6h33.1"/><g fill="none" stroke="#231F20" stroke-width="1.481" stroke-miterlimit="10"><path d="M1002.2 131.4v37.3h-29.6v-39.3l15-17.9 14.7 18z"/><path d="M979.6 129.1h5v7.3h-5zM979.6 134.1h5.1M990.6 129.1h5v7.3h-5zM990.6 134.1h5M979.6 141.6h5v7.3h-5zM979.6 146.7h5.1M979.6 154.4h5v7.3h-5zM979.6 159.5h5.1"/><g><path d="M990.6 141.6h5v7.3h-5zM990.6 146.7h5"/></g><path d="M989.2 154.4h8v11.5h-8zM989.2 165.9h8v2.7h-8z"/></g><g fill="none" stroke="#231F20" stroke-width="1.481" stroke-miterlimit="10"><path d="M955.8 131.4v37.3h-29.6v-39.3l14.9-17.9 14.7 18z"/><path d="M933.2 129.1h5v7.3h-5zM933.2 134.1h5M944.1 129.1h5v7.3h-5zM944.1 134.1h5.1M933.2 141.6h5v7.3h-5zM933.2 146.7h5M933.2 154.4h5v7.3h-5zM933.2 159.5h5"/><g><path d="M944.1 141.6h5v7.3h-5zM944.1 146.7h5.1"/></g><path d="M942.8 154.4h8v11.5h-8zM942.8 165.9h8v2.7h-8z"/></g><g fill="none" stroke="#231F20" stroke-width="1.481" stroke-miterlimit="10"><path d="M911.1 131.4v37.3h-29.6v-39.3l14.9-17.9 14.7 18z"/><path d="M888.5 129.1h5v7.3h-5zM888.5 134.1h5M899.4 129.1h5v7.3h-5zM899.4 134.1h5M888.5 141.6h5v7.3h-5zM888.5 146.7h5M888.5 154.4h5v7.3h-5zM888.5 159.5h5"/><g><path d="M899.4 141.6h5v7.3h-5zM899.4 146.7h5"/></g><path d="M898 154.4h8v11.5h-8zM898 165.9h8v2.7h-8z"/></g></svg>