<svg xmlns="http://www.w3.org/2000/svg" width="357" height="190.7"><path fill="#EEC123" d="M0 0h357v190.7H0z"/><path d="M145.7 106.8h1.7v1.7h-1.7zm4.2 0h1.7v1.7h-1.7zm4.3 0h1.7v1.7h-1.7zM145.7 110.5h1.7v1.7h-1.7zm4.2 0h1.7v1.7h-1.7zm4.3 0h1.7v1.7h-1.7zM145.7 114.2h1.7v1.7h-1.7zm4.2 0h1.7v1.7h-1.7zm4.3 0h1.7v1.7h-1.7z" fill="none" stroke="#000" stroke-width=".772" stroke-linecap="round" stroke-linejoin="round" stroke-miterlimit="10"/><path fill="none" stroke="#000" stroke-width=".726" stroke-linecap="round" stroke-linejoin="round" stroke-miterlimit="10" d="M124.1 96.1s-3.4-15.5-16.8-10c-.1-11.8-22.7-26.9-35.3-4.6 0 0-12.9-4.8-12.9 7.6 0 0-4.7-.4-4.7 7"/><g fill="#FFF"><path d="M195.6 98.5v3.1H136v-3.1h57.2zM173 79.6l.1 2 .2 2.6.3 4.3.6 9.9h-16.6l.6-9.9.3-4.3.2-2.6.9-15.5h12.8l.6 13.5zm-3.5 2.7V69.6h-1.3v12.7h1.3zm-3.1 0V69.6h-1.3v12.7h1.3zm-3 0V69.6h-1.3v12.7h1.3z"/><path d="M173.2 64.7v1.4h-14.8v-1.4h14.2zm-5 4.9h1.3v12.7h-1.3zm.5-17.7v3.9h-5.8v-3.9zm-3.6 17.7h1.3v12.7h-1.3zm-3 0h1.3v12.7h-1.3z"/></g><g fill="none" stroke="#000" stroke-linecap="round" stroke-linejoin="round" stroke-miterlimit="10"><path stroke-width=".772" d="M173.5 88.6h19.7v9.9m-54.8 0v-9.9h19.7m15-7h17.2v6.9m-49 0v-6.9h17.2"/><path stroke-width=".772" d="M157.5 98.5l.6-9.9.2-4.4.2-2.6.9-15.5m12.8 0l.8 13.5.1 2 .2 2.6.2 4.4.6 9.9M159 64.7v-6.2h1.2v-2.7h2.7m9.7 8.9v-6.2h-1.2v-2.7h-2.7"/><path stroke-width=".772" d="M172.6 64.7h.6v1.4h-14.8v-1.4h10.9zm-10.3 0v-6.8h7v6.8m-.6-8.9v-3.9h-5.8v3.9h3z"/><circle stroke-width=".772" cx="165.8" cy="61.4" r="2.2"/><path stroke-width=".772" d="M165.8 60.3v1.1h1m28.8 40.2v2.4H136v-5.5h59.6zm-33.5-32h1.3v12.7h-1.3zm3 0h1.3v12.7h-1.3zm3.1 0h1.3v12.7h-1.3zm-26.8 14.6h16.9m15.2 0h16.7m-48.7 6.7h2.1v5.4h-2.1zm5.5 0h2.1v5.4H147zm5.5 0h2.1v5.4h-2.1zm24.7 0h2.1v5.4h-2.1zm5.5 0h2.1v5.4h-2.1zm5.4 0h2.1v5.4h-2.1zm-43.6-5.4h1.7v1.7h-1.7zm4.3 0h1.7v1.7h-1.7zm4.2 0h1.7v1.7H153zm23.6 0h1.7v1.7h-1.7zm4.2 0h1.7v1.7h-1.7zm4.3 0h1.7v1.7h-1.7zm-26.6-5.9h-5.8m-1.4 0h-3.8m-1.4 0h-2.4m-1.3 0h-1.5m32.1 0h5.8m1.5 0h3.8m1.4 0h2.3m1.4 0h1.4"/><path stroke-width=".776" d="M136.1 101.6h59.4"/></g><path fill="#F0C223" d="M142.8 95.8h.8v2.6h-33.4v-2.6h.4zm.8 28.8v5.8h-33.8v-5.8h32.3zm-.8-34.6v5.8h-32.2V90c0-.7 0-1.3.1-2h32c.1.7.1 1.3.1 2zm-13.7 1.8c0-1.3-1.1-2.4-2.4-2.4s-2.4 1.1-2.4 2.4c0 1.3 1.1 2.4 2.4 2.4s2.4-1.1 2.4-2.4z"/><path fill="#FFF" d="M128.3 69.7c7.2 6.5 8.5 16.6 8.5 16.6 1.3 2.3 2.4.3 2.4.3-.7-11.8-10.7-16.8-10.9-16.9zm-.6 0c3.7 6 3.5 16.7 3.5 16.7 1.3 2.3 2.7.2 2.7.2-.7-13.7-6.1-16.9-6.2-16.9zm-.9.1c-.1-.2-.2-.3-.2-.3h.1c1.1 0 2.2.1 3.3.4 6.8 1.8 12.1 9.1 12.8 18.1h-16 .1c.9 0 1.8-1 1.8-1 .2-11.9-1.4-16.1-1.9-17.2z"/><path fill="#F0C223" d="M142.1 98.4v26.2h-2.2V98.4z"/><path fill="#EEC123" d="M142.1 98.4h-2.3v5.2c0-.7-.3-1.3-.9-1.3-.7 0-1.1.6-1.1 1.3v-5.2h4.3z"/><path fill="#F0C223" d="M139.9 105.8v18.8h-2v-21c0-.7.3-1.3 1.1-1.3.7 0 .9.6.9 1.3v2.2z"/><path fill="#FFF" d="M139.2 86.6s-1.1 2-2.4-.3c0 0-1.4-10.1-8.5-16.6.2.1 10.2 5.1 10.9 16.9z"/><path fill="#F0C223" d="M135.8 103.4v-5h2.1v26.2h-2.1z"/><path fill="#EEC123" d="M137.9 98.4h-2v5c0-.6-.3-1.1-.9-1.1-.7 0-1.1.6-1.1 1.3v-5.2h4z"/><path fill="#F0C223" d="M135.8 103.4v21.1h-2v-21c0-.7.3-1.3 1.1-1.3.6.1.9.6.9 1.2zm-2 .2v21h-2V98.4h2z"/><path fill="#EEC123" d="M133.8 98.4h-2v5.2c0-.7-.3-1.3-.9-1.3-.7 0-1.1.6-1.1 1.3v-5.2h4z"/><path fill="#FFF" d="M133.9 86.6s-1.4 2.1-2.7-.2c0 0 .2-10.7-3.5-16.7.1 0 5.5 3.2 6.2 16.9z"/><path fill="#F0C223" d="M131.8 103.6v21h-2v-21c0-.7.3-1.3 1.1-1.3.7 0 .9.6.9 1.3z"/><path fill="#FFF" d="M129.9 67.1V70c-1.1-.3-2.2-.4-3.3-.4h-.1c-1.2 0-2.4.2-3.5.5v-3h6.9z"/><path fill="#F0C223" d="M127.8 103.6v-5.2h2v26.2h-2z"/><path fill="#EEC123" d="M129.8 98.4h-2v5.2c0-.7-.3-1.3-.9-1.3-.7 0-1.1.6-1.1 1.3v-5.2h4z"/><path fill="#F0C223" d="M127.3 62.4h1.7V67h-1.7z"/><path fill="#FFF" d="M129 60.5v1.9h-5.1v-1.9h3.8zm-2.2 9.3c.6 1.1 2.1 5.3 1.7 17.2 0 0-.8 1-1.8 1-.9 0-1.8-1-1.8-1-.3-12.3 1.4-16.3 1.9-17.2z"/><circle fill="#FFF" cx="126.7" cy="91.8" r="2.4"/><path fill="#F0C223" d="M127.8 103.6v21h-2v-21c0-.7.3-1.3 1.1-1.3.7 0 .9.6.9 1.3z"/><path fill="#FFF" d="M127.7 58.1v2.4h-2.4v-2.4h1.2z"/><path fill="#F0C223" d="M127.3 62.4v4.7h-1.7v-4.7z"/><path fill="#FFF" d="M125.8 69.7c-.1 0-5.5 3.2-6.2 16.9 0 0 1.4 2.1 2.7-.2 0 0-.2-10.7 3.5-16.7zm-.6 0c-.2.1-10.3 5.1-11 16.9 0 0 1.1 2 2.4-.3 0 0 1.4-10.1 8.6-16.6zm-2.2.3c1.1-.3 2.3-.5 3.5-.5 0 0 .1.1.2.3-.5.9-2.2 4.9-1.8 17.2 0 0 .8 1 1.8 1h-16c.6-8.8 5.8-16 12.3-18z"/><path fill="#F0C223" d="M125.8 103.6v21h-2V98.4h2z"/><path fill="#EEC123" d="M125.8 98.4h-2v5.2c0-.7-.3-1.3-.9-1.3-.7 0-1.1.6-1.1 1.3v-5.2h4z"/><path fill="#F0C223" d="M123.9 62.4h1.7V67h-1.7zm-.1 41.2v21h-2v-21c0-.7.3-1.3 1.1-1.3.7 0 .9.6.9 1.3z"/><path fill="#FFF" d="M119.6 86.6c.7-13.7 6.1-16.8 6.2-16.9-3.7 6-3.5 16.7-3.5 16.7-1.3 2.3-2.7.2-2.7.2z"/><path fill="#F0C223" d="M119.8 103.5v-5.1h2v26.2h-2z"/><path fill="#EEC123" d="M121.8 98.4h-2v5.1c0-.7-.3-1.2-.9-1.2-.7 0-1.1.6-1.1 1.3v-5.2h4z"/><path fill="#FFF" d="M114.2 86.6c.7-11.8 10.8-16.8 11-16.9-7.2 6.5-8.6 16.6-8.6 16.6-1.3 2.3-2.4.3-2.4.3z"/><path fill="#F0C223" d="M119.8 103.5v21.1h-2v-21c0-.7.3-1.3 1.1-1.3.6 0 .9.5.9 1.2zm-2 .1v21h-2V98.4h2z"/><path fill="#EEC123" d="M117.8 98.4h-2v5.2c0-.7-.3-1.3-.9-1.3-.7 0-1.1.6-1.1 1.3v-5.2h4z"/><path fill="#F0C223" d="M115.8 103.6v21h-2v-21c0-.7.3-1.3 1.1-1.3.7 0 .9.6.9 1.3zm-2 0v21h-2.3V98.4h2.3z"/><g fill="none" stroke="#000" stroke-linecap="round" stroke-linejoin="round" stroke-miterlimit="10"><path stroke-width=".776" d="M110.6 95.8V90c0-.7 0-1.3.1-2 .7-8.8 5.8-16 12.4-18 1.1-.3 2.3-.5 3.5-.5h.1c1.1 0 2.2.1 3.3.4 6.8 1.8 12.1 9.1 12.8 18.1 0 .6.1 1.3.1 1.9v5.8"/><path stroke-width=".772" d="M125.2 69.7c-.2.1-10.3 5.1-11 16.9 0 0 1.1 2 2.4-.3 0 0 1.4-10.1 8.6-16.6zm0 0"/><path stroke-width=".772" d="M125.8 69.7c-.1 0-5.5 3.2-6.2 16.9 0 0 1.4 2.1 2.7-.2 0 0-.2-10.7 3.5-16.7zm0 0"/><path stroke-width=".776" d="M126.6 69.5s.1.1.2.3c.6 1.1 2.1 5.3 1.7 17.2 0 0-.8 1-1.8 1h.1c-.9 0-1.8-1-1.8-1-.4-12.3 1.3-16.3 1.8-17.2l.1-.2"/><path stroke-width=".772" d="M128.3 69.7c.2.1 10.2 5.1 10.9 16.9 0 0-1.1 2-2.4-.3 0 0-1.3-10.1-8.5-16.6zm0 0"/><path stroke-width=".772" d="M127.7 69.7c.1 0 5.5 3.2 6.2 16.9 0 0-1.4 2.1-2.7-.2-.1 0 .2-10.7-3.5-16.7zm-2.1-2.6v-4.7m1.7 4.7v-4.7m-2-1.9h-1.4v6.6m5.1 0v-6.6h-1.3m-3.8 1.9h5.1m-1.3-1.9v-2.4h-2.4v2.4zm-1.2-2.4v-3"/><path stroke-width=".772" d="M129.9 70.1v-3H123v3"/><circle stroke-width=".772" cx="126.7" cy="91.8" r="2.4"/><path stroke-width=".772" d="M142.8 95.8h.8v2.6h-33.4v-2.6h.4zm-31.3 28.8V98.4h2.3v26.2m26.1 0V98.4h2.2v26.2m-26.3 0V98.4h2v26.2m2 0V98.4h2v26.2m2 0V98.4h2v26.2m2 0V98.4h2v26.2m2 0V98.4h2v26.2m2 0V98.4h2.1v26.2m-24.1-21c0-.7.3-1.3 1.1-1.3.7 0 .9.6.9 1.3m2 0c0-.7.3-1.3 1.1-1.3.6 0 .9.5.9 1.2v.1m2 0c0-.7.3-1.3 1.1-1.3.7 0 .9.6.9 1.3m2 0c0-.7.3-1.3 1.1-1.3.7 0 .9.6.9 1.3v.1m2-.1c0-.7.3-1.3 1.1-1.3.7 0 .9.6.9 1.3"/><path stroke-width=".772" d="M133.9 103.6c0-.7.3-1.3 1.1-1.3.6 0 .9.5.9 1.1v.2m2 0c0-.7.3-1.3 1.1-1.3.7 0 .9.6.9 1.3"/><path stroke-width=".776" d="M111 88.1h31.4m-32.2 38.8h33m-1.1-2.3h1.5v5.8h-33.8v-5.8h30.1z"/></g><path fill="none" stroke="#000" stroke-width=".772" stroke-linecap="round" stroke-linejoin="round" stroke-miterlimit="10" d="M211.7 94.8s-1.5-8.8 7.6-6.5c-2.7-6.1 7-12.7 11.9-5.8-.4-5.8 8.9-14.3 18-4.8.1-12.2 23.4-27.8 36.4-4.8 0 0 13.3-4.9 13.3 7.8 0 0 4.8-.4 4.8 7.2h-28.4"/><path fill="none" stroke="#000" stroke-width=".772" stroke-linecap="round" stroke-linejoin="round" stroke-miterlimit="10" d="M239.1 114h13.8m-13.6 1.3V89.9l6.7-8.1 6.7 8.1v25.4z"/><path fill="none" stroke="#000" stroke-width=".772" stroke-linecap="round" stroke-linejoin="round" stroke-miterlimit="10" d="M242.2 95.2h2.4v3.5h-2.4zm5.2 0h2.4v3.5h-2.4zm-5.2-5.8h2.4v3.5h-2.4zm5.2 0h2.4v3.5h-2.4zM242.2 106.8h2.4v3.5h-2.4zm5.2 0h2.4v3.5h-2.4zm-5.2-5.7h2.4v3.5h-2.4zm5.2 0h2.4v3.5h-2.4z"/><g fill="#FFF"><path d="M217 76.3v46h-1.3v-46zm0 0h-26.9c0-.6 0-1.1.1-1.7h26.7c.1.5.1 1.1.1 1.7zm-.1-1.7h-3.5s-.2-1.3-.8-3.1h3.7c.3 1 .5 2 .6 3.1zm-.6-3.1h-3.7c-.3-.9-.7-2-1.3-3.1h3.5c.6.9 1.1 2 1.5 3.1zm-.6 50.6v.2h-2.2V79c.2-.2.7-.6 1-.6h.1c.3 0 .8.4 1 .6h.1v43.1z"/><path d="M215.7 76.3V79h-.1c-.2-.2-.7-.6-1-.6v-2.1h1.1zm-.9-7.9h-3.5c-1.4-2.8-3.8-5.7-7.5-6.6 4.6 0 8.7 2.6 11 6.6zm-.2 9.9c-.4.1-.9.4-1.1.7v-2.7h1.1v2zm-1.1.7v43.3H212v-46h1.5zm-.1-4.4h-6.3s.1-1.3-.1-3.1h5.6c.6 1.8.8 3.1.8 3.1zm-.8-3.1H207c-.1-.9-.2-2-.5-3.1h4.8c.6 1.1 1 2.2 1.3 3.1zm-.6 50.6v.2h-2.2V79c.2-.2.7-.6 1-.6h.1c.3 0 .8.4 1 .6h.1v43.1z"/><path d="M212 76.3V79c-.2-.2-.7-.6-1-.6v-2.1h1zm-.7-7.9h-4.8c-.5-2.2-1.3-4.6-2.7-6.4h-.2v-.2h.2c3.7.8 6.1 3.8 7.5 6.6zm-.4 9.9c-.4.1-.9.4-1.1.7v-2.7h1.1v2zm-1.1.7v43.3h-1.5v-46h1.5zm-1.5 43.1v.2h-2.2V79c.2-.2.7-.6 1-.6h.1c.3 0 .8.4 1 .6v43.1z"/><path d="M208.3 76.3V79c-.2-.2-.7-.6-1-.6v-2.1h1zm-1.1 2c-.4.1-.9.4-1.1.7v-2.7h1.1v2zm-.2-6.8c.2 1.8.1 3.1.1 3.1h-6.9s-.1-1.3.1-3.1h6.7zm0 0h-6.6c.1-.9.2-2 .5-3.1h5.7c.1 1.1.3 2.2.4 3.1zm-3.5-9.5h.2c1.5 1.8 2.3 4.2 2.7 6.4h-5.7c.6-2.2 1.4-4.6 2.8-6.4zm2.6 17v43.3h-1.4v-46h1.4zm-1.4 43.1v.2h-2.2V79c.2-.2.7-.6 1-.6h.1c.3 0 .8.4 1 .6h.1v43.1z"/><path d="M204.7 76.3V79h-.1c-.2-.2-.7-.6-1-.6v-2.1h1.1zm-1.2-14.5v.2c-1.5 1.8-2.3 4.2-2.7 6.4H196c1.4-2.9 3.8-5.8 7.5-6.6zm0 16.5c-.4.1-.9.4-1.1.7v-2.7h1.1v2zm-1.1.7v43.3H201v-46h1.4zm-1.4 43.1v.2h-2.2V79c.2-.2.7-.6 1-.6h.1c.3 0 .8.4 1 .6h.1v43.1z"/><path d="M201 76.3V79h-.1c-.2-.2-.7-.6-1-.6v-2.1h1.1zm-5-7.9h4.8c-.2 1.1-.4 2.2-.5 3.1h-5.6c.3-.9.7-2 1.3-3.1zm-1.3 3.1h5.6c-.2 1.8-.1 3.1-.1 3.1h-6.3s.2-1.3.8-3.1zm5.1 6.8c-.4.1-.9.4-1.1.7v-2.7h1.1v2zm-1.1.7v43.3h-1.4v-46h1.4z"/><path d="M197.3 122.1v.2H195V79c.2-.2.7-.6 1-.6h.1c.3 0 .8.4 1 .6h.1v43.1z"/><path d="M197.3 76.3V79h-.1c-.2-.2-.7-.6-1-.6v-2.1h1.1zm-1.1 2c-.4.1-.9.4-1.1.7v-2.7h1.1v2zm7.3-16.5c-3.7.9-6.1 3.8-7.5 6.6h-3.8c2.4-4 6.6-6.6 11.3-6.6zm-11.3 6.6h3.8c-.6 1.1-1 2.2-1.3 3.1h-3.9c.4-1.1.9-2.2 1.4-3.1zM195 79v43.3h-1.4v-46h1.4zm-4.2-7.5h3.9c-.6 1.8-.8 3.1-.8 3.1h-3.7c.1-1.1.3-2.1.6-3.1zm2.8 50.6v.2h-2.2V79c.2-.2.7-.6 1-.6h.1c.3 0 .8.4 1 .6h.1v43.1z"/><path d="M193.6 76.3V79h-.1c-.2-.2-.7-.6-1-.6v-2.1h1.1zm-1.1 2c-.4.1-.9.4-1.1.7v-2.7h1.1v2zm-1.1.7v43.3h-1.3v-46h1.3z"/></g><g fill="none" stroke="#000" stroke-width=".772" stroke-linecap="round" stroke-linejoin="round" stroke-miterlimit="10"><path d="M217 76.3c0-.6 0-1.1-.1-1.7-.1-1.1-.3-2.1-.7-3.1-.4-1.1-.8-2.2-1.4-3.1-2.4-3.9-6.4-6.5-11.1-6.6h-.2c-4.7 0-8.9 2.6-11.3 6.6-.6 1-1.1 2-1.4 3.1-.3 1-.5 2-.7 3.1-.1.5-.1 1.1-.1 1.7"/><path d="M203.5 61.8c-3.7.9-6.1 3.8-7.5 6.6-.6 1.1-1 2.2-1.3 3.1-.6 1.8-.8 3.1-.8 3.1m19.5 0s-.2-1.3-.8-3.1c-.3-.9-.7-2-1.3-3.1-1.4-2.8-3.8-5.7-7.5-6.6m-3.6 12.8s-.1-1.3.1-3.1c.1-.9.2-2 .5-3.1.5-2.2 1.3-4.6 2.7-6.4m3.6 12.6s.1-1.3-.1-3.1c-.1-.9-.2-2-.5-3.1-.5-2.2-1.3-4.6-2.7-6.4M217 76.3v46h-26.9v-46h25.6zm-24.8-7.9h22.6m1.5 3.1h-25.5m22.7 4.8v45.8m2.2-45.8v45.8m-1.1-45.8v2m0 1v42.8"/><path d="M213.5 79c.2-.2.7-.6 1-.6h.1c.3 0 .8.4 1 .6m-5.8-2.7v45.8m2.2-45.8v45.8m-1.1-45.8v2m0 1v42.8M209.8 79c.2-.2.7-.6 1-.6h.1c.3 0 .8.4 1 .6m-5.8-2.7v45.8m2.2-45.8v45.8m-1.1-45.8v2m0 1v42.8M206.1 79c.2-.2.7-.6 1-.6h.1c.3 0 .8.4 1 .6m-9.5-2.7v45.8m2.3-45.8v45.8m-1.2-45.8v2m0 1v42.8M198.7 79c.2-.2.7-.6 1-.6h.1c.3 0 .8.4 1 .6m-5.8-2.7v45.8m2.3-45.8v45.8m-1.1-45.8v2m0 1v42.8M195 79c.2-.2.7-.6 1-.6h.1c.3 0 .8.4 1 .6m-5.7-2.7v45.8m2.2-45.8v45.8m-1.1-45.8v2m0 1v42.8M191.4 79c.2-.2.7-.6 1-.6h.1c.3 0 .8.4 1 .6m8.9-2.7v45.8m2.3-45.8v45.8m-1.2-45.8v2m0 1v42.8M202.4 79c.2-.2.7-.6 1-.6h.1c.3 0 .8.4 1 .6m-14.3-4.4h26.7m-13.4-14.8v2.3"/></g><path fill="#F0C223" d="M210.9 84.8v6.7h-17.2v-.1zm0 11.2v26.7h-51.6V96h51.6zm-4.8 23.1V115h-2.6v4.2h2.6zm0-7.7v-4.2h-2.6v4.2h2.6zm0-7.6v-4.2h-2.6v4.2h2.6zm-6.7 15.3V115h-2.6v4.2h2.6zm0-7.7v-4.2h-2.6v4.2h2.6zm0-7.6v-4.2h-2.6v4.2h2.6zm-6.7 15.3V115h-2.6v4.2h2.6zm0-7.7v-4.2h-2.6v4.2h2.6zm0-7.6v-4.2h-2.6v4.2h2.6zm-6.7 15.3V115h-2.6v4.2h2.6zm0-7.7v-4.2h-2.6v4.2h2.6zm0-7.6v-4.2h-2.6v4.2h2.6zm-6.7 15.3V115h-2.6v4.2h2.6zm0-7.7v-4.2h-2.6v4.2h2.6zm0-7.6v-4.2h-2.6v4.2h2.6zm-6.6 15.3V115H170v4.2h2.7zm0-7.7v-4.2H170v4.2h2.7zm0-7.6v-4.2H170v4.2h2.7zm-6.7 15.3V115h-2.6v4.2h2.6zm0-7.7v-4.2h-2.6v4.2h2.6zm0-7.6v-4.2h-2.6v4.2h2.6zm-6.7-10.1h51.6V96h-51.6z"/><path fill="#FFF" d="M210.9 91.5v2.2h-51.6v-2.2h34.4z"/><path fill="#F0C223" d="M203.5 110.2h2.6v1.3h-2.6zm0-2.9h2.6v2.9h-2.6zm0-4.8h2.6v1.3h-2.6zm0-2.9h2.6v2.9h-2.6zm-6.7 10.6h2.6v1.3h-2.6zm0-2.9h2.6v2.9h-2.6zm0-4.8h2.6v1.3h-2.6zm0-2.9h2.6v2.9h-2.6zm-3.1-8.2v.1h-17.3v-.1l17.3-6.6zm-3.6 18.8h2.6v1.3h-2.6zm0-2.9h2.6v2.9h-2.6zm0-4.8h2.6v1.3h-2.6zm0-2.9h2.6v2.9h-2.6zm-6.7 10.6h2.6v1.3h-2.6zm0-2.9h2.6v2.9h-2.6zm0-4.8h2.6v1.3h-2.6zm0-2.9h2.6v2.9h-2.6zm-6.7 18.3h2.6v1.3h-2.6zm0-2.9h2.6v2.9h-2.6zm0-4.8h2.6v1.3h-2.6zm0-2.9h2.6v2.9h-2.6zm0-4.8h2.6v1.3h-2.6zm0-2.9h2.6v2.9h-2.6zM176.4 91.4v.1h-17.1l17.1-6.7zm-6.4 18.8h2.6v1.3H170zm0-2.9h2.6v2.9H170zm0-4.8h2.6v1.3H170zm0-2.9h2.6v2.9H170zm-6.6 18.3h2.6v1.3h-2.6zm0-2.9h2.6v2.9h-2.6zm0-4.8h2.6v1.3h-2.6zm0-2.9h2.6v2.9h-2.6zm0-4.8h2.6v1.3h-2.6zm0-2.9h2.6v2.9h-2.6z"/><g fill="none" stroke="#000" stroke-width=".772" stroke-linecap="round" stroke-linejoin="round" stroke-miterlimit="10"><path d="M166 102.5v1.3h-2.6v-4.2h2.6zm-2.6 0h2.6m6.7 0v1.3H170v-4.2h2.7zm-2.7 0h2.7m6.6 0v1.3h-2.6v-4.2h2.6zm-2.6 0h2.6m6.7 0v1.3h-2.6v-4.2h2.6zm-2.6 0h2.6m6.7 0v1.3h-2.6v-4.2h2.6zm-2.6 0h2.6m6.7 0v1.3h-2.6v-4.2h2.6zm-2.6 0h2.6m6.7 0v1.3h-2.6v-4.2h2.6zm-2.6 0h2.6m-40.1 7.7v1.2h-2.6v-4.1h2.6zm-2.6 0h2.6m6.7 0v1.2H170v-4.1h2.7zm-2.7 0h2.7m6.6 0v1.2h-2.6v-4.1h2.6zm-2.6 0h2.6m6.7 0v1.2h-2.6v-4.1h2.6zm-2.6 0h2.6m6.7 0v1.2h-2.6v-4.1h2.6zm-2.6 0h2.6m6.7 0v1.2h-2.6v-4.1h2.6zm-2.6 0h2.6m6.7 0v1.2h-2.6v-4.1h2.6zm-2.6 0h2.6m-40.1 7.7v1.2h-2.6V115h2.6zm-2.6 0h2.6m6.7 0v1.2H170V115h2.7zm-2.7 0h2.7m6.6 0v1.2h-2.6V115h2.6zm-2.6 0h2.6m6.7 0v1.2h-2.6V115h2.6zm-2.6 0h2.6m6.7 0v1.2h-2.6V115h2.6zm-2.6 0h2.6m6.7 0v1.2h-2.6V115h2.6zm-2.6 0h2.6m6.7 0v1.2h-2.6V115h2.6zm-2.6 0h2.6"/><path d="M176.4 91.5v-6.7l-17.1 6.7v31.2h51.6V91.5h-51.6"/><path d="M193.7 91.5v-6.7l-17.3 6.6-.1.1"/><path d="M210.9 91.5v-6.7l-17.2 6.6-.2.1m-34.2 2.2h51.6M159.3 96h51.6"/></g><path fill="#FFF" d="M221.9 57.7h-1.5c-.2 0-.1.3-.1.5v55.9c0 .2-.1.3.1.3H237c.2 0-.4-.1-.4-.3V58.2c0-.2.6-.5.4-.5h-2.7"/><g fill="none" stroke="#000" stroke-width=".772" stroke-linecap="round" stroke-linejoin="round" stroke-miterlimit="10"><path d="M220.3 57.9h16.6v55.9h-16.6z"/><path d="M222.8 49.7h11.7V58h-11.7zm1.3-8.1h9v8h-9zm1.4-2.4h6.2v2.4h-6.2zm1.9 4.7v3.6m2.5-3.6v3.6m-4.7 4.5v4.3m2.3-4.3v4.3m2.3-4.3v4.3m2.3-4.3v4.3M223 60.7v51m2.3-51v51m2.3-51v51m2.2-51v51m2.2-51v51m2.3-51v51"/></g><path fill="#F0C223" d="M243.4 114.8v20.9h-15.3v-20.9h15.3zm-2.1 18.2v-3.1h-1.7v3.1h1.7zm0-6v-3.1h-1.7v3.1h1.7zm0-6v-3h-1.7v3.1h1.7zm-4.7 12v-3.1h-1.7v3.1h1.7zm0-6v-3.1h-1.7v3.1h1.7zm0-6v-3h-1.7v3.1h1.7zm-4.6 12v-3.1h-1.7v3.1h1.7zm0-6v-3.1h-1.7v3.1h1.7zm0-6v-3h-1.7v3.1h1.7z"/><path fill="#FFF" d="M228.1 112.2h15.3v2.6h-15.3zm6.8 17.7h1.7v3.1h-1.7zm0-6h1.7v3.1h-1.7zm0-5.9h1.7v3.1h-1.7zm-4.6 11.9h1.7v3.1h-1.7zm0-6h1.7v3.1h-1.7zm0-5.9h1.7v3.1h-1.7z"/><path fill="#F0C223" d="M228.1 114.8v20.9h-15.3v-20.9h15.3zM226 133v-3.1h-1.7v3.1h1.7zm0-6v-3.1h-1.7v3.1h1.7zm0-6v-3h-1.7v3.1h1.7zm-4.6 12v-3.1h-1.7v3.1h1.7zm0-6v-3.1h-1.7v3.1h1.7zm0-6v-3h-1.7v3.1h1.7zm-4.7 12v-3.1H215v3.1h1.7zm0-6v-3.1H215v3.1h1.7zm0-6v-3H215v3.1h1.7z"/><path fill="#FFF" d="M212.9 112.2h15.3v2.6h-15.3zm11.4 17.7h1.7v3.1h-1.7zm0-6h1.7v3.1h-1.7zm0-5.9h1.7v3.1h-1.7zm-4.7 11.9h1.7v3.1h-1.7zm0-6h1.7v3.1h-1.7zm0-5.9h1.7v3.1h-1.7zm-4.6 11.9h1.7v3.1H215zm0-6h1.7v3.1H215zm0-5.9h1.7v3.1H215z"/><path fill="#F0C223" d="M212.9 114.8v20.9h-15.4v-20.9h15.4zm-2.3 18.2v-3.1h-1.7v3.1h1.7zm0-6v-3.1h-1.7v3.1h1.7zm0-6v-3h-1.7v3.1h1.7zm-4.6 12v-3.1h-1.7v3.1h1.7zm0-6v-3.1h-1.7v3.1h1.7zm0-6v-3h-1.7v3.1h1.7zm-4.7 12v-3.1h-1.7v3.1h1.7zm0-6v-3.1h-1.7v3.1h1.7zm0-6v-3h-1.7v3.1h1.7z"/><path fill="#FFF" d="M212.9 112.2v2.6h-15.4v-2.6zm-4 17.7h1.7v3.1h-1.7zm0-6h1.7v3.1h-1.7zm0-5.9h1.7v3.1h-1.7zm-4.6 11.9h1.7v3.1h-1.7zm0-6h1.7v3.1h-1.7zm0-5.9h1.7v3.1h-1.7zm-4.7 11.9h1.7v3.1h-1.7zm0-6h1.7v3.1h-1.7zm0-5.9h1.7v3.1h-1.7z"/><path fill="#F0C223" d="M197.5 114.8v20.9h-15.3v-20.9h15.3zm-2.2 18.2v-3.1h-1.7v3.1h1.7zm0-6v-3.1h-1.7v3.1h1.7zm0-6v-3h-1.7v3.1h1.7zm-4.6 12v-3.1H189v3.1h1.7zm0-6v-3.1H189v3.1h1.7zm0-6v-3H189v3.1h1.7zm-4.7 12v-3.1h-1.7v3.1h1.7zm0-6v-3.1h-1.7v3.1h1.7zm0-6v-3h-1.7v3.1h1.7z"/><path fill="#FFF" d="M182.2 112.2h15.3v2.6h-15.3zm11.4 17.7h1.7v3.1h-1.7zm0-6h1.7v3.1h-1.7zm0-5.9h1.7v3.1h-1.7zm-4.6 11.9h1.7v3.1H189zm0-6h1.7v3.1H189zm0-5.9h1.7v3.1H189zm-4.7 11.9h1.7v3.1h-1.7zm0-6h1.7v3.1h-1.7zm0-5.9h1.7v3.1h-1.7z"/><g fill="none" stroke="#000" stroke-width=".772" stroke-linecap="round" stroke-linejoin="round" stroke-miterlimit="10"><path d="M182.2 137.1h61.2m-45.9 1.4v-26.3m-13.2 11.7h1.7v3.1h-1.7zm4.7 0h1.7v3.1H189zm4.6 0h1.7v3.1h-1.7zm-9.3-5.9h1.7v3.1h-1.7zm4.7 0h1.7v3.1H189zm4.6 0h1.7v3.1h-1.7zm-9.3 11.9h1.7v3.1h-1.7zm4.7 0h1.7v3.1H189zm4.6 0h1.7v3.1h-1.7zm-11.4-15.1h15.3m-15.3 20.8h15.3m2.1-11.7h1.7v3.1h-1.7zm4.7 0h1.7v3.1h-1.7zm4.6 0h1.7v3.1h-1.7zm-9.3-5.9h1.7v3.1h-1.7zm4.7 0h1.7v3.1h-1.7zm4.6 0h1.7v3.1h-1.7zm-9.3 11.9h1.7v3.1h-1.7zm4.7 0h1.7v3.1h-1.7zm4.6 0h1.7v3.1h-1.7zm-11.4-15.1h15.3m-15.3 20.8h15.3m15.3-23.4v26.3m-15.2 0v-26.3m2.1 11.7h1.7v3.1H215zm4.6 0h1.7v3.1h-1.7zm4.7 0h1.7v3.1h-1.7zM215 118h1.7v3.1H215zm4.6 0h1.7v3.1h-1.7zm4.7 0h1.7v3.1h-1.7zm-9.3 11.9h1.7v3.1H215zm4.6 0h1.7v3.1h-1.7zm4.7 0h1.7v3.1h-1.7zm-11.4-15.1h15.2m-15.2 20.8h15.2"/><path d="M228.1 112.2h15.3v26.3h-61.2v-26.3h30.7z"/><path d="M230.3 123.9h1.7v3.1h-1.7zm4.6 0h1.7v3.1h-1.7zm4.7 0h1.7v3.1h-1.7zm-9.3-5.9h1.7v3.1h-1.7zm4.6 0h1.7v3.1h-1.7zm4.7 0h1.7v3.1h-1.7zm-9.3 11.9h1.7v3.1h-1.7zm4.6 0h1.7v3.1h-1.7zm4.7 0h1.7v3.1h-1.7zm-11.5-15.1h15.3m-15.3 20.8h15.3"/></g><path d="M257.1 50c0 1.7 1.6 2 1.6 2s-1.6.3-1.6 2c0-1.7-1.5-2-1.6-2 .1 0 1.6-.3 1.6-2zm-12.5-16.5c0 1.7 1.6 2 1.6 2s-1.6.3-1.6 2c0-1.7-1.6-2-1.6-2s1.6-.3 1.6-2zM205 47.1c0 1.7 1.6 2 1.6 2s-1.6.3-1.6 2c0-1.7-1.5-2-1.6-2 .1 0 1.6-.3 1.6-2zm-30.4-15.6c0 1.7 1.6 2 1.6 2s-1.6.3-1.6 2c0-1.7-1.5-2-1.6-2 0 0 1.5-.3 1.6-2zm-30.5 13.6c0 1.7 1.6 2 1.6 2s-1.6.3-1.6 2c0-1.7-1.6-2-1.6-2s1.5-.3 1.6-2zm-27.3-19.5c0 1.7 1.6 2 1.6 2s-1.6.3-1.6 2c0-1.7-1.6-2-1.6-2s1.6-.3 1.6-2zm-5.4 37.5c0 1.7 1.6 2 1.6 2s-1.6.3-1.6 2c0-1.7-1.6-2-1.6-2s1.5-.3 1.6-2zM97.7 48.8c0 1.7 1.6 2 1.6 2s-1.6.3-1.6 2c0-1.7-1.6-2-1.6-2s1.5-.3 1.6-2z" fill="#FFF"/><g fill="none" stroke="#040505" stroke-miterlimit="10"><path stroke-width=".65" d="M255.5 52c.1 0 1.6-.3 1.6-2m1.6 2s-1.6-.3-1.6-2m1.6 2s-1.6.3-1.6 2m-1.6-2c.1 0 1.6.3 1.6 2"/><path stroke-width=".772" stroke-linecap="round" stroke-linejoin="round" d="M243 35.5s1.6-.3 1.6-2m1.6 2s-1.6-.3-1.6-2m1.6 2s-1.6.3-1.6 2m-1.6-2s1.6.3 1.6 2m-41.2 11.6c.1 0 1.6-.3 1.6-2m1.7 2s-1.6-.3-1.6-2m1.6 2s-1.6.3-1.6 2m-1.7-2c.1 0 1.6.3 1.6 2m-62.6-4s1.6-.3 1.6-2m1.7 2s-1.6-.3-1.6-2m1.6 2s-1.6.3-1.6 2m-1.7-2s1.6.3 1.6 2m-28.8-21.5s1.6-.3 1.6-2m1.6 2s-1.6-.3-1.6-2m1.6 2s-1.6.3-1.6 2m-1.6-2s1.6.3 1.6 2m-7 35.5s1.6-.3 1.6-2m1.6 2s-1.6-.3-1.6-2m1.6 2s-1.6.3-1.6 2m-1.6-2s1.6.3 1.6 2M96 50.8s1.6-.3 1.6-2m1.7 2s-1.6-.3-1.6-2m1.6 2s-1.6.3-1.6 2m-1.7-2s1.6.3 1.6 2M173 33.5c.1 0 1.6-.3 1.6-2m1.6 2s-1.6-.3-1.6-2m1.6 2s-1.6.3-1.6 2m-1.6-2c.1 0 1.6.3 1.6 2"/></g><g fill="#FFF" stroke="#000" stroke-width=".772" stroke-linecap="round" stroke-linejoin="round" stroke-miterlimit="10"><path d="M264.8 70.3c2.5 0 2.1 15 2.1 15h-4s-.3-15 2.1-15M250.2 96c-1.3-2.1 11.8-9.5 11.8-9.5l2 3.4s-12.7 8-13.9 6m29.5.1c1.3-2.1-11.8-9.5-11.8-9.5l-2 3.4s12.7 8 13.9 6"/><circle cx="264.9" cy="87.4" r="2.9"/><path d="M266.2 90.3l1.5 21.2H262l1.5-21.2"/></g><g fill="#FFF" stroke="#000" stroke-width=".772" stroke-linecap="round" stroke-linejoin="round" stroke-miterlimit="10"><path d="M280.4 85.9c2.5 0 2.1 15 2.1 15h-4s-.3-15 2.1-15m-14.8 25.7c-1.3-2.1 11.8-9.5 11.8-9.5l2 3.4s-12.7 8-13.9 6m29.4.1c1.3-2.1-11.8-9.5-11.8-9.5l-2 3.4s12.7 8 14 6"/><circle cx="280.5" cy="102.9" r="2.9"/><path d="M281.8 105.9l1.5 21.2h-5.7l1.5-21.2"/></g><g fill="#FFF" stroke="#000" stroke-width=".772" stroke-linecap="round" stroke-linejoin="round" stroke-miterlimit="10"><path d="M99.2 69.7c2.5 0 2.1 15 2.1 15h-4s-.3-15 2.1-15M84.6 95.4c-1.3-2.1 11.8-9.5 11.8-9.5l2 3.4s-12.7 8-13.9 6m29.5.1c1.3-2.1-11.8-9.5-11.8-9.5l-2 3.4s12.7 8 13.9 6"/><circle cx="99.3" cy="86.7" r="2.9"/><path d="M100.6 89.7l1.5 21.1h-5.7l1.5-21.1"/></g><g><g fill="#FFF"><path d="M173.6 131v1.2h2.8v-4h-2.8v2.8zm0-6.9v1.2h2.8v-4h-2.8v2.8zm-1.7-12.6l8.1 10v21.7h-16.4v-21.7l8.3-10zm5.3 31.6v-7.9h-4.4v7.9h4.4zm-6.9-3.8v-4h-2.8v4h2.8zm0-7.1v-4h-2.8v4h2.8zm0-6.9v-4h-2.8v4h2.8z"/><path d="M172.8 135.3h4.4v6.4h-4.4zm.8-4.3h2.8v1.2h-2.8zm0-2.8h2.8v2.8h-2.8zm0-4.1h2.8v1.2h-2.8zm0-2.9h2.8v2.8h-2.8zm-3.3 14.1v2.8h-2.8v-2.8zm0-4.3v1.2h-2.8V131h2.8zm0-2.8v2.8h-2.8v-2.8zm0-4.1v1.2h-2.8v-1.2h2.8z"/><path d="M170.3 121.2v2.9h-2.8v-2.9zm-6.6 1.3v20.6h-16.4v-21.7l8.3-9.9 8.1 10v1zm-2.8 20.6v-7.9h-4.4v7.9h4.4zm-.9-10.9v-4h-2.8v4h2.8zm0-6.9v-4h-2.8v4h2.8zm-6.1 14v-4h-2.8v4h2.8zm0-7.1v-4h-2.8v4h2.8zm0-6.9v-4h-2.8v4h2.8z"/><path d="M156.4 135.3h4.4v6.4h-4.4zm.8-4.3h2.8v1.2h-2.8zm0-2.8h2.8v2.8h-2.8zm0-4.1h2.8v1.2h-2.8zm0-2.9h2.8v2.8h-2.8zm-6 16.9h2.8v1.2h-2.8z"/><path d="M151.2 135.3h2.8v2.8h-2.8zm0-4.3h2.8v1.2h-2.8zm0-2.8h2.8v2.8h-2.8zm0-4.1h2.8v1.2h-2.8zm0-2.9h2.8v2.8h-2.8zm-3.9.2v21.7h-16.4v-21.7l8.3-9.9 8.1 9.9zm-2.8 21.7v-7.9H140v7.9h4.5zm-.9-10.9v-4h-2.8v4h2.8zm0-6.9v-4h-2.8v4h2.8zm-6 14v-4h-2.8v4h2.8zm0-7.1v-4h-2.8v4h2.8zm0-6.9v-4h-2.8v4h2.8z"/><path d="M140 135.3h4.4v6.4H140zm.8-4.3h2.8v1.2h-2.8zm0-2.8h2.8v2.8h-2.8zm0-4.1h2.8v1.2h-2.8zm0-2.9h2.8v2.8h-2.8zm-6 14.1h2.8v2.8h-2.8zm0-4.3h2.8v1.2h-2.8zm0-2.8h2.8v2.8h-2.8zm0-4.1h2.8v1.2h-2.8zm0-2.9h2.8v2.8h-2.8z"/></g><g fill="none" stroke="#000" stroke-width=".772" stroke-linecap="round" stroke-linejoin="round" stroke-miterlimit="10"><path d="M163.7 121.5v-.1l8.2-9.9 8.1 10v21.7h-16.3v-20.7z"/><path d="M170.3 124.1v1.2h-2.8v-4.1h2.8zm-2.8 0h2.8m6.1 0v1.2h-2.8v-4.1h2.8zm-2.8 0h2.8m-6.1 6.9v1.2h-2.8v-4h2.8zm-2.8 0h2.8m0 7.1v1.2h-2.8v-4h2.8zm-2.8 0h2.8m6.1-7.1v1.2h-2.8v-4h2.8zm-2.8 0h2.8m.8 10.6v-6.3h-4.4v6.3m0 0h4.4v1.5h-4.4zm-9.1 1.6h-16.4m0-21.8l8.2-9.9 8.2 10"/><path d="M153.9 124.1v1.2h-2.7v-4.1h2.7zm-2.7 0h2.7m6.1 0v1.2h-2.8v-4.1h2.8zm-2.8 0h2.8m-6.1 6.9v1.2h-2.7v-4h2.7zm-2.7 0h2.7m0 7.1v1.2h-2.7v-4h2.7zm-2.7 0h2.7m6.1-7.1v1.2h-2.8v-4h2.8zm-2.8 0h2.8m.9 10.6v-6.3h-4.5v6.3m0 0h4.4v1.5h-4.4zm-9.1-20.2v21.8h-16.4v-21.8l8.2-9.9z"/><path d="M137.6 124.1v1.2h-2.8v-4.1h2.8zm-2.8 0h2.8m6 0v1.2h-2.8v-4.1h2.8zm-2.8 0h2.8m-6 6.9v1.2h-2.8v-4h2.8zm-2.8 0h2.8m0 7.1v1.2h-2.8v-4h2.8zm-2.8 0h2.8m6-7.1v1.2h-2.8v-4h2.8zm-2.8 0h2.8m.9 10.6v-6.3H140v6.3m0 0h4.4v1.5H140z"/></g></g><g><path fill="#F0C223" d="M99 141.5h13.3v1.3H99z"/><path fill="#F0C223" d="M112.3 117.5v24.1H99v-24.1l6.7-8.1 6.6 8.1zm-2.9 20.4v-3.5H107v3.5h2.4zm0-5.8v-3.5H107v3.5h2.4zm0-5.8v-3.5H107v3.5h2.4zm0-5.8V117H107v3.5h2.4zm-5.1 17.4v-3.5h-2.4v3.5h2.4zm0-5.8v-3.5h-2.4v3.5h2.4zm0-5.8v-3.5h-2.4v3.5h2.4zm0-5.8V117h-2.4v3.5h2.4z"/><path fill="#F0C223" d="M107 134.4h2.4v3.5H107zm0-5.8h2.4v3.5H107z"/><path fill="#FFF" d="M107 122.8h2.4v3.5H107zm0-5.8h2.4v3.5H107z"/><path fill="#F0C223" d="M101.9 134.4h2.4v3.5h-2.4zm0-5.8h2.4v3.5h-2.4zm0-5.8h2.4v3.5h-2.4zm0-5.8h2.4v3.5h-2.4z"/><g fill="none" stroke="#000" stroke-width=".772" stroke-linecap="round" stroke-linejoin="round" stroke-miterlimit="10"><path d="M112.3 141.5h.2m-13.7 0h.2m13.3 0v1.3H99v-25.3l6.7-8.1 6.6 8.1z"/><path d="M101.9 122.8h2.4v3.5h-2.4zm5.1 0h2.4v3.5H107zm-5.1-5.8h2.4v3.5h-2.4zm5.1 0h2.4v3.5H107zm-5.1 17.4h2.4v3.5h-2.4zm5.1 0h2.4v3.5H107zm-5.1-5.8h2.4v3.5h-2.4zm5.1 0h2.4v3.5H107z"/></g></g><g><path fill="#F0C223" d="M128.6 117.5v24.1h-13.3v-24.1l6.7-8.1 6.6 8.1zm-2.9 20.4v-3.5h-2.4v3.5h2.4zm0-5.8v-3.5h-2.4v3.5h2.4zm0-5.8v-3.5h-2.4v3.5h2.4zm0-5.8V117h-2.4v3.5h2.4zm-5.2 17.4v-3.5h-2.4v3.5h2.4zm0-5.8v-3.5h-2.4v3.5h2.4zm0-5.8v-3.5h-2.4v3.5h2.4zm0-5.8V117h-2.4v3.5h2.4z"/><path fill="#FFF" d="M123.3 134.4h2.4v3.5h-2.4zm0-5.8h2.4v3.5h-2.4zm0-5.8h2.4v3.5h-2.4zm0-5.8h2.4v3.5h-2.4zm-5.2 17.4h2.4v3.5h-2.4zm0-5.8h2.4v3.5h-2.4zm0-5.8h2.4v3.5h-2.4zm0-5.8h2.4v3.5h-2.4z"/><g fill="none" stroke="#000" stroke-width=".772" stroke-linecap="round" stroke-linejoin="round" stroke-miterlimit="10"><path d="M115 141.5h13.8m-.2 0v1.3h-13.4v-25.3l6.7-8.1 6.7 8.1z"/><path d="M118.1 122.8h2.4v3.5h-2.4zm5.2 0h2.4v3.5h-2.4zm-5.2-5.8h2.4v3.5h-2.4zm5.2 0h2.4v3.5h-2.4zm-5.2 17.4h2.4v3.5h-2.4zm5.2 0h2.4v3.5h-2.4zm-5.2-5.8h2.4v3.5h-2.4zm5.2 0h2.4v3.5h-2.4z"/></g></g><path fill="#F0C223" d="M162.3 164.4c.1-1.3.1-2.6.1-3.9-.8-14.1-12.5-25-26-24.2-4.9.3-9.4 2.1-13.1 4.9-2.9-6.6-8.4-11.6-15-13.8v-.4c-1-17.3-15.9-30.6-33.2-29.6-17.3 1-30.6 15.9-29.6 33.2 1 17.1 15.4 30.2 32.4 29.6.4 1.3 1 2.6 1.6 3.8"/><path fill="none" stroke="#000" stroke-width=".772" stroke-linecap="round" stroke-linejoin="round" stroke-miterlimit="10" d="M162.3 160.5c-.8-14.1-12.5-25-26-24.2-4.9.3-9.4 2.1-13.1 4.9-2.9-6.6-8.4-11.6-15-13.8v-.4c-1-17.3-15.9-30.6-33.2-29.6-4.9.3-9.4 1.7-13.4 3.9"/><path fill="#F0C223" d="M284.1 143c3.7-6.4 4-13.9 1.5-20.5-2.1-5.5-6-10.4-11.6-13.5-12.3-7-27.7-3.1-34.4 8.7-2.4 4.3-3.4 9-3 13.6-7.1-1.1-14.3.7-19.7 5.1-.1-.1-.2-.1-.3-.2-15.1-8.6-34.3-3.3-42.9 11.8"/><path fill="none" stroke="#000" stroke-width=".772" stroke-linecap="round" stroke-linejoin="round" stroke-miterlimit="10" d="M173.6 147.9c8.6-15.1 27.8-20.4 42.9-11.8.1.1.2.1.3.2 5.4-4.4 12.6-6.2 19.7-5.1-.4-4.6.6-9.3 3-13.6 6.7-11.8 22.1-15.7 34.4-8.7 0 0 9.1 5 11.6 13.5"/><path fill="#F0C223" stroke="#000" stroke-width=".772" stroke-linecap="round" stroke-linejoin="round" stroke-miterlimit="10" d="M131 162.2s3.3-14.9 16.2-9.6c.1-11.4 21.9-26 34-4.4 0 0 12.4-4.6 12.4 7.3 0 0 3.3-.3 4.3 4.1"/><path fill="#F0C223" d="M259.3 163.6c4.1-7.3 1.3-16.6-6.3-20.9-7.6-4.3-17.1-1.9-21.2 5.3-1.5 2.6-2.1 5.5-1.9 8.4-4.4-.7-8.8.4-12.1 3.1-.1 0-.1-.1-.2-.1"/><path fill="none" stroke="#000" stroke-width=".772" stroke-linecap="round" stroke-linejoin="round" stroke-miterlimit="10" d="M253.1 142.7c-7.6-4.3-17.1-1.9-21.2 5.3-1.5 2.6-2.1 5.5-1.9 8.4-4.4-.7-8.8.4-12.1 3.1-.1 0-.1-.1-.2-.1-6.4-3.6-13.9-3.2-19.7.3"/><g fill="none" stroke="#000" stroke-width=".772" stroke-linecap="round" stroke-linejoin="round" stroke-miterlimit="10"><path d="M76.5 50.6h5.8m1.4 0h3.8m1.5 0h2.3m1.3 0h1.5"/></g><g fill="none" stroke="#000" stroke-width=".772" stroke-linecap="round" stroke-linejoin="round" stroke-miterlimit="10"><path d="M196.1 33.5h-5.8m-1.5 0H185m-1.4 0h-2.3m-1.4 0h-1.4"/></g><g fill="none" stroke="#000" stroke-width=".772" stroke-linecap="round" stroke-linejoin="round" stroke-miterlimit="10"><path d="M278.9 52H273m-1.4 0h-3.8m-1.4 0H264m-1.3 0h-1.5"/></g><g fill="none" stroke="#000" stroke-width=".776" stroke-linecap="round" stroke-linejoin="round" stroke-miterlimit="10"><path d="M139.9 27v2.3m0 3.9v2.3m4.2-4.2h-2.3m-3.9 0h-2.3m7.3 3l-1.7-1.7m-2.7-2.7l-1.7-1.7m0 6.1l1.7-1.7m2.7-2.7l1.7-1.7"/></g><g fill="none" stroke="#000" stroke-width=".776" stroke-linecap="round" stroke-linejoin="round" stroke-miterlimit="10"><path d="M59.8 63.5v2.4m0 3.9v2.3m4.2-4.3h-2.3m-3.9 0h-2.3m7.3 3l-1.7-1.6m-2.7-2.8l-1.7-1.6m0 6l1.7-1.6m2.7-2.8l1.7-1.6"/></g><g fill="none" stroke="#000" stroke-width=".776" stroke-linecap="round" stroke-linejoin="round" stroke-miterlimit="10"><path d="M297.2 51.1v2.4m0 3.8v2.4m4.3-4.3h-2.4m-3.9 0h-2.3m7.3 3l-1.6-1.6m-2.8-2.8l-1.6-1.6m0 6l1.6-1.6m2.8-2.8l1.6-1.6"/></g></svg>