<svg xmlns="http://www.w3.org/2000/svg" width="357" height="190.7"><path fill="#F2F4F4" d="M0 0h357v190.7H0z"/><g fill="#E2E2E1"><path d="M226.9 98.1c-1.6-1.1-3.2-2.2-4.7-3.2l1.4-2.1c1.6 1.1 3.2 2.2 4.8 3.2l-1.5 2.1zM266.9 153.1c-1.8-.2-3.7-.5-5.8-.9l.5-2.5c2 .4 3.9.7 5.5.8l-.2 2.6zM272.9 153.1l-.4-2.6c2-.3 3.4-1 4-2l2.2 1.3c-1 1.7-3 2.8-5.8 3.3zM255.4 150.9c-1.8-.5-3.6-1-5.6-1.6l.8-2.5c1.9.6 3.7 1.1 5.5 1.6l-.7 2.5zM276.4 144.1c-.5-1.4-1.3-3-2.5-4.8l2.2-1.4c1.3 2 2.2 3.8 2.8 5.4l-2.5.8zM270.5 134.8c-1.1-1.3-2.4-2.8-3.8-4.2l1.9-1.8c1.4 1.5 2.7 3 3.9 4.4l-2 1.6zM262.8 126.5c-1.3-1.3-2.7-2.6-4.2-3.9l1.7-1.9c1.5 1.3 2.9 2.7 4.2 4l-1.7 1.8zM245.4 111.6c-1.5-1.2-3-2.3-4.5-3.5l1.6-2.1c1.6 1.2 3.1 2.4 4.6 3.5l-1.7 2.1zM236.3 104.7c-1.5-1.1-3.1-2.2-4.7-3.4l1.5-2.1c1.6 1.1 3.1 2.2 4.7 3.4l-1.5 2.1z"/></g><path fill="#E2E2E1" d="M110.4 153.8c-5.7 0-10.4-4.7-10.4-10.4s4.7-10.4 10.4-10.4 10.4 4.7 10.4 10.4-4.7 10.4-10.4 10.4zm0-18.2c-4.3 0-7.8 3.5-7.8 7.8s3.5 7.8 7.8 7.8 7.8-3.5 7.8-7.8-3.5-7.8-7.8-7.8z"/><circle fill-rule="evenodd" clip-rule="evenodd" fill="#F3D0B4" cx="110.4" cy="143.2" r="4.5"/><circle fill-rule="evenodd" clip-rule="evenodd" fill="#F3D0B4" cx="253.4" cy="116.4" r="4.5"/><path fill="#E2E2E1" d="M253.4 127c-5.7 0-10.4-4.7-10.4-10.4s4.7-10.4 10.4-10.4 10.4 4.7 10.4 10.4c0 5.8-4.6 10.4-10.4 10.4zm0-18.2c-4.3 0-7.8 3.5-7.8 7.8s3.5 7.8 7.8 7.8 7.8-3.5 7.8-7.8-3.5-7.8-7.8-7.8z"/><path fill-rule="evenodd" clip-rule="evenodd" fill="#50565F" d="M176.7 149.1c0 1 1.3 1.9 2.9 1.9 1.6 0 2.9-.8 2.9-1.9v-6.8c0-1-1.3-1.9-2.9-1.9-1.6 0-2.9.8-2.9 1.9v6.8z"/><path fill="#50565F" d="M162.6 149.1h34.2v6.3h-34.2z"/><path fill="#EBB65C" d="M179.1 142.7c-6.4 0-12.8-1.1-18.9-3.4-.9-.3-1.3-1.3-1-2.2.3-.9 1.3-1.3 2.2-1 12.7 4.7 26.5 4.2 38.9-1.4 12.4-5.7 21.8-15.8 26.5-28.5 4.7-12.7 4.2-26.5-1.4-38.9-5.7-12.4-15.8-21.8-28.5-26.5-.9-.3-1.3-1.3-1-2.2.3-.9 1.3-1.3 2.2-1 13.6 5 24.4 15.1 30.4 28.3 6 13.2 6.6 27.9 1.5 41.5-5 13.6-15.1 24.4-28.3 30.4-7.2 3.2-14.9 4.9-22.6 4.9z"/><g fill-rule="evenodd" clip-rule="evenodd"><path fill="#50565F" d="M177.9 43.8c24.5-.4 45.4 19.7 45.8 44.2.4 24.5-19.7 45.4-44.2 45.8-24.5.4-45.4-19.7-45.8-44.2-.5-24.5 19.6-45.4 44.2-45.8 24.8-.5-24.9.4 0 0z"/><path fill="#54C4CD" stroke="#54C4CD" stroke-width=".136" stroke-miterlimit="10" d="M210.6 97.9c-.8.2-3.2 3.7-4 2.1-.5-.2-1.9-1.1-2.6-1.4 0 .2.2.2.1.3-1.6-1.4-7.2-5.5-7.9-7.7.4 0 1.2 1.2 1.7 1 .1-.4-.3-1 0-1.3 0 .9 4.2 4.3 5.1 4.9 2.1-1.1 3.6 7.1 5.6 1.7 1.1-.1 4.1-5.4 3.6-5.8.7-3.1-2.2-1.9-2-3.9-.5.4-.2 1.7-.8 2.2-2 .5-.4-.2-1.7-.8-.1.4.1.6.1 1-1.1-1.4-2.4-2.8-3.8-3 2-.8 5 .9 7.3.8.8-.9 4.7-1.1 4.7-1.2-.2.7.8.6.7.1.3.3-.2.7-.4.7 1 1.3 1.4.2 1.2-.8 0 .1.1.1.2 0-.1 1.4 1.8 5.8 3 6.8.9-.7.8-8.2.9-9.4 0 .2 0 .2.1.3 0-.1 0-.1.1 0 .2-.8.2-.5.1-1.3.1 0 0 .3.2.1.2.4.3.8.5 1.2v-.3c.1.5.4 1.4.6 2.2v-.3.4s0-.4.1 0c0-.5.1-.6 0-1.2.5 2 .5 3.4.5 5 .1-1.7-.2-1.6-.1-3.7V86.9c.1.3 0-.1 0 .4-.1-1.6-.2-3.3-.4-4.9-1.4-8-4.5-15.7-9.8-22.1-3.4-4.2-9.1-7.7-12.4-10.4-.3-.2-.5-.3-.8-.4.1.1.2.1.3.2 0 .1-.5-.3-.6-.3.3.2-.1 0-.2-.1.4.3.9.5.4.4.1.1.2.2.4.2-.1 0-.1 0 0 .1.1-.2-1.9-1.4-2.5-1.7-.1 0-.2-.1-.2-.1.1 0 .4.1.4.2.1.1.1.1.1 0-.3-.2-.7-.3-1-.5.1 0 .2.1.2.1-.5-.2-1.3-.5-1.5-.6 0 .1-.2 0-.2 0 .1.1.3.1.4.2 0 0-2.3-.8-2.5-.9.1 0 .1 0 .1.1.5.3 1.1.4 1.7.8-.1 0-.8-.2-.9-.1.3.1.7.1.9.4-.1 0-.1 0-.1-.1-.2-.1-.3-.2-.5-.2 0 .1.1.1.1.1-.3 0-.1-.1-.1.1-.1-.1-.4-.2-1-.2.1.1.1.1-.1 0v.1c.2.2.3 0 .5.1-.1 0-.2 0-.1.1-.4.1-.4.5-.6.5.2.2.2.2.5.4-.2-.1-.4-.2-.5-.2.2.2.6.4.9.3-.1.2-.2 0-.3 0 .3.2 1.3.8 1.6.8h-2.1c.7.6 3.9 2.3 4.2 2.4.3.2.9.2 1.2.4-.3.4-1.5-.8-1.7-.9.2.2 0 .2.2.4-1.2-.2-1.4-1.4-3.3-1.4-.1.2 0 .2-.1.3.2.1.4-.1.7.2-.3.1-.6-.3-.8.1.6.3 1.3.5 2 .5-.4 0-3.5-.6-3.3-1.1 1.4.9 4.6 4.3 6.4 3.6-.1.1-.3.1-.2.2-.8 0-1.3-.9-2.2-.8-.1.6 1.8 1.5 1.2 2.4-.4-.2-1.4-.1-1.8-.1.3-.6 1 0 1.2-.1.1-2.4-4.7-3.9-6.4-5 .1 0 .1-.1-.1-.1.8 1.4 2.4 4 4 3.3-.2.1.1.5.2.7-.7.1-3.7-.4-4.4-.6.3.5.5.6 1.2.9-.7-.1-.3.4-.3.6-.3 0-.7-.3-.7-.5-1 .4-1.1 1.4-2 1.4.1-.4.1-.4-.3-.5.1-.1.3-.1.3-.3-.2.1-.6.8-.5.4-.3.6.2.1 0 .6-.6-.3-1.5.8-.8 1-.2-.1-.5 0-.7.2 1 .7-.9 1.4-1.2.4.1 0 .3-.3.5-.4-.1-.6-1.7-.5-2.1-.3 1.3.6 1.4 1.4 2.4 2.4-1.1-.7-2.7.9-1 1.9-.3 0-2.1-.2-2.3 0 .4.6 1 .3 1.4.9-1 .4-2.3-.8-2.8-.6.3-.9-1.1-.9-1.5-.7.4-.4-.1-.5-.5-.5 1.1-.5 7.4-.1 2.8-2.4 0 .1 0 .2.1.2-.3-.1-4.2-.7-3.6.3-.1-.1-.2-.3-.1-.4-.1 0-.8.4-.8-.1.2 0 .3.2.5-.1-.2-.1-.5-.1-.7-.1-.1.1 0 .4 0 .5-.1-.1-1.7.1-1.7-.1.8-.4.6-.2 1.2-.7-.6-.2-1.1-.1-1.5 0 .1.1.1.5.1.6-.2-.2-.2-.1-.4 0 .1-.3.1-.5-.1-.2 0-.2.1-.2-.1-.2 0 .1.3-.2.3-.3-.2 0-.3.2-.3-.1 0 .1-.1.1-.2.1-.2.3.2.6 0 .9-.2 0-.1.1-.3.1 0-.4 0-.3-.2-.6-.3.3 0 .8-.2 1.2-.2-.3-.2-.6-.1-.9h-.3c0 .2-.3.3-.4.3.3.3 0 .6.1 1.1-.4.1-.7-.3-1.2.1.2.2.6 0 .7.4-.4-.1-1 .2-.4.3-.2 0-.4.2-.3.4 0-.2.1-.6-.2-.7-.1.4 0 .4-.1.7 0-.1-.1-.3-.1-.4-.1.1-.1.2-.2.3.2.1.3.2.4.4-.1 0-.1-.1-.1-.2-.4 0-.2-.3-.5 0 .1.1.2.1.3.1-.1.1-.2 0-.1.2-.1-.1-.2-.2-.4-.2.2.7-.3.6-.5 1.3.2 0 .5-.3.6-.2 0 .1-.1.3 0 .3-.4-.2-.3.1-.6.1.2.1.2.3.3.4-.4-.1-.3-.5-.7-.1.2.1.3-.1.4.1 0 .1-.3 0-.4.2.1.1.1.1.1.3 0-.2.1-.3.3-.2-.1.2 0 .3.1.3-.3.1-.3-.1-.4.1.2.1.1.1-.1.1.2.2.3 0 .6.2-1.1 0-.8 1.3-.5 1.1 0 .3-.5.2-.4.4.1 0 .4.8.4.8 0 .8-.6 1.5-1 2.2.3-.2 0 0 .3.1.4-.4.2-.8.8-1.2-.3.4-.3 2-1.1 1.1-.2.3-.2.7-.5.7.1.1.2.1.3.1-.1.1-.1.1.1.1-.2.1-.3 0-.5-.1.2.2.2.2.5.3-.4 0-.6-.1-1 .1.2.4.3.1.6.1-.4.5-.5.2-.9.4.2.1.4.1.6.1v.1s-.8.5-.9.5c0 0 .1.1 0 .1.1.1.7-.2.9-.2-.3.4-.6.2-.9.5.2-.1.3 0 .2.2.1 0 .3 0 .4-.2-.1.2-.2.2-.4.4.2-.1.2-.1.1.1.5.4 1.3-.8 1.3-.7 0 .1 0 .2.1.2-.1.2-.7.9-1.3.7.1.2.1.2.3 0 0 .2-.1.3-.1.4.2 0 .2-.3.3-.4-.1 0 .1.7.2.7 0-.2.3-.9.6-.6-.1 0-.5 1-.6 1.3.4.2.3.1.4-.2 0 .1.1.1.1.1 0 .3 0 .3.4.3-.2.1-.2.2-.1.3h-.5c-.2 1.5 3.8-.4 1.9-1.2.2.1.5.4.7.3 0 0-.1-1 0-1.2.4.3.1.7.8.6-.3.4.2 1.1.4.6 1.5 4.4 3.9.5 2.9-1.4-.3 0-.2.1-.5 0 2-.3.5-1.4-.4-1.4 0-.2-.6-2.9-.3-2.9.9-1.2 1-1.6.4-2.8.3.2.2-.3 0-.5 0 0 2.4-1.2 2.5.2-.5-.1-1.4 2.3-1.3 2.7 1.4 1.2 1.5 1.6 2.6 2.3.1-.4 1.2-.8 1-1.3 0 .1.1.3.2.3.2-.1 0-.3 0-.4.6.3 1.1-.5 1.5-.6 0 .2.3.3-.1.2.3.2 1.2 0 1.2.3-.6.1-1.6 1.7-2.3 1.1 0-.1-.7 2.7-.1 1.4.1.5.7 1.1.1 1.5-.3-.1-.6-.3-.8-.6-.6 1.3 0 1.2 0 2.6.1-.2 0-.2.1-.4.1.2.1.4.1.6-.2-.1-.8.1-.6.4.1-.1.2-.2.3-.2-.1.2-.4.6-.6.7 0-.1.2-.4.2-.4-.4.5-1 .1-.6.1-1-.3-1.8 1.7-2.5 2-.2-.2-.5-.6-.8-.6.1.1-.5.9-1.2 1.1.1-.2.3-.4.1-.5.2.6-2.4-.3-.7-1.4-.1-.2-.4-.3-.7-.2.2-.4-.1-.8-.1-1.2-.1.2-1.1 1.3-.9 1.5.1-.1.2-.1.3 0-.4-.4.2-.5.4-.6 0 0-.4.3.1.6-.4.1-.2 0-.4-.2-.1.4.1.4-.4.3.2.8 1 2.1 1.5 2.3-.2.3-.3.1-.2.6-.5-.4 0-.2-.2.1-.3-.3-.3-.4-.7.1.3.3.2-.1.4.3-1.1-.9-2.2 1.7-1.3 2.1h-.5c.1 0 .2.1.4.1-.4.3-1.7 2.2-1.4 2.3-.5.6-.9.1-1.4.3.1.2.4.7.6.7-.6.4-1.8.2-1.9 1 .1-.1.3-.1.4 0-.8.1 1.6.3 1.7.4-.8.3 1.4 1 .6.9.3.2.6.5 1 .6-.3 0-.4-.2-.6-.3-.6.5.7 3.3-2.4 2.6-.8.7-1.2.3-1.8 1.3.7.8.8 1.7 1 3.5.3 0 .9.1.8 1.2 6.1-.1 3.6-4.2 5.8-8.1 2.1.2 1.8-1.9 3.4-1.8.1 0 2.4 1.3 2.8 1.5 2.3-.5 2.1 1.2 3.1 2.1 1.1-.4-.2-1.8-.1-2.4.5-.1.5 0 1 .3 0 .2-8.4-4.3-4.4-2.9V84c.9.2 2.1 1.3 2.3 1.3 2.4.7 3.5 2 5.7 2.5-.4.4-.9-.1-1.1.5.8.4.9.4 1.4.8-.1-.5 0-.4.4-.3l-.6-.6h.6c-.2-.1-.3-.2-.5-.3.3-.2.3-.1.6-.1-.2-.5-.6-.6-1.2-.6 0-.1 0-.7.2-.3 0-.5-1.3-.5-.7-1.2.1.2.3.4.6.4-.7-.3.1-.1.2-.1-.1-.2-.4-.5.1-.2-.1-.2-.3-.1-.5-.2.5-.8 1-.4 1.8-.7-.1.3-.2.1-.1.5.3-.5 1.2-1.1 1.3-1.5-2.9-.5-.8-5.2-.3-5-.3.5.8.5 1 .1 0 .2.1.2.3.2-.3.1-.4.3-.4.6.7-.2 2 .6 2.3-1.1-.8.4-.7-.1-1.4 0 0 .2.5.4.7.5-.1.1-1.2-.2-1.3-.3.1-.1.9-.3.7-.7.3.1-.1.2.1.3.2-.2.1-.3-.1-.5.5.3 1.5-1 2-1.3.2.4-.3.8-.5.9.2.2.3.2.6.2-.2.3-.5.8-.6.9.1.1.1.2-.1.3 2.6.3 5 .7 2.7 3-1.5-.1-5.1.2-5.7 2 .4.2.3.1.6.1-.3.3-.7.2-.3.4-.1.1-2.5.8-1.4 1.4.6-.3 1 .5.4.6.1.2.1.2.1.4.3.2 1.1.3 1 .7.2.1.4-.1.6-.2-.1.3-.3.2-.4.4 1.6.4 3.5-1.9 5.3-2.3.3.6.8 1.8.6 2.6-.1.8-1.1 2.5-1.1 2.6-.1-.1-.6-.2-.3-.3-.8-.3-2.7 1.2-4 1.3 0 0-5.6-.2-3.3 1.8 0 1.1-6.2.9-6.6.4-.4.7-.8-2.1-1.1-2.5-.1.3-9.7 4.8-9.8 4.6-.7.5-1.9 4.5-1.1 5.1.1.4-1.9 5.8-2.2 6.3-1 .5 2.4 6.2 3.6 6.4-.7.4 0 0-.2.4 1.5-.7 6.5 5.2 9.1 1 2.5-.7 4.5-2.4 7.1-1.9 1.6-1.3 1.2 1.9 1.9 1.9-.2.2-.2.8-.5.7.2.2.8.3.8.4-.1.1-.2.1-.4 0 .6.4 3.9 1.3 3.6 2.7.3-.5.7 3.8.2 3.7 1.4.6 4.6 3.8 5 4.6.4.7 5.5-3.5 5.8-4.2 1.8-1.5 1.6-3.8 1.9-4.9.3-.3 2.6-3.1 2.4-3.3.6-.5-1.1-2.7-.8-3.1-.7-.4 4.3-11.8 3.8-13.9zm13-6.6c0 .3 0 .6-.1.9 0-.7.4-1.6.1-.9zm-57.9 40.6c-9.1-2.7-15.6-8.8-20.6-13.4-.1.1.3.4.3.5 0 0-.1 0 0 0-.5-.5-.7-.7-1.4-1.5l.3.3c-.6-.7-1.7-2.3-2-2.5.5.5.6.7 1.4 1.7l-.2-.2c.5.6 1.1 1.4 1.4 1.7-.2-.3.7.5.9.7.1 0-.7-.9-.5-1.1.3.3.3-.2.3-.3.1 0 .1 0 0-.1.4.2.5 1.2 1 1.4-.1-.8-.7-.4-.2-.9-.2-.1-.3-.1-.3-.4 1.1.7 1.5 1 2.7.8-.2.2.6.9.7.9.5.2 4.9 2 4.9 2 .2-.2 1.1.8 1 .7.2.3.3 1.2.5 1.4-.2-.4.1-.1.2.1-.1-.1.1-.4.1-.5 1 .1 1.4.4.4.7.6.2.4.2.9.6-1.1-1.5 1.6-1.2 2-.3.7-1.2 8.3.9 5.6 3.5-.2-.2.4.1-.1-.2.1.1.1.1 0 .1.3.4 2 2.2 1.8 2.8-.6.1-.9.1-1.4.2 0-.1-.3.6-.7.4v.1c.5.2 1.1.8.8.7h.1c-.1-.1 0 0 0 0-.2-.1-.2-.1 0 0-.2-.1-.3-.1-.5-.2.2.1.3.1.4.2-.5-.1.1.1.2.1zm-23.7-17l-1.2-1.8c.1.1 0 0 0 0 .1.1.1 0 0 0 .4.6.7 1.1.8 1.3-.3-.5.3.3.4.5 0-.1 0-.1 0 0zm-3.4-5.6c-4.2-8.2-5.7-17.7-4.5-26.7 0 .2.1-1 .1-.5 0-.1-.1.6 0 0-.2 1.1-.1.7-.2 1.4.1-1 .3-1.5.4-2.4 0 .1 0 .2-.1.3.1-.9.4-2.2.7-3.5 0 .2-.1.4 0 .1 0 .1 0 .1 0 0-.3 1.1-.3 1.5-.5 2.3v.1c0-.1.1-.2.1-.3 0 .2 0 .1 0 0-.1 0-.2 1.1-.2 1.3.1-.5.1-.7.3-1.3 0 .6 0 1.4-.2 2 .2 0 .6-2.9.7-3.2.1 0 0 .2.2 0-.2.7.3 2.2-.6 3.7v-.5c0 .2-.1.2-.1-.1 0 .1-.1.4 0 .1v.6c-.2 0 0-.2-.1.1 0-.1 0-.2-.1 0v-.2-.1c0 .2-.1.2-.1.1-.2.4.1 1.1-.3 1.5 0-.2 0-.3-.1-.5 0 .1 0 .2-.1.1 0 .1 0 .1-.1.1 0 .1 0 0 .1 0 .5 0-.1 1.8-.1 1.5V85.4c0 .6 0 .4-.1.8 0-.2-.1-.2-.1-.4v.2c.1 0 0 .7 0 .9v-.5c-.1 1.2 0 2.9 0 4.9 0-.2-.1-.5 0-.7 0 .5.1 1 .1 1.6 0-.3 0-.1.1-.5 0 .1 0 .1.1.1.1.6.5.6.5 1.3 0-.2.2-.3.2-.4.1.1 0 0 .2 0 .1 1.3.6 2.3.6 3.2.1-.3.1-.4.2 0-.1-.2-.1-.5-.1-.7 0 .2 0 .5.3.5-.7.1-.2-10.4-.2-10.1.2-.3.2-.1.4-.6.5.5.2.6.4 1 0 0 .2-.1.3-.2 0 .1-.1.1 0 .3 0-.2 0-.3.1-.4.2.8-.2.9-.4 1.4.7-.6.4 1 .3 1.1.4-.3 0 0 .1 0 0-.2 0-.3.2-.4.2.2.1.6 0 .9.2-.2.1-.5.2-.7v.5c.1-.1.1-.2.1-.4 0 .1 0 .4.1.6-.2-.4.2-.8.3-1.2.1.1.1.3.1.5.1-1.1.4-1 .2-2.4.4.4.2 1.2.3 1.6 0-.1.1-.2.2-.2 0 .2-.1.4.1.2.1.3-.1.3-.2.6.1-.1.2-.3.3-.4.1.3-.1.4-.2.6.3-.4.2-.1.5-.1-.2.1.1.4-.2.4.2.2.6 1 .2 1.3.5-.2.6.3.6-.1.1.3 0 .5 0 .9.1-.4 0-.3.1 0 0-.2.1-.3.1-.4 0 .1-.1.4.1.1.2.1.1.3-.1.5.1 0 .2-.4.3-.6.1.5.3-.1.6.3-.2 0-.6.5-.7.8.1 0 .1-.1.2-.2-.2 0-.4.8-.3 1 .3-.2.6-1.2.6-1.2.5-.2.4.1.3.5.1-.2.1-.2.1 0 .1 0 .2-.6.4-.2 0 0 .2.7-.1.8.8.3-.7 2.1-1.3 2.8-2.1.3-.9 1.5-2.2 3.8.9-1.1 1.8-3.7 1-1.4.2-.2.3-.1.4.1.1-.3 0-.3.2-.3 0 1.3.8 1.3 1.5 1.5 0 .3-.7.7-.8.7-.2.2-.1.8-.2 1.1-.4-.4-.3-1.5.3-1.6-.1 0-.3.2-.4.2 0 0 0-.4.1-.4 0 .1-.1.1-.1 0 0 .7-.4.7-.7.8.2.1-.8 2.7-.1 2.5.2-.1.1.3 0 .4-.1 0-.1.2-.3-.1 0-.1-.5 2.3-.2 2.2 0 0-.2-.5-.3-.6 0-.1 0-.1 0 0 .1.7.5 1.1.5 1.8-.2-.5-.3-.9-.5-1.5-.1.1.2.9.3 1-.1-.2-.2-.2-.2-.2.2.3.5 1.4.5 1.4.1.1.1.2.1.3.2-.1.2.2.2-.1.1.1.1.2.1.4l-.2-.1c.3.5 1 3.7 1.8 5.5 0 0-.1-.1 0 0-.7-.8-.9-1.2-1.3-2.1-.2-.4-.5-.3-.7-.7.1.2-.1-.1-.1-.2.1.3.2.3.1.2 0 .1 0 .1 0 0 .1.3.2.4.4.7-.1-.1-.1-.2-.2-.3.1.4-.3-.4-.3-.3zm-4.4-27.5s.1-.7.2-1.1v.1c-.1.4-.1.7-.2 1zm.2-1.1c0-.1 0-.1 0 0zm.5-2.5s.1-.4 0 0zm.1-.2zm.2-1c-.1.4-.2.6-.2.9.1-.3.9-2.8.9-2.8V75c-.2.5-.1.2-.1.2 0 .1-.1.2-.1.3.4-1.3-2 7.3-.5 1.5zm1.4-4.2c.1-.3.3-.7.4-1-.1.3-.1.2-.4 1 .1-.3 0 0 .1-.2.1.1-.1.2-.1.4l.1-.3c-.1.3 0 0 .1-.1 0 .1 0 .2-.1.3 0 0 .6-1.3.8-1.3 0 .1-.1.3.1 0-.1.8-.2.6-.6 1.7 0 0-.1 0-.1.1 0 0 .1-.2-.1 0l.1-.4v-.1s-.2.7-.3.7c0 0 0-.2.1-.2-.1.2-.1.4 0 .1-.2.5-.1.2-.1.2-.1.3 0 .1-.2.4 0-.1 0-.1 0 0 0-.1 0-.1 0 0 0-.2.1-.3.2-.5-.1.2-.1.4 0 .1 0 .1-.2.5-.2.5 0-.1.1-.2.1-.3 0 .1-.1.2-.1.3-.1-.5.1-1 .2-1.4zm.7-1.7c.1-.1-.1.2 0 0zm0-.1c.4-.9 0 0 0 0 .1-.1 0 0 0 0zm.7-1.4c.1-.3.3-.5.4-.8-.1.2-.1.2-.2.5.3-.8-.4.8-.2.3zm.4-.9c.1-.2.5-.9.8-1.5 0 .1-.3.5-.1.3 0 0 .1-.1.1-.2-.3.4-.5.9-.8 1.4zm.9-1.7c-.1.2-.2.5-.4.8 0 0 0-.1-.1.2.1-.2.2-.4.4-.6 0 .1-1.2 2-1.1 2l-.1.1c.1-.1.2-.3.2-.4 0 .1-.1.2-.2.3.2-.3.3-.6.4-.9-.3.6-.3.5-.5 1 .2-.3 0 .1-.1.2.1-.3.1-.2 0 .1.2-.3.4-.7.5-1l-.6 1.2c-.1 0 0 .1-.1.1 0 0 .2-.4.1-.4s-.8 1.6-1 2.3c.1-.2.1-.4.2-.5 0-.1-.2.5-.2.5 0-.1.1-.1 0 0 0-.1.1-.2.1-.3l-.1.3c0-.1.1-.3.1-.4l-.1.3c.1-.1.1-.1.1 0 .1-.1.4-.7.3-.7 0 .1-.1.2-.1.3.1-.1.1-.4.2-.5-.1.1-.1.3-.1.4.1-.2.2-.4.2-.6 0 0-.2.4 0 .1 0 .1-.1.2-.1.2.3-.3 0-.1 0 .2.1 0 .5-.8.4-.8-.1.5.2-.4.3-.6 0 .1-.2.4-.2.3.1-.2.1-.3 0-.1 0-.1.1-.3.2-.4 0 0-.3.5-.4.5.1-.2.2-.5.3-.7 0 .1-.1.2-.1.3.1 0 1-1.5 1.2-1.9-.4.5.6-1 .5-1-.1 0-.2.3 0 0 0 0-.2.2-.2.3 0-.1 0-.1 0 0l.1-.1c.1-.1.2-.2.2-.3-.1.1-.1.2-.2.2 0 0 0-.1.1-.1l.5-.5c-.1.2-.3.3-.4.4 0-.1 0-.1 0 0 .1 0 1.4-1.9 1.4-1.9-.1.1-.1.2-.2.2.5-.6 1.5-1.8 2.3-3-.4.4-.8.8-1.1 1.3 0-.1 0-.1 0 0 .2-.4.5-.6.9-1.1-.1.1-.2.2-.3.2.2-.1.2-.1.1-.1.3-.6 1.4-1.3 1.8-2.1-.1-.1-.2.2-.3.3l.4-.6c-.1.1-.4.5-.1.1-.3.3-.5.6-1 1.1.3-.3.5-.6.8-.9l-.5.5c.3-.3-.1.2.1-.2l-.4.4c0-.1-.5.6-1 1.2l.2-.2c-.8 1-1.6 2.2-2.3 3.3 0-.1 0-.2.1-.2-.2.4-.5.7-.7 1.1.4-.6.2-.4.5-.8 0 .1-.3.6-.4.6.5-.8.8-1.3 1.4-2-.2.4-.5.7-.7 1.1-.1-.1.4-.3.3-.3-.2.3-.4.5-.6.8l.1-.2c-.4.5-.8 1.3-.9 1.5.1-.1 0 0 0 0s.1-.3.2-.4c0 0-.1.2-.1.1-.2.4-.3.5-.4.7.2-.4.2-.3.2-.3zm27.1-16.5c.7 0 0 0 0 0 .1 0 0 0 0 0zm.3 1.1c1 .2 2.8-.2 2.5-1.5-1.2.4-1.2.3-1.8.2 0 .1.2.2-.1.1 0 .1.3.3.3.5-.5-.2-.8 0-1.2-.2-.1.2 0 .4.1.5-.2-.1-.4-.1-.5.1.5.3.8.2 1.6-.2.1.2-.3.2-.5.3.6 0-.1 0-.4.2zm-2.7 1.9c.1.2.6.5.8.4-.1-.1-.7-.4-.8-.4zm3.4 1.4c-.2.5-.3-.5-.3-.4-.5.2-.7.1-1.2-.1.1-.1 0-.1-.1-.1.2-.2.5-.1.8-.3-.1 0-.5.2-.5 0 .3-.1.4-.3.7-.4 0-.1.1-.1.1-.2-.4.1-.8.5-1.2.7-.3-.4.6-.9.9-1.2-.6.1-.1.1-.4-.1-.1 0 0 .4-.3.4-.1-.2 0-.2-.2-.4-.1.4.1 0-.2.2.3.4.3.5-.3.7.1-.2-.9-.3-1.1-.5.2 0 .3.1.4-.1-.3.1-.3 0-.3-.3-.3.2 0 .1-.2.3 0-.1-.3-.2-.3-.3.4-.4-.1-.3.5-.3 0-.1.1-.7.6-.4-.1.1-.3.2-.4.4.4 0 .2 0 .7.1-.2-.3-.2-.2-.1-.6.3 0 .8.8 1 .5-.4-.3-.5-.7-.7-.9.4-.6.7.3 1 .3-.1.1 1.5-.5 1.6.1-.5.5-.5 2.9-.5 2.9zm-.1-2.9c.3.3.3-.4 0 0zm1.2.4c-.2-.2-.6-.5-.8.1.6-.1.2.2.8-.1zm.8.9c.3-.6-.6.1-.7.2-.1-.5.3-.6-.3-.7.5-.7 1-.4 1.7-.3-.4.1-.5.9-.7.8zm.8-1.9c-.6 0 0 .1 0 0-.1 0 0 0 0 0zm.1-.2c.3-1.1.2.4 0 0 .1-.1 0 0 0 0zm-1-1.2c.1.2.3-.1 0 0zm1.4-.4c.6-.7.4.1 0 0 0-.1 0 0 0 0zm5.1-2.8c-.5 0 .2 0 0 0-.1 0 0 0 0 0zm-.5.5c.7.2-.3 0-.9.4.3.2.6.1.9.1 0-.2-.8-.3 0-.5zm.9.6c-.1 0-1-.1-.4-.3-.3 0-.3 0-.5-.1.7-.4.5-.1.5-.4.1 0 .1-.1.2-.1.2.2.1 0 .2-.1 0 .4.2.2.6.2-.8.4-.3.4-.6.8zm.6-.3c0-.3-.6 0 0 0zm.1.1s0-.2 0 0zm.2-1.8c.5-.4-.6-.1 0 0 0-.1 0 0 0 0zm1 0c.1-.1.1 0 0 0zm-.9 0c-.2-.1 0-.1 0 0zm.3 0c-.4.4-.7-.1 0 0-.1.1 0 0 0 0zm.2.1c-.2-.1 0-.2 0 0-.1 0 0 0 0 0zm-.3.3c.3-.4-1 .3 0 0 0-.1 0 0 0 0zm.3-.1c-.5.2 0-.2 0 0-.1.1 0 0 0 0zm.4.1c-.6 0 0-.2 0 0-.1 0 0 0 0 0zm.1.1c.1-.1.2 0 0 0zm-.2 0c0-.1-1.5-.2 0 0zm-.1.1c.8.1-.6-.1-.9 0-.1.1.9.1.9 0zm0 .2c-.2 0 .6-.4 0 0-.1 0 0 0 0 0zm-.5 0c-.7-.1.6-.2 0 0zm0 .3c-.3-.2.1.1 0 0zm.2 0c-.4-.1-.2-.2 0 0-.1 0 0 0 0 0zm.1-.1c-.3-.1.4 0 0 0zm0 .1c.2 0 0-.2 0 0 .1 0 0 0 0 0zm.4-.1c.3 0 0-.2 0 0 .1 0 0 0 0 0zm-.2 0c0-.1.1 0 0 0zm.1.1c.4-.4 0 .3 0 0zm-.1.2c-.3-.2 0-.1 0 0zm-.4.1c.1-.1.3 0 0 0zm.8-.7c.3 0 .3-.1 0 0 .1 0 0 0 0 0zm.6.4c-.8-.3-.5.2 0 0-.1-.1 0 0 0 0zm.2-.1c0 .1-.4-.3-.4-.3.9.1.1.2.4.3zm.4.1c.5 0 .1 0 0 0 .1 0 0 0 0 0zm0-.1c0 .6.7-.7 0 0zm-.7-.7c0 .5.9.2 1.1.1-.7-.2-.3 0-.3-.2-.5-.1-.3.1-.8.1zm-.3-.1c.6-.3.7.1 0 0 .1 0 0 0 0 0zm-.2-.5c.5 0 .4-.2 0 0 .1 0 0 0 0 0zm.8.2c-.2 0 .8-.4.8 0-.3.1-.2.3-.8 0zm5.9.2c.8.1.1-.2 0 0 .2 0 0 0 0 0zm-1.1-.8c-.3-.1.9.1 0 0zm2-.5c.4-.1.5.2 0 0 .1 0 0 0 0 0zm1.7.4c0 .1 1.1 0 1.2 0 0-.1-2-.5-2-.5 0 .1.8.4.8.5zm.2.1c.3 0 .7-.1 1 .2-.2.1-.5 0-.1 0 0 0-.7-.1-.9-.2zm2.8.4c.4.1-1.1-.4-1.2-.4l.3.1c-.1 0 0 .1.1.1h-.1c0-.1-.9-.3-.9-.2 0 0 0 .1-.1 0 0 .2 2.5.8 2.6.6.3.2-.6-.1-.7-.2zm2.3.8c-.8-.2-1-.5-1.7-.7 0 0 .2.1.3.1 0 0-.2-.1-.3-.1 0-.1.7.2.7.2l-.2-.1c.8.2 1.3.8 1.2.6zm-51.4 23c.1-.2.6-.1 0 0zm.1.7c.1-.2.3-.1 0 0 0-.1 0 0 0 0zm0 .2c.2-.2-.1 0 0 0zm.1.3c-.1-.1.1-.3 0 0zm0 .3s-.1.1 0 0zm0 0c.1.1.1-.1 0 0zm0 .5c.4-.8-.2.2 0 0 .1-.2 0 0 0 0zm.1-.1c.1-.4 0 0 0 0 0-.1 0 0 0 0zm-.1.1c.1 0 .1 0 0 0zm-.1.1c-.1.2.1-.1 0 0zm-.1.5c.2-.6.2 0 0 0 .1-.1 0 0 0 0zm0 .2c0 .2.2.1 0 0 0 .1 0 0 0 0zm.6.2c-.1-.1.3-.6 0 0zm-.1.2c.1.8-.3-.1 0 0 0 .1 0 0 0 0zm.1 0c.1.5.4-.4 0 0 0 .1 0 0 0 0zm.2.3s.3 0 0 0zm.1.2c.1.2.2-.1 0 0zm.1 1.1c.1-.6.2-.2 0 0 0-.1 0 0 0 0zm-1-.5c-.1.2.2.1 0 0zm.4 1.2c.8-1 0-1-.3-.6 0 .1.1.9.3.6zm.1.6c.2-.1.1-.1 0 0 .1 0 0 0 0 0zm.2-.1c.1 0 .1-.3 0 0zm-.3 0c.2-.4.3.1 0 0 .1 0 0 0 0 0zm-.1.2c.2.1.2-.2 0 0 .1.1 0 0 0 0zm0 .2c0 .2.3-.2 0 0zm-.2.9c.1-.4.1 0 0 0 0-.1 0 0 0 0zm0 .7c0 .2.1.1 0 0 0 .1 0 0 0 0zm-.1.3c.1 0 .1-.3 0 0zm.2-.1c0-.1.1-.1 0 0zm-.1.1c.2-.1.1 0 0 0 .1 0 0 0 0 0zm.1.8c-.1-.3.1.1 0 0zm0 .3c.3.1-.1 0 0 0zm.6 1.1c.3-.7.1 0 0 0 .1-.1 0 0 0 0zm0-.1c.1 0 .2-.5 0 0zm.3 1.2c-.1-.1 0-.1 0 0-.1 0 0 0 0 0zm.1.2c0-.2.2-.1 0 0zm.2.5c.1-.2-.1 0 0 0zm.1 0zm.3.8c.1-.2.1 0 0 0 0-.1 0 0 0 0zm-.1 0c.1-.1 0-.1 0 0zm.5.5c-.3-.1.1 0 0 0zm.4-.4c-.2.2 0-.3 0 0-.1.1 0 0 0 0zm.1-.1c.2-.3.1.1 0 0zm.5.6c-.1-.1 0-.4 0 0 0-.1 0 0 0 0zm.5.1c.1-.4.3 0 0 0 0-.1 0 0 0 0zm-.1-.4c0 .5.3 0 0 0 0 .1 0 0 0 0zm.2 0c0 .1.3.1 0 0zm.3-1c0 .1.1.1 0 0 0 .1 0 0 0 0zm0-1.9c.5.1.1-.2 0 0 .1 0 0 0 0 0zm.2-1c0 .1.6.2 0 0 0 .1 0 0 0 0zm.3-1.5c.6.2.1.1 0 0 .1 0 0 0 0 0zm1.5-1.5c-.3-.1.3-.2 0 0zm-.2.2c-.2 0 0-.5 0 0-.1 0 0 0 0 0zm4.6-8.1c-.2-.2 0 0 0 0-.1 0 0 0 0 0zm-.4.8c.1-.1.2 0 0 0zm-.7.3c.2.2 1.1-.7 1.1-1 0 0-.1-.1-.2-.1-.2.3-.9.7-.9 1.1zm1-3.3c.1-.2.1.2 0 0zm.2-.1c.3-.2.8-.2 1 0-.1.1-.3-.1-.4.2.3 0 .3 0 .3.2-.3 0-.7 0-.9-.4zm0-.1c.3-.2.6-.4 1.1-.4-.1.1-.1.1 0 .2-.1 0-1 .2-1.1.2zm.4-.5c-.7.4-.3.1.3 0-.2.4-.8.4-1.1.4 0-.4.4-.4.8-.4zm.8-.2c.1-.3.1.1 0 0zm-.2-1.4c.3-.2.6-.4.5.1-.3.2-.6.2-.5-.1zm1.2-.8c-.1-.1.2-.2 0 0-.1 0 0 0 0 0zm-.2.2c-.2-.2.3-.3 0 0-.1 0 0 0 0 0zm0-1c.6-.4.1 0 .6-.1.1.1.1.2 0 .3-.4.3-.5.2-.6-.2zm-.6.7c.3-.4.1.7 0 0zm.4-2c.6.6.3.4 0 0zm-.5.5c.1.1.2-.2 0 0zm0 .1c0 .1.1-.1 0 0zm-.1 0c.1 0 0 0 0 0zm-.1-.1c-.1.3.3-.2 0 0zm-.1-.1c.1.1.2-.1 0 0zm1.1-1.6c-.2-.3.3-.5 0 0 0-.1 0 0 0 0zm-.5 0c-.5-.1.2-.1 0 0-.1 0 0 0 0 0zm.1-.4s.2-.3 0 0zm.1-.2c-.1-.2 0-.1 0 0-.1 0 0 0 0 0zm.3-1c-.3-.1.5-.6 0 0-.1-.1 0 0 0 0zm-.5-1c0-.4.5-.2 0 0zm.3-1.8c.1.1 0-.3 0 0zm.2-.1c.1-.2-.1-.1 0 0zm.3-.3c-.2-.3-.1-.1 0 0zm-.5.2c.3-.5.1.2 0 0 0-.1 0 0 0 0zm-4.4.9c-.1 0 .1-.1 0 0zm0 .1c.2-.1.1-.1 0 0zm-.3.3c.2.2-.2-.3 0 0zm-.2.1c-.1.2.1 0 0 0-.1.1 0 0 0 0zm-1.2 1.1c.2-.5.2.1 0 0zm-.1.1c.1.1.1-.1 0 0zm-.4.3c.1.1.3-.4 0 0zm-.3.5c.1.1 0 0 0 0zm-.1.5c.2.1.3-.4 0 0 .1 0 0 0 0 0zm.1.1c0 .4.3-.4 0 0zm-.9.2c0 .1.1 0 0 0-.1.1 0 0 0 0zm-.2.1c-.4.9.2-.3 0 0-.1.1 0 0 0 0zm-2.4 2.6c.1-.1 0 0 0 0zm-1.2 1.5c.1-.2 0-.1 0 0 0-.1 0 0 0 0zm-2.5 4.1c.9-1 2.3-3 2.7-4 0 0-.1.1-.1.2-.2.2-.3.4-.5.5 0-.1 1.1-1.8 1.2-1.7 0 0-.1.3-.1.4.3-.7.7-1.4 1.3-2 0 .1 0 .1 0 0 0 .1-.1.3-.1.3.1-.1.1-.1.1 0 .6-.5.9-1.4 1.5-1.9-.1.1-.7 1.3-.7 1.3l.6-.9c-.2.6.8-1 1-1.1h.1c.2.2 0 .4.1.6.4-.3.6-.2.8-.5-.7.3.2-1.2.6-1.5 0 .1.1.2 0 .4.2-.1.2-.2.4-.2 0 0-.5.1-.2-.3-.2 0-.3.1-.5.2 0-.2.1-.1 0-.2.1-.2.4-.4.6-.6-.1.1 0 .1 0 .2.1-.1.5-.3.3 0-.3.3 2.7-3.3 3.5-2.5-.3.4-1.8 1.2-1.7 1-.3.2-.7.6-1.1 1.1l.3-.3s2.1-1.5 2.7-1.7c-.1.1-.1.1 0 .1.1.2-.4.3-.5.4.3 0-.1 0-.1.1.1.1 1.3-1 1.6-.6-1.2 1.3-3.2 1.7-3.9 3 .1 0 .1 0 .1.1-.2-.2 2.1-1.6 2.3-1.7-.1.3-.5.5-.6.8.1.2 1.6-1.3 1.7-1.3-.1.3-1.8 2.4-1.7 2.5.6-.7 1.6-1.5 2.1-2.4.1.1.1.1.1.3.1-.2 1.7-1.9 2.2-1.1-.8 1-1.3 1.1-2.4 2 .2-.1 1.1-.6 1.2-.5.1.1-1.3 1-1.6 1.1.2-.1.3-.1.1.1.4 0 .6-.6 1.1-.6-1 1.1-.6 2.2-1.4 2.8.1 0 .1 0 .1.1.2 0 .5.1.6.2-.2.3-.3-.1-.5.2.2 0 .2 0 0 .1l.1.1c.2-.1.4-.2.7-.2 0 .3-.1.5-.1.7-1-.1-1.3.3-1.4 1 .2-.1.6.1.8-.3.3.3-.6.5-.5.6.3-.1.5-.3.8-.1-.1-.1-.1.7-.1.8 0 0-.6-.4-.9-.3.2.2.1.2-.2.2.2.2.4 0 .8.1 0 .2-.4.5-.6.3.3.5.2 0 .6-.1.1.2.1.3-.1.5l.6-.3c-.1.1 0 .2.1.2 0 .1-1.1.8-1.3 1 .1 0 .2 0 .2.1.1 0 .4-.3.6-.3.5.4-1.3 1.7-1.4.9.3-.1.4 0 .6-.2 0-.1-.1 0-.2.1-.5-.2-.6-.1-.6.3-.2 0-.3-.1-.5-.3-.2.1.2.2.3.3-.2.4-.6.7-1 .4 0 .3.1.1.3.3-.1.2-.3.2-.4.3.1.1.8-.4 1.1-.4-.2.4-.7.3-.8.6.3.2.1-.3.1.1.2.1.6-.6.8-.4.2.4-.3.3-.5.6.6-.2.1-.1.4.2.4-.8 1-.3 1 .2l.3-.3v.6c.1-.2 0-.3.2-.4 0 .2.2 1.1.1 1.3 0-.1-.1-.1-.3-.4.1-.1-1.3 1.2-.9-.2-.1.2-1.2.3-1.3-.1-.1.3.4.6-.1.6.3.2.7-.8 1.2-.2-.3.5-.6.6-1 .6.3.5-.4.5-.5 1.2.3-.3.8-.6 1.2-.6-.1.3-.7.4-.9.7l2.6-1.3c-.1.3-3.5 5-4.2 3.6-.6 1.5-1.4 3.2-1.7 3.9-.3-.2-.3-.2-.1-.5-.1.1-.2.1-.2 0-.2.3-.7 1.7-.6 1.7-.2-.1-.3.2-.6.1.3.6 0 .5-.1 1 .1 0 .3.1.4 0 0 .6-.2.2-.4.6.1-.1.2 0 .4 0 .1.3-.7.8-.6.7 0 .3.2.1.4.2-.2.4-.4.2-.7.5.1.2.5-.2.5.3-.1 0-.3-.2-.4-.1 0-.1.8.9.1.7.2.4-.2.4-.1.8.2-.1.2-.2.4 0-.2.3-.2.6 0 .4 0 .4-.2.1-.5.3.3.1.2.1.4.2-.1 0-.1.1-.1.2-.6-.1-.3-.2-.6.2-.1-.1 0-.2 0-.4 0 .1 0 .4-.2.4 0-.2.1-.3.1-.4-.2.4-.1.2-.2 0-.1.1-.1.2-.1.3-.1-.2 0-.2-.2 0 0 0 .3-.6.2-.6-.1 0-.1.3-.3.3 0-.1.4-.6.3-.6-.1.1-.1.3-.3.4.2 0 0-.4 0-.5 0 .1-.1.1 0 .1 0 .1-.6.7-.7.8-.3-.4-.2-.4-.3-.7-.2 0-.1.3-.3.2 0-.2.1-.3.2-.5l-.2.2c0-.2.1-.2.1-.4-.3.2-.1-.1-.5-.2.2-.9-.5-.4-.1-.9-.1 0-.2.2-.3.2.2-.5.1-.1.3-.5-.2 0-.2.2-.4.3 0-.6.2-.1.4-.9-.2.1-.2.2-.4.3.2-.6.2-.4.4-.5 0-.4-.4-.2-.2-.8.1 0 0 .3.1 0-.1-.1-.4 1-.5 1.2-.3-.1.1-.7.1-.8-.1 0-.2.2-.2.3-.1-.1-.1-1.3.4-1.2-.1 0-.1 0-.1-.1-.2.3-.3.4-.4.7 0-.1 0-.1-.1-.1 0-.2.1-.1-.1-.2-.1 0 .4-.5.4-.6-.1 0-.3.3-.4.4-.2 0 .6-1.2.7-1.3-.4.2-.5.9-.9 1.2-.1-.4 0-.4.3-.6-.4-.1.1-.1.1-.5-.1.1-.2.1-.3.1.1-.2.3-.3.5-.5-.2-.1-.5.4-.6.4.1-1.1 1-.4 1.2-.9-.6-.2.1.2-.1-.4-.3.3-.1.1-.2.1-.2.1-.6.5-.8.8-.3-.1.4-.6.4-.6-.1 0-.3 0-.3-.2.2.1.6 0 .9-.1 0-.1-.3-.1-.1-.5-.3.1-.1.3-.5.5 0-.1 0-.1-.1 0 0-.4.5-.5.6-.9 0 0-.4 0 0-.4 0 .2.2.2.3 0-.2-.1-.3.1 0-.1-.1-.1-.2 0-.3.1 0-.5.3-.3.3-.9-.1.1 0-.1 0-.1-.4.5-1.2 0-1.2 0-.1-.9 1.1 0 1.2-.4 0 0-.4-.2 0-.6-.2-.1-.2.1-.3.1.1-.2.2-.2.2-.3-.1 0-.2.3-.3.4-.1-.1.3-.5.3-.6-.1.1-.2.2-.4.3.1-.2.3-.4.4-.6 0 0-.4-.2-.3-.2-.1.1-.1.3-.2.4 0-.2-.1-.4 0-.6-.1.5 0 1.1-.4 1.4-.1 0-.1-.3-.1 0-.1-.4.2-.6.4-1.1-.1.1-.1.3-.3.5-.2-.1.2-.4 0-.5 0-.3.6-1.9.2-2.1l-.2.3c.2-.9-.2-1.1.2-1.7v-.1c-.5.3-.6-.4-1.2.5 0-.1 0-.2.1-.3-.3.3-.1.2-.4.5 0-.1 0-.2.1-.3-.3.2-.2.3-.5.7 0-.1-.1-.1-.1-.1 0-.3.1-.4.3-.7-.1-.1-.4.3-.1-.2-.1.1-.1.3-.3.4 0-.1.1-.3 0-.1-.2-.1.9-1 .9-1 0 .1-.4.3-.4.3.1 0 .6-.6.6-.7h-.1c-.3.3-.2.3-.5.6h-.1l.2-.3-.2.2s.2-.3.2-.4c.3 0-.3.1-.2.1zm-.1.6c.2-.2.3-.2 0 0zm-.2.3c.2-.4.1.1 0 0 0-.1 0 0 0 0zm-.5.2c.1-.2 0 0 0 0zm1-1.7c-.2-.2.1.1 0 0zm-1.4 1.6c.4-.7.1 0 0 0 .1-.1 0 0 0 0zm-1.6 3.5c.3-.7 0 0 0 0zm.8-.7c.5-1.1 0 0 0 0 .1-.2 0 0 0 0zm-.1-.1c.2.1-.2 0 0 0zm-1.7 3.8s0-.2 0 0zm-1.6 6.2c0-.1 0-.5 0 0 0-.1 0 0 0 0zm0-.3c0 .3 0 .3 0 0 0 .1 0 0 0 0zm.7-1.7c-.1-.1.1 0 0 0zm.3 0c-.1-.1 0 0 0 0zm0-.1c.1-.2 0 0 0 0zm0 0c.1 0 .1-.2 0 0 .1 0 0 0 0 0zm52 34.9c.6-.7 0-.1 0 0 .1-.1 0 0 0 0zm-22.1-.7c0 .1.3 0 0 0zm-.3.1c.4.3.3-.1 0 0zm.2-.7c0 .3.3-.1 0 0zm-.1-.4c-.1.1.1.2 0 0zm-.6.3c.2.1.2-.1 0 0zm-.2 0c.1.1.2 0 0 0 0 .1 0 0 0 0zm-.4 0c.1-.2.1.1 0 0zm-.3 0c.1 0 .3 0 0 0zm-7.4-13.8c.1.1.1 0 0 0zm.4 0c-.3-.1-.3.2 0 0-.1 0 0 0 0 0zm.1-.2c-.3 0-.2.1 0 0-.1 0 0 0 0 0zm.3-.2c.2.1.1 0 0 0 .1 0 0 0 0 0zm1.1.5c.3-.4 0 0 0 0zm6.2 2c.4-.3.5.1 0 0 .1-.1 0 0 0 0zm.8 3.1c-.2-.4.1-.1 0 0zm.1.5c-.1.3.2.2 0 0 0 .1 0 0 0 0zm.3-.3c.1.1.1-.1 0 0zm.4 0c-.2-.1.1-.8 0 0-.1-.1 0 0 0 0zm.7-.1c0-.5.1-.1 0 0zm.8-1.1c0-.2.4-.4 0 0 0-.1 0 0 0 0zm-.2.7c.6-.8.2 0 0 0 0-.1 0 0 0 0zm56.3-12.4zm0-.1zm.1-3.2s-.1-.3 0 0zm0 .1s-.1-.3 0 0zm-.5-1.4c0-.2 0 0 0 0zm.4 1s.1 0 0 0zm.1 1.2c0-.2 0-.2 0 0 0-.1 0 0 0 0zm0 .9c0-.2 0-.2 0 0zm.1.3c0-.1 0 0 0 0 0-.1 0 0 0 0zm0 .5s0-.1 0 0c0-.1 0 0 0 0zm0-2c0-.1-.1-.1 0 0zm0 .2s0-.3 0 0zm-.1-1.6c.1 0 .1.2 0 0zm-.1 5.6c0 .1 0 0 0 0zm0-.3c.1-.2 0 0 0 0zm0-.1c0 .1 0 .2 0 0zm-.1-1.5c0-.3 0 .4 0 0 0-.1 0 0 0 0zm0-.1c0-.4-.1.2 0 0 0-.1 0 0 0 0zm0-.3c0-.1 0-.2 0 0 0-.1 0 0 0 0zm-.1.1c0-.2.1 0 0 0zm0-.2s0 .2 0 0zM199.6 49c-.1 0 .6.3 0 0zm-6-2.6c.3.6.1-.3 0 0zm-.1 0c-.2-.1 0 0 0 0zm1.3.5s.5.2 0 0zm0 0c-.3-.1-.1-.1 0 0-.1-.1 0 0 0 0zm-1 .2c.1 0 .3 0 0 0 .1 0 0 0 0 0zm.4.3c.7.1 0 0 0 0 .1 0 0 0 0 0zm-.1-.2c0-.1.1 0 0 0zm-.4 0c.1-.1.5.1 0 0 0-.1 0 0 0 0zm-.2 0c.1-.1.2 0 0 0zm-.4-.3c-.2-.2.5.1 0 0-.1 0 0 0 0 0zm-1.8-.4c.1 0 .1 0 0 0zm-.1.3c.3.2.4 0 0 0 .1 0 0 0 0 0zm.1 1.1c.1-.1.6 0 0 0zm-.2 0c.5.3 0 0 0 0 .1.1 0 0 0 0zm2.5.6c.3 0 .4.1 0 0 .1 0 0 0 0 0zm-.1.1c.2-.1.3.1 0 0zm.6.2c-.1-.2.2 0 0 0zm-.1.1c-.2-.1 0-.1 0 0 0-.1 0 0 0 0zm-.1 0c-.3-.1-.1 0 0 0-.1 0 0 0 0 0zm.5.2c0-.1.2 0 0 0zm-.3.2c.4-.1 0 0 0 0 .1 0 0 0 0 0zm-.5-.1c.3-.1.4.1 0 0 .1 0 0 0 0 0zm-.1 0c.1 0 .2.1 0 0zm-1.4-.7c-.5-.4-.3-.4 0 0-.1-.1 0 0 0 0zm-.2.5c.3-.1.4.1 0 0 .1-.1 0 0 0 0zm-7.9.8c.1.1.1-.5 0 0zm.8 2.5c.2-.9.2.1-.5-.2.3-.3-.2-.7.6-.5 0-.1-.7-.2-.7-.2.1-.1.2-.1.3-.2 0 0-.4 0-.4-.1s.3-.1.3-.3c-.3.1-.7.1-.8-.2.5.2.2-.2.7-.2 0 .1 1.4-3.6 2.6-1.7-1.1.2-1.3 1.9-1.1 2-.1.1-.3 0-.4 0 .2.3.3.1-.1.2.4.1.3.2.5.5-.1 0-.3-.1-.4-.1.1.2.3.2.5.4-.1 0-.4-.2-.4 0 .4.1.5.1.5.5-.1 0-.1 0-.1.1-.4-.2-.4 0-1.1 0zm2.1 2.1c.5-.1-.9-.7-.9-.6-.1.6-.4.3-.9-.1 0-.3.2-.1.4-.2-.3-.2-.2-.7-.6-.4-.6-.7 1.2-1.5 1-.5.5 0 1.9 1.2 2.8 1.4-.1.4.2.1.1.4-.4.1-.6-.3-1.1 0 .2 0 .3 0 .3.2-.1 0-1.1-.1-1.1-.2zm-.8-.1c.3-.4.9.4 0 0 .1-.1 0 0 0 0zm11.4-2.7c-.4-.1 0 0 0 0-.1 0 0 0 0 0zm.4.4c-.6-.7.1.1 0 0zm-4.1-1.7c.2-.4.7.2 0 0zm.2.6c.3-.6.2 0 0 0zm-1.4-.7c.4 0 .4.2 0 0 .1 0 0 0 0 0zm-.5 0c0-.1.1-.3 0 0 0-.1 0 0 0 0zm.5.4c-.6 0 .1.1 0 0-.1 0 0 0 0 0zm-1.7.3c-.4-.2-.3-.3-.2-.5.8.2.3.6.2.5zm-.2 3.8c-.3 0-1 0-1.4-.4.4.1.1 0 0-.2.3-.1 1.4.2 1.4.6zm-1.5 1.9c0-.2.1-.2 0 0 0-.1 0 0 0 0zm.2-.1c-.2-.1.1-.2 0 0zm-1.7.3c.1-.1.5 0 0 0zm3-1.7c-1-.3 0-.1 0 0-.2 0 0 0 0 0zm-.5.7c.3-.2.3-.1 0 0 0-.1 0 0 0 0zm-.6 0c.2 0 .1.1 0 0 .1 0 0 0 0 0zm-.3 0c.5-.1 0 .2 0 0 .1 0 0 0 0 0zm-.2.1c.1-.1.2 0 0 0 .1 0 0 0 0 0zm-11.7 8.5c-.4-.1.4-.2 0 0zm22.2 11.3c.1 0 .1.1 0 0zM183 91.3c.3 0 .3.1 0 0 .2 0 0 0 0 0zm3-34.7c-.1-.7.8-.6.9 0 0-.1-.1-.2-.1-.2-.1.5-.2 1-.8.2zm-11.7 2.1c0-.2.9-.3 0 0zm-.3 0c.1-.1.2 0 0 0zm-.3.3c.2-.1.3.1 0 0 .1 0 0 0 0 0zm0 .3c.4 0 .2.2 0 0zm-.2.3c.5 0 .2.2 0 0zm-.5 0c.1-.1.6-.4.6-.4-.1.4-.3.6-.6.4zm.3.3c.2-.3.7 0 0 0 0-.1 0 0 0 0zm-.7.4c.7.2-.2.4 0 0zm-.5 0c.5-.3.1.9 0 0zm-.2.3c0-.2.1-.2 0 0zm-.1.3c-.1-.3.2-.4 0 0 0-.1 0 0 0 0zm.1 0c-.1-.7.8.4 0 0zm-.3.4c.8-.4.5.2 0 0 .1 0 0 0 0 0zm-.1.8c-.1-.3-.3-.3-.2-.5.2 0 .2.1.1-.1.1 0 .3.1.4.1.1.1-.1.3-.3.5zm.2.1c-.2-.1 0-.1 0 0-.1 0 0 0 0 0zm-.1.2c0-.2 0-.1 0 0 0-.1 0 0 0 0zm-.9.1c-.2-.6.6-.6 0 0 0-.1 0 0 0 0zm.2.6c0-.1 0-.8.1-.6 0 0 .1.2.1.3.3-.3 0-.3.2-.5.4 0-.3 1.1-.4.8zm-.3-.2c-.1-.2-.3-.1-.1-.2.4-.5.2.2.1.2zm.1.1c-.3.1 0-.1 0 0zm-.2.4c.2-.6.5-.2 0 0 0-.1 0 0 0 0zm-.1.3c-.3-.1.3-.6 0 0-.1 0 0 0 0 0zm-.2.1c-.1-.1-.1-.3 0 0 0-.1 0 0 0 0zm-.2.3c0-.6.2-.2 0 0 0-.2 0 0 0 0zm0 .2c.1-.1.1 0 0 0zm1 .2c0-.2.2.1 0 0zm-.2.2c0-.1.2-.2 0 0 0-.1 0 0 0 0zm0 .3c.1-.1.2-.1 0 0 0-.1 0 0 0 0zm-.1 0c.2 0 .2.2 0 0 .1 0 0 0 0 0zm.1.3c-.2-.1.1-.1 0 0-.1 0 0 0 0 0zm.1.2c.2-.1.2.1 0 0 .1 0 0 0 0 0zm-.2.1c.1-.3 0 .1 0 0zm0 .3c-.2-.1.1-.5 0 0-.1-.1 0 0 0 0zm.1.1c0-.4 0 .1 0 0zm-.2.4c-.3-.1.1-.2 0 0-.1-.1 0 0 0 0zm.2 0c.1 0-.1.3 0 0zm0 .6c.1-.3.2-.3 0 0 0-.1 0 0 0 0zm-.2 0c.5-.5.2 0 0 0 .1-.1 0 0 0 0zm-.2.4c.1-.1.1 0 0 0 .1 0 0 0 0 0zm.2 0c0-.4.3-.3 0 0 0-.1 0 0 0 0zm-.5 1.2c-.1-.1 0 .1 0 0zm-.2.2c.1.1.1.1 0 0zm-.4.2c.3-.4.3 0 0 0zm.1.2c0-.2.5-.4 0 0 0-.1 0 0 0 0zm.1.2c-.1-.1 0 .1 0 0zm-.3 0c-.4-.2.2-.1 0 0-.1 0 0 0 0 0zm.1.1c.1-.2.2.1 0 0zm-.2.2c0-.1.2-.1 0 0zm-.3.5c0-.3.1-.1 0 0 0-.1 0 0 0 0zm-.3.2c.1-.2.1-.2 0 0 0-.1 0 0 0 0zm-.1.2c.1-.1.3 0 0 0 .1 0 0 0 0 0zm.1.2c.1 0 .1.1 0 0zm-.2.1c.1-.2.3.1 0 0zm-.2.2c-.1-.1.4-.1 0 0zm0 .4c0-.2.3 0 0 0 0-.1 0 0 0 0zm.1.2c-.1-.1 0-.2 0 0 0-.1 0 0 0 0zm.1.1c-.1 0 0 0 0 0zm0 .1s.1 0 0 0zm.1.2s-.1-.1 0 0zm-.1.2c0-.1.1-.3 0 0zm.2.1c-.1-.1 0-.3 0 0-.1 0 0 0 0 0zm.5.4c-.5 0 .2-.3 0 0-.1 0 0 0 0 0zm0 .5c.4 0 .1.2 0 0 .1 0 0 0 0 0zm.3.5c.2.2 0 .2 0 0 0 .1 0 0 0 0zM211 97.5c.1-.2.2 0 0 0 0-.1 0 0 0 0zm-70-1.4c.2.4 1.1-.3 1.2-.5 0 .1 0 .3.2.3.2-.3 0-.1.3-.3 0 .2-.4.7-.2.8 0-.1.1-.1.1 0 .1-.5.3-.5.2-1 .4.1.1.6.3.9.1-.1.1-.4.2-.5-.1.2-.1.3.1.5 0-.2 0-.2.1-.1.1-.3 0-.7-.1-1 0 .1 0 .3-.1.4-.1-.3 0-.3 0-.6-.1.2-.2.3-.2.6l-.2-.2s.3-.6.2-.8c-.1.3-.2.2-.2.5 0-.1 0-.1-.1-.1.1-.1.2-.8-.1-.9-.1.3-.1.5-.2 0-.1.6-.3.1-.6.4 0 0 0-.4.1-.5-.4-.1-.2-.3-.4.4-.2-.9.3-1.4.2-1.8-.1.1-.1.1-.1 0-.3 1.4-.4 2.9-.7 3.5zm-.1 2.1c.1-.5-.3-.3.1-.1 0 0 .1-.4.2-.4-.1 0-.1-.1 0-.2-.4.1-.3-.5-.4-.5 0 .4-.4.9.1 1.2zm-1.2-.5l.6.3c0-.2-.1-.1.1-.4-.5.1-.8-.3-.7.1zm-.5-2.5c.3.1.6.5.9.2 0-.2-1-.5-.9-.2zm-2.6-20.3c0-.1.5-.8.6-1.2-.1 0-.1 0-.1-.1-.1.2-.8 1.2-.5 1.3zm-.1.3c-.1.4 0 .1 0 0 0 .1 0 0 0 0zm.1-.1c0 .1 0 .1 0 0zm.8.2c-.1 0 .1-.3 0 0zm-.1.3s.1-.5 0 0zm.1.4c-.1-.2.2-.4 0 0zm.7.8c0-.1.1-.1 0 0zm-.1.1c.2-.4 0 0 0 0 0-.1 0 0 0 0zm.1 1.3c.1 0 .1-.2 0 0zm.5.3c0 .2.1-.5 0 0zm.3.3c0-.2.1-.3 0 0zm0 1.5c.1 0 0-.1 0 0zm-.7 1.7c0 .2 0 .1 0 0 0 .1 0 0 0 0zm-3.6-2c.1-.2 0 0 0 0zm0 .4c.1-.3 0-.2 0 0 0-.1 0 0 0 0zm0-.1c0 .3 0 0 0 0 0 .1 0 0 0 0zm.1 1.3c.3 0-.1-1.2 0 0zm3.3.3c.1 0 .2-.5 0 0 .1 0 0 0 0 0zm.3.7c-.1-.4-.1 0 0 0 0-.1 0 0 0 0zm0 .1c.1.6.1 0 0 0zm-.1 1.3c.1-.2 0-.3 0 0zm-1.9-4.5c0-.5-.4.9-.4 1.2.3 0 .4-1 .4-1.2zm.1.1c0 .5.4-.5 0 0zm.1-.5c0 .2.1 0 0 0zm-.1.2c.1-.4-.1-.5 0 0 0-.1 0 0 0 0zm-.9-.2c.1-.1.1-.1 0 0zm.3-.4c.1-.4 0-.2 0 0zm.2-.2c.2-.2.1-.3 0 0zm-.2.8c1.4-1.4-.6-.1 0 0zm.4-.5c.1-.6-.1-.3 0 0zm-.4.9c.1-.2 0-.3 0 0 0-.1 0 0 0 0zm-.1.2c.1.2.1-.3 0 0 .1 0 0 0 0 0zm2.2 4.8s-.6-1.1-.7-1.5l.1-.1c.1.3.2.1.5.4l-.1-.3c.1.2.2.5.2.1.1.3.1.1.3.5.3-.3-.3-.8 0-1.2.1.2.1.3.2.4 0-.5-.2-1.3-.3-1.3 0 .4-.1-.5-.2.2-.1-.4 0-.5-.1-.8-.1 0-.2.3-.2.3.1-.2.1-.7-.2-.6.1-.1.1-.1.1-.2l.2.3c0-.1 0-.1 0 0 .3-.3-.3-.5.2-.9v.4c0-.1.2 0 .3-.4 0 .2 0 .4-.1.6.2 0 .3-.5.4-.7-.1.4-.4 1.2-.1.7 0 .1-.1.3-.1.4.1-.1.3.2.3.3.1-.1.1 0 .1.1.2-.4 0-.7 0-1.1.1.2.4-.6.6-.8 0 .1-.1-.2-.2-.1.1-.3.3 0 .1-.5-.2.3 0 0-.1 0-.1.1-.1.2-.1.3-.2-.3-.1-.1-.2.1v-.4c0-.1-.2.5-.2.5-.1-.2.1-.5.2-.7-.1.1-.2.3-.2.5.1-.6-.2 0-.3.1 0-.5.3-.3.1-.8l-.2.2c0-.2.1-.3.1-.5-.1.2-.1.4-.2.6 0-.2 0-.3.1-.5-.1.2-.1.4-.2.6 0-.2.1-.3.1-.5-.1 0-.1.2-.1.3-.1-.1 0-.2 0-.3-.1.1-.2.4-.1 0-.2 0-.1.3-.2.2.1-.4 0-.2 0-.1 0-.2.2-.3.3-.5-.3.2-.2 0-.3.3 0-.2-.1-.2-.2-.1.1-.2.3-.3-.1-.1 0-.2.3-.3.4-.6-.1 0-.2.1-.3.2-.1-.4.4-.3 0-.4.2.1.6-.1.4-.4-.3.1-.3.1-.5.3.3-.4.6-.6.5-1.2-.2.2-.4.8-.6 1.1.1-.2.4-.6.3-.8-.2-.1-.2.6-.4.6.3-.4.5-.8.6-1.1-.1 0-.2 0-.2-.1-.1.1-.2.3-.3.5 0-.2.1-.3.1-.5-.2.4-.2.7-.4 1.1.1-.2.3-1 0-.1.1-.3.5-.8.3-1.1 0 .1-.2.7-.4.7.1-.1.2-.3 0-.1.1-.4.3-.5.3-.9-.1.1-.1 0-.1-.1l-.3.9c-.1 0 .2-.3 0-.4l-.1.4c0-.2.1-.4.1-.6-.1.2-.1.3-.2.5.1-.2.1-.3 0-.2.1-.2.2-.4.2-.6-.2.3-.2.5-.4.9.1-.3.2-.3.2-.6 0 .1-.1.2-.2.3 0-.1.2-.4 0-.1.1-.2.2-.3.2-.6-.1 0-.3.7-.4.7 0-.2.3-.7.1-.6 0 .1-.1.3-.2.4.1-.3.3-.5.3-.8v-.1s-.1.3-.1 0c-.7.5-.2.6-.4 1.3 0-.3 0-.3 0 0v-.4s0 .4-.1.3c.1-.2.1-.4.1-.6-.3.9 0 .2-.1.2-.1.4 0 0-.2.7.1-.3.1-.5.2-.8-.1.1-.1.2-.1.3.2-.6.3-1 .4-1.6-.3.4-.6 1.2-.5.9-.2.3-.4.8-.4 1.3 0-.1.1-.2.1-.3.1 0-.1.4-.2.4-.1.5-.1.9-.3 1.5 0-.1 0-.2.1-.3 0 0-.2.4-.2.5.2-.4.8-3.6 1-3.5-.4-.1-1.4 4.6-1.3 4.4.1 0 0 .1 0 .1.1-.1.1-.2.1-.3 0 0 0 .3.1-.2 0 .1-.1.2-.1.3.1 0 0 .1 0 .1 0-.2.1-.3.2-.5 0 .2-.1.3 0 .4 0-.1.1-.2.1-.1.1-.3.2 0 .1-.5h.1c-.1 0 .1.2.1.3.1-.5.3-1 .4-1.4 0 .2-.1.4 0 .6.1-.3 0-.1.1-.2 0 .1-.1.7-.1.7 0-.1 0-.1.1-.2 0 .1 0 .1.1 0-.1.3 0 .4-.1 1.1.3-.4.2-.2.3-.6.1 0-.1.3 0 .2-.1.1-.1.2 0 .4.1-.1 0-.2.1-.3.1.2 0 .7.2.3-.1.2 0 .4-.1.6.1 0 .1-.2.1-.2 0 .1 0 .1.1 0v.4c-.1-.5-.4.7-.4.9.4.1.3-.5.5-.6.6.1-.1.9-.2 1.3 0-.3.1-.5.1-.8-.5.4-.8 2.6-1.3 1.9 0 .4-.3.9-.1 1.2 0-.2.1 0 .1.1.4-.4.4-.5.4-1 0 .1.1.1.1 0-.1.5 0 0 .1.5.1-.1 0-.3.1-.4-.1.6 0 0 .1 0-.1.3.1.5.1.8.1-.1 0-.1.1-.3 0 .1 0 .3.1.1.3.7 1.1.9 1.8 1zm-1-.1c0-.2-.3-.3 0 0 0-.1 0 0 0 0zm-.9.4c.2 0 0 0 0 0zm-1.3-2.1c.1.6.2 0 0 0zm-.1.2c0 1.1.1-.3 0 0 0 .2 0 0 0 0zm-.2 2.9c.2-.4.2-.8.3-1.3v-.1c.1.4 0 .2.1.5 0-.1.1-.1.2 0 0-.3.1-.5 0-.7 0 .1 0 .1-.1.3.1-.4-.2-1.4-.3-.9v-.5c0 .2-.1.1 0-.1-.3 1.1-.2 2.3-.2 2.8zm3.8-1.3c0-.3-.3-.2 0 0zm0 .4c.1-.4-.2-.4 0 0 0-.2 0 0 0 0zm-.9 1.5c.2-.6-.1-.4 0 0 .1-.1 0 0 0 0zm-1.8-2.4s0-.3 0 0zm0 .3c0 .3.3 0 0 0zm-.2.4c.1.3.2 0 0 0 0 .1 0 0 0 0zm-.7 1.9c0-.3.2-.6.2-1-.2 0-.1.5-.2.2v.8zm.4-.1c.1 0 .2-.4.1-.7-.1-.1-.1.5-.1.7zm0 1.8c.1 0 .1-.3 0 0 .1 0 0 0 0 0zm.2 3.2s.1-.4 0 0zm0 .2c.1 0 .2-.3.1-.6 0 .7 0-.2-.1.6zm.2 2.1c.1.3 0-.1 0 0zm-.2.6c.1 0 .4-.2 0 0zm.4.5c.1 0 0-.3 0 0zm9.8 23.7c0 .1 0 0 0 0 0 .1 0 0 0 0zm-.2 0c.2.2.1.2 0 0 0 .1 0 0 0 0zm34.4-48.5c.1-.1.2.1 0 0 0-.1 0 0 0 0zm-.2.3c-.4-.5.4-.2 0 0zm.4 0c-.1-.3.4.2 0 0 0-.1 0 0 0 0zm-.3.9c-.1-.3-.2-.4-.4-.6.3 0 .4-.2.8-.3-.1.3-.2.8-.4.9zm-2.1-1.6c-.2-.4.5.1 0 0zm-.2-.1c.3-.4.1.2 0 0 0-.1 0 0 0 0zm-.3 0c.2-.1.2.2 0 0 .1-.1 0 0 0 0zm0 .9c-.1-.1 0-.2 0 0-.1 0 0 0 0 0zm-.1.3c.2-.5.3.2 0 0 0-.1 0 0 0 0zm.9.6s.2.2 0 0zm.2 1.4c-.6-.2-.3-1 .2-1-.4.4.1.6-.2 1zm0 .3c-.4-.1.3-.4 0 0-.1 0 0 0 0 0zm-.8.9c-.2-.3-.2-.6-.2-1 .3.1.3.7.2 1zm46.1 15.1c0-.4 0 .4 0 0 0-.1 0 0 0 0zm-.1-.8c.1 0 .1.8 0 0zm0-.4s0 .5 0 0zm0-.4c0 .4 0 .5 0 0 0 .1 0 0 0 0zm-.4-2.6c.1 0 .1.2 0 0zm0-.4c0 .1 0 .3 0 0zm-.1.1c.1 0 .3.3 0 0zm0-.2s0 .1 0 0zm-.1-.1s.1.1 0 0zm-.3-.6s.1.2 0 0zm-.2-.5s.2.3 0 0zm0 .2s.1.4 0 0zm-.1-.1c.1 0 .1.1 0 0zm-.8 9.1c-.5-.1 1.7.1.3 1.5-.2-.1-.1-1.4-.3-1.5zm-12.6-4.4c.2-.1.1 0 0 0zm-17.7-.1c.1-.4.1 0 0 0 0-.1 0 0 0 0zm.2-.3c.2 0 .1 0 0 0 .1 0 0 0 0 0zm-.2-.2c0-.1.1-.1 0 0zm-48.6 26.7zm-.1 0c.1 0 0 .1 0 0zm-.1.1c.2.2.1 0 0 0 .1.1 0 0 0 0zm-1.3-2.6c-.1.1.1 0 0 0zm0 .1s.1.1 0 0zm0 .1c0-.1 0 0 0 0zm0 0zm0 .1c0-.1 0-.1 0 0zm0 0c-.1-.1 0 0 0 0zm-.1 0c.1.1 0 0 0 0 .1 0 0 0 0 0zm-.1-1c.2.2.3 0 0 0 .1.1 0 0 0 0zm.5.4c-.1-.3-.4-.7 0 0zm.5.6c-.2-.7-.2.1 0 0 0-.1 0 0 0 0zm.3.5c0 .1.1.1 0 0 0 .1 0 0 0 0zm.1-.1c-.4-.2-.3-.5 0 0-.1 0 0 0 0 0zm.1-.1c.1.3 0 0 0 0 0 .1 0 0 0 0zm0 .3c.1-.1 0 0 0 0zm.2.3c-.2-.2-.4-.5 0 0zm.2.1c-.2-.2 0 0 0 0zm.1.2c0-.1.1-.1 0 0 0-.1 0 0 0 0zm.2 0c.1.2.1-.1 0 0zm.2.4c.1 0 0 0 0 0zm.1.3c-.2-.3.1-.1 0 0-.1-.1 0 0 0 0zm-1.3-.8c.6.5 0 0 0 0zm4.3 4.6c.2.1.1-.1 0 0zm.5.1c.3.2.1 0 0 0zm-.2 0c.3.3.1-.1 0 0 .1.1 0 0 0 0zm2.7 1.1c.3-.2.3-.3 0 0zm-.1-1.4c.3.3-.1-.2 0 0 .1 0 0 0 0 0zm-.4.5c.1.3.1-.2 0 0zm0-.2c.1.1.1.1 0 0zm-.1-.2c.1 0 0 0 0 0zm0 0c.1-.1-.1-.3 0 0 0-.1 0 0 0 0zm-.2-.4c.1 0 0-.1 0 0zm-.3-.4c.5.4.1-.1 0 0 .1 0 0 0 0 0zm-.3-.4c.3.3.2 0 0 0 .1 0 0 0 0 0zm-.2-.5c.2.5.2-.1 0 0 0 .1 0 0 0 0zm-.1.1c.6.6.1-.1 0 0 .1.1 0 0 0 0zm-.3-.4c.2.2.1 0 0 0 .1.1 0 0 0 0zm-.1-.2c.3.2-.1-.2 0 0zm-.2.1c.3.2 0 0 0 0 0 .1 0 0 0 0zm-.3-.3c.1.2-.1-.2 0 0zm-.4.2c.2.1.1-.1 0 0zm-.8-.3c.4.8.7-.5 0 0 0 .1 0 0 0 0zm-1.6-.3c.3.2 0 0 0 0zm-.2.1c.2.4.6.2.9.5 0-.3 0-.3-.1-.4.3.3.2-.2.6.1 0-.1 0-.1.1 0-.4-.6-1.2-.4-1.5-.8 0 .1 0 .1-.1.1 1 .5.1.6.1.5zm-2.1-2.7c-.2-.4-.1-.5 0 0 0-.1 0 0 0 0zm.1.1c-.1-.1-.1-.2 0 0-.1 0 0 0 0 0zm.1.2c-.3-.4.2-.1 0 0zm-.3.7s.1 0 0 0c.1.1 0 0 0 0zm1.3 1c.2.2.5 0 .6 0-.1-.4-2.1-1.7-2.2-1.6v.1c.1.3.1.3.2.4-.1-.1.1 0 0 0-.1-.1-.1-.1 0-.1-.2-.4.1.2 0-.2.1.1.1 0 0-.1.4.4 1.2 1 1.4 1.5zm.3.7c.3.1.3.4.5.2-.1-.1-.6-.4-.5-.2zm13.3 8c.1-.2 0-.2 0 0 0-.1 0 0 0 0zm0 0s-.1-.1 0 0zm.4.2c.2.1.2-.1 0 0zm-.3-.1c.4.1.1-.2 0 0zm-.1.1c0-.1-.1-.2 0 0 0-.1 0 0 0 0zm0 .2s.1-.1 0 0zm-.1 0c.2-.2 0-.3 0 0zm-17.6-20.7c.1.3.4-.7.3-.2-.1-.2-.3.1-.3.2zm76.3 9.4c.3-.5.3-.1 0 0 0-.1 0 0 0 0zm-.7.8c.2-.4.2.1 0 0 0-.1 0 0 0 0zm0-7.2c.1-.3.1-.1 0 0 0-.1 0 0 0 0zm-3.7 4.6c.3-.2.2.1 0 0 .1 0 0 0 0 0zm-1.3 2.1c-.2-.7.3.2 0 0 0-.1 0 0 0 0zm.7-.1c-.2-.1 0-.2 0 0-.1-.1 0 0 0 0zm.3.1c-.1-.2.1-.4 0 0-.1-.1 0 0 0 0zm1.3-.7c-.1-.1.2.1 0 0zm-1.5 5.9c-2.3-.5 2.2-6.2 1.7-6.6.2 0 .2-.2.3-.4 0 1.9.1 4.9-2 7zm-53.7-43c-.6.3-1.6.4-2.1.6 0-.2-.1-.3-.1-.5.2.2.5-.3.6-.5 0 0-1.2.2-1.4 0 .3-.4 1.1-.3 1-.8-.1.2-.2.2-.4.2 1-.9.2 0 .2-.6-.1.1-.8.7-1.1.5.2-.3.3-.1.5-.5-.6.2.1-.9.4-.3.2-.4-.3 0 0-.4-.1 0-.3 0-.4.1.3-.7 1.1.3 1 .7.1 0 .1 0 .2.1 0-.1.2-1.1.3-1.2 0 .2.2.3.3.4.2-.4-.2-.1.2-.7.2 0 .4.4.5.6.1-.7.2-1 .9-1.5.2.6.3-.1.6-.1-.4.5.2.7.7.7.2 1.3-1.9 1.8-1.9 3.2zm5.8-.9c0-.2.2-.1 0 0 0-.1 0 0 0 0zm.4-.2c-.7-.2.2-.1 0 0-.1-.1 0 0 0 0zm0 .2c-.8-.5.4 0 0 0-.2-.1 0 0 0 0zm.1.2c-.2-.2-.1-.1 0 0-.1 0 0 0 0 0zm0 .2c.1.1.1.3 0 0zm3.2-.2c-.3-.4.4-.1 0 0zm0 .1c-.2-.1-.1-.2 0 0-.1 0 0 0 0 0zm.2.3c-.4-.2-.1-.5 0 0-.1-.1 0 0 0 0zm-.4 8.4c0 .1-1.7 1.4-1.8 1.3.1 0 .1-.1.2-.2-.2.1-.4.3-.1-.1-.5.5.1-.2-.5 0 .2-.4.5-.5.7-.8-.1-.1-.4.2-.5.3.2-.3.1-.5.4-.7-.6 0-1-.4-.9-.8.4.2.9-.3 1-.6-.1-.1-.3.1-.5 0 .4-.3.6-.6.7-.9.3.1.1.1.1.3.8-1.8 1 1.7 1.2 2.2zm11-7.4c.6.2 0 .4 0 0 .1 0 0 0 0 0zm-1.6.9c-.2-.1-.4-.3-.7-.4.1 0 .2-.1.2-.2.1.1.2.1.3.2-.1-.1 0-.1.1-.1-.1-.3-.5-.1-.1-.4.2.1.2.2.4.3 0 .1.1.6-.2.6zm0 .2c0-.3.5.1 0 0zm-.4.1c.4-.5.7.7 0 0 .1 0 0 0 0 0zm-.4.2c.1-.1.3 0 0 0 0-.1 0 0 0 0zm-.5-.3c.4-.2.8-.5.8.3-.2-.2-.6 0-.8-.3zm-8.4-.5c-.4-.2.4-.2 0 0zm.1.1c-.2-.1 0-.1 0 0-.1 0 0 0 0 0zm-1.8 1.7c0-.5-.1-.3.3-.8 0 .2 0 .8-.3.8zm0 .3c-.2-.1.1-.3 0 0-.1-.1 0 0 0 0zm.1.4c-.4-.4.2-.2 0 0-.1 0 0 0 0 0zm.7-.1c-.1-.2-.5-.2-.5-.3.1-.1.4 0 .2-.2 0-.1.4.3.3.5zm-.2.1c.1-.1.1 0 0 0zm.3.4c-.2-.1 0-.2 0 0-.1 0 0 0 0 0zm0 0c.3-.1.2.2 0 0 .1 0 0 0 0 0zm.3.6c-.1-.1-.1-.5 0 0 0-.1 0 0 0 0zm0 .1c-.2.2-.4-.3 0 0-.1 0 0 0 0 0zm.3.3c-.2.1.1-.9 0 0zm.2-.2c-.4-.3.3-.1 0 0zm.6 1c.3-.6.3.2 0 0 0-.1 0 0 0 0zm.6.7c-.6.2.3-.5 0 0-.1 0 0 0 0 0zm.1 3.1c-.1-.8.9-1.4 1.3-1.8-.6.1-1 .2-1.5.3.1-.1 0-.2-.1-.2.6-.6.6-.9.1-.9.4-1.4.9-1.1.2-2.3l-.9.6c-.1-.1-.3-1.1-.2-1.1-.3 0-.2.1-.1.3-.3 0-.4-.1-.2-.3-.2.1-.2.2 0 .4-.4.1-.2-.9-.2-1.1-.3.4-.2.3-.6.4.8-.8-.9-1.6 1.2-2.5 0 .4-.2.9-.4 1.2.1 0 .1 0 .1.1.2-.3.9-.5 1.2-.6.3.7-.5 1.2 0 1.5 0 .2-.5.3-.5.4 2.5.1 3.7 1.8 4 3 .2 0 .3 0 .5-.1v.3c-1.2.6-3 2.3-3.9 2.4zm14.3.2c.4.3 0 .2 0 0 .1.1 0 0 0 0zm-.3-.1c.1 0 .3.2 0 0 .1 0 0 0 0 0zm-.4-.5c.7.4-.1.6 0 0 .1 0 0 0 0 0zm27.5 5.5c-.4-.6.2-.3 0 0-.1-.1 0 0 0 0zm1.8.3c.3-.3.2.1 0 0 .1-.1 0 0 0 0zm.3-2c.7-.7 0 .1 0 0 .1-.1 0 0 0 0zm2.9 3.4c0-.7.3-.4 0 0 0-.1 0 0 0 0zm-1 5.8c.1-.7 1-.1 0 0 0-.1 0 0 0 0zm-7.5 1.4c.7 0 .1.1 0 0 .1 0 0 0 0 0zm.8-1.2c.3.4.1.3 0 0 .1.1 0 0 0 0zm-9.6-9.4c-1-.3-.3-.8.6-1.2-.2.2-.6.9-.6 1.2zm-6.1.6c.2-.1.2 0 0 0 .1-.1 0 0 0 0zm.9-1.1c-.1-.1.1-.2 0 0-.1 0 0 0 0 0zm-1.2-2.1c.4-.3.1 0 0 0 .1-.1 0 0 0 0zm-.2-.2c.1-.2.2.1 0 0zm-.7 0c.4-.1-.1.4 0 0zm.5.5c0-.4.6.4 0 0zm1.2.6c-.9.1.5-.3 0 0zm-.1.4c.2-.1.5.4 0 0 0-.1 0 0 0 0zm-1 0c.4.1.1.2 0 0 .1 0 0 0 0 0zm-.7.1c.2 0 .2.1 0 0 .1 0 0 0 0 0zm1 .6s-1-.3-1.3-.3c.3-.5 1.1.4 1.3.3zm.5.2c-.2.2-.5-.2 0 0 0 .1 0 0 0 0zm.8-.3c.1-.3.5-.1 0 0 .1-.1 0 0 0 0zm-.6.4c-.3-.1.1-.1 0 0-.1 0 0 0 0 0zm.1.4c-.2-.1.1-.2 0 0zm.2-.1c-.3-.1.2-.3 0 0zm.7.2c-.1-.1.1-.2 0 0 0-.1 0 0 0 0zm1 .1c-.2-.8.6-.5 0 0-.1-.1 0 0 0 0zm-.2.5c-.4-.5.2-.4 0 0-.1-.1 0 0 0 0zm-2.3.7c.3-.2 1.7-.1 1.8-.5.2.5-1.6 1-1.8.5zm-.6-.5c.2.2 0 .3 0 0 0 .1 0 0 0 0zm-2-.5c.5.1.1.2 0 0 .1 0 0 0 0 0zm-.2-.4c.5.1 0 .5 0 0zm-.1-.2c.1-.1.2 0 0 0zm-.8-.7c.4.6-.3.1 0 0 .1 0 0 0 0 0zm-2.2 2.2c.1.5.1.9.2 1.3-.5 0-1.9.1-2.1-.4.2-.1 1.8-.9 1.9-.9zm-5-2.4c.1-.2.3 0 0 0zm-.5 1.3c-.2.1-.1-1.3-.1-1.4.4.4 1 1.5.1 1.4zm.9 2.3c-.3-.3-.9-1.2-1-1.7.4.1 2.6 1 1 1.7zm-3.5.3c.2-.5.8.1 0 0zm-.4.3c.8-.7-.2 1 0 0zm-.5 1c.1-.6.4.2 0 0 0-.1 0 0 0 0zm-1.6-16.6c0-.4.1.2 0 0 0-.1 0 0 0 0zm27.4 2.1c-.8-.5-.9-2.2-.2-1.9 0-.2-.2-.1-.3-.1.1-.1.6-.5.2-.4.9-2.2 2.2.1 2.7 0-.2.7-.5.4-.5 1-.2 0-.6.2-.6.4 2 .6 1.7 2.1 3.4 2.9-.2-.2 0-.1.2-.3 0 .4.1.2.3.3-.1.3-.5-.2-.2.4-.1-.4 1.7 1.2 1.2 1.6.1 0-3.8 1.4-3.4-.8.1.1.1.2.2.3 0-.4-.7-1.3.1-1.3-.5-.6-3.3-1.5-3.1-2.1-.1 0 .1-.1 0 0z"/></g><path fill="#E2E2E1" d="M107.1 151.8c-3.5 7.9-4 12.9-2 14.8 3.4 3.3 14.7-1.2 30.2-11.9 16.5-11.4 36.2-28.8 55.6-48.8 19.4-20.1 36-40.4 46.9-57.3C248 32.7 252 21.2 248.6 17.9c-2.4-2.3-8.9-.7-18.1 4.3-9.4 5.2-21.3 13.8-34.4 24.9-.2.1-.4-.1-.7-.2-.4-.2-.4-.2-.5-.2l-1.7-.6.4-.4c10.9-9.3 47.2-39 56.8-29.8 5.8 5.6-2.5 21.6-10.5 34-10.9 17-27.7 37.5-47.2 57.7-19.5 20.2-39.4 37.7-56 49.2-9.5 6.6-21.1 13.4-28.5 13.4-2.1 0-3.8-.5-5.1-1.8-3.2-3.1-2.2-9.6 1.5-17.8M113.8 134.5c6.2-9.6 14-20 22.1-29.8l.4-.6.7 1.8c.1.4.3.8.4.9.1.2.1 0 .1.1-9.1 11-16.2 20.6-21.4 28.8"/><path fill="#E2E2E1" d="M243.9 146.5c-18.5-6.6-41.5-17.8-64.8-31.7-23.2-14-44.1-28.8-58.6-42-10.6-9.6-22.4-22.4-18.4-29.1l2.2 1.3c-2.3 3.9 4.4 13.6 17.9 25.8 14.4 13 35.1 27.8 58.3 41.6 23.2 13.8 46 25 64.3 31.5l-.9 2.6zM146.4 52.7c-1.8-.7-3.6-1.5-5.3-2.1l.9-2.4c1.7.7 3.5 1.4 5.4 2.1l-1 2.4zM135.7 48.6c-1.9-.7-3.7-1.3-5.4-1.8l.8-2.5c1.8.6 3.6 1.2 5.5 1.9l-.9 2.4zM124.8 45.2c-1.9-.5-3.8-1-5.5-1.3l.5-2.5c1.8.4 3.7.8 5.7 1.4l-.7 2.4zM108.3 43l-.4-2.6c.9-.1 1.9-.3 3-.3.9 0 2 .1 3 .2l-.2 2.6c-1-.1-1.9-.1-2.8-.1-.9 0-1.8.1-2.6.2z"/><path fill="#EBB65C" d="M166.1 76.1c.3-6.2 3.7-14.2 8.6-20.5 2.7-3.4 3.9-6.8 3.9-8.8 0-7-5.6-12.8-12.6-12.8s-12.6 5.7-12.6 12.8c0 2 1.2 5.4 3.9 8.8 4.9 6.3 8.3 14.4 8.6 20.5h.2z"/><circle fill="#F3D0B4" cx="166" cy="46.3" r="5.3"/><g fill="#54C4CD"><path d="M280.3 43.5l-.4-1c.8-.3 1.5-.7 2.2-1.3l.7.8c-.8.7-1.6 1.2-2.5 1.5zm3.7-2.7l-.8-.7c.5-.7 1-1.4 1.3-2.2l1 .4c-.4.9-.8 1.8-1.5 2.5zM284.5 32.4c-.3-.8-.7-1.5-1.3-2.2l.8-.7c.6.7 1.1 1.6 1.4 2.5l-.9.4zm-2.4-3.4c-.7-.5-1.4-1-2.2-1.3l.4-1c.9.3 1.7.8 2.5 1.4l-.7.9zM269.7 32.4l-1-.4c.3-.9.8-1.7 1.4-2.5l.8.7c-.4.6-.9 1.4-1.2 2.2zm2.4-3.4l-.7-.8c.8-.6 1.6-1.1 2.5-1.4l.4 1c-.8.3-1.5.7-2.2 1.2zM274 43.5c-.9-.3-1.7-.8-2.5-1.4l.7-.8c.7.5 1.4 1 2.2 1.3l-.4.9zm-3.8-2.7c-.6-.8-1.1-1.6-1.4-2.5l1-.4c.3.8.7 1.5 1.3 2.2l-.9.7zM277.1 44.1c-.5 0-1 0-1.4-.1l.2-1c.8.1 1.7.1 2.5 0l.2 1c-.5.1-1 .1-1.5.1zm-8.8-7.5c-.1-.5-.1-1-.1-1.4 0-.5 0-1 .1-1.4l1 .2c-.1.4-.1.8-.1 1.3 0 .4 0 .9.1 1.3h-1zm17.6 0l-1-.2c.1-.4.1-.8.1-1.3 0-.4 0-.9-.1-1.3l1-.2c.1.5.1 1 .1 1.4.1.6 0 1.1-.1 1.6zm-7.5-9.2c-.8-.1-1.7-.1-2.5 0l-.2-1c.9-.2 1.9-.2 2.9 0l-.2 1z"/></g><g fill="#54C4CD"><path d="M102.3 102.3l.1-1c.8.1 1.7.1 2.5-.1l.2 1c-.9.2-1.9.2-2.8.1zm4.5-.6l-.4-1c.8-.3 1.5-.8 2.2-1.3l.7.8c-.7.6-1.6 1.1-2.5 1.5zM111.3 94.5c.1-.8.1-1.7-.1-2.5l1-.2c.2 1 .2 1.9.1 2.9l-1-.2zm-.5-4.1c-.3-.8-.8-1.5-1.3-2.2l.8-.7c.6.7 1.1 1.6 1.5 2.5l-1 .4zM98.3 87.4l-.7-.8c.7-.6 1.6-1.1 2.5-1.5l.4 1c-.9.3-1.6.8-2.2 1.3zm3.6-1.8l-.2-1c1-.2 1.9-.2 2.9-.1l-.1 1c-.9 0-1.7 0-2.6.1zM96.7 99.3c-.6-.7-1.1-1.6-1.5-2.5l1-.4c.3.8.8 1.5 1.3 2.2l-.8.7zm-2-4.2c-.2-1-.2-1.9-.1-2.9l1 .1c-.1.8-.1 1.7.1 2.5l-1 .3zM99.2 101.3c-.4-.2-.8-.5-1.2-.8l.6-.8c.7.5 1.4.9 2.2 1.2l-.3 1c-.4-.2-.9-.4-1.3-.6zM95 90.5c.2-.5.4-.9.6-1.3.2-.4.5-.8.8-1.2l.8.6c-.3.3-.5.7-.7 1.1-.2.4-.4.8-.5 1.2l-1-.4zm15.5 8.4l-.8-.6c.3-.3.5-.7.7-1.1.2-.4.4-.8.5-1.2l1 .3c-.2.5-.4.9-.6 1.3-.2.5-.5.9-.8 1.3zm-2.2-11.8c-.7-.5-1.4-.9-2.2-1.2l.3-1c.9.3 1.8.8 2.5 1.4l-.6.8z"/></g><circle fill="#54C4CD" cx="80.7" cy="118.9" r="1.5"/><path fill="#F3D0B4" d="M83.4 110.9l.7 3.2-3.1-.9-3.1-.9 2.3-2.3 2.4-2.2z"/><circle fill="#54C4CD" cx="219.8" cy="150" r="1.5"/><path fill="#E2E2E1" d="M282.9 131.8l.8 3.1-3.1-.9-3.1-.9 2.3-2.2 2.3-2.3z"/><circle fill="#54C4CD" cx="199.4" cy="19.2" r="1.5"/><g fill="#54C4CD"><path d="M260.9 183.2l.1-.6c.5.1 1 .1 1.6 0l.1.6h-1.8zm2.8-.4l-.2-.6c.5-.2.9-.5 1.3-.8l.4.5c-.5.4-1 .7-1.5.9zM266.4 178.4c.1-.5.1-1 0-1.6l.6-.1c.1.6.1 1.2.1 1.8l-.7-.1zm-.3-2.5c-.2-.5-.5-.9-.8-1.3l.5-.4c.4.4.7 1 .9 1.5l-.6.2zM258.4 174.1l-.4-.5c.4-.4 1-.7 1.5-.9l.2.6c-.5.2-.9.4-1.3.8zm2.3-1.1l-.1-.6c.6-.1 1.2-.1 1.8-.1l-.1.6c-.6 0-1.1 0-1.6.1zM257.4 181.3c-.4-.4-.7-1-.9-1.5l.6-.2c.2.5.5.9.8 1.3l-.5.4zm-1.2-2.5c-.1-.6-.1-1.2-.1-1.8l.6.1c-.1.5-.1 1 0 1.6l-.5.1zM259 182.6c-.3-.1-.5-.3-.7-.5l.4-.5c.4.3.9.6 1.4.7l-.2.6c-.4-.1-.7-.2-.9-.3zm-2.6-6.6c.1-.3.2-.5.4-.8.1-.3.3-.5.5-.7l.5.4c-.2.2-.3.4-.4.7-.1.2-.2.5-.3.7l-.7-.3zm9.5 5.1l-.5-.4c.2-.2.3-.4.4-.7.1-.2.2-.5.3-.7l.6.2c-.1.3-.2.5-.4.8 0 .3-.2.6-.4.8zm-1.4-7.2c-.4-.3-.9-.6-1.4-.7l.2-.6c.6.2 1.1.5 1.5.8l-.3.5z"/></g><circle fill="#EBB65C" cx="272.3" cy="182.4" r="1.2"/><circle fill="#EBB65C" cx="137.5" cy="22" r="1.2"/><path fill="#E2E2E1" d="M191 14.4l-1.8 2.8-1.5-3-1.4-2.9 3.2.2 3.3.2z"/><path fill="#E2E2E1" stroke="#E2E2E1" stroke-width="1.774" stroke-miterlimit="10" stroke-dasharray="2.366,1.7745" d="M163.3 163.9l178.4-.1"/><path fill="#E2E2E1" stroke="#E2E2E1" stroke-width="1.435" stroke-miterlimit="10" stroke-dasharray="1.9134,1.435" d="M98.3 30.8h54.8"/><g fill="#54C4CD"><path d="M49.5 22.4l.2.6c-.5.2-.9.5-1.3.8l-.4-.5c.5-.4 1-.7 1.5-.9zM47.2 24l.5.4c-.3.4-.6.9-.8 1.4l-.6-.2c.3-.6.6-1.1.9-1.6zM47 29.2c.2.5.5.9.8 1.3l-.5.5c-.4-.5-.7-1-.9-1.5l.6-.3zm1.5 2c.4.3.9.6 1.4.8l-.2.6c-.6-.2-1.1-.5-1.5-.9l.3-.5zM56.1 29.1l.6.2c-.2.6-.5 1.1-.9 1.5l-.5-.4c.3-.3.6-.8.8-1.3zm-1.5 2.1l.4.5c-.5.4-1 .7-1.5.9l-.2-.6c.5-.2.9-.5 1.3-.8zM53.4 22.3c.6.2 1.1.5 1.5.9l-.4.5c-.4-.3-.9-.6-1.4-.8l.3-.6zm2.3 1.6c.4.5.7 1 .9 1.5l-.6.3c-.2-.5-.5-.9-.8-1.3l.5-.5zM51.5 22c.3 0 .6 0 .9.1l-.1.6c-.5-.1-1.1-.1-1.6 0l-.1-.6c.3-.1.6-.1.9-.1zm5.4 4.5c.1.3.1.6.1.9 0 .3 0 .6-.1.9l-.6-.1c0-.3.1-.5.1-.8 0-.3 0-.5-.1-.8l.6-.1zm-10.8.1l.6.1c0 .3-.1.5-.1.8 0 .3 0 .5.1.8l-.6.1c-.1-.3-.1-.6-.1-.9 0-.3.1-.6.1-.9zm4.7 5.6c.5.1 1 .1 1.6 0l.1.6c-.6.1-1.2.1-1.8 0l.1-.6z"/></g><circle fill="#EBB65C" cx="19.9" cy="48.6" r="1.2"/></svg>